<?xml version="1.0" encoding="utf-8"?>
<!-- Generator: Adobe Illustrator 24.0.3, SVG Export Plug-In . SVG Version: 6.00 Build 0)  -->
<svg version="1.1" id="Layer_1" xmlns="http://www.w3.org/2000/svg" xmlns:xlink="http://www.w3.org/1999/xlink" x="0px" y="0px"
	 viewBox="0 0 1600 364.6" style="enable-background:new 0 0 1600 364.6;" xml:space="preserve">
<style type="text/css">
	.st0{display:none;fill:url(#bg_light_2_);}
	.st1{fill:#213E48;}
	.st2{fill:#295462;}
	.st3{display:none;}
	.st4{display:inline;fill:#295462;}
	.st5{display:none;opacity:0.68;fill:#23494F;enable-background:new    ;}
	.st6{fill:#131517;}
</style>
<g id="Cave">
	
		<radialGradient id="bg_light_2_" cx="788.2098" cy="735.5163" r="703.2548" gradientTransform="matrix(1.168919e-02 0.9999 1.3028 -1.536260e-02 -65.0542 -349.6979)" gradientUnits="userSpaceOnUse">
		<stop  offset="0" style="stop-color:#DBDFC4"/>
		<stop  offset="0.1181" style="stop-color:#D1DCC4"/>
		<stop  offset="0.3183" style="stop-color:#B6D3C4"/>
		<stop  offset="0.5321" style="stop-color:#93C8C4"/>
	</radialGradient>
	<path id="bg_light_1_" class="st0" d="M483.1-6H1v296.5v373l0,0l0,0V1004h1604V-6H483.1z"/>
	<path id="stalactite_1_" class="st1" d="M1605-7v78.2c-3.6,3.4-9.3,5.6-17.5,1.3c-17-9-47,39-62,35c-2.3-0.6-5.6-0.8-9.5-0.7
		c-21.1,0.5-60.6,9.7-71.5,9.7c-13,0-27-23-37-25S1392,127,1385,124s-13.5-41.5-21.5-42.5c-0.2,0-0.4-0.1-0.7-0.1
		c-8-0.4-20.6,8.1-30.3,10.1c-3.3,0.7-6.4,6.5-9.3,13.9c-1.5,3.8-2.9,8.1-4.3,12.4v0.1c-4.1,12.5-7.9,24.6-11.4,24.6
		c-7,0-8-12-20-17s-14-44-26-41S1241,154,1234,155c-2.5,0.4-5.7,10-9,22.2l0,0c-5.9,21.8-12.2,51.8-16,51.8c-6,0-28-59-25-77
		s-17.7-39.9-18.5-44.5c-2-11-3-41-15-38s-15,69-22,79s-10,71-19,78s-11,59-25,60s-17-72-29-85s-1-122-17-127s-104,39-128,42
		s-62,47-90,51s-67-41-87-52s-49-2-63-8c-7.8-3.3-22.9-3.9-38-3.2c-12.2,0.5-24.5,1.9-33,3.2c-10.5,1.7-17-4-22.5-10.6l0,0l0,0
		c-4.4-5.3-8-11.2-12.5-14.4c-10-7-44-28-53-27s-6,71-17,71c-9,0-23.4-66.2-34.8-93.6c-2.6-6.1-5-10.3-7.2-11.4
		c-12-6-9.5,37.5-18.5,39.5c-1.4,0.3-2.7,2.9-3.9,7.2c-6.1,22.4-8.6,89.6-11.1,98.8c-3,11-3,62-11,63s-20-76-23-83
		c-0.9-2-1.9-9.6-3.1-19.4c-3.1-24.5-7.5-62.5-13.9-59.6c-9,4-28,59-32,69c-2.1,5.2-4.7,31-7.5,55.5c-2.5,22.6-5.1,44.1-7.5,47.5
		c-5,7-10,58-20,56s-10-34-9-46c0.6-7.7-6.6-22.9-11.3-36.5l0,0c-2.6-7.5-4.4-14.5-3.7-19.5c2-14-12-40-15-54c-0.7-3.1-1-8-1.3-13.8
		c-1.1-20.5-1.3-52.5-10.7-57.2c-12-6-57,27-61,38s-18,32-27,42s-39,8-45,18s-16,34-26,36c-5.6,1.1-20.6,61.6-25,66
		c-8.4,8.4-44.1,0-46,0c-8.1,0-19.5,12.5-26,20.5V-7H1605z"/>
	<g id="floor">
	</g>
	<g id="right_wall">
		<path class="st2" d="M1605,71.2v284.6c-5.1-4.4-13.3-9.7-24-10.8c-10.2-1.1-14.6-14.2-17-28.2l0,0c-2.1-12.1-2.6-24.7-4-30.7
			c-3-13-21-17-28-19s-27-18-34-15l0,0c-7,3.1-6,54-16,54s-9-46-16-51s-10-45-13-54s-22-22-26-20c-2.4,1.2-6.9,14.2-11,30
			c-2.8,10.7-5,25-9,26s-13-72-21-74c-7.4-1.8-16.4-22.2-29.4-34.8l0,0c-1.2-1.1-2.4-2.2-3.6-3.2c-7.6-6.1-18.7-12.4-29.8-19.6
			c2.9-7.5,6-13.3,9.3-13.9c9.7-1.9,22.3-10.5,30.3-10.1c0.2,0,0.5,0,0.7,0.1c8,1,14.5,39.5,21.5,42.5s12.5-34.5,22.5-32.5
			s24,25,37,25c11,0,50.5-9.3,71.5-9.7c3.9-0.1,7.1,0.1,9.5,0.7c15,4,45-44,62-35C1595.7,76.9,1601.4,74.7,1605,71.2z"/>
	</g>
	<g id="left_wall" class="st3">
		<path class="st4" d="M452.5,21.5c-12-6-9.5,37.5-18.5,39.5c-1.4,0.3-2.7,2.9-3.9,7.2c9.9-11.9,19.9-23.9,29.5-35.3
			C457.1,26.8,454.7,22.6,452.5,21.5z"/>
		<path class="st4" d="M353,167c5.3-8.6,15.7-22.6,28.9-39.4c-3.1-24.5-7.5-62.5-13.9-59.6c-9,4-28,59-32,69
			c-2.1,5.2-4.7,31-7.5,55.5C337.1,187.1,345.3,179.4,353,167z"/>
		<path class="st4" d="M171,500c42,3,145,25,175,24c0.5,0,1,0,1.6,0c-5-5.6-9.9-11.2-15-16.7c-6.2-6.7-11.6-13.9-18.9-19.8
			c-7.2-5.9-15.2-11-21.4-18c-7-7.9-11.5-17.7-16.9-26.8c-14.3-24-35.7-42.9-53.9-64.2c-8.6-10-13.1-20.2-11.5-33.4
			c3-25,21-90,53-119c5.9-5.4,11.8-9.3,17.7-12.5c-2.6-7.5-4.4-14.5-3.7-19.5c2-14-12-40-15-54c-0.7-3.1-1-8-1.3-13.8
			c-1.1-20.5-1.3-52.5-10.7-57.2c-12-6-57,27-61,38s-18,32-27,42s-39,8-45,18s-16,34-26,36c-5.6,1.1-20.6,61.6-25,66
			c-8.4,8.4-44.1,0-46,0c-8.1,0-19.5,12.5-26,20.5v220.1c12.3-1.1,45.9-4,81.3-6.4C112.6,500.6,151.9,498.6,171,500z"/>
	</g>
	<g id="right_rock">
	</g>
	<g id="left_rock">
	</g>
	<rect id="color_block" x="-4" y="-14" class="st5" width="1621" height="1041"/>
</g>
<g id="Foreground">
	<path id="ceiling_1_" class="st6" d="M-11,83c0,0,39-12,59-21s68,1,89-4s54-41,69-37s62,48,88,47s83.1-26.1,96.6-20.1
		C404,54,449,106,463,101s77.7-49.8,91.4-51.9C568,47,582,40,603,34s21.4,13.4,39.2,13.2s42.3-29.7,58.3-25.7s36,5,58,3s29-10,42-9
		s84,4,99,10s56,14,82,11s121-3,135-8s38-1,47,6s25,41,41,37s20-31,33-32s33,6,51,0s26-25,54-24s50,2,60,6s32,32,40,40s-2,34,6,40
		s54,9,69,25s44,33,52,33s33,32,39,34s0-204,0-204h-1619L-11,83z"/>
</g>
</svg>
