<?xml version="1.0" encoding="utf-8"?>
<!-- Generator: Adobe Illustrator 24.0.3, SVG Export Plug-In . SVG Version: 6.00 Build 0)  -->
<svg version="1.1" id="Layer_1" xmlns="http://www.w3.org/2000/svg" xmlns:xlink="http://www.w3.org/1999/xlink" x="0px" y="0px"
	 viewBox="0 0 1911 4356.3" style="enable-background:new 0 0 1911 4356.3;" xml:space="preserve">
<style type="text/css">
	.st0{fill:#111111;}
	.st1{opacity:0.53;fill:url(#SVGID_1_);enable-background:new    ;}
	.st2{opacity:0.19;}
	.st3{fill:url(#SVGID_2_);}
	.st4{opacity:0.15;fill:url(#SVGID_3_);enable-background:new    ;}
	.st5{opacity:0.1;fill:url(#SVGID_4_);enable-background:new    ;}
	.st6{opacity:0.12;}
	.st7{fill:url(#SVGID_5_);}
</style>
<g id="Layer_2_3_" transform="translate(-65.911)">
	<path id="Path_1_2_" class="st0" d="M1449,3129.4c0.2,0,0.2,0,0.2-0.1C1449.1,3129.3,1449,3129.3,1449,3129.4z M1448.9,3129.4h-1.5
		C1447.9,3129.5,1448.4,3129.5,1448.9,3129.4z M609.3,3112.5c0.5,0.1,1,0.2,1.5,0.1L609.3,3112.5z"/>
	<path id="Path_2_2_" class="st0" d="M1449,3129.4c0.2,0,0.2,0,0.2-0.1C1449.1,3129.3,1449,3129.3,1449,3129.4z M1448.9,3129.4h-1.5
		C1447.9,3129.5,1448.4,3129.5,1448.9,3129.4z M609.3,3112.5c0.5,0.1,1,0.2,1.5,0.1L609.3,3112.5z"/>
	<path id="Path_3_2_" class="st0" d="M1500.7,795.8c6.3,10.4,10.9,21.2,10.5,33.6c-0.4,7.3-0.4,14.7,0.1,22
		c1.1,12.3,3.1,24.4,4.3,36.7c0.7,7.8,1.6,15.7,1.1,23.5c-0.4,5.9-0.6,11.8-0.5,17.6c11.6-20,23.6-39.9,24-60.8
		C1540.8,841.9,1520.8,819.1,1500.7,795.8L1500.7,795.8z M1428,1145.5c-13.3,5-23.4,16-35.4,23.6c-20.7,13-46,15.2-70.2,17.1
		c-34.6,2.7-66.2,7.5-98.1,9.1c6.9,39.9,13.3,82.8,19.1,128.1c13.5,104.9,24.1,222.7,32.3,345l181-331.1c7.7,2.8,15.1,6.4,22.2,10.7
		c0.6-18.6,1.1-36.8,1.7-54.4c2.1-60.6,4.3-115.7,6.8-163.3c-8.4,4.4-18.3,7.8-29.8,9.8C1447.7,1141.7,1437.4,1141.9,1428,1145.5z
		 M1831.6,651.3c-12.2,37-34.3,69.7-67.7,93c-10.9,7.6-78.1,42.7-78.6,7.2c-0.6-37.7,0.3-75.4,1-113.1c0.3-18.6,0.7-37.2,0.9-55.8
		c0.2-19.3,1.6-39.2-2.4-58.1c15.6-3.6,32.9-1,47.9,4.1c12,4.1,23.7,10.8,36.7,10.8c7.8,0,71.6-18.3,72.9-2.4
		C1845.5,575,1843.6,614.9,1831.6,651.3z M1370.7,500.4c29.8-14,23,13.4,23.4,22.7c0.8,21.7-12.4,39.2-18.5,60.1
		c-1.7,5.7-3.5,11.3-5.3,16.9c-7.8,23.4-15.7,45.5-12.7,70.5c3.9,32.4,18.3,64.2,37.7,94.9c11.8,18.6,25.4,37.9,32.1,57.1
		c3.5,10.2,5.1,20.3,3.4,30.4c-0.9,5.5-2.8,10.9-5.5,15.8c-6.1,11.3-17.1,21.6-27.9,31.8c-10,9.4-20.1,18.8-33.3,26.9
		c-2.2,1.3-4.5,2.6-6.9,3.8c-6.3,3.1-13.5,5.6-21.8,6.4c-20.7,2-39.4-7.4-49.6-17.4c-20.8-20.6-20.8-45.2-29.4-68.3
		c-6.1-16.3-16.7-32-24.2-48c-14.2-30.3-17.6-62-10.1-93.1c5.5-22.8,18.9-44.9,19.9-68c1-23.2-7.9-47.2-12.5-70.3
		c-1.6-8-2.9-16.8,5.2-23.5c7.1-5.9,19.7-8.8,31.3-11.8c6.8-1.7,13.5-3.5,20.1-5.4C1316.3,523.1,1344.8,512.5,1370.7,500.4
		L1370.7,500.4z M882.9,619.8c11.5-11.8,34.5-16,20.4-32.5c-3.1-3.6-8.1-7.1-7.6-11.1c0.7-5.5,11.3-8.7,19.8-11.7
		c15.1-5.3,27.5-12.9,35.4-21.6c4.8-5.3,10.3-12,21.2-12.4c7.5-0.2,14.2,3.1,16.9,7c12.5,18.1,3.6,42.6,7.8,61.8
		c3.7,17.2,17.8,33.2,34.1,47.8c33.2,30,81.8,56,104.7,89.2c27.4,39.6,14.3,83.6,0.9,125.2c-1.3,4.4-5.6,7.3-10.2,6.8
		c-2.1-0.3-4-1-5.8-2.1c-47.2-26.9-67.4-60.1-86.9-94.9c-23.8-42.2-65.8-79.7-109.7-116.6c-3.3-2.8-6.9-5.4-10.5-8
		c-8.8-6.6-17.9-12.8-27.5-19.1c-1.8-1.2-3.8-2.5-4.3-4.1C881.1,622.4,881.6,621.1,882.9,619.8L882.9,619.8z M1076.6,635.6
		c-13.6-10.3-19.4-23-24.9-35.3l-16.9-37.4c-2-3.9-13.9-9.9-11.3-14.5c1.1-1.8,2.8-3.2,4.8-4c8.9-3.6,25.2,1.6,34.8,2.4
		c11.4,0.9,27.7-2.1,37.6-5.1c17.1-5.2,34.1-13.8,47.4-21.6c28-16.4,47.8,54.7,45.8,64.9c-4.8,24.1-16.6,48.2-24.2,72.1
		c-0.6,1.9-1.3,3.9-3.8,5.3c-2.3,1.3-5.7,1.7-8.9,1.9C1126.4,666.3,1093.1,648.1,1076.6,635.6z M640.4,848.5
		c-5.4-5.6-7.6-11.7-8.8-17.9c-0.2-1-0.6-2-1.2-3c-1.3-2.5-2.7-5.1-4.1-7.6c-2.2-3.8-4.4-7.7-6.8-11.5c-1.6-2.5-3.5-4.9-5.1-7.5
		c-0.4-0.9-0.7-1.9-0.7-3c-0.4-1.9,0.1-4-1.2-5.6c-5.4-6.8-6.2-14.3-9.8-21.3c-1.6-3.2-2.1-6.5-3.2-9.7c-0.2-0.8-0.5-1.5-0.9-2.2
		c-4-6.1-6.7-12.9-7.8-20.1c-1.3-8.6-3.9-17.2-5.8-25.7c-0.8-3.4-0.3-7-1.9-10.2c-3.5-7.2-3.9-14.7-6.9-22
		c-2.7-6.6-2.9-13.6-4.2-20.4c-1-5.1-2.1-10.1-3-15.2c-1.1-5.8-2.4-11.6-2.8-17.4c-0.4-7.2,0.3-14.4-0.6-21.6
		c-0.3-2.3-1.6-3.5-6.1-4.2c-5-0.8-10.1-1.8-13.1-4.6c-3.6-3.4-2.1-5.6,4.9-6.4c3.4-0.4,7-0.4,10.4-0.8c3.6-0.4,7.1-0.9,10.6-1.7
		c3.1-0.7,6.3-0.7,9.5,0c2.9,0.7,5.8,1.1,8.7,1.4c11.6,0.4,9.4,1.3,14.4-4c7.6-8,24.3-13.6,42.2-12.8c2.8,0.1,5.6,0.1,8.3-0.1
		c3.5-0.3,6.7-0.6,10.2,0.4c3.3,0.9,6.1-0.1,8.7-1.4c5.4-2.8,10.9-5.5,16.7-8.1c5.1-2.2,12.9-2,18,0.2c6.1,2.6,11.9,5.2,16.3,8.8
		c3.9,3.1,7,7,9.2,11.5c1.3,2.6,2.7,5,7.7,6.4c1.6,0.6,2.9,1.8,3.4,3.5c1.8,6.7,3.4,13.3,4.9,20c0.8,3.9,1.9,7.7,1.7,11.7
		c-0.2,3.2,1.9,6.7,2.2,10.1c0.6,6.9,1.5,13.7,2.5,20.6c0.3,2.3,1.1,4.5,1.6,6.8c1.2,5.4,3.6,10.9,3.3,16.3
		c-0.3,5.7,3.9,10.9,3.7,16.4c0,1.3,0.3,2.5,0.3,3.8c-0.2,5.7-0.5,11.4-0.8,17.1c0,0.4-0.2,0.8,0,1.1c4,6.2,1.7,12.6,1,18.8
		c-0.6,5.1-1,10.1,0.7,15.2c1.6,5,3.7,10,2,15.1c-0.6,1.8,0.9,3.7,1.2,5.6c1,6.7,2,13.4,2.7,20.2c-0.1,1.3-0.9,3-1.6,4.6
		c-3.4,7.8-6.8,15.6-10.4,23.4c-2.6,5.6-5.7,11.2-8.4,16.9c-1.1,2.2-1.9,4.6-2.4,7.1c-1,5.1-3,9.8-6,14.1c-1.2,1.7-1.2,3.7-2.1,5.6
		c-3.3,6.2-5.9,12.6-10.5,18.5c-2.9,3.7-8,7.3-13.7,9.9c-7.6,3.5-16.6,6.1-25.3,8.8c-11.6,3.6-24.2-0.5-24.1-9.3
		c-1.1-2.3-1.9-6.4-5-9.8c-5.3-5.9-9-11.9-10.2-18.4c-0.1-0.7-0.9-1.4-1.5-2.1c-2.3-2.8-4.7-5.5-6.8-8.3
		C643.1,852.5,642.3,850.4,640.4,848.5L640.4,848.5z M1283.5,3059.3l2.6,0.1C1285.3,3059.4,1284.4,3059.4,1283.5,3059.3z
		 M1252.8,2969.9c-49.4,31.8-218.4,75.7-236.3,24.7C997.6,2934.4,911.2,1724.7,900,1638c-5.8-45-11.5-89.5-16.9-133.1
		c-16.3-130.9-30.6-254.2-41.6-359.9c-11.8-112.1-19.9-204.4-23-265.4c-3.8-75.9-26.1-174.6,22.4-247.3
		c58.8,41.8,102.9,89.9,129.3,140.5c13.6,26.1,22.8,53.1,46.7,76.9c25.9,25.7,67.1,45.4,104.2,66.6c38.9,22.2,70,108.7,94.7,233.4
		c2.9,14.7,5.7,29.9,8.5,45.5c6.9,39.9,13.3,82.8,19.1,128.1c13.5,104.9,24.1,222.7,32.3,345c4,59.3,16.1,1022.7,17.6,1074
		C1302.7,2871.3,1270.4,2965.2,1252.8,2969.9z M1627.3,2853.8c-4.7,40.2-148.5,135.1-155.6,92.7c-4.4-26.3-6.6-920.5-6.2-1173.7
		c0.1-82.4,0.5,1090.3,1.2,999c0.5-63.3,1.1-828.7,1.9-893.4c2.2-186.7,5.6-373.4,10.3-530.4c0.6-18.6,1.1-36.8,1.7-54.4
		c2.1-60.6,4.3-115.7,6.8-163.3c5.4-102.1,11.8-170.1,19.3-184.4c14.2-27.1,36.2-53.5,32.3-86.2c-2.5-20.3-15-37.5-28.3-52.4
		c-25.5-28.7-45.6-60.6-69.3-90.5c-8.5-10.8-20.2-20.9-21.2-35.6c-2.1-30.5-1-62.6,2-93.6c2.3-24.2,5.4-51.6,26.2-67.5
		c12.9-9.8,18.8,1.7,29.5-0.3c12.7-2.4,19.4-5.8,30.3-12.8c14.7-9.6,41.4-2.2,52-11.6c4.7-4.2,6.5-9.4,13.3-12.6
		c11.1-5.4,30-2,38.4,4.7s9.3,15.3,9.7,23.4c0.2,3.5,0.4,6.9,0.5,10.4c4,89-2.4,178.2,11.2,266.9c8.8,57.4,25.8,114.8,20.5,172.2
		c0,0.5-0.1,6.2-0.1,16.4c-0.2,63.8-0.1,303,1.3,527.2c0.4,68.1,0.9,134.9,1.6,194.9C1657.2,1753.7,1629.8,2832.4,1627.3,2853.8z
		 M1976,2892.2c-90.5-24.9-151.8-43.5-152-47.9c-3.7-68-9.9-699.7-16-1158.4c-1.3-94.5-2.5-187.5-3.7-275.2
		c-3.8-277.7-7.3-501.7-9.7-546c-1.1-20.4-2.1-41.1,7.8-60.6c8.1-16.2,23.5-31.1,35.7-46.6c39-49.6,43.8-103.9,52.1-156.9
		c0.8-5.1,2.5-10.1,3.7-15.1c3.6-14.8,52.9-25.5,71.8-35.1c10-5.2,19.6-11.1,28.7-17.7V47.4c-2.2-0.2-4.4-0.5-6.6-0.7
		c-18.4-1.7-36.6-3.8-54.8-5.8c-1.4-0.2-2.8-0.3-4.2-0.5c-0.7-0.1-1.4-0.1-2.1-0.1c-8.6,0.8-16.2-1.4-23.4-3
		c-9.1-2-18.4-3.1-27.8-3.1c-5.6,0-11.3,0.3-16.8-0.1c-3.2-0.4-6.4-0.2-9.5,0.4c-22,5.5-49,7.8-72.7,12.9
		c-6.8,1.4-13.7,1.9-20.6,1.4c-9.3-0.6-28.6,0.5-36.4-2.2c-9.6-3.3-6-10-15.9-13.9c-6.8-2.7-15.5-3.4-23.8-3.9
		c-40.9-2.7-83.9-2.8-123.8,3.4c-36.5,5.7-77.3,31.2-115.8,26.7c-7-0.8-14.4-0.6-21.6-1.1c-3.4-0.4-6.8-0.2-10.1,0.7
		c-2.4,0.6-4.9,0.9-7.4,0.8c-27.6-0.8-43.4,8.8-69.5,11.6c-1,0.2-2,0.6-2.9,1c-1.9,0.5-3.8,1-5.7,1.4c-3.9,0.8-8,1.4-11.9,2.2
		c-5.9,1.3-11.6,2.7-17.4,4c-52.6,11.8-102.8,23.2-143,46c-18.4,10.5-38.6,23.5-65,22.1c12-4.2,8.6-15.2-3.1-19.7
		c-11.6-4.5-27.2-4.3-41.3-3.3c-36.7,2.6-72.5,9.4-104.4,19.6c-8.6,2.8-17.4,5.9-27.3,6.2c-6.6,0.2-13.1-0.8-19.6-1.7
		c-66.3-9-140.2,0.9-191.5,25.5c-5.1,2.5-10.4,5.4-10.9,9.2c-0.4,2.7,1.9,5.3,3.1,8c6.8,15.2-21,27.8-45.4,36.1
		c-5.7,2.1-11.6,3.7-17.6,4.7c-3.3,0.4-6.7,0.6-10.1,0.7c-3.4,0.1-6.8,0.1-10.1,0.1c-52.8,0.1-109.8,14.4-141.4,37.9
		c-28.9,21.5,1.2,56.9-40.5,72.9c-17.6,6.7-39.7,10.9-51.8,20.6c-5.2,4.1-10.8,9.8-19.8,9c-4.5-0.4-8-2.4-12.5-3
		c-11.6-1.5-18.1,6.6-24.3,12.2c-15.1,13.4-49.3,16.7-67.6,28.8c-19.6,13.1-15.4,32.1-10.2,48.6c7.2,22.9,15.3,46.7,41.7,64.9
		c24.1,16.6,60.4,26.3,95.4,35.3c29,7.5,58.3,18.9,89.9,20.8c3.6,0.2,6.2,1.2,7.3,3.1c1.4,2.4,2.5,4.9,3.9,7.3
		c1,1.9,2.4,3.7,3.9,5.2c2.8,2.6,5.1,5.1,4.7,8.3c-0.1,1-0.1,2,0.2,3c25.9,101.3,25.7,206.4,105,301.5
		c13.8,16.5,29.7,32.6,40.9,49.6c2.2,3.4,6.7,82.5,12,207.6c0.4,9.4,0.8,19.1,1.2,29c3.3,81.1,7,178.8,10.5,286.2
		c5.2,156.7,10.3,1035.2,14.3,1212.3c3.4,150.1,8,117.4,6.2,210.9c-0.1,3.4-0.1,6.9-0.2,10.3c-2.8,128.7-8.9,214.9-19.7,230.8
		c-7.8,11.4-48.3,24.1-94.5,35.3c-7.2,1.7-15.2,3.9-23.9,6.4c-46.4,13.4-110.2,36.4-145.3,52.2c94.9,1.2,194.1-14.6,273.6-45.5
		l1-0.4c113.4-44.1,267.4-57.5,392-34.3l100.1,18.7c123.2,23,275.3,10.1,388.4-32.9l45.2-17.2c113.4-43.1,266-55.9,389.3-32.7
		l12.2,2.3v-200.5C1988.4,2895.6,1982.1,2893.9,1976,2892.2z"/>
	<path id="Path_6_2_" class="st0" d="M849.5,2964.2"/>
	<path id="Path_7_2_" class="st0" d="M870.8,2955.7"/>
</g>
<linearGradient id="SVGID_1_" gradientUnits="userSpaceOnUse" x1="-1.8" y1="631.9667" x2="1928.8" y2="631.9667" gradientTransform="matrix(1 0 0 -1 0 4356)">
	<stop  offset="0" style="stop-color:#FFFFFF;stop-opacity:0"/>
	<stop  offset="0.325" style="stop-color:#D8EBEA;stop-opacity:0.325"/>
	<stop  offset="0.776" style="stop-color:#A6D2CE;stop-opacity:0.776"/>
	<stop  offset="1" style="stop-color:#93C8C4"/>
</linearGradient>
<path class="st1" d="M1928.8,3098v1265.8l-392.4-4.9l-933.9-11.6l-531.6-6.6l-66.6-0.8l-4.7-647.3l-0.9-304.4
	c-0.1-53-0.3-108.2-0.4-164.8c0-13-0.1-26-0.1-39.1l20.8,4.4l175.9,37.3c41.2,8.7,86.1,13.3,132,13.9c9,0.1,18.1,0.1,27.2-0.1
	c86.4-1.8,174.5-17.4,246.4-45.3l1-0.4c18-7,37.1-13.2,56.8-18.7c104.7-28.8,230.3-35.2,335.1-15.6l100.1,18.7
	c7,1.3,14.1,2.5,21.3,3.6c119.1,17.8,260.4,4.1,367.1-36.5l45.2-17.2c100.2-38.1,230.9-52.5,345-39.4c15.1,1.7,29.9,4,44.3,6.7
	L1928.8,3098z"/>
<g class="st2">
	<g>
		<g>
			
				<linearGradient id="SVGID_2_" gradientUnits="userSpaceOnUse" x1="986.1" y1="4293.0771" x2="986.1" y2="-193.7545" gradientTransform="matrix(1 0 0 -1 0 4356)">
				<stop  offset="0" style="stop-color:#FFFFFF;stop-opacity:0"/>
				<stop  offset="0.325" style="stop-color:#D8EBEA;stop-opacity:0.325"/>
				<stop  offset="0.776" style="stop-color:#A6D2CE;stop-opacity:0.776"/>
				<stop  offset="1" style="stop-color:#93C8C4"/>
			</linearGradient>
			<path class="st3" d="M1973.9,0v565.3l-0.4,0.8l-236,468.4l-47.9,95.3l-220,436.5l-256.3,508.2l-35.4,70.2L910.1,2676
				l-149.9,297.2L674,3144.3l-15.7,31.2l-68.5,136l-75.3,149.2l-41.8,82.7l-68.1,135l-21.3,42.2l-21.8,43.2L70.8,4340.7L23.3,4435
				l-16.2,32.1H5.3c-0.3-42.4-0.7-84.8-1-127.2c-0.1-16.3-0.3-32.7-0.4-49c-1.1-145.6-2.3-291.2-3.5-436.8
				c-0.3-30.9-0.5-87.4-0.8-161.5l-0.9-304.4c-0.1-53-0.3-108.2-0.4-164.8l15.8-26.4l4.9-8.2l166.8-279.7l142.4-238.7l25.7-43.1
				l212.5-356.5l211-353.9l43.8-73.4l209-350.8l104.2-174.1l63-105.7l4.4-7.6l220.8-370.2L1882.5,64l36.6-61.4L1973.9,0z"/>
		</g>
	</g>
</g>
<linearGradient id="SVGID_3_" gradientUnits="userSpaceOnUse" x1="963.75" y1="994.7883" x2="963.75" y2="-111.1001" gradientTransform="matrix(1 0 0 -1 0 4356)">
	<stop  offset="0" style="stop-color:#FFFFFF;stop-opacity:0"/>
	<stop  offset="0.325" style="stop-color:#D8EBEA;stop-opacity:0.325"/>
	<stop  offset="0.776" style="stop-color:#A6D2CE;stop-opacity:0.776"/>
	<stop  offset="1" style="stop-color:#93C8C4"/>
</linearGradient>
<path class="st4" d="M1928.8,3372.8v1094.3H5.3c-0.3-42.4-0.7-84.8-1-127.2l-4.7-647.3l-0.9-304.4c108.4-37.5,238.5-35,344.8,8.9
	l20,8.3l78.6,32.5c23.1,9.6,47.4,17.2,72.4,22.8c105.8,24,223.6,12.9,317.3-32.4l46.3-22.4c47.7-23,101.6-37.2,157-42.4
	c79.5-7.5,162.1,3.4,233.7,33.2l100.7,41.9c119.7,49.8,270.4,47.1,386.1-7l29.7-13.9l16-7.5
	C1840.7,3391.7,1884,3379.3,1928.8,3372.8z"/>
<linearGradient id="SVGID_4_" gradientUnits="userSpaceOnUse" x1="964.2" y1="744.2898" x2="964.2" y2="-111.1001" gradientTransform="matrix(1 0 0 -1 0 4356)">
	<stop  offset="0" style="stop-color:#FFFFFF;stop-opacity:0"/>
	<stop  offset="0.325" style="stop-color:#D8EBEA;stop-opacity:0.325"/>
	<stop  offset="0.776" style="stop-color:#A6D2CE;stop-opacity:0.776"/>
	<stop  offset="1" style="stop-color:#93C8C4"/>
</linearGradient>
<path class="st5" d="M1928.8,3766.7v700.4H5.3c-0.3-42.4-0.7-84.8-1-127.2l-4.7-647.3c116.8,74.1,265.5,74.2,382.1,1.4
	c6.5-4.1,13-8.4,19.3-13l1-0.7c0.9-0.6,1.8-1.3,2.7-1.9c115.8-81.6,269-87.5,390.7-14.6l85.2,51l13.4,8
	c121.3,72.6,273.9,67.1,389.7-13.9l46.3-32.4c116-81.2,269-86.5,390.3-13.5c0.1,0.1,0.2,0.1,0.3,0.2l100.7,60.6
	C1855.2,3744.1,1891.5,3758.4,1928.8,3766.7z"/>
<path d="M1008.5,1064.8c-29.4,5.5-111.3-4.6-127.4,21.2c-9.4,15.1-11.6,32.2-10.3,49.5c1,13.7,10.8,135.2,14.5,148.1
	c1.1,3.8,61.1-59.3,62.9-59.6c39.7-44.2,94.8-49.9,124.7-91.1c17.1-23.7,30.4-56.3,32.3-85.6
	C1107.2,1016.9,1023.2,1062,1008.5,1064.8z M1630.5,4002.8L1630.5,4002.8c-13.3,13.3-31.6,22.2-61.9,23.2
	c-113.4,4-204,224.4-253.4,228.4c-13.5,1.1-83-2.3-159.4-8.9c-82.2-7.1-172.4-18-209.9-31.2c-49.8-17.4-152.4-71.5-210-86.8
	c-4.7-1.3-17.4-3.2-34.4-5.5c-58.2-7.9-167.5-20.1-184-23.9c-20.5-4.8-67.2-14.2-109.3-26.8c-3.5-46.7-13.1-175.8-24.8-350.8
	c-0.6-8.8-1.2-17.6-1.8-26.6c-5.8-87.2-11.9-184.9-18.1-288.6c-3.2-53.7-6.4-109.1-9.5-165.5c-10.2-185.3-19.6-382-25.8-569.5
	c-13.2-395.4-12.6-749.6,23.4-868.2c50.2-161.3,370.2-122.7,393.4-194.1c39.2-38,180.8-284,230.5-315.8
	c23.7-29.1,54.8-50.6,82.5-75.6c6.3-5.7,12.4-11.6,18.2-17.8c39.8-42.2,63.9-97,87.4-150.6c23.2-1.8,46.4,1.6,69.6,5.1
	c31.4,4.8,27.6-8.8,58.3-15.5c16.4-3.6,13.3-38.1,15.6-39.1c12.3-38,54.7-30.4,56.9-86c-2.2-71.4-15.2-28.1-27.9-90.4
	c-1-4.7-14-24.7-33.2-43.8c18.9-61.7-42.9-135.3-22.2-148.2c12-7.6-5.2-34.4,8.1-39.4c9.4-3.6,28.3-74.7-10.1-95.3
	c-39.9-21.4-82.4-44.4-104.6-85.9c-17.7-33.2-19.8-72.4-46.4-101.1c-20.5-22.1-46.7-53-71.7-66.1c-46.2-24.4-61.4-84-113.6-99.5
	c-47.6-14.2-99.1-15.5-147.7-27.5c-32.7-8.1-66.3-13.1-100-11.1c-31.8,1.9-60.7,16.2-91.8,18.8c-77.7,6.4-114.8-79.9-189.5-36.8
	c-24.5,14.1-67,13.1-107.6,9.4c-40.6-3.6-60.8,10.7-86.5,28.5c-39.1,27.1-42.4,65.5-92.2,67.6c-58.4,2.6-206.5,47.4-142.9,264.5
	l-3.9,447.2c49.1,73.9-52-7.2-52.5,53.4c-1.2,152.9,40,345.8,40.8,442.9c1.8,228.1,24.9,558.4,26.8,786.5
	c0.9,114.9,1.8,582.8,2.8,997.8c0,13.1,0.1,26.1,0.1,39.1c0.1,56.5,0.3,111.8,0.4,164.8l0.9,304.4c0.3,74.1,0.5,130.6,0.8,161.5
	c1.2,145.6,2.4,291.2,3.5,436.8c0.1,16.3,0.3,32.7,0.4,49c0.4,42.4,0.7,84.8,1.1,127.2h1923.4v-624
	C1661.3,3844.9,1679.6,3953.9,1630.5,4002.8z M261.9,1429.2c-51.7-67.8-55.9-225.4,29.4-378.3c25.6-45.9,59.2-75.8,95.8-94.8
	c40.2-20.9,75.7,21.1,116.8,19.5c67.2-2.6,106,28.5,124.3,34.5c9.3,22.2,20.6,39.3,26.2,44.4c10.7,9.7,24.8,14.4,38.4,18.8
	c2.5,0.8,5,1.8,7.3,2.8c54.8,24.2,55.9,102.9,102.3,60.1c18.2,31,23.8,66.9,21.7,103.3c-1.9,31-9.4,62.4-19.6,91.5
	c-8.3,23.8-143.7,106.9-168.4,123.9c-1.8,1.3-3.6,2.4-5.3,3.4c0.6,0.4,1.3,0.8,1.9,1.2c0,0-0.8,1.1-1.2,1.5
	c-0.8-0.6-1.5-1.2-2.2-1.8l-0.1-0.1C596.6,1477.3,349.4,1536.4,261.9,1429.2z"/>
<path d="M579.2,1087.3"/>
<g class="st6">
	<g>
		<g>
			
				<linearGradient id="SVGID_5_" gradientUnits="userSpaceOnUse" x1="1282.6" y1="3253.835" x2="1282.6" y2="-174.2753" gradientTransform="matrix(1 0 0 -1 0 4356)">
				<stop  offset="0" style="stop-color:#FFFFFF;stop-opacity:0"/>
				<stop  offset="0.325" style="stop-color:#D8EBEA;stop-opacity:0.325"/>
				<stop  offset="0.776" style="stop-color:#A6D2CE;stop-opacity:0.776"/>
				<stop  offset="1" style="stop-color:#93C8C4"/>
			</linearGradient>
			<polygon class="st7" points="2015.5,1054 2015.5,2600.7 1901.4,2978.5 1872.2,3089 1785.3,3417.6 1720.4,3662.9 1630.5,4002.8 
				1630.5,4002.9 1536.3,4358.9 1507.7,4467.1 549.7,4467.1 602.4,4347.3 644.2,4252.2 701.5,4122.1 850.6,3783 880.6,3714.7 
				987.7,3471.3 1035.1,3363.4 1114.9,3182.1 1167.5,3062.3 1218.6,2946.1 1250.5,2873.7 1334.5,2682.8 1406.4,2519 1479.6,2352.4 
				1619.1,2035.1 1644.9,1976.5 1769.6,1693.1 1784,1660.3 1927.8,1333.3 			"/>
		</g>
	</g>
</g>
</svg>
