<?xml version="1.0" encoding="utf-8"?>
<!-- Generator: Adobe Illustrator 24.0.3, SVG Export Plug-In . SVG Version: 6.00 Build 0)  -->
<svg version="1.1" id="Layer_1" xmlns="http://www.w3.org/2000/svg" xmlns:xlink="http://www.w3.org/1999/xlink" x="0px" y="0px"
	 viewBox="0 0 1911 4356.3" style="enable-background:new 0 0 1911 4356.3;" xml:space="preserve">
<style type="text/css">
	.st0{fill:#B1B1B1;}
	.st1{fill:#1E1E1E;}
	.st2{opacity:0.19;}
	.st3{fill:url(#SVGID_1_);}
	.st4{fill:url(#SVGID_2_);}
	.st5{fill:url(#SVGID_3_);}
	.st6{fill:url(#SVGID_4_);}
</style>
<g id="Layer_2_2_" transform="translate(-65.911)">
	<path id="Path_1" class="st0" d="M1441.5,3106.7c0.2,0,0.2,0,0.2-0.1C1441.6,3106.6,1441.5,3106.6,1441.5,3106.7z M1441.4,3106.7
		h-1.5C1440.4,3106.8,1440.9,3106.8,1441.4,3106.7z M601.8,3089.8c0.5,0.1,1,0.2,1.5,0.1L601.8,3089.8z"/>
	<path id="Path_2" class="st0" d="M1441.5,3106.7c0.2,0,0.2,0,0.2-0.1C1441.6,3106.6,1441.5,3106.6,1441.5,3106.7z M1441.4,3106.7
		h-1.5C1440.4,3106.8,1440.9,3106.8,1441.4,3106.7z M601.8,3089.8c0.5,0.1,1,0.2,1.5,0.1L601.8,3089.8z"/>
	<path id="Path_3" class="st1" d="M1493.2,770.2c6.3,10.4,10.9,21.2,10.5,33.6c-0.4,7.3-0.4,14.7,0.1,22c1.1,12.3,3.1,24.4,4.3,36.7
		c0.7,7.8,1.6,15.7,1.1,23.5c-0.4,5.9-0.6,11.8-0.5,17.6c11.6-20,23.6-40,24-60.9C1533.3,816.3,1513.3,793.5,1493.2,770.2
		L1493.2,770.2z M1420.5,1120.3c-13.3,5-23.4,16-35.4,23.6c-20.7,13-46,15.2-70.2,17.1c-34.6,2.7-66.2,7.5-98.1,9.1
		c6.9,39.9,13.3,82.9,19.1,128.3c13.5,105,24.1,223,32.3,345.4l181-331.5c7.7,2.8,15.1,6.4,22.2,10.7c0.6-18.6,1.1-36.8,1.7-54.5
		c2.1-60.7,4.3-115.8,6.8-163.5c-8.4,4.4-18.3,7.8-29.8,9.8C1440.2,1116.5,1429.9,1116.7,1420.5,1120.3z M1968.5,2869.2
		c-90.5-24.9-151.8-43.5-152-48c-3.7-68.1-9.9-700.6-16-1159.9c-1.3-94.6-2.5-187.7-3.7-275.6c-3.8-278-7.3-502.3-9.7-546.7
		c-1.1-20.4-2.1-41.1,7.8-60.7c8.1-16.2,23.5-31.1,35.7-46.6c39-49.7,43.8-104,52.1-157.1c0.8-5.1,2.5-10.1,3.7-15.1
		c3.6-14.8,52.9-25.5,71.8-35.1c10-5.2,19.6-11.1,28.7-17.7V20.8c-2.2-0.2-4.4-0.5-6.6-0.7c-18.4-1.7-36.6-3.8-54.8-5.8
		c-1.4-0.2-2.8-0.3-4.2-0.5c-0.7-0.1-1.4-0.1-2.1-0.1c-8.6,0.8-16.2-1.4-23.4-3c-9.1-2-18.4-3.1-27.8-3.1c-5.6,0-11.3,0.3-16.8-0.1
		c-3.2-0.4-6.4-0.2-9.5,0.4c-22,5.5-49,7.8-72.7,12.9c-6.8,1.4-13.7,1.9-20.6,1.4c-9.3-0.6-28.6,0.5-36.4-2.2
		c-9.6-3.3-6-10-15.9-13.9c-6.8-2.7-15.5-3.4-23.8-3.9c-40.9-2.7-83.9-2.8-123.8,3.4c-36.5,5.7-77.3,31.2-115.8,26.7
		c-7-0.8-14.4-0.6-21.6-1.1c-3.4-0.4-6.8-0.2-10.1,0.7c-2.4,0.6-4.9,0.9-7.4,0.8c-27.6-0.8-43.4,8.8-69.5,11.6c-1,0.2-2,0.6-2.9,1
		c-1.9,0.5-3.8,1-5.7,1.4c-3.9,0.8-8,1.4-11.9,2.2c-5.9,1.3-11.6,2.7-17.4,4c-52.6,11.8-102.8,23.2-143,46.1
		c-18.4,10.5-38.6,23.5-65,22.1c12-4.2,8.6-15.2-3.1-19.7c-11.6-4.5-27.2-4.3-41.3-3.3c-36.7,2.6-72.5,9.4-104.4,19.6
		c-8.6,2.8-17.4,5.9-27.3,6.2c-6.6,0.2-13.1-0.8-19.6-1.7c-66.3-9-140.2,0.9-191.5,25.5c-5.1,2.5-10.4,5.4-10.9,9.2
		c-0.4,2.7,1.9,5.3,3.1,8c6.8,15.2-21,27.8-45.4,36.1c-5.7,2.1-11.6,3.7-17.6,4.7c-3.3,0.4-6.7,0.6-10.1,0.7
		c-3.4,0.1-6.8,0.1-10.1,0.1c-52.8,0.1-109.8,14.4-141.4,37.9c-28.9,21.5,1.2,57-40.5,73c-17.6,6.7-39.7,10.9-51.8,20.6
		c-5.2,4.1-10.8,9.8-19.8,9c-4.5-0.4-8-2.4-12.5-3c-11.6-1.5-18.1,6.6-24.3,12.2c-15.1,13.4-49.3,16.7-67.6,28.8
		c-19.6,13.1-15.4,32.1-10.2,48.7c7.2,22.9,15.3,46.8,41.7,65c24.1,16.6,60.4,26.3,95.4,35.4c29,7.5,58.3,18.9,89.9,20.8
		c3.6,0.2,6.2,1.2,7.3,3.1c1.4,2.4,2.5,4.9,3.9,7.3c1,1.9,2.4,3.7,3.9,5.2c2.8,2.6,5.1,5.1,4.7,8.3c-0.1,1-0.1,2,0.2,3
		c25.9,101.4,25.7,206.7,105,301.9c13.8,16.5,29.7,32.6,40.9,49.7c2.2,3.4,6.7,82.6,12,207.9c0.4,9.4,0.8,19.1,1.2,29
		c3.3,81.2,7,179,10.5,286.6c5.2,156.9,10.3,1036.5,14.3,1213.9c3.4,150.3,8,117.5,6.2,211.2c-0.1,3.4-0.1,6.9-0.2,10.3
		c-2.8,128.9-8.9,215.2-19.7,231.1c-7.8,11.4-48.3,24.1-94.5,35.3c-7.2,1.7-15.2,3.9-23.9,6.4c-82.5,23.9-219.6,78-154,68.3
		c49.1-7.3,98.7-14.3,148.6-21c144.1-19.4,291-36.5,437.1-51.6c42.4-4.4,84.7-8.6,126.9-12.6c287.6-27.5,567.8-47.4,812.5-61.7
		c29-1.7,57.4-3.3,85.4-4.8v-207.2C1980.9,2872.6,1974.6,2870.9,1968.5,2869.2L1968.5,2869.2z M1824.1,625.5
		c-12.2,37.1-34.3,69.8-67.7,93.1c-10.9,7.6-78.1,42.8-78.6,7.2c-0.6-37.7,0.3-75.5,1-113.2c0.3-18.6,0.7-37.2,0.9-55.8
		c0.2-19.3,1.6-39.3-2.4-58.2c15.6-3.6,32.9-1,47.9,4.1c12,4.1,23.7,10.8,36.7,10.8c7.8,0,71.6-18.3,72.9-2.4
		C1838,549.1,1836.1,589,1824.1,625.5z M1363.2,474.4c29.8-14,23,13.4,23.4,22.7c0.8,21.7-12.4,39.2-18.5,60.2
		c-1.7,5.7-3.5,11.3-5.3,16.9c-7.8,23.4-15.7,45.6-12.7,70.6c3.9,32.4,18.3,64.3,37.7,95c11.8,18.6,25.4,37.9,32.1,57.2
		c3.5,10.2,5.1,20.3,3.4,30.4c-0.9,5.5-2.8,10.9-5.5,15.8c-6.1,11.3-17.1,21.6-27.9,31.8c-10,9.4-20.1,18.8-33.3,26.9
		c-2.2,1.3-4.5,2.6-6.9,3.8c-6.3,3.1-13.5,5.6-21.8,6.4c-20.7,2-39.4-7.4-49.6-17.4c-20.8-20.6-20.8-45.3-29.4-68.4
		c-6.1-16.3-16.7-32-24.2-48.1c-14.2-30.3-17.6-62.1-10.1-93.2c5.5-22.8,18.9-45,19.9-68.1c1-23.2-7.9-47.3-12.5-70.4
		c-1.6-8-2.9-16.8,5.2-23.5c7.1-5.9,19.7-8.8,31.3-11.8c6.8-1.7,13.5-3.5,20.1-5.4C1308.8,497.1,1337.3,486.5,1363.2,474.4
		L1363.2,474.4z M875.4,593.9c11.5-11.8,34.5-16,20.4-32.5c-3.1-3.6-8.1-7.1-7.6-11.1c0.7-5.5,11.3-8.7,19.8-11.7
		c15.1-5.3,27.5-12.9,35.4-21.6c4.8-5.3,10.3-12,21.2-12.4c7.5-0.2,14.2,3.1,16.9,7c12.5,18.1,3.6,42.7,7.8,61.9
		c3.7,17.2,17.8,33.2,34.1,47.9c33.2,30,81.8,56.1,104.7,89.3c27.4,39.6,14.3,83.7,0.9,125.4c-1.3,4.4-5.6,7.3-10.2,6.8
		c-2.1-0.3-4-1-5.8-2.1c-47.2-26.9-67.4-60.2-86.9-95c-23.8-42.3-65.8-79.8-109.7-116.7c-3.3-2.8-6.9-5.4-10.5-8
		c-8.8-6.6-17.9-12.8-27.5-19.1c-1.8-1.2-3.8-2.5-4.3-4.1C873.6,596.5,874.1,595.2,875.4,593.9L875.4,593.9z M1069.1,609.8
		c-13.6-10.3-19.4-23-24.9-35.3l-16.9-37.4c-2-3.9-13.9-9.9-11.3-14.5c1.1-1.8,2.8-3.2,4.8-4c8.9-3.6,25.2,1.6,34.8,2.4
		c11.4,0.9,27.7-2.1,37.6-5.1c17.1-5.2,34.1-13.8,47.4-21.6c28-16.4,47.8,54.8,45.8,65c-4.8,24.1-16.6,48.3-24.2,72.2
		c-0.6,1.9-1.3,3.9-3.8,5.3c-2.3,1.3-5.7,1.7-8.9,1.9C1118.9,640.5,1085.6,622.3,1069.1,609.8z M632.9,822.9
		c-5.4-5.6-7.6-11.7-8.8-17.9c-0.2-1-0.6-2-1.2-3c-1.3-2.5-2.7-5.1-4.1-7.6c-2.2-3.8-4.4-7.7-6.8-11.5c-1.6-2.5-3.5-4.9-5.1-7.5
		c-0.4-0.9-0.7-1.9-0.7-3c-0.4-1.9,0.1-4-1.2-5.6c-5.4-6.8-6.2-14.3-9.8-21.3c-1.6-3.2-2.1-6.5-3.2-9.7c-0.2-0.8-0.5-1.5-0.9-2.2
		c-4-6.1-6.7-12.9-7.8-20.1c-1.3-8.6-3.9-17.2-5.8-25.7c-0.8-3.4-0.3-7-1.9-10.2c-3.5-7.2-3.9-14.7-6.9-22
		c-2.7-6.6-2.9-13.6-4.2-20.4c-1-5.1-2.1-10.1-3-15.2c-1.1-5.8-2.4-11.6-2.8-17.4c-0.4-7.2,0.3-14.4-0.6-21.6
		c-0.3-2.3-1.6-3.5-6.1-4.2c-5-0.8-10.1-1.8-13.1-4.6c-3.6-3.4-2.1-5.6,4.9-6.4c3.4-0.4,7-0.4,10.4-0.8c3.6-0.4,7.1-0.9,10.6-1.7
		c3.1-0.7,6.3-0.7,9.5,0c2.9,0.7,5.8,1.1,8.7,1.4c11.6,0.4,9.4,1.3,14.4-4c7.6-8,24.3-13.6,42.2-12.8c2.8,0.1,5.6,0.1,8.3-0.1
		c3.5-0.3,6.7-0.6,10.2,0.4c3.3,0.9,6.1-0.1,8.7-1.4c5.4-2.8,10.9-5.5,16.7-8.1c5.1-2.2,12.9-2,18,0.2c6.1,2.6,11.9,5.2,16.3,8.8
		c3.9,3.1,7,7,9.2,11.5c1.3,2.6,2.7,5,7.7,6.4c1.6,0.6,2.9,1.8,3.4,3.5c1.8,6.7,3.4,13.3,4.9,20c0.8,3.9,1.9,7.7,1.7,11.7
		c-0.2,3.2,1.9,6.7,2.2,10.1c0.6,6.9,1.5,13.7,2.5,20.6c0.3,2.3,1.1,4.5,1.6,6.8c1.2,5.4,3.6,10.9,3.3,16.3
		c-0.3,5.7,3.9,10.9,3.7,16.4c0,1.3,0.3,2.5,0.3,3.8c-0.2,5.7-0.5,11.4-0.8,17.1c0,0.4-0.2,0.8,0,1.1c4,6.2,1.7,12.6,1,18.8
		c-0.6,5.1-1,10.1,0.7,15.2c1.6,5,3.7,10,2,15.1c-0.6,1.8,0.9,3.7,1.2,5.6c1,6.7,2,13.4,2.7,20.2c-0.1,1.3-0.9,3-1.6,4.6
		c-3.4,7.8-6.8,15.6-10.4,23.4c-2.6,5.6-5.7,11.2-8.4,16.9c-1.1,2.2-1.9,4.6-2.4,7.1c-1,5.1-3,9.8-6,14.1c-1.2,1.7-1.2,3.7-2.1,5.6
		c-3.3,6.2-5.9,12.6-10.5,18.5c-2.9,3.7-8,7.3-13.7,9.9c-7.6,3.5-16.6,6.1-25.3,8.8c-11.6,3.6-24.2-0.5-24.1-9.3
		c-1.1-2.3-1.9-6.4-5-9.8c-5.3-5.9-9-11.9-10.2-18.4c-0.1-0.7-0.9-1.4-1.5-2.1c-2.3-2.8-4.7-5.5-6.8-8.3
		C635.6,826.9,634.8,824.8,632.9,822.9L632.9,822.9z M1276,3036.5l2.6,0.1C1277.8,3036.6,1276.9,3036.6,1276,3036.5z M1245.3,2947
		c-49.4,31.8-218.4,75.8-236.3,24.7c-18.9-60.2-105.3-1271.5-116.5-1358.3c-5.8-45.1-11.5-89.6-16.9-133.3
		C859.3,1349,845,1225.6,834,1119.7C822.2,1007.5,814.1,915,811,854c-3.8-76-26.1-174.8,22.4-247.6c58.8,41.9,102.9,90,129.3,140.7
		c13.6,26.1,22.8,53.2,46.7,77c25.9,25.7,67.1,45.5,104.2,66.7c38.9,22.2,70,108.8,94.7,233.7c2.9,14.7,5.7,29.9,8.5,45.6
		c6.9,39.9,13.3,82.9,19.1,128.3c13.5,105,24.1,223,32.3,345.4c4,59.4,16.1,1024,17.6,1075.4
		C1295.2,2848.3,1262.9,2942.3,1245.3,2947z M1619.8,2830.8c-4.7,40.3-148.5,135.3-155.6,92.8c-4.4-26.3-6.6-921.7-6.2-1175.2
		c0.1-82.5,0.5,1091.7,1.2,1000.3c0.5-63.4,1.1-829.8,1.9-894.5c2.2-186.9,5.6-373.9,10.3-531.1c0.6-18.6,1.1-36.8,1.7-54.5
		c2.1-60.7,4.3-115.8,6.8-163.5c5.4-102.2,11.8-170.3,19.3-184.6c14.3-27.2,36.2-53.6,32.3-86.3c-2.5-20.4-15-37.5-28.3-52.4
		c-25.5-28.7-45.6-60.6-69.3-90.7c-8.5-10.8-20.2-21-21.2-35.6c-2.1-30.5-1-62.7,2-93.7c2.3-24.2,5.4-51.7,26.2-67.6
		c12.9-9.8,18.8,1.7,29.5-0.3c12.7-2.4,19.4-5.8,30.3-12.8c14.7-9.6,41.4-2.2,52-11.6c4.7-4.2,6.5-9.4,13.3-12.6
		c11.1-5.4,30-2,38.4,4.7s9.3,15.3,9.7,23.4c0.2,3.5,0.4,6.9,0.5,10.4c4,89.1-2.4,178.4,11.2,267.2c8.8,57.5,25.8,114.9,20.5,172.4
		c0,0.5-0.1,6.2-0.1,16.4c-0.2,63.9-0.1,303.4,1.3,527.9c0.4,68.2,0.9,135.1,1.6,195.1C1649.7,1729.3,1622.3,2809.3,1619.8,2830.8z"
		/>
	<path id="Path_6" class="st0" d="M842,2941.3"/>
	<path id="Path_7" class="st0" d="M863.3,2932.8"/>
</g>
<g class="st2">
	
		<linearGradient id="SVGID_1_" gradientUnits="userSpaceOnUse" x1="1150.8866" y1="-3174.6279" x2="1150.8866" y2="1000.4742" gradientTransform="matrix(1 0 0 1 0 4540)">
		<stop  offset="0" style="stop-color:#FFFFFF;stop-opacity:0"/>
		<stop  offset="0.325" style="stop-color:#D8EBEA;stop-opacity:0.325"/>
		<stop  offset="0.776" style="stop-color:#A6D2CE;stop-opacity:0.776"/>
		<stop  offset="1" style="stop-color:#93C8C4"/>
	</linearGradient>
	<path class="st3" d="M1920.3,1306.7v1545.7l-26.3,99.5l-427.6,1616.5l-3.5,16.2c-15.4,44.9-88.3,107.2-190.1,152.6
		c-135,60.5-321,799.2-490.6,720.4c-297.2-138.1-431-561.2-395.1-665.8l7-14.5l242.6-551.8l206.4-469.2l137.1-311.7l179.9-408.9
		l51.1-116.3l31.9-72.4l84-190.9l71.9-163.8l73.2-166.6l139.6-317.3l25.8-58.6l124.7-283.4l14.4-32.8L1920.3,1306.7L1920.3,1306.7z"
		/>
</g>
<g class="st2">
	
		<linearGradient id="SVGID_2_" gradientUnits="userSpaceOnUse" x1="651.519" y1="-4498.0718" x2="651.519" y2="388.4377" gradientTransform="matrix(1 0 0 1 0 4540)">
		<stop  offset="0" style="stop-color:#FFFFFF;stop-opacity:0"/>
		<stop  offset="0.325" style="stop-color:#D8EBEA;stop-opacity:0.325"/>
		<stop  offset="0.776" style="stop-color:#A6D2CE;stop-opacity:0.776"/>
		<stop  offset="1" style="stop-color:#93C8C4"/>
	</linearGradient>
	<path class="st4" d="M1966.4-26.6v565.3l-0.4,0.8l-236,468.4l-47.9,95.3l-220,436.5l-256.3,508.2l-35.4,70.2l-267.8,531.3
		l-149.9,297.2l-86.1,171.1l-84.2,167.1l-117.1,231.9l-111.1,220.5L15.9,4408.4l-17.3,34.3l-34.5,68.4l-8.3,17.8
		c-18.1,33.7-56.7,80-106.3,126.7c-121.9,114.8-309.5,230.9-417.8,162.5c-152.4-96-90.4-520.3-27.8-636.9l10-16.5l187.4-314.4
		L6.6,3170.4l171.7-287.9l168.1-281.8L559,2244.2l211-353.9l43.8-73.4l209-350.8L1127,1292l63-105.7l4.4-7.5l220.8-370.2
		l459.8-771.1l36.6-61.5L1966.4-26.6L1966.4-26.6z"/>
</g>
<path d="M-27.1,877.1c49.1,73.9-52-7.2-52.5,53.4c-1.2,152.9,40,345.8,40.8,442.9c1.8,228.1,24.9,558.4,26.8,786.5
	c1.6,199.8,3.2,1359.4,4.9,1559.3c1.2,145.6,2.4,291.2,3.5,436.8c0.5,65.5,1.1,130.9,1.6,196.4c0,1.3,0,2.6,0,3.9h1951.7
	c0.2-0.3-4.7-648.3-25.3-648.2c-343.9,1.3-220.9,178-363.3,183.1c-113.4,4-204,224.4-253.4,228.4c-13.5,1.1-83-2.3-159.4-8.9
	c-82.2-7.1-172.4-18-209.9-31.2c-49.8-17.4-152.4-71.5-210-86.8c-21-5.6-197.1-24.5-218.4-29.4c-20.5-4.8-67.2-14.2-109.3-26.8
	c-15.2-203.3-146.6-1864.5-56.5-2160.9c50.2-161.3,370.2-122.7,393.4-194.1c39.2-38,180.8-284,230.5-315.8
	c23.7-29.1,54.8-50.6,82.5-75.6c6.3-5.7,12.4-11.6,18.2-17.8c39.8-42.2,63.9-97,87.4-150.6c23.2-1.8,46.4,1.6,69.6,5.1
	c31.4,4.8,27.6-8.8,58.3-15.5c16.4-3.6,13.3-38.1,15.6-39.1c12.3-38,54.7-30.4,56.9-86c-2.2-71.4-15.2-28.1-27.9-90.4
	c-1.9-9.3-50.2-77-100.2-82.3c-66.1-2.5-75,20.9-130.8,12c-29.4-9.9-195.1-80.4-248.9-26.8c-33.9,39-134-14.5-160.7,81.5
	c-29.3,90.4-52.5,46.9-75.9,101.6c-23.4,54.7,21.4,134,34.7,146.1c10.7,9.7,24.8,14.4,38.4,18.8c2.5,0.8,5,1.8,7.3,2.8
	c54.8,24.2,55.9,102.9,102.3,60.1c18.2,31,23.8,66.9,21.7,103.3c-1.9,31-9.4,62.4-19.6,91.5c-8.3,23.8-143.7,106.9-168.4,123.9
	c-1.8,1.3-3.6,2.4-5.3,3.4c0.6,0.4,1.3,0.8,1.9,1.2c0,0-0.8,1.1-1.2,1.5c-0.8-0.6-1.5-1.2-2.2-1.8l-0.1-0.1
	c-32.6,18.2-279.8,77.3-367.3-29.9c-51.7-67.8-55.9-225.4,29.4-378.3c25.6-45.9,59.2-75.8,95.8-94.8c40.2-20.9,75.7,21.1,116.8,19.5
	c78.2-3,117.9,39.6,131.7,35.2c67.4-21.6,188.7-239.3,234.8-244.9c54-6.6,160-3.8,212.9,9.4c18.8,4.7,38.4-10.3,55.8-9.4
	c12.8,0.6,65.6,16.8,78.1,16.1c31.9-1.7,78.4,20.6,85.8-3.2c19.1-61.7-42.9-135.4-22.2-148.4c12-7.6-5.2-34.4,8.1-39.4
	c9.4-3.6,28.3-74.7-10.1-95.3c-39.9-21.4-82.4-44.4-104.6-85.9c-17.7-33.2-19.8-72.4-46.4-101.1c-20.5-22.1-46.7-53-71.7-66.1
	c-46.2-24.4-61.4-84-113.6-99.5C887.4,102.3,835.9,101,787.3,89c-32.7-8.1-66.3-13.1-100-11.1c-31.8,1.9-60.7,16.2-91.8,18.8
	c-77.7,6.4-114.8-79.9-189.5-36.8C381.5,74,339,73,298.4,69.3c-40.6-3.6-60.8,10.7-86.5,28.5c-39.1,27.1-42.4,65.5-92.2,67.6
	C61.3,168-86.8,212.8-23.2,429.9 M863.3,1108.9c-1.3-17.3,0.9-34.4,10.3-49.5c16.1-25.8,98-15.7,127.4-21.2
	c14.7-2.8,98.7-47.9,96.7-17.5c-1.9,29.3-15.2,61.9-32.3,85.6c-29.9,41.2-85,46.9-124.7,91.1c-1.8,0.3-61.8,63.4-62.9,59.6
	C874.1,1244.1,864.3,1122.6,863.3,1108.9z"/>
<path d="M571.7,1060.7"/>
<g>
	<g id="Layer_2_1_" transform="translate(-65.911)">
		<path id="Path_1_1_" class="st0" d="M5541.3,2824.8c0.2,0,0.2,0,0.2-0.1C5541.4,2824.7,5541.3,2824.7,5541.3,2824.8z
			 M5541.2,2824.8h-1.5C5540.2,2824.9,5540.7,2824.9,5541.2,2824.8z M4701.6,2807.9c0.5,0.1,1,0.2,1.5,0.1L4701.6,2807.9z"/>
		<path id="Path_2_1_" class="st0" d="M5541.3,2824.8c0.2,0,0.2,0,0.2-0.1C5541.4,2824.7,5541.3,2824.7,5541.3,2824.8z
			 M5541.2,2824.8h-1.5C5540.2,2824.9,5540.7,2824.9,5541.2,2824.8z M4701.6,2807.9c0.5,0.1,1,0.2,1.5,0.1L4701.6,2807.9z"/>
		<path id="Path_3_1_" class="st1" d="M5593,1190.1c6.3,10.4,10.9,21.2,10.5,33.6c-0.4,7.3-0.4,14.7,0.1,22
			c1.1,12.3,3.1,24.4,4.3,36.7c0.7,7.8,1.6,15.7,1.1,23.5c-0.4,5.9-0.6,11.8-0.5,17.6c11.6-20,23.6-40,24-60.9
			C5633.1,1236.2,5613.1,1213.4,5593,1190.1L5593,1190.1z M5520.3,1540.2c-13.3,5-23.4,16-35.4,23.6c-20.7,13-46,15.2-70.2,17.1
			c-34.6,2.7-66.2,7.5-98.1,9.1c6.9,39.9,13.3,82.9,19.1,128.3c13.5,105,24.1,223,32.3,345.4l181-331.5c7.7,2.8,15.1,6.4,22.2,10.7
			c0.6-18.6,1.1-36.8,1.7-54.5c2.1-60.7,4.3-115.8,6.8-163.5c-8.4,4.4-18.3,7.8-29.8,9.8C5540,1536.4,5529.7,1536.6,5520.3,1540.2z
			 M6068.3,2587.3c-90.5-24.9-151.8-43.5-152-48c-3.7-68.1-9.9,1.2-16-458.1c-1.3-94.6-2.5-187.7-3.7-275.6
			c-3.8-278-7.3-502.3-9.7-546.7c-1.1-20.4-2.1-41.1,7.8-60.7c8.1-16.2,23.5-31.1,35.7-46.6c39-49.7,43.8-104,52.1-157.1
			c0.8-5.1,2.5-10.1,3.7-15.1c3.6-14.8,52.9-25.5,71.8-35.1c10-5.2,19.6-11.1,28.7-17.7V440.7c-2.2-0.2-4.4-0.5-6.6-0.7
			c-18.4-1.7-36.6-3.8-54.8-5.8c-1.4-0.2-2.8-0.3-4.2-0.5c-0.7-0.1-1.4-0.1-2.1-0.1c-8.6,0.8-16.2-1.4-23.4-3
			c-9.1-2-18.4-3.1-27.8-3.1c-5.6,0-11.3,0.3-16.8-0.1c-3.2-0.4-6.4-0.2-9.5,0.4c-22,5.5-49,7.8-72.7,12.9
			c-6.8,1.4-13.7,1.9-20.6,1.4c-9.3-0.6-28.6,0.5-36.4-2.2c-9.6-3.3-6-10-15.9-13.9c-6.8-2.7-15.5-3.4-23.8-3.9
			c-40.9-2.7-83.9-2.8-123.8,3.4c-36.5,5.7-77.3,31.2-115.8,26.7c-7-0.8-14.4-0.6-21.6-1.1c-3.4-0.4-6.8-0.2-10.1,0.7
			c-2.4,0.6-4.9,0.9-7.4,0.8c-27.6-0.8-43.4,8.8-69.5,11.6c-1,0.2-2,0.6-2.9,1c-1.9,0.5-3.8,1-5.7,1.4c-3.9,0.8-8,1.4-11.9,2.2
			c-5.9,1.3-11.6,2.7-17.4,4c-52.6,11.8-102.8,23.2-143,46.1c-18.4,10.5-38.6,23.5-65,22.1c12-4.2,8.6-15.2-3.1-19.7
			c-11.6-4.5-27.2-4.3-41.3-3.3c-36.7,2.6-72.5,9.4-104.4,19.6c-8.6,2.8-17.4,5.9-27.3,6.2c-6.6,0.2-13.1-0.8-19.6-1.7
			c-66.3-9-140.2,0.9-191.5,25.5c-5.1,2.5-10.4,5.4-10.9,9.2c-0.4,2.7,1.9,5.3,3.1,8c6.8,15.2-21,27.8-45.4,36.1
			c-5.7,2.1-11.6,3.7-17.6,4.7c-3.3,0.4-6.7,0.6-10.1,0.7c-3.4,0.1-6.8,0.1-10.1,0.1c-52.8,0.1-109.8,14.4-141.4,37.9
			c-28.9,21.5,1.2,57-40.5,73c-17.6,6.7-39.7,10.9-51.8,20.6c-5.2,4.1-10.8,9.8-19.8,9c-4.5-0.4-8-2.4-12.5-3
			c-11.6-1.5-18.1,6.6-24.3,12.2c-15.1,13.4-49.3,16.7-67.6,28.8c-19.6,13.1-15.4,32.1-10.2,48.7c7.2,22.9,15.3,46.8,41.7,65
			c24.1,16.6,60.4,26.3,95.4,35.4c29,7.5,58.3,18.9,89.9,20.8c3.6,0.2,6.2,1.2,7.3,3.1c1.4,2.4,2.5,4.9,3.9,7.3
			c1,1.9,2.4,3.7,3.9,5.2c2.8,2.6,5.1,5.1,4.7,8.3c-0.1,1-0.1,2,0.2,3c25.9,101.4,25.7,206.7,105,301.9
			c13.8,16.5,29.7,32.6,40.9,49.7c2.2,3.4,6.7,82.6,12,207.9c0.4,9.4,0.8,19.1,1.2,29c3.3,81.2,7,179,10.5,286.6
			c5.2,156.9,10.3,334.7,14.3,512.1c3.4,150.3,8,117.5,6.2,211.2c-0.1,3.4-0.1,6.9-0.2,10.3c-2.8,128.9-8.9,215.2-19.7,231.1
			c-7.8,11.4-48.3,24.1-94.5,35.3c-7.2,1.7-15.2,3.9-23.9,6.4c-82.5,23.9-219.6,78-154,68.3c49.1-7.3,98.7-14.3,148.6-21
			c144.1-19.4,291-36.5,437.1-51.6c42.4-4.4,84.7-8.6,126.9-12.6c287.6-27.5,567.8-47.4,812.5-61.7c29-1.7,57.4-3.3,85.4-4.8v-207.2
			C6080.7,2590.7,6074.4,2589,6068.3,2587.3L6068.3,2587.3z M5923.9,1045.4c-12.2,37.1-34.3,69.8-67.7,93.1
			c-10.9,7.6-78.1,42.8-78.6,7.2c-0.6-37.7,0.3-75.5,1-113.2c0.3-18.6,0.7-37.2,0.9-55.8c0.2-19.3,1.6-39.3-2.4-58.2
			c15.6-3.6,32.9-1,47.9,4.1c12,4.1,23.7,10.8,36.7,10.8c7.8,0,71.6-18.3,72.9-2.4C5937.8,969,5935.9,1008.9,5923.9,1045.4z
			 M5463,894.3c29.8-14,23,13.4,23.4,22.7c0.8,21.7-12.4,39.2-18.5,60.2c-1.7,5.7-3.5,11.3-5.3,16.9c-7.8,23.4-15.7,45.6-12.7,70.6
			c3.9,32.4,18.3,64.3,37.7,95c11.8,18.6,25.4,37.9,32.1,57.2c3.5,10.2,5.1,20.3,3.4,30.4c-0.9,5.5-2.8,10.9-5.5,15.8
			c-6.1,11.3-17.1,21.6-27.9,31.8c-10,9.4-20.1,18.8-33.3,26.9c-2.2,1.3-4.5,2.6-6.9,3.8c-6.3,3.1-13.5,5.6-21.8,6.4
			c-20.7,2-39.4-7.4-49.6-17.4c-20.8-20.6-20.8-45.3-29.4-68.4c-6.1-16.3-16.7-32-24.2-48.1c-14.2-30.3-17.6-62.1-10.1-93.2
			c5.5-22.8,18.9-45,19.9-68.1c1-23.2-7.9-47.3-12.5-70.4c-1.6-8-2.9-16.8,5.2-23.5c7.1-5.9,19.7-8.8,31.3-11.8
			c6.8-1.7,13.5-3.5,20.1-5.4C5408.6,917,5437.1,906.4,5463,894.3L5463,894.3z M4975.2,1013.8c11.5-11.8,34.5-16,20.4-32.5
			c-3.1-3.6-8.1-7.1-7.6-11.1c0.7-5.5,11.3-8.7,19.8-11.7c15.1-5.3,27.5-12.9,35.4-21.6c4.8-5.3,10.3-12,21.2-12.4
			c7.5-0.2,14.2,3.1,16.9,7c12.5,18.1,3.6,42.7,7.8,61.9c3.7,17.2,17.8,33.2,34.1,47.9c33.2,30,81.8,56.1,104.7,89.3
			c27.4,39.6,14.3,83.7,0.9,125.4c-1.3,4.4-5.6,7.3-10.2,6.8c-2.1-0.3-4-1-5.8-2.1c-47.2-26.9-67.4-60.2-86.9-95
			c-23.8-42.3-65.8-79.8-109.7-116.7c-3.3-2.8-6.9-5.4-10.5-8c-8.8-6.6-17.9-12.8-27.5-19.1c-1.8-1.2-3.8-2.5-4.3-4.1
			C4973.4,1016.4,4973.9,1015.1,4975.2,1013.8L4975.2,1013.8z M5168.9,1029.7c-13.6-10.3-19.4-23-24.9-35.3l-16.9-37.4
			c-2-3.9-13.9-9.9-11.3-14.5c1.1-1.8,2.8-3.2,4.8-4c8.9-3.6,25.2,1.6,34.8,2.4c11.4,0.9,27.7-2.1,37.6-5.1
			c17.1-5.2,34.1-13.8,47.4-21.6c28-16.4,47.8,54.8,45.8,65c-4.8,24.1-16.6,48.3-24.2,72.2c-0.6,1.9-1.3,3.9-3.8,5.3
			c-2.3,1.3-5.7,1.7-8.9,1.9C5218.7,1060.4,5185.4,1042.2,5168.9,1029.7z M4732.7,1242.8c-5.4-5.6-7.6-11.7-8.8-17.9
			c-0.2-1-0.6-2-1.2-3c-1.3-2.5-2.7-5.1-4.1-7.6c-2.2-3.8-4.4-7.7-6.8-11.5c-1.6-2.5-3.5-4.9-5.1-7.5c-0.4-0.9-0.7-1.9-0.7-3
			c-0.4-1.9,0.1-4-1.2-5.6c-5.4-6.8-6.2-14.3-9.8-21.3c-1.6-3.2-2.1-6.5-3.2-9.7c-0.2-0.8-0.5-1.5-0.9-2.2c-4-6.1-6.7-12.9-7.8-20.1
			c-1.3-8.6-3.9-17.2-5.8-25.7c-0.8-3.4-0.3-7-1.9-10.2c-3.5-7.2-3.9-14.7-6.9-22c-2.7-6.6-2.9-13.6-4.2-20.4
			c-1-5.1-2.1-10.1-3-15.2c-1.1-5.8-2.4-11.6-2.8-17.4c-0.4-7.2,0.3-14.4-0.6-21.6c-0.3-2.3-1.6-3.5-6.1-4.2
			c-5-0.8-10.1-1.8-13.1-4.6c-3.6-3.4-2.1-5.6,4.9-6.4c3.4-0.4,7-0.4,10.4-0.8c3.6-0.4,7.1-0.9,10.6-1.7c3.1-0.7,6.3-0.7,9.5,0
			c2.9,0.7,5.8,1.1,8.7,1.4c11.6,0.4,9.4,1.3,14.4-4c7.6-8,24.3-13.6,42.2-12.8c2.8,0.1,5.6,0.1,8.3-0.1c3.5-0.3,6.7-0.6,10.2,0.4
			c3.3,0.9,6.1-0.1,8.7-1.4c5.4-2.8,10.9-5.5,16.7-8.1c5.1-2.2,12.9-2,18,0.2c6.1,2.6,11.9,5.2,16.3,8.8c3.9,3.1,7,7,9.2,11.5
			c1.3,2.6,2.7,5,7.7,6.4c1.6,0.6,2.9,1.8,3.4,3.5c1.8,6.7,3.4,13.3,4.9,20c0.8,3.9,1.9,7.7,1.7,11.7c-0.2,3.2,1.9,6.7,2.2,10.1
			c0.6,6.9,1.5,13.7,2.5,20.6c0.3,2.3,1.1,4.5,1.6,6.8c1.2,5.4,3.6,10.9,3.3,16.3c-0.3,5.7,3.9,10.9,3.7,16.4c0,1.3,0.3,2.5,0.3,3.8
			c-0.2,5.7-0.5,11.4-0.8,17.1c0,0.4-0.2,0.8,0,1.1c4,6.2,1.7,12.6,1,18.8c-0.6,5.1-1,10.1,0.7,15.2c1.6,5,3.7,10,2,15.1
			c-0.6,1.8,0.9,3.7,1.2,5.6c1,6.7,2,13.4,2.7,20.2c-0.1,1.3-0.9,3-1.6,4.6c-3.4,7.8-6.8,15.6-10.4,23.4c-2.6,5.6-5.7,11.2-8.4,16.9
			c-1.1,2.2-1.9,4.6-2.4,7.1c-1,5.1-3,9.8-6,14.1c-1.2,1.7-1.2,3.7-2.1,5.6c-3.3,6.2-5.9,12.6-10.5,18.5c-2.9,3.7-8,7.3-13.7,9.9
			c-7.6,3.5-16.6,6.1-25.3,8.8c-11.6,3.6-24.2-0.5-24.1-9.3c-1.1-2.3-1.9-6.4-5-9.8c-5.3-5.9-9-11.9-10.2-18.4
			c-0.1-0.7-0.9-1.4-1.5-2.1c-2.3-2.8-4.7-5.5-6.8-8.3C4735.4,1246.8,4734.6,1244.7,4732.7,1242.8L4732.7,1242.8z M5375.8,2754.6
			l2.6,0.1C5377.6,2754.7,5376.7,2754.7,5375.8,2754.6z M5345.1,2665.1c-49.4,31.8-218.4,75.8-236.3,24.7
			c-18.9-60.2-105.3-569.7-116.5-656.5c-5.8-45.1-11.5-89.6-16.9-133.3c-16.3-131.1-30.6-254.5-41.6-360.4
			c-11.8-112.2-19.9-204.7-23-265.7c-3.8-76-26.1-174.8,22.4-247.6c58.8,41.9,102.9,90,129.3,140.7c13.6,26.1,22.8,53.2,46.7,77
			c25.9,25.7,67.1,45.5,104.2,66.7c38.9,22.2,70,108.8,94.7,233.7c2.9,14.7,5.7,29.9,8.5,45.6c6.9,39.9,13.3,82.9,19.1,128.3
			c13.5,105,24.1,223,32.3,345.4c4,59.4,16.1,322.2,17.6,373.6C5395,2566.4,5362.7,2660.4,5345.1,2665.1z M5719.6,2548.9
			c-4.7,40.3-148.5,135.3-155.6,92.8c-4.4-26.3-6.6-219.9-6.2-473.4c0.1-82.5,0.5,389.9,1.2,298.5c0.5-63.4,1.1-128,1.9-192.7
			c2.2-186.9,5.6-373.9,10.3-531.1c0.6-18.6,1.1-36.8,1.7-54.5c2.1-60.7,4.3-115.8,6.8-163.5c5.4-102.2,11.8-170.3,19.3-184.6
			c14.2-27.2,36.2-53.6,32.3-86.3c-2.5-20.4-15-37.5-28.3-52.4c-25.5-28.7-45.6-60.6-69.3-90.7c-8.5-10.8-20.2-21-21.2-35.6
			c-2.1-30.5-1-62.7,2-93.7c2.3-24.2,5.4-51.7,26.2-67.6c12.9-9.8,18.8,1.7,29.5-0.3c12.7-2.4,19.4-5.8,30.3-12.8
			c14.7-9.6,41.4-2.2,52-11.6c4.7-4.2,6.5-9.4,13.3-12.6c11.1-5.4,30-2,38.4,4.7c8.4,6.7,9.3,15.3,9.7,23.4
			c0.2,3.5,0.4,6.9,0.5,10.4c4,89.1-2.4,178.4,11.2,267.2c8.8,57.5,25.8,114.9,20.5,172.4c0,0.5-0.1,6.2-0.1,16.4
			c-0.2,63.9-0.1,303.4,1.3,527.9c0.4,68.2,0.9,135.1,1.6,195.1C5749.5,2149.2,5722.1,2527.4,5719.6,2548.9z"/>
		<path id="Path_6_1_" class="st0" d="M4941.8,2659.4"/>
		<path id="Path_7_1_" class="st0" d="M4963.1,2650.9"/>
	</g>
	<g class="st2">
		
			<linearGradient id="SVGID_3_" gradientUnits="userSpaceOnUse" x1="5491.3604" y1="-2782.2722" x2="5491.3604" y2="-566.7744" gradientTransform="matrix(1 0 0 1 0 4540)">
			<stop  offset="0" style="stop-color:#FFFFFF;stop-opacity:0"/>
			<stop  offset="0.325" style="stop-color:#D8EBEA;stop-opacity:0.325"/>
			<stop  offset="0.776" style="stop-color:#A6D2CE;stop-opacity:0.776"/>
			<stop  offset="1" style="stop-color:#93C8C4"/>
		</linearGradient>
		<path class="st5" d="M6020.1,1726.6v820.2l-18.1,52.8l-293.8,857.8l-2.4,8.6c-10.6,23.8-60.7,56.9-130.6,81
			c-92.8,32.1-220.6,424.1-337.1,382.3c-204.2-73.3-296.2-297.8-271.5-353.3l4.8-7.7l166.7-292.8l141.8-249l94.2-165.4l123.6-217
			l35.1-61.7l21.9-38.4l57.7-101.3l49.4-86.9l50.3-88.4L5808,2099l17.7-31.1l85.7-150.4l9.9-17.4L6020.1,1726.6L6020.1,1726.6z"/>
	</g>
	<g class="st2">
		
			<linearGradient id="SVGID_4_" gradientUnits="userSpaceOnUse" x1="5055.6084" y1="-4101.3213" x2="5055.6084" y2="-865.0893" gradientTransform="matrix(1 0 0 1 0 4540)">
			<stop  offset="0" style="stop-color:#FFFFFF;stop-opacity:0"/>
			<stop  offset="0.325" style="stop-color:#D8EBEA;stop-opacity:0.325"/>
			<stop  offset="0.776" style="stop-color:#A6D2CE;stop-opacity:0.776"/>
			<stop  offset="1" style="stop-color:#93C8C4"/>
		</linearGradient>
		<path class="st6" d="M6066.2,393.3v374.4l-0.3,0.5l-181.4,310.2l-36.8,63.1l-169.1,289.1l-197,336.6l-27.2,46.5l-205.8,351.9
			l-115.2,196.8l-66.2,113.3l-64.7,110.7l-90,153.6l-85.4,146l-260,444.5l-13.3,22.7l-26.5,45.3l-6.4,11.8
			c-13.9,22.3-43.6,53-81.7,83.9c-93.7,76-237.9,152.9-321.1,107.6c-117.1-63.6-69.5-344.6-21.4-421.8l7.7-10.9l144-208.2
			l311.6-450.3l132-190.7l129.2-186.6l163.3-236.1l162.2-234.4l33.7-48.6l160.6-232.3l80.1-115.3l48.4-70l3.4-5l169.7-245.2
			L5996,435.7l28.1-40.7L6066.2,393.3L6066.2,393.3z"/>
	</g>
	<path d="M4072.7,1297c49.1,73.9-52-7.2-52.5,53.4c-1.2,152.9,40,345.8,40.8,442.9c1.8,228.1,24.9,558.4,26.8,786.5
		c1.6,199.8,3.2,399.6,4.9,599.5c1.2,145.6,2.4,291.2,3.5,436.8c0.5,65.5,1.1,130.9,1.6,196.4c0,1.3,0,2.6,0,3.9h1951.7
		c0.2-0.3-4.7-648.3-25.3-648.2c-343.9,1.3-220.9,178-363.3,183.1c-113.4,4-204,224.4-253.4,228.4c-13.5,1.1-83-2.3-159.4-8.9
		c-82.2-7.1-172.4-18-209.9-31.2c-49.8-17.4-152.4-71.5-210-86.8c-21-5.6-197.1-24.5-218.4-29.4c-20.5-4.8-67.2-14.2-109.3-26.8
		c-15.2-203.3-146.6-904.7-56.5-1201.1c50.2-161.3,370.2-122.7,393.4-194.1c39.2-38,180.8-284,230.5-315.8
		c23.7-29.1,54.8-50.6,82.5-75.6c6.3-5.7,12.4-11.6,18.2-17.8c39.8-42.2,63.9-97,87.4-150.6c23.2-1.8,46.4,1.6,69.6,5.1
		c31.4,4.8,27.6-8.8,58.3-15.5c16.4-3.6,13.3-38.1,15.6-39.1c12.3-38,54.7-30.4,56.9-86c-2.2-71.4-15.2-28.1-27.9-90.4
		c-1.9-9.3-50.2-77-100.2-82.3c-66.1-2.5-75,20.9-130.8,12c-29.4-9.9-195.1-80.4-248.9-26.8c-33.9,39-134-14.5-160.7,81.5
		c-29.3,90.4-52.5,46.9-75.9,101.6c-23.4,54.7,21.4,134,34.7,146.1c10.7,9.7,24.8,14.4,38.4,18.8c2.5,0.8,5,1.8,7.3,2.8
		c54.8,24.2,55.9,102.9,102.3,60.1c18.2,31,23.8,66.9,21.7,103.3c-1.9,31-9.4,62.4-19.6,91.5c-8.3,23.8-143.7,106.9-168.4,123.9
		c-1.8,1.3-3.6,2.4-5.3,3.4c0.6,0.4,1.3,0.8,1.9,1.2c0,0-0.8,1.1-1.2,1.5c-0.8-0.6-1.5-1.2-2.2-1.8l-0.1-0.1
		c-32.6,18.2-279.8,77.3-367.3-29.9c-51.7-67.8-55.9-225.4,29.4-378.3c25.6-45.9,59.2-75.8,95.8-94.8
		c40.2-20.9,75.7,21.1,116.8,19.5c78.2-3,117.9,39.6,131.7,35.2c67.4-21.6,188.7-239.3,234.8-244.9c54-6.6,160-3.8,212.9,9.4
		c18.8,4.7,38.4-10.3,55.8-9.4c12.8,0.6,65.6,16.8,78.1,16.1c31.9-1.7,78.4,20.6,85.8-3.2c19.1-61.7-42.9-135.4-22.2-148.4
		c12-7.6-5.2-34.4,8.1-39.4c9.4-3.6,28.3-74.7-10.1-95.3c-39.9-21.4-82.4-44.4-104.6-85.9c-17.7-33.2-19.8-72.4-46.4-101.1
		c-20.5-22.1-46.7-53-71.7-66.1c-46.2-24.4-61.4-84-113.6-99.5c-47.6-14.2-99.1-15.5-147.7-27.5c-32.7-8.1-66.3-13.1-100-11.1
		c-31.8,1.9-60.7,16.2-91.8,18.8c-77.7,6.4-114.8-79.9-189.5-36.8c-24.5,14.1-67,13.1-107.6,9.4c-40.6-3.6-60.8,10.7-86.5,28.5
		c-39.1,27.1-42.4,65.5-92.2,67.6c-58.4,2.6-206.5,47.4-142.9,264.5 M4963.1,1528.8c-1.3-17.3,0.9-34.4,10.3-49.5
		c16.1-25.8,98-15.7,127.4-21.2c14.7-2.8,98.7-47.9,96.7-17.5c-1.9,29.3-15.2,61.9-32.3,85.6c-29.9,41.2-85,46.9-124.7,91.1
		c-1.8,0.3-61.8,63.4-62.9,59.6C4973.9,1664,4964.1,1542.5,4963.1,1528.8z"/>
	<path d="M4671.5,1480.6"/>
</g>
</svg>
