<?xml version="1.0" encoding="utf-8"?>
<!-- Generator: Adobe Illustrator 24.0.3, SVG Export Plug-In . SVG Version: 6.00 Build 0)  -->
<svg version="1.1" id="Layer_1" xmlns="http://www.w3.org/2000/svg" xmlns:xlink="http://www.w3.org/1999/xlink" x="0px" y="0px"
	 viewBox="0 0 1600 687.3" style="enable-background:new 0 0 1600 687.3;" xml:space="preserve">
<style type="text/css">
	.st0{opacity:0.79;fill:#678988;enable-background:new    ;}
	.st1{fill:#295462;}
	.st2{fill:#213E48;}
	.st3{fill:#131517;}
</style>
<path id="stalactite" class="st0" d="M1425.4,61c-0.9,18.6-2.9,37.1-6.6,55.3c-0.4,2.1-0.9,4.2-1.3,6.3
	c-5.1,22.7-13.5,43.7-23.5,63.7c-2,3.9-4,7.8-6.1,11.7c-7.8,14.8-15.8,29.3-22.4,44.9c-4,9.3-7.3,19.2-9.7,29.3
	c-2.4,8.8-2,19-5.2,27.4c-3.3,9-9.4,18-13.6,26.5c-6.2,12.4-10.3,25.2-15.1,38c-1.1,3-2.3,6.1-3.6,9.1l0,0l0,0
	c0,0.1-0.3,0.9-0.9,2.4c-0.4,0.9-0.7,1.9-1.1,2.8c-1.1,2.8-2,5.7-3,8.6c-1.7,5.5-3.2,11.1-4.5,16.8c-0.3,1.3-0.6,2.7-0.9,4
	c-0.2,1-0.3,1.6-0.4,1.9c-0.3,1.9-0.5,3.8-0.7,5.6c-1.4,11.4-1.4,23-2.1,34.5c-0.8,12.7-3.1,25.2-7.2,36.9
	c-3.3,9.6-7.3,18.8-10.2,28.7c0,0.1-0.1,0.3-0.1,0.4c0,3.2-2.1,7.4-2.7,10.5c-0.6,2.9-0.6,5.6-1,8.5c-1.1,7.6-3.9,15.3-5.8,22.6
	c-4.7,18.6-9.5,37.2-13.6,56c-1.1,4.8-2.1,9.6-3.1,14.4l0,0c-0.9,4.4-1.8,8.9-2.6,13.3c-1.4,7.7-1.6,16.4-4.3,23.5
	c-4.2,11.1-14.4,15.1-20.1,3.3c-2.4-4.9-3.1-10.6-4.1-16.1c-1.8-9.2-4.6-18-7.5-26.7c-3.3-9.9-6.9-19.7-9.2-29.9
	c-4.7-20.2-5.3-42-7.7-62.7l-1.4-11.8l-8-68.5c0-0.3-0.1-0.6-0.1-1c-3.1-26.4-6.2-52.9-9.3-79.3c-0.4-3.4-0.6-7-1.4-10.2
	c-3.5,3.9-4,13-5.5,18.4c-2.3,8.4-5.1,16.6-8.5,24.4c-4.4,10.2-9-0.2-11-6.6c-2.8-9.2-5.1-18.5-7-27.9c-1.4-6.9-1.4-13.9-4.1-20.6
	c-0.8-2-2.9-4.2-4.6-2.9c-0.7,0.5-0.9,1.4-1.1,2.2c-1.5,6.2-3,12.4-4.5,18.5c-1.9,1.5-4.8,0.6-6.4-1.2c-1.6-1.8-2.2-4.2-2.7-6.5
	c-4.1-18.2-10.3-37.7-11.2-56.3c-1-18.8-7.2-37.3-8.2-56.3c-0.5-10.2-1-20.3-1.2-30.4c-0.3-11.8-0.3-23.7-0.1-35.7
	c0.7-33.7-20.8-93.4-39.7-138.1c-6.3-15.1-12.4-28.5-17.2-38.6c-0.1-0.2-0.2-0.5-0.3-0.8c-0.3-0.8-0.5-1.7-0.6-2.5c0-0.3,0-0.6,0-1
	h373.5c0,0.3,0,0.6,0,1c0,0.9,0.1,1.7,0.1,2.5C1426.1,22.7,1426.4,41.9,1425.4,61z"/>
<path id="stalactite_1_" class="st1" d="M494.5,0c-0.3,0.3-0.5,0.6-0.8,1c-0.7,0.8-1.4,1.7-2.2,2.5C481,15.7,468,30.9,454.1,47.3
	c-10.6,12.5-21.8,25.8-32.8,39c-0.7,0.9-1.4,1.7-2.1,2.6c-15.6,18.8-30.9,37.4-43.9,53.7c-15,18.9-27,34.7-32.8,44.1
	c-6.9,11.1-14.3,18.5-21.9,23.8c-14.1,9.8-29.2,12.7-44.7,19.8c-7.9,3.6-15.9,8.3-23.8,15.4c-26.3,23.7-39,59.8-47.9,93.8
	c-1.3,5.1-2.6,10.2-3.8,15.2c-4.3,18-10.4,37.1-15.8,54.7c-3.1,10.3-8.4,19.8-13.1,29.4c-7.8,16.1-14,32.9-18.5,50.2
	c-3.5,13.3-7.2,26.9-12.4,39.6c-9.1,22.4-20.8-8.7-22.3-18.8c-1.7-11.4-1.8-23.4-7-33.7c-2.6-5.1-6.3-9.5-9-14.5
	C90.6,440,98,410,81.2,392c-3-3.2-5.3-5.7-9.5-6.5c-9.3,25.2-5.6,55.1-12.6,81.3c-6.7,25.3-11.7,49.2-14.5,75.1
	c-0.1,0.9-0.2,2.4-0.4,4.2c-1.4,14.5-5.8,53-18.1,33.2c-6.7-10.9-12.7-22.2-17.6-33.9C0.1,525.3-5,504-4.9,482.1
	c0-10.9-1.9-21.4-5-31.8c-2.7-9-6.2-17.9-9.9-26.8c3.1-1.9,6.5-3,9.9-4.2v-123c-1.1,1.3-2.1,2.5-3,3.6v-208c-3.1,1-5,1.6-5,1.6
	L-17.7,0H494.5z"/>
<path id="blu_stalac" class="st2" d="M1597.8,3.5v78.2c-3.6,3.4-9.3,5.6-17.5,1.3c-17-9-47,39-62,35c-2.3-0.6-5.6-0.8-9.5-0.7
	c-9,0.2-21.4,2-33.5,4l0,0c-16.1,2.7-31.8,5.7-38,5.7c-6.1,0-12.4-5.1-18.5-10.7c-6.8-6.3-13.2-13.3-18.5-14.3
	c-10-2-15.5,35.5-22.5,32.5S1364.3,93,1356.3,92c-0.2,0-0.4,0-0.7-0.1c-8-0.4-20.6,8.1-30.3,10.1c-3.3,0.7-6.4,6.5-9.3,13.9
	c-1.5,3.8-2.9,8.1-4.3,12.4v0.1c-4.1,12.5-7.9,24.6-11.4,24.6c-6.7,0-7.9-11.1-18.7-16.4c-0.4-0.2-0.8-0.4-1.3-0.6
	c-7.6-3.2-11.2-20.2-15.9-31.3c-2.7-6.3-5.7-10.8-10.1-9.7c-12,3-20.5,69.5-27.5,70.5c-2.5,0.4-5.7,10-9,22.2l0,0
	c-5.9,21.8-12.2,51.8-16,51.8c-6,0-28-59-25-77s-17.7-39.9-18.5-44.5c-2-11-3-41-15-38s-15,69-22,79c-4.7,6.8-7.6,36.7-11.8,57.7
	l0,0c-2,10.1-4.3,18-7.2,20.3c-9,7-11,59-25,60s-17-72-29-85s-1-122-17-127s-104,39-128,42s-62,47-90,51s-67-41-87-52s-49-2-63-8
	c-7.8-3.3-22.8-3.9-38-3.2c-0.6,0-1.1,0.1-1.7,0.1c-11.7,0.6-23.2,1.9-31.3,3.1c-1,0.2-2.1,0.3-3,0.3c-8.8,0.2-14.5-5-19.4-10.9l0,0
	l0,0c-4.4-5.3-8-11.2-12.5-14.4c-6.3-4.4-22.2-14.4-35.4-21c-7.6-3.8-14.3-6.4-17.6-6c-3.2,0.4-4.8,9.2-6.2,20.6l0,0
	c-2.4,21-3.7,50.4-10.8,50.4c-4.3,0-9.8-15.1-15.7-33.9c-5.8-18.7-12-41.1-17.6-55.7c-0.5-1.4-1.1-2.7-1.6-4
	c-2.6-6.1-5-10.3-7.2-11.4c-12-6-9.5,37.5-18.5,39.5c-1.4,0.3-2.7,3-3.9,7.2c-0.6,2.2-1.1,4.7-1.7,7.6c-0.2,1.2-0.4,2.5-0.7,3.9
	c-4.5,28.2-6.6,79.3-8.8,87.3c-3,11-3,62-11,63s-20-76-23-83c-0.7-1.7-1.5-7.3-2.5-14.9c-0.2-1.4-0.4-2.9-0.6-4.4
	c-3.1-24.5-7.5-62.5-13.9-59.6c-9,4-28,59-32,69c-2.1,5.2-4.7,31-7.4,55.5c-0.3,2.5-0.6,5-0.8,7.5c-2.3,19.7-4.6,37-6.7,40
	c-5,7-10,58-20,56s-10-34-9-46c0.5-6.6-4.6-18.5-9-30.2c-0.8-2.1-1.6-4.2-2.3-6.3l0,0c-2.6-7.5-4.4-14.5-3.7-19.5c2-14-12-40-15-54
	c-0.7-3.1-1-8-1.3-13.8c-1.1-20.5-1.3-52.5-10.7-57.2c-12-6-57,27-61,38c0,0,0,0,0,0.1c-4,11-18,32-27,41.9
	c-6.4,7.1-23.3,8.1-34.8,11.7c-4.7,1.5-8.5,3.4-10.2,6.3c-6,10-16,34-26,36c-3.2,0.6-9.4,20.4-15,38.2c-4.2,13.5-8.1,25.9-10,27.8
	c-1.6,1.6-4.1,2.6-7.2,3.1c-13.4,2.4-37.2-3.1-38.8-3.1c-7,0-16.4,9.2-23,16.8c-1.1,1.3-2.1,2.5-3,3.6V3.5H1597.8z"/>
<path id="right_wall" class="st1" d="M1607.3,81.7v284.6c-5.1-4.4-22.7-9.7-33.5-10.8c-10.2-1.1-14.6-14.2-17-28.2l0,0
	c-2.1-12.1-2.6-24.7-4-30.7c-3-13-21-17-28-19s-27-18-34-15l0,0c-7,3.1-6,54-16,54s-9-46-16-51s-10-45-13-54s-22-22-26-20
	c-2.4,1.2-6.9,14.2-11,30c-2.8,10.7-5,25-9,26s-13-72-21-74c-7.4-1.8-16.4-22.2-29.4-34.8l0,0c-1.2-1.1-2.4-2.2-3.6-3.2
	c-7.6-6.1-18.7-12.4-29.8-19.6c2.9-7.5,6-13.3,9.3-13.9c9.7-1.9,22.3-10.5,30.3-10.1c0.2,0,0.5,0,0.7,0.1c8,1,14.5,39.5,21.5,42.5
	s12.5-34.5,22.5-32.5s24,25,37,25c11,0,50.5-9.3,71.5-9.7c3.9-0.1,7.1,0.1,9.5,0.7c15,4,45-44,62-35
	C1588.5,87.3,1603.7,85.2,1607.3,81.7z"/>
<path id="black_stalac" class="st3" d="M1601.3,204c-0.8-0.3-2-1.1-3.5-2.4c-9.1-7.9-28.6-31.6-35.5-31.6c-8,0-37-17-52-33
	c-7.1-7.6-21.2-12.3-35-15.7l0,0c-15.2-3.8-29.8-6.1-34-9.3c-8-6,2-32-6-40c-2.3-2.3-5.8-6.3-9.9-11c-9.9-11.3-23-26.2-30.1-29
	c-10-4-32-5-60-6s-36,18-54,24s-38-1-51,0s-17,28-33,32s-32-30-41-37s-33-11-47-6c-5,1.8-20.5,3-39.5,3.8
	c-33.9,1.6-78.8,2.3-95.5,4.2c-26,3-67-5-82-11s-86-9-99-10s-20,7-42,9s-42,1-58-3S652.8,57.5,635,57.7s-18.2-19.2-39.2-13.2
	s-35,13-48.6,15.1c-4.4,0.7-13.9,5.7-25.2,12.4c-7.4,4.4-15.7,9.5-23.8,14.6l0,0c-9.5,5.9-18.8,11.8-26.5,16.4
	c-7,4.2-12.7,7.3-15.8,8.4c-6.8,2.4-20.9-8.6-35.2-21.3c-0.5-0.4-1-0.9-1.5-1.3c-14.6-13.1-29.1-27.4-35.8-30.5
	c-13.5-6.1-70.6,19.1-96.6,20.1s-73-43-88-47c-7.3-1.9-18.8,5.5-31.1,14.3c-9.4,6.7-19.2,14.1-28,18.7l0,0c-3.5,1.8-6.8,3.2-9.8,3.9
	c-21,5-69-5-89,4C26.5,79,2.4,87-10.1,91c-1.1,0.4-2.1,0.7-3,1c-3.1,1-5,1.6-5,1.6L-17.7,0h1619c0,0,0,0.3,0,1
	C1601.8,16.1,1607.1,205.9,1601.3,204z"/>
</svg>
