<?xml version="1.0" encoding="utf-8"?>
<!-- Generator: Adobe Illustrator 24.0.3, SVG Export Plug-In . SVG Version: 6.00 Build 0)  -->
<svg version="1.1" id="Layer_1" xmlns="http://www.w3.org/2000/svg" xmlns:xlink="http://www.w3.org/1999/xlink" x="0px" y="0px"
	 viewBox="0 0 1600 968" style="enable-background:new 0 0 1600 968;" xml:space="preserve">
<style type="text/css">
	.st0{fill:#76A9AA;}
	.st1{fill:#295462;}
	.st2{fill:#23494F;}
	.st3{fill:#213D48;}
	.st4{fill:#264E5B;}
	.st5{fill:#2B5963;}
	.st6{fill:#4B6977;}
	.st7{fill:#131517;}
	.st8{display:none;}
</style>
<g>
	<path id="stalagmite" class="st0" d="M1621.5,644.7v144.2l-16.4-0.7l-0.6,0v206.1h-1619v-280l0.4,0c0.2,0,0.3,0,0.5,0
		c2.7-0.2,5.4-0.4,8.1-0.6c15-0.9,29.4-0.7,44.1-0.2c5.6,0.2,11.2,0.4,17,0.7c14.2,0.6,37.6,4.5,47.5-9.2c0.5-0.6,0.9-1.3,1.3-2
		c1.7-2.9,2.4-6.3,3.8-9.3c1.7-3.8,4.4-7,7.2-10.1c0,0,0,0,0,0c2-2.2,4.1-4.5,6-6.8c11.8-15,13.6-34.5,16.1-52.7
		c1.1-8,0.3-15.4,1-23.2c0.1-1.3,0.3-2.7,0.5-4c1.4-10.5,4.3-21,6.6-31.3c3.4-15.3,6.8-30.7,10.2-46c0.1-0.4,0.2-0.9,0.3-1.3
		c0.3-1.5,0.9-3.2,2.3-3.8c2.6-1,4.3,2.6,4.7,5.5c0,0.1,0,0.3,0,0.4c2.4,27.3,15.4,52.5,22.2,79c1,3.8,1.8,7.5,2.5,11.4
		c0.8,4.5,1.6,9.5,5.2,12.2c10.9,8.5,20.8-8.9,27.3-18.6c1.1-1.6,2.1-3.1,3-4.1c11.8-13.4,29.1-20,43-30.8
		c14.3-11,21.2-25.2,31.6-37.1c5.9-6.7,12.8-12.6,22.9-16.8c6-2.5,12.5-4.8,16.9-9.4c0.5-0.6,1-1.1,1.5-1.8c0.3-0.4,0.6-0.8,0.9-1.3
		v0c3.4-5.3,4.9-12.4,10.5-15.4c3.6-1.9,7.9-1.6,11.9-2.4c19.9-3.8,27.4-29.5,34.6-45.3c10.6-23.1,17.1-47.8,26.2-71.5
		c10.8-28.1,29.6-53.9,31.5-83.9c0.2-3.9,0.2-7.9,2.1-11.4c1.9-3.4,6.4-5.7,9.7-3.7c1.9,1.2,2.9,3.5,3.7,5.6
		c5.9,15.2,14.1,33.4,14.1,50.1c4.1,17.3,10.8,33.8,15.3,51c5.8,22,6.1,45.6,11.2,68.1c1.6,6.9,4.1,14,10,18
		c4.5-4.8,14.3-58.4,16.5-56.1c8,8,19,41,20,54c1.9,24.4-3.1,56.4,11.2,78c22.4-5.3,21.4-63.1,20.6-80.1c-1.6-30.7-2.1-62-4.7-92.5
		c-2.8-31.7-6.8-63.5-4-95.4c1.8-20.4,3-40.9,3.5-61.3c0.2-7.4-2.1-14-2.4-20.7c-0.6-12,4.8-20.9,9-31.9c7.2-19.1,5.8-43.6,4-63.7
		c-0.2-1.8-0.4-3.5-0.6-5.2c-0.7-4.8-1.6-9.4-1.2-14.4c0.2-3.2,3.1-27.2,4.8-28.2c3.1-1.9,7.2-1.1,10.2,0.8c3,2,5.2,4.9,7.3,7.9
		c6.4,8.9,10.5,19.4,13.2,30.5c4.4,17.9,5.2,37.5,5.8,54.7c1,29.2-1,59.3,5.2,88.1c1.1,5,2.1,10,5.5,13.6
		c6.6-6.4,10.7-17.5,12.5-26.3c1.9-9.1-1.9-20.1,2.5-28.5c3.2-6.2,13.1-9.2,17.3-3.5c1.9,2.6,2.1,6.1,2.1,9.4
		c0.7,32,4,63.9,9.8,95.3c5.5,29.6,18.9,57.5,23.4,86.9c3.2,20.6-0.5,42,5.2,62.1c4.7,16.5,15.4,31.1,17.8,48.1
		c3,21.1,8.4,37.5,14.5,57.9c0,17.3,13,34.4,13.1,52.8c0.1,20.6,9.1,37.5,17,56.5c2.4,5.9,5,12.1,9.8,16.4
		c4.5,4.1,10.5,6.2,16.2,8.1c18.8,6.4,37.8,7.6,56.3,12c15.3,3.6,29.2,3.8,45,2.8c6.5-0.4,16-0.1,27,0.7c3.2,0.2,6.5,0.5,9.9,0.8
		c12.3,1,25.7,2.4,38.4,3.7c4.4-14.6,28.2-11.8,46.6-43.2c21.7-37,25.7-31.4,25-50c-0.1-1.5-0.1-3.6,0-6.3v0
		c0.1-6.6,0.5-16.2,1.2-26.1c1.3-17.5,3.8-35.8,7.8-39.5c4.3-4.1,7.2-2.6,9.5,1.6c1.4,2.6,2.6,6.3,3.7,10.4c0,0,0,0,0,0
		c3.8,14,6.6,32.1,16.3,23.4c1.9-1.7,3.9-3.5,5.8-5.4c0,0,0,0,0,0c7.1-7.1,13.6-15.1,17.6-24.2c2.9-6.5,4.5-13.6,4.1-21.1
		c-0.2-4.8-0.1-9.6,0.2-14.4c1.3-17.5,5.9-34.7,7.9-52.1c1.1-9.4,0.1-17.9,0-27.1c0-7.9,3.1-16.3,0.8-24.1
		c-3.9-13.6,5.4-32.5,5.1-46.6c0-1.6-0.1-3.3,0.8-4.7c4.2-6.5,14.4,4.5,16.1,8.5c3.7,8.5,2,19.4,5.8,28.5c1.5,3.4,3.2,6.7,4.2,10.3
		c1.2,4.1,1.3,8.5,1.5,12.8c0.6,12.1,2,24.2,4.2,36.2c0.3,1.5,6.8,26.8,6.6,26.9c10.2-8.5,20.4-30,27-48.8
		c3.2-9.1,5.6-17.6,6.7-23.7c6.4-33.8-1.8-68.2,7.7-102.3c5.9-21.1,16.1-40.7,21.8-61.8c13.6-51.1-1-106.9,15.2-157.1
		c1.2-3.8,3.3-8.2,7.3-8.7c4.2-0.5,7.3,3.5,9.5,7.1c0,0,0,0,0,0c0,0,0.1,0.1,0.1,0.1c6.2,10.3,12.5,20.7,17.2,31.8
		c1,2.3,1.9,4.7,2.7,7.1c5.1,15.1,6.6,31.2,8.3,47.1c5.3,48.7,13.5,97.1,24.5,144.9c2.2,9.4,3.6,18.9,4.8,28.5
		c1.8,13.5,3.3,26.9,6.1,39.7c2.4,10.7,7.5,21.6,13.7,32.1c6.8,11.6,14.6,22.7,21.1,32.7c7.1,10.8,14.6,21.8,23.8,31
		c3.6,3.6,7.5,7,11.8,10c4.8,3.4,13.9,10.8,19.8,6.9c5.4-3.6,4-14.4,5.7-21.9c0.4-1.8,1-3.4,1.9-4.6c3-4.2,6.8,1.2,9.2,3.8
		c0.2,0.2,0.4,0.4,0.6,0.6c0-0.2,0.1-0.4,0.1-0.6c0.7-4,1.4-8.1,2.6-11.9c2.1-6.1,5.4-11.8,7.8-17.8c6.5-16.4,6-34.8,10.7-51.8
		c0.8-3,1.9-6.2,4.2-8.4c2.3-2.2,6.2-2.9,8.6-0.9c3.6,3,1.5,8.8,1.8,13.5c0.3,6,4.8,10.9,7.6,16.2c7.7,14.3,3.6,31.1,4.9,46.5
		c0.4,5.1,2.6,10.4,5,15.8c4,8.9,8.6,18.1,6.8,26.5c-0.2,0.6-0.4,1.2-0.5,1.8c0.2-0.6,0.4-1.2,0.5-1.8c2.1-6.9,7.2-12.8,13.7-16
		c5.3,15.8-5,34.4,2.5,49.2c4.4,8.7,13.8,13.7,19.9,21.3c9.9,12.5,9.6,30,15.2,44.9c7,18.5,22.7,28.4,39,37v0c0,0,0,0,0,0
		C1601.6,632.8,1612.5,638,1621.5,644.7z"/>
	<path id="stalagmite_1_" class="st1" d="M529.8,787c-1.2,1.3-3.2,1.3-5,1.2c-28.8-0.8-56,12.8-84.5,16.3
		c-6.9,0.8-12.9,1.5-18.7,3.5c0,0,0,0,0,0c-2.5,0.9-4.9,2-7.5,3.4c-8.4,4.9-17.3,11.4-27,13.3c-13.6,2.6-26.9-4.7-39.8-9.8
		c-24-9.6-50.7-12-76-6.9c-16.2,3.2-31.7,9.4-47.9,12.8c-19,3.9-38.6,3.7-58,2.9c-24.4-1-51.7-1.1-77.8-4c-15-1.7-29.5-4.3-42.9-8.6
		c-2.4-0.8-10.6-3.1-20.9-5.8c-9.2-2.4-19.9-5.1-29.3-7.3c-2.1-0.5-4.1-0.9-6-1.3c-0.8-0.2-1.5-0.3-2.3-0.5c-0.2,0-0.5-0.1-0.7-0.1
		v-81.8l0.4,0c-2-55-4.4-121-4.4-121s0.1,0,0.2,0.1l-0.2-3.1l-2-76c0,0,5.6,0.1,15,0.2v-94.8c-2.7-9-6.2-17.9-9.9-26.8
		c3.1-1.9,6.5-3,9.9-4.2c6.8-2.3,13.3-4.5,17-12c6.6-13.6,7.1-28.7,15.6-41.7c3.4-5.2,7.6-10.1,9.9-15.9c1.7-4.4,2.2-9.2,3.1-13.9
		c1.6-8.5,4.5-16.7,7.3-24.8c3.2-9.2,6.4-19,8.8-28.6c0.9-3.5,1.7-7.1,2.4-10.6c0.8-4.3-0.1-9.2,0.9-13.4c0.8-3.6,4-6.7,4.8-10.5
		c0.4-1.8,0.5-3.8,1.6-5.3c1-1.6,3.3-2.5,4.8-1.3c0.8,0.7,1,1.8,1.2,2.8c0.5,2.4,1,4.9,1.6,7.2c0.7,2.5,1.4,5,2.2,7.5
		c0.9,2.6,2.1,9,4.7,10.6c4.3,2.6,8.7-4.4,10.3-7.8c14-29.2,25.4-59.6,34-90.8c7.7-28,13.1-56.5,16.2-85.4
		c0.7-6.9,1.7-14.2,3.4-21.3h0c3.6-15.5,10.5-29.6,25.1-33.7c1,5,2,10,3,15c4.7,23.9,9.4,47.8,14.1,71.7
		c4.8,24.3,9.6,48.6,14.4,72.9c3.5,18,7.1,36,8.5,54.2c1.9,25.7-2.1,50-4.1,75.4c-0.6,7.2,1.3,13.5,3.6,19.5
		c3.2,8.5,7.2,16.4,6.2,25.2c-1.6,13.2,2.9,23.4,11.5,33.4c18.2,21.3,39.6,40.2,53.9,64.2c5.4,9.1,9.8,18.9,16.9,26.8
		c6.2,7,14.2,12.1,21.4,18c7.3,5.9,12.6,13,18.9,19.8c0.9,0.9,1.8,3.4,2.8,7v0c2,7.5,4.2,20.3,6.5,36c1,6.6,2,13.7,3,21.2v0
		c1.1,8.1,2.2,16.6,3.3,25.3c0.5,3.9,1,7.8,1.5,11.8v0c0.9,6.9,1.8,13.9,2.7,20.9v0c4.1,32.1,8.2,62.8,11.7,81.1
		c1.8,9,3.4,15,4.9,16.6c1.2,1.3,2.4,2.5,3.7,3.7c21.9,20.2,58.2,25.4,85.2,33.5c21.7,6.5,41.6,16.1,62.1,25.6
		C528.4,780.3,532.3,784.2,529.8,787z"/>
	<path class="st2" d="M1641.5,688.3c0,0-542,37-581,34c-39-3-204,4-227,14s-58,20-116,13s-199-13-227-15s-64-43-79-46s-76-25-103-26
		s-345,33-345,33l9,296h1669V688.3z"/>
	<path class="st3" d="M582.5,939.3c0,0-5-105-41-113s-99,0-112-16s-145-8-99-26s11-30,0-35s7-33,29-32s91-11,39-30s-208,3-208,3
		s-184.2,41-180.6,75s66.6,137,66.6,137s188,55,292,55S582.5,939.3,582.5,939.3z"/>
	<path class="st3" d="M942.5,749.3c0,0-122,13-140,20s75,51,30,47c-2.5-0.2-5-0.2-7.5,0c-24.7,2.4-38.4,26.9-55.5,41.7
		c-6.4,5.6-14.1,10.8-22.6,12.4c-8.2,1.5-17.5,0.4-25.9,1.1c-20.5,1.6-40.9,5-60.8,10.1c-1.6,0.4-3.2,0.9-4.2,2.2
		c-1.7,2.3-0.3,5.5,1.1,7.9c7.2,11.9,16.5,27.9,27.9,36.3c9.6,7.1,26.4,4.9,37.9,6c20.8,2,41.7,3.4,62.5,4.7
		c47.5,2.8,95.1,4.8,142.6,6.5c24.2,0.8,48.4,1.6,72.6,2.3c0,0-29-38-64-38s-96,12-85-7c2.8-4.8-63.6-17.4-54-22
		c28.9-13.8,116-20.8,113-32c-4-15-19-51-38-57s133-5,122-11S968.5,749.3,942.5,749.3z"/>
	<path class="st1" d="M1613.5,630.3v280.5c-4.3,0.2-10,0.6-17,0.9c-0.1,0-0.3,0-0.4,0c-6.5,0.4-14.1,0.7-22.4,1.2
		c-61.4,3.1-167.4,7.8-238.7,7.1c-13.4-0.1-26.7,0.8-40.1,1.1c-6.5,0.2-20.6,5.3-25.8-0.1c-1.1-1.2-1.8-2.7-2.6-4
		c-0.9-1.4-1.9-2.7-3.1-3.8c-2-2.1-4.4-3.8-6.6-5.7c-3.9-3.2-7.5-6.9-10.7-10.8c-1.5-1.9-3-3.8-3.7-6.1c-0.8-2.3-0.7-4.9-0.8-7.3
		c-0.1-1.4-0.2-2.8-0.4-4.1c1.7-3.4,3.2-6.7,3.2-6.9c0-13,51-147,59.2-158.1c0.3-0.4,0.5-0.8,0.8-1.2c8.5-14.2,25-78.6,25-78.6
		l4.5-10.6c0,0,0,0,0,0c0,0.1,0,0.1,0.1,0.2c0,0.1,0,0.1,0.1,0.2c0,0.1,0.1,0.2,0.1,0.3c0,0.1,0.1,0.1,0.1,0.2c0,0,0,0,0,0
		c0,0,0,0.1,0.1,0.1c0,0.1,0.1,0.2,0.2,0.2c0,0,0,0,0,0c0,0,0,0,0,0c0,0,0,0,0,0.1c0,0,0,0.1,0.1,0.1c0,0,0.1,0.1,0.1,0.1
		c0,0,0.1,0.1,0.1,0.1c0,0,0.1,0.1,0.1,0.1c0.1,0.1,0.2,0.2,0.3,0.3c0,0,0,0,0,0c0,0,0,0,0.1,0c0.1,0.1,0.2,0.2,0.4,0.3
		c0,0,0,0,0.1,0c0,0,0,0,0.1,0.1c0,0,0,0,0.1,0c0.1,0,0.1,0.1,0.2,0.1c0.1,0,0.2,0.1,0.2,0.2c0.1,0.1,0.3,0.2,0.4,0.3c0,0,0,0,0,0
		c0,0,0,0,0,0c0,0,0.1,0,0.1,0.1c0,0,0.1,0,0.1,0c0,0,0.1,0,0.1,0.1c0,0,0,0,0,0c0,0,0,0,0,0c0.2,0.1,0.3,0.2,0.5,0.2
		c0.1,0,0.1,0,0.2,0.1c0.1,0,0.2,0.1,0.3,0.1c0,0,0,0,0.1,0c0.1,0.1,0.2,0.1,0.3,0.1c0.1,0,0.1,0.1,0.2,0.1c0.2,0.1,0.4,0.2,0.5,0.2
		c0.2,0.1,0.4,0.1,0.6,0.2c0.2,0.1,0.4,0.1,0.6,0.2c0.2,0.1,0.4,0.1,0.6,0.2c0.1,0,0.3,0.1,0.4,0.1c0.1,0,0.2,0.1,0.3,0.1
		c0.2,0.1,0.4,0.1,0.6,0.2c0,0,0.1,0,0.1,0c0.4,0.1,0.8,0.2,1.3,0.4c0.1,0,0.2,0.1,0.3,0.1c0,0,0.1,0,0.1,0c0.1,0,0.3,0.1,0.4,0.1
		c0.3,0.1,0.6,0.2,0.9,0.2c0.2,0.1,0.5,0.1,0.8,0.2c0.1,0,0.1,0,0.2,0c0.3,0.1,0.6,0.1,1,0.2c0.2,0,0.3,0.1,0.5,0.1
		c0.5,0.1,1,0.2,1.5,0.3c0,0,0,0,0,0c0,0,0,0,0.1,0c0.3,0.1,0.7,0.1,1,0.2c0.7,0.1,1.4,0.2,2.2,0.4c0.6,0.1,1.1,0.2,1.7,0.2
		c0,0,0,0,0,0c0.4,0.1,0.9,0.1,1.3,0.2c0.6,0.1,1.2,0.1,1.8,0.2c0.2,0,0.3,0,0.5,0.1c0.2,0,0.3,0,0.5,0.1c0.5,0.1,0.9,0.1,1.4,0.2
		c1.4,0.1,2.7,0.3,4.2,0.4c0.1,0,0.2,0,0.3,0c0.4,0,0.9,0.1,1.4,0.1c0.1,0,0.3,0,0.4,0c0.2,0,0.3,0,0.5,0c0,0,0,0,0,0
		c0.1,0,0.2,0,0.3,0c0.1,0,0.3,0,0.4,0c0.1,0,0.2,0,0.2,0c0.1,0,0.2,0,0.4,0c0.2,0,0.5,0,0.8,0.1c0,0,0.1,0,0.1,0
		c0.2,0,0.4,0,0.7,0.1c0.1,0,0.1,0,0.2,0c0.6,0.1,1.3,0.1,2,0.1c0.7,0,1.4,0.1,2.2,0.1c0,0,0,0,0,0c0.3,0,0.5,0,0.8,0
		c0.2,0,0.5,0,0.7,0.1c1.1,0.1,2.3,0.1,3.5,0.2c1.2,0.1,2.4,0.1,3.6,0.2c0.6,0,1.3,0.1,2,0.1c0.1,0,0.2,0,0.2,0
		c1.6,0.1,3.2,0.1,4.8,0.2c0.2,0,0.4,0,0.6,0c0.2,0,0.4,0,0.6,0c0.4,0,0.8,0,1.1,0h0.2c0.5,0,1,0,1.5,0c0.4,0,0.7,0,1.1,0
		c0.4,0,0.8,0,1.2,0c0.4,0,0.8,0,1.2,0c0.6,0,1.3,0,1.9,0c0.1,0,0.2,0,0.4,0c1.8,0,3.6,0,5.5,0.1c0.5,0,1.1,0,1.6,0
		c0.8,0,1.5,0,2.2,0c0.2,0,0.5,0,0.7,0h5c2.6,0,5.2,0,7.9,0c5.1,0,10.4-0.1,15.7-0.2c4.3-0.1,8.6-0.2,13-0.3c0.4,0,0.8,0,1.1,0
		c0.1,0,0.2,0,0.3,0c0.5,0,1,0,1.6,0c1.8-0.1,3.5-0.1,5.3-0.2c2.1-0.1,4.2-0.1,6.4-0.2c1.8-0.1,3.6-0.1,5.4-0.2
		c7.3-0.3,14.6-0.6,22-0.9c3.4-0.1,6.7-0.3,10-0.5c0.6,0,1.2,0,1.8-0.1c1.3-0.1,2.6-0.1,3.9-0.2c0.4,0,0.8,0,1.1-0.1
		c0.8,0,1.5-0.1,2.3-0.1c0.8,0,1.5-0.1,2.3-0.1c1.9-0.1,3.8-0.2,5.7-0.3c1.6-0.1,3.3-0.2,4.9-0.3c1.9-0.1,3.9-0.2,5.8-0.3
		c0.1,0,0.2,0,0.3,0c1.8-0.1,3.5-0.2,5.3-0.3c0,0,0.1,0,0.1,0c0.2,0,0.3,0,0.5,0c0.5,0,1-0.1,1.5-0.1c0.7,0,1.3-0.1,2-0.1
		c0.5,0,0.9,0,1.4-0.1c0.4,0,0.8,0,1.2-0.1c0.2,0,0.4,0,0.6,0c0.8,0,1.6-0.1,2.5-0.1c0.6,0,1.2-0.1,1.9-0.1c1-0.1,2.1-0.1,3.1-0.2
		c1.5-0.1,3-0.2,4.5-0.3c7.7-0.5,15.1-1,22.2-1.4c1.6-0.1,3.3-0.2,4.9-0.3c0.1,0,0.3,0,0.4,0c0,0,0,0,0,0c0.5,0,0.9-0.1,1.4-0.1
		c0.7,0,1.5-0.1,2.2-0.1c0.5,0,0.9-0.1,1.4-0.1c0.2,0,0.4,0,0.6,0c0.2,0,0.4,0,0.6,0c0.2,0,0.4,0,0.6,0c1-0.1,2.1-0.2,3.1-0.2
		c0.8-0.1,1.6-0.1,2.4-0.2c0.2,0,0.3,0,0.5,0c1.4-0.1,2.8-0.2,4.2-0.3c0.8-0.1,1.5-0.1,2.3-0.2c0.5,0,0.9-0.1,1.4-0.1
		c0.4,0,0.8-0.1,1.2-0.1h0.1c0.7-0.1,1.5-0.1,2.2-0.2c0.7-0.1,1.4-0.1,2-0.1c1.5-0.1,2.9-0.2,4.3-0.3L1613.5,630.3z"/>
	<path class="st1" d="M1100.9,533.2c-9.2,26.9-33.3,81.7-36.5,92c-4,13-37,58-40,72c-1.9,8.7-12.7,18.2-20.6,27.6
		c-4.7,5.6-8.4,11.2-8.4,16.4c0,7.5-10.2,20.1-19.7,30.2c-2,2.1-3.9,4.1-5.7,5.9c-0.2-0.1-0.3-0.1-0.5-0.1
		c-12.2-3.5-78.9-3.2-97.3-8.4c3.9-3.2,8.3-6.9,12.6-10.6c7.9-6.8,15.4-13.4,18.8-16c1-0.7,2.4-2.4,4.1-4.7c1.8-2.3,3.8-5.3,6.1-8.9
		c14.6-22.2,38.2-63.6,42.7-70.4c6-9,73-40,79-43s28-60,30-67c0.6-2,2.5-5.1,5-8.7c2.5-3.6,5.6-7.6,8.5-11.1c0,0,0.1,0,0.1,0.1
		c0.1,0,0.2,0.1,0.3,0.1c0.2,0.1,0.3,0.1,0.5,0.2c0,0,0.1,0,0.1,0c1.3,0.5,2.7,0.9,4.2,1.2c0,0,0.1,0,0.1,0c0.3,0.1,0.6,0.1,0.9,0.2
		c0.2,0,0.3,0.1,0.5,0.1c0.5,0.1,1,0.2,1.5,0.3c0,0,0,0,0.1,0s0,0,0.1,0c3.4,0.7,7,1.2,10.3,1.8c0.2,0,0.4,0.1,0.6,0.1
		c0.3,0.1,0.6,0.1,0.9,0.2c0.3,0.1,0.6,0.1,0.9,0.2c0.3,0.1,0.5,0.1,0.8,0.2C1100.9,533.2,1100.9,533.2,1100.9,533.2z"/>
	<path class="st4" d="M1335,614.2c0-0.1,0-0.1,0-0.2c0-0.1,0-0.1,0-0.2c0-0.1,0-0.3,0-0.4c0-0.1,0-0.1,0-0.2c0-0.1,0-0.1,0-0.2
		c0-0.1,0-0.2,0-0.4c0-0.3-0.1-0.5-0.1-0.8c0,0,0,0,0,0c0-0.1-0.1-0.3-0.1-0.4c0,0,0-0.1,0-0.1c0-0.1,0-0.1-0.1-0.2
		c-0.1-0.2-0.1-0.4-0.2-0.5c0,0,0,0,0,0c0-0.1,0-0.1-0.1-0.2c-0.1-0.3-0.2-0.6-0.3-0.8c0-0.1-0.1-0.1-0.1-0.2
		c-0.1-0.3-0.3-0.5-0.4-0.8c0,0,0-0.1-0.1-0.1s0-0.1-0.1-0.1c-0.3-0.5-0.6-0.9-0.9-1.4c0,0,0,0-0.1-0.1c0,0,0,0,0-0.1
		c-0.1-0.2-0.3-0.4-0.5-0.5c0,0,0,0,0-0.1c0,0,0,0,0,0c-0.1-0.1-0.2-0.2-0.2-0.3c0-0.1-0.1-0.1-0.2-0.2c-0.1-0.1-0.1-0.1-0.2-0.2
		c-0.2-0.2-0.3-0.3-0.5-0.5c0,0-0.1-0.1-0.1-0.1c0,0-0.1-0.1-0.1-0.1c0,0-0.1-0.1-0.1-0.1c0,0,0,0,0,0c-0.1-0.1-0.1-0.1-0.2-0.2
		c0,0,0,0-0.1-0.1l0,0c0,0,0,0-0.1,0c0,0-0.1,0-0.1-0.1c0-0.1-0.1-0.1-0.1-0.1l-0.2-0.2c-0.1-0.1-0.3-0.2-0.5-0.4
		c-0.1-0.1-0.2-0.1-0.2-0.2c0,0-0.1,0-0.1-0.1c0,0,0,0,0,0c0,0,0,0,0,0c0,0,0,0,0,0c0,0-0.1-0.1-0.1-0.1c-0.1,0-0.1-0.1-0.2-0.1
		c0,0-0.1-0.1-0.2-0.1c0,0,0,0-0.1,0c0,0-0.1,0-0.1-0.1c-0.1,0-0.1-0.1-0.2-0.1c-0.1-0.1-0.2-0.1-0.4-0.2c-0.1,0-0.2-0.1-0.3-0.2
		c0,0-0.1,0-0.1-0.1c-0.1-0.1-0.2-0.1-0.3-0.2c0,0,0,0,0,0h0c0,0,0,0,0,0c0,0-0.1-0.1-0.2-0.1c0,0-0.1,0-0.1-0.1
		c-0.3-0.1-0.6-0.3-0.9-0.4c-0.1,0-0.2-0.1-0.3-0.1c-0.1,0-0.2-0.1-0.3-0.1c-0.2-0.1-0.3-0.2-0.5-0.2c-0.1,0-0.2-0.1-0.2-0.1
		c-0.1,0-0.2-0.1-0.3-0.1c-0.2-0.1-0.5-0.2-0.7-0.3c-0.3-0.1-0.6-0.2-0.9-0.3c-0.3-0.1-0.6-0.2-0.9-0.3c-0.1,0-0.2-0.1-0.3-0.1
		c-0.2-0.1-0.5-0.2-0.7-0.2c-0.1,0-0.1,0-0.2-0.1c0,0,0,0,0,0h0c0,0,0,0-0.1,0c0,0,0,0,0,0c-0.2-0.1-0.4-0.1-0.6-0.2
		c-0.5-0.1-1-0.3-1.5-0.4c-0.3-0.1-0.6-0.2-1-0.2c-0.5-0.1-0.9-0.2-1.4-0.3c0,0,0,0,0,0c-0.1,0-0.2,0-0.2,0c-0.1,0-0.2,0-0.2-0.1
		c-0.4-0.1-0.8-0.2-1.2-0.2c0,0,0,0,0,0c-0.1,0-0.2,0-0.3-0.1c-0.1,0-0.2,0-0.2,0c-0.1,0-0.3,0-0.5-0.1c-0.2,0-0.4-0.1-0.6-0.1
		c-0.4-0.1-0.8-0.1-1.2-0.2c-0.1,0-0.1,0-0.2,0c-0.2,0-0.4,0-0.5-0.1c-0.3,0-0.5-0.1-0.8-0.1c-0.5-0.1-1-0.1-1.5-0.2h0
		c0,0,0,0-0.1,0c0,0,0,0,0,0c0,0-0.1,0-0.1,0c0,0,0,0,0,0c0,0,0,0-0.1,0c-0.1,0-0.1,0-0.2,0c-0.3,0-0.6-0.1-0.8-0.1
		c-0.3,0-0.6-0.1-0.9-0.1c-0.3,0-0.6,0-0.9-0.1c-0.6,0-1.2-0.1-1.8-0.1c-0.6-0.1-1.2-0.1-1.8-0.1c-5.3,24.7-21.7,74.6-23.2,95.8
		c-0.3,4.5-2.3,12.4-5.5,22.6c-11.3,36.2-37.1,100.7-51.5,136.2c0.3,0.3,0.7,0.6,1,0.9c9.8,8.3,16.7,14.5,18.6,26.4c0,0,0,0,0,0
		c0.1,0.3,0.1,0.5,0.1,0.8c1.7-3.4,3.2-6.7,3.2-6.9c0-13,51-147,59.2-158.1c0.3-0.4,0.5-0.8,0.8-1.2c8.5-14.2,25-78.6,25-78.6
		l4.5-10.6c0,0,0-0.1,0-0.1c0,0,0-0.1,0-0.1c0-0.1,0-0.2,0-0.4c0-0.1,0-0.2,0-0.3c0-0.1,0-0.2,0-0.4c0-0.1,0-0.1,0-0.2
		c0-0.1,0.1-0.3,0.1-0.4c0,0,0-0.1,0-0.1c0.2-0.7,0.4-1.3,0.5-1.9c0-0.1,0-0.1,0-0.2v0c0.1-0.3,0.1-0.5,0.2-0.8c0,0,0-0.1,0-0.1
		c0-0.1,0-0.1,0-0.2c0-0.1,0-0.1,0-0.1v-0.1c0,0,0,0,0,0c0,0,0-0.1,0-0.1c0-0.2,0.1-0.4,0.1-0.5c0,0,0,0,0,0c0-0.1,0-0.2,0-0.4
		c0-0.3,0.1-0.5,0.1-0.8c0-0.1,0-0.1,0-0.2c0-0.1,0-0.1,0-0.2c0,0,0,0,0,0c0,0,0-0.1,0-0.1v-0.1c0-0.1,0-0.3,0-0.4
		c0-0.1,0-0.2,0-0.3c0,0,0,0,0,0C1335,614.8,1335,614.5,1335,614.2z M1241.2,878c1.2-3.1,2.3-5.8,2.3-5.8
		C1243.7,872.4,1242.6,875,1241.2,878z"/>
	<path class="st4" d="M1111.6,541.4L1111.6,541.4c0,0.3,0,0.5,0,0.7c0,0.1,0,0.2,0,0.3c0,0.3-0.1,0.6-0.1,0.9c0,0,0,0,0,0.1
		c0,0,0,0,0,0c-0.4,0.6-14,21.1-15,30c-1,9-10,66-14,71c-2.6,3.3-27.8,47-46.9,80.3c-10.2,17.7-18.6,32.5-21.1,36.7
		c-3.6,6.2-11.8,15.9-18.9,23.8c-0.4-0.1-0.8-0.3-1.1-0.4c-2-0.7-3.8-1.4-5.4-1.9c-0.3-0.1-0.6-0.2-0.9-0.3
		c-3.7-2.4-7.7-6.5-12.5-11c9.5-10.1,19.7-22.8,19.7-30.2c0-5.3,3.7-10.8,8.4-16.4c7.9-9.3,18.7-18.8,20.6-27.6c3-14,36-59,40-72
		c3.2-10.4,27.3-65.1,36.5-92c0.1,0,0.1,0,0.2,0c0.1,0,0.2,0,0.3,0.1c0.2,0.1,0.5,0.1,0.7,0.2c0.2,0,0.3,0.1,0.5,0.1
		c0.2,0,0.3,0.1,0.5,0.1c0.1,0,0.2,0.1,0.2,0.1c0.1,0,0.1,0,0.2,0.1c0,0,0,0,0.1,0c0.4,0.1,0.8,0.2,1.1,0.4c0.2,0.1,0.3,0.1,0.5,0.2
		c0.1,0,0.2,0.1,0.3,0.1c0,0,0,0,0,0c0.3,0.1,0.5,0.2,0.8,0.3c0,0,0.1,0,0.1,0.1c0.1,0,0.2,0.1,0.3,0.1c0.2,0.1,0.4,0.2,0.6,0.3
		c0,0,0.1,0,0.1,0c0.2,0.1,0.4,0.2,0.6,0.3c0.1,0.1,0.2,0.1,0.3,0.2c0.3,0.2,0.6,0.4,0.9,0.6c0,0,0,0,0,0c0.1,0.1,0.2,0.1,0.2,0.2
		l0.2,0.2c0,0,0.1,0.1,0.1,0.1c0.2,0.1,0.3,0.3,0.4,0.4c0,0,0.1,0.1,0.1,0.1c0,0,0,0.1,0.1,0.1c0.1,0.1,0.2,0.3,0.4,0.5c0,0,0,0,0,0
		c0,0,0,0,0.1,0.1c0,0,0,0.1,0.1,0.1c0.1,0.2,0.2,0.4,0.3,0.5c0,0,0,0.1,0.1,0.1c0,0,0,0,0,0c0.1,0.2,0.2,0.3,0.2,0.5
		c0,0,0,0.1,0.1,0.1c0,0,0,0.1,0,0.1c0.1,0.2,0.1,0.4,0.1,0.5c0,0.1,0,0.1,0.1,0.2c0,0.2,0.1,0.5,0.1,0.7
		C1111.6,541.2,1111.6,541.3,1111.6,541.4z"/>
	<path class="st5" d="M1078.9,528.5c-4.5,5.6-9.6,12.3-12.1,16.8c-0.2,0.3-0.3,0.6-0.5,0.9c-0.4,0.8-0.7,1.5-0.9,2.2
		c-2,7-24,64-30,67s-73,34-79,43c-4.6,6.8-28.1,48.3-42.7,70.4c-3.2,4.8-5.9,8.7-8,11.2c-0.2,0.2-0.4,0.4-0.5,0.6
		c-0.3,0.4-0.7,0.7-1,1c-0.2,0.1-0.3,0.3-0.4,0.4s-0.3,0.2-0.4,0.3c-3.4,2.5-10.9,9.2-18.8,16c-4.3,3.7-8.7,7.4-12.6,10.6
		c-2.6-0.8-4.3-1.6-4.7-2.6c0,0,0-0.1,0-0.1c-0.1-0.3-0.2-0.6-0.2-0.8c0-0.1,0-0.2-0.1-0.3c0-0.2,0-0.4-0.1-0.6c0-0.1,0-0.2,0-0.3
		v-0.2c0-0.2,0-0.3,0-0.5c0,0,0-0.1,0-0.2c0,0,0-0.1,0-0.2c0-0.2,0.1-0.3,0.1-0.5c0-0.1,0.1-0.2,0.1-0.3c0-0.1,0.1-0.3,0.1-0.4
		c0-0.1,0.1-0.2,0.1-0.3c0.1-0.2,0.1-0.3,0.2-0.5c0,0,0,0,0,0c0-0.1,0.1-0.2,0.2-0.4s0.1-0.2,0.2-0.4c0-0.1,0.1-0.2,0.1-0.2
		c0,0,0.1-0.1,0.1-0.1c0.1-0.2,0.2-0.3,0.3-0.5c0,0,0-0.1,0.1-0.1c0.1-0.1,0.1-0.2,0.2-0.2c0.1-0.1,0.2-0.2,0.3-0.4
		c0.3-0.4,0.6-0.8,1-1.1c0.1,0,0.1-0.1,0.2-0.2c0.7-0.8,1.6-1.6,2.5-2.4c0,0,0,0,0.1-0.1c0.5-0.4,1-0.8,1.5-1.3
		c0.2-0.2,0.5-0.4,0.8-0.6c0.2-0.2,0.5-0.4,0.8-0.6c0.2-0.2,0.5-0.3,0.7-0.5c0.1,0,0.1-0.1,0.2-0.1c0.2-0.2,0.5-0.4,0.8-0.5
		c0.4-0.3,0.8-0.5,1.2-0.8c0.1-0.1,0.1-0.1,0.2-0.2c0.4-0.3,0.8-0.5,1.2-0.8c0.5-0.3,0.9-0.6,1.4-0.9c0.6-0.4,1.2-0.8,1.8-1.1
		c0.7-0.5,1.4-0.9,2.2-1.4c0.8-0.5,1.5-1,2.3-1.5c0.8-0.5,1.7-1.1,2.6-1.6c0,0,0,0,0,0c0.8-0.5,1.6-1,2.5-1.6
		c0.2-0.1,0.4-0.2,0.6-0.4c0.2-0.1,0.4-0.3,0.7-0.5c0.1-0.1,0.2-0.1,0.2-0.2c0.2-0.1,0.4-0.3,0.6-0.4c0.2-0.2,0.4-0.3,0.6-0.5l0,0
		c0.2-0.2,0.4-0.4,0.7-0.6c0,0,0,0,0,0c0.2-0.2,0.5-0.5,0.7-0.7c0.1,0,0.1-0.1,0.2-0.2c0.2-0.2,0.4-0.4,0.5-0.6c0,0,0,0,0.1-0.1
		s0,0,0.1-0.1c0.2-0.2,0.4-0.4,0.6-0.6c0-0.1,0.1-0.1,0.2-0.2c0.2-0.3,0.5-0.6,0.8-0.9c0,0,0-0.1,0.1-0.1c0.3-0.4,0.6-0.7,0.9-1.1
		c0.1-0.2,0.2-0.3,0.4-0.5c0.3-0.3,0.6-0.7,0.8-1.1c0.1-0.1,0.1-0.2,0.2-0.3c0.4-0.5,0.8-1,1.2-1.5c0,0,0-0.1,0.1-0.1
		c0.4-0.6,0.8-1.1,1.2-1.7c0.1-0.1,0.1-0.1,0.2-0.2c0,0,0,0,0,0s0,0,0,0c0.6-0.9,1.3-1.9,2-2.9c0,0,0,0,0.1-0.1c0.3-0.5,0.7-1,1-1.5
		c0.6-0.9,1.1-1.8,1.7-2.7c0,0,0.1-0.1,0.1-0.1c0.4-0.6,0.8-1.2,1.1-1.8c0.8-1.4,1.7-2.7,2.5-4.2c0.4-0.7,0.8-1.4,1.3-2.1
		c0.3-0.5,0.6-1,0.9-1.6c0.9-1.6,1.9-3.3,2.9-5c1.3-2.3,2.6-4.7,3.9-7c0.3-0.6,0.6-1.2,1-1.8c3.9-7.2,7.6-14.5,11-21.2
		c0.5-0.9,0.9-1.7,1.3-2.6c0.3-0.6,0.6-1.2,0.9-1.8c0.1-0.2,0.2-0.4,0.3-0.5c1.4-2.8,2.7-5.5,3.9-7.9c0.3-0.6,0.6-1.2,0.9-1.8
		c0.4-0.8,0.8-1.6,1.2-2.3c0-0.1,0.1-0.2,0.1-0.3c0.1-0.3,0.3-0.6,0.4-0.8c0,0,0,0,0,0c0,0,0,0,0,0c0.2-0.5,0.5-1,0.7-1.5
		c0-0.1,0.1-0.1,0.1-0.2c0.1-0.2,0.2-0.4,0.3-0.6c0,0,0.1-0.1,0.1-0.1c0.2-0.5,0.5-1,0.7-1.4c9-18,54-29,75-37
		c4.4-1.7,8.7-7.3,13.1-15.1c12-21.7,24.2-60.7,39.2-82.5c0,0.1,0,0.2,0.1,0.4c0,0.1,0,0.1,0,0.2c0,0,0,0.1,0,0.1c0,0,0,0.1,0,0.1
		c0,0,0,0.1,0,0.1c0,0,0,0,0,0.1c0,0.2,0.1,0.3,0.1,0.5c0,0,0,0,0,0c0,0,0,0,0,0c0,0.1,0.1,0.2,0.1,0.2c0,0.1,0.1,0.3,0.1,0.4
		c0,0,0,0.1,0.1,0.1c0.1,0.2,0.1,0.3,0.2,0.5c0,0.1,0.1,0.1,0.1,0.2c0.1,0.1,0.1,0.2,0.2,0.3c0,0,0,0.1,0.1,0.1
		c0.1,0.2,0.2,0.3,0.3,0.5c0,0,0,0,0,0.1h0c0.1,0.2,0.2,0.3,0.4,0.5c0.1,0.2,0.3,0.3,0.4,0.5c0.1,0.1,0.3,0.3,0.5,0.5l0,0
		c0.1,0.1,0.3,0.2,0.4,0.4c0,0,0.1,0,0.1,0.1c0,0,0,0,0.1,0.1c0,0,0,0,0,0c0,0,0,0,0.1,0c0.1,0.1,0.2,0.1,0.3,0.2c0,0,0,0,0.1,0.1
		c0,0,0,0,0,0c0.1,0,0.1,0.1,0.1,0.1c0.1,0.1,0.3,0.2,0.4,0.2c0,0,0,0,0.1,0.1c0.1,0,0.1,0.1,0.2,0.1c0.1,0,0.1,0.1,0.2,0.1
		c0.1,0,0.2,0.1,0.2,0.1c0.1,0,0.2,0.1,0.2,0.1c0.1,0.1,0.3,0.1,0.4,0.2c0,0,0,0,0,0l0,0c0.2,0.1,0.3,0.2,0.5,0.2c0,0,0.1,0,0.1,0.1
		c0.2,0.1,0.4,0.2,0.7,0.3C1078.8,528.4,1078.9,528.4,1078.9,528.5C1078.9,528.5,1078.9,528.5,1078.9,528.5z"/>
	<g>
		<path class="st1" d="M1164.7,573.5c-3.9,16.4-4.3,47.8-9.3,62.8c-5.4,16.4-13,60-16.7,86.2c-0.7,5-1.3,9.3-1.7,12.7
			c-0.4,3.4-0.6,5.9-0.6,7.1c0,5.6-6.2,33.6-10.1,51c-2,0.2-4.1,0.4-6.2,0.6c-7.7,0.9-16.4,2-25.6,3c-5.5,0.6-11.2,1.2-16.9,1.6
			c-6.5,0.5-13,0.9-19.3,1c-14.6,0.2-28.4-1-38.8-5.2c-10.7-4.2-18.3-7.1-23.9-9.2c7-7.9,15.2-17.6,18.9-23.8
			c1.2-2.1,3.9-6.8,7.6-13.2c3.7-6.4,8.4-14.6,13.4-23.4c19.1-33.3,44.3-77.1,46.9-80.3c4-5,13-62,14-71c1-8.9,14.6-29.4,15-30
			c0,0.2-0.1,0.3-0.1,0.4c0,0.2-0.1,0.5-0.2,0.7c0,0.2-0.1,0.3-0.1,0.5c-0.1,0.3-0.2,0.6-0.3,1c0,0.1-0.1,0.3-0.1,0.4
			c-0.1,0.3-0.2,0.5-0.3,0.8c0,0.1-0.1,0.2-0.1,0.3c-0.1,0.3-0.2,0.5-0.3,0.8c0,0.1-0.1,0.1-0.1,0.2c-0.1,0.3-0.3,0.5-0.4,0.8
			c0,0.1-0.1,0.2-0.1,0.3c0,0.1-0.1,0.1-0.1,0.2c-0.4,0.8-0.9,1.5-1.4,2.1c-0.1,0.2-0.3,0.4-0.4,0.5c-0.1,0-0.1,0.1-0.1,0.2
			c-0.1,0.1-0.1,0.2-0.2,0.2c-0.1,0.1-0.2,0.2-0.3,0.3c-0.1,0.1-0.1,0.2-0.2,0.2c-1,1.1-1.8,1.9-2.4,2.6c0,0-0.1,0.1-0.1,0.1
			c-0.1,0.1-0.1,0.2-0.2,0.3c0,0,0,0,0,0c0,0.1-0.1,0.1-0.1,0.2c-0.1,0.1-0.1,0.2-0.2,0.3c0,0,0,0.1,0,0.1c0,0,0,0,0,0s0,0.1,0,0.1
			c0,0,0,0,0,0c0,0.1-0.1,0.2-0.1,0.3c0,0,0,0.1,0,0.1c0,0.1,0,0.1,0,0.2c0,0,0,0,0,0.1c0,0.1,0.1,0.3,0.1,0.4
			c0.1,0.1,0.1,0.2,0.2,0.4c0,0,0,0,0,0c0.2,0.3,0.5,0.6,0.9,1c0.1,0.1,0.1,0.1,0.2,0.2c0.1,0.1,0.2,0.2,0.3,0.3c0,0,0,0,0,0
			c0.7,0.5,1.5,1.1,2.6,1.7c0,0,0.1,0,0.1,0.1c0.1,0.1,0.3,0.2,0.4,0.2c0.2,0.1,0.4,0.2,0.6,0.4c0.2,0.1,0.4,0.2,0.7,0.4
			c0.4,0.2,0.8,0.4,1.2,0.7c1,0.6,2.2,1.2,3.5,1.9c0.5,0.3,1,0.5,1.5,0.8c0.1,0,0.1,0.1,0.2,0.1c0.2,0.1,0.3,0.1,0.5,0.2
			c0,0,0.1,0,0.2,0.1c0.5,0.2,0.9,0.4,1.3,0.6c0,0,0.1,0,0.1,0.1c0.2,0.1,0.3,0.1,0.5,0.2c0.2,0.1,0.3,0.1,0.5,0.2
			c0.2,0.1,0.4,0.1,0.6,0.2c0.2,0.1,0.4,0.1,0.6,0.2c0.1,0,0.2,0.1,0.4,0.1c0,0,0.1,0,0.2,0c0.5,0.1,0.9,0.3,1.4,0.4
			c0.2,0.1,0.5,0.1,0.7,0.2c0.3,0.1,0.6,0.1,0.8,0.2c0.5,0.1,1,0.3,1.5,0.4c0,0,0,0,0.1,0c0.1,0,0.1,0,0.2,0
			c0.8,0.2,1.6,0.3,2.4,0.5c0.1,0,0.2,0,0.4,0.1c0.1,0,0.3,0,0.4,0.1c1.6,0.3,3.3,0.5,5,0.7c0.2,0,0.3,0.1,0.5,0.1
			c0.9,0.1,1.7,0.2,2.6,0.3c0,0,0.1,0,0.1,0c0.1,0,0.2,0,0.2,0c0.3,0,0.7,0.1,1.1,0.1c0.3,0,0.7,0.1,1,0.1c0.7,0.1,1.4,0.1,2.1,0.2
			c1.4,0.1,2.9,0.2,4.4,0.3c0.4,0,0.8,0.1,1.2,0.1c2,0.2,4.1,0.3,6.2,0.5c0.3,0,0.6,0.1,0.9,0.1c0.7,0.1,1.5,0.1,2.2,0.2
			c1.3,0.1,2.7,0.3,4,0.4c0.7,0.1,1.3,0.2,2,0.2c0.6,0.1,1.2,0.2,1.8,0.2C1164.4,573.4,1164.5,573.5,1164.7,573.5z"/>
		<path class="st4" d="M1195.9,584.6c-5.6,22.8-8.5,33.7-14.5,47.7s-11,57-16,71c-1.3,3.7-2.6,10.1-3.9,18
			c-3.5,22-6.9,55.8-10.7,77.2c-0.6-0.9-1.2-1.8-1.9-2.6c-0.5-0.6-1-1.1-1.5-1.6c0,0,0,0-0.1-0.1c-1.4-1.2-4.4-1.7-8.6-1.7
			c-3.4,0-7.6,0.3-12.4,0.7c3.9-17.4,10.1-45.4,10.1-51c0-1.2,0.2-3.7,0.6-7.1c0.4-3.4,1-7.7,1.7-12.7c3.7-26.2,11.3-69.9,16.7-86.2
			c5-15,5.4-46.4,9.3-62.8c0.2,0,0.5,0.1,0.7,0.1c0.4,0.1,0.9,0.1,1.3,0.2c0.2,0,0.4,0.1,0.6,0.1c0.4,0.1,0.9,0.1,1.3,0.2
			c0.7,0.1,1.4,0.3,2.2,0.4c0,0,0.1,0,0.1,0c0.1,0,0.2,0,0.2,0h0c1,0.2,2,0.5,3,0.7c0.1,0,0.2,0.1,0.3,0.1c0.1,0,0.1,0,0.2,0
			c0.1,0,0.2,0,0.3,0.1c0.8,0.2,1.7,0.4,2.5,0.7c0,0,0,0,0,0c0.3,0.1,0.6,0.2,0.8,0.2c0.4,0.1,0.8,0.2,1.2,0.4
			c0.1,0,0.2,0.1,0.3,0.1c0.4,0.1,0.8,0.3,1.2,0.4c0.3,0.1,0.5,0.2,0.8,0.3c0.3,0.1,0.6,0.2,0.9,0.3c0.5,0.2,1.1,0.4,1.6,0.6
			c0.1,0,0.2,0.1,0.3,0.1c0.2,0.1,0.3,0.1,0.5,0.2c0.5,0.2,1,0.4,1.5,0.7c0.4,0.2,0.8,0.4,1.3,0.6c0.4,0.2,0.8,0.4,1.2,0.6
			c0.2,0.1,0.4,0.2,0.6,0.3c0.5,0.2,1,0.5,1.5,0.8c0.4,0.2,0.8,0.4,1.2,0.7c0,0,0,0,0.1,0c0.9,0.5,1.7,1,2.6,1.6
			c0.1,0,0.1,0.1,0.2,0.1C1195.6,584.4,1195.8,584.5,1195.9,584.6z"/>
	</g>
	<path class="st6" d="M1613.3,625c-1.4,0.1-2.8,0.2-4.3,0.3c-0.7,0-1.3,0.1-2,0.1c-0.7,0.1-1.5,0.1-2.2,0.2h-0.1
		c-0.4,0-0.8,0.1-1.2,0.1c-0.5,0-0.9,0.1-1.4,0.1c-3,0.2-6.1,0.4-9.3,0.7c-2.1,0.1-4.1,0.3-6.3,0.4c-2.9,0.2-5.9,0.4-8.9,0.6
		c-7.1,0.5-14.6,1-22.2,1.4c-1.5,0.1-3,0.2-4.5,0.3c-1,0.1-2,0.1-3.1,0.2c-1.6,0.1-3.3,0.2-4.9,0.3c-0.4,0-0.8,0-1.2,0.1
		c-7.1,0.4-14.4,0.8-21.7,1.2c-1.9,0.1-3.8,0.2-5.7,0.3c-1.9,0.1-3.8,0.2-5.7,0.3c-1.9,0.1-3.8,0.2-5.7,0.3
		c-3.4,0.2-6.7,0.3-10.1,0.5c-7.3,0.3-14.7,0.6-21.9,0.9c-1.8,0.1-3.6,0.1-5.4,0.2c-2.1,0.1-4.2,0.1-6.4,0.2
		c-1.8,0.1-3.6,0.1-5.3,0.2c-0.5,0-1,0-1.6,0c-4.9,0.1-9.7,0.2-14.4,0.4c-5.3,0.1-10.6,0.2-15.7,0.2c-2.7,0-5.3,0-7.9,0h-5
		c-0.2,0-0.4,0-0.7,0c-0.8,0-1.5,0-2.2,0c-0.5,0-1.1,0-1.6,0c-2.6,0-5.2-0.1-7.8-0.1c-1.7,0-3.4-0.1-5-0.1h-0.2
		c-0.8,0-1.5,0-2.3-0.1c-1.6-0.1-3.2-0.1-4.8-0.2c-0.1,0-0.2,0-0.2,0c-3.7-0.1-7.2-0.3-10.6-0.5c0,0,0,0,0,0
		c-1.5-0.1-2.9-0.2-4.3-0.3c-0.2,0-0.5,0-0.7-0.1c-0.5,0-1-0.1-1.5-0.1c-0.6,0-1.1-0.1-1.7-0.1c-0.5,0-0.9-0.1-1.4-0.1
		c-0.1,0-0.2,0-0.3,0c-1.4-0.1-2.8-0.3-4.2-0.4c-1.9-0.2-3.7-0.4-5.4-0.7c0,0,0,0,0,0c-0.6-0.1-1.1-0.2-1.7-0.2
		c-3.1-0.5-5.8-1-8.2-1.6c-0.1,0-0.3-0.1-0.4-0.1c0,0-0.1,0-0.1,0c-0.3-0.1-0.6-0.2-0.9-0.2c-0.2-0.1-0.5-0.1-0.7-0.2
		c0,0-0.1,0-0.1,0c-0.2-0.1-0.4-0.1-0.6-0.2c-0.1,0-0.2,0-0.3-0.1c-0.1,0-0.3-0.1-0.4-0.1c-0.2-0.1-0.4-0.1-0.6-0.2
		c-0.4-0.1-0.8-0.3-1.2-0.4c-0.2-0.1-0.4-0.2-0.5-0.2c-0.1,0-0.2-0.1-0.2-0.1c-0.1,0-0.2-0.1-0.3-0.1c0,0,0,0-0.1,0
		c-0.1,0-0.2-0.1-0.3-0.1c-0.1,0-0.1-0.1-0.2-0.1c-0.2-0.1-0.3-0.2-0.5-0.2c0,0,0,0,0,0s0,0,0,0c0,0-0.1,0-0.1-0.1c0,0-0.1,0-0.1,0
		c0,0-0.1-0.1-0.1-0.1c0,0,0,0,0,0c0,0,0,0,0,0c-0.1-0.1-0.3-0.2-0.4-0.3c-0.2-0.1-0.3-0.2-0.5-0.3c-0.1,0-0.1-0.1-0.2-0.1
		c-0.1-0.1-0.3-0.2-0.4-0.3c0,0,0,0,0,0c0,0,0,0,0,0c-0.1-0.1-0.2-0.2-0.3-0.3c-0.1-0.1-0.2-0.2-0.3-0.3c-0.1-0.1-0.2-0.2-0.2-0.3
		c0,0,0,0,0,0s0,0,0,0c-0.1-0.1-0.1-0.2-0.2-0.2c0,0,0,0,0-0.1c-0.1-0.2-0.2-0.4-0.3-0.5c0-0.1-0.1-0.1-0.1-0.2
		c0-0.1-0.1-0.1-0.1-0.2c0,0,0,0,0,0c0-0.1,0-0.1,0-0.2c0-0.1,0-0.2,0-0.4c0-0.1,0-0.2,0-0.3c0-0.1,0-0.2,0-0.4c0-0.1,0-0.1,0-0.2
		c0-0.1,0.1-0.3,0.1-0.4c0,0,0-0.1,0-0.1c0.2-0.7,0.4-1.3,0.5-1.9c0-0.1,0-0.1,0.1-0.2v0c0.1-0.3,0.1-0.5,0.2-0.8
		c0-0.1,0.1-0.3,0.1-0.4v0c0,0,0,0,0,0c0,0,0-0.1,0-0.1c0-0.2,0.1-0.4,0.1-0.5c0,0,0,0,0,0c0-0.1,0-0.1,0-0.2s0-0.1,0-0.2
		c0-0.3,0.1-0.5,0.1-0.8c0-0.2,0-0.4,0-0.6c0-0.3,0-0.5,0-0.8c0,0,0,0,0,0c0-0.3,0-0.7,0-1c0-0.1,0-0.1,0-0.2c0-0.1,0-0.1,0-0.2
		c0-0.3-0.1-0.6-0.1-0.8c0-0.1,0-0.2,0-0.4c0-0.3-0.1-0.5-0.2-0.8c0,0,0,0,0,0c0-0.1-0.1-0.3-0.1-0.4c0,0,0-0.1,0-0.1
		c0-0.1,0-0.1-0.1-0.2c-0.1-0.2-0.1-0.4-0.2-0.5c0,0,0,0,0,0c0-0.1,0-0.1-0.1-0.2c-0.1-0.3-0.2-0.6-0.3-0.8c0-0.1-0.1-0.1-0.1-0.2
		c-0.1-0.3-0.3-0.5-0.4-0.8c0,0,0-0.1-0.1-0.1c0,0,0-0.1-0.1-0.1c-0.3-0.5-0.6-0.9-0.9-1.4c0,0,0,0-0.1-0.1c0,0,0,0,0-0.1
		c-0.1-0.2-0.3-0.4-0.4-0.5c0,0,0,0,0-0.1c0,0,0,0,0,0c-0.2-0.2-0.4-0.4-0.6-0.6c-0.2-0.2-0.3-0.3-0.5-0.5c0,0-0.1-0.1-0.1-0.1
		c0,0-0.1-0.1-0.1-0.1c0,0-0.1-0.1-0.1-0.1c-0.1-0.1-0.2-0.1-0.2-0.2c-0.1-0.1-0.2-0.2-0.4-0.3l-0.2-0.2c-0.2-0.1-0.3-0.2-0.5-0.4
		c-0.1-0.1-0.2-0.1-0.2-0.2c-0.1,0-0.1-0.1-0.2-0.1c-0.2-0.1-0.4-0.3-0.6-0.4c-0.3-0.2-0.6-0.4-0.9-0.5c-0.2-0.1-0.4-0.2-0.6-0.3
		c-0.3-0.1-0.6-0.3-0.9-0.4c-0.3-0.2-0.7-0.4-1-0.5c-0.4-0.2-0.8-0.4-1.2-0.5c-0.3-0.1-0.6-0.2-0.9-0.3c-0.3-0.1-0.6-0.2-0.9-0.3
		c-0.1,0-0.2-0.1-0.3-0.1c-0.2-0.1-0.5-0.2-0.7-0.2c-0.1,0-0.2-0.1-0.3-0.1c-0.2-0.1-0.4-0.1-0.6-0.2c-0.5-0.1-1-0.3-1.5-0.4
		c-0.3-0.1-0.6-0.2-1-0.2c-0.5-0.1-0.9-0.2-1.4-0.3c0,0,0,0,0,0c-0.1,0-0.2,0-0.2,0c-0.1,0-0.2,0-0.2-0.1c-0.4-0.1-0.8-0.2-1.2-0.2
		c-0.3-0.1-0.7-0.1-1-0.2c-0.2,0-0.4-0.1-0.6-0.1c-0.4-0.1-0.8-0.1-1.2-0.2c-0.1,0-0.1,0-0.2,0c-0.2,0-0.3,0-0.5-0.1
		c-0.5-0.1-0.9-0.1-1.4-0.2c-0.5-0.1-0.9-0.1-1.4-0.2c-0.3,0-0.6-0.1-0.8-0.1c-1.2-0.1-2.4-0.2-3.6-0.3c-0.6-0.1-1.2-0.1-1.8-0.1
		c-0.9-0.1-1.8-0.1-2.8-0.1c-0.2,0-0.4,0-0.7,0c-0.1,0-0.3,0-0.4,0c-0.2,0-0.5,0-0.7,0c-0.4,0-0.8,0-1.2,0c-0.7,0-1.3,0-2,0
		c-0.2,0-0.3,0-0.5,0c-0.8,0-1.5,0-2.3,0h-0.4c-5.3,0-10.2,0.1-14.3,0.1c-1.2,0-2.4,0-3.6,0c-2.2,0.1-4.4,0.1-6.7,0.3
		c-2.2,0.1-4.5,0.2-6.8,0.3c-1.3,0.1-2.6,0.1-4,0.2c-0.1,0-0.1,0-0.2,0h-0.1c-0.6,0-1.2,0-1.7,0.1h-0.1c-1,0-2,0-3.1,0.1
		c-0.8,0-1.7,0-2.5,0c-0.6,0-1.3,0-1.9,0h-0.5c-0.5,0-1,0-1.5,0c-0.7,0-1.4,0-2.1-0.1c-2-0.1-4-0.2-6-0.3c-1.3-0.1-2.6-0.2-3.9-0.4
		c-0.1,0-0.1,0-0.2,0c-0.1,0-0.1,0-0.1,0c-0.4,0-0.7-0.1-1.1-0.1c-0.4,0-0.8-0.1-1.2-0.1c-0.2,0-0.3,0-0.5-0.1c0,0,0,0,0,0
		c-0.6-0.1-1.2-0.2-1.9-0.3c-0.1,0-0.2,0-0.2,0c-0.2,0-0.5-0.1-0.7-0.1c-1.7-0.3-3.4-0.6-5.1-1c-0.6-0.1-1.1-0.2-1.7-0.4
		c0,0-0.1,0-0.1,0c-0.4-0.1-0.9-0.2-1.3-0.4c-0.5-0.1-1.1-0.3-1.6-0.4c-0.3-0.1-0.6-0.2-0.9-0.2c-0.3-0.1-0.6-0.2-0.9-0.3
		c-0.3-0.1-0.5-0.2-0.8-0.2c-0.5-0.2-1-0.3-1.5-0.5c-0.2-0.1-0.4-0.1-0.5-0.2c0,0,0,0,0,0c-0.3-0.1-0.6-0.2-0.9-0.3
		c-0.6-0.2-1.1-0.4-1.7-0.6c-0.4-0.2-0.9-0.3-1.3-0.5c-0.2-0.1-0.4-0.1-0.5-0.2c-0.2-0.1-0.3-0.1-0.4-0.2c-0.8-0.3-1.5-0.6-2.2-1
		c-0.6-0.3-1.2-0.5-1.7-0.8c-0.2-0.1-0.3-0.2-0.5-0.2c0,0-0.1,0-0.1,0c-0.2-0.1-0.5-0.2-0.7-0.4c-0.1-0.1-0.2-0.1-0.3-0.2
		c-0.3-0.2-0.7-0.4-1-0.6c-0.9-0.5-1.8-1-2.7-1.5c-0.4-0.3-0.9-0.5-1.3-0.8c-0.2-0.1-0.3-0.2-0.5-0.3c-0.1-0.1-0.1-0.1-0.2-0.1
		c-0.1-0.1-0.2-0.1-0.2-0.1c-0.3-0.2-0.6-0.4-0.9-0.6c-0.2-0.1-0.5-0.3-0.7-0.4c-0.1-0.1-0.3-0.2-0.4-0.2c-0.1,0-0.1-0.1-0.2-0.1
		c0,0-0.1,0-0.1-0.1c0,0,0,0,0,0c0,0,0,0,0,0c-0.2-0.1-0.4-0.2-0.6-0.3c0,0,0,0,0,0c-0.2-0.1-0.3-0.2-0.5-0.3
		c-0.3-0.2-0.6-0.3-0.9-0.5c-0.1,0-0.1,0-0.2-0.1c0,0,0,0,0,0c-0.2-0.1-0.3-0.2-0.5-0.2c-0.1,0-0.1-0.1-0.2-0.1
		c-0.1-0.1-0.3-0.1-0.4-0.2c-0.6-0.3-1.2-0.6-1.9-0.9c0,0,0,0,0,0c-0.5-0.2-1-0.5-1.5-0.7c-0.1,0-0.2-0.1-0.2-0.1
		c-0.1-0.1-0.3-0.1-0.4-0.2c-0.1,0-0.1,0-0.2-0.1c-0.2-0.1-0.4-0.2-0.6-0.2c0,0-0.1,0-0.1,0c-0.4-0.2-0.9-0.3-1.3-0.5
		c-0.2-0.1-0.4-0.1-0.5-0.2c-0.1,0-0.1-0.1-0.2-0.1l0,0c0,0,0,0,0,0c-0.2-0.1-0.5-0.2-0.7-0.3c-0.1,0-0.2-0.1-0.3-0.1
		c-0.1,0-0.3-0.1-0.4-0.1c-0.2,0-0.3-0.1-0.5-0.2c-0.1,0-0.2-0.1-0.3-0.1c-0.1,0-0.1,0-0.2-0.1c0,0-0.1,0-0.1,0
		c-0.1,0-0.2,0-0.2-0.1c-0.2-0.1-0.4-0.1-0.6-0.2c-0.1,0-0.1,0-0.2-0.1c-0.1,0-0.2-0.1-0.3-0.1c0,0-0.1,0-0.1,0
		c-0.1,0-0.1,0-0.2-0.1c-0.1,0-0.1,0-0.2-0.1c-0.2,0-0.3-0.1-0.5-0.1c0,0,0,0,0,0c-0.4-0.1-0.9-0.2-1.3-0.4
		c-0.4-0.1-0.8-0.2-1.2-0.3c0,0,0,0-0.1,0c0,0,0,0-0.1,0c-0.1,0-0.1,0-0.1,0c-0.1,0-0.2-0.1-0.3-0.1c-0.1,0-0.1,0-0.2,0
		c-0.3-0.1-0.5-0.1-0.8-0.2c-0.2,0-0.4-0.1-0.6-0.1c-0.3-0.1-0.5-0.1-0.8-0.2l-0.5-0.1c-0.1,0-0.1,0-0.2-0.1h0c-0.1,0-0.2,0-0.2,0
		c-0.1,0-0.3-0.1-0.5-0.1c-0.1,0-0.2,0-0.3-0.1c-0.6-0.1-1.3-0.3-1.9-0.4c-0.3,0-0.6-0.1-0.9-0.1c-0.2,0-0.4-0.1-0.6-0.1
		c-0.3,0-0.5-0.1-0.8-0.1c-0.1,0-0.1,0-0.2,0c0,0-0.1,0-0.1,0c-0.1,0-0.1,0-0.2,0c-0.1,0-0.2,0-0.3,0c-0.2,0-0.3-0.1-0.5-0.1
		c-0.1,0-0.2,0-0.3,0c-0.1,0-0.2,0-0.2,0c-0.9-0.1-1.9-0.3-2.8-0.4c-0.7-0.1-1.4-0.2-2.1-0.2c-0.1,0-0.1,0-0.2,0
		c-0.5,0-1-0.1-1.5-0.1c-0.8-0.1-1.6-0.2-2.4-0.2c-0.4,0-0.7-0.1-1.1-0.1c-0.3,0-0.6,0-0.9-0.1c-2.5-0.2-5-0.4-7.4-0.6
		c-0.6,0-1.2-0.1-1.7-0.1c-0.8-0.1-1.6-0.1-2.4-0.2c-0.1,0-0.2,0-0.3,0c-0.5,0-1.1-0.1-1.6-0.1c-0.5,0-1-0.1-1.5-0.1
		c-0.4,0-0.7-0.1-1.1-0.1c-0.1,0-0.2,0-0.3,0c-0.3,0-0.6-0.1-1-0.1c-0.6-0.1-1.1-0.1-1.7-0.2c-0.2,0-0.3,0-0.5-0.1
		c-0.6-0.1-1.3-0.1-1.9-0.2c-0.2,0-0.4-0.1-0.7-0.1h0c-0.8-0.1-1.6-0.3-2.4-0.4c-0.2,0-0.5-0.1-0.8-0.1c-0.8-0.2-1.6-0.3-2.5-0.5
		c-0.1,0-0.2,0-0.2-0.1c-0.5-0.1-1-0.2-1.5-0.4c-1-0.3-2-0.5-2.9-0.8c-0.1,0-0.1,0-0.2,0c-0.1,0-0.2-0.1-0.4-0.1
		c-0.6-0.2-1.1-0.4-1.6-0.6c-0.2-0.1-0.3-0.1-0.5-0.2c-0.5-0.2-1.1-0.4-1.6-0.7c-0.2-0.1-0.3-0.1-0.5-0.2c-0.1,0-0.1-0.1-0.2-0.1
		c-0.5-0.2-1-0.5-1.5-0.8c-0.7-0.4-1.3-0.7-1.9-1c-0.5-0.3-1-0.5-1.4-0.8c-0.3-0.1-0.5-0.3-0.8-0.4c-0.4-0.2-0.8-0.4-1.1-0.6
		c-0.3-0.1-0.5-0.3-0.7-0.4c-0.1-0.1-0.3-0.2-0.4-0.2c-0.3-0.2-0.6-0.4-0.9-0.5c-0.2-0.2-0.4-0.3-0.6-0.4c-0.5-0.3-0.8-0.6-1.2-0.8
		c0,0,0,0,0,0c-0.1-0.1-0.2-0.2-0.3-0.3c-0.2-0.2-0.4-0.3-0.6-0.5c-0.1-0.1-0.2-0.2-0.3-0.4c-0.1-0.1-0.2-0.2-0.2-0.3c0,0,0,0,0,0
		c-0.1-0.1-0.2-0.3-0.2-0.4c0-0.1-0.1-0.1-0.1-0.2c0,0,0,0,0-0.1c0-0.1,0-0.1,0-0.2c0-0.1,0-0.1,0-0.1v-0.1c0,0,0-0.1,0-0.1
		c0-0.1,0-0.2,0.1-0.3c0,0,0,0,0-0.1c0,0,0-0.1,0-0.1c0,0,0-0.1,0.1-0.1c0-0.1,0.1-0.2,0.1-0.2c0,0,0,0,0-0.1c0-0.1,0.1-0.1,0.1-0.2
		c0.1-0.1,0.1-0.2,0.2-0.3c0,0,0.1-0.1,0.1-0.1c0.6-0.7,1.4-1.5,2.4-2.6c0.1-0.1,0.1-0.2,0.2-0.2c0.1-0.1,0.2-0.2,0.2-0.3
		c0,0,0,0,0.1-0.1c0.1-0.1,0.1-0.2,0.2-0.2c0-0.1,0.1-0.1,0.1-0.2c0.1-0.2,0.3-0.4,0.4-0.5c0.1-0.1,0.1-0.2,0.2-0.2
		c0.1-0.1,0.1-0.2,0.2-0.2c0.1-0.1,0.2-0.2,0.2-0.3c0-0.1,0.1-0.1,0.1-0.2c0.1-0.2,0.2-0.3,0.3-0.5c0.1-0.2,0.2-0.4,0.3-0.6
		c0.1-0.1,0.2-0.3,0.2-0.4c0.1-0.1,0.1-0.2,0.2-0.3c0.1-0.1,0.1-0.2,0.2-0.4c0,0,0-0.1,0-0.1c0-0.1,0.1-0.1,0.1-0.2
		c0.1-0.3,0.2-0.5,0.3-0.8c0.1-0.1,0.1-0.2,0.1-0.3c0,0,0-0.1,0.1-0.1c0.1-0.1,0.1-0.3,0.2-0.4c0-0.1,0-0.2,0.1-0.2
		c0.1-0.1,0.1-0.3,0.1-0.4c0,0,0,0,0-0.1c0.1-0.3,0.2-0.5,0.2-0.8c0,0,0-0.1,0-0.1c0-0.1,0.1-0.3,0.1-0.5c0.1-0.2,0.1-0.4,0.2-0.7
		c0-0.2,0.1-0.3,0.1-0.4c0,0,0,0,0,0c0,0,0-0.1,0-0.1c0-0.1,0-0.2,0.1-0.3c0-0.1,0-0.2,0-0.3c0-0.1,0-0.1,0-0.2c0,0,0,0,0,0
		c0-0.1,0-0.1,0-0.2c0-0.1,0-0.2,0-0.3c0,0,0-0.1,0-0.1c0-0.1,0-0.1,0-0.2v-0.1c0,0,0-0.1,0-0.1c0,0,0,0,0,0c0-0.1,0-0.1,0-0.2v0
		c0-0.1,0-0.1,0-0.2l0-0.2c0,0,0-0.1,0-0.1c0,0,0,0,0,0c0,0,0,0,0,0v0c0,0,0,0,0,0c0,0,0,0,0-0.1c0,0,0,0,0-0.1c0,0,0-0.1,0-0.1
		c0-0.1,0-0.1,0-0.1c0,0,0-0.1,0-0.1c0,0,0-0.1,0-0.1c0,0,0,0,0,0c0,0,0,0,0,0c0,0,0-0.1,0-0.1c0,0,0-0.1,0-0.1c0,0,0-0.1,0-0.1
		c-0.1-0.2-0.1-0.3-0.2-0.5c0,0,0,0,0-0.1s0,0,0-0.1s0,0,0-0.1c0,0,0,0,0,0v0c0,0,0,0,0,0c0,0,0,0,0,0c0,0,0,0,0,0c0,0,0,0,0,0
		c-0.1-0.1-0.1-0.2-0.2-0.4c0,0,0,0,0,0c0,0,0-0.1-0.1-0.1c0,0,0,0,0-0.1c0,0,0,0,0,0c0,0,0,0,0,0c-0.1-0.1-0.1-0.2-0.2-0.2
		c-0.1-0.1-0.1-0.1-0.2-0.2c0,0,0,0,0,0c0,0-0.1-0.1-0.1-0.1l0,0c-0.2-0.2-0.3-0.3-0.5-0.5c0,0,0,0,0-0.1c0,0-0.1,0-0.1-0.1
		c-0.1-0.1-0.2-0.1-0.2-0.2c0,0,0,0,0,0c-0.1-0.1-0.2-0.1-0.3-0.2c0,0-0.1-0.1-0.1-0.1l-0.6-0.4c-0.1-0.1-0.2-0.1-0.3-0.2l-0.5-0.3
		c0,0,0,0-0.1,0c0,0-0.1,0-0.1,0c0,0,0,0,0,0c-0.1,0-0.1-0.1-0.2-0.1c-0.2-0.1-0.4-0.2-0.7-0.3c0,0-0.1,0-0.1-0.1c0,0,0,0-0.1,0
		c0,0-0.1,0-0.1,0c0,0-0.1,0-0.1-0.1c0,0,0,0,0,0c-0.3-0.1-0.6-0.2-0.9-0.4c0,0,0,0,0,0c-0.1,0-0.2-0.1-0.4-0.1
		c-0.3-0.1-0.6-0.2-1-0.3c-0.1,0-0.2-0.1-0.3-0.1c-0.1,0-0.2-0.1-0.2-0.1c-0.2,0-0.3-0.1-0.5-0.1c-0.2-0.1-0.3-0.1-0.5-0.1
		c-0.3-0.1-0.5-0.1-0.8-0.2c-0.1,0-0.1,0-0.2,0c0,0-0.1,0-0.2,0c0,0-0.1,0-0.1,0c-0.3-0.1-0.5-0.1-0.8-0.2c-0.3-0.1-0.6-0.1-0.9-0.2
		c-0.5-0.1-1-0.2-1.5-0.3c-0.4-0.1-0.8-0.2-1.3-0.2c0,0-0.1,0-0.1,0c-0.3-0.1-0.6-0.1-0.9-0.2c0,0-0.1,0-0.1,0c-0.1,0-0.1,0-0.2,0
		c-0.4-0.1-0.9-0.1-1.3-0.2c-0.1,0-0.1,0-0.2,0c-0.1,0-0.2,0-0.3,0c0,0,0,0,0,0c0,0-0.1,0-0.1,0c-0.2,0-0.5-0.1-0.7-0.1
		c-0.3-0.1-0.7-0.1-1-0.2c0,0,0,0-0.1,0c-0.2,0-0.4-0.1-0.6-0.1c-0.4-0.1-0.8-0.1-1.3-0.2h0c-0.3,0-0.5-0.1-0.8-0.1c0,0-0.1,0-0.1,0
		c-0.4-0.1-0.9-0.2-1.3-0.2c0,0-0.1,0-0.1,0c-0.5-0.1-1-0.2-1.5-0.3c-0.5-0.1-0.9-0.2-1.4-0.3c0,0-0.1,0-0.1,0
		c-0.3-0.1-0.7-0.2-1-0.3c-0.3-0.1-0.6-0.1-0.8-0.2c-0.2-0.1-0.4-0.1-0.7-0.2c-0.1,0-0.2,0-0.2-0.1c-0.2,0-0.3-0.1-0.4-0.1
		c-0.1,0-0.3-0.1-0.4-0.1c-0.2-0.1-0.4-0.1-0.6-0.2c-0.2-0.1-0.4-0.1-0.6-0.2c-0.1,0-0.2-0.1-0.3-0.1c0,0-0.1,0-0.1-0.1c0,0,0,0,0,0
		c0,0-0.1,0-0.1-0.1c-0.2-0.1-0.5-0.2-0.7-0.3c0,0-0.1,0-0.1-0.1c-0.2-0.1-0.4-0.2-0.5-0.2l0,0c0,0,0,0,0,0
		c-0.4-0.2-0.8-0.4-1.1-0.6c-0.1,0-0.1-0.1-0.2-0.1c0,0-0.1,0-0.1-0.1c0,0-0.1,0-0.1,0c-0.2-0.1-0.3-0.2-0.5-0.3c0,0,0,0,0,0
		c0,0-0.1,0-0.1-0.1c-0.1-0.1-0.2-0.1-0.3-0.2c0,0,0,0-0.1,0c0,0,0,0,0,0c0,0,0,0-0.1-0.1c0,0-0.1,0-0.1-0.1
		c-0.1-0.1-0.3-0.2-0.4-0.4l0,0c-0.1-0.1-0.3-0.2-0.4-0.4c0,0-0.1-0.1-0.1-0.1c0,0,0,0-0.1-0.1c-0.1-0.1-0.3-0.3-0.4-0.4
		c-0.1-0.1-0.2-0.3-0.4-0.5h0c0,0,0,0,0-0.1c-0.1-0.2-0.2-0.3-0.3-0.5c0,0,0-0.1-0.1-0.1c-0.1-0.2-0.2-0.3-0.3-0.5
		c-0.1-0.1-0.2-0.3-0.2-0.5c0,0,0-0.1-0.1-0.1c-0.1-0.1-0.1-0.3-0.1-0.4c0-0.1,0-0.1-0.1-0.2c0,0,0,0,0,0c0,0,0,0,0,0
		c0-0.1-0.1-0.3-0.1-0.5c0,0,0,0,0-0.1c0,0,0-0.1,0-0.1c0,0,0-0.1,0-0.1c0,0,0-0.1,0-0.1c0,0,0-0.1,0-0.2c0-0.1,0-0.2-0.1-0.4
		c0.1-0.2,0.3-0.4,0.4-0.6c0.2-0.2,0.3-0.4,0.4-0.6c0.3-0.4,0.5-0.7,0.8-1.1c0.1-0.2,0.2-0.3,0.3-0.5c0.4-0.5,0.8-1,1.2-1.5
		c0-0.1,0.1-0.1,0.1-0.2c0.3-0.4,0.7-0.8,1-1.2c0.1-0.2,0.3-0.3,0.4-0.5c0.3-0.3,0.5-0.6,0.8-0.9c0.2-0.2,0.3-0.3,0.4-0.5
		c0.2-0.3,0.5-0.5,0.8-0.8c0.2-0.1,0.3-0.3,0.5-0.5c0.3-0.3,0.5-0.5,0.8-0.8c0.1-0.1,0.3-0.3,0.4-0.4c0.3-0.3,0.6-0.6,0.9-0.8
		c0.1-0.1,0.2-0.2,0.3-0.2c0.4-0.3,0.8-0.7,1.2-1c0.1-0.1,0.2-0.2,0.3-0.2c0.3-0.2,0.6-0.4,0.9-0.6c0.1-0.1,0.3-0.2,0.4-0.3
		c0.3-0.2,0.5-0.3,0.8-0.5c0.2-0.1,0.3-0.2,0.5-0.3c0.3-0.1,0.5-0.3,0.8-0.4c0.2-0.1,0.3-0.2,0.5-0.2c0.3-0.1,0.6-0.2,0.9-0.4
		c0.1-0.1,0.3-0.1,0.4-0.2c0.4-0.1,0.9-0.3,1.3-0.4c30-8,132-19,162-18s133-21,175-24c19.1-1.4,58.4,0.6,95.7,3.1
		c44.7,3,86.3,6.9,86.3,6.9L1613.3,625z"/>
	<path class="st1" d="M1301.7,596.5c-5.3,24.7-21.7,74.6-23.2,95.8c-0.3,4.5-2.3,12.4-5.5,22.6c-11.3,36.2-37.1,100.7-51.5,136.2
		c-1-0.9-2-1.7-3.1-2.5c-1.1-0.9-2.1-1.7-3.2-2.5c-9.6-7.5-19.1-13.6-26.6-16.9c-4-1.8-7.5-2.8-10.2-2.8
		c-18.1,0-21.3-17.7-27.6-27.8c3.8-21.4,7.2-55.2,10.7-77.2c1.3-7.9,2.6-14.3,3.9-18c5-14,10-57,16-71s8.9-24.9,14.5-47.7
		c0.4,0.3,0.9,0.6,1.3,0.8c0.9,0.5,1.8,1,2.7,1.5c0.3,0.2,0.7,0.4,1,0.6c0.1,0.1,0.2,0.1,0.3,0.2c0.2,0.1,0.5,0.2,0.7,0.4
		c0,0,0.1,0,0.1,0c0.2,0.1,0.3,0.2,0.5,0.2c0.6,0.3,1.2,0.6,1.7,0.8c0.7,0.3,1.5,0.7,2.2,1c0.1,0.1,0.3,0.1,0.4,0.2
		c0.2,0.1,0.3,0.2,0.5,0.2c0.4,0.2,0.8,0.3,1.3,0.5c0.6,0.2,1.1,0.4,1.7,0.6c0.3,0.1,0.6,0.2,0.9,0.3c0,0,0,0,0.1,0
		c0.2,0.1,0.3,0.1,0.5,0.2c0.2,0.1,0.4,0.1,0.6,0.2c0.3,0.1,0.6,0.2,0.9,0.3c0.3,0.1,0.5,0.2,0.8,0.2c0.1,0,0.3,0.1,0.4,0.1
		c0.4,0.1,0.9,0.3,1.3,0.4c0.5,0.1,1.1,0.3,1.6,0.4c0.4,0.1,0.9,0.2,1.3,0.4c0,0,0.1,0,0.1,0c0.7,0.2,1.3,0.3,2,0.5
		c0.7,0.2,1.5,0.3,2.2,0.5c0.5,0.1,0.9,0.2,1.4,0.3c0.4,0.1,0.8,0.1,1.2,0.2c0.2,0,0.5,0.1,0.7,0.1c0.2,0,0.3,0.1,0.5,0.1
		c0.1,0,0.2,0,0.2,0c0.5,0.1,0.9,0.1,1.4,0.2c0,0,0,0,0,0c0.2,0,0.3,0,0.4,0.1c0.4,0,0.8,0.1,1.2,0.1c0.4,0.1,0.7,0.1,1.1,0.1
		c0.1,0,0.1,0,0.1,0c0.1,0,0.1,0,0.2,0c1.3,0.1,2.6,0.3,3.9,0.4c0.1,0,0.3,0,0.4,0c0.6,0,1.2,0.1,1.8,0.1c0.9,0,1.8,0.1,2.6,0.1
		c0.4,0,0.7,0,1.1,0c0.7,0,1.4,0,2.1,0.1c0.2,0,0.5,0,0.7,0c0.3,0,0.5,0,0.8,0h0.5c0.4,0,0.9,0,1.3,0c0.2,0,0.4,0,0.6,0
		c0.8,0,1.7,0,2.5,0c1,0,2.1,0,3.1-0.1h0.1c0.6,0,1.2,0,1.7-0.1h0.1c0.1,0,0.1,0,0.2,0c1.3,0,2.7-0.1,4-0.2c0.5,0,1,0,1.5-0.1
		c5.7-0.3,10.9-0.6,15.7-0.6c4.1,0,9-0.1,14.3-0.1c0.9,0,1.8,0,2.7,0c0.2,0,0.3,0,0.5,0c0.7,0,1.3,0,2,0c0.4,0,0.8,0,1.2,0
		c0.2,0,0.5,0,0.7,0c0.1,0,0.3,0,0.4,0c0.2,0,0.4,0,0.7,0C1299.8,596.4,1300.7,596.4,1301.7,596.5z"/>
	<path class="st1" d="M283.5,660.6c0.2,1.4,0.2,3.3,0.1,5.6c-0.2,4.9-0.8,11.5-1.6,17.7c-1,7.9-2.2,15.4-2.6,18.3
		c-0.7,3.9,1.1,14.5,2.5,22c-2.6,3.5-2.8,9.4-12.9,10.1c-13.5,1-51.8,6.4-75.8,8.3c-14.2,1.1-28.4,2.9-42.5,4.9
		c-9.4,1.3-22.2-0.7-31.7,2.8c-1.9-10.6-4.5-25.6-6.7-37.9c-1.9-10.4-3.5-19-4.2-21.6c-0.3-1.2-0.6-4-0.8-8
		c-1.2-19-1.9-64.5-2.2-84.3c5-0.4,9.7-0.9,14.6-1.2c0,0,0.1,0,0.1,0c0.5,0,0.9-0.1,1.4-0.1c0.3,0,0.5,0,0.8,0c0.4,0,0.7,0,1.1-0.1
		c0.4,0,0.8,0,1.2-0.1c0.3,0,0.6,0,0.8-0.1c0.6,0,1.1,0,1.7-0.1c0.1,0,0.3,0,0.4,0c1.5-0.1,3-0.1,4.6-0.1c0,0,0.1,0,0.1,0
		c0.7,0,1.5,0,2.2,0h0.3c0.7,0,1.5,0,2.2,0h0.2c10.9,0,23.7,0.6,40.9,2.7c22,2.7,46.4,7.3,66.6,9.4c8,0.8,15.4,1.3,21.7,1.1
		c7.9-0.3,14.1-1.6,17.8-4.5c0.1-0.1,0.3-0.2,0.4-0.3c0.2-0.1,0.3-0.3,0.5-0.4c0,0,0,0,0,0c0.1,0,0.1-0.1,0.2-0.1
		C284.4,621,282.7,654.2,283.5,660.6z"/>
	<path class="st1" d="M106.9,760.3c-0.9,0.7-1.8,1.3-3,1.6c-2,0.6-4.1,0.1-6.2-0.2c-6.8-1.1-13.9-1.2-20.6,0.7
		c-11.9,3.3-14.1,12.6-22.6,18.8c-0.2,0.2-0.5,0.3-0.7,0.5c-6.4,4.2-16.4,4.6-23.7,5.2C29,787,19.4,787.3,9,787.6
		c-8.2,0.2-16.9,0.4-22.6,0.3c-3.7-0.1-6-0.3-6-0.6c0,0-1-26.6-2.2-60.1c-0.2-4.2-0.3-8.6-0.5-13c-2-55-4.4-121-4.4-121
		s0.1,0,0.2,0.1l1.8,21.6c0,0,4.2,0.4,11,1.1c20.6,2,65,5.9,85.3,5.1c0.2,0,0.4,0,0.6,0c0.6,0,1.1-0.1,1.6-0.2h0
		c0.2,0,0.4-0.1,0.5-0.1c0.1,0,0.1,0,0.2,0c0.1,0,0.2,0,0.4-0.1c0.1,0,0.2,0,0.3-0.1c0.2,0,0.4-0.1,0.6-0.2c0.1,0,0.3-0.1,0.4-0.1
		c0.1,0,0.1,0,0.2-0.1c0.1,0,0.2-0.1,0.2-0.1c0,0,0,0,0.1,0c0,0,0.1,0,0.1-0.1c0.1,0,0.2-0.1,0.4-0.2c0.2-0.1,0.3-0.2,0.5-0.2
		c0.2-0.1,0.3-0.2,0.5-0.2c0.1-0.1,0.2-0.2,0.4-0.2c0.1,0,0.1-0.1,0.2-0.1c0,0,0.1-0.1,0.1-0.1c0,0,0.1-0.1,0.1-0.1c0,0,0,0,0,0
		c0.5-0.4,1-0.9,1.4-1.3c1,5.5,2,11.9,3.1,18.5c0.4,2.8,0.9,5.7,1.3,8.7c0.1,0.8,0.2,1.5,0.3,2.2c0.2,1.5,0.4,3,0.7,4.5
		c0.4,2.3,0.7,4.7,1,7c0.3,1.9,0.6,3.9,0.8,5.8c0.6,3.8,1.1,7.5,1.6,10.9c0.2,1.3,0.4,2.6,0.6,3.9c0.3,1.9,0.6,3.7,0.8,5.4
		c1.1,6.6,2,11.8,2.8,14.6c0.4,1.4,0.9,3.5,1.5,5.9c0.8,3.3,1.7,7.3,2.7,11.8C100.8,730.5,104.5,748.4,106.9,760.3z"/>
	<path class="st1" d="M360.6,699.3c-1.9,0.3-3.8,0.8-5.3,1.3c-0.3,0.1-0.5,0.2-0.8,0.3c-0.6,0.2-1.1,0.5-1.6,0.8
		c-0.3-4.2-0.9-4.8-2-8.9c-0.2-0.9-0.4-4.5-0.6-9.6c-0.1-2.5-0.2-5.3-0.3-8.4c-0.6-20.8-1.1-52.2-1.1-53.6c0-2.1,3.1-16.6,3.1-18.7
		c0-2.1,1-8.3,1-8.3s0,0-0.1,0c0,0,0,0,0,0c0,0,0-0.1,0-0.1c0,0,0-0.1,0-0.1c0,0,0-0.1,0-0.1c0,0,0,0,0,0v0c0,0,0-0.1,0-0.1v-0.1
		c0,0,0,0,0-0.1c0-0.1,0-0.1,0-0.2c0,0,0-0.1,0-0.1c0,0,0-0.1,0-0.1c0,0,0,0,0,0v0c0,0,0,0,0-0.1c0,0,0,0,0,0v0
		c0-0.1-0.1-0.2-0.1-0.3c0-0.1-0.1-0.2-0.1-0.3c0,0,0,0,0,0c0-0.1-0.1-0.1-0.1-0.2c0-0.1-0.1-0.2-0.2-0.3c0-0.1-0.1-0.1-0.1-0.2
		c0,0,0,0,0,0c0,0,0,0,0,0c-0.1-0.1-0.1-0.2-0.2-0.3c-0.1-0.1-0.1-0.2-0.2-0.3c-0.1-0.1-0.1-0.1-0.2-0.2c0,0,0-0.1-0.1-0.1
		c0-0.1-0.1-0.1-0.1-0.2c-0.1-0.1-0.2-0.2-0.3-0.3c-0.1-0.1-0.2-0.2-0.3-0.3c0,0-0.1,0-0.1-0.1c-0.1,0-0.1-0.1-0.2-0.1
		c0,0-0.1-0.1-0.2-0.1c-0.1-0.1-0.2-0.2-0.3-0.2c-0.1-0.1-0.2-0.2-0.3-0.3c0,0-0.1-0.1-0.1-0.1l-0.1-0.1c0,0-0.1-0.1-0.1-0.1
		c0,0,0,0,0,0c-0.1-0.1-0.2-0.2-0.3-0.2c0,0,0,0-0.1,0c0,0,0,0,0,0c0,0-0.1,0-0.1-0.1c0,0-0.1-0.1-0.1-0.1c0,0,0,0,0,0
		c-0.2-0.1-0.3-0.2-0.5-0.4c-0.2-0.1-0.3-0.2-0.5-0.4c0,0,0,0,0,0c0,0-0.1,0-0.1-0.1l0,0c0,0,0,0-0.1-0.1c-0.2-0.2-0.5-0.4-0.8-0.5
		c0,0,0,0-0.1-0.1c-0.1,0-0.1-0.1-0.2-0.1c0,0,0,0,0,0c-0.1,0-0.2-0.1-0.2-0.1c-0.1,0-0.1-0.1-0.2-0.1c0,0-0.1-0.1-0.1-0.1
		c0,0,0,0-0.1-0.1c0,0-0.1-0.1-0.2-0.1c-0.1-0.1-0.3-0.2-0.4-0.3c0,0,0,0,0,0c-0.2-0.1-0.3-0.2-0.5-0.3c-0.1,0-0.1-0.1-0.2-0.1h0
		c0,0,0,0,0,0s0,0,0,0c0,0,0,0,0,0c0,0,0,0,0,0c0,0,0,0,0,0c0,0-0.1,0-0.1-0.1c-0.2-0.1-0.3-0.2-0.5-0.3c-0.1,0-0.1-0.1-0.2-0.1
		c-0.1,0-0.1-0.1-0.2-0.1s-0.1-0.1-0.2-0.1c0,0-0.1,0-0.1-0.1c-0.2-0.1-0.4-0.2-0.5-0.3c0,0-0.1-0.1-0.2-0.1c0,0,0,0-0.1,0
		c-0.1,0-0.1-0.1-0.2-0.1c-0.1-0.1-0.1-0.1-0.2-0.1s-0.2-0.1-0.3-0.1c0,0,0,0,0,0s0,0,0,0c0,0,0,0,0,0c-0.1,0-0.2-0.1-0.2-0.1
		c0,0,0,0-0.1,0c-0.2-0.1-0.5-0.3-0.7-0.4c-0.1,0-0.2-0.1-0.3-0.1v0c-0.1,0-0.2-0.1-0.3-0.1c0,0-0.1-0.1-0.2-0.1
		c-0.1-0.1-0.2-0.1-0.4-0.2c-0.1-0.1-0.2-0.1-0.3-0.1c0,0,0,0,0,0c0,0,0,0-0.1,0c-0.4-3.7-1.1-8.2-1.1-10c0-2,1.3-8,2.2-11.9
		c0,0,0,0,0,0c0,0,0,0,0,0c0,0,0,0,0,0c0.1,0,0.2,0,0.2,0c0.1,0,0.1,0,0.2,0c0,0,0.1,0,0.2,0c0.1,0,0.2,0,0.3-0.1
		c0.2,0,0.4-0.1,0.6-0.1c0.2,0,0.3-0.1,0.5-0.1c0.1,0,0.2,0,0.3-0.1c0.2,0,0.4-0.1,0.6-0.1c0,0,0,0,0,0c0.2,0,0.4-0.1,0.7-0.1
		c0.4-0.1,0.8-0.1,1.2-0.2c0.1,0,0.2,0,0.4,0c0,0,0.1,0,0.1,0c0.3,0,0.5-0.1,0.8-0.1c0,0,0.1,0,0.2,0c0,0,0.1,0,0.1,0
		c0.1,0,0.2,0,0.3,0l0.2,0c0.2,0,0.5-0.1,0.8-0.1c0,0,0,0,0,0c0.3,0,0.6-0.1,0.8-0.1c0.2,0,0.4-0.1,0.7-0.1h0c0.3,0,0.6-0.1,0.9-0.1
		c0.3,0,0.5-0.1,0.8-0.1c0.1,0,0.1,0,0.2,0c0,0,0.1,0,0.1,0c0.2,0,0.4,0,0.5-0.1h0c0.1,0,0.3,0,0.4,0c0.4,0,0.8-0.1,1.3-0.1
		c0.3,0,0.7-0.1,1-0.1c0.3,0,0.6-0.1,0.9-0.1c0.4,0,0.9-0.1,1.3-0.1c0.2,0,0.3,0,0.5-0.1h0.1c0.2,0,0.3,0,0.4,0c0.3,0,0.7-0.1,1-0.1
		c0.6-0.1,1.1-0.1,1.7-0.2c0.2,0,0.4,0,0.5-0.1c0,0,0,0,0.1,0h0.1c0.4,0,0.7-0.1,1.1-0.1c0.1,0,0.2,0,0.3,0c0.1,0,0.2,0,0.3,0
		c0,0,0.1,0,0.1,0c0,0,0.1,0,0.2,0c0.3,0,0.5,0,0.8-0.1c0.3,0,0.6-0.1,0.9-0.1c1.2-0.1,2.4-0.2,3.6-0.4c0.4,0,0.7-0.1,1-0.1
		c0.2,0,0.5,0,0.7-0.1c0,0,0,0,0,0c0.3,0,0.5-0.1,0.8-0.1c0.2,0,0.4,0,0.6-0.1c0.1,0,0.3,0,0.4,0c0.2,0,0.3,0,0.5-0.1
		c0.2,0,0.4,0,0.6-0.1c0.3,0,0.6-0.1,1-0.1c0.4,0,0.8-0.1,1.3-0.1c0,0,0,0,0.1,0c0.1,0,0.2,0,0.4,0c0,0,0.1,0,0.2,0
		c0.1,0,0.2,0,0.2,0c0.1,0,0.3,0,0.4,0c0.4,0,0.8-0.1,1.2-0.2c0.1,0,0.2,0,0.2,0c0.2,0,0.4,0,0.5-0.1h0c0.2,0,0.4-0.1,0.6-0.1
		c0,0,0,0,0.1,0c0.2,0,0.4-0.1,0.6-0.1c0,0,0,0,0,0c0,0,0.1,0,0.1,0c0,0,0,0,0,0c0.1,0,0.2,0,0.2,0c0.1,0,0.3,0,0.4-0.1
		c0.2,0,0.4-0.1,0.6-0.1c0,0,0.1,0,0.1,0c0.2,0,0.4-0.1,0.6-0.1c0.2,0,0.4-0.1,0.6-0.1c0.2,0,0.3-0.1,0.5-0.1c0,0,0,0,0.1,0
		c0,0,0.1,0,0.1,0c0,0,0.1,0,0.1,0c0.1,0,0.2,0,0.3-0.1l0,0c0,0,0,0,0.1,0c0.1,0,0.2,0,0.2-0.1c0.1,0,0.2,0,0.2,0
		c0.1,0,0.2,0,0.3-0.1c0,0,0.1,0,0.1,0c0.1,0,0.1,0,0.2,0c0,0,0.1,0,0.1,0c0,0,0.1,0,0.1,0c0.1,0,0.2,0,0.2-0.1c0.1,0,0.2,0,0.3-0.1
		c0.1,0,0.1,0,0.2,0h0c0,0,0,0,0,0s0,0,0,0s0,0,0,0c0.1,0,0.2,0,0.3-0.1c0.1,0,0.2,0,0.2-0.1c0.3-0.1,0.6-0.2,0.9-0.3c0,0,0,0,0.1,0
		c0,0,0,0,0.1,0c0,0,0.1,0,0.1,0c0.1,0,0.2-0.1,0.3-0.1c0,0,0,0,0,0c0,0,0,0,0,0c0,0,0.1,0,0.1,0c0,0,0,0,0,0c0,0,0,0,0,0
		c0,0,0,0,0,0c0.1,0,0.1,0,0.1-0.1c0,0,0.1,0,0.1,0c0,0,0,0,0,0c0,0,0.1,0,0.1-0.1c0,0,0.1,0,0.1,0c0,0,0,0,0,0c0,0,0,0,0,0
		c0,0,0,0,0.1,0c0,0,0,0,0.1-0.1c0.1-0.1,0.2-0.1,0.2-0.2c0,0,0.1,0,0.1-0.1c0,0,0,0,0,0c0,0,0.1-0.1,0.1-0.1c0,0,0,0,0,0
		c0,0,0,0,0-0.1c0,0,0,0,0-0.1c0,0,0,0,0,0c0-0.1,0.1-0.2,0.1-0.3c13.1,19.6-61.6,103.6-11,129.9c1.5,0.8,3,1.6,4.3,2.3c0,0,0,0,0,0
		c3.7,2,6.6,3.7,8.9,5.1C414,703.6,379.8,696.2,360.6,699.3z"/>
	<path class="st1" d="M337.5,632.6c-0.6,3.2-1.3,9.1-1.9,15.9c-0.7,6.8-1.4,14.7-2,21.9c-0.4,4.4-0.8,8.5-1.1,12.1
		c-0.5,5.5-0.9,9.6-1.2,11.2c-0.8,4.5-2,19-2.7,26.9c-9.9,2.5-26.2,2-30.5,1.1c-2.3-0.5-3.6-0.8-4.9-0.9l0.8-30.3c0,0,0.1-3,0.2-7.5
		c0.1-2.4,0.1-5.2,0.2-8.3c0-3,0.1-6.3,0.1-9.5c0.1-9.8,0-19.4-0.4-22.5c-0.7-5.2,2.8-29.4,4.8-42.8c0.2,0,0.4,0,0.6-0.1
		c0.3,0,0.5-0.1,0.8-0.1c0,0,0,0,0.1,0c0.1,0,0.2,0,0.3,0c0.4,0,0.9-0.1,1.3-0.1c0.1,0,0.1,0,0.2,0c0.1,0,0.3,0,0.4,0
		c0.2,0,0.3,0,0.5,0c0.2,0,0.5,0,0.7-0.1c0.1,0,0.1,0,0.2,0c0.2,0,0.4,0,0.5,0c0.2,0,0.5,0,0.7-0.1c0.1,0,0.3,0,0.4,0
		c0.3,0,0.6,0,0.9-0.1c0,0,0.1,0,0.1,0c0.3,0,0.7,0,1-0.1c0.6,0,1.2-0.1,1.8-0.1c0.2,0,0.5,0,0.7,0c0.2,0,0.3,0,0.4,0
		c0.3,0,0.6,0,1,0c0.3,0,0.5,0,0.8,0c0.2,0,0.4,0,0.6,0c0.2,0,0.5,0,0.8,0c0.2,0,0.5,0,0.7,0c0,0,0.1,0,0.1,0c0.4,0,0.8,0,1.2,0
		c0.3,0,0.7,0,1,0c0.2,0,0.5,0,0.7,0c5.9-0.2,11.8-0.3,17.1-0.5c0.7,0,1.3-0.1,2-0.1c0.3,0,0.5,0,0.8-0.1c0.3,0,0.7,0,1-0.1
		c0.3,0,0.6,0,1-0.1C339.4,608.2,339,624.7,337.5,632.6z"/>
	<path class="st4" d="M119,750.3c-2.8,1-5.3,2.6-7.4,4.8c-1.6,1.7-3,3.8-4.8,5.2c-2.3-12-6-29.8-9.1-43.6
		c-1.7-7.9-3.3-14.4-4.2-17.7c-0.8-2.8-1.7-8-2.8-14.6c-2.9-18.2-6.7-47.4-10.2-66.8c0.1-0.2,0.2-0.4,0.4-0.5
		c0.1-0.1,0.1-0.2,0.2-0.3c0.1-0.1,0.2-0.3,0.3-0.5c0.1-0.2,0.2-0.4,0.3-0.5c0.1-0.1,0.1-0.2,0.2-0.3c0.1-0.2,0.2-0.5,0.3-0.8
		c0-0.1,0.1-0.1,0.1-0.2c0.1-0.3,0.2-0.5,0.3-0.8c0-0.1,0-0.2,0.1-0.2c0,0,0-0.1,0.1-0.1c0,0,0,0,0-0.1c0.6-2,1-4.2,1.6-6.2v0
		c0.1-0.3,0.2-0.6,0.3-0.9c0-0.1,0.1-0.2,0.1-0.3l0.1-0.4c0.1-0.2,0.2-0.4,0.2-0.6c0-0.1,0.1-0.2,0.1-0.3c0.1-0.2,0.2-0.3,0.2-0.5
		c0.1-0.1,0.1-0.2,0.2-0.3c0.1-0.2,0.2-0.4,0.3-0.5c0.1-0.1,0.1-0.2,0.1-0.2c0.1-0.2,0.3-0.4,0.5-0.6c0-0.1,0.1-0.1,0.1-0.2
		c0.2-0.2,0.3-0.4,0.5-0.5c0,0,0.1,0,0.1-0.1c0.2-0.2,0.4-0.4,0.6-0.5c0,0,0.1-0.1,0.2-0.1c0.2-0.2,0.5-0.3,0.7-0.5
		c0,0,0.1,0,0.1-0.1c0.6-0.3,1.2-0.5,1.9-0.7c0,0,0.1,0,0.1,0c0.4-0.1,0.7-0.2,1.1-0.2c0,0,0.1,0,0.1,0c0.4-0.1,0.9-0.1,1.3-0.1
		c2-0.1,3.9-0.3,5.8-0.4c0.2,0,0.3,0,0.5,0c0.4,0,0.9-0.1,1.3-0.1c1.3-0.1,2.7-0.2,4-0.3c0.3,19.8,1,65.3,2.2,84.3
		c0.2,4,0.5,6.8,0.8,8c0.7,2.7,2.3,11.2,4.2,21.6C114.5,724.7,117.2,739.7,119,750.3z"/>
	<path class="st4" d="M293.9,643c0.5,3.2,0.5,12.8,0.4,22.5c-0.1,6.4-0.2,13-0.3,17.8c-0.1,4.5-0.2,7.5-0.2,7.5l-0.8,30.3
		c-1.7-0.1-3.5,0.1-7.5,0.9c-0.4,0.1-0.8,0.2-1.2,0.4c-1.1,0.4-1.8,1.1-2.5,2c-1.4-7.5-3.2-18.2-2.5-22c0.5-2.9,1.6-10.3,2.6-18.3
		c0.8-6.2,1.5-12.8,1.6-17.7c0.1-2.3,0-4.2-0.1-5.6c-0.8-6.4,0.9-39.6,1.2-56.2c0.2-0.2,0.4-0.4,0.6-0.5c0.1-0.1,0.2-0.1,0.3-0.2
		c0.2-0.1,0.5-0.3,0.7-0.5c0.1,0,0.2-0.1,0.3-0.1c0.3-0.2,0.7-0.3,1-0.5c0,0,0.1,0,0.1-0.1c0.4-0.2,0.9-0.4,1.4-0.5
		c0.1,0,0.1,0,0.2,0c0.1,0,0.2-0.1,0.2-0.1c0.3-0.1,0.6-0.2,0.9-0.3c0.2-0.1,0.5-0.1,0.7-0.2c0.1,0,0.1,0,0.2-0.1
		c0.2,0,0.4-0.1,0.5-0.1c0,0,0,0,0,0c0.4-0.1,0.9-0.2,1.3-0.3c0.2,0,0.5-0.1,0.7-0.1c0.1,0,0.2,0,0.3-0.1c0.6-0.1,1.3-0.2,2-0.3
		c0.1,0,0.2,0,0.2,0c0.1,0,0.1,0,0.2,0c0.4-0.1,0.9-0.1,1.3-0.2c0.3,0,0.5-0.1,0.8-0.1C296.7,613.6,293.2,637.8,293.9,643z"/>
	<path class="st5" d="M351,692.8c1,4.2,1.6,4.7,2,8.9c-0.1,0.1-0.2,0.1-0.3,0.2c-0.6,0.4-1.2,0.8-1.7,1.3c-0.2,0.2-0.5,0.5-0.7,0.7
		c-5.6,5.7-9.8,11.3-16.9,15.1c-0.2,0.1-0.3,0.2-0.5,0.3c-1.2,0.6-2.7,1.1-4.3,1.5c0.7-7.9,1.9-22.5,2.7-26.9
		c0.3-1.6,0.7-5.8,1.2-11.2c0.3-3.6,0.7-7.8,1.1-12.1c1.3-14.5,2.8-31.4,4-37.9c1.5-7.9,1.9-24.4,1.7-34.4c0.1,0,0.2,0,0.3,0
		c0.1,0,0.1,0,0.2,0c0.2,0,0.3,0,0.5,0c0.4,0,0.9-0.1,1.3-0.1c0.2,0,0.5,0,0.8-0.1c0,0,0,0,0.1,0c0.5,0,0.9-0.1,1.3-0.2
		c0.4,0,0.8-0.1,1.1-0.1c0.5-0.1,1-0.1,1.4-0.2c0,0,0.1,0,0.2,0c0,0,0,0,0,0c0,0,0.1,0,0.1,0c0.5-0.1,1-0.2,1.4-0.3c0,0,0.1,0,0.1,0
		c0,0,0,0,0,0c0,0,0,0,0,0c0,0,0.1,0,0.1,0c0,0,0.1,0,0.1,0c0.1,0,0.1,0,0.2,0c0.1,0,0.3-0.1,0.4-0.1c0,0,0.1,0,0.1,0
		c0.1,0,0.2-0.1,0.3-0.1c0.2-0.1,0.4-0.1,0.6-0.2c0.1,0,0.2-0.1,0.3-0.1c0.2-0.1,0.3-0.2,0.5-0.2c0,0,0,0,0.1,0c0,0,0.1,0,0.1-0.1
		c0.2-0.1,0.4-0.2,0.6-0.3c0,0,0.1,0,0.1-0.1c0,0,0,0,0,0c0.2-0.1,0.3-0.2,0.4-0.3c0,0,0-0.1,0.1-0.1c0,0,0.1-0.1,0.1-0.1
		c0,0,0.1-0.1,0.1-0.1c0,0,0.1-0.1,0.1-0.1c0,0,0-0.1,0.1-0.1c0,0,0,0,0,0c0,0,0,0,0.1-0.1c0,0,0,0,0-0.1c0,0,0,0,0-0.1c0,0,0,0,0,0
		c0,0,0,0,0,0c0.1-0.1,0.1-0.2,0.1-0.2c0-0.1,0.1-0.1,0.1-0.2c0,0,0,0,0,0c0,0,0-0.1,0-0.1c0,0,0.1,0,0.1,0s-1,6.2-1,8.3
		c0,2.1-3.1,16.6-3.1,18.7c0,1.4,0.5,32.8,1.1,53.6c0.1,3.1,0.2,5.9,0.3,8.4C350.6,688.3,350.8,691.9,351,692.8z"/>
	<path class="st6" d="M390,552.5c0,0.1-0.1,0.2-0.1,0.3c0,0,0,0,0,0c0,0,0,0,0,0.1c0,0,0,0,0,0.1c0,0,0,0,0,0c0,0-0.1,0.1-0.1,0.1v0
		c0,0,0,0,0,0c0,0,0,0,0,0c0,0,0,0-0.1,0.1c-0.1,0.1-0.1,0.1-0.2,0.2c0,0-0.1,0-0.1,0.1c0,0,0,0-0.1,0c0,0,0,0,0,0c0,0-0.1,0-0.1,0
		c0,0-0.1,0-0.1,0.1c0,0,0,0,0,0c0,0,0,0,0,0c0,0,0,0,0,0c0,0,0,0,0,0c0,0-0.1,0-0.1,0.1c0,0,0,0,0,0c0,0,0,0,0,0c0,0,0,0,0,0
		c0,0-0.1,0-0.1,0c0,0,0,0,0,0c0,0,0,0,0,0c-0.1,0-0.2,0.1-0.3,0.1c0,0-0.1,0-0.1,0c0,0,0,0,0,0c0,0,0,0,0,0c0,0,0,0-0.1,0
		c-0.3,0.1-0.6,0.2-0.9,0.3c-0.1,0-0.2,0.1-0.3,0.1c-0.1,0-0.1,0-0.2,0.1c0,0,0,0,0,0c0,0,0,0,0,0h0c0,0,0,0-0.1,0
		c-0.1,0-0.2,0.1-0.4,0.1c0,0,0,0,0,0c-0.1,0-0.2,0-0.2,0.1c0,0-0.1,0-0.1,0c0,0,0,0,0,0c0,0,0,0,0,0c0,0,0,0,0,0
		c-0.1,0-0.1,0-0.2,0c0,0,0,0-0.1,0c0,0,0,0,0,0c-0.1,0-0.1,0-0.2,0c-0.1,0-0.1,0-0.2,0.1c0,0,0,0,0,0c-0.1,0-0.2,0-0.2,0.1
		c0,0,0,0-0.1,0c-0.1,0-0.1,0-0.2,0.1c0,0-0.1,0-0.1,0c0,0-0.1,0-0.1,0c0,0,0,0,0,0c0,0,0,0,0,0c0,0,0,0,0,0c0,0,0,0-0.1,0
		c0,0,0,0,0,0c0,0,0,0-0.1,0c0,0-0.1,0-0.1,0c0,0-0.1,0-0.1,0c-0.3,0-0.6,0.1-0.9,0.2c-0.2,0-0.4,0.1-0.6,0.1c0,0,0,0,0,0h0
		c0,0,0,0,0,0c0,0-0.1,0-0.1,0c-0.2,0-0.3,0.1-0.5,0.1c0,0-0.1,0-0.1,0c0,0-0.1,0-0.1,0h0c-0.1,0-0.1,0-0.2,0c0,0,0,0-0.1,0
		c0,0,0,0-0.1,0c0,0,0,0,0,0c0,0,0,0,0,0c0,0-0.1,0-0.1,0c0,0,0,0,0,0c-0.2,0-0.4,0.1-0.6,0.1c0,0,0,0-0.1,0c-0.1,0-0.2,0-0.3,0
		c-0.1,0-0.2,0-0.3,0c0,0,0,0,0,0c-0.2,0-0.4,0-0.5,0.1c0,0-0.1,0-0.1,0c0,0,0,0,0,0c0,0-0.1,0-0.1,0c-0.1,0-0.2,0-0.4,0.1
		c-0.1,0-0.1,0-0.2,0c-0.1,0-0.1,0-0.2,0c-0.1,0-0.3,0-0.4,0.1c-0.1,0-0.2,0-0.4,0c-0.1,0-0.1,0-0.2,0c0,0-0.1,0-0.1,0
		c0,0-0.1,0-0.2,0c-0.1,0-0.1,0-0.2,0c0,0,0,0-0.1,0c-0.3,0-0.5,0.1-0.8,0.1c-0.1,0-0.1,0-0.1,0c-0.1,0-0.2,0-0.3,0
		c-0.1,0-0.1,0-0.2,0c-0.1,0-0.1,0-0.2,0c-0.1,0-0.3,0-0.4,0c-0.3,0-0.5,0.1-0.8,0.1c0,0-0.1,0-0.1,0c-0.2,0-0.5,0-0.7,0.1
		c-0.2,0-0.4,0-0.6,0.1c-0.3,0-0.5,0.1-0.8,0.1h0v0c-0.2,0-0.5,0-0.7,0.1c-0.4,0-0.7,0.1-1,0.1c-0.3,0-0.6,0.1-0.9,0.1
		c-0.3,0-0.6,0.1-0.9,0.1c0,0-0.1,0-0.1,0c-0.6,0.1-1.2,0.1-1.8,0.2c0,0-0.1,0-0.1,0c-0.5,0.1-1.1,0.1-1.6,0.2c-0.1,0-0.1,0-0.2,0h0
		c-0.1,0-0.2,0-0.2,0c-0.1,0-0.2,0-0.3,0c-0.1,0-0.1,0-0.2,0c-0.2,0-0.3,0-0.5,0c-0.2,0-0.4,0.1-0.6,0.1c0,0,0,0,0,0
		c0,0-0.1,0-0.1,0c-0.2,0-0.4,0-0.5,0.1c-0.6,0.1-1.1,0.1-1.7,0.2h0c0,0,0,0,0,0c0,0-0.1,0-0.1,0c-0.1,0-0.3,0-0.4,0.1
		c-0.1,0-0.3,0-0.4,0h-0.1c-0.1,0-0.3,0-0.4,0c-0.2,0-0.3,0-0.5,0.1c-0.4,0-0.8,0.1-1.2,0.1c0,0,0,0-0.1,0c-0.1,0-0.2,0-0.3,0
		c0,0,0,0,0,0c0,0-0.1,0-0.1,0c-0.1,0-0.1,0-0.2,0c-0.1,0-0.3,0-0.4,0c-0.4,0-0.7,0.1-1,0.1c-0.4,0-0.8,0.1-1.3,0.1
		c-0.1,0-0.1,0-0.2,0c0,0,0,0-0.1,0c-0.1,0-0.1,0-0.2,0h0c-0.2,0-0.3,0-0.5,0.1c0,0-0.1,0-0.1,0c-0.1,0-0.1,0-0.2,0
		c-0.3,0-0.5,0.1-0.8,0.1c-0.3,0-0.6,0.1-0.9,0.1h0c-0.2,0-0.4,0.1-0.7,0.1c-0.3,0-0.6,0.1-0.9,0.1h0c-0.2,0-0.5,0.1-0.8,0.1
		c0,0,0,0-0.1,0c-0.1,0-0.2,0-0.4,0c0,0,0,0,0,0c0,0-0.1,0-0.1,0c0,0-0.1,0-0.1,0c-0.1,0-0.2,0-0.3,0c-0.2,0-0.4,0.1-0.6,0.1
		c-0.1,0-0.2,0-0.4,0c-0.4,0.1-0.8,0.1-1.2,0.2c-0.2,0-0.4,0.1-0.7,0.1c0,0,0,0,0,0h-0.1c0,0-0.1,0-0.1,0h0c-0.1,0-0.1,0-0.2,0
		c0,0-0.1,0-0.1,0c0,0-0.1,0-0.1,0c-0.1,0-0.2,0-0.4,0.1c-0.2,0-0.3,0.1-0.5,0.1c-0.1,0-0.3,0-0.4,0.1c-0.1,0-0.1,0-0.2,0
		c-0.1,0-0.1,0-0.2,0c-0.2,0-0.3,0.1-0.5,0.1c0,0-0.1,0-0.1,0c-0.1,0-0.2,0-0.2,0c0,0,0,0,0,0c0,0,0,0,0,0h0c-0.2,0-0.4,0.1-0.5,0.1
		c-0.2,0-0.3,0.1-0.5,0.1c-0.2,0-0.3,0.1-0.5,0.1l0,0c-0.1,0-0.1,0-0.2,0c-0.1,0-0.1,0-0.2,0c-0.1,0-0.3,0-0.4,0.1c0,0,0,0,0,0h0
		c-0.2,0-0.5,0.1-0.7,0.1c0,0-0.1,0-0.1,0c-0.2,0-0.5,0.1-0.7,0.1c-0.2,0.1-0.5,0.1-0.7,0.2c0,0-0.1,0-0.1,0c0,0,0,0-0.1,0
		c0,0-0.1,0-0.1,0c-0.1,0-0.2,0-0.2,0c-0.2,0-0.3,0.1-0.5,0.1c0,0-0.1,0-0.1,0c-0.2,0-0.4,0.1-0.6,0.1c0,0,0,0,0,0h0
		c-0.1,0-0.2,0.1-0.4,0.1c-0.2,0.1-0.3,0.1-0.5,0.1c-0.1,0-0.1,0-0.1,0c0,0-0.1,0-0.1,0l-0.2,0.1c0,0-0.1,0-0.1,0c0,0-0.1,0-0.1,0
		c-0.1,0-0.2,0-0.3,0.1c0,0-0.1,0-0.1,0c-0.3,0.1-0.5,0.2-0.8,0.2c0,0,0,0,0,0c-0.1,0-0.1,0-0.2,0.1c-0.1,0-0.2,0.1-0.3,0.1
		c0,0,0,0,0,0c-0.1,0-0.1,0.1-0.2,0.1c-0.1,0-0.2,0.1-0.4,0.1c-0.1,0-0.1,0-0.2,0.1c0,0-0.1,0-0.1,0c-0.3,0.1-0.6,0.2-1,0.4
		c-0.1,0-0.1,0.1-0.2,0.1c0,0,0,0,0,0c0,0-0.1,0-0.1,0c0,0-0.1,0-0.1,0c-0.3,0.1-0.5,0.2-0.8,0.3c0,0-0.1,0-0.1,0.1c0,0,0,0,0,0
		c0,0,0,0-0.1,0c0,0,0,0,0,0c-0.2,0.1-0.4,0.2-0.6,0.3c-0.1,0-0.1,0.1-0.2,0.1c0,0,0,0,0,0c0,0-0.1,0-0.1,0.1c0,0-0.1,0-0.1,0.1
		c-0.1,0-0.2,0.1-0.3,0.2c-0.1,0.1-0.3,0.1-0.4,0.2c0,0,0,0,0,0c0,0,0,0,0,0c0,0,0,0,0,0c0,0,0,0,0,0c-0.2,0.1-0.3,0.2-0.5,0.3
		c0,0,0,0,0,0c0,0,0,0-0.1,0c0,0-0.1,0-0.1,0.1c0,0,0,0,0,0c0,0-0.1,0-0.1,0.1c-0.1,0.1-0.3,0.2-0.4,0.3c0,0-0.1,0-0.1,0.1
		c0,0,0,0,0,0c0,0,0,0,0,0c0,0-0.1,0-0.1,0.1c-0.2,0.2-0.3,0.4-0.5,0.5c0,0-0.1,0.1-0.1,0.2c-0.1,0.1-0.1,0.2-0.2,0.3c0,0,0,0,0,0
		c0,0,0,0.1-0.1,0.1c0,0,0,0,0,0c0,0.1-0.1,0.1-0.1,0.2c0,0,0,0.1,0,0.1c0,0,0,0,0,0c0,0,0,0.1-0.1,0.1c0,0,0,0,0,0.1
		c0,0,0,0.1-0.1,0.1c0,0,0,0,0,0l0,0c0,0,0,0,0,0c0,0.1,0,0.1-0.1,0.1v0c0,0,0,0.1,0,0.2c0,0,0,0,0,0c0,0,0,0.1,0,0.1
		c0,0.1,0,0.1-0.1,0.2v0.1c0,0.1,0,0.1,0,0.2c0,0.1,0,0.1,0,0.2s0,0.1,0,0.2c0,0.1,0,0.2,0,0.3c0,0,0,0.1,0,0.1c0,0.1,0,0.1,0,0.2
		c0,0,0,0.1,0,0.1c0,0,0,0,0,0c0,0.1,0,0.2,0.1,0.3c0,0.1,0.1,0.2,0.1,0.3c0,0.1,0,0.1,0.1,0.2c0,0,0,0,0,0c0,0,0,0,0,0.1
		c0,0,0,0.1,0,0.1v0c0,0,0,0,0,0c0,0.1,0.1,0.1,0.1,0.2c0,0,0,0,0,0.1c0.1,0.1,0.1,0.2,0.2,0.4c0,0,0,0,0,0.1c0,0,0,0,0,0h0v0
		c0,0,0,0,0,0h0c0,0,0,0,0,0c0,0.1,0.1,0.2,0.2,0.3c0.1,0.1,0.2,0.3,0.3,0.5l0,0c0,0,0,0,0,0c0,0,0.1,0.1,0.1,0.1
		c0,0,0.1,0.1,0.1,0.2c0,0,0.1,0.1,0.1,0.1c0.1,0.1,0.3,0.3,0.4,0.4c0,0.1,0.1,0.1,0.2,0.2l0.1,0.1c0,0,0.1,0,0.1,0.1l0,0
		c0.1,0,0.1,0.1,0.1,0.1c0,0.1,0.1,0.1,0.1,0.1s0.1,0.1,0.1,0.1s0.1,0.1,0.1,0.1c0,0,0.1,0.1,0.1,0.1c0,0,0,0,0,0c0,0,0,0,0,0
		c0,0,0,0,0,0s0,0,0,0c0,0,0,0,0.1,0.1c0,0,0,0,0,0c0,0,0,0,0,0c0,0,0,0,0,0c0,0,0,0,0.1,0.1l0,0c0,0,0,0,0,0
		c0.1,0.1,0.2,0.1,0.2,0.2c0,0,0,0,0.1,0c0,0,0,0,0.1,0.1c0,0,0.1,0.1,0.1,0.1c0,0,0.1,0.1,0.1,0.1c0,0,0,0,0.1,0l0,0c0,0,0,0,0,0
		c0,0,0,0,0.1,0c0,0,0,0,0,0c0.1,0.1,0.1,0.1,0.2,0.2h0c0,0,0,0,0,0l0,0h0c0,0,0.1,0.1,0.1,0.1c0,0,0.1,0.1,0.1,0.1
		c0.1,0.1,0.2,0.1,0.2,0.2c0,0,0,0,0.1,0c0,0,0,0,0,0c0,0,0,0,0,0c0,0,0,0,0,0c0,0,0.1,0,0.1,0.1c0.2,0.1,0.3,0.2,0.5,0.4
		c0.1,0.1,0.2,0.1,0.3,0.2c0.1,0.1,0.2,0.1,0.3,0.2c0.1,0.1,0.2,0.1,0.3,0.2c0.5,0.3,1,0.6,1.5,1c0,0,0.1,0.1,0.1,0.1
		c0.1,0,0.1,0.1,0.2,0.1c0.2,0.1,0.4,0.2,0.6,0.4h0c0.1,0,0.1,0.1,0.2,0.1c0,0,0,0,0,0c0,0,0,0,0.1,0c0.2,0.1,0.3,0.2,0.5,0.3
		c0.2,0.1,0.4,0.2,0.5,0.3c0.2,0.1,0.4,0.2,0.5,0.3c0,0,0,0,0.1,0.1c0.1,0,0.1,0.1,0.2,0.1c0,0,0.1,0.1,0.1,0.1
		c0.1,0.1,0.2,0.1,0.3,0.2c0,0,0,0,0,0c0,0,0,0,0,0c0.2,0.1,0.3,0.2,0.5,0.3c0,0,0,0,0.1,0c0,0,0.1,0,0.1,0c0,0,0,0,0,0l0,0
		c0,0,0,0,0,0c0.1,0,0.1,0,0.1,0.1c0,0,0.1,0,0.1,0.1c0.1,0,0.2,0.1,0.2,0.1c0,0,0,0,0.1,0c0,0,0,0,0,0c0.1,0,0.1,0.1,0.2,0.1
		c0.1,0,0.1,0.1,0.2,0.1c0.4,0.2,0.8,0.4,1.2,0.6c0.1,0.1,0.2,0.1,0.4,0.2c0.2,0.1,0.3,0.2,0.5,0.3c0,0,0.1,0,0.1,0.1l0.1,0.1
		c0,0,0.1,0,0.1,0c0,0,0,0,0,0c0,0,0,0,0.1,0c0.1,0,0.1,0.1,0.2,0.1c0,0,0,0,0.1,0c0,0,0.1,0.1,0.2,0.1c0,0,0,0,0,0
		c0.1,0,0.1,0.1,0.2,0.1c0,0,0,0,0,0c0,0,0,0,0,0h0c0,0,0,0,0,0c0,0,0,0,0,0c0,0,0,0,0,0c0,0,0,0,0.1,0c0,0,0,0,0,0l0,0
		c0,0,0,0,0.1,0c0.1,0,0.1,0,0.1,0.1c0,0,0,0,0,0c0.2,0.1,0.3,0.2,0.5,0.3c0,0,0,0,0.1,0c0,0,0.1,0,0.1,0.1c0,0,0.1,0,0.1,0
		c0,0,0.1,0,0.1,0.1c0.1,0,0.2,0.1,0.3,0.1c0.2,0.1,0.5,0.3,0.7,0.4c0,0,0,0,0.1,0c0.1,0.1,0.2,0.1,0.2,0.1c0,0,0,0,0,0c0,0,0,0,0,0
		c0,0,0.1,0.1,0.1,0.1c0.1,0,0.1,0,0.1,0.1c0.1,0,0.1,0.1,0.2,0.1c0.1,0,0.1,0.1,0.2,0.1c0,0,0,0,0.1,0c0,0,0.1,0.1,0.1,0.1
		c0.1,0,0.1,0.1,0.2,0.1c0.1,0,0.1,0.1,0.2,0.1c0,0,0.1,0.1,0.1,0.1c0,0,0.1,0.1,0.1,0.1c0.1,0,0.1,0.1,0.2,0.1
		c0.1,0,0.1,0.1,0.2,0.1v0c0,0,0,0,0,0c0,0,0.1,0.1,0.1,0.1c0.2,0.1,0.3,0.2,0.5,0.3c0,0,0.1,0,0.1,0.1c0,0,0,0,0,0c0,0,0,0,0,0
		c0,0,0,0,0,0c0,0,0,0,0,0c0,0,0,0,0,0h0c0,0,0,0,0.1,0.1c0,0,0.1,0.1,0.1,0.1c0,0,0,0,0,0c0.2,0.1,0.3,0.2,0.5,0.3
		c0,0,0.1,0,0.1,0.1c0.1,0.1,0.2,0.1,0.3,0.2c0.1,0,0.1,0.1,0.2,0.1c0,0,0.1,0,0.1,0.1c0,0,0.1,0.1,0.1,0.1c0.1,0,0.1,0.1,0.2,0.1
		c0.1,0,0.1,0.1,0.2,0.1c0,0,0,0,0,0c0.1,0,0.1,0.1,0.2,0.1c0,0,0,0,0.1,0.1c0.3,0.2,0.5,0.4,0.8,0.5c0,0,0.1,0,0.1,0.1l0,0
		c0,0,0.1,0,0.1,0.1c0,0,0,0,0.1,0c0.2,0.1,0.3,0.2,0.5,0.4c0.2,0.1,0.3,0.2,0.5,0.4c0,0,0,0,0,0c0.1,0,0.1,0.1,0.2,0.1c0,0,0,0,0,0
		c0,0,0,0,0,0c0,0,0,0,0.1,0c0.1,0.1,0.2,0.2,0.3,0.2c0,0,0,0,0,0c0,0,0.1,0.1,0.1,0.1c0,0,0,0,0.1,0c0,0,0,0,0.1,0.1l0,0
		c0,0,0,0,0,0c0.1,0.1,0.2,0.2,0.3,0.2c0.1,0.1,0.2,0.2,0.3,0.3c0.1,0,0.1,0.1,0.2,0.1c0,0.1,0.1,0.1,0.1,0.1c0,0,0,0,0.1,0.1
		c0.1,0.1,0.2,0.2,0.3,0.3c0.1,0.1,0.2,0.2,0.3,0.3c0.1,0.1,0.1,0.1,0.2,0.2c0,0,0,0,0.1,0.1c0.1,0.1,0.1,0.1,0.2,0.2
		c0,0,0.1,0.1,0.1,0.1c0,0.1,0.1,0.1,0.1,0.2c0.1,0.1,0.1,0.2,0.2,0.3c0,0,0,0,0,0c0,0,0,0,0,0c0,0.1,0.1,0.1,0.1,0.2v0
		c0,0.1,0.1,0.1,0.1,0.1c0,0.1,0.1,0.1,0.1,0.2c0,0.1,0.1,0.1,0.1,0.2c0,0,0,0,0,0v0c0.1,0.1,0.1,0.2,0.1,0.3c0,0.1,0.1,0.2,0.1,0.3
		v0c0,0,0,0.1,0,0.1c0,0,0,0,0,0c0,0,0,0.1,0,0.1c0,0,0,0.1,0,0.1c0,0.1,0,0.2,0,0.2c0,0,0,0,0,0.1c0,0,0,0,0,0.1c0,0,0,0.1,0,0.1v0
		c0,0,0,0,0,0v0c0,0,0,0,0,0.1c0,0,0,0.1,0,0.1c0,0,0,0.1,0,0.1c0,0,0,0.1,0,0.1c0,0,0,0,0,0c0,0,0,0,0,0v0c0,0,0,0,0,0.1v0
		c0,0,0,0,0,0.1c0,0.1-0.1,0.2-0.1,0.3c0,0,0,0,0,0v0h0c0,0,0,0,0,0c0,0,0,0,0,0l0,0c0,0,0,0,0,0c0,0,0,0,0,0c0,0,0,0,0,0h0
		c0,0,0,0,0,0c0,0,0,0,0,0c0,0,0,0,0,0c0,0,0,0.1-0.1,0.1v0l-0.1,0.1l0,0c0,0-0.1,0.1-0.1,0.1c0,0,0,0,0,0c0,0,0,0.1-0.1,0.1
		c0,0,0,0-0.1,0.1c0,0,0,0,0,0c-0.1,0.1-0.3,0.2-0.4,0.3c0,0,0,0,0,0c0,0-0.1,0-0.1,0.1c0,0-0.1,0.1-0.2,0.1
		c-0.1,0.1-0.3,0.1-0.4,0.2c0,0,0,0-0.1,0c0,0,0,0,0,0c0,0,0,0-0.1,0c0,0-0.1,0-0.1,0c-0.2,0.1-0.3,0.1-0.5,0.2c0,0-0.1,0-0.1,0.1
		c0,0-0.1,0-0.1,0c-0.1,0-0.2,0.1-0.3,0.1c-0.1,0-0.2,0.1-0.3,0.1c0,0-0.1,0-0.1,0c0,0-0.1,0-0.1,0c0,0,0,0,0,0
		c-0.1,0-0.1,0-0.2,0.1c-0.1,0-0.1,0-0.2,0c-0.1,0-0.1,0-0.2,0c0,0-0.1,0-0.1,0c0,0-0.1,0-0.1,0c0,0,0,0-0.1,0c0,0,0,0-0.1,0
		c0,0,0,0-0.1,0c0,0,0,0,0,0h0c0,0-0.1,0-0.1,0c0,0,0,0,0,0c-0.1,0-0.2,0-0.3,0.1c-0.1,0-0.1,0-0.2,0c-0.2,0-0.4,0.1-0.5,0.1
		c-0.1,0-0.2,0-0.2,0c-0.1,0-0.1,0-0.1,0c0,0-0.1,0-0.1,0c0,0,0,0,0,0c-0.1,0-0.1,0-0.2,0c-0.2,0-0.5,0.1-0.7,0.1c0,0-0.1,0-0.1,0
		c-0.2,0-0.4,0.1-0.6,0.1c-0.6,0.1-1.3,0.2-2,0.2c-0.2,0-0.4,0-0.5,0.1c0,0,0,0,0,0c0,0,0,0,0,0c-0.2,0-0.5,0-0.8,0.1
		c-0.1,0-0.2,0-0.4,0h-0.1c0,0,0,0,0,0c-0.1,0-0.2,0-0.4,0c-0.1,0-0.2,0-0.3,0c0,0-0.1,0-0.1,0h0c0,0,0,0,0,0h0c0,0,0,0,0,0h0
		c0,0,0,0,0,0l0,0c0,0,0,0,0,0c0,0,0,0,0,0H340c0,0,0,0,0,0h-0.1c-0.1,0-0.2,0-0.3,0h-0.1c-0.1,0-0.2,0-0.3,0c-0.3,0-0.6,0-1,0.1
		c-0.3,0-0.6,0-0.9,0.1c-0.2,0-0.3,0-0.5,0h-0.1c-0.2,0-0.4,0-0.5,0c-0.1,0-0.2,0-0.2,0c-0.4,0-0.9,0-1.3,0.1c-0.1,0-0.1,0-0.2,0h0
		c-0.1,0-0.3,0-0.5,0c-0.2,0-0.3,0-0.5,0c-0.4,0-0.7,0-1.1,0c0,0,0,0,0,0h-0.1c-0.8,0-1.7,0.1-2.5,0.1c-0.1,0-0.2,0-0.2,0h-0.1
		c-0.7,0-1.4,0-2.1,0.1h-0.1c-0.9,0-1.8,0-2.7,0.1c-0.2,0-0.4,0-0.7,0c-0.4,0-0.8,0-1.3,0c-0.1,0-0.2,0-0.3,0c-0.3,0-0.6,0-0.9,0
		c-0.4,0-0.8,0-1.2,0c-0.8,0-1.6,0-2.4,0.1c-0.2,0-0.4,0-0.6,0c-0.1,0-0.2,0-0.2,0c-0.2,0-0.3,0-0.5,0c-0.3,0-0.7,0-1,0
		c-0.4,0-0.8,0-1.2,0c0,0,0,0,0,0c-0.2,0-0.3,0-0.5,0c-0.1,0-0.2,0-0.3,0h0c-0.1,0-0.2,0-0.3,0c-0.2,0-0.3,0-0.5,0
		c-0.2,0-0.4,0-0.6,0c-0.1,0-0.3,0-0.4,0c-0.1,0-0.3,0-0.4,0c-0.1,0-0.2,0-0.4,0c0,0-0.1,0-0.1,0c-0.1,0-0.2,0-0.3,0
		c-0.2,0-0.4,0-0.6,0c-0.1,0-0.2,0-0.3,0c-0.1,0-0.3,0-0.4,0c-0.3,0-0.6,0-0.9,0.1c-0.3,0-0.6,0-0.9,0c-0.1,0-0.2,0-0.3,0
		c-0.1,0-0.2,0-0.3,0l-0.5,0c-0.2,0-0.4,0-0.7,0c-0.1,0-0.3,0-0.4,0c-0.1,0-0.3,0-0.4,0c0,0,0,0,0,0c-0.1,0-0.2,0-0.3,0h0
		c-0.1,0-0.2,0-0.4,0c-0.3,0-0.5,0-0.8,0.1c-0.1,0-0.2,0-0.3,0c-0.3,0-0.6,0-1,0.1c-0.1,0-0.2,0-0.3,0c-0.1,0-0.2,0-0.3,0
		c0,0-0.1,0-0.1,0c-0.4,0-0.8,0.1-1.2,0.1c-0.1,0-0.1,0-0.2,0c0,0-0.1,0-0.1,0c0,0-0.1,0-0.1,0c-0.1,0-0.2,0-0.4,0c0,0-0.1,0-0.1,0
		c-0.2,0-0.4,0.1-0.6,0.1c-0.1,0-0.2,0-0.3,0c0,0,0,0-0.1,0c0,0-0.1,0-0.2,0h0c0,0,0,0,0,0c0,0-0.1,0-0.1,0c0,0,0,0,0,0h0
		c0,0,0,0-0.1,0h0c-0.1,0-0.3,0-0.5,0.1c-0.1,0-0.3,0-0.5,0.1c0,0,0,0-0.1,0c0,0-0.1,0-0.1,0c-0.1,0-0.2,0-0.3,0h0c0,0,0,0,0,0h0
		c0,0,0,0,0,0s0,0,0,0c0,0,0,0,0,0c0,0,0,0-0.1,0h0c0,0,0,0,0,0c0,0,0,0-0.1,0c0,0,0,0,0,0c0,0-0.1,0-0.1,0c0,0,0,0,0,0c0,0,0,0,0,0
		s0,0,0,0h0c0,0,0,0-0.1,0c0,0,0,0,0,0v0h0c0,0,0,0,0,0c0,0,0,0,0,0c0,0,0,0-0.1,0h0c0,0-0.1,0-0.1,0c0,0-0.1,0-0.1,0
		c-0.1,0-0.3,0-0.4,0.1c-0.3,0.1-0.6,0.1-0.9,0.1c0,0,0,0,0,0c0,0-0.1,0-0.1,0c0,0,0,0,0,0c0,0,0,0,0,0c0,0,0,0-0.1,0
		c-0.2,0-0.4,0.1-0.6,0.1c-0.1,0-0.1,0-0.2,0c-0.1,0-0.1,0-0.2,0c-0.4,0.1-0.9,0.2-1.3,0.3c0,0,0,0,0,0c-0.1,0-0.2,0-0.3,0.1
		c-0.1,0-0.2,0-0.2,0.1c-0.1,0-0.1,0-0.2,0.1c-0.2,0.1-0.5,0.1-0.7,0.2c0,0,0,0,0,0c-0.3,0.1-0.6,0.2-0.9,0.3c0,0,0,0,0,0
		c-0.1,0-0.1,0-0.2,0.1c0,0-0.1,0-0.2,0s-0.1,0-0.2,0.1l0,0h0c0,0,0,0-0.1,0c0,0,0,0,0,0c-0.1,0-0.2,0-0.2,0.1c0,0,0,0-0.1,0h0
		c0,0,0,0,0,0c-0.1,0-0.1,0-0.2,0.1c-0.1,0-0.1,0.1-0.2,0.1c0,0-0.1,0-0.2,0.1c0,0,0,0,0,0c0,0,0,0,0,0c0,0-0.1,0-0.1,0c0,0,0,0,0,0
		c0,0,0,0,0,0c0,0-0.1,0-0.1,0h0v0c0,0,0,0,0,0c0,0,0,0,0,0v0c0,0,0,0,0,0c0,0,0,0,0,0c-0.1,0-0.2,0.1-0.3,0.1c0,0-0.1,0-0.1,0.1
		l0,0h0c0,0,0,0,0,0h0c0,0,0,0,0,0c0,0-0.1,0-0.1,0.1c-0.1,0-0.1,0.1-0.2,0.1c0,0,0,0,0,0v0h0c0,0,0,0,0,0c0,0,0,0,0,0h0
		c0,0-0.1,0-0.1,0c0,0-0.1,0.1-0.1,0.1c0,0,0,0,0,0c0,0,0,0,0,0v0h0v0h0c0,0,0,0,0,0c0,0,0,0,0,0c0,0,0,0,0,0c-0.1,0-0.1,0-0.2,0.1
		c0,0-0.1,0-0.1,0.1c0,0,0,0-0.1,0.1c-0.1,0-0.1,0.1-0.2,0.1c0,0,0,0-0.1,0c0,0,0,0-0.1,0.1c0,0,0,0,0,0c0,0,0,0,0,0v0h0
		c0,0,0,0,0,0c0,0,0,0,0,0c0,0-0.1,0.1-0.1,0.1c0,0,0,0-0.1,0c0,0,0,0,0,0c0,0-0.1,0.1-0.1,0.1l0,0c-0.1,0-0.1,0.1-0.2,0.1l-0.1,0.1
		c0,0-0.1,0-0.1,0.1c-0.1,0-0.1,0.1-0.2,0.1c0,0,0,0,0,0c0,0,0,0-0.1,0.1c0,0,0,0-0.1,0.1c-0.1,0.1-0.2,0.2-0.3,0.3
		c-0.1,0.1-0.3,0.2-0.4,0.3c-3.6,2.9-9.8,4.3-17.8,4.5c-6.3,0.2-13.6-0.2-21.7-1.1c-9.9-1-20.8-2.7-32-4.4
		c-11.6-1.8-23.4-3.7-34.6-5c-0.1,0-0.2,0-0.4,0c-2.3-0.3-4.5-0.5-6.6-0.8c-0.2,0-0.4,0-0.6-0.1c-0.5-0.1-1-0.1-1.4-0.2
		c-0.5,0-0.9-0.1-1.4-0.1h-0.1c-1.1-0.1-2.1-0.2-3.2-0.3c-0.1,0-0.2,0-0.2,0c-0.3,0-0.7-0.1-1-0.1c-0.3,0-0.7-0.1-1-0.1h-0.1
		c0,0,0,0-0.1,0c-0.8-0.1-1.5-0.1-2.2-0.2c-0.2,0-0.4,0-0.5,0c-0.1,0-0.2,0-0.2,0c-0.2,0-0.5,0-0.7-0.1h-0.1c-0.2,0-0.4,0-0.6-0.1
		c-0.2,0-0.3,0-0.5,0h-0.1c-0.2,0-0.5,0-0.7,0c-0.1,0-0.2,0-0.3,0c-0.1,0-0.3,0-0.4,0c-0.1,0-0.1,0-0.2,0c-0.2,0-0.5,0-0.7-0.1
		c-0.1,0-0.2,0-0.2,0l-0.9-0.1c-0.9-0.1-1.7-0.1-2.5-0.1h-0.1c0,0,0,0-0.1,0c-0.2,0-0.4,0-0.6,0c-0.1,0-0.2,0-0.4,0c0,0-0.1,0-0.1,0
		c-0.2,0-0.4,0-0.5,0c-0.2,0-0.3,0-0.5,0c-0.2,0-0.4,0-0.5,0c-0.6,0-1.2,0-1.9-0.1c-0.7,0-1.5,0-2.2-0.1c-0.6,0-1.3,0-1.9,0
		c-1.8,0-3.5,0-5.2,0h-0.2c-0.8,0-1.5,0-2.2,0h-0.3c-0.7,0-1.5,0-2.2,0c0,0-0.1,0-0.1,0c-0.2,0-0.5,0-0.8,0c-1.3,0-2.6,0.1-3.8,0.1
		c-0.1,0-0.3,0-0.4,0c-0.6,0-1.1,0.1-1.6,0.1c-0.3,0-0.6,0-0.8,0.1c-0.4,0-0.8,0-1.2,0.1c-0.4,0-0.7,0.1-1.1,0.1c-0.3,0-0.5,0-0.8,0
		c-0.5,0-0.9,0.1-1.4,0.1c0,0-0.1,0-0.1,0c-4.9,0.3-9.7,0.8-14.6,1.2c-1.3,0.1-2.6,0.2-4,0.3c-0.4,0-0.9,0.1-1.3,0.1
		c-0.2,0-0.3,0-0.5,0c-0.9,0.1-1.9,0.1-2.9,0.2s-1.9,0.1-2.9,0.2c-0.5,0-0.9,0.1-1.3,0.1c0,0-0.1,0-0.1,0c-0.4,0.1-0.8,0.2-1.1,0.2
		c0,0-0.1,0-0.1,0c-0.2,0-0.3,0.1-0.5,0.1c-0.3,0.1-0.6,0.2-0.9,0.4c-0.1,0.1-0.3,0.1-0.4,0.2c0,0-0.1,0-0.1,0.1
		c-0.3,0.2-0.5,0.3-0.7,0.5c0,0-0.1,0.1-0.1,0.1c-0.2,0.2-0.4,0.3-0.6,0.5c0,0-0.1,0-0.1,0.1c-0.2,0.2-0.4,0.4-0.5,0.5
		c0,0.1-0.1,0.1-0.1,0.2c-0.2,0.2-0.3,0.4-0.5,0.6c0,0.1-0.1,0.1-0.1,0.2c-0.1,0.2-0.2,0.3-0.3,0.5c-0.1,0.1-0.1,0.2-0.2,0.3
		c-0.1,0.2-0.2,0.3-0.2,0.5c-0.1,0.1-0.1,0.2-0.1,0.3c-0.1,0.2-0.2,0.4-0.2,0.6l-0.1,0.4c0,0.1-0.1,0.2-0.1,0.3
		c-0.1,0.3-0.2,0.6-0.3,0.9v0c-0.6,2-1,4.2-1.6,6.2c0,0,0,0,0,0.1c0,0.1-0.1,0.2-0.1,0.4c-0.1,0.3-0.2,0.5-0.3,0.8
		c0,0.1-0.1,0.2-0.1,0.2c-0.1,0.3-0.2,0.5-0.3,0.8c-0.1,0.1-0.1,0.2-0.2,0.3c-0.1,0.2-0.2,0.4-0.3,0.5c-0.1,0.2-0.2,0.3-0.3,0.5
		c0,0-0.1,0.1-0.1,0.1c0,0,0,0,0,0c0,0-0.1,0.1-0.1,0.1c-0.1,0.2-0.2,0.3-0.4,0.5c-0.1,0.1-0.2,0.2-0.3,0.4
		c-0.1,0.1-0.1,0.2-0.2,0.2c0,0-0.1,0.1-0.1,0.1c-0.1,0.1-0.2,0.2-0.3,0.3c-0.1,0.1-0.2,0.2-0.4,0.3c0,0,0,0,0,0
		c0,0-0.1,0.1-0.1,0.1c-0.1,0.1-0.2,0.1-0.3,0.2c-0.1,0.1-0.2,0.2-0.4,0.2c-0.1,0.1-0.3,0.2-0.5,0.2c-0.2,0.1-0.3,0.2-0.5,0.2
		c-0.1,0-0.2,0.1-0.4,0.2c0,0-0.1,0-0.1,0.1c0,0,0,0-0.1,0c-0.1,0-0.2,0.1-0.2,0.1c-0.1,0-0.1,0-0.2,0.1c-0.1,0-0.3,0.1-0.4,0.1
		c-0.2,0.1-0.4,0.1-0.6,0.2c-0.2,0.1-0.4,0.1-0.7,0.1c-0.1,0-0.1,0-0.2,0c-0.2,0-0.3,0.1-0.5,0.1h0c-0.5,0.1-1,0.1-1.6,0.2
		c-0.2,0-0.4,0-0.6,0c-27,1-96.3-6.2-96.3-6.2l-1.8-21.6l-0.2-3.1l-2-76c0,0,5.6,0.1,15,0.2c5.1,0.1,11.3,0.2,18.4,0.3
		c10.3,0.2,22.5,0.4,35.7,0.8c33.1,0.8,72.8,2,106.9,3.9c0.1,0,0.1,0,0.2,0c2.4,0.1,4.8,0.3,7.3,0.4c38.2,2.3,89.8,7,135,12.5
		c17.6,2.1,34.3,4.4,48.8,6.7c21.5,3.4,38.3,6.9,46.5,10.1c0.3,0.1,0.7,0.3,1,0.4C387.9,550.2,389.1,551.2,390,552.5z"/>
	<path id="black_stalag" class="st7" d="M-13.6,627.6c0,0,12,27,21,36s21,20,28,40s22,81,31,83s21,51,48,54s60-7,71,0s36,41,43,54
		s19,11,27,15c8,4,29,25,49,19s16-46,22-54s7-47,15-47s9,37,15,46s21,46,25,56s21,10,24,6s1-19,8-22s16,21,33,24s61-15,86-15
		c25,0,105.5,26.5,142.5,26.5s57-10,72-10s40,5,57,4s32-14,41-15s15,6,28,2s23-15,34-16s37,12,58,8s32-16,44-18s36-9,49-15
		s11-19,23-20s27,1,34,0s25-11,46-7s47,8,65,21s34,31,48,30s15-29,30-43s41-44,47-60s32,3,41,14s29,13,37,10s39-32,57-40
		s42-11,61-25s51-79,56-81s0,306,0,306h-1617L-13.6,627.6z"/>
</g>
<g id="right_wall">
</g>
<g id="left_wall" class="st8">
</g>
<image style="overflow:visible;enable-background:new    ;" width="1327" height="1055" xlink:href="fuzzy_monster.png"  transform="matrix(0.2486 0 0 0.2486 510.5129 542.3146)">
</image>
<image style="overflow:visible;enable-background:new    ;" width="937" height="756" xlink:href="cave-lizard.png"  transform="matrix(1 0 0 1 1613.4718 346.1899)">
</image>
<g id="h7WsXi.tif">
	
		<image style="overflow:visible;enable-background:new    ;" width="329" height="286" id="Layer_1_1_" xlink:href="27A97B0F8918260.png"  transform="matrix(1.1575 0 0 1.1575 1148.5862 250.6404)">
	</image>
</g>
<image style="overflow:visible;" width="878" height="699" xlink:href="cavecrittersalmander.png"  transform="matrix(0.3578 0 0 0.3578 97.9409 325.6499)">
</image>
</svg>
