<?xml version="1.0" encoding="utf-8"?>
<!-- Generator: Adobe Illustrator 24.0.3, SVG Export Plug-In . SVG Version: 6.00 Build 0)  -->
<svg version="1.1" id="Layer_1" xmlns="http://www.w3.org/2000/svg" xmlns:xlink="http://www.w3.org/1999/xlink" x="0px" y="0px"
	 viewBox="0 0 1911 5620" style="enable-background:new 0 0 1911 5620;" xml:space="preserve">
<style type="text/css">
	.st0{fill:#B1B1B1;}
	.st1{fill:#464646;}
	.st2{fill:#94C6D0;}
	.st3{opacity:0.51;}
	.st4{fill:url(#SVGID_1_);}
	.st5{opacity:0.5;}
	.st6{fill:url(#SVGID_2_);}
</style>
<g id="Layer_1_1_">
</g>
<g id="Layer_2_1_">
</g>
<g id="Layer_4">
</g>
<path d="M1122.4,3958.3c-0.5-0.3-1-0.5-1.4-0.8c0.4-0.6,0.8-1.2,1.3-1.8c0.4,0.4,1,0.8,1,1.2
	C1123.3,3957.4,1122.8,3957.9,1122.4,3958.3z"/>
<g id="Layer_2_2_" transform="translate(-65.911)">
	<path id="Path_1" class="st0" d="M1441.5,2966c0.2,0,0.2,0,0.2-0.1C1441.6,2965.9,1441.5,2965.9,1441.5,2966z M1441.4,2966
		c-0.3,0-0.8,0-1.5,0C1440.4,2966.1,1440.9,2966.1,1441.4,2966z M601.8,2949.1c0.5,0.1,1,0.2,1.5,0.1L601.8,2949.1z"/>
	<path id="Path_2" class="st0" d="M1441.5,2966c0.2,0,0.2,0,0.2-0.1C1441.6,2965.9,1441.5,2965.9,1441.5,2966z M1441.4,2966
		c-0.3,0-0.8,0-1.5,0C1440.4,2966.1,1440.9,2966.1,1441.4,2966z M601.8,2949.1c0.5,0.1,1,0.2,1.5,0.1L601.8,2949.1z"/>
	<path id="Path_3" class="st1" d="M1492.2,769.2c6.3,10.4,10.9,21.2,10.5,33.6c-0.4,7.3-0.4,14.7,0.1,22c1.1,12.3,3.1,24.4,4.3,36.7
		c0.7,7.8,1.6,15.7,1.1,23.5c-0.4,5.9-0.6,11.8-0.5,17.6c11.6-20,23.6-40,24-60.9C1532.3,815.3,1512.3,792.5,1492.2,769.2z
		 M1419.5,1119.3c-13.3,5-23.4,16-35.4,23.6c-20.7,13-46,15.2-70.2,17.1c-34.6,2.7-66.2,7.5-98.1,9.1c6.9,39.9,13.3,82.9,19.1,128.3
		c13.5,105,24.1,223,32.3,345.4l181-331.5c7.7,2.8,15.1,6.4,22.2,10.7c0.6-18.6,1.1-36.8,1.7-54.5c2.1-60.7,4.3-115.8,6.8-163.5
		c-8.4,4.4-18.3,7.8-29.8,9.8C1439.2,1115.5,1428.9,1115.7,1419.5,1119.3z M1967.5,2727.5c-90.5-24.9-151.8-43.5-152-48
		c-3.7-68.1-9.9-559.9-16-1019.2c-1.3-94.6-2.5-187.7-3.7-275.6c-3.8-278-7.3-502.3-9.7-546.7c-1.1-20.4-2.1-41.1,7.8-60.7
		c8.1-16.2,23.5-31.1,35.7-46.6c39-49.7,43.8-104,52.1-157.1c0.8-5.1,2.5-10.1,3.7-15.1c3.6-14.8,52.9-25.5,71.8-35.1
		c10-5.2,19.6-11.1,28.7-17.7V19.8c-2.2-0.2-4.4-0.5-6.6-0.7c-18.4-1.7-36.6-3.8-54.8-5.8c-1.4-0.2-2.8-0.3-4.2-0.5
		c-0.7-0.1-1.4-0.1-2.1-0.1c-8.6,0.8-16.2-1.4-23.4-3c-9.1-2-18.4-3.1-27.8-3.1c-5.6,0-11.3,0.3-16.8-0.1c-3.2-0.4-6.4-0.2-9.5,0.4
		c-22,5.5-49,7.8-72.7,12.9c-6.8,1.4-13.7,1.9-20.6,1.4c-9.3-0.6-28.6,0.5-36.4-2.2c-9.6-3.3-6-10-15.9-13.9
		c-6.8-2.7-15.5-3.4-23.8-3.9c-40.9-2.7-83.9-2.8-123.8,3.4c-36.5,5.7-77.3,31.2-115.8,26.7c-7-0.8-14.4-0.6-21.6-1.1
		c-3.4-0.4-6.8-0.2-10.1,0.7c-2.4,0.6-4.9,0.9-7.4,0.8c-27.6-0.8-43.4,8.8-69.5,11.6c-1,0.2-2,0.6-2.9,1c-1.9,0.5-3.8,1-5.7,1.4
		c-3.9,0.8-8,1.4-11.9,2.2c-5.9,1.3-11.6,2.7-17.4,4c-52.6,11.8-102.8,23.2-143,46.1c-18.4,10.5-38.6,23.5-65,22.1
		c12-4.2,8.6-15.2-3.1-19.7c-11.6-4.5-27.2-4.3-41.3-3.3c-36.7,2.6-72.5,9.4-104.4,19.6c-8.6,2.8-17.4,5.9-27.3,6.2
		c-6.6,0.2-13.1-0.8-19.6-1.7c-66.3-9-140.2,0.9-191.5,25.5c-5.1,2.5-10.4,5.4-10.9,9.2c-0.4,2.7,1.9,5.3,3.1,8
		c6.8,15.2-21,27.8-45.4,36.1c-5.7,2.1-11.6,3.7-17.6,4.7c-3.3,0.4-6.7,0.6-10.1,0.7c-3.4,0.1-6.8,0.1-10.1,0.1
		c-52.8,0.1-109.8,14.4-141.4,37.9c-28.9,21.5,1.2,57-40.5,73c-17.6,6.7-39.7,10.9-51.8,20.6c-5.2,4.1-10.8,9.8-19.8,9
		c-4.5-0.4-8-2.4-12.5-3c-11.6-1.5-18.1,6.6-24.3,12.2c-15.1,13.4-49.3,16.7-67.6,28.8c-19.6,13.1-15.4,32.1-10.2,48.7
		c7.2,22.9,15.3,46.8,41.7,65c24.1,16.6,60.4,26.3,95.4,35.4c29,7.5,58.3,18.9,89.9,20.8c3.6,0.2,6.2,1.2,7.3,3.1
		c1.4,2.4,2.5,4.9,3.9,7.3c1,1.9,2.4,3.7,3.9,5.2c2.8,2.6,5.1,5.1,4.7,8.3c-0.1,1-0.1,2,0.2,3c25.9,101.4,25.7,206.7,105,301.9
		c13.8,16.5,29.7,32.6,40.9,49.7c2.2,3.4,6.7,82.6,12,207.9c0.4,9.4,0.8,19.1,1.2,29c3.3,81.2,7,179,10.5,286.6
		c5.2,156.9,10.3,334.7,14.3,512.1c3.4,150.3,5.9,300.2,7.1,437.1c1.1,126.4,0.9,241.5-0.9,335.2c-0.1,3.4-0.1,6.9-0.2,10.3
		c-2.8,128.9-8.9,215.2-19.7,231.1c-7.8,11.4-48.3,24.1-94.5,35.3c-7.2,1.7-15.2,3.9-23.9,6.4c-82.5,23.9-219.6,78-154,68.3
		c49.1-7.3,98.7-14.3,148.6-21c144.1-19.4,291-36.5,437.1-51.6c42.4-4.4,84.7-8.6,126.9-12.6c287.6-27.5,567.8-47.4,812.5-61.7
		c29-1.7,57.4-3.3,85.4-4.8v-207.2C1979.9,2730.9,1973.6,2729.2,1967.5,2727.5z M1824.9,625.1c-1.9,7.8-4,15.7-7.9,23.3
		c-5.4,10.4-13.9,20.2-23,29.7c-0.1,0.1-0.2,0.2-0.3,0.3c-15.1,15.9-31.1,31-47.8,45.2c-15,12.9-68.7,26.9-69.1,1.2
		c-1-63.3,4.8-127.9-2.2-190.9c-0.7-6.2,6.1-14.1,3.5-20c-1.5-3.5-14.1-7.9-12.8-11.2c1-2.6,3.7-4.6,8.7-5.5
		c0.2-0.1,0.4-0.1,0.7-0.1c8.7,0,17.5-0.5,25.8,1.8c2.4,0.6,4.8,0.8,7.3,0.6c3.6-0.3,7.2,0.1,10.6,1.3c1.2,0.5,2.4,0.9,3.7,1.1
		c9.3,1.3,15.7,4.6,21.6,8.5c3,2,6.8,3,11.6,2.9c5.5-0.1,10.9-0.7,16.3-1.8c8.2-1.9,16.6-3.3,25.1-4.7c3-0.4,6-0.5,9-0.4
		c11.7,0.3,27.3-8.4,28.2,3.6c1.8,22,1.5,44.1-0.7,66.1c-1.5,14.3-3.7,28.6-6.8,42.7C1825.9,620.9,1825.4,623,1824.9,625.1z
		 M1362.2,473.4c29.8-14,23,13.4,23.4,22.7c0.8,21.7-12.4,39.2-18.5,60.2c-1.7,5.7-3.5,11.3-5.3,16.9c-7.8,23.4-15.7,45.6-12.7,70.6
		c3.9,32.4,18.3,64.3,37.7,95c11.8,18.6,25.4,37.9,32.1,57.2c3.5,10.2,5.1,20.3,3.4,30.4c-0.9,5.5-2.8,10.9-5.5,15.8
		c-6.1,11.3-17.1,21.6-27.9,31.8c-10,9.4-20.1,18.8-33.3,26.9c-2.2,1.3-4.5,2.6-6.9,3.8c-6.3,3.1-13.5,5.6-21.8,6.4
		c-20.7,2-39.4-7.4-49.6-17.4c-20.8-20.6-20.8-45.3-29.4-68.4c-6.1-16.3-16.7-32-24.2-48.1c-14.2-30.3-17.6-62.1-10.1-93.2
		c5.5-22.8,18.9-45,19.9-68.1c1-23.2-7.9-47.3-12.5-70.4c-1.6-8-2.9-16.8,5.2-23.5c7.1-5.9,19.7-8.8,31.3-11.8
		c6.8-1.7,13.5-3.5,20.1-5.4C1307.8,496.1,1336.3,485.5,1362.2,473.4z M874.4,592.9c11.5-11.8,34.5-16,20.4-32.5
		c-3.1-3.6-8.1-7.1-7.6-11.1c0.7-5.5,11.3-8.7,19.8-11.7c15.1-5.3,27.5-12.9,35.4-21.6c4.8-5.3,10.3-12,21.2-12.4
		c7.5-0.2,14.2,3.1,16.9,7c12.5,18.1,3.6,42.7,7.8,61.9c3.7,17.2,17.8,33.2,34.1,47.9c33.2,30,81.8,56.1,104.7,89.3
		c27.4,39.6,14.3,83.7,0.9,125.4c-1.3,4.4-5.6,7.3-10.2,6.8c-2.1-0.3-4-1-5.8-2.1c-47.2-26.9-67.4-60.2-86.9-95
		c-23.8-42.3-65.8-79.8-109.7-116.7c-3.3-2.8-6.9-5.4-10.5-8c-8.8-6.6-17.9-12.8-27.5-19.1c-1.8-1.2-3.8-2.5-4.3-4.1
		C872.6,595.5,873.1,594.2,874.4,592.9z M1068.1,608.8c-13.6-10.3-19.4-23-24.9-35.3l-16.9-37.4c-2-3.9-13.9-9.9-11.3-14.5
		c1.1-1.8,2.8-3.2,4.8-4c8.9-3.6,25.2,1.6,34.8,2.4c11.4,0.9,27.7-2.1,37.6-5.1c17.1-5.2,34.1-13.8,47.4-21.6
		c28-16.4,47.8,54.8,45.8,65c-4.8,24.1-16.6,48.3-24.2,72.2c-0.6,1.9-1.3,3.9-3.8,5.3c-2.3,1.3-5.7,1.7-8.9,1.9
		C1117.9,639.5,1084.6,621.3,1068.1,608.8z M631.9,821.9c-5.4-5.6-7.6-11.7-8.8-17.9c-0.2-1-0.6-2-1.2-3c-1.3-2.5-2.7-5.1-4.1-7.6
		c-2.2-3.8-4.4-7.7-6.8-11.5c-1.6-2.5-3.5-4.9-5.1-7.5c-0.4-0.9-0.7-1.9-0.7-3c-0.4-1.9,0.1-4-1.2-5.6c-5.4-6.8-6.2-14.3-9.8-21.3
		c-1.6-3.2-2.1-6.5-3.2-9.7c-0.2-0.8-0.5-1.5-0.9-2.2c-4-6.1-6.7-12.9-7.8-20.1c-1.3-8.6-3.9-17.2-5.8-25.7c-0.8-3.4-0.3-7-1.9-10.2
		c-3.5-7.2-3.9-14.7-6.9-22c-2.7-6.6-2.9-13.6-4.2-20.4c-1-5.1-2.1-10.1-3-15.2c-1.1-5.8-2.4-11.6-2.8-17.4
		c-0.4-7.2,0.3-14.4-0.6-21.6c-0.3-2.3-1.6-3.5-6.1-4.2c-5-0.8-10.1-1.8-13.1-4.6c-3.6-3.4-2.1-5.6,4.9-6.4c3.4-0.4,7-0.4,10.4-0.8
		c3.6-0.4,7.1-0.9,10.6-1.7c3.1-0.7,6.3-0.7,9.5,0c2.9,0.7,5.8,1.1,8.7,1.4c11.6,0.4,9.4,1.3,14.4-4c7.6-8,24.3-13.6,42.2-12.8
		c2.8,0.1,5.6,0.1,8.3-0.1c3.5-0.3,6.7-0.6,10.2,0.4c3.3,0.9,6.1-0.1,8.7-1.4c5.4-2.8,10.9-5.5,16.7-8.1c5.1-2.2,12.9-2,18,0.2
		c6.1,2.6,11.9,5.2,16.3,8.8c3.9,3.1,7,7,9.2,11.5c1.3,2.6,2.7,5,7.7,6.4c1.6,0.6,2.9,1.8,3.4,3.5c1.8,6.7,3.4,13.3,4.9,20
		c0.8,3.9,1.9,7.7,1.7,11.7c-0.2,3.2,1.9,6.7,2.2,10.1c0.6,6.9,1.5,13.7,2.5,20.6c0.3,2.3,1.1,4.5,1.6,6.8
		c1.2,5.4,3.6,10.9,3.3,16.3c-0.3,5.7,3.9,10.9,3.7,16.4c0,1.3,0.3,2.5,0.3,3.8c-0.2,5.7-0.5,11.4-0.8,17.1c0,0.4-0.2,0.8,0,1.1
		c4,6.2,1.7,12.6,1,18.8c-0.6,5.1-1,10.1,0.7,15.2c1.6,5,3.7,10,2,15.1c-0.6,1.8,0.9,3.7,1.2,5.6c1,6.7,2,13.4,2.7,20.2
		c-0.1,1.3-0.9,3-1.6,4.6c-3.4,7.8-6.8,15.6-10.4,23.4c-2.6,5.6-5.7,11.2-8.4,16.9c-1.1,2.2-1.9,4.6-2.4,7.1c-1,5.1-3,9.8-6,14.1
		c-1.2,1.7-1.2,3.7-2.1,5.6c-3.3,6.2-5.9,12.6-10.5,18.5c-2.9,3.7-8,7.3-13.7,9.9c-7.6,3.5-16.6,6.1-25.3,8.8
		c-11.6,3.6-24.2-0.5-24.1-9.3c-1.1-2.3-1.9-6.4-5-9.8c-5.3-5.9-9-11.9-10.2-18.4c-0.1-0.7-0.9-1.4-1.5-2.1
		c-2.3-2.8-4.7-5.5-6.8-8.3C634.6,825.9,633.8,823.8,631.9,821.9z M1275,2894.8l2.6,0.1C1276.8,2894.9,1275.9,2894.9,1275,2894.8z
		 M1273.4,2773.6c-0.8,3.2-28.2,28.5-29.1,31.7c-3.6,12.7-26.9,14.9-58,15.6c-23.5,0.5-51.6,0-79,2.5c-6.4,0.6-14.4-15.2-23.6-44.3
		c-18.9-60.2-42.8-177.7-68.6-326.9c-11.9-68.9-24.2-144.6-36.7-224.6c-2.2-14.4-4.5-28.9-6.7-43.6
		c-15.1-98.7-30.2-202.9-44.9-308.2c-12.2-87.9-24.1-176.5-35.3-263.3c-5.8-45.1-11.5-89.6-16.9-133.3
		C858.3,1348,844,1224.6,833,1118.7C821.2,1006.5,813.1,914,810,853c-3.8-76-26.1-174.8,22.4-247.6c58.8,41.9,102.9,90,129.3,140.7
		c13.6,26.1,22.8,53.2,46.7,77c25.9,25.7,67.1,45.5,104.2,66.7c38.9,22.2,70,108.8,94.7,233.7c2.9,14.7,5.7,29.9,8.5,45.6
		c6.9,39.9,13.3,82.9,19.1,128.3c13.5,105,24.1,223,32.3,345.4c4,59.4,7.4,119.9,10.2,180.4c0.6,12.4,1.1,24.8,1.7,37.2
		c2.3,52.3,4.2,104.6,5.7,156c3.8,127.1,5.4,249.6,5.2,358.1c-0.1,100.9-1.8,189.7-4.6,258.5
		C1282.6,2703.4,1278.4,2753,1273.4,2773.6z M1646.4,1969.4c-2.3,21.5-25.1,698.2-27.6,719.7c-4.7,40.3-148.5,135.3-155.6,92.8
		c-4.4-26.3-6.6-219.9-6.2-473.4c0.1-82.5,0.5-171.2,1.2-262.6c0.5-63.4,1.1-128,1.9-192.7c2.2-186.9,5.6-373.9,10.3-531.1
		c0.6-18.6,1.1-36.8,1.7-54.5c2.1-60.7,4.3-115.8,6.8-163.5c5.4-102.2,11.8-170.3,19.3-184.6c3-5.6,6.2-11.2,9.4-16.8
		c11.6-20,23.6-40,24-60.9c0.6-26.5-19.4-49.3-39.5-72.6c-1.4-1.7-2.9-3.3-4.3-5c-9.6-11.3-18.2-22.7-26.5-34.1
		c-15.4-21.4-29.5-42.9-46.1-64.1c-2.9-3.8-3.3-7.5-3.5-11.5c-1.3-19-2-38.1-1.1-57.1c0.3-8.2,1-16.4,1.9-24.6
		c2.7-22.9,1.9-60.1,27.4-79.6c12.9-9.8,18.8,1.7,29.5-0.3c8.1-1.5,17.7-1.5,22.5-6.5c2.4-2.4,5-4.5,7.8-6.3
		c14.7-9.6,41.4-2.2,52-11.6c4.7-4.2,6.5-9.4,13.3-12.6c11.1-5.4,30-2,38.4,4.7c8.4,6.7,9.3,15.3,9.7,23.4c0.2,3.5,0.4,6.9,0.5,10.4
		c4,89.1-2.4,178.4,11.2,267.2c8.8,57.5,25.8,114.9,20.5,172.4c0,0.5-0.1,6.2-0.1,16.4c-0.2,63.9-0.1,303.4,1.3,527.9
		c0.4,68.2,0.9,135.1,1.6,195.1c0.6,54.9,1.4,104.2,2.3,143.7c1.3,60.2,3,97.9,5,98.9c0.3,0.1,0.6,0.3,1,0.4
		c0.2,0.1-1.9,10.8-4.2,22.6C1649.6,1952.2,1646.7,1966.8,1646.4,1969.4z"/>
	<path id="Path_5" class="st2" d="M15.3,3709.4l-1.9-12.6C14.6,3700.8,15.3,3705.1,15.3,3709.4z"/>
	<path id="Path_6" class="st0" d="M842,2800.6L842,2800.6z"/>
	<path id="Path_7" class="st0" d="M863.3,2792.1L863.3,2792.1z"/>
</g>
<path id="Path_8" d="M827.2,2326.2c-0.7-0.4-1.3-0.8-1.8-1.2c-0.4-0.2-0.8-0.5-1.2-0.7c-0.1,0.5-0.3,1-0.5,1.5c0,0,0,0,0.1,0
	c0,0,0,0,0,0.1c0.8,0.6,1.5,1.2,2.3,1.8C826.5,2327.2,826.9,2326.7,827.2,2326.2C827.3,2326.2,827.3,2326.2,827.2,2326.2z
	 M827.2,2326.2c-0.7-0.4-1.3-0.8-1.8-1.2c-0.3,0.2-0.6,0.3-0.9,0.5c-0.2,0.1-0.5,0.2-0.6,0.4c0,0,0,0-0.1,0c0.8,0.6,1.5,1.2,2.3,1.8
	C826.5,2327.2,826.9,2326.7,827.2,2326.2C827.3,2326.2,827.3,2326.2,827.2,2326.2z M598.7,1976c-0.3,0.4-0.8,0.9-0.7,1.2
	c0.1,0.4,0.7,0.6,1.1,0.9c0.3-0.4,0.5-0.8,0.8-1.2C599.5,1976.6,599.1,1976.3,598.7,1976z"/>
<g class="st3">
	<g>
		<linearGradient id="SVGID_1_" gradientUnits="userSpaceOnUse" x1="960.145" y1="1367.5841" x2="960.145" y2="5700.0757">
			<stop  offset="0" style="stop-color:#FFFFFF;stop-opacity:0"/>
			<stop  offset="0.3246" style="stop-color:#D8EBEA;stop-opacity:0.3246"/>
			<stop  offset="0.7764" style="stop-color:#A6D2CE;stop-opacity:0.7764"/>
			<stop  offset="1" style="stop-color:#93C8C4"/>
		</linearGradient>
		<path class="st4" d="M1920.3,1306.7v2315.5l-32.8,102.2l-533.6,1660.9l-4.4,16.6c-19.3,46.1-110.3,110.1-237.1,156.9
			c-168.6,62.2-400.6,93.9-612.2,12.9c-370.8-142-538-576.7-493-684.1l8.8-14.9l302.8-567l257.5-482.2l171-320.2l224.4-420.2
			l63.8-119.5l39.7-74.4l104.8-196.2l89.8-168.2l91.4-171.1l174.1-326l32.2-60.2l155.6-291.3l18-33.6L1920.3,1306.7z"/>
	</g>
</g>
<g class="st5">
	<g>
		<linearGradient id="SVGID_2_" gradientUnits="userSpaceOnUse" x1="1031.6833" y1="16.151" x2="1031.6833" y2="3064.5891">
			<stop  offset="0" style="stop-color:#FFFFFF;stop-opacity:0"/>
			<stop  offset="0.3246" style="stop-color:#D8EBEA;stop-opacity:0.3246"/>
			<stop  offset="0.7764" style="stop-color:#A6D2CE;stop-opacity:0.7764"/>
			<stop  offset="1" style="stop-color:#93C8C4"/>
		</linearGradient>
		<path class="st6" d="M1920.3-26.6v352.7l-0.3,0.5l-159.5,292.2l-32.4,59.4l-148.7,272.3l-173.2,317.1l-23.9,43.8l-181,331.5
			L1100,1828.3l-58.2,106.7l-56.9,104.3L905.8,2184l-75.1,137.5l-228.6,418.7l-11.7,21.4l-23.3,42.7l-5.6,11.1
			c-12.2,21-38.3,49.9-71.8,79v0c-82.4,71.6-209.2,144-282.4,101.4c-103-59.9-61.1-324.6-18.8-397.3l6.8-10.3l126.6-196.1l274-424.2
			l116-179.7l113.6-175.8l143.6-222.4l142.6-220.8l29.6-45.8l141.3-218.8L1353,796l42.6-65.9l3-4.7l149.2-231l310.8-481.1l24.7-38.3
			L1920.3-26.6z"/>
	</g>
</g>
<path d="M1911.1,4972.3c-343.9,1.3-200.3,177.9-342.7,183c-113.4,4-204,224.4-253.4,228.4c-13.5,1.1-83-2.3-159.4-8.9
	c-82.2-7.1-172.4-18-209.9-31.2c-49.8-17.4-152.4-71.5-210-86.8c-21-5.6-197.1-24.5-218.4-29.4c-20.5-4.8-67.2-14.2-109.3-26.8
	c-11.5-247.8-11.7-636.3-3.5-1024.7c9.1-433.6,28.5-867.3,53.9-1105.4c1.8-16.8,3.6-32.5,5.4-47.3c8.1-65,16.8-109.9,25.9-128.8v0
	c22.3-46.3,58.4-90.9,100.7-132.8c3.8-3.7,7.6-7.4,11.5-11.1c133.9-127.7,320.7-229,337.8-275.6c1.7-4.6,4.9-12.4,9.5-22.6
	c35.8-80.8,150.7-315.5,187.2-360.1c23.7-29.1,54.8-50.6,82.5-75.6c6.3-5.7,12.4-11.6,18.2-17.8c39.8-42.2,63.9-97,87.4-150.6
	c23.2-1.8,46.4,1.6,69.6,5.1c31.4,4.8,62.6,9.9,93.3,3.2c16.4-3.6,31.9-10.4,47.2-17.2l43.1-19.1c2.2-1,4.5-2,6.8-3
	c35.1-15.6,70.9-33.4,93-65.2c36.2-51.7,25.1-122.6,12.4-184.9c-1.9-9.3-4.2-19.3-11.2-25.6c-5.5-4.9-13-6.6-20-8.9
	c-29.4-9.9-53.3-34.2-78.1-54.2c-21.6-17.5-43.7-31.8-70.6-30.8c-13.3,0.5-30,3.5-37.1-8.1c-2.8-4.6-3-10.2-3.5-15.6
	c-3.7-42.1-29.8-80.3-65-101.7c-7.1-4.3-14.5-7.9-22.2-10.7c-10.8-4-22.1-6.4-33.6-7c-8.8-0.5-17.6,0-26.3-1.2
	c-51.1-6.7-102.5-27.5-153.1-5.8c-0.1,0-0.2,0.1-0.3,0.1c-37.5,16.2-61,51.1-89.9,78.7c-35.8,34.1-76.1,0.6-109.9,14
	c-7.6,3-14.8,8.4-21.6,17.4c-32.8,43.7-7.4-3.3-54.3,23.6c-28.6,16.4-60.5,28.8-84.6,48c-15.4,12.2-27.5,27.2-33.6,47.8
	c-9.4,31.7-62.7,82.5-59.1,116.8c3.5,33.5-10.8,106.1-4,144.6c0.6,3.4,1.3,6.4,2.3,9.2c5.8,17.2,87.6,44.6,100.9,56.7
	c10.7,9.7,24.8,14.4,38.4,18.8c2.5,0.8,5,1.8,7.3,2.8c54.8,24.2,55.9,102.9,102.3,60.1c18.2,31,23.8,66.9,21.7,103.3
	c-1.9,31-9.4,62.4-19.6,91.5c-8.3,23.8-28.7,61-52.8,96.9c-26.3,39.2-57.1,76.9-81.8,93.9c-1.8,1.3-3.6,2.4-5.3,3.4
	c0.6,0.4,1.3,0.8,1.9,1.2c0,0,0,0,0,0.1c-0.4,0.5-0.8,1-1.2,1.4c-0.8-0.6-1.5-1.2-2.2-1.8c0,0,0,0-0.1-0.1c0,0,0,0,0,0
	c-32.6,18.2-128.9,51.4-220.7,79.2c-77.2,23.3-151.1,42.7-181.3,45.8c-34.3,3.6-70.3-19.9-99.8-58.7
	c-51.7-67.8-83.5-182.5-52.3-280.5c17-53.6,59.5-94.6,88.2-142.6c112.8-188.9,112.6-284.8,131.5-327
	c28.4-63.2,65.4-122.4,92.4-186.1c2.7-6.4,5.3-12.9,7.8-19.4c36.2-94.5,46.4-198.4,88.2-290.3c12.3-27,38.4-56.8,64.7-44.6
	c6.2,2.8,11.2,7.7,16.6,11.8c2.6,2,5.3,3.7,8.1,5.3c37.5,21.8,86.5,10.5,130.7,10.5c54.4,0.1,106.9,19,159.8,32.2
	c18.8,4.7,36.8,7,54.2,7.9c12.8,0.6,25.5,0.5,38-0.2c31.9-1.7,63.5-6.4,98.1-9.1c24.2-1.9,49.5-4.1,70.2-17.1
	c12-7.6,22.1-18.6,35.4-23.6c9.4-3.6,19.7-3.8,29.6-5.5c11.5-2,21.4-5.4,29.8-9.8c58.2-30.5,48.5-112.1,32.8-170.4
	c-2.8-10.2-3.8-20.6-4-31c-0.1-5.9,0.1-11.7,0.5-17.6c0.5-7.8-0.4-15.7-1.1-23.5c-1.2-12.3-3.2-24.4-4.3-36.7
	c-0.5-7.3-0.5-14.7-0.1-22c0.4-12.4-4.2-23.2-10.5-33.6c-8.7-14.4-20.8-28-27.7-43.8c-3.4-7.7-5.5-16-5.5-25.1
	c0.1-9.6,2.3-19.1,2.3-28.8c-0.1-30.8-22.9-56.8-48.5-72.8c-0.7-0.5-1.4-0.9-2.2-1.3c-15.5-9.4-32.4-16.5-48.9-24.2
	c-10-4.7-19.9-9.6-29.3-15.4c-21.9-13.7-40.5-31.8-54.8-53c-5.9-8.8-11.1-18.1-15.5-27.8c-17.5-39.3-26.4-90.4-65.6-105.9
	c-9.7-3.8-20.2-4.8-30.1-8c-58.6-18.7-82-106-143-112.4c-11.2-1.2-22.5,0.7-33.8,0c-20-1.2-38.6-10.4-57.7-16.9
	c-37.2-12.8-76.8-15.8-115.9-18.7c-30-2.2-61.8-4-88.4,10.4c-8.9,4.8-17.2,11.4-27.2,12.7c-6.8,0.8-13.6-1-20.2-3
	c-24.7-7.4-48.5-17.4-71.1-29.8c-7.8-4.3-15.4-8.8-22.8-13.6c-38.3-24.7-84.6-57.8-124-35c-17,9.8-27.6,28.3-43.3,40.3
	c-32.8,25.1-81.7,18.2-113.5,44.5c-26.6,22-34.6,62.2-62.2,83c-21.8,16.4-58.3,27.5-53.9,54.9c-29.2,5.2-55.6-16.4-82.9-28.4
	c-12.5-5.5-26.8-6-40.9-2.8l0.3,5272h1911C1911.1,5620.1,1931.7,4972.2,1911.1,4972.3z M1039.5,1919.8c-5.5-44,23.4-75.1,60.5-91.5
	c15.1-6.7,31.7-11,47.8-12.8c21.3-2.3,42.7,7.7,63.7,7.7c4.4,0,8.8-0.4,13.2-1.5c-0.4,1.3-0.8,2.7-1.2,4
	c-3.4,11.6-6.8,23.2-10.3,34.7c-1.9,6.5-3.9,13-5.8,19.5c-4.2,14.3-8.6,28.8-16.9,41.1c-9.7,14.4-24.1,24.5-38.3,34.1
	c-28.5,19.2-57.6,37.4-87.2,54.6c-10.9-23.8-18.7-49-23.2-74.7C1040.9,1929.9,1040.1,1924.9,1039.5,1919.8z M603.7,1118.4
	c-6.8,18.4-20.6,33.3-31.7,49.6c-0.3,0.4-0.6,0.9-0.9,1.3c-18.4,27.4-28.9,58.9-38.3,90.5c-7.7,25.8-13.1,77.6-33.1,93.6
	c-10.6-22.2-24.6-184.9-38.2-189c12.6,3.8,28.1,6.8,36.8-3c4-4.5,5.6-10.9,9.5-15.4c14.4-16.5,42.9,3.1,62.1-5.7
	c1-0.4,1.9-0.9,2.8-1.5c11.9-7.7,18.8-28.1,32.4-24.4C604.7,1115.8,604.2,1117.1,603.7,1118.4z M130.2,1767.3
	c0.1-0.4,0.2-0.9,0.3-1.3c14.5-70,39.8-137.2,51.3-207.9c11.8-72.8,3.1-146.7-6.8-219.2c-0.8-5.8-2.3-11.4-0.8-17.4
	c1-3.7,1.6-8.1,0.6-11.7c-7.1-25.8,6.6-72.2,13.4-96.8c15.1,11.4,35.6,10.2,54.2,8.7c38.6-3.3,83.1-10.2,103.2-44.3
	c7.6-12.9,19.3-31.8,31.5-23.4c4.5,3.2,6.2,9.1,7.5,14.6c7.6,32.4,15.2,64.8,22.8,97.2c2.4,10.2,4.8,20.4,7,30.7
	c6.8,32,11.6,64.5,7.8,96.8c-5.4,46.9-28.1,89.5-45.3,133.3c-27.6,70.5-42.9,148.9-91.2,206.5c-24.2,28.8-56.2,51.8-84.6,76.9
	C169.6,1837.9,121.7,1809,130.2,1767.3z"/>
</svg>
