<?xml version="1.0" encoding="utf-8"?>
<!-- Generator: Adobe Illustrator 24.0.3, SVG Export Plug-In . SVG Version: 6.00 Build 0)  -->
<svg version="1.1" id="Layer_1" xmlns="http://www.w3.org/2000/svg" xmlns:xlink="http://www.w3.org/1999/xlink" x="0px" y="0px"
	 viewBox="0 0 1537.1 3866.8" style="enable-background:new 0 0 1537.1 3866.8;" xml:space="preserve">
<style type="text/css">
	.st0{fill:#B1B1B1;}
	.st1{fill:#1E1E1E;}
	.st2{opacity:0.19;}
	.st3{fill:url(#SVGID_1_);}
	.st4{fill:url(#SVGID_2_);}
	.st5{fill:#213E48;}
	.st6{opacity:0.14;fill:url(#SVGID_3_);enable-background:new    ;}
	.st7{opacity:0.14;fill:url(#SVGID_4_);enable-background:new    ;}
	.st8{display:none;opacity:0.34;fill:url(#SVGID_5_);enable-background:new    ;}
	.st9{display:none;opacity:0.12;}
	.st10{display:inline;}
	.st11{fill:url(#SVGID_6_);}
	.st12{display:none;opacity:0.19;}
	.st13{fill:url(#SVGID_7_);}
	.st14{display:none;opacity:0.17;fill:url(#SVGID_8_);enable-background:new    ;}
	.st15{display:none;opacity:0.16;fill:url(#SVGID_9_);enable-background:new    ;}
	.st16{display:none;fill:#131517;}
	.st17{display:none;}
	.st18{opacity:0.14;fill:url(#SVGID_10_);enable-background:new    ;}
	.st19{opacity:0.14;fill:url(#SVGID_11_);enable-background:new    ;}
	.st20{opacity:0.14;fill:url(#SVGID_12_);enable-background:new    ;}
	.st21{opacity:0.14;fill:url(#SVGID_13_);enable-background:new    ;}
	.st22{opacity:0.14;fill:url(#SVGID_14_);enable-background:new    ;}
	.st23{fill:#131517;}
	.st24{opacity:0.4;fill:url(#SVGID_15_);enable-background:new    ;}
	.st25{opacity:0.21;fill:url(#SVGID_16_);enable-background:new    ;}
	.st26{opacity:0.21;fill:url(#SVGID_17_);enable-background:new    ;}
	.st27{opacity:0.4;fill:url(#SVGID_18_);enable-background:new    ;}
	.st28{opacity:0.12;}
	.st29{fill:url(#SVGID_19_);}
	.st30{fill:url(#SVGID_20_);}
	.st31{opacity:0.21;fill:url(#SVGID_21_);enable-background:new    ;}
	.st32{opacity:0.21;fill:url(#SVGID_22_);enable-background:new    ;}
	.st33{opacity:0.4;fill:url(#SVGID_23_);enable-background:new    ;}
	.st34{fill:url(#SVGID_24_);}
	.st35{fill:url(#SVGID_25_);}
	.st36{opacity:0.21;fill:url(#SVGID_26_);enable-background:new    ;}
	.st37{opacity:0.21;fill:url(#SVGID_27_);enable-background:new    ;}
	.st38{opacity:0.53;fill:url(#SVGID_28_);enable-background:new    ;}
	.st39{fill:url(#SVGID_29_);}
	.st40{opacity:0.15;fill:url(#SVGID_30_);enable-background:new    ;}
	.st41{opacity:0.1;fill:url(#SVGID_31_);enable-background:new    ;}
	.st42{fill:url(#SVGID_32_);}
</style>
<g>
	<g id="Layer_2_1_" transform="translate(-65.911)">
		<path id="Path_1_1_" class="st0" d="M3841.7,6548.4c0.2,0,0.2,0,0.2-0.1C3841.8,6548.3,3841.7,6548.3,3841.7,6548.4z
			 M3841.7,6548.4h-1.4C3840.7,6548.5,3841.2,6548.5,3841.7,6548.4z M3082.1,6533.1c0.5,0.1,0.9,0.2,1.4,0.1L3082.1,6533.1z"/>
		<path id="Path_2_1_" class="st0" d="M3841.7,6548.4c0.2,0,0.2,0,0.2-0.1C3841.8,6548.3,3841.7,6548.3,3841.7,6548.4z
			 M3841.7,6548.4h-1.4C3840.7,6548.5,3841.2,6548.5,3841.7,6548.4z M3082.1,6533.1c0.5,0.1,0.9,0.2,1.4,0.1L3082.1,6533.1z"/>
		<path id="Path_3_1_" class="st1" d="M3888.5,5069.5c5.7,9.4,9.9,19.2,9.5,30.4c-0.4,6.6-0.4,13.3,0.1,19.9
			c1,11.1,2.8,22.1,3.9,33.2c0.6,7.1,1.4,14.2,1,21.3c-0.4,5.3-0.5,10.7-0.5,15.9c10.5-18.1,21.3-36.2,21.7-55.1
			C3924.8,5111.3,3906.7,5090.6,3888.5,5069.5L3888.5,5069.5z M3822.7,5386.3c-12,4.5-21.2,14.5-32,21.3
			c-18.7,11.8-41.6,13.8-63.5,15.5c-31.3,2.4-59.9,6.8-88.7,8.2c6.2,36.1,12,75,17.3,116.1c12.2,95,21.8,201.7,29.2,312.5
			l163.7-299.9c7,2.5,13.7,5.8,20.1,9.7c0.5-16.8,1-33.3,1.5-49.3c1.9-54.9,3.9-104.8,6.2-147.9c-7.6,4-16.6,7.1-27,8.9
			C3840.6,5382.8,3831.3,5383,3822.7,5386.3z M4318.5,6333.5c-81.9-22.5-137.3-39.4-137.5-43.4c-3.3-61.6-9,1.1-14.5-414.4
			c-1.2-85.6-2.3-169.8-3.3-249.3c-3.4-251.5-6.6-454.4-8.8-494.6c-1-18.5-1.9-37.2,7.1-54.9c7.3-14.7,21.3-28.1,32.3-42.2
			c35.3-45,39.6-94.1,47.1-142.1c0.7-4.6,2.3-9.1,3.3-13.7c3.3-13.4,47.9-23.1,65-31.8c9-4.7,17.7-10,26-16v-439.5
			c-2-0.2-4-0.5-6-0.6c-16.6-1.5-33.1-3.4-49.6-5.2c-1.3-0.2-2.5-0.3-3.8-0.5c-0.6-0.1-1.3-0.1-1.9-0.1c-7.8,0.7-14.7-1.3-21.2-2.7
			c-8.2-1.8-16.6-2.8-25.1-2.8c-5.1,0-10.2,0.3-15.2-0.1c-2.9-0.4-5.8-0.2-8.6,0.4c-19.9,5-44.3,7.1-65.8,11.7
			c-6.2,1.3-12.4,1.7-18.6,1.3c-8.4-0.5-25.9,0.5-32.9-2c-8.7-3-5.4-9-14.4-12.6c-6.2-2.4-14-3.1-21.5-3.5c-37-2.4-75.9-2.5-112,3.1
			c-33,5.2-69.9,28.2-104.8,24.2c-6.3-0.7-13-0.5-19.5-1c-3.1-0.4-6.2-0.2-9.1,0.6c-2.2,0.5-4.4,0.8-6.7,0.7
			c-25-0.7-39.3,8-62.9,10.5c-0.9,0.2-1.8,0.5-2.6,0.9c-1.7,0.5-3.4,0.9-5.2,1.3c-3.5,0.7-7.2,1.3-10.8,2
			c-5.3,1.2-10.5,2.4-15.7,3.6c-47.6,10.7-93,21-129.4,41.7c-16.6,9.5-34.9,21.3-58.8,20c10.9-3.8,7.8-13.8-2.8-17.8
			c-10.5-4.1-24.6-3.9-37.4-3c-33.2,2.4-65.6,8.5-94.4,17.7c-7.8,2.5-15.7,5.3-24.7,5.6c-6,0.2-11.9-0.7-17.7-1.5
			c-60-8.1-126.8,0.8-173.2,23.1c-4.6,2.3-9.4,4.9-9.9,8.3c-0.4,2.4,1.7,4.8,2.8,7.2c6.2,13.8-19,25.1-41.1,32.7
			c-5.2,1.9-10.5,3.3-15.9,4.3c-3,0.4-6.1,0.5-9.1,0.6c-3.1,0.1-6.2,0.1-9.1,0.1c-47.8,0.1-99.3,13-127.9,34.3
			c-26.1,19.5,1.1,51.6-36.6,66c-15.9,6.1-35.9,9.9-46.9,18.6c-4.7,3.7-9.8,8.9-17.9,8.1c-4.1-0.4-7.2-2.2-11.3-2.7
			c-10.5-1.4-16.4,6-22,11c-13.7,12.1-44.6,15.1-61.2,26.1c-17.7,11.9-13.9,29-9.2,44.1c6.5,20.7,13.8,42.3,37.7,58.8
			c21.8,15,54.6,23.8,86.3,32c26.2,6.8,52.7,17.1,81.3,18.8c3.3,0.2,5.6,1.1,6.6,2.8c1.3,2.2,2.3,4.4,3.5,6.6
			c0.9,1.7,2.2,3.3,3.5,4.7c2.5,2.4,4.6,4.6,4.3,7.5c-0.1,0.9-0.1,1.8,0.2,2.7c23.4,91.7,23.2,187,95,273.1
			c12.5,14.9,26.9,29.5,37,45c2,3.1,6.1,74.7,10.9,188.1c0.4,8.5,0.7,17.3,1.1,26.2c3,73.5,6.3,161.9,9.5,259.3
			c4.7,141.9,9.3,302.8,12.9,463.3c3.1,136,7.2,106.3,5.6,191.1c-0.1,3.1-0.1,6.2-0.2,9.3c-2.5,116.6-8.1,194.7-17.8,209.1
			c-7.1,10.3-43.7,21.8-85.5,31.9c-6.5,1.5-13.8,3.5-21.6,5.8c-74.6,21.6-198.7,70.6-139.3,61.8c44.4-6.6,89.3-12.9,134.4-19
			c130.4-17.6,263.3-33,395.4-46.7c38.4-4,76.6-7.8,114.8-11.4c260.2-24.9,513.7-42.9,735-55.8c26.2-1.5,51.9-3,77.3-4.3v-187.4
			C4329.7,6336.6,4324,6335.1,4318.5,6333.5L4318.5,6333.5z M4187.9,4938.6c-11,33.6-31,63.1-61.2,84.2c-9.9,6.9-70.7,38.7-71.1,6.5
			c-0.5-34.1,0.3-68.3,0.9-102.4c0.3-16.8,0.6-33.7,0.8-50.5c0.2-17.5,1.4-35.6-2.2-52.7c14.1-3.3,29.8-0.9,43.3,3.7
			c10.9,3.7,21.4,9.8,33.2,9.8c7.1,0,64.8-16.6,65.9-2.2C4200.4,4869.5,4198.7,4905.6,4187.9,4938.6z M3770.9,4802
			c27-12.7,20.8,12.1,21.2,20.5c0.7,19.6-11.2,35.5-16.7,54.5c-1.5,5.2-3.2,10.2-4.8,15.3c-7.1,21.2-14.2,41.3-11.5,63.9
			c3.5,29.3,16.6,58.2,34.1,85.9c10.7,16.8,23,34.3,29,51.7c3.2,9.2,4.6,18.4,3.1,27.5c-0.8,5-2.5,9.9-5,14.3
			c-5.5,10.2-15.5,19.5-25.2,28.8c-9,8.5-18.2,17-30.1,24.3c-2,1.2-4.1,2.4-6.2,3.4c-5.7,2.8-12.2,5.1-19.7,5.8
			c-18.7,1.8-35.6-6.7-44.9-15.7c-18.8-18.6-18.8-41-26.6-61.9c-5.5-14.7-15.1-28.9-21.9-43.5c-12.8-27.4-15.9-56.2-9.1-84.3
			c5-20.6,17.1-40.7,18-61.6c0.9-21-7.1-42.8-11.3-63.7c-1.4-7.2-2.6-15.2,4.7-21.3c6.4-5.3,17.8-8,28.3-10.7
			c6.2-1.5,12.2-3.2,18.2-4.9C3721.7,4822.5,3747.5,4812.9,3770.9,4802L3770.9,4802z M3329.6,4910.1c10.4-10.7,31.2-14.5,18.5-29.4
			c-2.8-3.3-7.3-6.4-6.9-10c0.6-5,10.2-7.9,17.9-10.6c13.7-4.8,24.9-11.7,32-19.5c4.3-4.8,9.3-10.9,19.2-11.2
			c6.8-0.2,12.8,2.8,15.3,6.3c11.3,16.4,3.3,38.6,7.1,56c3.3,15.6,16.1,30,30.8,43.3c30,27.1,74,50.8,94.7,80.8
			c24.8,35.8,12.9,75.7,0.8,113.4c-1.2,4-5.1,6.6-9.2,6.2c-1.9-0.3-3.6-0.9-5.2-1.9c-42.7-24.3-61-54.5-78.6-85.9
			c-21.5-38.3-59.5-72.2-99.2-105.6c-3-2.5-6.2-4.9-9.5-7.2c-8-6-16.2-11.6-24.9-17.3c-1.6-1.1-3.4-2.3-3.9-3.7
			C3328,4912.4,3328.4,4911.2,3329.6,4910.1L3329.6,4910.1z M3504.9,4924.4c-12.3-9.3-17.6-20.8-22.5-31.9l-15.3-33.8
			c-1.8-3.5-12.6-9-10.2-13.1c1-1.6,2.5-2.9,4.3-3.6c8.1-3.3,22.8,1.4,31.5,2.2c10.3,0.8,25.1-1.9,34-4.6
			c15.5-4.7,30.8-12.5,42.9-19.5c25.3-14.8,43.2,49.6,41.4,58.8c-4.3,21.8-15,43.7-21.9,65.3c-0.5,1.7-1.2,3.5-3.4,4.8
			c-2.1,1.2-5.2,1.5-8.1,1.7C3549.9,4952.2,3519.8,4935.8,3504.9,4924.4z M3110.2,5117.2c-4.9-5.1-6.9-10.6-8-16.2
			c-0.2-0.9-0.5-1.8-1.1-2.7c-1.2-2.3-2.4-4.6-3.7-6.9c-2-3.4-4-7-6.2-10.4c-1.4-2.3-3.2-4.4-4.6-6.8c-0.4-0.8-0.6-1.7-0.6-2.7
			c-0.4-1.7,0.1-3.6-1.1-5.1c-4.9-6.2-5.6-12.9-8.9-19.3c-1.4-2.9-1.9-5.9-2.9-8.8c-0.2-0.7-0.5-1.4-0.8-2
			c-3.6-5.5-6.1-11.7-7.1-18.2c-1.2-7.8-3.5-15.6-5.2-23.2c-0.7-3.1-0.3-6.3-1.7-9.2c-3.2-6.5-3.5-13.3-6.2-19.9
			c-2.4-6-2.6-12.3-3.8-18.5c-0.9-4.6-1.9-9.1-2.7-13.8c-1-5.2-2.2-10.5-2.5-15.7c-0.4-6.5,0.3-13-0.5-19.5
			c-0.3-2.1-1.4-3.2-5.5-3.8c-4.5-0.7-9.1-1.6-11.9-4.2c-3.3-3.1-1.9-5.1,4.4-5.8c3.1-0.4,6.3-0.4,9.4-0.7c3.3-0.4,6.4-0.8,9.6-1.5
			c2.8-0.6,5.7-0.6,8.6,0c2.6,0.6,5.2,1,7.9,1.3c10.5,0.4,8.5,1.2,13-3.6c6.9-7.2,22-12.3,38.2-11.6c2.5,0.1,5.1,0.1,7.5-0.1
			c3.2-0.3,6.1-0.5,9.2,0.4c3,0.8,5.5-0.1,7.9-1.3c4.9-2.5,9.9-5,15.1-7.3c4.6-2,11.7-1.8,16.3,0.2c5.5,2.4,10.8,4.7,14.7,8
			c3.5,2.8,6.3,6.3,8.3,10.4c1.2,2.4,2.4,4.5,7,5.8c1.4,0.5,2.6,1.6,3.1,3.2c1.6,6.1,3.1,12,4.4,18.1c0.7,3.5,1.7,7,1.5,10.6
			c-0.2,2.9,1.7,6.1,2,9.1c0.5,6.2,1.4,12.4,2.3,18.6c0.3,2.1,1,4.1,1.4,6.2c1.1,4.9,3.3,9.9,3,14.7c-0.3,5.2,3.5,9.9,3.3,14.8
			c0,1.2,0.3,2.3,0.3,3.4c-0.2,5.2-0.5,10.3-0.7,15.5c0,0.4-0.2,0.7,0,1c3.6,5.6,1.5,11.4,0.9,17c-0.5,4.6-0.9,9.1,0.6,13.8
			c1.4,4.5,3.3,9,1.8,13.7c-0.5,1.6,0.8,3.3,1.1,5.1c0.9,6.1,1.8,12.1,2.4,18.3c-0.1,1.2-0.8,2.7-1.4,4.2
			c-3.1,7.1-6.2,14.1-9.4,21.2c-2.4,5.1-5.2,10.1-7.6,15.3c-1,2-1.7,4.2-2.2,6.4c-0.9,4.6-2.7,8.9-5.4,12.8
			c-1.1,1.5-1.1,3.3-1.9,5.1c-3,5.6-5.3,11.4-9.5,16.7c-2.6,3.3-7.2,6.6-12.4,9c-6.9,3.2-15,5.5-22.9,8c-10.5,3.3-21.9-0.5-21.8-8.4
			c-1-2.1-1.7-5.8-4.5-8.9c-4.8-5.3-8.1-10.8-9.2-16.6c-0.1-0.6-0.8-1.3-1.4-1.9c-2.1-2.5-4.3-5-6.2-7.5
			C3112.7,5120.8,3112,5118.9,3110.2,5117.2L3110.2,5117.2z M3692,6484.9l2.4,0.1C3693.7,6485,3692.8,6485,3692,6484.9z
			 M3664.3,6403.9c-44.7,28.8-197.6,68.6-213.8,22.3c-17.1-54.5-95.3-515.4-105.4-593.9c-5.2-40.8-10.4-81.1-15.3-120.6
			c-14.7-118.6-27.7-230.2-37.6-326c-10.7-101.5-18-185.2-20.8-240.4c-3.4-68.8-23.6-158.1,20.3-224c53.2,37.9,93.1,81.4,117,127.3
			c12.3,23.6,20.6,48.1,42.2,69.7c23.4,23.2,60.7,41.2,94.3,60.3c35.2,20.1,63.3,98.4,85.7,211.4c2.6,13.3,5.2,27,7.7,41.3
			c6.2,36.1,12,75,17.3,116.1c12.2,95,21.8,201.7,29.2,312.5c3.6,53.7,14.6,291.5,15.9,338
			C3709.4,6314.6,3680.2,6399.7,3664.3,6403.9z M4003,6298.8c-4.3,36.5-134.3,122.4-140.8,84c-4-23.8-6-198.9-5.6-428.3
			c0.1-74.6,0.5,352.7,1.1,270c0.5-57.4,1-115.8,1.7-174.3c2-169.1,5.1-338.2,9.3-480.5c0.5-16.8,1-33.3,1.5-49.3
			c1.9-54.9,3.9-104.8,6.2-147.9c4.9-92.5,10.7-154.1,17.5-167c12.8-24.6,32.7-48.5,29.2-78.1c-2.3-18.5-13.6-33.9-25.6-47.4
			c-23.1-26-41.3-54.8-62.7-82.1c-7.7-9.8-18.3-19-19.2-32.2c-1.9-27.6-0.9-56.7,1.8-84.8c2.1-21.9,4.9-46.8,23.7-61.2
			c11.7-8.9,17,1.5,26.7-0.3c11.5-2.2,17.6-5.2,27.4-11.6c13.3-8.7,37.5-2,47-10.5c4.3-3.8,5.9-8.5,12-11.4
			c10-4.9,27.1-1.8,34.7,4.3s8.4,13.8,8.8,21.2c0.2,3.2,0.4,6.2,0.5,9.4c3.6,80.6-2.2,161.4,10.1,241.7c8,52,23.3,103.9,18.5,156
			c0,0.5-0.1,5.6-0.1,14.8c-0.2,57.8-0.1,274.5,1.2,477.6c0.4,61.7,0.8,122.2,1.4,176.5C4030.1,5937.2,4005.3,6279.3,4003,6298.8z"
			/>
		<path id="Path_6_1_" class="st0" d="M3299.4,6398.8"/>
		<path id="Path_7_1_" class="st0" d="M3318.7,6391.1"/>
	</g>
	<g class="st2">
		
			<linearGradient id="SVGID_1_" gradientUnits="userSpaceOnUse" x1="4965.0337" y1="-9108.833" x2="4965.0337" y2="-6893.3354" gradientTransform="matrix(0.9047 0 0 0.9047 -701.6003 13823.2939)">
			<stop  offset="0" style="stop-color:#FFFFFF;stop-opacity:0"/>
			<stop  offset="0.325" style="stop-color:#D8EBEA;stop-opacity:0.325"/>
			<stop  offset="0.776" style="stop-color:#A6D2CE;stop-opacity:0.776"/>
			<stop  offset="1" style="stop-color:#93C8C4"/>
		</linearGradient>
		<path class="st3" d="M4268.6,5554.9v742l-16.4,47.8l-265.8,776l-2.2,7.8c-9.6,21.5-54.9,51.5-118.1,73.3
			c-84,29-199.6,383.7-305,345.8c-184.7-66.3-268-269.4-245.6-319.6l4.3-7l150.8-264.9l128.3-225.3l85.2-149.6l111.8-196.3
			l31.8-55.8l19.8-34.7l52.2-91.6l44.7-78.6l45.5-80l86.8-152.3l16-28.1l77.5-136.1l9-15.7L4268.6,5554.9L4268.6,5554.9z"/>
	</g>
	<g class="st2">
		
			<linearGradient id="SVGID_2_" gradientUnits="userSpaceOnUse" x1="4529.3638" y1="-10427.8818" x2="4529.3638" y2="-7191.6509" gradientTransform="matrix(0.9047 0 0 0.9047 -701.6003 13823.2939)">
			<stop  offset="0" style="stop-color:#FFFFFF;stop-opacity:0"/>
			<stop  offset="0.325" style="stop-color:#D8EBEA;stop-opacity:0.325"/>
			<stop  offset="0.776" style="stop-color:#A6D2CE;stop-opacity:0.776"/>
			<stop  offset="1" style="stop-color:#93C8C4"/>
		</linearGradient>
		<path class="st4" d="M4310.3,4348.7v338.7l-0.3,0.5l-164.1,280.6l-33.3,57.1l-153,261.5l-178.2,304.5l-24.6,42.1L3570.7,5952
			l-104.2,178l-59.9,102.5l-58.5,100.1l-81.4,139l-77.3,132.1l-235.2,402.1l-12,20.5l-24,41l-5.8,10.7
			c-12.6,20.2-39.4,47.9-73.9,75.9c-84.8,68.8-215.2,138.3-290.5,97.3c-105.9-57.5-62.9-311.7-19.4-381.6l7-9.9l130.3-188.3
			l281.9-407.4l119.4-172.5l116.9-168.8l147.7-213.6l146.7-212.1l30.5-44l145.3-210.2l72.5-104.3l43.8-63.3l3.1-4.5l153.5-221.8
			l319.7-462l25.4-36.8L4310.3,4348.7L4310.3,4348.7z"/>
	</g>
	<path d="M2506.9,5166.3c44.4,66.9-47-6.5-47.5,48.3c-1.1,138.3,36.2,312.8,36.9,400.7c1.6,206.4,22.5,505.2,24.2,711.5
		c1.4,180.7,2.9,361.5,4.4,542.3c1.1,131.7,2.2,263.4,3.2,395.2c0.5,59.3,1,118.4,1.4,177.7c0,1.2,0,2.4,0,3.5h1765.6
		c0.2-0.3-4.3-586.5-22.9-586.4c-311.1,1.2-199.8,161-328.7,165.6c-102.6,3.6-184.5,203-229.2,206.6c-12.2,1-75.1-2.1-144.2-8.1
		c-74.4-6.4-156-16.3-189.9-28.2c-45.1-15.7-137.9-64.7-190-78.5c-19-5.1-178.3-22.2-197.6-26.6c-18.5-4.3-60.8-12.8-98.9-24.2
		c-13.8-183.9-132.6-818.4-51.1-1086.6c45.4-145.9,334.9-111,355.9-175.6c35.5-34.4,163.6-256.9,208.5-285.7
		c21.4-26.3,49.6-45.8,74.6-68.4c5.7-5.2,11.2-10.5,16.5-16.1c36-38.2,57.8-87.8,79.1-136.2c21-1.6,42,1.4,63,4.6
		c28.4,4.3,25-8,52.7-14c14.8-3.3,12-34.5,14.1-35.4c11.1-34.4,49.5-27.5,51.5-77.8c-2-64.6-13.8-25.4-25.2-81.8
		c-1.7-8.4-45.4-69.7-90.6-74.5c-59.8-2.3-67.8,18.9-118.3,10.9c-26.6-9-176.5-72.7-225.2-24.2c-30.7,35.3-121.2-13.1-145.4,73.7
		c-26.5,81.8-47.5,42.4-68.7,91.9s19.4,121.2,31.4,132.2c9.7,8.8,22.4,13,34.7,17c2.3,0.7,4.5,1.6,6.6,2.5
		c49.6,21.9,50.6,93.1,92.5,54.4c16.5,28,21.5,60.5,19.6,93.5c-1.7,28-8.5,56.5-17.7,82.8c-7.5,21.5-130,96.7-152.3,112.1
		c-1.6,1.2-3.3,2.2-4.8,3.1c0.5,0.4,1.2,0.7,1.7,1.1c0,0-0.7,1-1.1,1.4c-0.7-0.5-1.4-1.1-2-1.6l-0.1-0.1
		c-29.5,16.5-253.1,69.9-332.3-27c-46.8-61.3-50.6-203.9,26.6-342.2c23.2-41.5,53.6-68.6,86.7-85.8c36.4-18.9,68.5,19.1,105.7,17.6
		c70.7-2.7,106.7,35.8,119.1,31.8c61-19.5,170.7-216.5,212.4-221.5c48.9-6,144.7-3.4,192.6,8.5c17,4.3,34.7-9.3,50.5-8.5
		c11.6,0.5,59.3,15.2,70.7,14.6c28.9-1.5,70.9,18.6,77.6-2.9c17.3-55.8-38.8-122.5-20.1-134.3c10.9-6.9-4.7-31.1,7.3-35.6
		c8.5-3.3,25.6-67.6-9.1-86.2c-36.1-19.4-74.5-40.2-94.6-77.7c-16-30-17.9-65.5-42-91.5c-18.5-20-42.2-47.9-64.9-59.8
		c-41.8-22.1-55.5-76-102.8-90c-43.1-12.8-89.7-14-133.6-24.9c-29.6-7.3-60-11.9-90.5-10c-28.8,1.7-54.9,14.7-83,17
		c-70.3,5.8-103.9-72.3-171.4-33.3c-22.2,12.8-60.6,11.9-97.3,8.5c-36.7-3.3-55,9.7-78.3,25.8c-35.4,24.5-38.4,59.3-83.4,61.2
		c-52.8,2.4-186.8,42.9-129.3,239.3 M3312.4,5376c-1.2-15.7,0.8-31.1,9.3-44.8c14.6-23.3,88.7-14.2,115.3-19.2
		c13.3-2.5,89.3-43.3,87.5-15.8c-1.7,26.5-13.8,56-29.2,77.4c-27,37.3-76.9,42.4-112.8,82.4c-1.6,0.3-55.9,57.4-56.9,53.9
		C3322.2,5498.3,3313.3,5388.3,3312.4,5376z"/>
	<path d="M3048.6,5332.4"/>
</g>
<g id="Layer_2_2_" transform="translate(-65.911)">
	<path class="st5" d="M172.5,313.3C167.8,317,180.6,314.1,172.5,313.3L172.5,313.3z M1620.6,2602.3v12.5
		C1629.2,2613.1,1630.6,2609,1620.6,2602.3z"/>
	<path class="st5" d="M1447.2,2548.7c-17.6-59.1-9-633-14.5-1048c-1.2-85.5-2.3-169.6-3.3-249c-3.4-251.2-6.6-453.9-8.8-493.9
		c-1-18.5-1.9-37.2,7.1-54.8c7.3-14.7,21.3-28.1,32.3-42.2c35.3-44.9,39.6-94,47.1-141.9c0.7-4.6,2.3-9.1,3.3-13.7
		c3.3-13.4,47.9-23.1,65-31.8c9-4.7,36.8-23.6,45.1-29.6V4.8c-2-0.2-4-0.5-6-0.6c-16.6-1.5-52.2,10.1-68.7,8.3
		c-1.3-0.2-2.5-0.3-3.8-0.5c-0.6-0.1-1.3-0.1-1.9-0.1c-7.8,0.7-14.7-1.3-21.2-2.7c-8.2-1.8-16.6-2.8-25.1-2.8
		c-5.1,0-10.2,0.3-15.2-0.1c-2.9-0.4-5.8-0.2-8.6,0.4c-19.9,5-44.3,7.1-65.8,11.7c-6.2,1.3-12.4,1.7-18.6,1.3
		c-8.4-0.5-25.9,0.5-32.9-2c-8.7-3-5.4-9-14.4-12.6c-6.2-2.4-14-3.1-21.5-3.5c-37-2.4-75.9-2.5-112,3.1
		c-33,5.2-69.9,28.2-104.8,24.2c-6.3-0.7-13-0.5-19.5-1c-3.1-0.4-6.2-0.2-9.1,0.6c-2.2,0.5-4.4,0.8-6.7,0.7
		c-25-0.7-39.3,8-62.9,10.5c-0.9,0.2-1.8,0.5-2.6,0.9c-1.7,0.5-3.4,0.9-5.2,1.3c-3.5,0.7-7.2,1.3-10.8,2c-5.3,1.2-10.5,2.4-15.7,3.6
		c-47.6,10.7-93,21-129.4,41.6c-16.6,9.5-51,6.2-61.6,2.2c-10.5-4.1-24.6-3.9-37.4-3c-33.2,2.4-65.6,8.5-94.4,17.7
		c-7.8,2.5-15.7,5.3-24.7,5.6c-6,0.2-11.9-0.7-17.7-1.5c-60-8.1-126.8,0.8-173.2,23.1c-4.6,2.3-9.4,4.9-9.9,8.3
		c-0.4,2.4,1.7,4.8,2.8,7.2c6.2,13.8-19,25.1-41.1,32.7c-5.2,1.9-10.5,3.3-15.9,4.3c-3,0.4-6.1,0.5-9.1,0.6
		c-3.1,0.1-6.2,0.1-9.1,0.1c-47.8,0.1-99.3,13-127.9,34.3c-26.1,19.5,13.3,40-24.4,54.4c-15.9,6.1-11,29.5-22,38.2
		c8.1,0.8-4.7,3.7,0,0c-4.1-0.4-7.2-2.2-11.3-2.7c-10.5-1.4-16.4,6-22,11c-13.7,12.1-44.6,15.1-61.2,26.1c-17.7,11.9-13.9,29-9.2,44
		c6.5,20.7,13.8,42.2,37.7,58.7c1.8,1.2,3.7,2.4,5.6,3.6L72,722.9c-0.9,6.1-0.7,12.3,0.7,18.4l92,405.3c0.9,3.9,1.3,7.9,1.2,11.8
		l-27.2,1650c-0.4,22.4-13.9,42.5-34.4,51.5c-40.1,17.4-65.7,31.3-62.8,37.8c1.3,0.1,4.6,0.5,9.9,0.9v968.2h1569.2v-1252
		C1589.1,2620.7,1460.7,2593.9,1447.2,2548.7z M141.8,554.6l8.1-47.6c3.1-18.5,21.4-30.3,39.5-25.6c1.1,0.3,2.3,0.6,3.4,0.9
		c4.7,1.2,10.4,2,16.7,2.4c12.6,0.8,17.8,16.5,8.3,24.8l-61.3,53.4C150.2,568.4,140.4,562.9,141.8,554.6z M141,738.7
		c-4.4-8.6-6.1-18.4-5.1-28l8-72.4c1.4-12.5,7.4-23.9,16.9-32.2l112.2-97.4c7.1-6.1,18.1-1.9,19.3,7.3l28.9,219.9
		c2.7,20.2-0.1,40.8-8,59.6l-23.2,55.2c-16.4,39.1-71.1,41-90.3,3.2L141,738.7z M431.9,2773.1l1.4,0.1
		C432.8,2773.3,432.4,2773.2,431.9,2773.1z M492.8,2585.3c-0.1,3.1-0.1,6.2-0.2,9.3c-2.5,116.4-6.9,109.5-16.6,123.8
		c-1.6,2.3-24.7,11.2-59.6,24c-18.6,6.8-38.5-6.3-39.6-26.1L287,1074.9c-0.1-6.1,5.4-37,7.6-42.8l76.4-208.7
		c6.8-18,11.1-36.8,12.9-55.8c0.9-9.4,12.9-12.7,18.4-5c4.2,5.8,8.7,11.6,13.5,17.4c12.5,14.9,26.9,29.5,37,44.9
		c2,3.1,6.1,74.6,10.9,187.8c0.4,8.5,0.7,17.3,1.1,26.2c3,73.4,6.3,161.8,9.5,258.9c4.7,141.8,9.3,936.5,12.9,1096.7
		C490.3,2530.3,494.4,2500.6,492.8,2585.3z M528.5,766.7c-8.8,1.5-76.9,0-103.5-113.4c-6.3-27-12.8-54.3-23.1-79.6
		c-2.4-6-2.6-12.3-3.8-18.5c-0.9-4.6-1.9-9.1-2.7-13.8c-1-5.2-2.2-10.5-2.5-15.7c-0.4-6.5,0.3-13-0.5-19.5c-0.3-2.1,2.9-15.3,6.1-16
		c2.8-0.6,5.7-0.6,8.6,0c2.6,0.6,5.2,1,7.9,1.3c10.5,0.4,8.5,1.2,13-3.6c6.9-7.2,22-12.3,38.2-11.6c2.5,0.1,5.1,0.1,7.5-0.1
		c3.2-0.3,6.1-0.5,9.2,0.4c3,0.8,5.5-0.1,7.9-1.3c4.9-2.5,9.9-5,15.1-7.3c4.6-2,11.7-1.8,16.3,0.2c5.5,2.4,10.8,4.7,14.7,8
		c3.5,2.8,6.3,6.3,8.3,10.4c1.2,2.4,13.1,21,14.5,27c0.7,3.5,1.7,7,1.5,10.6c-0.2,2.9,2.2,6.1,2,9.1
		C560.7,574.8,594,754.1,528.5,766.7z M723,471.7c1-1.6,2.5-2.9,4.3-3.6c8.1-3.3,22.8,1.4,31.5,2.2c10.3,0.8,25.1-1.9,34-4.6
		c15.5-4.7,30.8-12.5,42.9-19.5c25.3-14.8,43.2,49.5,41.4,58.7c-4.3,21.8-15,43.6-21.9,65.2c-0.5,1.7-1.2,3.5-3.4,4.8
		c-2.1,1.2-5.2,1.5-8.1,1.7c-27.7,1.8-57.8-14.7-72.7-26c-12.3-9.3-17.6-20.8-22.5-31.9l-15.3-33.8
		C731.4,481.3,720.7,475.9,723,471.7z M625.3,486.3c13.7-4.8,24.9-11.7,32-19.5c4.3-4.8,9.3-10.9,19.2-11.2
		c6.8-0.2,12.8,2.8,15.3,6.3c11.3,16.4,3.3,38.5,7.1,55.9c3.3,15.6,16.1,30,30.8,43.2c30,27.1,74,50.7,94.7,80.7
		c16.4,23.7,22.8,36.3,21.7,53c-0.5,7.7-9.7,11.1-15.2,5.7c-17.4-17.5-57.8-14.5-71.1-38.3C738.4,623.9,617.6,489,625.3,486.3z
		 M958.2,2743.2l2.4,0.1C959.8,2743.3,959,2743.3,958.2,2743.2z M930.5,2662.3c-19.7,12.7-50.5,28.6-84,36.6
		c-62.8,15-124.8-27.9-133.4-91.9c-57.5-427.6-111.5-1824.1-91.9-1854c-2.8-55.7,18.3-76,7.5-122.2c-1.9-8.3,6.9-14.8,14.3-10.4
		c22.4,13.2,42.3,10.1,59.4,43c12.3,23.6,20.6,48,42.2,69.6c23.4,23.2,60.7,41.1,94.3,60.2c35.2,20.1,35.7,109.6,58.1,222.4
		c2.6,13.3,5.2,27,7.7,41.2v0.1c6.2,36.1,12,74.8,17.3,115.8c12.2,94.9,21.8,201.5,29.2,312.1v0.1c3.6,54.4,14.6,925.1,15.9,971.5
		C975.6,2573.1,946.4,2658,930.5,2662.3z M1091.5,747.3c-0.8,5-2.5,9.9-5,14.3c-5.5,10.2-15.5,19.5-25.2,28.8
		c-9,8.5-18.2,17-30.1,24.3c-2,1.2-4.1,2.4-6.2,3.4c-5.7,2.8-12.2,5.1-19.7,5.8c-18.7,1.8-35.6-6.7-44.9-15.7
		c-18.8-18.6-18.8-40.9-26.6-61.8c-5.5-14.7-15.1-28.9-21.9-43.4c-12.9-27.5-16-56.1-9.2-84.3c5-20.6,17.1-40.6,18-61.5
		c0.9-21-7.1-42.7-11.3-63.6c-1.4-7.2-2.6-15.2,4.7-21.3c6.4-5.3,17.8-8,28.3-10.7c6.2-1.5,12.2-3.2,18.2-4.9
		c27.3-8,53.1-17.6,76.5-28.5c27-12.7,20.8,12.1,21.2,20.5c0.7,19.6-11.2,35.5-16.7,54.4c-1.5,5.2-3.2,10.2-4.8,15.3
		c-7.1,21.2-14.2,41.2-11.5,63.8c3.5,29.3,16.6,58.1,34.1,85.9c10.7,16.8,23,34.3,29,51.7C1091.6,729,1093,738.2,1091.5,747.3z
		 M1107.9,2806.6c-0.5,0.1-1,0.1-1.4,0H1107.9c0-0.1,0.1-0.1,0.2-0.1C1108.1,2806.6,1108.1,2806.6,1107.9,2806.6z M1269.1,2557.3
		c-4.3,36.4-134.3,122.2-140.8,83.9c-1.7-10.4-3.1-171.4-4.1-368.5c-0.2,107.7-0.4,192-0.5,210.4c-0.4,50.6-0.6-327.1-0.9-610.8
		c0.3,127.5,0.7,271.6,1.4,400.4c0.4-227,0.7-558.2,1.3-597.8c2-168.9,5.1-337.8,9.3-479.8c0.5-16.8,1-33.3,1.5-49.2
		c1.9-54.8,3.9-104.7,6.2-147.7c4.9-92.4,10.7-153.9,17.5-166.8c2.6-5.1,5.6-10.1,8.6-15.2c0.7-1.3,1.5-2.6,2.3-3.9
		c0.3-0.4,0.5-0.8,0.7-1.2c2.4-4.3,4.9-8.5,7.1-12.8c0.2-0.4,0.4-0.7,0.5-1.1c0.1-0.4,0.4-0.7,0.5-1.1c6.7-13.3,11.2-27.3,9.4-42.8
		c-0.7-6.2-2.5-11.9-5-17.5c-2.4-5.5-5.6-10.7-9.1-15.7c-3.5-5-7.5-9.7-11.5-14.2c-23.1-26-41.3-54.8-62.7-81.9
		c-7.7-9.8-18.3-18.9-19.2-32.2c-1.6-27.5-0.6-56.6,2.1-84.6c2.1-21.9,4.9-46.7,23.7-61.1c11.7-8.9,17,1.5,26.7-0.3
		c11.5-2.2,17.6-5.2,27.4-11.6c13.3-8.7,37.5-2,47-10.5c4.3-3.8,5.9-8.5,12-11.4c10-4.9,27.1-1.8,34.7,4.3
		c7.6,6.1,8.4,13.8,8.8,21.2c0.2,3.2,0.4,6.2,0.5,9.4c3.6,80.5-2.2,161.2,10.1,241.5c8,51.9,23.3,103.9,18.5,155.8
		c0,0.5-0.1,5.6-0.1,14.8c-0.2,57.7-0.1,274.1,1.2,476.9c0.4,61.6,0.8,122,1.4,176.3C1296.1,1562.1,1271.4,2537.9,1269.1,2557.3z
		 M1122.9,1579.4c0,22.4,0.1,142.3,0.2,288.1C1122.9,1746.9,1122.8,1641.7,1122.9,1579.4z M1392.8,648.9
		c-9.9,6.9-70.7,38.6-71.1,6.5c-0.5-34.1,0.3-68.2,0.9-102.3c0.3-16.8,0.6-33.7,0.8-50.5c0.2-17.5,1.4-35.5-2.2-52.6
		c14.2-3.2,29.8-0.8,43.4,3.8c10.9,3.7,21.4,9.8,33.2,9.8c7.1,0,64.8-16.6,65.9-2.2c2.9,34.4,1.2,70.5-9.7,103.4
		C1443,598.3,1423,627.9,1392.8,648.9z"/>
</g>
<linearGradient id="SVGID_3_" gradientUnits="userSpaceOnUse" x1="-6987.1411" y1="490.0017" x2="-6987.1411" y2="-319.4761" gradientTransform="matrix(-0.9047 0 0 0.9047 -12474.8184 9716.167)">
	<stop  offset="0" style="stop-color:#FFFFFF;stop-opacity:0"/>
	<stop  offset="0.325" style="stop-color:#D8EBEA;stop-opacity:0.325"/>
	<stop  offset="0.776" style="stop-color:#A6D2CE;stop-opacity:0.776"/>
	<stop  offset="1" style="stop-color:#93C8C4"/>
</linearGradient>
<path class="st6" d="M-6338.3,9432.9c2.8-1.1,5.7-2.1,8.6-2.8c22-5.6,47.2,0.5,66.6,16.6l8.7,7.2c20.6,17.1,47.9,22.8,70.9,15.4
	c1.4-0.5,2.7-0.9,4.1-1.5l19.4-7.9c20.2-8.3,44.4-5.6,64.7,6.5c3.8,2.3,7.5,4.9,10.9,7.9l0.2,0.2c13.8,11.7,30.9,18.3,47.6,19.1
	c1.7,0.1,3.5,0.1,5.2,0.1c8.9-0.3,17.6-2.2,25.5-5.9l33.9-15.7l4-1.9c0,5.5,0,11,0,16.5c0,23.8-0.1,47-0.1,69.4l-0.2,128.1
	l2.1,468.2l-12.8,0.3l-102.7,2.8l-180.4,4.9l-75.8-3.5l-3-722.9L-6338.3,9432.9z"/>
<linearGradient id="SVGID_4_" gradientUnits="userSpaceOnUse" x1="-6069.749" y1="521.0759" x2="-6069.749" y2="-407.5525" gradientTransform="matrix(0.9047 0 0 0.9047 -701.6003 9716.167)">
	<stop  offset="0" style="stop-color:#FFFFFF;stop-opacity:0"/>
	<stop  offset="0.325" style="stop-color:#D8EBEA;stop-opacity:0.325"/>
	<stop  offset="0.776" style="stop-color:#A6D2CE;stop-opacity:0.776"/>
	<stop  offset="1" style="stop-color:#93C8C4"/>
</linearGradient>
<path class="st7" d="M-5979.3,9322.8l13,860l-438.6-4.9c-0.1-14.7-13.2-506.7-13.3-521.3l-1.1-228.3l-0.2-105.1
	c24.7-12.9,54.4-12.1,78.6,3.1l4.5,2.9l17.9,11.2c5.2,3.3,10.8,5.9,16.5,7.9c24.2,8.3,51,4.4,72.4-11.2l10.6-7.7
	c10.9-7.9,23.2-12.8,35.8-14.7c18.1-2.6,37,1.1,53.3,11.5l23,14.4c27.3,17.2,61.7,16.3,88-2.4l6.8-4.8l3.6-2.6
	C-5999.3,9324.6-5989.5,9320.2-5979.3,9322.8z"/>
<linearGradient id="SVGID_5_" gradientUnits="userSpaceOnUse" x1="331.5996" y1="-1983.1257" x2="331.5996" y2="-3262.6804" gradientTransform="matrix(0.9047 0 0 0.9047 -701.6003 9716.167)">
	<stop  offset="0" style="stop-color:#FFFFFF;stop-opacity:0"/>
	<stop  offset="0.325" style="stop-color:#D8EBEA;stop-opacity:0.325"/>
	<stop  offset="0.776" style="stop-color:#A6D2CE;stop-opacity:0.776"/>
	<stop  offset="1" style="stop-color:#93C8C4"/>
</linearGradient>
<path class="st8" d="M471.7,6778.3v1145.1l-355-4.4l-844.9-10.5l-480.9-6l-60.2-0.7l-4.3-585.6l-0.8-275.4
	c-0.1-47.9-0.3-97.9-0.4-149.1c0-11.8-0.1-23.5-0.1-35.4l18.8,4l159.1,33.7c37.3,7.9,77.9,12,119.4,12.6c8.1,0.1,16.4,0.1,24.6-0.1
	c78.2-1.6,157.9-15.7,222.9-41l0.9-0.4c16.3-6.3,33.6-11.9,51.4-16.9c94.7-26.1,208.3-31.8,303.1-14.1l90.6,16.9
	c6.3,1.2,12.8,2.3,19.3,3.3c107.7,16.1,235.6,3.7,332.1-33l40.9-15.6c90.6-34.5,208.9-47.5,312.1-35.6c13.7,1.5,27,3.6,40.1,6.1
	L471.7,6778.3z"/>
<g class="st9">
	<g class="st10">
		<g>
			
				<linearGradient id="SVGID_6_" gradientUnits="userSpaceOnUse" x1="746.9308" y1="-5243.3921" x2="746.9308" y2="-1815.282" gradientTransform="matrix(0.9047 0 0 0.9047 -701.6003 9716.167)">
				<stop  offset="0" style="stop-color:#FFFFFF;stop-opacity:0"/>
				<stop  offset="0.325" style="stop-color:#D8EBEA;stop-opacity:0.325"/>
				<stop  offset="0.776" style="stop-color:#A6D2CE;stop-opacity:0.776"/>
				<stop  offset="1" style="stop-color:#93C8C4"/>
			</linearGradient>
			<polygon class="st11" points="637.1,4929.2 637.1,6328.5 534,6670.2 507.5,6770.2 428.9,7067.5 370.2,7289.4 288.9,7596.9 
				288.9,7597 203.7,7919 177.8,8016.9 -688.8,8016.9 -641.2,7908.5 -603.3,7822.5 -551.6,7704.8 -416.7,7398 -389.5,7336.2 
				-292.7,7116.1 -249.7,7018.4 -177.6,6854.4 -129.9,6746.1 -83.7,6640.9 -54.9,6575.4 21.1,6402.7 86.1,6254.6 152.3,6103.8 
				278.5,5816.8 301.9,5763.8 414.7,5507.4 427.7,5477.7 557.8,5181.9 			"/>
		</g>
	</g>
</g>
<image style="display:none;overflow:visible;enable-background:new    ;" width="3103" height="3103" xlink:href="nessy.png"  transform="matrix(9.933096e-02 0 0 9.933096e-02 -32.6082 6915.5928)">
</image>
<g class="st12">
	<g class="st10">
		<g>
			
				<linearGradient id="SVGID_7_" gradientUnits="userSpaceOnUse" x1="450.2578" y1="-6282.6343" x2="450.2578" y2="-1795.802" gradientTransform="matrix(0.9047 0 0 0.9047 -701.6003 9716.167)">
				<stop  offset="0" style="stop-color:#FFFFFF;stop-opacity:0"/>
				<stop  offset="0.325" style="stop-color:#D8EBEA;stop-opacity:0.325"/>
				<stop  offset="0.776" style="stop-color:#A6D2CE;stop-opacity:0.776"/>
				<stop  offset="1" style="stop-color:#93C8C4"/>
			</linearGradient>
			<path class="st13" d="M599.5,3975.7v511.4l-0.4,0.7l-213.5,423.7l-43.3,86.2l-199,394.9l-231.9,459.8l-32,63.5l-242.3,480.6
				l-135.6,268.9l-77.9,154.8l-14.2,28.2l-62,123l-68.1,135l-37.8,74.8l-61.6,122.1l-19.3,38.2l-19.7,39.1l-263.1,521.9l-43,85.2
				l-14.7,29h-1.6c-0.3-38.4-0.6-76.7-1-115.1c-0.1-14.7-0.3-29.6-0.4-44.3c-1-131.7-2.1-263.4-3.2-395.2
				c-0.3-28-0.5-79.1-0.7-146.1l-0.8-275.4c-0.1-47.9-0.3-97.9-0.4-149.1l14.3-23.9l4.4-7.4l150.9-253l128.8-215.9l23.2-39
				l192.2-322.5l191-320.2l39.6-66.4l189.1-317.4l94.3-157.5l57-95.6l4-6.9l199.7-334.9l416-697.6l33.1-55.5L599.5,3975.7z"/>
		</g>
	</g>
</g>
<linearGradient id="SVGID_8_" gradientUnits="userSpaceOnUse" x1="331.876" y1="-1872.3459" x2="331.876" y2="-2941.6941" gradientTransform="matrix(0.9047 0 0 0.9047 -701.6003 9716.167)">
	<stop  offset="0" style="stop-color:#FFFFFF;stop-opacity:0"/>
	<stop  offset="0.325" style="stop-color:#D8EBEA;stop-opacity:0.325"/>
	<stop  offset="0.776" style="stop-color:#A6D2CE;stop-opacity:0.776"/>
	<stop  offset="1" style="stop-color:#93C8C4"/>
</linearGradient>
<path class="st14" d="M471.7,7026.9v990h-1740c-0.3-38.4-0.6-76.7-1-115.1l-4.3-585.6l-0.8-275.4c98.1-33.9,215.9-31.7,311.9,8.1
	l18.1,7.5l71.1,29.4c20.9,8.7,42.9,15.6,65.5,20.6c95.7,21.7,202.3,11.7,287-29.3l41.9-20.3c43.2-20.8,91.9-33.7,142-38.4
	c71.9-6.8,146.6,3.1,211.4,30l91.1,37.9c108.3,45.1,244.6,42.6,349.3-6.3l26.9-12.6l14.5-6.8C392,7044,431.2,7032.8,471.7,7026.9z"
	/>
<linearGradient id="SVGID_9_" gradientUnits="userSpaceOnUse" x1="332.3182" y1="-1676.2405" x2="332.3182" y2="-2279.4895" gradientTransform="matrix(0.9047 0 0 0.9047 -701.6003 9716.167)">
	<stop  offset="0" style="stop-color:#FFFFFF;stop-opacity:0"/>
	<stop  offset="0.325" style="stop-color:#D8EBEA;stop-opacity:0.325"/>
	<stop  offset="0.776" style="stop-color:#A6D2CE;stop-opacity:0.776"/>
	<stop  offset="0.9409" style="stop-color:#93C8C4"/>
</linearGradient>
<path class="st15" d="M471.7,7383.3v633.6h-1740c-0.3-38.4-0.6-76.7-1-115.1l-4.3-585.6c105.7,67.1,240.2,67.1,345.7,1.3
	c6-3.7,11.8-7.6,17.5-11.8l0.9-0.6c0.8-0.5,1.6-1.2,2.4-1.7c104.8-73.8,243.4-79.2,353.4-13.2l77.1,46.1l12.1,7.2
	c109.7,65.7,247.8,60.7,352.5-12.6l41.9-29.3c104.9-73.5,243.4-78.3,353.1-12.2c0.1,0.1,0.2,0.1,0.3,0.2l91.1,54.8
	C405.1,7362.8,437.9,7375.8,471.7,7383.3z"/>
<path class="st16" d="M288.2,7447.1c-12,12-28.6,20.1-56,21c-102.6,3.6-184.5,203-229.2,206.6c-12.2,1-75.1-2.1-144.2-8.1
	c-74.4-6.4-156-16.3-189.9-28.2c-45.1-15.7-137.9-64.7-190-78.5c-4.3-1.2-15.7-2.9-31.1-5c-52.7-7.1-151.5-18.2-166.5-21.6
	c-18.5-4.3-60.8-12.8-98.9-24.2c-3.2-42.2-11.9-159-22.4-317.4c-0.5-8-1.1-15.9-1.6-24.1c-5.2-78.9-59.1-1192.3-26.5-1299.6
	c45.4-145.9,334.9-111,355.9-175.6c35.5-34.4,163.6-256.9,208.5-285.7c21.4-26.3,49.6-45.8,74.6-68.4c5.7-5.2,11.2-10.5,16.5-16.1
	c36-38.2,57.8-87.8,79.1-136.2c21-1.6,42,1.4,63,4.6c28.4,4.3,25-8,52.7-14c14.8-3.3,12-34.5,14.1-35.4
	c11.1-34.4,49.5-27.5,51.5-77.8c-2-64.6-13.8-25.4-25.2-81.8c-0.9-4.3-12.7-22.3-30-39.6c17.1-55.8-38.8-122.4-20.1-134.1
	c19.8-91.1,4.6-131.5-2.3-140.8c4-15.1-12.7-90.9-44.4-108c-36.1-19.4-44-26.1-54.6-86.8c-16-30-12.8-110-36.8-136
	c-18.5-20-84.9-99-107.6-110.9c-41.8-22.1-55.5-76-102.8-90c-43.1-12.8-89.7-14-133.6-24.9c-29.6-7.3-60-11.9-90.5-10
	c-28.8,1.7-103.7-16.9-131.8-14.6c-70.3,5.8-103.9-72.3-171.4-33.3c-22.2,12.8-60.6,11.9-97.3,8.5c-36.7-3.3-55,9.7-78.3,25.8
	c-35.4,24.5-38.4,59.3-83.4,61.2c-52.8,2.4-138.1,74.5-80.5,270.9l38.7,636.1c44.4,66.9-47-6.5-47.5,48.3
	c-1.1,138.3,36.2,312.8,36.9,400.7c1.6,206.4,22.5,298.4,24.2,504.8c0.8,103.9,1.6,527.2,2.5,902.7c0,11.9,0.1,23.6,0.1,35.4
	c0.1,51.1,0.3,101.1,0.4,149.1l0.2,70.3c0.3,67,0.5,118.1,0.7,146.1c1.1,131.7,2.2,263.4,3.2,395.2c0.1,14.8,0.3,29.6,0.4,44.3
	c0.4,38.4,0.6,76.7,1,115.1H558v-564.5C316.2,7304.2,332.6,7402.8,288.2,7447.1z M-389.1,5220.2c14.6-23.3,88.7-14.2,115.3-19.2
	c13.3-2.5,89.3-43.3,87.5-15.8c-1.7,26.5-13.8,56-29.2,77.4c-27,37.3-76.9,42.4-112.8,82.4c-1.6,0.3-55.9,57.4-56.9,53.9
	c-3.3-11.7-12.2-121.6-13.1-134C-399.6,5249.3-397.6,5233.8-389.1,5220.2z M-949.3,5530.7c-46.8-61.3-50.6-203.9,26.6-342.2
	c23.2-41.5,53.6-68.6,86.7-85.8c36.4-18.9,68.5,19.1,105.7,17.6c60.8-2.4,95.9,25.8,112.4,31.2c8.4,20.1,18.6,35.6,23.7,40.2
	c9.7,8.8,22.4,13,34.7,17c2.3,0.7,4.5,1.6,6.6,2.5c49.6,21.9,29.4,95.5,71.4,56.8c16.5,28,27.7,62.5,25.8,95.4
	c-1.7,28,6.6,52-2.6,78.3c-7.5,21.5-130,96.7-152.3,112.1c-1.6,1.2-3.3,2.2-4.8,3.1c0.5,0.4,1.2,0.7,1.7,1.1c0,0-0.7,1-1.1,1.4
	c-0.7-0.5-1.4-1.1-2-1.6l-0.1-0.1C-646.5,5574.2-870.1,5627.6-949.3,5530.7z"/>
<path class="st17" d="M-662.2,4959.4"/>
<image style="display:none;overflow:visible;enable-background:new    ;" width="1536" height="2048" xlink:href="fairy-sit.png"  transform="matrix(0.1495 0 0 0.1495 -891.9261 5363.4219)">
</image>
<image style="display:none;overflow:visible;enable-background:new    ;" width="2339" height="2113" xlink:href="rock_monster.png"  transform="matrix(0.2175 1.599462e-02 -1.599462e-02 0.2175 -861.7925 7178.0527)">
</image>
<image style="display:none;overflow:visible;enable-background:new    ;" width="3103" height="3103" xlink:href="mer-skull.png"  transform="matrix(0.1217 0 0 0.1217 -14.4134 7294.5464)">
</image>
<g id="Layer_2_4_" transform="translate(-65.911)">
	<path id="Path_1_3_" class="st5" d="M-1572.8,2936.4c0.2,0,0.2,0,0.2-0.1C-1572.7,2936.3-1572.8,2936.3-1572.8,2936.4z
		 M-1572.9,2936.4h-1.4C-1573.8,2936.5-1573.3,2936.5-1572.9,2936.4z M-2332.4,2921.1c0.5,0.1,0.9,0.2,1.4,0.1L-2332.4,2921.1z"/>
	<path id="Path_2_3_" class="st5" d="M-1572.8,2936.4c0.2,0,0.2,0,0.2-0.1C-1572.7,2936.3-1572.8,2936.3-1572.8,2936.4z
		 M-1572.9,2936.4h-1.4C-1573.8,2936.5-1573.3,2936.5-1572.9,2936.4z M-2332.4,2921.1c0.5,0.1,0.9,0.2,1.4,0.1L-2332.4,2921.1z"/>
	<path id="Path_3_3_" class="st5" d="M-1526,825.3c5.7,9.4,9.9,19.2,9.5,30.4c-0.4,6.6-0.4,13.3,0.1,19.9c1,11.1,2.8,22.1,3.9,33.2
		c0.6,7.1,1.4,14.2,1,21.3c-0.4,5.3-0.5,10.7-0.5,15.9c10.5-18.1,21.3-36.1,21.7-55C-1489.7,867-1507.8,846.4-1526,825.3
		L-1526,825.3z M-1545.7,1324.8c0.5-16.8,1-33.3,1.5-49.2c1.9-54.8,3.9-104.7,6.2-147.7c-7.6,4-16.6,7.1-27,8.9
		c-9,1.4-18.3,1.6-26.8,4.9c-12,4.5-21.2,14.5-32,21.3c-18.7,11.8-41.6,13.8-63.5,15.5c-31.3,2.4-59.9,6.8-88.7,8.2
		c6.2,36.1,12,74.9,17.3,115.9c12.2,94.9,21.8,201.5,29.2,312.1 M-1226.7,694.6c-11,33.5-31,63.1-61.2,84.1
		c-9.9,6.9-70.7,38.6-71.1,6.5c-0.5-34.1,0.3-68.2,0.9-102.3c0.3-16.8,0.6-33.7,0.8-50.5c0.2-17.5,1.4-35.5-2.2-52.6
		c14.1-3.3,29.8-0.9,43.3,3.7c10.9,3.7,21.4,9.8,33.2,9.8c7.1,0,64.8-16.6,65.9-2.2C-1214.1,625.5-1215.8,661.6-1226.7,694.6z
		 M-1643.6,558c27-12.7,20.8,12.1,21.2,20.5c0.7,19.6-11.2,35.5-16.7,54.4c-1.5,5.2-3.2,10.2-4.8,15.3
		c-7.1,21.2-14.2,41.2-11.5,63.8c3.5,29.3,16.6,58.1,34.1,85.9c10.7,16.8,23,34.3,29,51.7c3.2,9.2,4.6,18.4,3.1,27.5
		c-0.8,5-2.5,9.9-5,14.3c-5.5,10.2-15.5,19.5-25.2,28.8c-9,8.5-18.2,17-30.1,24.3c-2,1.2-4.1,2.4-6.2,3.4
		c-5.7,2.8-12.2,5.1-19.7,5.8c-18.7,1.8-35.6-6.7-44.9-15.7c-18.8-18.6-18.8-40.9-26.6-61.8c-5.5-14.7-15.1-28.9-21.9-43.4
		c-12.8-27.4-15.9-56.1-9.1-84.2c5-20.6,17.1-40.6,18-61.5c0.9-21-7.1-42.7-11.3-63.6c-1.4-7.2-2.6-15.2,4.7-21.3
		c6.4-5.3,17.8-8,28.3-10.7c6.2-1.5,12.2-3.2,18.2-4.9C-1692.8,578.6-1667.1,569-1643.6,558L-1643.6,558z M-2084.9,666.1
		c10.4-10.7,31.2-14.5,18.5-29.4c-2.8-3.3-7.3-6.4-6.9-10c0.6-5,10.2-7.9,17.9-10.6c13.7-4.8,24.9-11.7,32-19.5
		c4.3-4.8,9.3-10.9,19.2-11.2c6.8-0.2,12.8,2.8,15.3,6.3c11.3,16.4,3.3,38.5,7.1,55.9c3.3,15.6,16.1,30,30.8,43.2
		c30,27.1,74,50.7,94.7,80.7c24.8,35.8,12.9,75.6,0.8,113.3c-1.2,4-5.1,6.6-9.2,6.2c-1.9-0.3-3.6-0.9-5.2-1.9
		c-42.7-24.3-61-54.4-78.6-85.9c-21.5-38.2-59.5-72.1-99.2-105.5c-3-2.5-6.2-4.9-9.5-7.2c-8-6-16.2-11.6-24.9-17.3
		c-1.6-1.1-3.4-2.3-3.9-3.7C-2086.5,668.4-2086.1,667.2-2084.9,666.1L-2084.9,666.1z M-1909.7,680.4c-12.3-9.3-17.6-20.8-22.5-31.9
		l-15.3-33.8c-1.8-3.5-12.6-9-10.2-13.1c1-1.6,2.5-2.9,4.3-3.6c8.1-3.3,22.8,1.4,31.5,2.2c10.3,0.8,25.1-1.9,34-4.6
		c15.5-4.7,30.8-12.5,42.9-19.5c25.3-14.8,43.2,49.5,41.4,58.7c-4.3,21.8-15,43.6-21.9,65.2c-0.5,1.7-1.2,3.5-3.4,4.8
		c-2.1,1.2-5.2,1.5-8.1,1.7C-1864.6,708.1-1894.8,691.7-1909.7,680.4z M-2304.3,873c-4.9-5.1-6.9-10.6-8-16.2
		c-0.2-0.9-0.5-1.8-1.1-2.7c-1.2-2.3-2.4-4.6-3.7-6.9c-2-3.4-4-7-6.2-10.4c-1.4-2.3-3.2-4.4-4.6-6.8c-0.4-0.8-0.6-1.7-0.6-2.7
		c-0.4-1.7,0.1-3.6-1.1-5.1c-4.9-6.2-5.6-12.9-8.9-19.3c-1.4-2.9-1.9-5.9-2.9-8.8c-0.2-0.7-0.5-1.4-0.8-2
		c-3.6-5.5-6.1-11.7-7.1-18.2c-1.2-7.8-3.5-15.6-5.2-23.2c-0.7-3.1-0.3-6.3-1.7-9.2c-3.2-6.5-3.5-13.3-6.2-19.9
		c-2.4-6-2.6-12.3-3.8-18.5c-0.9-4.6-1.9-9.1-2.7-13.8c-1-5.2-2.2-10.5-2.5-15.7c-0.4-6.5,0.3-13-0.5-19.5c-0.3-2.1-1.4-3.2-5.5-3.8
		c-4.5-0.7-9.1-1.6-11.9-4.2c-3.3-3.1-1.9-5.1,4.4-5.8c3.1-0.4,6.3-0.4,9.4-0.7c3.3-0.4,6.4-0.8,9.6-1.5c2.8-0.6,5.7-0.6,8.6,0
		c2.6,0.6,5.2,1,7.9,1.3c10.5,0.4,8.5,1.2,13-3.6c6.9-7.2,22-12.3,38.2-11.6c2.5,0.1,5.1,0.1,7.5-0.1c3.2-0.3,6.1-0.5,9.2,0.4
		c3,0.8,5.5-0.1,7.9-1.3c4.9-2.5,9.9-5,15.1-7.3c4.6-2,11.7-1.8,16.3,0.2c5.5,2.4,10.8,4.7,14.7,8c3.5,2.8,6.3,6.3,8.3,10.4
		c1.2,2.4,2.4,4.5,7,5.8c1.4,0.5,2.6,1.6,3.1,3.2c1.6,6.1,3.1,12,4.4,18.1c0.7,3.5,1.7,7,1.5,10.6c-0.2,2.9,1.7,6.1,2,9.1
		c0.5,6.2,1.4,12.4,2.3,18.6c0.3,2.1,1,4.1,1.4,6.2c1.1,4.9,3.3,9.9,3,14.7c-0.3,5.2,3.5,9.9,3.3,14.8c0,1.2,0.3,2.3,0.3,3.4
		c-0.2,5.2-0.5,10.3-0.7,15.5c0,0.4-0.2,0.7,0,1c3.6,5.6,1.5,11.4,0.9,17c-0.5,4.6-0.9,9.1,0.6,13.8c1.4,4.5,3.3,9,1.8,13.7
		c-0.5,1.6,0.8,3.3,1.1,5.1c0.9,6.1,1.8,12.1,2.4,18.3c-0.1,1.2-0.8,2.7-1.4,4.2c-3.1,7.1-6.2,14.1-9.4,21.2
		c-2.4,5.1-5.2,10.1-7.6,15.3c-1,2-1.7,4.2-2.2,6.4c-0.9,4.6-2.7,8.9-5.4,12.8c-1.1,1.5-1.1,3.3-1.9,5.1c-3,5.6-5.3,11.4-9.5,16.7
		c-2.6,3.3-7.2,6.6-12.4,9c-6.9,3.2-15,5.5-22.9,8c-10.5,3.3-21.9-0.5-21.8-8.4c-1-2.1-1.7-5.8-4.5-8.9c-4.8-5.3-8.1-10.8-9.2-16.6
		c-0.1-0.6-0.8-1.3-1.4-1.9c-2.1-2.5-4.3-5-6.2-7.5C-2301.8,876.6-2302.6,874.7-2304.3,873L-2304.3,873z M-1722.5,2873l2.4,0.1
		C-1720.9,2873.1-1721.7,2873.1-1722.5,2873z M-1750.3,2792.1c-44.7,28.8-197.6,68.5-213.8,22.3
		c-17.1-54.4-95.3-1148.8-105.4-1227.3c-5.2-40.7-10.4-81-15.3-120.4c-14.7-118.4-27.7-230-37.6-325.6
		c-10.7-101.4-18-184.9-20.8-240.1c-3.4-68.7-23.6-158,20.3-223.7c53.2,37.8,93.1,81.3,117,127.1c12.3,23.6,20.6,48,42.2,69.6
		c23.4,23.2,60.7,41.1,94.3,60.2c35.2,20.1,63.3,98.3,85.7,211.1c2.6,13.3,5.2,27,7.7,41.2c6.2,36.1,12,74.9,17.3,115.9
		c12.2,94.9,21.8,201.5,29.2,312.1c3.6,53.6,14.6,925.2,15.9,971.6C-1705.1,2702.9-1734.4,2787.8-1750.3,2792.1z M-1411.5,2687.1
		c-4.3,36.4-134.3,122.2-140.8,83.9c-4-23.8-6-832.7-5.6-1061.8c0.1-74.5,0.5,986.3,1.1,903.7c0.5-57.3,1-749.7,1.7-808.2
		c2-168.9,5.1-337.8,9.3-479.8c0.5-16.8,1-33.3,1.5-49.2c1.9-54.8,3.9-104.7,6.2-147.7c4.9-92.4,10.7-153.9,17.5-166.8
		c12.8-24.5,32.7-48.4,29.2-78c-2.3-18.4-13.6-33.9-25.6-47.4c-23.1-26-41.3-54.8-62.7-81.9c-7.7-9.8-18.3-18.9-19.2-32.2
		c-1.9-27.6-0.9-56.6,1.8-84.7c2.1-21.9,4.9-46.7,23.7-61.1c11.7-8.9,17,1.5,26.7-0.3c11.5-2.2,17.6-5.2,27.4-11.6
		c13.3-8.7,37.5-2,47-10.5c4.3-3.8,5.9-8.5,12-11.4c10-4.9,27.1-1.8,34.7,4.3s8.4,13.8,8.8,21.2c0.2,3.2,0.4,6.2,0.5,9.4
		c3.6,80.5-2.2,161.2,10.1,241.5c8,51.9,23.3,103.9,18.5,155.8c0,0.5-0.1,5.6-0.1,14.8c-0.2,57.7-0.1,274.1,1.2,476.9
		c0.4,61.6,0.8,122,1.4,176.3C-1384.4,1691.8-1409.2,2667.7-1411.5,2687.1z M-1096,2721.8c-81.9-22.5-137.3-39.3-137.5-43.3
		c-3.3-61.5-9-633-14.5-1048c-1.2-85.5-2.3-169.6-3.3-249c-3.4-251.2-6.6-453.9-8.8-493.9c-1-18.5-1.9-37.2,7.1-54.8
		c7.3-14.7,21.3-28.1,32.3-42.2c35.3-44.9,39.6-94,47.1-141.9c0.7-4.6,2.3-9.1,3.3-13.7c3.3-13.4,47.9-23.1,65-31.8
		c9-4.7,17.7-10,26-16v-439c-2-0.2-4-0.5-6-0.6c-16.6-1.5-33.1-3.4-49.6-5.2c-1.3-0.2-2.5-0.3-3.8-0.5c-0.6-0.1-1.3-0.1-1.9-0.1
		c-7.8,0.7-14.7-1.3-21.2-2.7c-8.2-1.8-16.6-2.8-25.1-2.8c-5.1,0-10.2,0.3-15.2-0.1c-2.9-0.4-5.8-0.2-8.6,0.4
		c-19.9,5-44.3,7.1-65.8,11.7c-6.2,1.3-12.4,1.7-18.6,1.3c-8.4-0.5-25.9,0.5-32.9-2c-8.7-3-5.4-9-14.4-12.6
		c-6.2-2.4-14-3.1-21.5-3.5c-37-2.4-75.9-2.5-112,3.1c-33,5.2-69.9,28.2-104.8,24.2c-6.3-0.7-13-0.5-19.5-1
		c-3.1-0.4-6.2-0.2-9.1,0.6c-2.2,0.5-4.4,0.8-6.7,0.7c-25-0.7-39.3,8-62.9,10.5c-0.9,0.2-1.8,0.5-2.6,0.9c-1.7,0.5-3.4,0.9-5.2,1.3
		c-3.5,0.7-7.2,1.3-10.8,2c-5.3,1.2-10.5,2.4-15.7,3.6c-47.6,10.7-93,21-129.4,41.6c-16.6,9.5-51,6.2-61.6,2.2
		c-10.5-4.1-24.6-3.9-37.4-3c-33.2,2.4-65.6,8.5-94.4,17.7c-7.8,2.5-15.7,5.3-24.7,5.6c-6,0.2-11.9-0.7-17.7-1.5
		c-60-8.1-126.8,0.8-173.2,23.1c-4.6,2.3-9.4,4.9-9.9,8.3c-0.4,2.4,1.7,4.8,2.8,7.2c6.2,13.8-19,25.1-41.1,32.7
		c-5.2,1.9-10.5,3.3-15.9,4.3c-3,0.4-6.1,0.5-9.1,0.6c-3.1,0.1-6.2,0.1-9.1,0.1c-47.8,0.1-99.3,13-127.9,34.3
		c-26.1,19.4,1.1,51.5-36.6,65.9c-15.9,6.1-35.9,9.9-46.9,18.6c-4.7,3.7-9.8,8.9-17.9,8.1c-4.1-0.4-7.2-2.2-11.3-2.7
		c-10.5-1.4-16.4,6-22,11c-13.7,12.1-44.6,15.1-61.2,26.1c-17.7,11.9-13.9,29-9.2,44c6.5,20.7,13.8,42.2,37.7,58.7
		c21.8,15,54.6,23.8,86.3,31.9c26.2,6.8,52.7,17.1,81.3,18.8c3.3,0.2,5.6,1.1,6.6,2.8c1.3,2.2,2.3,4.4,3.5,6.6
		c0.9,1.7,2.2,3.3,3.5,4.7c2.5,2.4,4.6,4.6,4.3,7.5c-0.1,0.9-0.1,1.8,0.2,2.7c23.4,91.6,23.2,186.7,95,272.8
		c12.5,14.9,26.9,29.5,37,44.9c2,3.1,6.1,74.6,10.9,187.8c0.4,8.5,0.7,17.3,1.1,26.2c3,73.4,6.3,161.8,9.5,258.9
		c4.7,141.8,9.3,936.5,12.9,1096.7c3.1,135.8,7.2,106.1,5.6,190.8c-0.1,3.1-0.1,6.2-0.2,9.3c-2.5,116.4-6.9,109.5-16.6,123.8
		c-7.1,10.3-120.1,135.3-108.8,161c15.6,1.2,44.7-4.3,116.6-32.3l0.9-0.4c102.6-39.8,241.9-52,354.6-31l90.6,16.9
		c111.5,20.8,249.1,9.1,351.4-29.8l40.9-15.6c102.6-39,240.6-50.6,352.2-29.6l11,2.1v-181.4
		C-1084.8,2724.9-1090.5,2723.3-1096,2721.8z"/>
	<path id="Path_6_3_" class="st5" d="M-2115.1,2786.9"/>
	<path id="Path_7_3_" class="st5" d="M-2095.9,2779.2"/>
</g>
<linearGradient id="SVGID_10_" gradientUnits="userSpaceOnUse" x1="-5240.7451" y1="496.25" x2="-5240.7451" y2="24.0012" gradientTransform="matrix(0.9047 0 0 0.9047 -701.6003 9716.167)">
	<stop  offset="0" style="stop-color:#FFFFFF;stop-opacity:0"/>
	<stop  offset="0.325" style="stop-color:#D8EBEA;stop-opacity:0.325"/>
	<stop  offset="0.776" style="stop-color:#A6D2CE;stop-opacity:0.776"/>
	<stop  offset="1" style="stop-color:#93C8C4"/>
</linearGradient>
<path class="st18" d="M-5222.8,9729.7l-0.8,433l-438.6-4.9c-0.1-14.7,0.6-79.7,0.5-94.4l-1.1-228.3l-0.2-105.1
	c24.7-12.9,54.4-12.1,78.6,3.1l4.5,2.9l17.9,11.2c5.2,3.3,10.8,5.9,16.5,7.9c24.2,8.3,51,4.4,72.4-11.2l10.6-7.7
	c10.9-7.9,23.2-12.8,35.8-14.7c18.1-2.6,37,1.1,53.3,11.5l23,14.4c27.3,17.2,61.7,16.3,88-2.4l6.8-4.8l3.6-2.6
	C-5242.9,9731.5-5233,9727.1-5222.8,9729.7z"/>
<linearGradient id="SVGID_11_" gradientUnits="userSpaceOnUse" x1="-6037.5283" y1="495.602" x2="-6037.5283" y2="-160.6749" gradientTransform="matrix(0.9047 0 0 0.9047 -701.6003 9716.167)">
	<stop  offset="0" style="stop-color:#FFFFFF;stop-opacity:0"/>
	<stop  offset="0.325" style="stop-color:#D8EBEA;stop-opacity:0.325"/>
	<stop  offset="0.776" style="stop-color:#A6D2CE;stop-opacity:0.776"/>
	<stop  offset="1" style="stop-color:#93C8C4"/>
</linearGradient>
<path class="st19" d="M-5977.3,9577.4v587.8l-75.8-2.1l-179.1-10.5l-104,2.7l-12.8-45.1l-0.9-280.6l-0.2-129.1
	c0-22.5-0.1-45.9-0.1-69.9c0-5.5,0-11,0-16.6l4,1.9l33.9,15.8c8,3.7,16.6,5.7,25.5,5.9c1.7,0.1,3.5,0.1,5.2-0.1
	c16.6-0.8,33.7-7.4,47.6-19.2l0.2-0.2c3.4-3,7.1-5.6,10.9-8c20.3-12.2,44.5-14.9,64.7-6.6l19.4,8c1.4,0.6,2.7,1,4.1,1.5
	c23,7.5,50.3,1.7,70.9-15.5l8.7-7.3c19.4-16.2,44.6-22.3,66.6-16.7c2.9,0.7,5.8,1.7,8.6,2.8L-5977.3,9577.4z"/>
<linearGradient id="SVGID_12_" gradientUnits="userSpaceOnUse" x1="-5240.6895" y1="574.3394" x2="-5240.6895" y2="332.0886" gradientTransform="matrix(0.9047 0 0 0.9047 -701.6003 9716.167)">
	<stop  offset="0" style="stop-color:#FFFFFF;stop-opacity:0"/>
	<stop  offset="0.325" style="stop-color:#D8EBEA;stop-opacity:0.325"/>
	<stop  offset="0.776" style="stop-color:#A6D2CE;stop-opacity:0.776"/>
	<stop  offset="0.9409" style="stop-color:#93C8C4"/>
</linearGradient>
<path class="st20" d="M-5222.8,9900v262.3l-438.7-4c-0.1-12.1-0.2-81.9-0.3-94l-1.1-189.6c26.6,21.3,60.5,21.3,87.1,0.4
	c1.5-1.2,3-2.4,4.4-3.7l0.3-0.2c0.2-0.2,0.5-0.4,0.6-0.5c26.4-23.4,61.3-25.1,89.1-4.2l19.5,14.6l3.1,2.3
	c27.7,20.8,62.5,19.2,88.9-4l10.6-9.3c26.4-23.3,61.3-24.8,89-3.9h0.1l23,17.3C-5239.7,9889.5-5231.3,9893.6-5222.8,9900z"/>
<linearGradient id="SVGID_13_" gradientUnits="userSpaceOnUse" x1="-6029.2388" y1="897.1697" x2="-6029.2388" y2="41.2605" gradientTransform="matrix(0.9047 0 0 0.9047 -701.6003 9716.167)">
	<stop  offset="0" style="stop-color:#FFFFFF;stop-opacity:0"/>
	<stop  offset="0.325" style="stop-color:#D8EBEA;stop-opacity:0.325"/>
	<stop  offset="0.776" style="stop-color:#A6D2CE;stop-opacity:0.776"/>
	<stop  offset="0.9409" style="stop-color:#93C8C4"/>
</linearGradient>
<path class="st21" d="M-5929.2,9218.5l-15.4,1049.7l-438.7-4c-0.1-12.1,15.2-869.2,15.1-881.4l-1.1-189.6
	c26.6,21.3,60.5,21.3,87.1,0.4c1.5-1.2,3-2.4,4.4-3.7l0.3-0.2c0.2-0.2,0.5-0.4,0.6-0.5c26.4-23.4,61.3-25.1,89.1-4.2l19.4,14.6
	l3.1,2.3c27.7,20.8,62.5,19.2,88.9-4l10.6-9.3c26.4-23.3,61.3-24.8,89-3.9h0.1l23,17.3C-5946.1,9208-5937.7,9212.1-5929.2,9218.5z"
	/>
<linearGradient id="SVGID_14_" gradientUnits="userSpaceOnUse" x1="-5297.4487" y1="567.1565" x2="-5297.4487" y2="410.3569" gradientTransform="matrix(0.9047 0 0 0.9047 -701.6003 9716.167)">
	<stop  offset="0" style="stop-color:#FFFFFF;stop-opacity:0"/>
	<stop  offset="0.325" style="stop-color:#D8EBEA;stop-opacity:0.325"/>
	<stop  offset="0.776" style="stop-color:#A6D2CE;stop-opacity:0.776"/>
	<stop  offset="0.9409" style="stop-color:#93C8C4"/>
</linearGradient>
<path class="st22" d="M-5307.9,10014.4v167.4l-371.5-2.8c-0.1-8.5-0.1-41.6-0.2-50.1l-0.9-132.1c22.5,14.8,51.3,14.8,73.8,0.3
	c1.3-0.8,2.5-1.7,3.7-2.6l0.2-0.1c0.2-0.1,0.4-0.3,0.5-0.4c22.3-16.3,51.9-17.5,75.4-2.9l16.5,10.2l2.6,1.6
	c23.4,14.5,52.9,13.4,75.3-2.8l9-6.5c22.4-16.2,51.9-17.3,75.4-2.7c0,0,0,0,0.1,0l19.4,12.1
	C-5322.1,10007.1-5315.1,10009.9-5307.9,10014.4z"/>
<path class="st23" d="M-5378.5,10089.6c-3.3,3.3-8.1,5.6-15.7,5.9c-28.8,1-51.8,57-64.4,58c-3.4,0.3-21.1-0.5-40.5-2.3
	c-20.9-1.8-43.8-4.6-53.3-8c-12.7-4.4-104.2-64.8-107.1-109.3c-0.2-2.3,21.2-7594.2,30.3-7624.3c12.8-41,153-67,158.9-85.1
	c10-9.7,46-72.2,58.5-80.2c6.1-7.4,13.9-12.8,21-19.2c1.6-1.4,3.2-3,4.6-4.5c10.1-10.8,16.2-24.6,22.2-38.3
	c5.9-0.5,11.8,0.4,17.6,1.3c8,1.2,7.1-2.3,14.8-4c4.2-0.9,3.3-9.7,4-10c3.2-9.7,13.9-7.7,14.5-21.9c-0.5-18.2-3.9-7.1-7.1-23
	c-0.3-1.2-3.5-6.2-8.4-11.1c4.8-15.7-10.4-22.2-5.2-25.4c-8.1-24.2-20.2-16.2-24.8-25.1c-10.6-20.1-21.7-10.1-28-13.5
	c-11.8-6.2-14.4-16.5-27.7-20.4c-12.1-3.6-18.4,2-30.7-1.1c-8.3-2.1-24.1-12.3-32.7-11.8c-8.1,0.5-1.4-3.1-9.3-2.4
	c-19.7,1.9-29.1-20.1-48.1-9c-6.2,3.6-17,3.3-27.3,2.4c-10.3-0.9-15.5,2.7-22,7.2c-10,6.9-10.8,16.6-23.4,17.2
	c-14.8,0.6-48.9-7.6-32.8,47.5l-3.6,59c12.5,18.8-13.2-1.8-13.3,13.6c-0.3,38.8,10.1,87.8,10.4,112.5
	c0.4,58-25.1,7363.2-24.6,7421.2c0.3,29.2,0.5,148.1,0.7,253.5c0,3.3,0,6.6,0,10c0,14.4,0.1,28.4,0.1,41.9l0.1,19.7
	c0.1,18.8,0.1,33.2,0.2,41.1c0.3,37,0.6,74,0.9,111c0,4.2,0.1,8.3,0.1,12.5c0.1,10.8,0.9-5.3,1,5.4h366.7l-0.7-131.6
	C-5370.6,10049.4-5366,10077.1-5378.5,10089.6z M-5435.8,2191.9c4.1-6.5,24.9-4,32.4-5.4c3.7-0.7,25.1-12.2,24.6-4.4
	c-0.5,7.4-3.9,15.7-8.2,21.7c-7.6,10.5-21.6,11.9-31.7,23.2c-0.5,0.1-15.7,16.1-16,15.1c-0.9-3.3-3.4-34.1-3.7-37.6
	C-5438.8,2200.1-5438.2,2195.7-5435.8,2191.9z M-5572.7,2271.9c-13.1-17.2-14.2-57.3,7.5-96.1c6.5-11.7,15-19.3,24.3-24.1
	c10.2-5.3,19.3,5.3,29.7,5c17.1-0.6,6.5,14.5,11.2,16c2.4,5.6,5.2,10,6.7,11.3c2.7,2.4,6.3,3.6,9.8,4.8c0.6,0.2,1.3,0.5,1.9,0.7
	c13.9,6.2,8.2,26.9,20.1,15.9c4.6,7.9,7.8,17.6,7.2,26.8c-0.5,7.9,1.8,14.6-0.7,22c-2.1,6.1-36.5,27.1-42.8,31.5
	c-0.5,0.4-0.9,0.6-1.4,0.9c0.2,0.1,0.4,0.2,0.5,0.3c0,0-0.2,0.3-0.3,0.4c-0.2-0.2-0.4-0.3-0.5-0.5l0,0
	C-5508.1,2291.4-5550.5,2299.1-5572.7,2271.9z"/>
<linearGradient id="SVGID_15_" gradientUnits="userSpaceOnUse" x1="-4213.3877" y1="564.8738" x2="-4213.3877" y2="-93.9799" gradientTransform="matrix(0.9047 0 0 0.9047 -701.6003 9716.167)">
	<stop  offset="0" style="stop-color:#FFFFFF;stop-opacity:0"/>
	<stop  offset="0.325" style="stop-color:#D8EBEA;stop-opacity:0.325"/>
	<stop  offset="0.776" style="stop-color:#A6D2CE;stop-opacity:0.776"/>
	<stop  offset="1" style="stop-color:#93C8C4"/>
</linearGradient>
<path class="st24" d="M-4327,9638.4v589.5l-75.8-2.3l-180.4-5.3l-102.7-3.1l-12.8-0.4l-0.9-304.6l-0.2-140.2
	c0-24.4-0.1-49.8-0.1-75.9c0-6,0-11.9,0-18l4,2l34,17.2c8,4,16.6,6.2,25.5,6.4c1.7,0.1,3.5,0.1,5.2-0.1c16.7-0.8,33.7-8.1,47.6-20.9
	l0.2-0.2c3.4-3.3,7.1-6.1,10.9-8.6c20.3-13.3,44.5-16.2,64.8-7.1l19.4,8.6c1.4,0.6,2.7,1.2,4.1,1.6c23,8.2,50.3,1.9,70.9-16.8l8.8-8
	c19.4-17.6,44.6-24.2,66.7-18.2c2.9,0.8,5.8,1.8,8.6,3.1L-4327,9638.4z"/>
<linearGradient id="SVGID_16_" gradientUnits="userSpaceOnUse" x1="-4213.4429" y1="599.175" x2="-4213.4429" y2="122.154" gradientTransform="matrix(0.9047 0 0 0.9047 -701.6003 9716.167)">
	<stop  offset="0" style="stop-color:#FFFFFF;stop-opacity:0"/>
	<stop  offset="0.325" style="stop-color:#D8EBEA;stop-opacity:0.325"/>
	<stop  offset="0.776" style="stop-color:#A6D2CE;stop-opacity:0.776"/>
	<stop  offset="1" style="stop-color:#93C8C4"/>
</linearGradient>
<path class="st25" d="M-4327.1,9819.7v436l-371.5-5.6c-0.1-16.9-0.1-28.2-0.2-45.1l-0.9-263.5l-0.2-121.3
	c20.9-14.9,46.1-13.9,66.6,3.5l3.9,3.3l15.2,12.9c4.4,3.8,9.1,6.9,14,9c20.4,9.6,43.2,5.2,61.3-12.9l9-9
	c9.2-9.1,19.6-14.8,30.3-16.9c15.4-3,31.3,1.4,45.1,13.2l19.5,16.7c23.2,19.8,52.2,18.7,74.6-2.8l5.7-5.5l3.1-3
	C-4344.1,9821.7-4335.8,9816.7-4327.1,9819.7z"/>
<linearGradient id="SVGID_17_" gradientUnits="userSpaceOnUse" x1="-4213.3877" y1="727.5554" x2="-4213.3877" y2="457.4695" gradientTransform="matrix(0.9047 0 0 0.9047 -701.6003 9716.167)">
	<stop  offset="0" style="stop-color:#FFFFFF;stop-opacity:0"/>
	<stop  offset="0.325" style="stop-color:#D8EBEA;stop-opacity:0.325"/>
	<stop  offset="0.776" style="stop-color:#A6D2CE;stop-opacity:0.776"/>
	<stop  offset="0.9409" style="stop-color:#93C8C4"/>
</linearGradient>
<path class="st26" d="M-4327.1,10013.4v279.1l-371.6-5.5c-0.1-16.9-0.1-28.2-0.2-45.1l-0.9-263.5c22.5,29.6,51.3,29.6,73.8,0.5
	c1.3-1.6,2.5-3.3,3.7-5.2l0.2-0.3c0.2-0.3,0.4-0.5,0.5-0.7c22.3-32.5,51.9-34.8,75.4-5.8l16.5,20.4l2.6,3.2
	c23.4,28.9,52.9,26.8,75.3-5.5l9-12.9c22.4-32.4,51.9-34.5,75.4-5.3c0,0,0,0,0.1,0.1l19.5,24.2
	C-4341.3,9998.8-4334.4,10004.5-4327.1,10013.4z"/>
<path class="st23" d="M-4419.1,10089.6c-3.3,3.3-8.1,5.6-15.7,5.9c-28.8,1-51.8,57-64.4,58c-3.4,0.3-21.1-0.5-40.5-2.3
	c-20.9-1.8-43.8-4.6-53.3-8c-12.7-4.4-104.2-64.8-107.1-109.3c-0.2-2.3,21.2-7594.2,30.3-7624.3c12.8-41,153-67,158.9-85.1
	c10-9.7,46-72.2,58.5-80.2c6.1-7.4,13.9-12.8,21-19.2c1.6-1.4,3.2-3,4.6-4.5c10.1-10.8,16.2-24.6,22.2-38.3
	c5.9-0.5,11.8,0.4,17.6,1.3c8,1.2,7.1-2.3,14.8-4c4.2-0.9,3.3-9.7,4-10c3.2-9.7,13.9-7.7,14.5-21.9c-0.5-18.2-3.9-7.1-7.1-23
	c-0.3-1.2-3.5-6.2-8.4-11.1c4.8-15.7-10.4-22.2-5.2-25.4c-8.1-24.2-20.2-16.2-24.8-25.1c-10.6-20.1-21.7-10.1-28-13.5
	c-11.8-6.2-14.4-16.5-27.7-20.4c-12.1-3.6-18.4,2-30.7-1.1c-8.3-2.1-24.1-12.3-32.7-11.8c-8.1,0.5-1.4-3.1-9.3-2.4
	c-19.7,1.6-29.1-20.3-48.1-9.3c-6.2,3.6-17,3.3-27.3,2.4c-10.3-0.9-15.5,2.7-22,7.2c-10,6.9-10.8,16.6-23.4,17.2
	c-14.8,0.6-48.9-7.6-32.8,47.5l-3.6,59c12.5,18.8-13.2-1.8-13.3,13.6c-0.3,38.8,10.1,87.8,10.4,112.5
	c0.5,58-25.1,7363.2-24.5,7421.2c0.3,29.2,0.5,148.1,0.7,253.5c0,3.3,0,6.6,0,10c0,14.4,0.1,28.4,0.1,41.9l0.1,19.7
	c0.1,18.8,0.1,33.2,0.2,41.1c0.3,37,0.6,74,0.9,111c0,4.2,0.1,8.3,0.1,12.5c0.1,10.8,0.9-5.3,1,5.4h366.7l-0.7-131.6
	C-4411.2,10049.4-4406.6,10077.1-4419.1,10089.6z M-4476.4,2191.9c4.1-6.5,24.9-4,32.4-5.4c3.7-0.7,25.1-12.2,24.6-4.4
	c-0.5,7.4-3.9,15.7-8.2,21.7c-7.6,10.5-21.6,11.9-31.7,23.2c-0.5,0.1-15.7,16.1-16,15.1c-0.9-3.3-3.4-34.1-3.7-37.6
	C-4479.3,2200.1-4478.8,2195.7-4476.4,2191.9z M-4613.3,2271.9c-13.1-17.2-14.2-57.3,7.5-96.1c6.5-11.7,15-19.3,24.3-24.1
	c10.2-5.3,19.3,5.3,29.7,5c17.1-0.6,6.5,14.5,11.2,16c2.4,5.6,5.2,10,6.7,11.3c2.7,2.4,6.3,3.6,9.8,4.8c0.6,0.2,1.3,0.5,1.9,0.7
	c13.9,6.2,8.2,26.9,20.1,15.9c4.6,7.9,7.8,17.6,7.2,26.8c-0.5,7.9,1.8,14.6-0.7,22c-2.1,6.1-36.5,27.1-42.8,31.5
	c-0.5,0.4-0.9,0.6-1.4,0.9c0.2,0.1,0.4,0.2,0.5,0.3c0,0-0.2,0.3-0.3,0.4c-0.2-0.2-0.4-0.3-0.5-0.5l0,0
	C-4548.7,2291.4-4591,2299.1-4613.3,2271.9z"/>
<path d="M-4750.2,5107.8"/>
<linearGradient id="SVGID_18_" gradientUnits="userSpaceOnUse" x1="-2094.5085" y1="-2059.5125" x2="-2094.5085" y2="-3352.9944" gradientTransform="matrix(0.9047 0 0 0.9047 -701.6003 9716.167)">
	<stop  offset="0" style="stop-color:#FFFFFF;stop-opacity:0"/>
	<stop  offset="0.325" style="stop-color:#D8EBEA;stop-opacity:0.325"/>
	<stop  offset="0.776" style="stop-color:#A6D2CE;stop-opacity:0.776"/>
	<stop  offset="1" style="stop-color:#93C8C4"/>
</linearGradient>
<path class="st27" d="M-1940.9,6696.6v1157.8l-266.5-4.4l-634.3-10.5l-361-6l-45.2-0.7l-3.2-598.2l-0.6-275.4
	c-0.1-47.9-0.2-97.9-0.3-149.1c0-11.8-0.1-23.5-0.1-35.4l14.1,4l119.4,33.7c28,7.9,58.4,12,89.7,12.6c6.2,0.1,12.3,0.1,18.5-0.1
	c58.7-1.6,118.5-15.7,167.4-41l0.7-0.4c12.2-6.3,25.2-11.9,38.5-16.9c71.1-26.1,156.4-31.8,227.6-14.1l67.9,16.9
	c4.8,1.2,9.6,2.3,14.5,3.3c80.9,16.1,176.9,3.7,249.3-33l30.7-15.6c68-34.5,156.8-47.5,234.3-35.6c10.2,1.5,20.3,3.6,30.1,6.1
	L-1940.9,6696.6z"/>
<g class="st28">
	<g>
		<g>
			
				<linearGradient id="SVGID_19_" gradientUnits="userSpaceOnUse" x1="-1534.7096" y1="-5333.7642" x2="-1534.7096" y2="-1905.6541" gradientTransform="matrix(0.9047 0 0 0.9047 -701.6003 9716.167)">
				<stop  offset="0" style="stop-color:#FFFFFF;stop-opacity:0"/>
				<stop  offset="0.325" style="stop-color:#D8EBEA;stop-opacity:0.325"/>
				<stop  offset="0.776" style="stop-color:#A6D2CE;stop-opacity:0.776"/>
				<stop  offset="1" style="stop-color:#93C8C4"/>
			</linearGradient>
			<polygon class="st29" points="-1427.1,4847.5 -1427.1,6246.7 -1530.2,6588.5 -1556.7,6688.4 -1635.3,6985.7 -1694.1,7207.6 
				-1775.4,7515.1 -1775.4,7515.2 -1860.5,7849.9 -1886.5,7935.1 -2753,7935.1 -2705.5,7839.4 -2667.6,7740.7 -2615.8,7623 
				-2480.9,7316.3 -2453.8,7254.5 -2356.9,7034.3 -2313.9,6936.7 -2241.8,6772.6 -2194.1,6664.3 -2147.9,6559.2 -2119.2,6493.7 
				-2043.2,6321 -1978.1,6172.8 -1911.9,6022.1 -1785.7,5735 -1762.4,5682 -1649.5,5425.6 -1636.5,5395.9 -1506.4,5100.1 			"/>
		</g>
	</g>
</g>
<image style="overflow:visible;enable-background:new    ;" width="3103" height="3103" xlink:href="nessy.png"  transform="matrix(7.108217e-02 0 0 7.108217e-02 -2335.813 6858.248)">
</image>
<g class="st2">
	<g>
		<g>
			
				<linearGradient id="SVGID_20_" gradientUnits="userSpaceOnUse" x1="-1831.3826" y1="-6373.0063" x2="-1831.3826" y2="-1886.1741" gradientTransform="matrix(0.9047 0 0 0.9047 -701.6003 9716.167)">
				<stop  offset="0" style="stop-color:#FFFFFF;stop-opacity:0"/>
				<stop  offset="0.325" style="stop-color:#D8EBEA;stop-opacity:0.325"/>
				<stop  offset="0.776" style="stop-color:#A6D2CE;stop-opacity:0.776"/>
				<stop  offset="1" style="stop-color:#93C8C4"/>
			</linearGradient>
			<path class="st30" d="M-1464.7,3894v511.4l-0.4,0.7l-213.5,423.7l-43.3,86.2l-199,394.9l-231.9,459.7l-32,63.5l-242.3,480.6
				l-135.6,268.9l-77.9,154.9l-14.2,28.2l-62,123l-68.1,135l-37.8,74.8l-61.6,122.1l-19.3,38.2l-19.7,39.1l-263.1,534.6l-43,85.2
				l-14.7,16.4h-1.6c-0.3-38.4-0.6-64-1-102.4c-0.1-14.7-0.3-29.6-0.4-44.3c-1-131.7-2.1-276.1-3.2-407.8
				c-0.3-28-0.5-79.1-0.7-146.1l-0.8-275.4c-0.1-47.9-0.3-97.9-0.4-149.1l14.3-23.9l4.4-7.4l150.9-253l129-216.1l23.2-39
				l192.2-322.5l191-320.2l39.6-66.4l189.1-317.4l94.3-157.5l57-95.6l4-6.9l199.7-334.9l416-697.6l33.1-55.5L-1464.7,3894z"/>
		</g>
	</g>
</g>
<linearGradient id="SVGID_21_" gradientUnits="userSpaceOnUse" x1="-2094.2322" y1="-1948.6409" x2="-2094.2322" y2="-3031.5261" gradientTransform="matrix(0.9047 0 0 0.9047 -701.6003 9716.167)">
	<stop  offset="0" style="stop-color:#FFFFFF;stop-opacity:0"/>
	<stop  offset="0.325" style="stop-color:#D8EBEA;stop-opacity:0.325"/>
	<stop  offset="0.776" style="stop-color:#A6D2CE;stop-opacity:0.776"/>
	<stop  offset="1" style="stop-color:#93C8C4"/>
</linearGradient>
<path class="st31" d="M-1940.9,6957.8v990l-1306.2-12.7c-0.2-38.4-0.5-64-0.7-102.4l-3.2-598.2l-0.6-275.4
	c73.6-33.9,162-31.7,234.1,8.1l13.6,7.5l53.4,29.4c15.7,8.7,32.2,15.6,49.1,20.6c71.8,21.7,151.9,11.7,215.5-29.3l31.5-20.3
	c32.4-20.8,69-33.7,106.7-38.4c54-6.8,110.1,3.1,158.7,30l68.4,37.9c81.3,45.1,183.6,42.6,262.2-6.3l20.2-12.6l10.9-6.8
	C-2000.7,6962.3-1971.3,6951-1940.9,6957.8z"/>
<linearGradient id="SVGID_22_" gradientUnits="userSpaceOnUse" x1="-2093.9006" y1="-1749.303" x2="-2093.9006" y2="-2362.4255" gradientTransform="matrix(0.9047 0 0 0.9047 -701.6003 9716.167)">
	<stop  offset="0" style="stop-color:#FFFFFF;stop-opacity:0"/>
	<stop  offset="0.325" style="stop-color:#D8EBEA;stop-opacity:0.325"/>
	<stop  offset="0.776" style="stop-color:#A6D2CE;stop-opacity:0.776"/>
	<stop  offset="0.9409" style="stop-color:#93C8C4"/>
</linearGradient>
<path class="st32" d="M-1940.9,7314.2v633.6l-1306.2-12.7c-0.2-38.4-0.5-64-0.7-102.4l-3.2-598.2c79.3,67.1,180.3,67.1,259.5,1.3
	c4.5-3.7,8.9-7.6,13.1-11.8l0.7-0.6c0.6-0.5,1.3-1.2,1.8-1.7c78.6-73.8,182.6-79.2,265.3-13.2l57.9,46.1l9.1,7.2
	c82.4,65.7,186,60.7,264.6-12.6l31.5-29.3c78.8-73.5,182.6-78.3,265.1-12.2c0.1,0.1,0.2,0.1,0.2,0.2l68.4,54.8
	C-1990.9,7281.1-1966.3,7294-1940.9,7314.2z"/>
<path class="st23" d="M-2093.9,7365.3c-12,12-28.6,20.1-56,21c-102.6,3.6-184.5,203-229.2,206.6c-12.2,1-75.1-2.1-144.2-8.1
	c-74.4-6.4-156-16.3-189.9-28.2c-45.1-15.7-64-288.4-74.6-446.7c-0.5-8-1.1-15.9-1.6-24.1c-5.2-78.9-54.5-2077.6-21.9-2184.9
	c45.3-145.8,262.2-85.2,283.1-149.8c35.5-34.4,163.6-256.9,208.5-285.7c21.4-26.3,49.6-45.8,74.6-68.4c5.7-5.2,11.2-10.5,16.5-16.1
	c36-38.2,57.8-87.8,79.1-136.2c21-1.6,42,1.4,63,4.6c28.4,4.3,25-8,52.7-14c14.8-3.3,12-34.5,14.1-35.4
	c11.1-34.4,49.5-27.5,51.5-77.8c-2-64.6-13.8-25.4-25.2-81.8c-0.9-4.3-12.7-22.3-30-39.6c17.1-55.8-37.1-78.9-18.4-90.6
	c-28.9-85.9-71.7-57.8-88.2-89.1c-37.6-71.5-77.3-36-99.9-47.9c-41.8-22.1-51.2-58.5-98.4-72.6c-43.1-12.8-65.3,7.1-109.3-3.7
	c-29.6-7.3-85.8-43.7-116.2-41.9c-28.8,1.7-5.2-10.9-33.4-8.5c-70.3,5.8-103.9-72.3-171.4-33.3c-22.2,12.9-60.7,12-97.4,8.6
	c-36.7-3.3-55,9.7-78.3,25.8c-35.4,24.5-38.4,59.3-83.4,61.2c-52.8,2.3-174.3-27.2-116.8,169.2l-12.8,210.2
	c44.4,66.9-47-6.5-47.5,48.3c-1.1,138.3,36.2,312.8,36.9,400.7c1.6,206.4,17.9,1183.7,19.6,1390c0.8,103.9,1.6,527.2,2.5,902.7
	c0,11.9,0.1,23.6,0.1,35.4c0.1,51.1,0.3,101.1,0.4,149.1l0.2,70.3c0.3,67,0.5,118.1,0.7,146.1c1.1,131.7,2.2,263.4,3.2,395.2
	c0.1,14.8,0.3,29.6,0.4,44.3c0.4,38.4,0.6,89.4,1,127.7H-1824v-577.2C-2066,7222.4-2049.5,7321.1-2093.9,7365.3z M-2405,4278.8
	c14.6-23.3,88.7-14.2,115.3-19.2c13.3-2.5,89.3-43.3,87.5-15.8c-1.7,26.5-13.8,56-29.2,77.4c-27,37.3-76.9,42.4-112.8,82.4
	c-1.6,0.3-55.9,57.4-56.9,53.9c-3.3-11.7-12.2-121.6-13.1-134C-2415.5,4308-2413.5,4292.5-2405,4278.8z M-2892.6,4563.6
	c-46.8-61.3-50.6-203.9,26.6-342.2c23.2-41.5,53.6-68.6,86.7-85.8c36.4-18.9,68.5,19.1,105.7,17.6c60.8-2.4,23.2,51.5,39.8,56.9
	c8.4,20.1,18.6,35.6,23.7,40.2c9.7,8.8,22.4,13,34.7,17c2.3,0.7,4.5,1.6,6.6,2.5c49.6,21.9,29.4,95.5,71.4,56.8
	c16.5,28,27.7,62.5,25.8,95.4c-1.7,28,6.6,52-2.6,78.3c-7.5,21.5-130,96.7-152.3,112.1c-1.6,1.2-3.3,2.2-4.8,3.1
	c0.5,0.4,1.2,0.7,1.7,1.1c0,0-0.7,1-1.1,1.4c-0.7-0.5-1.4-1.1-2-1.6l-0.1-0.1C-2662.4,4632.8-2813.4,4660.6-2892.6,4563.6z"/>
<path d="M-2721.8,4553.7"/>
<image style="overflow:visible;enable-background:new    ;" width="1536" height="2048" xlink:href="fairy-sit.png"  transform="matrix(0.1325 0 0 0.1325 -2871.8052 4434.4048)">
</image>
<image style="overflow:visible;enable-background:new    ;" width="2339" height="2113" xlink:href="rock_monster.png"  transform="matrix(0.1982 1.457969e-02 -1.457969e-02 0.1982 -2899.957 7219.1777)">
</image>
<image style="overflow:visible;enable-background:new    ;" width="3103" height="3103" xlink:href="mer-skull.png"  transform="matrix(0.1033 0 0 0.1033 -2380.7864 7234.0269)">
</image>
<linearGradient id="SVGID_23_" gradientUnits="userSpaceOnUse" x1="530.3397" y1="-1979.1404" x2="530.3397" y2="-3272.6226" gradientTransform="matrix(0.9047 0 0 0.9047 -701.6003 9716.167)">
	<stop  offset="0" style="stop-color:#FFFFFF;stop-opacity:0"/>
	<stop  offset="0.325" style="stop-color:#D8EBEA;stop-opacity:0.325"/>
	<stop  offset="0.776" style="stop-color:#A6D2CE;stop-opacity:0.776"/>
	<stop  offset="1" style="stop-color:#93C8C4"/>
</linearGradient>
<path class="st33" d="M651.5,6769.3v1157.8l-355-4.4l-844.9-10.5l-480.9-6l-60.2-0.7l-4.3-598.2l-0.8-275.4
	c-0.1-47.9-0.3-97.9-0.4-149.1c0-11.8-0.1-23.5-0.1-35.4l18.8,4l159.1,33.7c37.3,7.9,77.9,12,119.4,12.6c8.1,0.1,16.4,0.1,24.6-0.1
	c78.2-1.6,157.9-15.7,222.9-41l0.9-0.4c16.3-6.3,33.6-11.9,51.4-16.9c94.7-26.1,208.3-31.8,303.1-14.1l90.6,16.9
	c6.3,1.2,12.8,2.3,19.3,3.3c107.7,16.1,235.6,3.7,332.1-33l40.9-15.6c90.6-34.5,208.9-47.5,312.1-35.6c13.7,1.5,27,3.6,40.1,6.1
	L651.5,6769.3z"/>
<g class="st28">
	<g>
		<g>
			
				<linearGradient id="SVGID_24_" gradientUnits="userSpaceOnUse" x1="849.5616" y1="-5253.3921" x2="849.5616" y2="-1825.282" gradientTransform="matrix(0.9047 0 0 0.9047 -701.6003 9716.167)">
				<stop  offset="0" style="stop-color:#FFFFFF;stop-opacity:0"/>
				<stop  offset="0.325" style="stop-color:#D8EBEA;stop-opacity:0.325"/>
				<stop  offset="0.776" style="stop-color:#A6D2CE;stop-opacity:0.776"/>
				<stop  offset="1" style="stop-color:#93C8C4"/>
			</linearGradient>
			<polygon class="st34" points="730,4920.2 730,6319.4 626.8,6661.2 600.3,6761.2 521.7,7058.4 463,7280.3 381.7,7587.8 
				381.7,7587.9 296.5,7922.6 270.6,8007.9 -596,8007.9 -548.4,7912.2 -510.5,7813.5 -458.7,7695.8 -323.9,7389 -296.7,7327.2 
				-199.8,7107 -156.9,7009.4 -84.8,6845.4 -37.1,6737 9.1,6631.9 37.9,6566.4 113.9,6393.7 178.9,6245.5 245.2,6094.8 
				371.4,5807.7 394.7,5754.7 507.5,5498.4 520.5,5468.7 650.6,5172.9 			"/>
		</g>
	</g>
</g>
<image style="overflow:visible;enable-background:new    ;" width="3103" height="3103" xlink:href="nessy.png"  transform="matrix(9.933096e-02 0 0 9.933096e-02 60.2475 6906.5464)">
</image>
<g class="st2">
	<g>
		<g>
			
				<linearGradient id="SVGID_25_" gradientUnits="userSpaceOnUse" x1="552.8884" y1="-6292.6343" x2="552.8884" y2="-1805.8025" gradientTransform="matrix(0.9047 0 0 0.9047 -701.6003 9716.167)">
				<stop  offset="0" style="stop-color:#FFFFFF;stop-opacity:0"/>
				<stop  offset="0.325" style="stop-color:#D8EBEA;stop-opacity:0.325"/>
				<stop  offset="0.776" style="stop-color:#A6D2CE;stop-opacity:0.776"/>
				<stop  offset="1" style="stop-color:#93C8C4"/>
			</linearGradient>
			<path class="st35" d="M692.3,3966.7v511.4l-0.4,0.7l-213.5,423.7l-43.3,86.2l-199,394.9L4.2,5843.3l-32,63.5l-242.3,480.6
				l-135.5,269l-77.9,154.8l-14.2,28.2l-62,123l-68.1,135l-37.8,74.8l-61.6,122.1l-19.3,38.2l-19.7,39.1l-263.1,534.6l-43,85.2
				l-14.7,16.4h-1.6c-0.3-38.4-0.6-64-1-102.4c-0.1-14.7-0.3-29.6-0.4-44.3c-1-131.7-2.1-276.1-3.2-407.8
				c-0.3-28-0.5-79.1-0.7-146.1l-0.8-275.4c-0.1-47.9-0.3-97.9-0.4-149.1l14.3-23.9l4.4-7.4l150.9-253l128.8-215.9l23.2-39
				l192.2-322.5l191-320.2l39.6-66.4l189.1-317.4l94.3-157.5l57-95.6l4-6.9l199.7-334.9l416-697.6l33.1-55.5L692.3,3966.7z"/>
		</g>
	</g>
</g>
<linearGradient id="SVGID_26_" gradientUnits="userSpaceOnUse" x1="530.616" y1="-1868.2688" x2="530.616" y2="-2951.1545" gradientTransform="matrix(0.9047 0 0 0.9047 -701.6003 9716.167)">
	<stop  offset="0" style="stop-color:#FFFFFF;stop-opacity:0"/>
	<stop  offset="0.325" style="stop-color:#D8EBEA;stop-opacity:0.325"/>
	<stop  offset="0.776" style="stop-color:#A6D2CE;stop-opacity:0.776"/>
	<stop  offset="1" style="stop-color:#93C8C4"/>
</linearGradient>
<path class="st36" d="M651.5,7030.6v990l-1740-12.7c-0.3-38.4-0.6-64-1-102.4l-4.3-598.2l-0.8-275.4c98.1-33.9,215.9-31.7,311.9,8.1
	l18.1,7.5l71.1,29.4c20.9,8.7,42.9,15.6,65.5,20.6c95.7,21.7,202.3,11.7,287-29.3l41.9-20.3c43.2-20.8,91.9-33.7,142-38.4
	c71.9-6.8,146.6,3.1,211.4,30l91.1,37.9c108.3,45.1,244.6,42.6,349.3-6.3l26.9-12.6l14.5-6.8C571.8,7035,611.1,7023.8,651.5,7030.6z
	"/>
<linearGradient id="SVGID_27_" gradientUnits="userSpaceOnUse" x1="531.0582" y1="-1668.9309" x2="531.0582" y2="-2282.0535" gradientTransform="matrix(0.9047 0 0 0.9047 -701.6003 9716.167)">
	<stop  offset="0" style="stop-color:#FFFFFF;stop-opacity:0"/>
	<stop  offset="0.325" style="stop-color:#D8EBEA;stop-opacity:0.325"/>
	<stop  offset="0.776" style="stop-color:#A6D2CE;stop-opacity:0.776"/>
	<stop  offset="0.9409" style="stop-color:#93C8C4"/>
</linearGradient>
<path class="st37" d="M651.5,7386.9v633.6l-1740-12.7c-0.3-38.4-0.6-64-1-102.4l-4.3-598.2c105.7,67.1,240.2,67.1,345.7,1.3
	c6-3.7,11.8-7.6,17.5-11.8l0.9-0.6c0.8-0.5,1.6-1.2,2.4-1.7c104.8-73.8,243.4-79.2,353.4-13.2l77.1,46.1l12.1,7.2
	c109.7,65.7,247.8,60.7,352.5-12.6l41.9-29.3c104.9-73.5,243.4-78.3,353.1-12.2c0.1,0.1,0.2,0.1,0.3,0.2l91.1,54.8
	C584.9,7353.8,617.8,7366.7,651.5,7386.9z"/>
<path class="st23" d="M381,7438c-12,12-28.6,20.1-56,21c-102.6,3.6-184.5,203-229.2,206.6c-12.2,1-75.1-2.1-144.2-8.1
	c-74.4-6.4-156-16.3-189.9-28.2c-45.1-15.7-137.9-64.7-190-78.5c-4.3-1.2-15.7-2.9-31.1-5c-52.7-7.1-151.5-18.2-166.5-21.6
	c-18.5-4.3-60.8-12.8-98.9-24.2c-3.2-42.2-11.9-159-22.4-317.4c-0.5-8-1.1-15.9-1.6-24.1c-5.2-78.9-59.1-1753.7-26.5-1861
	c45.4-145.9,334.9-111,355.9-175.6c35.5-34.4,163.6-256.9,208.5-285.7c21.4-26.3,49.6-45.8,74.6-68.4c5.7-5.2,11.2-10.5,16.5-16.1
	c36-38.2,57.8-87.8,79.1-136.2c21-1.6,42,1.4,63,4.6c28.4,4.3,25-8,52.7-14c14.8-3.3,12-34.5,14.1-35.4
	c11.1-34.4,49.5-27.5,51.5-77.8c-2-64.6-13.8-25.4-25.2-81.8c-0.9-4.3-12.7-22.3-30-39.6c17.1-55.8-37.1-78.9-18.3-90.6
	c-28.9-85.9-71.7-57.8-88.2-89.1c-37.6-71.5-77.3-36-99.9-47.9c-41.8-22.1-51.2-58.5-98.4-72.6c-43.1-12.8-65.3,7.1-109.3-3.7
	c-29.6-7.3-85.8-43.7-116.2-41.9c-28.8,1.7-77.8,14.9-105.9,17.3c-70.3,5.8-103.9-72.3-171.4-33.3c-22.2,12.8-60.6,11.9-97.3,8.5
	c-36.7-3.3-55,9.7-78.3,25.8c-35.4,24.5-38.4,59.3-83.4,61.2c-52.8,2.4-174.3-27.1-116.8,169.3l-12.8,210.2
	c44.4,66.9-47-6.5-47.5,48.3c-1.1,138.3,36.2,312.8,36.9,400.7c1.6,206.4,22.5,859.8,24.2,1066.1c0.8,103.9,1.6,527.2,2.5,902.7
	c0,11.9,0.1,23.6,0.1,35.4c0.1,51.1,0.3,101.1,0.4,149.1l0.2,70.3c0.3,67,0.5,118.1,0.7,146.1c1.1,131.7,2.2,263.4,3.2,395.2
	c0.1,14.8,0.3,29.6,0.4,44.3c0.4,38.4,0.6,89.4,1,127.7h1740v-577.2C409,7295.2,425.5,7393.8,381,7438z M-296.3,4649.8
	c14.6-23.3,88.7-14.2,115.3-19.2c13.3-2.5,89.3-43.3,87.5-15.8c-1.7,26.5-13.8,56-29.2,77.4c-27,37.3-76.9,42.4-112.8,82.4
	c-1.6,0.3-55.9,57.4-56.9,53.9c-3.3-11.7-12.2-121.6-13.1-134C-306.8,4678.9-304.8,4663.4-296.3,4649.8z M-856.4,4960.3
	c-46.8-61.3-50.6-203.9,26.6-342.2c23.2-41.5,53.6-68.6,86.7-85.8c36.4-18.9,68.5,19.1,105.7,17.6c60.8-2.4,95.9,25.8,112.4,31.2
	c8.4,20.1,18.6,35.6,23.7,40.2c9.7,8.8,22.4,13,34.7,17c2.3,0.7,4.5,1.6,6.6,2.5c49.6,21.9,29.4,95.5,71.4,56.8
	c16.5,28,27.7,62.5,25.8,95.4c-1.7,28,6.6,52-2.6,78.3c-7.5,21.5-130,96.7-152.3,112.1c-1.6,1.2-3.3,2.2-4.8,3.1
	c0.5,0.4,1.2,0.7,1.7,1.1c0,0-0.7,1-1.1,1.4c-0.7-0.5-1.4-1.1-2-1.6l-0.1-0.1C-553.6,5003.8-777.3,5057.2-856.4,4960.3z"/>
<path d="M-569.4,4950.3"/>
<image style="overflow:visible;enable-background:new    ;" width="1536" height="2048" xlink:href="fairy-sit.png"  transform="matrix(0.1495 0 0 0.1495 -787.3101 4797.1504)">
</image>
<image style="overflow:visible;enable-background:new    ;" width="2339" height="2113" xlink:href="rock_monster.png"  transform="matrix(0.2175 1.599462e-02 -1.599462e-02 0.2175 -768.9368 7169.0059)">
</image>
<image style="overflow:visible;enable-background:new    ;" width="3103" height="3103" xlink:href="mer-skull.png"  transform="matrix(0.1217 0 0 0.1217 78.4421 7285.4995)">
</image>
<g>
	<g id="Layer_2_3_" transform="translate(-65.911)">
		<path id="Path_1_2_" class="st5" d="M2171.4,6954.8c0.2,0,0.2,0,0.2-0.1C2171.5,6954.8,2171.4,6954.8,2171.4,6954.8z
			 M2171.3,6954.8h-1.4C2170.4,6954.9,2170.8,6954.9,2171.3,6954.8z M1411.8,6939.6c0.5,0.1,0.9,0.2,1.4,0.1L1411.8,6939.6z"/>
		<path id="Path_2_2_" class="st5" d="M2171.4,6954.8c0.2,0,0.2,0,0.2-0.1C2171.5,6954.8,2171.4,6954.8,2171.4,6954.8z
			 M2171.3,6954.8h-1.4C2170.4,6954.9,2170.8,6954.9,2171.3,6954.8z M1411.8,6939.6c0.5,0.1,0.9,0.2,1.4,0.1L1411.8,6939.6z"/>
		<path id="Path_3_2_" class="st5" d="M2218.2,4843.7c5.7,9.4,9.9,19.2,9.5,30.4c-0.4,6.6-0.4,13.3,0.1,19.9
			c1,11.1,2.8,22.1,3.9,33.2c0.6,7.1,1.4,14.2,1,21.3c-0.4,5.3-0.5,10.7-0.5,15.9c10.5-18.1,21.3-36.1,21.7-55
			C2254.4,4885.5,2236.3,4864.8,2218.2,4843.7L2218.2,4843.7z M2152.4,5160.1c-12,4.5-21.2,14.5-32,21.3
			c-18.7,11.8-41.6,13.8-63.5,15.5c-31.3,2.4-59.9,6.8-88.7,8.2c6.2,36.1,12,74.9,17.3,115.9c12.2,94.9,21.8,201.5,29.2,312.1
			l163.7-299.5c7,2.5,13.7,5.8,20.1,9.7c0.5-16.8,1-33.3,1.5-49.2c1.9-54.8,3.9-104.7,6.2-147.7c-7.6,4-16.6,7.1-27,8.9
			C2170.2,5156.7,2160.9,5156.8,2152.4,5160.1z M2517.5,4713c-11,33.5-31,63.1-61.2,84.1c-9.9,6.9-70.7,38.6-71.1,6.5
			c-0.5-34.1,0.3-68.2,0.9-102.3c0.3-16.8,0.6-33.7,0.8-50.5c0.2-17.5,1.4-35.5-2.2-52.6c14.1-3.3,29.8-0.9,43.3,3.7
			c10.9,3.7,21.4,9.8,33.2,9.8c7.1,0,64.8-16.6,65.9-2.2C2530.1,4644,2528.4,4680.1,2517.5,4713z M2100.6,4576.5
			c27-12.7,20.8,12.1,21.2,20.5c0.7,19.6-11.2,35.5-16.7,54.4c-1.5,5.2-3.2,10.2-4.8,15.3c-7.1,21.2-14.2,41.2-11.5,63.8
			c3.5,29.3,16.6,58.1,34.1,85.9c10.7,16.8,23,34.3,29,51.7c3.2,9.2,4.6,18.4,3.1,27.5c-0.8,5-2.5,9.9-5,14.3
			c-5.5,10.2-15.5,19.5-25.2,28.8c-9,8.5-18.2,17-30.1,24.3c-2,1.2-4.1,2.4-6.2,3.4c-5.7,2.8-12.2,5.1-19.7,5.8
			c-18.7,1.8-35.6-6.7-44.9-15.7c-18.8-18.6-18.8-40.9-26.6-61.8c-5.5-14.7-15.1-28.9-21.9-43.4c-12.8-27.4-15.9-56.1-9.1-84.2
			c5-20.6,17.1-40.6,18-61.5c0.9-21-7.1-42.7-11.3-63.6c-1.4-7.2-2.6-15.2,4.7-21.3c6.4-5.3,17.8-8,28.3-10.7
			c6.2-1.5,12.2-3.2,18.2-4.9C2051.3,4597,2077.1,4587.5,2100.6,4576.5L2100.6,4576.5z M1659.3,4684.5
			c10.4-10.7,31.2-14.5,18.5-29.4c-2.8-3.3-7.3-6.4-6.9-10c0.6-5,10.2-7.9,17.9-10.6c13.7-4.8,24.9-11.7,32-19.5
			c4.3-4.8,9.3-10.9,19.2-11.2c6.8-0.2,12.8,2.8,15.3,6.3c11.3,16.4,3.3,38.5,7.1,55.9c3.3,15.6,16.1,30,30.8,43.2
			c30,27.1,74,50.7,94.7,80.7c24.8,35.8,12.9,75.6,0.8,113.3c-1.2,4-5.1,6.6-9.2,6.2c-1.9-0.3-3.6-0.9-5.2-1.9
			c-42.7-24.3-61-54.4-78.6-85.9c-21.5-38.2-59.5-72.1-99.2-105.5c-3-2.5-6.2-4.9-9.5-7.2c-8-6-16.2-11.6-24.9-17.3
			c-1.6-1.1-3.4-2.3-3.9-3.7C1657.6,4686.9,1658.1,4685.7,1659.3,4684.5L1659.3,4684.5z M1834.5,4698.8
			c-12.3-9.3-17.6-20.8-22.5-31.9l-15.3-33.8c-1.8-3.5-12.6-9-10.2-13.1c1-1.6,2.5-2.9,4.3-3.6c8.1-3.3,22.8,1.4,31.5,2.2
			c10.3,0.8,25.1-1.9,34-4.6c15.5-4.7,30.8-12.5,42.9-19.5c25.3-14.8,43.2,49.5,41.4,58.7c-4.3,21.8-15,43.6-21.9,65.2
			c-0.5,1.7-1.2,3.5-3.4,4.8c-2.1,1.2-5.2,1.5-8.1,1.7C1879.6,4726.6,1849.4,4710.1,1834.5,4698.8z M1439.9,4891.4
			c-4.9-5.1-6.9-10.6-8-16.2c-0.2-0.9-0.5-1.8-1.1-2.7c-1.2-2.3-2.4-4.6-3.7-6.9c-2-3.4-4-7-6.2-10.4c-1.4-2.3-3.2-4.4-4.6-6.8
			c-0.4-0.8-0.6-1.7-0.6-2.7c-0.4-1.7,0.1-3.6-1.1-5.1c-4.9-6.2-5.6-12.9-8.9-19.3c-1.4-2.9-1.9-5.9-2.9-8.8c-0.2-0.7-0.5-1.4-0.8-2
			c-3.6-5.5-6.1-11.7-7.1-18.2c-1.2-7.8-3.5-15.6-5.2-23.2c-0.7-3.1-0.3-6.3-1.7-9.2c-3.2-6.5-3.5-13.3-6.2-19.9
			c-2.4-6-2.6-12.3-3.8-18.5c-0.9-4.6-1.9-9.1-2.7-13.8c-1-5.2-2.2-10.5-2.5-15.7c-0.4-6.5,0.3-13-0.5-19.5
			c-0.3-2.1-1.4-3.2-5.5-3.8c-4.5-0.7-9.1-1.6-11.9-4.2c-3.3-3.1-1.9-5.1,4.4-5.8c3.1-0.4,6.3-0.4,9.4-0.7c3.3-0.4,6.4-0.8,9.6-1.5
			c2.8-0.6,5.7-0.6,8.6,0c2.6,0.6,5.2,1,7.9,1.3c10.5,0.4,8.5,1.2,13-3.6c6.9-7.2,22-12.3,38.2-11.6c2.5,0.1,5.1,0.1,7.5-0.1
			c3.2-0.3,6.1-0.5,9.2,0.4c3,0.8,5.5-0.1,7.9-1.3c4.9-2.5,9.9-5,15.1-7.3c4.6-2,11.7-1.8,16.3,0.2c5.5,2.4,10.8,4.7,14.7,8
			c3.5,2.8,6.3,6.3,8.3,10.4c1.2,2.4,2.4,4.5,7,5.8c1.4,0.5,2.6,1.6,3.1,3.2c1.6,6.1,3.1,12,4.4,18.1c0.7,3.5,1.7,7,1.5,10.6
			c-0.2,2.9,1.7,6.1,2,9.1c0.5,6.2,1.4,12.4,2.3,18.6c0.3,2.1,1,4.1,1.4,6.2c1.1,4.9,3.3,9.9,3,14.7c-0.3,5.2,3.5,9.9,3.3,14.8
			c0,1.2,0.3,2.3,0.3,3.4c-0.2,5.2-0.5,10.3-0.7,15.5c0,0.4-0.2,0.7,0,1c3.6,5.6,1.5,11.4,0.9,17c-0.5,4.6-0.9,9.1,0.6,13.8
			c1.4,4.5,3.3,9,1.8,13.7c-0.5,1.6,0.8,3.3,1.1,5.1c0.9,6.1,1.8,12.1,2.4,18.3c-0.1,1.2-0.8,2.7-1.4,4.2
			c-3.1,7.1-6.2,14.1-9.4,21.2c-2.4,5.1-5.2,10.1-7.6,15.3c-1,2-1.7,4.2-2.2,6.4c-0.9,4.6-2.7,8.9-5.4,12.8
			c-1.1,1.5-1.1,3.3-1.9,5.1c-3,5.6-5.3,11.4-9.5,16.7c-2.6,3.3-7.2,6.6-12.4,9c-6.9,3.2-15,5.5-22.9,8c-10.5,3.3-21.9-0.5-21.8-8.4
			c-1-2.1-1.7-5.8-4.5-8.9c-4.8-5.3-8.1-10.8-9.2-16.6c-0.1-0.6-0.8-1.3-1.4-1.9c-2.1-2.5-4.3-5-6.2-7.5
			C1442.3,4895,1441.6,4893.1,1439.9,4891.4L1439.9,4891.4z M2021.7,6891.4l2.4,0.1C2023.3,6891.5,2022.5,6891.5,2021.7,6891.4z
			 M1993.9,6810.6c-44.7,28.8-197.6,68.5-213.8,22.3c-17.1-54.5-95.3-1148.8-105.4-1227.3c-5.2-40.7-10.4-81-15.3-120.4
			c-14.7-118.4-27.7-230-37.6-325.6c-10.7-101.4-18-184.9-20.8-240.1c-3.4-68.7-23.6-158,20.3-223.7c53.2,37.8,93.1,81.3,117,127.1
			c12.3,23.6,20.6,48,42.2,69.6c23.4,23.2,60.7,41.1,94.3,60.3c35.2,20.1,63.3,98.3,85.7,211.1c2.6,13.3,5.2,27,7.7,41.2
			c6.2,36.1,12,74.9,17.3,115.9c12.2,94.9,21.8,201.5,29.2,312.1c3.6,53.6,14.6,925.2,15.9,971.6
			C2039,6721.4,2009.8,6806.3,1993.9,6810.6z M2332.7,6705.5c-4.3,36.4-134.3,122.2-140.8,83.9c-4-23.8-6-832.7-5.6-1061.8
			c0.1-74.5,0.5,986.3,1.1,903.7c0.5-57.3,1-749.7,1.7-808.2c2-168.9,5.1-337.8,9.3-479.8c0.5-16.8,1-33.3,1.5-49.2
			c1.9-54.8,3.9-104.7,6.2-147.7c4.9-92.4,10.7-153.9,17.5-166.8c12.8-24.5,32.7-48.4,29.2-78c-2.3-18.4-13.6-33.9-25.6-47.4
			c-23.1-26-41.3-54.8-62.7-81.9c-7.7-9.8-18.3-18.9-19.2-32.2c-1.9-27.6-0.9-56.6,1.8-84.7c2.1-21.9,4.9-46.7,23.7-61.1
			c11.7-8.9,17,1.5,26.7-0.3c11.5-2.2,17.6-5.2,27.4-11.6c13.3-8.7,37.5-2,47-10.5c4.3-3.8,5.9-8.5,12-11.4
			c10-4.9,27.1-1.8,34.7,4.3c7.6,6.1,8.4,13.8,8.8,21.2c0.2,3.2,0.4,6.2,0.5,9.4c3.6,80.5-2.2,161.2,10.1,241.5
			c8,51.9,23.3,103.9,18.5,155.8c0,0.5-0.1,5.6-0.1,14.8c-0.2,57.7-0.1,274.1,1.2,476.9c0.4,61.6,0.8,122,1.4,176.3
			C2359.7,5710.3,2335,6686.2,2332.7,6705.5z M2648.1,6740.3c-81.9-22.5-137.3-39.4-137.5-43.3c-3.3-61.5-9-633-14.5-1048
			c-1.2-85.5-2.3-169.6-3.3-249c-3.4-251.2-6.6-453.9-8.8-493.9c-1-18.5-1.9-37.2,7.1-54.8c7.3-14.7,21.3-28.1,32.3-42.2
			c35.3-44.9,39.6-94,47.1-141.9c0.7-4.6,2.3-9.1,3.3-13.7c3.3-13.4,47.9-23.1,65-31.8c9-4.7,17.7-10,26-16v-439c-2-0.2-4-0.5-6-0.6
			c-16.6-1.5-33.1-3.4-49.6-5.2c-1.3-0.2-2.5-0.3-3.8-0.5c-0.6-0.1-1.3-0.1-1.9-0.1c-7.8,0.7-14.7-1.3-21.2-2.7
			c-8.2-1.8-16.6-2.8-25.1-2.8c-5.1,0-10.2,0.3-15.2-0.1c-2.9-0.4-5.8-0.2-8.6,0.4c-19.9,5-44.3,7.1-65.8,11.7
			c-6.2,1.3-12.4,1.7-18.6,1.3c-8.4-0.5-25.9,0.5-32.9-2c-8.7-3-5.4-9-14.4-12.6c-6.2-2.4-14-3.1-21.5-3.5c-37-2.4-75.9-2.5-112,3.1
			c-33,5.2-69.9,28.2-104.8,24.2c-6.3-0.7-13-0.5-19.5-1c-3.1-0.4-6.2-0.2-9.1,0.6c-2.2,0.5-4.4,0.8-6.7,0.7
			c-25-0.7-39.3,8-62.9,10.5c-0.9,0.2-1.8,0.5-2.6,0.9c-1.7,0.5-3.4,0.9-5.2,1.3c-3.5,0.7-7.2,1.3-10.8,2
			c-5.3,1.2-10.5,2.4-15.7,3.6c-47.6,10.7-93,21-129.4,41.6c-16.6,9.5-34.9,21.3-58.8,20c10.9-3.8,7.8-13.8-2.8-17.8
			c-10.5-4.1-24.6-3.9-37.4-3c-33.2,2.4-65.6,8.5-94.4,17.7c-7.8,2.5-15.7,5.3-24.7,5.6c-6,0.2-11.9-0.7-17.7-1.5
			c-60-8.1-126.8,0.8-173.2,23.1c-4.6,2.3-9.4,4.9-9.9,8.3c-0.4,2.4,1.7,4.8,2.8,7.2c6.2,13.8-19,25.1-41.1,32.7
			c-5.2,1.9-10.5,3.3-15.9,4.3c-3,0.4-6.1,0.5-9.1,0.6c-3.1,0.1-6.2,0.1-9.1,0.1c-47.8,0.1-99.3,13-127.9,34.3
			c-26.1,19.5,1.1,51.5-36.6,65.9c-15.9,6.1-35.9,9.9-46.9,18.6c-4.7,3.7-9.8,8.9-17.9,8.1c-4.1-0.4-7.2-2.2-11.3-2.7
			c-10.5-1.4-16.4,6-22,11c-13.7,12.1-44.6,15.1-61.2,26.1c-17.7,11.9-13.9,29-9.2,44c6.5,20.7,13.8,42.2,37.7,58.7
			c21.8,15,54.6,23.8,86.3,31.9c26.2,6.8,52.7,17.1,81.3,18.8c3.3,0.2,5.6,1.1,6.6,2.8c1.3,2.2,2.3,4.4,3.5,6.6
			c0.9,1.7,2.2,3.3,3.5,4.7c2.5,2.4,4.6,4.6,4.3,7.5c-0.1,0.9-0.1,1.8,0.2,2.7c23.4,91.6,23.2,186.7,95,272.8
			c12.5,14.9,26.9,29.5,37,44.9c2,3.1,6.1,74.6,10.9,187.8c0.4,8.5,0.7,17.3,1.1,26.2c3,73.4,6.3,161.8,9.5,258.9
			c4.7,141.8,9.3,936.5,12.9,1096.7c3.1,135.8,7.2,106.2,5.6,190.8c-0.1,3.1-0.1,6.2-0.2,9.3c-2.5,116.4-8.1,194.4-17.8,208.8
			c-7.1,10.3-43.7,21.8-85.5,31.9c-6.5,1.5-13.8,3.5-21.6,5.8c-42,12.1-99.7,32.9-131.4,47.2c85.9,1.1,175.6-13.2,247.5-41.2
			l0.9-0.4c102.6-39.9,241.9-52,354.6-31l90.6,16.9c111.5,20.8,249.1,9.1,351.4-29.8l40.9-15.6c102.6-39,240.6-50.6,352.2-29.6
			l11,2.1v-181.4C2659.4,6743.3,2653.7,6741.8,2648.1,6740.3z"/>
		<path id="Path_6_2_" class="st5" d="M1629.1,6805.4"/>
		<path id="Path_7_2_" class="st5" d="M1648.3,6797.7"/>
	</g>
	
		<linearGradient id="SVGID_28_" gradientUnits="userSpaceOnUse" x1="1717.9156" y1="-2457.7156" x2="3648.5002" y2="-2457.7156" gradientTransform="matrix(0.9047 0 0 0.9047 -701.6003 9716.167)">
		<stop  offset="0" style="stop-color:#FFFFFF;stop-opacity:0"/>
		<stop  offset="0.325" style="stop-color:#D8EBEA;stop-opacity:0.325"/>
		<stop  offset="0.776" style="stop-color:#A6D2CE;stop-opacity:0.776"/>
		<stop  offset="1" style="stop-color:#93C8C4"/>
	</linearGradient>
	<path class="st38" d="M2599.2,6926.4v1145.1l-355-4.4l-844.9-10.5l-480.9-6l-60.2-0.7l-4.3-585.6l-0.8-275.4
		c-0.1-47.9-0.3-97.9-0.4-149.1c0-11.8-0.1-23.5-0.1-35.4l18.8,4l159.1,33.7c37.3,7.9,77.9,12,119.4,12.6c8.1,0.1,16.4,0.1,24.6-0.1
		c78.2-1.6,157.9-15.7,222.9-41l0.9-0.4c16.3-6.3,33.6-11.9,51.4-16.9c94.7-26.1,208.3-31.8,303.1-14.1l90.6,16.9
		c6.3,1.2,12.8,2.3,19.3,3.3c107.7,16.1,235.6,3.7,332.1-33l40.9-15.6c90.6-34.5,208.9-47.5,312.1-35.6c13.7,1.5,27,3.6,40.1,6.1
		L2599.2,6926.4z"/>
	<g class="st2">
		<g>
			<g>
				
					<linearGradient id="SVGID_29_" gradientUnits="userSpaceOnUse" x1="2705.7573" y1="-6118.938" x2="2705.7573" y2="-1632.1072" gradientTransform="matrix(0.9047 0 0 0.9047 -701.6003 9716.167)">
					<stop  offset="0" style="stop-color:#FFFFFF;stop-opacity:0"/>
					<stop  offset="0.325" style="stop-color:#D8EBEA;stop-opacity:0.325"/>
					<stop  offset="0.776" style="stop-color:#A6D2CE;stop-opacity:0.776"/>
					<stop  offset="1" style="stop-color:#93C8C4"/>
				</linearGradient>
				<path class="st39" d="M2640,4123.8v511.4l-0.4,0.7l-213.5,423.7l-43.3,86.2l-199,394.9l-231.9,459.7l-32,63.5l-242.3,480.6
					L1542,6813.4l-78,154.8l-14.2,28.2l-62,123l-68.1,135l-37.8,74.8l-61.6,122.1l-19.3,38.2l-19.7,39.1l-263,521.9l-43,85.3
					l-14.7,29H859c-0.3-38.4-0.6-76.7-0.9-115.1c-0.1-14.7-0.3-29.6-0.4-44.3c-1-131.7-2.1-263.4-3.2-395.2
					c-0.3-28-0.5-79.1-0.7-146.1l-0.8-275.4c-0.1-47.9-0.3-97.9-0.4-149.1l14.3-23.9l4.4-7.4l150.9-253l128.8-215.9l23.2-39
					l192.2-322.5l190.9-320.2l39.6-66.4l189.1-317.4l94.3-157.5l57-95.6l4-6.9L2141,4879l416.1-697.6l33.1-55.5L2640,4123.8z"/>
			</g>
		</g>
	</g>
	
		<linearGradient id="SVGID_30_" gradientUnits="userSpaceOnUse" x1="2683.4841" y1="-2820.5623" x2="2683.4841" y2="-1714.589" gradientTransform="matrix(0.9047 0 0 0.9047 -701.6003 9716.167)">
		<stop  offset="0" style="stop-color:#FFFFFF;stop-opacity:0"/>
		<stop  offset="0.325" style="stop-color:#D8EBEA;stop-opacity:0.325"/>
		<stop  offset="0.776" style="stop-color:#A6D2CE;stop-opacity:0.776"/>
		<stop  offset="1" style="stop-color:#93C8C4"/>
	</linearGradient>
	<path class="st40" d="M2599.2,7175v990H859.1c-0.3-38.4-0.6-76.7-0.9-115.1l-4.3-585.6l-0.8-275.4c98.1-33.9,215.8-31.7,311.9,8.1
		l18.1,7.5l71.1,29.4c20.9,8.7,42.9,15.6,65.5,20.6c95.7,21.7,202.3,11.7,287-29.3l41.9-20.3c43.2-20.8,91.9-33.7,142-38.4
		c71.9-6.8,146.6,3.1,211.4,30l91.1,37.9c108.3,45.1,244.6,42.6,349.3-6.3l26.9-12.6l14.5-6.8
		C2519.5,7192.1,2558.6,7180.9,2599.2,7175z"/>
	
		<linearGradient id="SVGID_31_" gradientUnits="userSpaceOnUse" x1="2683.9265" y1="-2570.0596" x2="2683.9265" y2="-1714.589" gradientTransform="matrix(0.9047 0 0 0.9047 -701.6003 9716.167)">
		<stop  offset="0" style="stop-color:#FFFFFF;stop-opacity:0"/>
		<stop  offset="0.325" style="stop-color:#D8EBEA;stop-opacity:0.325"/>
		<stop  offset="0.776" style="stop-color:#A6D2CE;stop-opacity:0.776"/>
		<stop  offset="1" style="stop-color:#93C8C4"/>
	</linearGradient>
	<path class="st41" d="M2599.2,7531.4V8165H859.1c-0.3-38.4-0.6-76.7-0.9-115.1l-4.3-585.6c105.7,67,240.2,67.1,345.7,1.3
		c5.9-3.7,11.8-7.6,17.5-11.8l0.9-0.6c0.8-0.5,1.6-1.2,2.4-1.7c104.8-73.8,243.4-79.2,353.4-13.2l77.1,46.1l12.1,7.2
		c109.7,65.7,247.8,60.7,352.5-12.6l41.9-29.3c104.9-73.5,243.4-78.3,353.1-12.2c0.1,0.1,0.2,0.1,0.3,0.2l91.1,54.8
		C2532.6,7510.9,2565.4,7523.9,2599.2,7531.4z"/>
	<path class="st23" d="M1766.6,5087.1c-26.6,5-100.7-4.2-115.3,19.2c-8.5,13.7-10.5,29.1-9.3,44.8c0.9,12.4,9.8,122.3,13.1,134
		c1,3.4,55.3-53.6,56.9-53.9c35.9-40,85.8-45.1,112.8-82.4c15.5-21.4,27.5-50.9,29.2-77.4
		C1855.9,5043.8,1779.9,5084.6,1766.6,5087.1z M2329.3,7745L2329.3,7745c-12,12-28.6,20.1-56,21c-102.6,3.6-184.5,203-229.2,206.6
		c-12.2,1-75.1-2.1-144.2-8.1c-74.4-6.4-156-16.3-189.9-28.2c-45.1-15.7-137.9-64.7-190-78.5c-4.3-1.2-15.7-2.9-31.1-5
		c-52.7-7.1-151.5-18.2-166.5-21.6c-18.5-4.3-60.8-12.8-98.9-24.2c-3.2-42.2-11.9-159-22.4-317.4c-0.5-8-1.1-15.9-1.6-24.1
		c-5.2-78.9-10.8-167.3-16.4-261.1c-2.9-48.6-5.8-98.7-8.6-149.7c-9.2-167.6-17.7-345.6-23.3-515.2
		c-11.9-357.7-11.4-678.1,21.2-785.4c45.4-145.9,334.9-111,355.9-175.6c35.5-34.4,163.6-256.9,208.5-285.7
		c21.4-26.3,49.6-45.8,74.6-68.4c5.7-5.2,11.2-10.5,16.5-16.1c36-38.2,57.8-87.8,79.1-136.2c21-1.6,42,1.4,63,4.6
		c28.4,4.3,25-8,52.7-14c14.8-3.3,12-34.5,14.1-35.4c11.1-34.4,49.5-27.5,51.5-77.8c-2-64.6-13.8-25.4-25.2-81.8
		c-0.9-4.3-12.7-22.3-30-39.6c17.1-55.8-38.8-122.4-20.1-134.1c10.9-6.9-4.7-31.1,7.3-35.6c8.5-3.3,25.6-67.6-9.1-86.2
		c-36.1-19.4-74.5-40.2-94.6-77.7c-16-30-17.9-65.5-42-91.5c-18.5-20-42.2-47.9-64.9-59.8c-41.8-22.1-55.5-76-102.8-90
		c-43.1-12.8-89.7-14-133.6-24.9c-29.6-7.3-60-11.9-90.5-10c-28.8,1.7-54.9,14.7-83,17c-70.3,5.8-103.9-72.3-171.4-33.3
		c-22.2,12.8-60.6,11.9-97.3,8.5c-36.7-3.3-55,9.7-78.3,25.8c-35.4,24.5-38.4,59.3-83.4,61.2c-52.8,2.4-186.8,42.9-129.3,239.3
		l-3.5,404.6c44.4,66.9-47-6.5-47.5,48.3c-1.1,138.3,36.2,312.8,36.9,400.7c1.6,206.4,22.5,505.2,24.2,711.5
		c0.8,103.9,1.6,527.2,2.5,902.7c0,11.9,0.1,23.6,0.1,35.4c0.1,51.1,0.3,101.1,0.4,149.1l0.8,275.4c0.3,67,0.5,118.1,0.7,146.1
		c1.1,131.7,2.2,263.4,3.2,395.2c0.1,14.7,0.3,29.6,0.4,44.3c0.4,38.4,0.6,76.7,1,115.1h1740v-564.5
		C2357.2,7602.1,2373.7,7700.7,2329.3,7745z M1091.2,5416.8c-46.8-61.3-50.6-203.9,26.6-342.2c23.2-41.5,53.6-68.6,86.7-85.8
		c36.4-18.9,68.5,19.1,105.7,17.6c60.8-2.4,95.9,25.8,112.4,31.2c8.4,20.1,18.6,35.6,23.7,40.2c9.7,8.8,22.4,13,34.7,17
		c2.3,0.7,4.5,1.6,6.6,2.5c49.6,21.9,50.6,93.1,92.5,54.4c16.5,28,21.5,60.5,19.6,93.5c-1.7,28-8.5,56.5-17.7,82.8
		c-7.5,21.5-130,96.7-152.3,112.1c-1.6,1.2-3.3,2.2-4.8,3.1c0.5,0.4,1.2,0.7,1.7,1.1c0,0-0.7,1-1.1,1.4c-0.7-0.5-1.4-1.1-2-1.6
		l-0.1-0.1C1394,5460.3,1170.4,5513.7,1091.2,5416.8z"/>
	<path d="M1378.2,5107.5"/>
	<g class="st28">
		<g>
			<g>
				
					<linearGradient id="SVGID_32_" gradientUnits="userSpaceOnUse" x1="3002.3196" y1="-5079.6958" x2="3002.3196" y2="-1651.5857" gradientTransform="matrix(0.9047 0 0 0.9047 -701.6003 9716.167)">
					<stop  offset="0" style="stop-color:#FFFFFF;stop-opacity:0"/>
					<stop  offset="0.325" style="stop-color:#D8EBEA;stop-opacity:0.325"/>
					<stop  offset="0.776" style="stop-color:#A6D2CE;stop-opacity:0.776"/>
					<stop  offset="1" style="stop-color:#93C8C4"/>
				</linearGradient>
				<polygon class="st42" points="2677.6,5077.3 2677.6,6476.6 2574.4,6818.3 2548,6918.3 2469.3,7215.6 2410.6,7437.5 2329.3,7745 
					2329.3,7745.1 2244.1,8067.1 2218.2,8165 1351.6,8165 1399.2,8056.6 1437,7970.6 1488.9,7852.9 1623.8,7546.1 1650.9,7484.3 
					1747.8,7264.1 1790.7,7166.5 1862.9,7002.5 1910.4,6894.1 1956.7,6789 1985.5,6723.5 2061.5,6550.8 2126.6,6402.6 
					2192.8,6251.9 2319,5964.9 2342.3,5911.9 2455.1,5655.5 2468.2,5625.8 2598.3,5330 				"/>
			</g>
		</g>
	</g>
</g>
</svg>
