<?xml version="1.0" encoding="utf-8"?>
<!-- Generator: Adobe Illustrator 24.0.3, SVG Export Plug-In . SVG Version: 6.00 Build 0)  -->
<svg version="1.1" id="Layer_1" xmlns="http://www.w3.org/2000/svg" xmlns:xlink="http://www.w3.org/1999/xlink" x="0px" y="0px"
	 viewBox="0 0 340 996.4" style="enable-background:new 0 0 340 996.4;" xml:space="preserve">
<style type="text/css">
	.st0{fill:#B1B1B1;}
	.st1{fill:#1E1E1E;}
	.st2{opacity:0.19;}
	.st3{fill:url(#SVGID_1_);}
	.st4{fill:url(#SVGID_2_);}
	.st5{fill:#213E48;}
	.st6{display:none;opacity:0.34;fill:url(#SVGID_3_);enable-background:new    ;}
	.st7{display:none;opacity:0.12;}
	.st8{display:inline;}
	.st9{fill:url(#SVGID_4_);}
	.st10{display:none;opacity:0.19;}
	.st11{fill:url(#SVGID_5_);}
	.st12{display:none;opacity:0.17;fill:url(#SVGID_6_);enable-background:new    ;}
	.st13{display:none;opacity:0.16;fill:url(#SVGID_7_);enable-background:new    ;}
	.st14{display:none;fill:#131517;}
	.st15{display:none;}
	.st16{opacity:0.14;fill:url(#SVGID_8_);enable-background:new    ;}
	.st17{opacity:0.14;fill:url(#SVGID_9_);enable-background:new    ;}
	.st18{opacity:0.14;fill:url(#SVGID_10_);enable-background:new    ;}
	.st19{opacity:0.14;fill:url(#SVGID_11_);enable-background:new    ;}
	.st20{fill:#131517;}
	.st21{opacity:0.4;fill:url(#SVGID_12_);enable-background:new    ;}
	.st22{opacity:0.21;fill:url(#SVGID_13_);enable-background:new    ;}
	.st23{opacity:0.21;fill:url(#SVGID_14_);enable-background:new    ;}
	.st24{opacity:0.4;fill:url(#SVGID_15_);enable-background:new    ;}
	.st25{opacity:0.12;}
	.st26{fill:url(#SVGID_16_);}
	.st27{fill:url(#SVGID_17_);}
	.st28{opacity:0.21;fill:url(#SVGID_18_);enable-background:new    ;}
	.st29{opacity:0.21;fill:url(#SVGID_19_);enable-background:new    ;}
	.st30{opacity:0.4;fill:url(#SVGID_20_);enable-background:new    ;}
	.st31{fill:url(#SVGID_21_);}
	.st32{fill:url(#SVGID_22_);}
	.st33{opacity:0.21;fill:url(#SVGID_23_);enable-background:new    ;}
	.st34{opacity:0.21;fill:url(#SVGID_24_);enable-background:new    ;}
	.st35{opacity:0.53;fill:url(#SVGID_25_);enable-background:new    ;}
	.st36{fill:url(#SVGID_26_);}
	.st37{opacity:0.15;fill:url(#SVGID_27_);enable-background:new    ;}
	.st38{opacity:0.1;fill:url(#SVGID_28_);enable-background:new    ;}
	.st39{fill:url(#SVGID_29_);}
</style>
<g>
	<g id="Layer_2_1_" transform="translate(-65.911)">
		<path id="Path_1_1_" class="st0" d="M10466.7-3018.6c0.2,0,0.2,0,0.2-0.1C10466.8-3018.7,10466.7-3018.7,10466.7-3018.6z
			 M10466.6-3018.6h-1.5C10465.6-3018.5,10466.1-3018.5,10466.6-3018.6z M9627-3035.5c0.5,0.1,1,0.2,1.5,0.1L9627-3035.5z"/>
		<path id="Path_2_1_" class="st0" d="M10466.7-3018.6c0.2,0,0.2,0,0.2-0.1C10466.8-3018.7,10466.7-3018.7,10466.7-3018.6z
			 M10466.6-3018.6h-1.5C10465.6-3018.5,10466.1-3018.5,10466.6-3018.6z M9627-3035.5c0.5,0.1,1,0.2,1.5,0.1L9627-3035.5z"/>
		<path id="Path_3_1_" class="st1" d="M10518.4-4653.3c6.3,10.4,10.9,21.2,10.5,33.6c-0.4,7.3-0.4,14.7,0.1,22
			c1.1,12.3,3.1,24.4,4.3,36.7c0.7,7.8,1.6,15.7,1.1,23.5c-0.4,5.9-0.6,11.8-0.5,17.6c11.6-20,23.6-40,24-60.9
			C10558.5-4607.2,10538.5-4630,10518.4-4653.3L10518.4-4653.3z M10445.7-4303.2c-13.3,5-23.4,16-35.4,23.6
			c-20.7,13-46,15.2-70.2,17.1c-34.6,2.7-66.2,7.5-98.1,9.1c6.9,39.9,13.3,82.9,19.1,128.3c13.5,105,24.1,223,32.3,345.4l181-331.5
			c7.7,2.8,15.1,6.4,22.2,10.7c0.6-18.6,1.1-36.8,1.7-54.5c2.1-60.7,4.3-115.8,6.8-163.5c-8.4,4.4-18.3,7.8-29.8,9.8
			C10465.4-4307,10455.1-4306.8,10445.7-4303.2z M10993.7-3256.1c-90.5-24.9-151.8-43.5-152-48c-3.7-68.1-9.9,1.2-16-458.1
			c-1.3-94.6-2.5-187.7-3.7-275.6c-3.8-278-7.3-502.3-9.7-546.7c-1.1-20.4-2.1-41.1,7.8-60.7c8.1-16.2,23.5-31.1,35.7-46.6
			c39-49.7,43.8-104,52.1-157.1c0.8-5.1,2.5-10.1,3.7-15.1c3.6-14.8,52.9-25.5,71.8-35.1c10-5.2,19.6-11.1,28.7-17.7v-485.9
			c-2.2-0.2-4.4-0.5-6.6-0.7c-18.4-1.7-36.6-3.8-54.8-5.8c-1.4-0.2-2.8-0.3-4.2-0.5c-0.7-0.1-1.4-0.1-2.1-0.1
			c-8.6,0.8-16.2-1.4-23.4-3c-9.1-2-18.4-3.1-27.8-3.1c-5.6,0-11.3,0.3-16.8-0.1c-3.2-0.4-6.4-0.2-9.5,0.4c-22,5.5-49,7.8-72.7,12.9
			c-6.8,1.4-13.7,1.9-20.6,1.4c-9.3-0.6-28.6,0.5-36.4-2.2c-9.6-3.3-6-10-15.9-13.9c-6.8-2.7-15.5-3.4-23.8-3.9
			c-40.9-2.7-83.9-2.8-123.8,3.4c-36.5,5.7-77.3,31.2-115.8,26.7c-7-0.8-14.4-0.6-21.6-1.1c-3.4-0.4-6.8-0.2-10.1,0.7
			c-2.4,0.6-4.9,0.9-7.4,0.8c-27.6-0.8-43.4,8.8-69.5,11.6c-1,0.2-2,0.6-2.9,1c-1.9,0.5-3.8,1-5.7,1.4c-3.9,0.8-8,1.4-11.9,2.2
			c-5.9,1.3-11.6,2.7-17.4,4c-52.6,11.8-102.8,23.2-143,46.1c-18.4,10.5-38.6,23.5-65,22.1c12-4.2,8.6-15.2-3.1-19.7
			c-11.6-4.5-27.2-4.3-41.3-3.3c-36.7,2.6-72.5,9.4-104.4,19.6c-8.6,2.8-17.4,5.9-27.3,6.2c-6.6,0.2-13.1-0.8-19.6-1.7
			c-66.3-9-140.2,0.9-191.5,25.5c-5.1,2.5-10.4,5.4-10.9,9.2c-0.4,2.7,1.9,5.3,3.1,8c6.8,15.2-21,27.8-45.4,36.1
			c-5.7,2.1-11.6,3.7-17.6,4.7c-3.3,0.4-6.7,0.6-10.1,0.7c-3.4,0.1-6.8,0.1-10.1,0.1c-52.8,0.1-109.8,14.4-141.4,37.9
			c-28.9,21.5,1.2,57-40.5,73c-17.6,6.7-39.7,10.9-51.8,20.6c-5.2,4.1-10.8,9.8-19.8,9c-4.5-0.4-8-2.4-12.5-3
			c-11.6-1.5-18.1,6.6-24.3,12.2c-15.1,13.4-49.3,16.7-67.6,28.8c-19.6,13.1-15.4,32.1-10.2,48.7c7.2,22.9,15.3,46.8,41.7,65
			c24.1,16.6,60.4,26.3,95.4,35.4c29,7.5,58.3,18.9,89.9,20.8c3.6,0.2,6.2,1.2,7.3,3.1c1.4,2.4,2.5,4.9,3.9,7.3
			c1,1.9,2.4,3.7,3.9,5.2c2.8,2.6,5.1,5.1,4.7,8.3c-0.1,1-0.1,2,0.2,3c25.9,101.4,25.7,206.7,105,301.9
			c13.8,16.5,29.7,32.6,40.9,49.7c2.2,3.4,6.7,82.6,12,207.9c0.4,9.4,0.8,19.1,1.2,29c3.3,81.2,7,179,10.5,286.6
			c5.2,156.9,10.3,334.7,14.3,512.1c3.4,150.3,8,117.5,6.2,211.2c-0.1,3.4-0.1,6.9-0.2,10.3c-2.8,128.9-8.9,215.2-19.7,231.1
			c-7.8,11.4-48.3,24.1-94.5,35.3c-7.2,1.7-15.2,3.9-23.9,6.4c-82.5,23.9-219.6,78-154,68.3c49.1-7.3,98.7-14.3,148.6-21
			c144.1-19.4,291-36.5,437.1-51.6c42.4-4.4,84.7-8.6,126.9-12.6c287.6-27.5,567.8-47.4,812.5-61.7c29-1.7,57.4-3.3,85.4-4.8v-207.2
			C11006.1-3252.7,10999.8-3254.4,10993.7-3256.1L10993.7-3256.1z M10849.3-4798c-12.2,37.1-34.3,69.8-67.7,93.1
			c-10.9,7.6-78.1,42.8-78.6,7.2c-0.6-37.7,0.3-75.5,1-113.2c0.3-18.6,0.7-37.2,0.9-55.8c0.2-19.3,1.6-39.3-2.4-58.2
			c15.6-3.6,32.9-1,47.9,4.1c12,4.1,23.7,10.8,36.7,10.8c7.8,0,71.6-18.3,72.9-2.4C10863.2-4874.4,10861.3-4834.5,10849.3-4798z
			 M10388.4-4949.1c29.8-14,23,13.4,23.4,22.7c0.8,21.7-12.4,39.2-18.5,60.2c-1.7,5.7-3.5,11.3-5.3,16.9
			c-7.8,23.4-15.7,45.6-12.7,70.6c3.9,32.4,18.3,64.3,37.7,95c11.8,18.6,25.4,37.9,32.1,57.2c3.5,10.2,5.1,20.3,3.4,30.4
			c-0.9,5.5-2.8,10.9-5.5,15.8c-6.1,11.3-17.1,21.6-27.9,31.8c-10,9.4-20.1,18.8-33.3,26.9c-2.2,1.3-4.5,2.6-6.9,3.8
			c-6.3,3.1-13.5,5.6-21.8,6.4c-20.7,2-39.4-7.4-49.6-17.4c-20.8-20.6-20.8-45.3-29.4-68.4c-6.1-16.3-16.7-32-24.2-48.1
			c-14.2-30.3-17.6-62.1-10.1-93.2c5.5-22.8,18.9-45,19.9-68.1c1-23.2-7.9-47.3-12.5-70.4c-1.6-8-2.9-16.8,5.2-23.5
			c7.1-5.9,19.7-8.8,31.3-11.8c6.8-1.7,13.5-3.5,20.1-5.4C10334-4926.4,10362.5-4937,10388.4-4949.1L10388.4-4949.1z M9900.6-4829.6
			c11.5-11.8,34.5-16,20.4-32.5c-3.1-3.6-8.1-7.1-7.6-11.1c0.7-5.5,11.3-8.7,19.8-11.7c15.1-5.3,27.5-12.9,35.4-21.6
			c4.8-5.3,10.3-12,21.2-12.4c7.5-0.2,14.2,3.1,16.9,7c12.5,18.1,3.6,42.7,7.8,61.9c3.7,17.2,17.8,33.2,34.1,47.9
			c33.2,30,81.8,56.1,104.7,89.3c27.4,39.6,14.3,83.7,0.9,125.4c-1.3,4.4-5.6,7.3-10.2,6.8c-2.1-0.3-4-1-5.8-2.1
			c-47.2-26.9-67.4-60.2-86.9-95c-23.8-42.3-65.8-79.8-109.7-116.7c-3.3-2.8-6.9-5.4-10.5-8c-8.8-6.6-17.9-12.8-27.5-19.1
			c-1.8-1.2-3.8-2.5-4.3-4.1C9898.8-4827,9899.3-4828.3,9900.6-4829.6L9900.6-4829.6z M10094.3-4813.7c-13.6-10.3-19.4-23-24.9-35.3
			l-16.9-37.4c-2-3.9-13.9-9.9-11.3-14.5c1.1-1.8,2.8-3.2,4.8-4c8.9-3.6,25.2,1.6,34.8,2.4c11.4,0.9,27.7-2.1,37.6-5.1
			c17.1-5.2,34.1-13.8,47.4-21.6c28-16.4,47.8,54.8,45.8,65c-4.8,24.1-16.6,48.3-24.2,72.2c-0.6,1.9-1.3,3.9-3.8,5.3
			c-2.3,1.3-5.7,1.7-8.9,1.9C10144.1-4783,10110.8-4801.2,10094.3-4813.7z M9658.1-4600.6c-5.4-5.6-7.6-11.7-8.8-17.9
			c-0.2-1-0.6-2-1.2-3c-1.3-2.5-2.7-5.1-4.1-7.6c-2.2-3.8-4.4-7.7-6.8-11.5c-1.6-2.5-3.5-4.9-5.1-7.5c-0.4-0.9-0.7-1.9-0.7-3
			c-0.4-1.9,0.1-4-1.2-5.6c-5.4-6.8-6.2-14.3-9.8-21.3c-1.6-3.2-2.1-6.5-3.2-9.7c-0.2-0.8-0.5-1.5-0.9-2.2c-4-6.1-6.7-12.9-7.8-20.1
			c-1.3-8.6-3.9-17.2-5.8-25.7c-0.8-3.4-0.3-7-1.9-10.2c-3.5-7.2-3.9-14.7-6.9-22c-2.7-6.6-2.9-13.6-4.2-20.4
			c-1-5.1-2.1-10.1-3-15.2c-1.1-5.8-2.4-11.6-2.8-17.4c-0.4-7.2,0.3-14.4-0.6-21.6c-0.3-2.3-1.6-3.5-6.1-4.2
			c-5-0.8-10.1-1.8-13.1-4.6c-3.6-3.4-2.1-5.6,4.9-6.4c3.4-0.4,7-0.4,10.4-0.8c3.6-0.4,7.1-0.9,10.6-1.7c3.1-0.7,6.3-0.7,9.5,0
			c2.9,0.7,5.8,1.1,8.7,1.4c11.6,0.4,9.4,1.3,14.4-4c7.6-8,24.3-13.6,42.2-12.8c2.8,0.1,5.6,0.1,8.3-0.1c3.5-0.3,6.7-0.6,10.2,0.4
			c3.3,0.9,6.1-0.1,8.7-1.4c5.4-2.8,10.9-5.5,16.7-8.1c5.1-2.2,12.9-2,18,0.2c6.1,2.6,11.9,5.2,16.3,8.8c3.9,3.1,7,7,9.2,11.5
			c1.3,2.6,2.7,5,7.7,6.4c1.6,0.6,2.9,1.8,3.4,3.5c1.8,6.7,3.4,13.3,4.9,20c0.8,3.9,1.9,7.7,1.7,11.7c-0.2,3.2,1.9,6.7,2.2,10.1
			c0.6,6.9,1.5,13.7,2.5,20.6c0.3,2.3,1.1,4.5,1.6,6.8c1.2,5.4,3.6,10.9,3.3,16.3c-0.3,5.7,3.9,10.9,3.7,16.4c0,1.3,0.3,2.5,0.3,3.8
			c-0.2,5.7-0.5,11.4-0.8,17.1c0,0.4-0.2,0.8,0,1.1c4,6.2,1.7,12.6,1,18.8c-0.6,5.1-1,10.1,0.7,15.2c1.6,5,3.7,10,2,15.1
			c-0.6,1.8,0.9,3.7,1.2,5.6c1,6.7,2,13.4,2.7,20.2c-0.1,1.3-0.9,3-1.6,4.6c-3.4,7.8-6.8,15.6-10.4,23.4c-2.6,5.6-5.7,11.2-8.4,16.9
			c-1.1,2.2-1.9,4.6-2.4,7.1c-1,5.1-3,9.8-6,14.1c-1.2,1.7-1.2,3.7-2.1,5.6c-3.3,6.2-5.9,12.6-10.5,18.5c-2.9,3.7-8,7.3-13.7,9.9
			c-7.6,3.5-16.6,6.1-25.3,8.8c-11.6,3.6-24.2-0.5-24.1-9.3c-1.1-2.3-1.9-6.4-5-9.8c-5.3-5.9-9-11.9-10.2-18.4
			c-0.1-0.7-0.9-1.4-1.5-2.1c-2.3-2.8-4.7-5.5-6.8-8.3C9660.8-4596.6,9660-4598.7,9658.1-4600.6L9658.1-4600.6z M10301.2-3088.8
			l2.6,0.1C10303-3088.7,10302.1-3088.7,10301.2-3088.8z M10270.5-3178.3c-49.4,31.8-218.4,75.8-236.3,24.7
			c-18.9-60.2-105.3-569.7-116.5-656.5c-5.8-45.1-11.5-89.6-16.9-133.3c-16.3-131.1-30.6-254.5-41.6-360.4
			c-11.8-112.2-19.9-204.7-23-265.7c-3.8-76-26.1-174.8,22.4-247.6c58.8,41.9,102.9,90,129.3,140.7c13.6,26.1,22.8,53.2,46.7,77
			c25.9,25.7,67.1,45.5,104.2,66.7c38.9,22.2,70,108.8,94.7,233.7c2.9,14.7,5.7,29.9,8.5,45.6c6.9,39.9,13.3,82.9,19.1,128.3
			c13.5,105,24.1,223,32.3,345.4c4,59.4,16.1,322.2,17.6,373.6C10320.4-3277,10288.1-3183,10270.5-3178.3z M10645-3294.5
			c-4.7,40.3-148.5,135.3-155.6,92.8c-4.4-26.3-6.6-219.9-6.2-473.4c0.1-82.5,0.5,389.9,1.2,298.5c0.5-63.4,1.1-128,1.9-192.7
			c2.2-186.9,5.6-373.9,10.3-531.1c0.6-18.6,1.1-36.8,1.7-54.5c2.1-60.7,4.3-115.8,6.8-163.5c5.4-102.2,11.8-170.3,19.3-184.6
			c14.2-27.2,36.2-53.6,32.3-86.3c-2.5-20.4-15-37.5-28.3-52.4c-25.5-28.7-45.6-60.6-69.3-90.7c-8.5-10.8-20.2-21-21.2-35.6
			c-2.1-30.5-1-62.7,2-93.7c2.3-24.2,5.4-51.7,26.2-67.6c12.9-9.8,18.8,1.7,29.5-0.3c12.7-2.4,19.4-5.8,30.3-12.8
			c14.7-9.6,41.4-2.2,52-11.6c4.7-4.2,6.5-9.4,13.3-12.6c11.1-5.4,30-2,38.4,4.7c8.4,6.7,9.3,15.3,9.7,23.4
			c0.2,3.5,0.4,6.9,0.5,10.4c4,89.1-2.4,178.4,11.2,267.2c8.8,57.5,25.8,114.9,20.5,172.4c0,0.5-0.1,6.2-0.1,16.4
			c-0.2,63.9-0.1,303.4,1.3,527.9c0.4,68.2,0.9,135.1,1.6,195.1C10674.9-3694.2,10647.5-3316,10645-3294.5z"/>
		<path id="Path_6_1_" class="st0" d="M9867.2-3184"/>
		<path id="Path_7_1_" class="st0" d="M9888.5-3192.5"/>
	</g>
	<g class="st2">
		
			<linearGradient id="SVGID_1_" gradientUnits="userSpaceOnUse" x1="10416.7588" y1="-11901.667" x2="10416.7588" y2="-9686.1689" gradientTransform="matrix(1 0 0 1 0 7816)">
			<stop  offset="0" style="stop-color:#FFFFFF;stop-opacity:0"/>
			<stop  offset="0.325" style="stop-color:#D8EBEA;stop-opacity:0.325"/>
			<stop  offset="0.776" style="stop-color:#A6D2CE;stop-opacity:0.776"/>
			<stop  offset="1" style="stop-color:#93C8C4"/>
		</linearGradient>
		<path class="st3" d="M10945.5-4116.8v820.2l-18.1,52.8l-293.8,857.8l-2.4,8.6c-10.6,23.8-60.7,56.9-130.6,81
			c-92.8,32.1-220.6,424.1-337.1,382.3c-204.2-73.3-296.2-297.8-271.5-353.3l4.8-7.7l166.7-292.8l141.8-249l94.2-165.4l123.6-217
			l35.1-61.7l21.9-38.4l57.7-101.3l49.4-86.9l50.3-88.4l95.9-168.4l17.7-31.1l85.7-150.4l9.9-17.4L10945.5-4116.8L10945.5-4116.8z"
			/>
	</g>
	<g class="st2">
		
			<linearGradient id="SVGID_2_" gradientUnits="userSpaceOnUse" x1="9981.0078" y1="-13220.7158" x2="9981.0078" y2="-9984.4844" gradientTransform="matrix(1 0 0 1 0 7816)">
			<stop  offset="0" style="stop-color:#FFFFFF;stop-opacity:0"/>
			<stop  offset="0.325" style="stop-color:#D8EBEA;stop-opacity:0.325"/>
			<stop  offset="0.776" style="stop-color:#A6D2CE;stop-opacity:0.776"/>
			<stop  offset="1" style="stop-color:#93C8C4"/>
		</linearGradient>
		<path class="st4" d="M10991.6-5450.1v374.4l-0.3,0.5l-181.4,310.2l-36.8,63.1l-169.1,289.1l-197,336.6l-27.2,46.5l-205.8,351.9
			l-115.2,196.8l-66.2,113.3l-64.7,110.7l-90,153.6l-85.4,146l-260,444.5l-13.3,22.7l-26.5,45.3l-6.4,11.8
			c-13.9,22.3-43.6,53-81.7,83.9c-93.7,76-237.9,152.9-321.1,107.6c-117.1-63.6-69.5-344.6-21.4-421.8l7.7-10.9l144-208.2
			l311.6-450.3l132-190.7l129.2-186.6l163.3-236.1l162.2-234.4l33.7-48.6l160.6-232.3l80.1-115.3l48.4-70l3.4-5L10568-4897
			l353.4-510.7l28.1-40.7L10991.6-5450.1L10991.6-5450.1z"/>
	</g>
	<path d="M8998.1-4546.4c49.1,73.9-52-7.2-52.5,53.4c-1.2,152.9,40,345.8,40.8,442.9c1.8,228.1,24.9,558.4,26.8,786.5
		c1.6,199.8,3.2,399.6,4.9,599.5c1.2,145.6,2.4,291.2,3.5,436.8c0.5,65.5,1.1,130.9,1.6,196.4c0,1.3,0,2.6,0,3.9h1951.7
		c0.2-0.3-4.7-648.3-25.3-648.2c-343.9,1.3-220.9,178-363.3,183.1c-113.4,4-204,224.4-253.4,228.4c-13.5,1.1-83-2.3-159.4-8.9
		c-82.2-7.1-172.4-18-209.9-31.2c-49.8-17.4-152.4-71.5-210-86.8c-21-5.6-197.1-24.5-218.4-29.4c-20.5-4.8-67.2-14.2-109.3-26.8
		c-15.2-203.3-146.6-904.7-56.5-1201.1c50.2-161.3,370.2-122.7,393.4-194.1c39.2-38,180.8-284,230.5-315.8
		c23.7-29.1,54.8-50.6,82.5-75.6c6.3-5.7,12.4-11.6,18.2-17.8c39.8-42.2,63.9-97,87.4-150.6c23.2-1.8,46.4,1.6,69.6,5.1
		c31.4,4.8,27.6-8.8,58.3-15.5c16.4-3.6,13.3-38.1,15.6-39.1c12.3-38,54.7-30.4,56.9-86c-2.2-71.4-15.2-28.1-27.9-90.4
		c-1.9-9.3-50.2-77-100.2-82.3c-66.1-2.5-75,20.9-130.8,12c-29.4-9.9-195.1-80.4-248.9-26.8c-33.9,39-134-14.5-160.7,81.5
		c-29.3,90.4-52.5,46.9-75.9,101.6c-23.4,54.7,21.4,134,34.7,146.1c10.7,9.7,24.8,14.4,38.4,18.8c2.5,0.8,5,1.8,7.3,2.8
		c54.8,24.2,55.9,102.9,102.3,60.1c18.2,31,23.8,66.9,21.7,103.3c-1.9,31-9.4,62.4-19.6,91.5c-8.3,23.8-143.7,106.9-168.4,123.9
		c-1.8,1.3-3.6,2.4-5.3,3.4c0.6,0.4,1.3,0.8,1.9,1.2c0,0-0.8,1.1-1.2,1.5c-0.8-0.6-1.5-1.2-2.2-1.8l-0.1-0.1
		c-32.6,18.2-279.8,77.3-367.3-29.9c-51.7-67.8-55.9-225.4,29.4-378.3c25.6-45.9,59.2-75.8,95.8-94.8
		c40.2-20.9,75.7,21.1,116.8,19.5c78.2-3,117.9,39.6,131.7,35.2c67.4-21.6,188.7-239.3,234.8-244.9c54-6.6,160-3.8,212.9,9.4
		c18.8,4.7,38.4-10.3,55.8-9.4c12.8,0.6,65.6,16.8,78.1,16.1c31.9-1.7,78.4,20.6,85.8-3.2c19.1-61.7-42.9-135.4-22.2-148.4
		c12-7.6-5.2-34.4,8.1-39.4c9.4-3.6,28.3-74.7-10.1-95.3c-39.9-21.4-82.4-44.4-104.6-85.9c-17.7-33.2-19.8-72.4-46.4-101.1
		c-20.5-22.1-46.7-53-71.7-66.1c-46.2-24.4-61.4-84-113.6-99.5c-47.6-14.2-99.1-15.5-147.7-27.5c-32.7-8.1-66.3-13.1-100-11.1
		c-31.8,1.9-60.7,16.2-91.8,18.8c-77.7,6.4-114.8-79.9-189.5-36.8c-24.5,14.1-67,13.1-107.6,9.4c-40.6-3.6-60.8,10.7-86.5,28.5
		c-39.1,27.1-42.4,65.5-92.2,67.6c-58.4,2.6-206.5,47.4-142.9,264.5 M9888.5-4314.6c-1.3-17.3,0.9-34.4,10.3-49.5
		c16.1-25.8,98-15.7,127.4-21.2c14.7-2.8,98.7-47.9,96.7-17.5c-1.9,29.3-15.2,61.9-32.3,85.6c-29.9,41.2-85,46.9-124.7,91.1
		c-1.8,0.3-61.8,63.4-62.9,59.6C9899.3-4179.4,9889.5-4300.9,9888.5-4314.6z"/>
	<path d="M9596.9-4362.8"/>
</g>
<g id="Layer_2_2_" transform="translate(-65.911)">
	<path id="Path_1" class="st5" d="M13262.6-5522.7c0.5,0.1,1,0.2,1.5,0.1L13262.6-5522.7z M14100.7-5505.8c0.5,0.1,1,0.1,1.5,0
		H14100.7z M14102.3-5505.8c0.2,0,0.2,0,0.2-0.1C14102.4-5505.9,14102.3-5505.9,14102.3-5505.8z"/>
	<path id="Path_2" class="st5" d="M13262.6-5522.7c0.5,0.1,1,0.2,1.5,0.1L13262.6-5522.7z M14100.7-5505.8c0.5,0.1,1,0.1,1.5,0
		H14100.7z M14102.3-5505.8c0.2,0,0.2,0,0.2-0.1C14102.4-5505.9,14102.3-5505.9,14102.3-5505.8z"/>
	<path id="Path_3" class="st5" d="M14102.3-5505.8c0.2,0,0.2,0,0.2-0.1C14102.4-5505.9,14102.3-5505.9,14102.3-5505.8z
		 M14100.7-5505.8c0.5,0.1,1,0.1,1.5,0H14100.7z M13262.6-5522.7c0.5,0.1,1,0.2,1.5,0.1L13262.6-5522.7z"/>
	<path class="st5" d="M8171.5-7436.4c-19.4-65.3-9.9-699.7-16-1158.4c-1.3-94.5-2.5-187.5-3.7-275.2c-3.8-277.7-7.3-501.7-9.7-546
		c-1.1-20.4-2.1-41.1,7.8-60.6c8.1-16.2,23.5-31.1,35.7-46.6c39-49.6,43.8-103.9,52.1-156.9c0.8-5.1,2.5-10.1,3.7-15.1
		c3.6-14.8,52.9-25.5,71.8-35.1c10-5.2,40.7-26.1,49.8-32.7v-485.3c-2.2-0.2-4.4-0.5-6.6-0.7c-18.4-1.7-57.7,11.2-75.9,9.2
		c-1.4-0.2-2.8-0.3-4.2-0.5c-0.7-0.1-1.4-0.1-2.1-0.1c-8.6,0.8-16.2-1.4-23.4-3c-9.1-2-18.4-3.1-27.8-3.1c-5.6,0-11.3,0.3-16.8-0.1
		c-3.2-0.4-6.4-0.2-9.5,0.4c-22,5.5-49,7.8-72.7,12.9c-6.8,1.4-13.7,1.9-20.6,1.4c-9.3-0.6-28.6,0.5-36.4-2.2
		c-9.6-3.3-6-10-15.9-13.9c-6.8-2.7-15.5-3.4-23.8-3.9c-40.9-2.7-83.9-2.8-123.8,3.4c-36.5,5.7-77.3,31.2-115.8,26.7
		c-7-0.8-14.4-0.6-21.6-1.1c-3.4-0.4-6.8-0.2-10.1,0.7c-2.4,0.6-4.9,0.9-7.4,0.8c-27.6-0.8-43.4,8.8-69.5,11.6c-1,0.2-2,0.6-2.9,1
		c-1.9,0.5-3.8,1-5.7,1.4c-3.9,0.8-8,1.4-11.9,2.2c-5.9,1.3-11.6,2.7-17.4,4c-52.6,11.8-102.8,23.2-143,46
		c-18.4,10.5-56.4,6.9-68.1,2.4c-11.6-4.5-27.2-4.3-41.3-3.3c-36.7,2.6-72.5,9.4-104.4,19.6c-8.6,2.8-17.4,5.9-27.3,6.2
		c-6.6,0.2-13.1-0.8-19.6-1.7c-66.3-9-140.2,0.9-191.5,25.5c-5.1,2.5-10.4,5.4-10.9,9.2c-0.4,2.7,1.9,5.3,3.1,8
		c6.8,15.2-21,27.8-45.4,36.1c-5.7,2.1-11.6,3.7-17.6,4.7c-3.3,0.4-6.7,0.6-10.1,0.7c-3.4,0.1-6.8,0.1-10.1,0.1
		c-52.8,0.1-109.8,14.4-141.4,37.9c-28.9,21.5,1.2,56.9-40.5,72.9c-17.6,6.7-39.7,10.9-51.8,20.6c-5.2,4.1-10.8,9.8-19.8,9
		c-4.5-0.4-8-2.4-12.5-3c-11.6-1.5-18.1,6.6-24.3,12.2c-15.1,13.4-49.3,16.7-67.6,28.8c-19.6,13.1-15.4,32.1-10.2,48.6
		c7.2,22.9,15.3,46.7,41.7,64.9c24.1,16.6,60.4,26.3,95.4,35.3c29,7.5,58.3,18.9,89.9,20.8c3.6,0.2,6.2,1.2,7.3,3.1
		c1.4,2.4,2.5,4.9,3.9,7.3c1,1.9,2.4,3.7,3.9,5.2c2.8,2.6,5.1,5.1,4.7,8.3c-0.1,1-0.1,2,0.2,3c25.9,101.3,25.7,206.4,105,301.5
		c13.8,16.5,29.7,32.6,40.9,49.6c2.2,3.4,6.7,82.5,12,207.6c0.4,9.4,0.8,19.1,1.2,29c3.3,81.1,7,178.8,10.5,286.2
		c5.2,156.7,10.3,1035.2,14.3,1212.3c3.4,150.1,8,117.3,6.2,210.9c-0.1,3.4-0.1,6.9-0.2,10.3c-2.8,128.7-7.6,121-18.4,136.9
		c-7.8,11.4-400.5,149.6-387.9,178.1c1.4,0.1,5.1,0.5,10.9,1v1070.2H8363v-1397.7C8414.8-7342,8190.4-7372.7,8171.5-7436.4z
		 M7631-7221.4l2.6,0.1C7632.8-7221.3,7631.9-7221.3,7631-7221.4z M7794.9-7151.3h1.5C7795.9-7151.2,7795.4-7151.2,7794.9-7151.3z
		 M7796.5-7151.3c0-0.1,0.1-0.1,0.2-0.1C7796.7-7151.3,7796.7-7151.3,7796.5-7151.3z M7813-8507.9c0-31.7,0.1,122.2,0.2,318.5
		C7813-8322.7,7812.9-8439,7813-8507.9z M8080.2-9752.1c12,4.1,23.7,10.8,36.7,10.8c7.8,0,71.6-18.3,72.9-2.4
		c3.2,38,1.3,77.9-10.7,114.3c-12.2,37-34.3,69.7-67.7,93c-10.9,7.6-78.1,42.7-78.6,7.2c-0.6-37.7,0.3-75.4,1-113.1
		c0.3-18.6,0.7-37.2,0.9-55.8c0.2-19.3,1.6-39.2-2.4-58.1C8047.9-9759.8,8065.2-9757.2,8080.2-9752.1z M7769.7-9693.1
		c2.3-24.2,5.4-51.6,26.2-67.5c12.9-9.8,18.8,1.7,29.5-0.3c12.7-2.4,19.4-5.8,30.3-12.8c14.7-9.6,41.4-2.2,52-11.6
		c4.7-4.2,6.5-9.4,13.3-12.6c11.1-5.4,30-2,38.4,4.7c8.4,6.7,9.3,15.3,9.7,23.4c0.2,3.5,0.4,6.9,0.5,10.4c4,89-2.4,178.2,11.2,266.9
		c8.8,57.4,25.8,114.8,20.5,172.2c0,0.5-0.1,6.2-0.1,16.4c-0.2,63.8-0.1,303,1.3,527.2c0.4,68.1,0.9,134.9,1.6,194.9
		c0.6,54.8-26.8,1133.5-29.3,1154.9c-4.7,40.2-148.5,135.1-155.6,92.7c-1.9-11.5-3.4-189.5-4.5-407.3
		c-0.2,119.1-0.4,212.2-0.5,232.6c-0.4,55.9-0.7-361.6-1-675.2c0.3,140.9,0.8,300.2,1.5,442.6c0.4-250.9,0.8-617,1.4-660.8
		c2.2-186.7,5.6-373.4,10.3-530.4c0.6-18.6,1.1-36.8,1.7-54.4c2.1-60.6,4.3-115.7,6.8-163.3c5.4-102.1,11.8-170.1,19.3-184.4
		c2.9-5.6,6.2-11.2,9.5-16.8c0.8-1.4,1.7-2.8,2.5-4.3c0.3-0.4,0.5-0.9,0.8-1.3c2.7-4.7,5.4-9.4,7.9-14.1c0.2-0.4,0.4-0.8,0.6-1.2
		c0.2-0.4,0.4-0.8,0.6-1.2c7.4-14.7,12.4-30.1,10.4-47.3c-0.8-6.8-2.8-13.2-5.5-19.3c0,0,0,0,0,0c-5.4-12.2-13.9-23.1-22.8-33.1
		c-25.5-28.7-45.7-60.6-69.3-90.5c-8.5-10.8-20.2-20.9-21.2-35.6C7765.6-9630,7766.7-9662.1,7769.7-9693.1z M7569.6-9569.8
		c5.5-22.8,18.9-44.9,19.9-68c1-23.2-7.9-47.2-12.5-70.3c-1.6-8-2.9-16.8,5.2-23.5c7.1-5.9,19.7-8.8,31.3-11.8
		c6.8-1.7,13.5-3.5,20.1-5.4c30.2-8.8,58.7-19.4,84.6-31.5c29.8-14,23,13.4,23.4,22.7c0.8,21.7-12.4,39.2-18.5,60.1
		c-1.7,5.7-3.5,11.3-5.3,16.9c-7.8,23.4-15.7,45.5-12.7,70.5c3.9,32.4,18.3,64.2,37.7,94.9c11.8,18.6,25.4,37.9,32.1,57.1
		c3.5,10.2,5.1,20.3,3.4,30.4c-0.9,5.5-2.8,10.9-5.5,15.8c-6.1,11.3-17.1,21.6-27.9,31.8c-10,9.4-20.1,18.8-33.3,26.9
		c-2.2,1.3-4.5,2.6-6.9,3.8c-6.3,3.1-13.5,5.6-21.8,6.4c-20.7,2-39.4-7.4-49.6-17.4c-20.8-20.6-20.8-45.2-29.4-68.3
		c-6.1-16.3-16.7-32-24.2-48C7565.5-9507,7562.1-9538.7,7569.6-9569.8z M7371-9732.3c1.1-1.8,2.8-3.2,4.8-4
		c8.9-3.6,25.2,1.6,34.8,2.4c11.4,0.9,27.7-2.1,37.6-5.1c17.1-5.2,34.1-13.8,47.4-21.6c28-16.4,47.8,54.7,45.8,64.9
		c-4.8,24.1-16.6,48.2-24.2,72.1c-0.6,1.9-1.3,3.9-3.8,5.3c-2.3,1.3-5.7,1.7-8.9,1.9c-30.6,2-63.9-16.2-80.4-28.7
		c-13.6-10.3-19.4-23-24.9-35.3l-16.9-37.4C7380.3-9721.7,7368.4-9727.7,7371-9732.3z M7230.4-9660.9c11.5-11.8,34.5-16,20.4-32.5
		c-3.1-3.6-8.1-7.1-7.6-11.1c0.7-5.5,11.3-8.7,19.8-11.7c15.1-5.3,27.5-12.9,35.4-21.6c4.8-5.3,10.3-12,21.2-12.4
		c7.5-0.2,14.2,3.1,16.9,7c12.5,18.1,3.6,42.6,7.8,61.8c3.7,17.2,17.8,33.2,34.1,47.8c33.2,30,81.8,56,104.7,89.2
		c27.4,39.6,14.3,83.6,0.9,125.2c-1.3,4.4-5.6,7.3-10.2,6.8c-2.1-0.3-4-1-5.8-2.1c-47.2-26.9-67.4-60.1-86.9-94.9
		c-23.8-42.2-65.8-79.7-109.7-116.6c-3.3-2.8-6.9-5.4-10.5-8c-8.8-6.6-17.9-12.8-27.5-19.1c-1.8-1.2-3.8-2.5-4.3-4.1
		C7228.6-9658.3,7229.1-9659.6,7230.4-9660.9z M7188.4-9648.4c58.8,41.8,102.9,89.9,129.3,140.5c13.6,26.1,22.8,53.1,46.7,76.9
		c25.9,25.7,67.1,45.4,104.2,66.6c38.9,22.2,70,108.7,94.7,233.4c2.9,14.7,5.7,29.9,8.5,45.5c0,0,0,0.1,0,0.1
		c6.9,39.9,13.3,82.7,19.1,128c13.5,104.9,24.1,222.7,32.3,345c0,0,0,0.1,0,0.1c4,60.2,16.1,1022.6,17.6,1073.9
		c9.4,129-22.9,222.9-40.5,227.6c-49.4,31.8-218.4,75.7-236.3,24.7c-18.9-60.1-105.3-1269.9-116.5-1356.6
		c-5.8-45-11.5-89.5-16.9-133.1c-16.3-130.9-30.6-254.2-41.6-359.9c-11.8-112.1-19.9-204.4-23-265.4
		C7162.2-9477,7139.9-9575.7,7188.4-9648.4z M6949.2-9511.5c-7-29.8-14.1-60-25.5-88c-2.7-6.6-2.9-13.6-4.2-20.4
		c-1-5.1-2.1-10.1-3-15.2c-1.1-5.8-2.4-11.6-2.8-17.4c-0.4-7.2,0.3-14.4-0.6-21.6c-0.3-2.3,3.2-16.9,6.7-17.7c3.1-0.7,6.3-0.7,9.5,0
		c2.9,0.7,5.8,1.1,8.7,1.4c11.6,0.4,9.4,1.3,14.4-4c7.6-8,24.3-13.6,42.2-12.8c2.8,0.1,5.6,0.1,8.3-0.1c3.5-0.3,6.7-0.6,10.2,0.4
		c3.3,0.9,6.1-0.1,8.7-1.4c5.4-2.8,10.9-5.5,16.7-8.1c5.1-2.2,12.9-2,18,0.2c6.1,2.6,11.9,5.2,16.3,8.8c3.9,3.1,7,7,9.2,11.5
		c1.3,2.6,14.5,23.2,16,29.9c0.8,3.9,1.9,7.7,1.7,11.7c-0.2,3.2,2.4,6.7,2.2,10.1c-2.8,45.9,34.1,244.1-38.4,258
		C7053.9-9384.3,6978.6-9386,6949.2-9511.5z M6958.3-7168.1c-0.5,0.1-1,0-1.5-0.1L6958.3-7168.1z"/>
	<path id="Path_6" class="st5" d="M13502.8-5671L13502.8-5671z"/>
	<path id="Path_7" class="st5" d="M13524.1-5679.5L13524.1-5679.5z"/>
</g>
<linearGradient id="SVGID_3_" gradientUnits="userSpaceOnUse" x1="5783.0635" y1="-4775.959" x2="5783.0635" y2="-6055.4922" gradientTransform="matrix(1 0 0 1 0 3276)">
	<stop  offset="0" style="stop-color:#FFFFFF;stop-opacity:0"/>
	<stop  offset="0.325" style="stop-color:#D8EBEA;stop-opacity:0.325"/>
	<stop  offset="0.776" style="stop-color:#A6D2CE;stop-opacity:0.776"/>
	<stop  offset="1" style="stop-color:#93C8C4"/>
</linearGradient>
<path class="st6" d="M6748.4-2764.4v1265.8l-392.4-4.9l-933.9-11.6l-531.6-6.6l-66.6-0.8l-4.7-647.3l-0.9-304.4
	c-0.1-53-0.3-108.2-0.4-164.8c0-13-0.1-26-0.1-39.1l20.8,4.4l175.9,37.3c41.2,8.7,86.1,13.3,132,13.9c9,0.1,18.1,0.1,27.2-0.1
	c86.4-1.8,174.5-17.4,246.4-45.3l1-0.4c18-7,37.1-13.2,56.8-18.7c104.7-28.8,230.3-35.2,335.1-15.6l100.1,18.7
	c7,1.3,14.1,2.5,21.3,3.6c119.1,17.8,260.4,4.1,367.1-36.5l45.2-17.2c100.2-38.1,230.9-52.5,345-39.4c15.1,1.7,29.9,4,44.3,6.7
	L6748.4-2764.4z"/>
<g class="st7">
	<g class="st8">
		<g>
			
				<linearGradient id="SVGID_4_" gradientUnits="userSpaceOnUse" x1="6198.4224" y1="-8036.2261" x2="6198.4224" y2="-4608.1157" gradientTransform="matrix(1 0 0 1 0 3276)">
				<stop  offset="0" style="stop-color:#FFFFFF;stop-opacity:0"/>
				<stop  offset="0.325" style="stop-color:#D8EBEA;stop-opacity:0.325"/>
				<stop  offset="0.776" style="stop-color:#A6D2CE;stop-opacity:0.776"/>
				<stop  offset="1" style="stop-color:#93C8C4"/>
			</linearGradient>
			<polygon class="st9" points="6931.3,-4808.4 6931.3,-3261.7 6817.3,-2883.9 6788,-2773.4 6701.1,-2444.8 6636.2,-2199.5 
				6546.3,-1859.6 6546.3,-1859.5 6452.2,-1503.5 6423.5,-1395.3 5465.6,-1395.3 5518.2,-1515.1 5560.1,-1610.2 5617.3,-1740.3 
				5766.4,-2079.4 5796.4,-2147.7 5903.5,-2391.1 5951,-2499 6030.7,-2680.3 6083.4,-2800.1 6134.5,-2916.3 6166.3,-2988.7 
				6250.3,-3179.6 6322.2,-3343.4 6395.4,-3510 6534.9,-3827.3 6560.7,-3885.9 6685.4,-4169.3 6699.8,-4202.1 6843.6,-4529.1 			"/>
		</g>
	</g>
</g>
<image style="display:none;overflow:visible;enable-background:new    ;" width="3103" height="3103" xlink:href="nessy.png"  transform="matrix(0.1098 0 0 0.1098 6190.9565 -2612.646)">
</image>
<g class="st10">
	<g class="st8">
		<g>
			
				<linearGradient id="SVGID_5_" gradientUnits="userSpaceOnUse" x1="5901.8223" y1="-9075.4678" x2="5901.8223" y2="-4588.6357" gradientTransform="matrix(1 0 0 1 0 3276)">
				<stop  offset="0" style="stop-color:#FFFFFF;stop-opacity:0"/>
				<stop  offset="0.325" style="stop-color:#D8EBEA;stop-opacity:0.325"/>
				<stop  offset="0.776" style="stop-color:#A6D2CE;stop-opacity:0.776"/>
				<stop  offset="1" style="stop-color:#93C8C4"/>
			</linearGradient>
			<path class="st11" d="M6889.7-5862.4v565.3l-0.4,0.8l-236,468.4l-47.9,95.3l-220,436.5l-256.3,508.2l-35.4,70.2l-267.8,531.3
				L5676-2889.2l-86.1,171.1l-15.7,31.2l-68.5,136l-75.3,149.2l-41.8,82.7l-68.1,135l-21.3,42.2l-21.8,43.2l-290.8,576.9l-47.5,94.2
				l-16.2,32.1h-1.8c-0.3-42.4-0.7-84.8-1.1-127.2c-0.1-16.3-0.3-32.7-0.4-49c-1.1-145.6-2.3-291.2-3.5-436.8
				c-0.3-30.9-0.5-87.4-0.8-161.5l-0.9-304.4c-0.1-53-0.3-108.2-0.4-164.8l15.8-26.4l4.9-8.2l166.8-279.7l142.4-238.7l25.7-43.1
				l212.5-356.5l211.1-353.9l43.8-73.4l209-350.8l104.2-174.1l63-105.7l4.4-7.6l220.8-370.2l459.8-771.1l36.6-61.4L6889.7-5862.4z"
				/>
		</g>
	</g>
</g>
<linearGradient id="SVGID_6_" gradientUnits="userSpaceOnUse" x1="5783.3135" y1="-4665.1797" x2="5783.3135" y2="-5734.5278" gradientTransform="matrix(1 0 0 1 0 3276)">
	<stop  offset="0" style="stop-color:#FFFFFF;stop-opacity:0"/>
	<stop  offset="0.325" style="stop-color:#D8EBEA;stop-opacity:0.325"/>
	<stop  offset="0.776" style="stop-color:#A6D2CE;stop-opacity:0.776"/>
	<stop  offset="1" style="stop-color:#93C8C4"/>
</linearGradient>
<path class="st12" d="M6748.4-2489.6v1094.3H4825c-0.3-42.4-0.7-84.8-1.1-127.2l-4.7-647.3l-0.9-304.4
	c108.4-37.5,238.6-35,344.8,8.9l20,8.3l78.6,32.5c23.1,9.6,47.4,17.2,72.4,22.8c105.8,24,223.6,12.9,317.3-32.4l46.3-22.4
	c47.7-23,101.6-37.2,157-42.4c79.5-7.5,162.1,3.4,233.7,33.2l100.7,41.9c119.7,49.8,270.4,47.1,386.1-7l29.7-13.9l16-7.5
	C6660.3-2470.7,6703.7-2483.1,6748.4-2489.6z"/>
<linearGradient id="SVGID_7_" gradientUnits="userSpaceOnUse" x1="5783.7637" y1="-4469.0742" x2="5783.7637" y2="-5072.3232" gradientTransform="matrix(1 0 0 1 0 3276)">
	<stop  offset="0" style="stop-color:#FFFFFF;stop-opacity:0"/>
	<stop  offset="0.325" style="stop-color:#D8EBEA;stop-opacity:0.325"/>
	<stop  offset="0.776" style="stop-color:#A6D2CE;stop-opacity:0.776"/>
	<stop  offset="0.9409" style="stop-color:#93C8C4"/>
</linearGradient>
<path class="st13" d="M6748.4-2095.7v700.4H4825c-0.3-42.4-0.7-84.8-1.1-127.2l-4.7-647.3c116.8,74.2,265.5,74.2,382.1,1.4
	c6.6-4.1,13-8.4,19.3-13l1-0.7c0.9-0.6,1.8-1.3,2.7-1.9c115.8-81.6,269-87.5,390.7-14.6l85.2,51l13.4,8
	c121.3,72.6,273.9,67.1,389.7-13.9l46.3-32.4c116-81.2,269-86.5,390.3-13.5c0.1,0.1,0.2,0.1,0.3,0.2l100.7,60.6
	C6674.8-2118.3,6711.1-2104,6748.4-2095.7z"/>
<path class="st14" d="M6545.6-2025.2c-13.3,13.3-31.6,22.2-61.9,23.2c-113.4,4-204,224.4-253.4,228.4c-13.5,1.1-83-2.3-159.4-8.9
	c-82.2-7.1-172.4-18-209.9-31.2c-49.8-17.4-152.4-71.5-210-86.8c-4.7-1.3-17.4-3.2-34.4-5.5c-58.2-7.9-167.5-20.1-184-23.9
	c-20.5-4.8-67.2-14.2-109.3-26.8c-3.5-46.7-13.1-175.8-24.8-350.8c-0.6-8.8-1.2-17.6-1.8-26.6c-5.8-87.2-65.3-1318-29.3-1436.6
	c50.2-161.3,370.2-122.7,393.4-194.1c39.2-38,180.8-284,230.5-315.8c23.7-29.1,54.8-50.6,82.5-75.6c6.3-5.7,12.4-11.6,18.2-17.8
	c39.8-42.2,63.9-97,87.4-150.6c23.2-1.8,46.4,1.6,69.6,5.1c31.4,4.8,27.6-8.8,58.3-15.5c16.4-3.6,13.3-38.1,15.6-39.1
	c12.3-38,54.7-30.4,56.9-86c-2.2-71.4-15.2-28.1-27.9-90.4c-1-4.7-14-24.7-33.2-43.8c18.9-61.7-42.9-135.3-22.2-148.2
	c21.9-100.7,5.1-145.4-2.5-155.6c4.4-16.7-14-100.5-49.1-119.4c-39.9-21.4-48.6-28.9-60.3-95.9c-17.7-33.2-14.1-121.6-40.7-150.3
	c-20.5-22.1-93.9-109.4-118.9-122.5c-46.2-24.4-61.4-84-113.6-99.5c-47.6-14.2-99.1-15.5-147.7-27.5c-32.7-8.1-66.3-13.1-100-11.1
	c-31.8,1.9-114.6-18.7-145.7-16.1c-77.7,6.4-114.8-79.9-189.5-36.8c-24.5,14.1-67,13.1-107.6,9.4c-40.6-3.6-60.8,10.7-86.5,28.5
	c-39.1,27.1-42.4,65.5-92.2,67.6c-58.4,2.6-152.6,82.3-89,299.4l42.8,703.1c49.1,73.9-52-7.2-52.5,53.4
	c-1.2,152.9,40,345.8,40.8,442.9c1.8,228.1,24.9,329.9,26.8,558c0.9,114.9,1.8,582.8,2.8,997.8c0,13.1,0.1,26.1,0.1,39.1
	c0.1,56.5,0.3,111.8,0.4,164.8l0.2,77.7c0.3,74.1,0.5,130.6,0.8,161.5c1.2,145.6,2.4,291.2,3.5,436.8c0.1,16.4,0.3,32.7,0.4,49
	c0.4,42.4,0.7,84.8,1.1,127.2h1923.4v-624C6576.5-2183.1,6594.7-2074.1,6545.6-2025.2z M5796.9-4486.8c16.1-25.8,98-15.7,127.4-21.2
	c14.7-2.8,98.7-47.9,96.7-17.5c-1.9,29.3-15.2,61.9-32.3,85.6c-29.9,41.2-85,46.9-124.7,91.1c-1.8,0.3-61.8,63.4-62.9,59.6
	c-3.7-12.9-13.5-134.4-14.5-148.1C5785.3-4454.6,5787.5-4471.7,5796.9-4486.8z M5177.7-4143.6c-51.7-67.8-55.9-225.4,29.4-378.3
	c25.6-45.9,59.2-75.8,95.8-94.8c40.2-20.9,75.7,21.1,116.8,19.5c67.2-2.6,106,28.5,124.3,34.5c9.3,22.2,20.6,39.3,26.2,44.4
	c10.7,9.7,24.8,14.4,38.4,18.8c2.5,0.8,5,1.8,7.3,2.8c54.8,24.2,32.5,105.6,78.9,62.8c18.2,31,30.6,69.1,28.5,105.5
	c-1.9,31,7.3,57.5-2.9,86.6c-8.3,23.8-143.7,106.9-168.4,123.9c-1.8,1.3-3.6,2.4-5.3,3.4c0.6,0.4,1.3,0.8,1.9,1.2
	c0,0-0.8,1.1-1.2,1.5c-0.8-0.6-1.5-1.2-2.2-1.8l-0.1-0.1C5512.4-4095.5,5265.2-4036.4,5177.7-4143.6z"/>
<path class="st15" d="M5495-4775.1"/>
<image style="display:none;overflow:visible;enable-background:new    ;" width="1536" height="2048" xlink:href="fairy-sit.png"  transform="matrix(0.1653 0 0 0.1653 5241.0703 -4328.4092)">
</image>
<image style="display:none;overflow:visible;enable-background:new    ;" width="2339" height="2113" xlink:href="rock_monster.png"  transform="matrix(0.2404 1.768038e-02 -1.768038e-02 0.2404 5274.3799 -2322.5242)">
</image>
<image style="display:none;overflow:visible;enable-background:new    ;" width="3103" height="3103" xlink:href="mer-skull.png"  transform="matrix(0.1345 0 0 0.1345 6211.0688 -2193.7527)">
</image>
<g id="Layer_2_4_" transform="translate(-65.911)">
	<path id="Path_1_3_" class="st5" d="M4481.5-7011.3c0.2,0,0.2,0,0.2-0.1C4481.6-7011.4,4481.5-7011.4,4481.5-7011.3z
		 M4481.4-7011.3h-1.5C4480.4-7011.2,4480.9-7011.2,4481.4-7011.3z M3641.8-7028.2c0.5,0.1,1,0.2,1.5,0.1L3641.8-7028.2z"/>
	<path id="Path_2_3_" class="st5" d="M4481.5-7011.3c0.2,0,0.2,0,0.2-0.1C4481.6-7011.4,4481.5-7011.4,4481.5-7011.3z
		 M4481.4-7011.3h-1.5C4480.4-7011.2,4480.9-7011.2,4481.4-7011.3z M3641.8-7028.2c0.5,0.1,1,0.2,1.5,0.1L3641.8-7028.2z"/>
	<path id="Path_3_3_" class="st5" d="M4533.2-9344.9c6.3,10.4,10.9,21.2,10.5,33.6c-0.4,7.3-0.4,14.7,0.1,22
		c1.1,12.3,3.1,24.4,4.3,36.7c0.7,7.8,1.6,15.7,1.1,23.5c-0.4,5.9-0.6,11.8-0.5,17.6c11.6-20,23.6-39.9,24-60.8
		C4573.3-9298.8,4553.3-9321.6,4533.2-9344.9L4533.2-9344.9z M4511.4-8792.7c0.6-18.6,1.1-36.8,1.7-54.4
		c2.1-60.6,4.3-115.7,6.8-163.3c-8.4,4.4-18.3,7.8-29.8,9.8c-9.9,1.6-20.2,1.8-29.6,5.4c-13.3,5-23.4,16-35.4,23.6
		c-20.7,13-46,15.2-70.2,17.1c-34.6,2.7-66.2,7.5-98.1,9.1c6.9,39.9,13.3,82.8,19.1,128.1c13.5,104.9,24.1,222.7,32.3,345
		 M4864.1-9489.4c-12.2,37-34.3,69.7-67.7,93c-10.9,7.6-78.1,42.7-78.6,7.2c-0.6-37.7,0.3-75.4,1-113.1c0.3-18.6,0.7-37.2,0.9-55.8
		c0.2-19.3,1.6-39.2-2.4-58.1c15.6-3.6,32.9-1,47.9,4.1c12,4.1,23.7,10.8,36.7,10.8c7.8,0,71.6-18.3,72.9-2.4
		C4878-9565.7,4876.1-9525.8,4864.1-9489.4z M4403.2-9640.3c29.8-14,23,13.4,23.4,22.7c0.8,21.7-12.4,39.2-18.5,60.1
		c-1.7,5.7-3.5,11.3-5.3,16.9c-7.8,23.4-15.7,45.5-12.7,70.5c3.9,32.4,18.3,64.2,37.7,94.9c11.8,18.6,25.4,37.9,32.1,57.1
		c3.5,10.2,5.1,20.3,3.4,30.4c-0.9,5.5-2.8,10.9-5.5,15.8c-6.1,11.3-17.1,21.6-27.9,31.8c-10,9.4-20.1,18.8-33.3,26.9
		c-2.2,1.3-4.5,2.6-6.9,3.8c-6.3,3.1-13.5,5.6-21.8,6.4c-20.7,2-39.4-7.4-49.6-17.4c-20.8-20.6-20.8-45.2-29.4-68.3
		c-6.1-16.3-16.7-32-24.2-48c-14.2-30.3-17.6-62-10.1-93.1c5.5-22.8,18.9-44.9,19.9-68c1-23.2-7.9-47.2-12.5-70.3
		c-1.6-8-2.9-16.8,5.2-23.5c7.1-5.9,19.7-8.8,31.3-11.8c6.8-1.7,13.5-3.5,20.1-5.4C4348.8-9617.6,4377.3-9628.2,4403.2-9640.3
		L4403.2-9640.3z M3915.4-9520.9c11.5-11.8,34.5-16,20.4-32.5c-3.1-3.6-8.1-7.1-7.6-11.1c0.7-5.5,11.3-8.7,19.8-11.7
		c15.1-5.3,27.5-12.9,35.4-21.6c4.8-5.3,10.3-12,21.2-12.4c7.5-0.2,14.2,3.1,16.9,7c12.5,18.1,3.6,42.6,7.8,61.8
		c3.7,17.2,17.8,33.2,34.1,47.8c33.2,30,81.8,56,104.7,89.2c27.4,39.6,14.3,83.6,0.9,125.2c-1.3,4.4-5.6,7.3-10.2,6.8
		c-2.1-0.3-4-1-5.8-2.1c-47.2-26.9-67.4-60.1-86.9-94.9c-23.8-42.2-65.8-79.7-109.7-116.6c-3.3-2.8-6.9-5.4-10.5-8
		c-8.8-6.6-17.9-12.8-27.5-19.1c-1.8-1.2-3.8-2.5-4.3-4.1C3913.6-9518.3,3914.1-9519.6,3915.4-9520.9L3915.4-9520.9z M4109.1-9505.1
		c-13.6-10.3-19.4-23-24.9-35.3l-16.9-37.4c-2-3.9-13.9-9.9-11.3-14.5c1.1-1.8,2.8-3.2,4.8-4c8.9-3.6,25.2,1.6,34.8,2.4
		c11.4,0.9,27.7-2.1,37.6-5.1c17.1-5.2,34.1-13.8,47.4-21.6c28-16.4,47.8,54.7,45.8,64.9c-4.8,24.1-16.6,48.2-24.2,72.1
		c-0.6,1.9-1.3,3.9-3.8,5.3c-2.3,1.3-5.7,1.7-8.9,1.9C4158.9-9474.4,4125.6-9492.6,4109.1-9505.1z M3672.9-9292.2
		c-5.4-5.6-7.6-11.7-8.8-17.9c-0.2-1-0.6-2-1.2-3c-1.3-2.5-2.7-5.1-4.1-7.6c-2.2-3.8-4.4-7.7-6.8-11.5c-1.6-2.5-3.5-4.9-5.1-7.5
		c-0.4-0.9-0.7-1.9-0.7-3c-0.4-1.9,0.1-4-1.2-5.6c-5.4-6.8-6.2-14.3-9.8-21.3c-1.6-3.2-2.1-6.5-3.2-9.7c-0.2-0.8-0.5-1.5-0.9-2.2
		c-4-6.1-6.7-12.9-7.8-20.1c-1.3-8.6-3.9-17.2-5.8-25.7c-0.8-3.4-0.3-7-1.9-10.2c-3.5-7.2-3.9-14.7-6.9-22
		c-2.7-6.6-2.9-13.6-4.2-20.4c-1-5.1-2.1-10.1-3-15.2c-1.1-5.8-2.4-11.6-2.8-17.4c-0.4-7.2,0.3-14.4-0.6-21.6
		c-0.3-2.3-1.6-3.5-6.1-4.2c-5-0.8-10.1-1.8-13.1-4.6c-3.6-3.4-2.1-5.6,4.9-6.4c3.4-0.4,7-0.4,10.4-0.8c3.6-0.4,7.1-0.9,10.6-1.7
		c3.1-0.7,6.3-0.7,9.5,0c2.9,0.7,5.8,1.1,8.7,1.4c11.6,0.4,9.4,1.3,14.4-4c7.6-8,24.3-13.6,42.2-12.8c2.8,0.1,5.6,0.1,8.3-0.1
		c3.5-0.3,6.7-0.6,10.2,0.4c3.3,0.9,6.1-0.1,8.7-1.4c5.4-2.8,10.9-5.5,16.7-8.1c5.1-2.2,12.9-2,18,0.2c6.1,2.6,11.9,5.2,16.3,8.8
		c3.9,3.1,7,7,9.2,11.5c1.3,2.6,2.7,5,7.7,6.4c1.6,0.6,2.9,1.8,3.4,3.5c1.8,6.7,3.4,13.3,4.9,20c0.8,3.9,1.9,7.7,1.7,11.7
		c-0.2,3.2,1.9,6.7,2.2,10.1c0.6,6.9,1.5,13.7,2.5,20.6c0.3,2.3,1.1,4.5,1.6,6.8c1.2,5.4,3.6,10.9,3.3,16.3
		c-0.3,5.7,3.9,10.9,3.7,16.4c0,1.3,0.3,2.5,0.3,3.8c-0.2,5.7-0.5,11.4-0.8,17.1c0,0.4-0.2,0.8,0,1.1c4,6.2,1.7,12.6,1,18.8
		c-0.6,5.1-1,10.1,0.7,15.2c1.6,5,3.7,10,2,15.1c-0.6,1.8,0.9,3.7,1.2,5.6c1,6.7,2,13.4,2.7,20.2c-0.1,1.3-0.9,3-1.6,4.6
		c-3.4,7.8-6.8,15.6-10.4,23.4c-2.6,5.6-5.7,11.2-8.4,16.9c-1.1,2.2-1.9,4.6-2.4,7.1c-1,5.1-3,9.8-6,14.1c-1.2,1.7-1.2,3.7-2.1,5.6
		c-3.3,6.2-5.9,12.6-10.5,18.5c-2.9,3.7-8,7.3-13.7,9.9c-7.6,3.5-16.6,6.1-25.3,8.8c-11.6,3.6-24.2-0.5-24.1-9.3
		c-1.1-2.3-1.9-6.4-5-9.8c-5.3-5.9-9-11.9-10.2-18.4c-0.1-0.7-0.9-1.4-1.5-2.1c-2.3-2.8-4.7-5.5-6.8-8.3
		C3675.6-9288.2,3674.8-9290.3,3672.9-9292.2L3672.9-9292.2z M4316-7081.4l2.6,0.1C4317.8-7081.3,4316.9-7081.3,4316-7081.4z
		 M4285.3-7170.8c-49.4,31.8-218.4,75.7-236.3,24.7c-18.9-60.1-105.3-1269.9-116.5-1356.6c-5.8-45-11.5-89.5-16.9-133.1
		c-16.3-130.9-30.6-254.2-41.6-359.9c-11.8-112.1-19.9-204.4-23-265.4c-3.8-75.9-26.1-174.6,22.4-247.3
		c58.8,41.8,102.9,89.9,129.3,140.5c13.6,26.1,22.8,53.1,46.7,76.9c25.9,25.7,67.1,45.4,104.2,66.6c38.9,22.2,70,108.7,94.7,233.4
		c2.9,14.7,5.7,29.9,8.5,45.5c6.9,39.9,13.3,82.8,19.1,128.1c13.5,104.9,24.1,222.7,32.3,345c4,59.3,16.1,1022.7,17.6,1074
		C4335.2-7269.4,4302.9-7175.5,4285.3-7170.8z M4659.8-7286.9c-4.7,40.2-148.5,135.1-155.6,92.7c-4.4-26.3-6.6-920.5-6.2-1173.7
		c0.1-82.4,0.5,1090.3,1.2,999c0.5-63.3,1.1-828.7,1.9-893.4c2.2-186.7,5.6-373.4,10.3-530.4c0.6-18.6,1.1-36.8,1.7-54.4
		c2.1-60.6,4.3-115.7,6.8-163.3c5.4-102.1,11.8-170.1,19.3-184.4c14.2-27.1,36.2-53.5,32.3-86.2c-2.5-20.3-15-37.5-28.3-52.4
		c-25.5-28.7-45.7-60.6-69.3-90.5c-8.5-10.8-20.2-20.9-21.2-35.6c-2.1-30.5-1-62.6,2-93.6c2.3-24.2,5.4-51.6,26.2-67.5
		c12.9-9.8,18.8,1.7,29.5-0.3c12.7-2.4,19.4-5.8,30.3-12.8c14.7-9.6,41.4-2.2,52-11.6c4.7-4.2,6.5-9.4,13.3-12.6
		c11.1-5.4,30-2,38.4,4.7s9.3,15.3,9.7,23.4c0.2,3.5,0.4,6.9,0.5,10.4c4,89-2.4,178.2,11.2,266.9c8.8,57.4,25.8,114.8,20.5,172.2
		c0,0.5-0.1,6.2-0.1,16.4c-0.2,63.8-0.1,303,1.3,527.2c0.4,68.1,0.9,134.9,1.6,194.9C4689.7-8387,4662.3-7308.3,4659.8-7286.9z
		 M5008.5-7248.5c-90.5-24.9-151.8-43.4-152-47.9c-3.7-68-9.9-699.7-16-1158.4c-1.3-94.5-2.5-187.5-3.7-275.2
		c-3.8-277.7-7.3-501.7-9.7-546c-1.1-20.4-2.1-41.1,7.8-60.6c8.1-16.2,23.5-31.1,35.7-46.6c39-49.6,43.8-103.9,52.1-156.9
		c0.8-5.1,2.5-10.1,3.7-15.1c3.6-14.8,52.9-25.5,71.8-35.1c10-5.2,19.6-11.1,28.7-17.7v-485.3c-2.2-0.2-4.4-0.5-6.6-0.7
		c-18.4-1.7-36.6-3.8-54.8-5.8c-1.4-0.2-2.8-0.3-4.2-0.5c-0.7-0.1-1.4-0.1-2.1-0.1c-8.6,0.8-16.2-1.4-23.4-3
		c-9.1-2-18.4-3.1-27.8-3.1c-5.6,0-11.3,0.3-16.8-0.1c-3.2-0.4-6.4-0.2-9.5,0.4c-22,5.5-49,7.8-72.7,12.9
		c-6.8,1.4-13.7,1.9-20.6,1.4c-9.3-0.6-28.6,0.5-36.4-2.2c-9.6-3.3-6-10-15.9-13.9c-6.8-2.7-15.5-3.4-23.8-3.9
		c-40.9-2.7-83.9-2.8-123.8,3.4c-36.5,5.7-77.3,31.2-115.8,26.7c-7-0.8-14.4-0.6-21.6-1.1c-3.4-0.4-6.8-0.2-10.1,0.7
		c-2.4,0.6-4.9,0.9-7.4,0.8c-27.6-0.8-43.4,8.8-69.5,11.6c-1,0.2-2,0.6-2.9,1c-1.9,0.5-3.8,1-5.7,1.4c-3.9,0.8-8,1.4-11.9,2.2
		c-5.9,1.3-11.6,2.7-17.4,4c-52.6,11.8-102.8,23.2-143,46c-18.4,10.5-56.4,6.9-68.1,2.4c-11.6-4.5-27.2-4.3-41.3-3.3
		c-36.7,2.6-72.5,9.4-104.4,19.6c-8.6,2.8-17.4,5.9-27.3,6.2c-6.6,0.2-13.1-0.8-19.6-1.7c-66.3-9-140.2,0.9-191.5,25.5
		c-5.1,2.5-10.4,5.4-10.9,9.2c-0.4,2.7,1.9,5.3,3.1,8c6.8,15.2-21,27.8-45.4,36.1c-5.7,2.1-11.6,3.7-17.6,4.7
		c-3.3,0.4-6.7,0.6-10.1,0.7c-3.4,0.1-6.8,0.1-10.1,0.1c-52.8,0.1-109.8,14.4-141.4,37.9c-28.9,21.5,1.2,56.9-40.5,72.9
		c-17.6,6.7-39.7,10.9-51.8,20.6c-5.2,4.1-10.8,9.8-19.8,9c-4.5-0.4-8-2.4-12.5-3c-11.6-1.5-18.1,6.6-24.3,12.2
		c-15.1,13.4-49.3,16.7-67.6,28.8c-19.6,13.1-15.4,32.1-10.2,48.6c7.2,22.9,15.3,46.7,41.7,64.9c24.1,16.6,60.4,26.3,95.4,35.3
		c29,7.5,58.3,18.9,89.9,20.8c3.6,0.2,6.2,1.2,7.3,3.1c1.4,2.4,2.5,4.9,3.9,7.3c1,1.9,2.4,3.7,3.9,5.2c2.8,2.6,5.1,5.1,4.7,8.3
		c-0.1,1-0.1,2,0.2,3c25.9,101.3,25.7,206.4,105,301.5c13.8,16.5,29.7,32.6,40.9,49.6c2.2,3.4,6.7,82.5,12,207.6
		c0.4,9.4,0.8,19.1,1.2,29c3.3,81.1,7,178.8,10.5,286.2c5.2,156.7,10.3,1035.2,14.3,1212.3c3.4,150.1,8,117.3,6.2,210.9
		c-0.1,3.4-0.1,6.9-0.2,10.3c-2.8,128.7-7.6,121-18.4,136.9c-7.8,11.4-132.8,149.6-120.3,178c17.2,1.3,49.4-4.8,128.9-35.7l1-0.4
		c113.4-44,267.4-57.5,392-34.3l100.1,18.7c123.2,23,275.3,10.1,388.4-32.9l45.2-17.2c113.4-43.1,266-55.9,389.3-32.7l12.2,2.3
		v-200.5C5020.9-7245.1,5014.6-7246.8,5008.5-7248.5z"/>
	<path id="Path_6_3_" class="st5" d="M3882-7176.5"/>
	<path id="Path_7_3_" class="st5" d="M3903.3-7185"/>
</g>
<linearGradient id="SVGID_8_" gradientUnits="userSpaceOnUse" x1="148.2338" y1="-2228.376" x2="148.2338" y2="-3277.1182" gradientTransform="matrix(1 0 0 1 0 3276)">
	<stop  offset="0" style="stop-color:#FFFFFF;stop-opacity:0"/>
	<stop  offset="0.325" style="stop-color:#D8EBEA;stop-opacity:0.325"/>
	<stop  offset="0.776" style="stop-color:#A6D2CE;stop-opacity:0.776"/>
	<stop  offset="1" style="stop-color:#93C8C4"/>
</linearGradient>
<path class="st16" d="M354.3,11.1v1037.6l-83.8-4l-199.4-9.4l-113.5-5.4l-14.2-0.6l-1-536.2l-0.2-246.8c0-43-0.1-87.7-0.1-133.6
	c0-10.5,0-21.1,0-31.7l4.4,3.6l37.5,30.2c8.8,7.1,18.4,10.8,28.2,11.3c1.9,0.1,3.9,0.1,5.8-0.1c18.4-1.5,37.3-14.1,52.6-36.7L71,89
	c3.8-5.7,7.9-10.7,12.1-15.2c22.4-23.3,49.2-28.5,71.5-12.6L176,76.4c1.5,1.1,3,2,4.5,2.9c25.4,14.4,55.6,3.3,78.4-29.6l9.6-13.9
	c21.4-30.9,49.3-42.6,73.6-31.9c3.2,1.4,6.4,3.2,9.5,5.4L354.3,11.1z"/>
<linearGradient id="SVGID_9_" gradientUnits="userSpaceOnUse" x1="232.3522" y1="-2275.4551" x2="232.3522" y2="-2991.9985" gradientTransform="matrix(1 0 0 1 0 3276)">
	<stop  offset="0" style="stop-color:#FFFFFF;stop-opacity:0"/>
	<stop  offset="0.325" style="stop-color:#D8EBEA;stop-opacity:0.325"/>
	<stop  offset="0.776" style="stop-color:#A6D2CE;stop-opacity:0.776"/>
	<stop  offset="1" style="stop-color:#93C8C4"/>
</linearGradient>
<path class="st17" d="M475.6,272.4v724.1l-484.8-9.3c-0.1-28.1-0.2-46.8-0.3-74.9l-1.2-437.6l-0.2-201.4
	c27.3-24.8,60.1-23.2,86.9,5.9l5,5.5l19.8,21.5c5.8,6.4,11.9,11.4,18.2,15.1c26.7,15.9,56.4,8.5,80-21.4l11.7-14.8
	c12-15.2,25.6-24.6,39.6-28.1c20-5,40.9,2.2,58.9,22l25.4,27.7c30.2,33,68.2,31.2,97.3-4.6l7.5-9.2l4-5
	C453.4,275.6,464.3,267.4,475.6,272.4z"/>
<linearGradient id="SVGID_10_" gradientUnits="userSpaceOnUse" x1="148.2338" y1="-2079.114" x2="148.2338" y2="-2362.5242" gradientTransform="matrix(1 0 0 1 0 3276)">
	<stop  offset="0" style="stop-color:#FFFFFF;stop-opacity:0"/>
	<stop  offset="0.325" style="stop-color:#D8EBEA;stop-opacity:0.325"/>
	<stop  offset="0.776" style="stop-color:#A6D2CE;stop-opacity:0.776"/>
	<stop  offset="0.9409" style="stop-color:#93C8C4"/>
</linearGradient>
<path class="st18" d="M354.1,778.1v323.8l-410.6-6.5c-0.1-19.6-0.1-32.7-0.2-52.3l-1-305.7c24.9,34.3,56.7,34.3,81.6,0.6
	c1.4-1.9,2.8-3.9,4.1-6l0.2-0.3c0.2-0.3,0.4-0.6,0.6-0.9c24.7-37.7,57.4-40.4,83.4-6.7l18.2,23.6l2.9,3.7
	c25.9,33.6,58.5,31,83.2-6.4l9.9-15c24.8-37.5,57.4-40,83.3-6.2c0,0,0,0,0.1,0.1l21.5,28C338.4,761.2,346.2,767.8,354.1,778.1z"/>
<linearGradient id="SVGID_11_" gradientUnits="userSpaceOnUse" x1="232.4003" y1="-2162.9692" x2="232.4003" y2="-2524.6182" gradientTransform="matrix(1 0 0 1 0 3276)">
	<stop  offset="0" style="stop-color:#FFFFFF;stop-opacity:0"/>
	<stop  offset="0.325" style="stop-color:#D8EBEA;stop-opacity:0.325"/>
	<stop  offset="0.776" style="stop-color:#A6D2CE;stop-opacity:0.776"/>
	<stop  offset="0.9409" style="stop-color:#93C8C4"/>
</linearGradient>
<path class="st19" d="M475.6,578.7v413.1l-484.9-8.3c-0.1-25-0.2-41.8-0.3-66.8l-1.2-390.1c29.4,43.8,66.9,43.8,96.3,0.8
	c1.7-2.4,3.3-5,4.9-7.7l0.3-0.4c0.2-0.4,0.5-0.8,0.7-1.1c29.2-48.1,67.8-51.6,98.5-8.6l21.5,30.1l3.4,4.7
	c30.6,42.8,69.1,39.6,98.3-8.2l11.7-19.1c29.2-47.9,67.8-51,98.4-8c0,0.1,0.1,0.1,0.1,0.1l25.4,35.7
	C457,557.1,466.2,565.5,475.6,578.7z"/>
<path class="st20" d="M255.7,895.8c-3.7,3.7-8.9,6.2-17.4,6.5c-31.8,1.1-57.3,63-71.2,64.1c-3.8,0.3-23.3-0.6-44.8-2.5
	c-23.1-2-48.4-5.1-58.9-8.8c-14-4.9-115.2-71.6-118.4-120.8c-0.2-2.5,23.4-8394.6,33.5-8427.9c14.1-45.3,169.1-74.1,175.6-94.1
	c11-10.7,50.8-79.8,64.7-88.7c6.7-8.2,15.4-14.2,23.2-21.2c1.8-1.6,3.5-3.3,5.1-5c11.2-11.9,17.9-27.2,24.5-42.3
	c6.5-0.5,13,0.4,19.5,1.4c8.8,1.3,7.8-2.5,16.4-4.4c4.6-1,3.7-10.7,4.4-11c3.5-10.7,15.4-8.5,16-24.2c-0.6-20.1-4.3-7.9-7.8-25.4
	c-0.3-1.3-3.9-6.9-9.3-12.3c5.3-17.3-11.5-24.5-5.7-28.1c-9-26.7-22.3-17.9-27.4-27.7c-11.7-22.2-24-11.2-31-14.9
	c-13-6.9-15.9-18.2-30.6-22.5c-13.4-4-20.3,2.2-33.9-1.2c-9.2-2.3-26.6-13.6-36.1-13c-8.9,0.5-1.6-3.4-10.3-2.6
	c-21.8,1.8-32.2-22.4-53.2-10.3c-6.9,4-18.8,3.7-30.2,2.6c-11.4-1-17.1,3-24.3,8c-11,7.6-11.9,18.4-25.9,19
	c-16.4,0.7-54.1-8.4-36.3,52.5l-4,65.2c13.8,20.8-14.6-2-14.7,15c-0.3,42.9,11.2,97.1,11.5,124.4C-40.9-7690-69,385.3-68.5,449.3
	c0.3,32.3,0.5,163.7,0.8,280.2c0,3.7,0,7.3,0,11c0,15.9,0.1,31.4,0.1,46.3l0.1,21.8c0.1,20.8,0.1,36.7,0.2,45.4
	c0.3,40.9,0.7,81.8,1,122.7c0,4.6,0.1,9.2,0.1,13.8c0.1,11.9,1-5.9,1.1,6h405.4l-0.8-145.5C264.4,851.5,269.5,882.1,255.7,895.8z
	 M192.4-7834.2c4.5-7.2,27.5-4.4,35.8-6c4.1-0.8,27.7-13.5,27.2-4.9c-0.5,8.2-4.3,17.4-9.1,24c-8.4,11.6-23.9,13.2-35,25.6
	c-0.5,0.1-17.4,17.8-17.7,16.7c-1-3.6-3.8-37.7-4.1-41.6C189.1-7825.1,189.7-7829.9,192.4-7834.2z M41-7745.8
	c-14.5-19-15.7-63.3,8.3-106.2c7.2-12.9,16.6-21.3,26.9-26.6c11.3-5.9,21.3,5.9,32.8,5.5c18.9-0.7,7.2,16,12.4,17.7
	c2.6,6.2,5.8,11,7.4,12.5c3,2.7,7,4,10.8,5.3c0.7,0.2,1.4,0.5,2.1,0.8c15.4,6.8,9.1,29.7,22.2,17.6c5.1,8.7,8.6,19.4,8,29.6
	c-0.5,8.7,2,16.1-0.8,24.3c-2.3,6.7-40.4,30-47.3,34.8c-0.5,0.4-1,0.7-1.5,1c0.2,0.1,0.4,0.2,0.5,0.3c0,0-0.2,0.3-0.3,0.4
	c-0.2-0.2-0.4-0.3-0.6-0.5l0,0C112.5-7724.3,65.6-7715.7,41-7745.8z"/>
<linearGradient id="SVGID_12_" gradientUnits="userSpaceOnUse" x1="1237.7947" y1="-2227.9602" x2="1237.7947" y2="-2886.5635" gradientTransform="matrix(1 0 0 1 0 3276)">
	<stop  offset="0" style="stop-color:#FFFFFF;stop-opacity:0"/>
	<stop  offset="0.325" style="stop-color:#D8EBEA;stop-opacity:0.325"/>
	<stop  offset="0.776" style="stop-color:#A6D2CE;stop-opacity:0.776"/>
	<stop  offset="1" style="stop-color:#93C8C4"/>
</linearGradient>
<path class="st21" d="M1443.9,397.1v651.6l-83.8-2.5l-199.4-5.9l-113.5-3.4l-14.2-0.4l-1-336.7l-0.2-155c0-27-0.1-55.1-0.1-83.9
	c0-6.6,0-13.2,0-19.9l4.4,2.2l37.6,19c8.8,4.4,18.4,6.8,28.2,7.1c1.9,0.1,3.9,0.1,5.8-0.1c18.5-0.9,37.3-8.9,52.6-23.1l0.2-0.2
	c3.8-3.6,7.9-6.7,12.1-9.5c22.4-14.7,49.2-17.9,71.6-7.9l21.4,9.5c1.5,0.7,3,1.3,4.5,1.8c25.4,9.1,55.6,2.1,78.4-18.6l9.7-8.8
	c21.4-19.4,49.3-26.7,73.7-20.1c3.2,0.9,6.4,2,9.5,3.4L1443.9,397.1z"/>
<linearGradient id="SVGID_13_" gradientUnits="userSpaceOnUse" x1="1237.6986" y1="-2193.6584" x2="1237.6986" y2="-2670.6799" gradientTransform="matrix(1 0 0 1 0 3276)">
	<stop  offset="0" style="stop-color:#FFFFFF;stop-opacity:0"/>
	<stop  offset="0.325" style="stop-color:#D8EBEA;stop-opacity:0.325"/>
	<stop  offset="0.776" style="stop-color:#A6D2CE;stop-opacity:0.776"/>
	<stop  offset="1" style="stop-color:#93C8C4"/>
</linearGradient>
<path class="st22" d="M1443.8,597.6v482l-410.7-6.2c-0.1-18.7-0.1-31.2-0.2-49.9l-1-291.3l-0.2-134.1c23.1-16.5,51-15.4,73.6,3.9
	l4.3,3.7l16.8,14.3c4.9,4.2,10.1,7.6,15.5,10c22.6,10.6,47.7,5.7,67.8-14.3l9.9-9.9c10.2-10.1,21.7-16.4,33.5-18.7
	c17-3.3,34.6,1.5,49.9,14.6l21.5,18.5c25.6,21.9,57.7,20.7,82.5-3.1l6.3-6.1l3.4-3.3C1425,599.7,1434.2,594.3,1443.8,597.6z"/>
<linearGradient id="SVGID_14_" gradientUnits="userSpaceOnUse" x1="1237.7947" y1="-2065.2783" x2="1237.7947" y2="-2335.3645" gradientTransform="matrix(1 0 0 1 0 3276)">
	<stop  offset="0" style="stop-color:#FFFFFF;stop-opacity:0"/>
	<stop  offset="0.325" style="stop-color:#D8EBEA;stop-opacity:0.325"/>
	<stop  offset="0.776" style="stop-color:#A6D2CE;stop-opacity:0.776"/>
	<stop  offset="0.9409" style="stop-color:#93C8C4"/>
</linearGradient>
<path class="st23" d="M1443.8,811.7v308.5L1033,1114c-0.1-18.7-0.1-31.2-0.2-49.9l-1-291.3c24.9,32.7,56.7,32.7,81.6,0.6
	c1.4-1.8,2.8-3.7,4.1-5.7l0.2-0.3c0.2-0.3,0.4-0.6,0.6-0.8c24.7-35.9,57.4-38.5,83.4-6.4l18.2,22.5l2.9,3.5
	c25.9,32,58.5,29.6,83.2-6.1l9.9-14.3c24.8-35.8,57.4-38.1,83.3-5.9c0,0,0,0,0.1,0.1l21.5,26.7
	C1428.1,795.5,1435.8,801.8,1443.8,811.7z"/>
<path class="st20" d="M1342.2,895.8c-3.7,3.7-8.9,6.2-17.4,6.5c-31.8,1.1-57.3,63-71.2,64.1c-3.8,0.3-23.3-0.6-44.8-2.5
	c-23.1-2-48.4-5.1-58.9-8.8c-14-4.9-115.2-71.6-118.4-120.8c-0.2-2.5,23.4-8394.6,33.5-8427.9c14.1-45.3,169.1-74.1,175.6-94.1
	c11-10.7,50.8-79.8,64.7-88.7c6.7-8.2,15.4-14.2,23.2-21.2c1.8-1.6,3.5-3.3,5.1-5c11.2-11.9,17.9-27.2,24.5-42.3
	c6.5-0.5,13,0.4,19.5,1.4c8.8,1.3,7.8-2.5,16.4-4.4c4.6-1,3.7-10.7,4.4-11c3.5-10.7,15.4-8.5,16-24.2c-0.6-20.1-4.3-7.9-7.8-25.4
	c-0.3-1.3-3.9-6.9-9.3-12.3c5.3-17.3-11.5-24.5-5.7-28.1c-9-26.7-22.3-17.9-27.4-27.7c-11.7-22.2-24-11.2-31-14.9
	c-13-6.9-15.9-18.2-30.6-22.5c-13.4-4-20.3,2.2-33.9-1.2c-9.2-2.3-26.6-13.6-36.1-13c-8.9,0.5-1.6-3.4-10.3-2.6
	c-21.8,1.8-32.2-22.4-53.2-10.3c-6.9,4-18.8,3.7-30.2,2.6c-11.4-1-17.1,3-24.3,8c-11,7.6-11.9,18.4-25.9,19
	c-16.4,0.7-54.1-8.4-36.3,52.5l-4,65.2c13.8,20.8-14.6-2-14.7,15c-0.3,42.9,11.2,97.1,11.5,124.4c0.5,64.1-27.7,8139.3-27.1,8203.4
	c0.3,32.3,0.5,163.7,0.8,280.2c0,3.7,0,7.3,0,11c0,15.9,0.1,31.4,0.1,46.3l0.1,21.8c0.1,20.8,0.1,36.7,0.2,45.4
	c0.3,40.9,0.7,81.8,1,122.7c0,4.6,0.1,9.2,0.1,13.8c0.1,11.9,1-5.9,1.1,6h405.4l-0.8-145.5C1350.9,851.5,1356,882.1,1342.2,895.8z
	 M1278.8-7834.2c4.5-7.2,27.5-4.4,35.8-6c4.1-0.8,27.7-13.5,27.2-4.9c-0.5,8.2-4.3,17.4-9.1,24c-8.4,11.6-23.9,13.2-35,25.6
	c-0.5,0.1-17.4,17.8-17.7,16.7c-1-3.6-3.8-37.7-4.1-41.6C1275.6-7825.1,1276.2-7829.9,1278.8-7834.2z M1127.5-7745.8
	c-14.5-19-15.7-63.3,8.3-106.2c7.2-12.9,16.6-21.3,26.9-26.6c11.3-5.9,21.3,5.9,32.8,5.5c18.9-0.7,7.2,16,12.4,17.7
	c2.6,6.2,5.8,11,7.4,12.5c3,2.7,7,4,10.8,5.3c0.7,0.2,1.4,0.5,2.1,0.8c15.4,6.8,9.1,29.7,22.2,17.6c5.1,8.7,8.6,19.4,8,29.6
	c-0.5,8.7,2,16.1-0.8,24.3c-2.3,6.7-40.4,30-47.3,34.8c-0.5,0.4-1,0.7-1.5,1c0.2,0.1,0.4,0.2,0.5,0.3c0,0-0.2,0.3-0.3,0.4
	c-0.2-0.2-0.4-0.3-0.6-0.5l0,0C1198.9-7724.3,1152.1-7715.7,1127.5-7745.8z"/>
<path d="M976.2-4611"/>
<linearGradient id="SVGID_15_" gradientUnits="userSpaceOnUse" x1="3356.876" y1="-4852.3462" x2="3356.876" y2="-6145.8794" gradientTransform="matrix(1 0 0 1 0 3276)">
	<stop  offset="0" style="stop-color:#FFFFFF;stop-opacity:0"/>
	<stop  offset="0.325" style="stop-color:#D8EBEA;stop-opacity:0.325"/>
	<stop  offset="0.776" style="stop-color:#A6D2CE;stop-opacity:0.776"/>
	<stop  offset="1" style="stop-color:#93C8C4"/>
</linearGradient>
<path class="st24" d="M4081.5-2854.8V-1575l-294.6-4.9l-701.1-11.6l-399.1-6.6l-50-0.8l-3.5-661.3l-0.7-304.4
	c-0.1-53-0.2-108.2-0.3-164.8c0-13-0.1-26-0.1-39.1l15.6,4.4l132,37.3c30.9,8.7,64.6,13.3,99.1,13.9c6.8,0.1,13.6,0.1,20.4-0.1
	c64.9-1.8,131-17.4,185-45.3l0.8-0.4c13.5-7,27.9-13.2,42.6-18.7c78.6-28.8,172.9-35.2,251.6-15.6l75.1,18.7
	c5.3,1.3,10.6,2.5,16,3.6c89.4,17.8,195.5,4.1,275.6-36.5l33.9-17.2c75.2-38.1,173.3-52.5,259-39.4c11.3,1.7,22.4,4,33.3,6.7
	L4081.5-2854.8z"/>
<g class="st25">
	<g>
		<g>
			
				<linearGradient id="SVGID_16_" gradientUnits="userSpaceOnUse" x1="3916.697" y1="-8126.5981" x2="3916.697" y2="-4698.4878" gradientTransform="matrix(1 0 0 1 0 3276)">
				<stop  offset="0" style="stop-color:#FFFFFF;stop-opacity:0"/>
				<stop  offset="0.325" style="stop-color:#D8EBEA;stop-opacity:0.325"/>
				<stop  offset="0.776" style="stop-color:#A6D2CE;stop-opacity:0.776"/>
				<stop  offset="1" style="stop-color:#93C8C4"/>
			</linearGradient>
			<polygon class="st26" points="4649.5,-4898.8 4649.5,-3352.1 4535.5,-2974.3 4506.2,-2863.8 4419.3,-2535.2 4354.4,-2289.9 
				4264.5,-1950 4264.5,-1949.9 4170.4,-1579.9 4141.7,-1485.7 3183.8,-1485.7 3236.4,-1591.5 3278.3,-1700.6 3335.5,-1830.7 
				3484.6,-2169.8 3514.6,-2238.1 3621.7,-2481.5 3669.2,-2589.4 3748.9,-2770.7 3801.6,-2890.5 3852.7,-3006.7 3884.5,-3079.1 
				3968.5,-3270 4040.4,-3433.8 4113.6,-3600.4 4253.1,-3917.7 4278.9,-3976.3 4403.6,-4259.7 4418,-4292.5 4561.8,-4619.5 			"/>
		</g>
	</g>
</g>
<image style="overflow:visible;enable-background:new    ;" width="3103" height="3103" xlink:href="nessy.png"  transform="matrix(9.965600e-02 0 0 9.965600e-02 3579.5864 -2733.7148)">
</image>
<g class="st2">
	<g>
		<g>
			
				<linearGradient id="SVGID_17_" gradientUnits="userSpaceOnUse" x1="3620.0969" y1="-9165.8398" x2="3620.0969" y2="-4679.0083" gradientTransform="matrix(1 0 0 1 0 3276)">
				<stop  offset="0" style="stop-color:#FFFFFF;stop-opacity:0"/>
				<stop  offset="0.325" style="stop-color:#D8EBEA;stop-opacity:0.325"/>
				<stop  offset="0.776" style="stop-color:#A6D2CE;stop-opacity:0.776"/>
				<stop  offset="1" style="stop-color:#93C8C4"/>
			</linearGradient>
			<path class="st27" d="M4607.9-5952.8v565.3l-0.4,0.8l-236,468.4l-47.9,95.3l-220,436.5l-256.3,508.2l-35.4,70.2l-267.8,531.3
				l-149.9,297.2l-86.1,171.1l-15.7,31.2l-68.5,136l-75.3,149.2l-41.8,82.7l-68.1,135l-21.3,42.2l-21.8,43.2l-290.8,590.9
				l-47.5,94.2l-16.2,18.1h-1.8c-0.3-42.4-0.7-70.8-1.1-113.2c-0.1-16.3-0.3-32.7-0.4-49c-1.1-145.6-2.3-305.2-3.5-450.8
				c-0.3-30.9-0.5-87.4-0.8-161.5l-0.9-304.4c-0.1-53-0.3-108.2-0.4-164.8l15.8-26.4l4.9-8.2l166.8-279.7l142.4-238.7l25.7-43.1
				l212.5-356.5l211.1-353.9l43.8-73.4l209-350.8l104.2-174.1l63-105.7l4.4-7.6l220.8-370.2l459.8-771.1l36.6-61.4L4607.9-5952.8z"
				/>
		</g>
	</g>
</g>
<linearGradient id="SVGID_18_" gradientUnits="userSpaceOnUse" x1="3357.0637" y1="-4741.4741" x2="3357.0637" y2="-5824.3604" gradientTransform="matrix(1 0 0 1 0 3276)">
	<stop  offset="0" style="stop-color:#FFFFFF;stop-opacity:0"/>
	<stop  offset="0.325" style="stop-color:#D8EBEA;stop-opacity:0.325"/>
	<stop  offset="0.776" style="stop-color:#A6D2CE;stop-opacity:0.776"/>
	<stop  offset="1" style="stop-color:#93C8C4"/>
</linearGradient>
<path class="st28" d="M4081.5-2566v1094.3l-1443.9-14c-0.2-42.4-0.5-70.8-0.8-113.2l-3.5-661.3l-0.7-304.4
	c81.4-37.5,179.1-35,258.8,8.9l15,8.3l59,32.5c17.3,9.6,35.6,17.2,54.3,22.8c79.4,24,167.9,12.9,238.2-32.4l34.8-22.4
	c35.8-23,76.3-37.2,117.9-42.4c59.7-7.5,121.7,3.4,175.4,33.2l75.6,41.9c89.9,49.8,203,47.1,289.8-7l22.3-13.9l12-7.5
	C4015.4-2561.1,4047.9-2573.5,4081.5-2566z"/>
<linearGradient id="SVGID_19_" gradientUnits="userSpaceOnUse" x1="3357.4014" y1="-4542.1367" x2="3357.4014" y2="-5155.2588" gradientTransform="matrix(1 0 0 1 0 3276)">
	<stop  offset="0" style="stop-color:#FFFFFF;stop-opacity:0"/>
	<stop  offset="0.325" style="stop-color:#D8EBEA;stop-opacity:0.325"/>
	<stop  offset="0.776" style="stop-color:#A6D2CE;stop-opacity:0.776"/>
	<stop  offset="0.9409" style="stop-color:#93C8C4"/>
</linearGradient>
<path class="st29" d="M4081.5-2172.1v700.4l-1443.9-14c-0.2-42.4-0.5-70.8-0.8-113.2l-3.5-661.3c87.7,74.2,199.3,74.2,286.8,1.4
	c5-4.1,9.8-8.4,14.5-13l0.8-0.7c0.7-0.6,1.4-1.3,2-1.9c86.9-81.6,201.9-87.5,293.3-14.6l64,51l10.1,8
	c91.1,72.6,205.6,67.1,292.5-13.9l34.8-32.4c87.1-81.2,201.9-86.5,293-13.5c0.1,0.1,0.2,0.1,0.2,0.2l75.6,60.6
	C4026.3-2208.7,4053.5-2194.4,4081.5-2172.1z"/>
<path class="st20" d="M3912.4-2115.6c-13.3,13.3-31.6,22.2-61.9,23.2c-113.4,4-204,224.4-253.4,228.4c-13.5,1.1-83-2.3-159.4-8.9
	c-82.2-7.1-172.4-18-209.9-31.2c-49.8-17.4-70.8-318.8-82.5-493.8c-0.6-8.8-1.2-17.6-1.8-26.6c-5.8-87.2-65.3-1938.5-29.3-2057.1
	c50.2-161.3,289.9-94.3,313.1-165.7c39.2-38,180.8-284,230.5-315.8c23.7-29.1,54.8-50.6,82.5-75.6c6.3-5.7,12.4-11.6,18.2-17.8
	c39.8-42.2,63.9-97,87.4-150.6c23.2-1.8,46.4,1.6,69.6,5.1c31.4,4.8,27.6-8.8,58.3-15.5c16.4-3.6,13.3-38.1,15.6-39.1
	c12.3-38,54.7-30.4,56.9-86c-2.2-71.4-15.2-28.1-27.9-90.4c-1-4.7-14-24.7-33.2-43.8c18.9-61.7-41-87.2-20.3-100.1
	c-32-94.9-79.3-63.9-97.5-98.5c-41.6-79-85.4-39.8-110.4-52.9c-46.2-24.4-56.6-64.7-108.8-80.2c-47.6-14.2-72.2,7.9-120.8-4.1
	c-32.7-8.1-94.8-48.3-128.5-46.3c-31.8,1.9-5.8-12-36.9-9.4c-77.7,6.4-114.8-79.9-189.5-36.8c-24.5,14.1-67,13.1-107.6,9.4
	c-40.6-3.6-60.8,10.7-86.5,28.5c-39.1,27.1-42.4,65.5-92.2,67.6c-58.4,2.6-192.7-30-129.1,187.1l-14.2,232.3
	c49.1,73.9-52-7.2-52.5,53.4c-1.2,152.9,40,345.8,40.8,442.9c1.8,228.1,24.9,950.4,26.8,1178.5c0.9,114.9,1.8,582.8,2.8,997.8
	c0,13.1,0.1,26.1,0.1,39.1c0.1,56.5,0.3,111.8,0.4,164.8l0.2,77.7c0.3,74.1,0.5,130.6,0.8,161.5c1.2,145.6,2.4,291.2,3.5,436.8
	c0.1,16.4,0.3,32.7,0.4,49c0.4,42.4,0.7,98.8,1.1,141.2h1443.4v-638C3943.3-2273.5,3961.5-2164.5,3912.4-2115.6z M3563.4-5169.2
	c16.1-25.8,98-15.7,127.4-21.2c14.7-2.8,98.7-47.9,96.7-17.5c-1.9,29.3-15.2,61.9-32.3,85.6c-29.9,41.2-85,46.9-124.7,91.1
	c-1.8,0.3-61.8,63.4-62.9,59.6c-3.7-12.9-13.5-134.4-14.5-148.1C3551.8-5137,3554-5154.1,3563.4-5169.2z M3024.5-4854.5
	c-51.7-67.8-55.9-225.4,29.4-378.3c25.6-45.9,59.2-75.8,95.8-94.8c40.2-20.9,75.7,21.1,116.8,19.5c67.2-2.6,25.7,56.9,44,62.9
	c9.3,22.2,20.6,39.3,26.2,44.4c10.7,9.7,24.8,14.4,38.4,18.8c2.5,0.8,5,1.8,7.3,2.8c54.8,24.2,32.5,105.6,78.9,62.8
	c18.2,31,30.6,69.1,28.5,105.5c-1.9,31,7.3,57.5-2.9,86.6c-8.3,23.8-143.7,106.9-168.4,123.9c-1.8,1.3-3.6,2.4-5.3,3.4
	c0.6,0.4,1.3,0.8,1.9,1.2c0,0-0.8,1.1-1.2,1.5c-0.8-0.6-1.5-1.2-2.2-1.8l-0.1-0.1C3278.9-4777.9,3112-4747.3,3024.5-4854.5z"/>
<path d="M3213.2-4865.5"/>
<image style="overflow:visible;enable-background:new    ;" width="1536" height="2048" xlink:href="fairy-sit.png"  transform="matrix(0.15 0 0 0.15 3047.4722 -4994.7344)">
</image>
<image style="overflow:visible;enable-background:new    ;" width="2339" height="2113" xlink:href="rock_monster.png"  transform="matrix(0.2181 1.604045e-02 -1.604045e-02 0.2181 3021.2415 -2274.7075)">
</image>
<image style="overflow:visible;enable-background:new    ;" width="3103" height="3103" xlink:href="mer-skull.png"  transform="matrix(0.122 0 0 0.122 3596.854 -2274.7075)">
</image>
<linearGradient id="SVGID_20_" gradientUnits="userSpaceOnUse" x1="5981.9141" y1="-4771.9741" x2="5981.9141" y2="-6065.5073" gradientTransform="matrix(1 0 0 1 0 3276)">
	<stop  offset="0" style="stop-color:#FFFFFF;stop-opacity:0"/>
	<stop  offset="0.325" style="stop-color:#D8EBEA;stop-opacity:0.325"/>
	<stop  offset="0.776" style="stop-color:#A6D2CE;stop-opacity:0.776"/>
	<stop  offset="1" style="stop-color:#93C8C4"/>
</linearGradient>
<path class="st30" d="M6947.2-2774.4v1279.8l-392.4-4.9l-933.9-11.6l-531.6-6.6l-66.6-0.8l-4.7-661.3l-0.9-304.4
	c-0.1-53-0.3-108.2-0.4-164.8c0-13-0.1-26-0.1-39.1l20.8,4.4l175.9,37.3c41.2,8.7,86.1,13.3,132,13.9c9,0.1,18.1,0.1,27.2-0.1
	c86.4-1.8,174.5-17.4,246.4-45.3l1-0.4c18-7,37.1-13.2,56.8-18.7c104.7-28.8,230.3-35.2,335.1-15.6l100.1,18.7
	c7,1.3,14.1,2.5,21.3,3.6c119.1,17.8,260.4,4.1,367.1-36.5l45.2-17.2c100.2-38.1,230.9-52.5,345-39.4c15.1,1.7,29.9,4,44.3,6.7
	L6947.2-2774.4z"/>
<g class="st25">
	<g>
		<g>
			
				<linearGradient id="SVGID_21_" gradientUnits="userSpaceOnUse" x1="6301.0645" y1="-8046.2261" x2="6301.0645" y2="-4618.1157" gradientTransform="matrix(1 0 0 1 0 3276)">
				<stop  offset="0" style="stop-color:#FFFFFF;stop-opacity:0"/>
				<stop  offset="0.325" style="stop-color:#D8EBEA;stop-opacity:0.325"/>
				<stop  offset="0.776" style="stop-color:#A6D2CE;stop-opacity:0.776"/>
				<stop  offset="1" style="stop-color:#93C8C4"/>
			</linearGradient>
			<polygon class="st31" points="7033.9,-4818.4 7033.9,-3271.7 6919.9,-2893.9 6890.6,-2783.4 6803.7,-2454.8 6738.8,-2209.5 
				6648.9,-1869.6 6648.9,-1869.5 6554.8,-1499.5 6526.1,-1405.3 5568.2,-1405.3 5620.8,-1511.1 5662.7,-1620.2 5719.9,-1750.3 
				5869,-2089.4 5899,-2157.7 6006.1,-2401.1 6053.6,-2509 6133.3,-2690.3 6186,-2810.1 6237.1,-2926.3 6268.9,-2998.7 
				6352.9,-3189.6 6424.8,-3353.4 6498,-3520 6637.5,-3837.3 6663.3,-3895.9 6788,-4179.3 6802.4,-4212.1 6946.2,-4539.1 			"/>
		</g>
	</g>
</g>
<image style="overflow:visible;enable-background:new    ;" width="3103" height="3103" xlink:href="nessy.png"  transform="matrix(0.1098 0 0 0.1098 6293.5986 -2622.6462)">
</image>
<g class="st2">
	<g>
		<g>
			
				<linearGradient id="SVGID_22_" gradientUnits="userSpaceOnUse" x1="6004.4644" y1="-9085.4678" x2="6004.4644" y2="-4598.6362" gradientTransform="matrix(1 0 0 1 0 3276)">
				<stop  offset="0" style="stop-color:#FFFFFF;stop-opacity:0"/>
				<stop  offset="0.325" style="stop-color:#D8EBEA;stop-opacity:0.325"/>
				<stop  offset="0.776" style="stop-color:#A6D2CE;stop-opacity:0.776"/>
				<stop  offset="1" style="stop-color:#93C8C4"/>
			</linearGradient>
			<path class="st32" d="M6992.3-5872.4v565.3l-0.4,0.8l-236,468.4l-47.9,95.3l-220,436.5l-256.3,508.2l-35.4,70.2l-267.8,531.3
				l-149.9,297.2l-86.1,171.1l-15.7,31.2l-68.5,136l-75.3,149.2l-41.8,82.7l-68.1,135l-21.3,42.2l-21.8,43.2l-290.8,590.9
				l-47.5,94.2l-16.2,18.1h-1.8c-0.3-42.4-0.7-70.8-1.1-113.2c-0.1-16.3-0.3-32.7-0.4-49c-1.1-145.6-2.3-305.2-3.5-450.8
				c-0.3-30.9-0.5-87.4-0.8-161.5l-0.9-304.4c-0.1-53-0.3-108.2-0.4-164.8l15.8-26.4l4.9-8.2l166.8-279.7l142.4-238.7l25.7-43.1
				l212.5-356.5l211.1-353.9l43.8-73.4l209-350.8l104.2-174.1l63-105.7l4.4-7.6l220.8-370.2l459.8-771.1l36.6-61.4L6992.3-5872.4z"
				/>
		</g>
	</g>
</g>
<linearGradient id="SVGID_23_" gradientUnits="userSpaceOnUse" x1="5982.1641" y1="-4661.1025" x2="5982.1641" y2="-5743.9883" gradientTransform="matrix(1 0 0 1 0 3276)">
	<stop  offset="0" style="stop-color:#FFFFFF;stop-opacity:0"/>
	<stop  offset="0.325" style="stop-color:#D8EBEA;stop-opacity:0.325"/>
	<stop  offset="0.776" style="stop-color:#A6D2CE;stop-opacity:0.776"/>
	<stop  offset="1" style="stop-color:#93C8C4"/>
</linearGradient>
<path class="st33" d="M6947.2-2485.6v1094.3l-1923.4-14c-0.3-42.4-0.7-70.8-1.1-113.2l-4.7-661.3l-0.9-304.4
	c108.4-37.5,238.6-35,344.8,8.9l20,8.3l78.6,32.5c23.1,9.6,47.4,17.2,72.4,22.8c105.8,24,223.6,12.9,317.3-32.4l46.3-22.4
	c47.7-23,101.6-37.2,157-42.4c79.5-7.5,162.1,3.4,233.7,33.2l100.7,41.9c119.7,49.8,270.4,47.1,386.1-7l29.7-13.9l16-7.5
	C6859.1-2480.7,6902.5-2493.1,6947.2-2485.6z"/>
<linearGradient id="SVGID_24_" gradientUnits="userSpaceOnUse" x1="5982.6143" y1="-4461.7646" x2="5982.6143" y2="-5074.8872" gradientTransform="matrix(1 0 0 1 0 3276)">
	<stop  offset="0" style="stop-color:#FFFFFF;stop-opacity:0"/>
	<stop  offset="0.325" style="stop-color:#D8EBEA;stop-opacity:0.325"/>
	<stop  offset="0.776" style="stop-color:#A6D2CE;stop-opacity:0.776"/>
	<stop  offset="0.9409" style="stop-color:#93C8C4"/>
</linearGradient>
<path class="st34" d="M6947.2-2091.7v700.4l-1923.4-14c-0.3-42.4-0.7-70.8-1.1-113.2l-4.7-661.3c116.8,74.2,265.5,74.2,382.1,1.4
	c6.6-4.1,13-8.4,19.3-13l1-0.7c0.9-0.6,1.8-1.3,2.7-1.9c115.8-81.6,269-87.5,390.7-14.6l85.2,51l13.4,8
	c121.3,72.6,273.9,67.1,389.7-13.9l46.3-32.4c116-81.2,269-86.5,390.3-13.5c0.1,0.1,0.2,0.1,0.3,0.2l100.7,60.6
	C6873.6-2128.3,6909.9-2114,6947.2-2091.7z"/>
<path class="st20" d="M6648.2-2035.2c-13.3,13.3-31.6,22.2-61.9,23.2c-113.4,4-204,224.4-253.4,228.4c-13.5,1.1-83-2.3-159.4-8.9
	c-82.2-7.1-172.4-18-209.9-31.2c-49.8-17.4-152.4-71.5-210-86.8c-4.7-1.3-17.4-3.2-34.4-5.5c-58.2-7.9-167.5-20.1-184-23.9
	c-20.5-4.8-67.2-14.2-109.3-26.8c-3.5-46.7-13.1-175.8-24.8-350.8c-0.6-8.8-1.2-17.6-1.8-26.6c-5.8-87.2-65.3-1938.5-29.3-2057.1
	c50.2-161.3,370.2-122.7,393.4-194.1c39.2-38,180.8-284,230.5-315.8c23.7-29.1,54.8-50.6,82.5-75.6c6.3-5.7,12.4-11.6,18.2-17.8
	c39.8-42.2,63.9-97,87.4-150.6c23.2-1.8,46.4,1.6,69.6,5.1c31.4,4.8,27.6-8.8,58.3-15.5c16.4-3.6,13.3-38.1,15.6-39.1
	c12.3-38,54.7-30.4,56.9-86c-2.2-71.4-15.2-28.1-27.9-90.4c-1-4.7-14-24.7-33.2-43.8c18.9-61.7-41-87.2-20.2-100.1
	c-32-94.9-79.3-63.9-97.5-98.5c-41.6-79-85.4-39.8-110.4-52.9c-46.2-24.4-56.6-64.7-108.8-80.2c-47.6-14.2-72.2,7.9-120.8-4.1
	c-32.7-8.1-94.8-48.3-128.5-46.3c-31.8,1.9-86,16.5-117.1,19.1c-77.7,6.4-114.8-79.9-189.5-36.8c-24.5,14.1-67,13.1-107.6,9.4
	c-40.6-3.6-60.8,10.7-86.5,28.5c-39.1,27.1-42.4,65.5-92.2,67.6c-58.4,2.6-192.7-30-129.1,187.1l-14.2,232.3
	c49.1,73.9-52-7.2-52.5,53.4c-1.2,152.9,40,345.8,40.8,442.9c1.8,228.1,24.9,950.4,26.8,1178.5c0.9,114.9,1.8,582.8,2.8,997.8
	c0,13.1,0.1,26.1,0.1,39.1c0.1,56.5,0.3,111.8,0.4,164.8l0.2,77.7c0.3,74.1,0.5,130.6,0.8,161.5c1.2,145.6,2.4,291.2,3.5,436.8
	c0.1,16.4,0.3,32.7,0.4,49c0.4,42.4,0.7,98.8,1.1,141.2h1923.4v-638C6679.1-2193.1,6697.3-2084.1,6648.2-2035.2z M5899.5-5117.3
	c16.1-25.8,98-15.7,127.4-21.2c14.7-2.8,98.7-47.9,96.7-17.5c-1.9,29.3-15.2,61.9-32.3,85.6c-29.9,41.2-85,46.9-124.7,91.1
	c-1.8,0.3-61.8,63.4-62.9,59.6c-3.7-12.9-13.5-134.4-14.5-148.1C5887.9-5085.1,5890.1-5102.2,5899.5-5117.3z M5280.3-4774.1
	c-51.7-67.8-55.9-225.4,29.4-378.3c25.6-45.9,59.2-75.8,95.8-94.8c40.2-20.9,75.7,21.1,116.8,19.5c67.2-2.6,106,28.5,124.3,34.5
	c9.3,22.2,20.6,39.3,26.2,44.4c10.7,9.7,24.8,14.4,38.4,18.8c2.5,0.8,5,1.8,7.3,2.8c54.8,24.2,32.5,105.6,78.9,62.8
	c18.2,31,30.6,69.1,28.5,105.5c-1.9,31,7.3,57.5-2.9,86.6c-8.3,23.8-143.7,106.9-168.4,123.9c-1.8,1.3-3.6,2.4-5.3,3.4
	c0.6,0.4,1.3,0.8,1.9,1.2c0,0-0.8,1.1-1.2,1.5c-0.8-0.6-1.5-1.2-2.2-1.8l-0.1-0.1C5615-4726,5367.8-4666.9,5280.3-4774.1z"/>
<path d="M5597.6-4785.1"/>
<image style="overflow:visible;enable-background:new    ;" width="1536" height="2048" xlink:href="fairy-sit.png"  transform="matrix(0.1653 0 0 0.1653 5356.7124 -4954.3628)">
</image>
<image style="overflow:visible;enable-background:new    ;" width="2339" height="2113" xlink:href="rock_monster.png"  transform="matrix(0.2404 1.768038e-02 -1.768038e-02 0.2404 5377.022 -2332.5244)">
</image>
<image style="overflow:visible;enable-background:new    ;" width="3103" height="3103" xlink:href="mer-skull.png"  transform="matrix(0.1345 0 0 0.1345 6313.7109 -2203.7529)">
</image>
<g>
	<g id="Layer_2_3_" transform="translate(-65.911)">
		<path id="Path_1_2_" class="st5" d="M8620.3-2569.3c0.2,0,0.2,0,0.2-0.1C8620.4-2569.4,8620.3-2569.4,8620.3-2569.3z
			 M8620.2-2569.3h-1.5C8619.2-2569.2,8619.7-2569.2,8620.2-2569.3z M7780.6-2586.2c0.5,0.1,1,0.2,1.5,0.1L7780.6-2586.2z"/>
		<path id="Path_2_2_" class="st5" d="M8620.3-2569.3c0.2,0,0.2,0,0.2-0.1C8620.4-2569.4,8620.3-2569.4,8620.3-2569.3z
			 M8620.2-2569.3h-1.5C8619.2-2569.2,8619.7-2569.2,8620.2-2569.3z M7780.6-2586.2c0.5,0.1,1,0.2,1.5,0.1L7780.6-2586.2z"/>
		<path id="Path_3_2_" class="st5" d="M8672-4902.9c6.3,10.4,10.9,21.2,10.5,33.6c-0.4,7.3-0.4,14.7,0.1,22
			c1.1,12.3,3.1,24.4,4.3,36.7c0.7,7.8,1.6,15.7,1.1,23.5c-0.4,5.9-0.6,11.8-0.5,17.6c11.6-20,23.6-39.9,24-60.8
			C8712.1-4856.8,8692.1-4879.6,8672-4902.9L8672-4902.9z M8599.3-4553.2c-13.3,5-23.4,16-35.4,23.6c-20.7,13-46,15.2-70.2,17.1
			c-34.6,2.7-66.2,7.5-98.1,9.1c6.9,39.9,13.3,82.8,19.1,128.1c13.5,104.9,24.1,222.7,32.3,345l181-331.1
			c7.7,2.8,15.1,6.4,22.2,10.7c0.6-18.6,1.1-36.8,1.7-54.4c2.1-60.6,4.3-115.7,6.8-163.3c-8.4,4.4-18.3,7.8-29.8,9.8
			C8619-4557,8608.7-4556.8,8599.3-4553.2z M9002.9-5047.4c-12.2,37-34.3,69.7-67.7,93c-10.9,7.6-78.1,42.7-78.6,7.2
			c-0.6-37.7,0.3-75.4,1-113.1c0.3-18.6,0.7-37.2,0.9-55.8c0.2-19.3,1.6-39.2-2.4-58.1c15.6-3.6,32.9-1,47.9,4.1
			c12,4.1,23.7,10.8,36.7,10.8c7.8,0,71.6-18.3,72.9-2.4C9016.8-5123.7,9014.9-5083.8,9002.9-5047.4z M8542-5198.3
			c29.8-14,23,13.4,23.4,22.7c0.8,21.7-12.4,39.2-18.5,60.1c-1.7,5.7-3.5,11.3-5.3,16.9c-7.8,23.4-15.7,45.5-12.7,70.5
			c3.9,32.4,18.3,64.2,37.7,94.9c11.8,18.6,25.4,37.9,32.1,57.1c3.5,10.2,5.1,20.3,3.4,30.4c-0.9,5.5-2.8,10.9-5.5,15.8
			c-6.1,11.3-17.1,21.6-27.9,31.8c-10,9.4-20.1,18.8-33.3,26.9c-2.2,1.3-4.5,2.6-6.9,3.8c-6.3,3.1-13.5,5.6-21.8,6.4
			c-20.7,2-39.4-7.4-49.6-17.4c-20.8-20.6-20.8-45.2-29.4-68.3c-6.1-16.3-16.7-32-24.2-48c-14.2-30.3-17.6-62-10.1-93.1
			c5.5-22.8,18.9-44.9,19.9-68c1-23.2-7.9-47.2-12.5-70.3c-1.6-8-2.9-16.8,5.2-23.5c7.1-5.9,19.7-8.8,31.3-11.8
			c6.8-1.7,13.5-3.5,20.1-5.4C8487.6-5175.6,8516.1-5186.2,8542-5198.3L8542-5198.3z M8054.2-5078.9c11.5-11.8,34.5-16,20.4-32.5
			c-3.1-3.6-8.1-7.1-7.6-11.1c0.7-5.5,11.3-8.7,19.8-11.7c15.1-5.3,27.5-12.9,35.4-21.6c4.8-5.3,10.3-12,21.2-12.4
			c7.5-0.2,14.2,3.1,16.9,7c12.5,18.1,3.6,42.6,7.8,61.8c3.7,17.2,17.8,33.2,34.1,47.8c33.2,30,81.8,56,104.7,89.2
			c27.4,39.6,14.3,83.6,0.9,125.2c-1.3,4.4-5.6,7.3-10.2,6.8c-2.1-0.3-4-1-5.8-2.1c-47.2-26.9-67.4-60.1-86.9-94.9
			c-23.8-42.2-65.8-79.7-109.7-116.6c-3.3-2.8-6.9-5.4-10.5-8c-8.8-6.6-17.9-12.8-27.5-19.1c-1.8-1.2-3.8-2.5-4.3-4.1
			C8052.4-5076.3,8052.9-5077.6,8054.2-5078.9L8054.2-5078.9z M8247.9-5063.1c-13.6-10.3-19.4-23-24.9-35.3l-16.9-37.4
			c-2-3.9-13.9-9.9-11.3-14.5c1.1-1.8,2.8-3.2,4.8-4c8.9-3.6,25.2,1.6,34.8,2.4c11.4,0.9,27.7-2.1,37.6-5.1
			c17.1-5.2,34.1-13.8,47.4-21.6c28-16.4,47.8,54.7,45.8,64.9c-4.8,24.1-16.6,48.2-24.2,72.1c-0.6,1.9-1.3,3.9-3.8,5.3
			c-2.3,1.3-5.7,1.7-8.9,1.9C8297.7-5032.4,8264.4-5050.6,8247.9-5063.1z M7811.7-4850.2c-5.4-5.6-7.6-11.7-8.8-17.9
			c-0.2-1-0.6-2-1.2-3c-1.3-2.5-2.7-5.1-4.1-7.6c-2.2-3.8-4.4-7.7-6.8-11.5c-1.6-2.5-3.5-4.9-5.1-7.5c-0.4-0.9-0.7-1.9-0.7-3
			c-0.4-1.9,0.1-4-1.2-5.6c-5.4-6.8-6.2-14.3-9.8-21.3c-1.6-3.2-2.1-6.5-3.2-9.7c-0.2-0.8-0.5-1.5-0.9-2.2c-4-6.1-6.7-12.9-7.8-20.1
			c-1.3-8.6-3.9-17.2-5.8-25.7c-0.8-3.4-0.3-7-1.9-10.2c-3.5-7.2-3.9-14.7-6.9-22c-2.7-6.6-2.9-13.6-4.2-20.4
			c-1-5.1-2.1-10.1-3-15.2c-1.1-5.8-2.4-11.6-2.8-17.4c-0.4-7.2,0.3-14.4-0.6-21.6c-0.3-2.3-1.6-3.5-6.1-4.2
			c-5-0.8-10.1-1.8-13.1-4.6c-3.6-3.4-2.1-5.6,4.9-6.4c3.4-0.4,7-0.4,10.4-0.8c3.6-0.4,7.1-0.9,10.6-1.7c3.1-0.7,6.3-0.7,9.5,0
			c2.9,0.7,5.8,1.1,8.7,1.4c11.6,0.4,9.4,1.3,14.4-4c7.6-8,24.3-13.6,42.2-12.8c2.8,0.1,5.6,0.1,8.3-0.1c3.5-0.3,6.7-0.6,10.2,0.4
			c3.3,0.9,6.1-0.1,8.7-1.4c5.4-2.8,10.9-5.5,16.7-8.1c5.1-2.2,12.9-2,18,0.2c6.1,2.6,11.9,5.2,16.3,8.8c3.9,3.1,7,7,9.2,11.5
			c1.3,2.6,2.7,5,7.7,6.4c1.6,0.6,2.9,1.8,3.4,3.5c1.8,6.7,3.4,13.3,4.9,20c0.8,3.9,1.9,7.7,1.7,11.7c-0.2,3.2,1.9,6.7,2.2,10.1
			c0.6,6.9,1.5,13.7,2.5,20.6c0.3,2.3,1.1,4.5,1.6,6.8c1.2,5.4,3.6,10.9,3.3,16.3c-0.3,5.7,3.9,10.9,3.7,16.4c0,1.3,0.3,2.5,0.3,3.8
			c-0.2,5.7-0.5,11.4-0.8,17.1c0,0.4-0.2,0.8,0,1.1c4,6.2,1.7,12.6,1,18.8c-0.6,5.1-1,10.1,0.7,15.2c1.6,5,3.7,10,2,15.1
			c-0.6,1.8,0.9,3.7,1.2,5.6c1,6.7,2,13.4,2.7,20.2c-0.1,1.3-0.9,3-1.6,4.6c-3.4,7.8-6.8,15.6-10.4,23.4c-2.6,5.6-5.7,11.2-8.4,16.9
			c-1.1,2.2-1.9,4.6-2.4,7.1c-1,5.1-3,9.8-6,14.1c-1.2,1.7-1.2,3.7-2.1,5.6c-3.3,6.2-5.9,12.6-10.5,18.5c-2.9,3.7-8,7.3-13.7,9.9
			c-7.6,3.5-16.6,6.1-25.3,8.8c-11.6,3.6-24.2-0.5-24.1-9.3c-1.1-2.3-1.9-6.4-5-9.8c-5.3-5.9-9-11.9-10.2-18.4
			c-0.1-0.7-0.9-1.4-1.5-2.1c-2.3-2.8-4.7-5.5-6.8-8.3C7814.4-4846.2,7813.6-4848.3,7811.7-4850.2L7811.7-4850.2z M8454.8-2639.4
			l2.6,0.1C8456.6-2639.3,8455.7-2639.3,8454.8-2639.4z M8424.1-2728.8c-49.4,31.8-218.4,75.7-236.3,24.7
			c-18.9-60.2-105.3-1269.9-116.5-1356.6c-5.8-45-11.5-89.5-16.9-133.1c-16.3-130.9-30.6-254.2-41.6-359.9
			c-11.8-112.1-19.9-204.4-23-265.4c-3.8-75.9-26.1-174.6,22.4-247.3c58.8,41.8,102.9,89.9,129.3,140.5
			c13.6,26.1,22.8,53.1,46.7,76.9c25.9,25.7,67.1,45.4,104.2,66.6c38.9,22.2,70,108.7,94.7,233.4c2.9,14.7,5.7,29.9,8.5,45.5
			c6.9,39.9,13.3,82.8,19.1,128.1c13.5,104.9,24.1,222.7,32.3,345c4,59.3,16.1,1022.7,17.6,1074
			C8474-2827.4,8441.7-2733.5,8424.1-2728.8z M8798.6-2844.9c-4.7,40.2-148.5,135.1-155.6,92.7c-4.4-26.3-6.6-920.5-6.2-1173.7
			c0.1-82.4,0.5,1090.3,1.2,999c0.5-63.3,1.1-828.7,1.9-893.4c2.2-186.7,5.6-373.4,10.3-530.4c0.6-18.6,1.1-36.8,1.7-54.4
			c2.1-60.6,4.3-115.7,6.8-163.3c5.4-102.1,11.8-170.1,19.3-184.4c14.2-27.1,36.2-53.5,32.3-86.2c-2.5-20.3-15-37.5-28.3-52.4
			c-25.5-28.7-45.6-60.6-69.3-90.5c-8.5-10.8-20.2-20.9-21.2-35.6c-2.1-30.5-1-62.6,2-93.6c2.3-24.2,5.4-51.6,26.2-67.5
			c12.9-9.8,18.8,1.7,29.5-0.3c12.7-2.4,19.4-5.8,30.3-12.8c14.7-9.6,41.4-2.2,52-11.6c4.7-4.2,6.5-9.4,13.3-12.6
			c11.1-5.4,30-2,38.4,4.7c8.4,6.7,9.3,15.3,9.7,23.4c0.2,3.5,0.4,6.9,0.5,10.4c4,89-2.4,178.2,11.2,266.9
			c8.8,57.4,25.8,114.8,20.5,172.2c0,0.5-0.1,6.2-0.1,16.4c-0.2,63.8-0.1,303,1.3,527.2c0.4,68.1,0.9,134.9,1.6,194.9
			C8828.5-3945,8801.1-2866.3,8798.6-2844.9z M9147.3-2806.5c-90.5-24.9-151.8-43.5-152-47.9c-3.7-68-9.9-699.7-16-1158.4
			c-1.3-94.5-2.5-187.5-3.7-275.2c-3.8-277.7-7.3-501.7-9.7-546c-1.1-20.4-2.1-41.1,7.8-60.6c8.1-16.2,23.5-31.1,35.7-46.6
			c39-49.6,43.8-103.9,52.1-156.9c0.8-5.1,2.5-10.1,3.7-15.1c3.6-14.8,52.9-25.5,71.8-35.1c10-5.2,19.6-11.1,28.7-17.7v-485.3
			c-2.2-0.2-4.4-0.5-6.6-0.7c-18.4-1.7-36.6-3.8-54.8-5.8c-1.4-0.2-2.8-0.3-4.2-0.5c-0.7-0.1-1.4-0.1-2.1-0.1
			c-8.6,0.8-16.2-1.4-23.4-3c-9.1-2-18.4-3.1-27.8-3.1c-5.6,0-11.3,0.3-16.8-0.1c-3.2-0.4-6.4-0.2-9.5,0.4c-22,5.5-49,7.8-72.7,12.9
			c-6.8,1.4-13.7,1.9-20.6,1.4c-9.3-0.6-28.6,0.5-36.4-2.2c-9.6-3.3-6-10-15.9-13.9c-6.8-2.7-15.5-3.4-23.8-3.9
			c-40.9-2.7-83.9-2.8-123.8,3.4c-36.5,5.7-77.3,31.2-115.8,26.7c-7-0.8-14.4-0.6-21.6-1.1c-3.4-0.4-6.8-0.2-10.1,0.7
			c-2.4,0.6-4.9,0.9-7.4,0.8c-27.6-0.8-43.4,8.8-69.5,11.6c-1,0.2-2,0.6-2.9,1c-1.9,0.5-3.8,1-5.7,1.4c-3.9,0.8-8,1.4-11.9,2.2
			c-5.9,1.3-11.6,2.7-17.4,4c-52.6,11.8-102.8,23.2-143,46c-18.4,10.5-38.6,23.5-65,22.1c12-4.2,8.6-15.2-3.1-19.7
			c-11.6-4.5-27.2-4.3-41.3-3.3c-36.7,2.6-72.5,9.4-104.4,19.6c-8.6,2.8-17.4,5.9-27.3,6.2c-6.6,0.2-13.1-0.8-19.6-1.7
			c-66.3-9-140.2,0.9-191.5,25.5c-5.1,2.5-10.4,5.4-10.9,9.2c-0.4,2.7,1.9,5.3,3.1,8c6.8,15.2-21,27.8-45.4,36.1
			c-5.7,2.1-11.6,3.7-17.6,4.7c-3.3,0.4-6.7,0.6-10.1,0.7c-3.4,0.1-6.8,0.1-10.1,0.1c-52.8,0.1-109.8,14.4-141.4,37.9
			c-28.9,21.5,1.2,56.9-40.5,72.9c-17.6,6.7-39.7,10.9-51.8,20.6c-5.2,4.1-10.8,9.8-19.8,9c-4.5-0.4-8-2.4-12.5-3
			c-11.6-1.5-18.1,6.6-24.3,12.2c-15.1,13.4-49.3,16.7-67.6,28.8c-19.6,13.1-15.4,32.1-10.2,48.6c7.2,22.9,15.3,46.7,41.7,64.9
			c24.1,16.6,60.4,26.3,95.4,35.3c29,7.5,58.3,18.9,89.9,20.8c3.6,0.2,6.2,1.2,7.3,3.1c1.4,2.4,2.5,4.9,3.9,7.3
			c1,1.9,2.4,3.7,3.9,5.2c2.8,2.6,5.1,5.1,4.7,8.3c-0.1,1-0.1,2,0.2,3c25.9,101.3,25.7,206.4,105,301.5
			c13.8,16.5,29.7,32.6,40.9,49.6c2.2,3.4,6.7,82.5,12,207.6c0.4,9.4,0.8,19.1,1.2,29c3.3,81.1,7,178.8,10.5,286.2
			c5.2,156.7,10.3,1035.2,14.3,1212.3c3.4,150.1,8,117.4,6.2,210.9c-0.1,3.4-0.1,6.9-0.2,10.3c-2.8,128.7-8.9,214.9-19.7,230.8
			c-7.8,11.4-48.3,24.1-94.5,35.3c-7.2,1.7-15.2,3.9-23.9,6.4c-46.4,13.4-110.2,36.4-145.3,52.2c94.9,1.2,194.1-14.6,273.6-45.5
			l1-0.4c113.4-44.1,267.4-57.5,392-34.3l100.1,18.7c123.2,23,275.3,10.1,388.4-32.9l45.2-17.2c113.4-43.1,266-55.9,389.3-32.7
			l12.2,2.3v-200.5C9159.7-2803.1,9153.4-2804.8,9147.3-2806.5z"/>
		<path id="Path_6_2_" class="st5" d="M8020.8-2734.5"/>
		<path id="Path_7_2_" class="st5" d="M8042.1-2743"/>
	</g>
	
		<linearGradient id="SVGID_25_" gradientUnits="userSpaceOnUse" x1="7169.4727" y1="-5250.6611" x2="9100.0723" y2="-5250.6611" gradientTransform="matrix(1 0 0 1 0 3276)">
		<stop  offset="0" style="stop-color:#FFFFFF;stop-opacity:0"/>
		<stop  offset="0.325" style="stop-color:#D8EBEA;stop-opacity:0.325"/>
		<stop  offset="0.776" style="stop-color:#A6D2CE;stop-opacity:0.776"/>
		<stop  offset="1" style="stop-color:#93C8C4"/>
	</linearGradient>
	<path class="st35" d="M9100.1-2600.7v1265.8l-392.4-4.9l-933.9-11.6l-531.6-6.6l-66.6-0.8l-4.7-647.3l-0.9-304.4
		c-0.1-53-0.3-108.2-0.4-164.8c0-13-0.1-26-0.1-39.1l20.8,4.4l175.9,37.3c41.2,8.7,86.1,13.3,132,13.9c9,0.1,18.1,0.1,27.2-0.1
		c86.4-1.8,174.5-17.4,246.4-45.3l1-0.4c18-7,37.1-13.2,56.8-18.7c104.7-28.8,230.3-35.2,335.1-15.6l100.1,18.7
		c7,1.3,14.1,2.5,21.3,3.6c119.1,17.8,260.4,4.1,367.1-36.5l45.2-17.2c100.2-38.1,230.9-52.5,345-39.4c15.1,1.7,29.9,4,44.3,6.7
		L9100.1-2600.7z"/>
	<g class="st2">
		<g>
			<g>
				
					<linearGradient id="SVGID_26_" gradientUnits="userSpaceOnUse" x1="8157.3721" y1="-8911.7725" x2="8157.3721" y2="-4424.9404" gradientTransform="matrix(1 0 0 1 0 3276)">
					<stop  offset="0" style="stop-color:#FFFFFF;stop-opacity:0"/>
					<stop  offset="0.325" style="stop-color:#D8EBEA;stop-opacity:0.325"/>
					<stop  offset="0.776" style="stop-color:#A6D2CE;stop-opacity:0.776"/>
					<stop  offset="1" style="stop-color:#93C8C4"/>
				</linearGradient>
				<path class="st36" d="M9145.2-5698.7v565.3l-0.4,0.8l-236,468.4l-47.9,95.3l-220,436.5l-256.3,508.2l-35.4,70.2l-267.8,531.3
					l-149.9,297.2l-86.2,171.1l-15.7,31.2l-68.5,136l-75.3,149.2l-41.8,82.7l-68.1,135l-21.3,42.2l-21.8,43.2L7242.1-1358
					l-47.5,94.3l-16.2,32.1h-1.8c-0.3-42.4-0.7-84.8-1-127.2c-0.1-16.3-0.3-32.7-0.4-49c-1.1-145.6-2.3-291.2-3.5-436.8
					c-0.3-30.9-0.5-87.4-0.8-161.5l-0.9-304.4c-0.1-53-0.3-108.2-0.4-164.8l15.8-26.4l4.9-8.2l166.8-279.7l142.4-238.7l25.7-43.1
					l212.5-356.5l211-353.9l43.8-73.4l209-350.8l104.2-174.1l63-105.7l4.4-7.6l220.8-370.2l459.9-771.1l36.6-61.4L9145.2-5698.7z"/>
			</g>
		</g>
	</g>
	
		<linearGradient id="SVGID_27_" gradientUnits="userSpaceOnUse" x1="8135.0225" y1="-5613.4834" x2="8135.0225" y2="-4507.5947" gradientTransform="matrix(1 0 0 1 0 3276)">
		<stop  offset="0" style="stop-color:#FFFFFF;stop-opacity:0"/>
		<stop  offset="0.325" style="stop-color:#D8EBEA;stop-opacity:0.325"/>
		<stop  offset="0.776" style="stop-color:#A6D2CE;stop-opacity:0.776"/>
		<stop  offset="1" style="stop-color:#93C8C4"/>
	</linearGradient>
	<path class="st37" d="M9100.1-2325.9v1094.3H7176.6c-0.3-42.4-0.7-84.8-1-127.2l-4.7-647.3l-0.9-304.4
		c108.4-37.5,238.5-35,344.8,8.9l20,8.3l78.6,32.5c23.1,9.6,47.4,17.2,72.4,22.8c105.8,24,223.6,12.9,317.3-32.4l46.3-22.4
		c47.7-23,101.6-37.2,157-42.4c79.5-7.5,162.1,3.4,233.7,33.2l100.7,41.9c119.7,49.8,270.4,47.1,386.1-7l29.7-13.9l16-7.5
		C9012-2307,9055.3-2319.4,9100.1-2325.9z"/>
	
		<linearGradient id="SVGID_28_" gradientUnits="userSpaceOnUse" x1="8135.4722" y1="-5362.9849" x2="8135.4722" y2="-4507.5947" gradientTransform="matrix(1 0 0 1 0 3276)">
		<stop  offset="0" style="stop-color:#FFFFFF;stop-opacity:0"/>
		<stop  offset="0.325" style="stop-color:#D8EBEA;stop-opacity:0.325"/>
		<stop  offset="0.776" style="stop-color:#A6D2CE;stop-opacity:0.776"/>
		<stop  offset="1" style="stop-color:#93C8C4"/>
	</linearGradient>
	<path class="st38" d="M9100.1-1932v700.4H7176.6c-0.3-42.4-0.7-84.8-1-127.2l-4.7-647.3c116.8,74.1,265.5,74.2,382.1,1.4
		c6.5-4.1,13-8.4,19.3-13l1-0.7c0.9-0.6,1.8-1.3,2.7-1.9c115.8-81.6,269-87.5,390.7-14.6l85.2,51l13.4,8
		c121.3,72.6,273.9,67.1,389.7-13.9l46.3-32.4c116-81.2,269-86.5,390.3-13.5c0.1,0.1,0.2,0.1,0.3,0.2l100.7,60.6
		C9026.5-1954.6,9062.8-1940.3,9100.1-1932z"/>
	<path class="st20" d="M8179.8-4633.9c-29.4,5.5-111.3-4.6-127.4,21.2c-9.4,15.1-11.6,32.2-10.3,49.5c1,13.7,10.8,135.2,14.5,148.1
		c1.1,3.8,61.1-59.3,62.9-59.6c39.7-44.2,94.8-49.9,124.7-91.1c17.1-23.7,30.4-56.3,32.3-85.6
		C8278.5-4681.8,8194.5-4636.7,8179.8-4633.9z M8801.8-1695.9L8801.8-1695.9c-13.3,13.3-31.6,22.2-61.9,23.2
		c-113.4,4-204,224.4-253.4,228.4c-13.5,1.1-83-2.3-159.4-8.9c-82.2-7.1-172.4-18-209.9-31.2c-49.8-17.4-152.4-71.5-210-86.8
		c-4.7-1.3-17.4-3.2-34.4-5.5c-58.2-7.9-167.5-20.1-184-23.9c-20.5-4.8-67.2-14.2-109.3-26.8c-3.5-46.7-13.1-175.8-24.8-350.8
		c-0.6-8.8-1.2-17.6-1.8-26.6c-5.8-87.2-11.9-184.9-18.1-288.6c-3.2-53.7-6.4-109.1-9.5-165.5c-10.2-185.3-19.6-382-25.8-569.5
		c-13.2-395.4-12.6-749.6,23.4-868.2c50.2-161.3,370.2-122.7,393.4-194.1c39.2-38,180.8-284,230.5-315.8
		c23.7-29.1,54.8-50.6,82.5-75.6c6.3-5.7,12.4-11.6,18.2-17.8c39.8-42.2,63.9-97,87.4-150.6c23.2-1.8,46.4,1.6,69.6,5.1
		c31.4,4.8,27.6-8.8,58.3-15.5c16.4-3.6,13.3-38.1,15.6-39.1c12.3-38,54.7-30.4,56.9-86c-2.2-71.4-15.2-28.1-27.9-90.4
		c-1-4.7-14-24.7-33.2-43.8c18.9-61.7-42.9-135.3-22.2-148.2c12-7.6-5.2-34.4,8.1-39.4c9.4-3.6,28.3-74.7-10.1-95.3
		c-39.9-21.4-82.4-44.4-104.6-85.9c-17.7-33.2-19.8-72.4-46.4-101.1c-20.5-22.1-46.7-53-71.7-66.1c-46.2-24.4-61.4-84-113.6-99.5
		c-47.6-14.2-99.1-15.5-147.7-27.5c-32.7-8.1-66.3-13.1-100-11.1c-31.8,1.9-60.7,16.2-91.8,18.8c-77.7,6.4-114.8-79.9-189.5-36.8
		c-24.5,14.1-67,13.1-107.6,9.4c-40.6-3.6-60.8,10.7-86.5,28.5c-39.1,27.1-42.4,65.5-92.2,67.6c-58.4,2.6-206.5,47.4-142.9,264.5
		l-3.9,447.2c49.1,73.9-52-7.2-52.5,53.4c-1.2,152.9,40,345.8,40.8,442.9c1.8,228.1,24.9,558.4,26.8,786.5
		c0.9,114.9,1.8,582.8,2.8,997.8c0,13.1,0.1,26.1,0.1,39.1c0.1,56.5,0.3,111.8,0.4,164.8l0.9,304.4c0.3,74.1,0.5,130.6,0.8,161.5
		c1.2,145.6,2.4,291.2,3.5,436.8c0.1,16.3,0.3,32.7,0.4,49c0.4,42.4,0.7,84.8,1.1,127.2h1923.4v-624
		C8832.6-1853.8,8850.9-1744.8,8801.8-1695.9z M7433.2-4269.5c-51.7-67.8-55.9-225.4,29.4-378.3c25.6-45.9,59.2-75.8,95.8-94.8
		c40.2-20.9,75.7,21.1,116.8,19.5c67.2-2.6,106,28.5,124.3,34.5c9.3,22.2,20.6,39.3,26.2,44.4c10.7,9.7,24.8,14.4,38.4,18.8
		c2.5,0.8,5,1.8,7.3,2.8c54.8,24.2,55.9,102.9,102.3,60.1c18.2,31,23.8,66.9,21.7,103.3c-1.9,31-9.4,62.4-19.6,91.5
		c-8.3,23.8-143.7,106.9-168.4,123.9c-1.8,1.3-3.6,2.4-5.3,3.4c0.6,0.4,1.3,0.8,1.9,1.2c0,0-0.8,1.1-1.2,1.5
		c-0.8-0.6-1.5-1.2-2.2-1.8l-0.1-0.1C7767.9-4221.4,7520.7-4162.3,7433.2-4269.5z"/>
	<path d="M7750.5-4611.4"/>
	<g class="st25">
		<g>
			<g>
				
					<linearGradient id="SVGID_29_" gradientUnits="userSpaceOnUse" x1="8453.8721" y1="-7872.5298" x2="8453.8721" y2="-4444.4194" gradientTransform="matrix(1 0 0 1 0 3276)">
					<stop  offset="0" style="stop-color:#FFFFFF;stop-opacity:0"/>
					<stop  offset="0.325" style="stop-color:#D8EBEA;stop-opacity:0.325"/>
					<stop  offset="0.776" style="stop-color:#A6D2CE;stop-opacity:0.776"/>
					<stop  offset="1" style="stop-color:#93C8C4"/>
				</linearGradient>
				<polygon class="st39" points="9186.8,-4644.7 9186.8,-3098 9072.7,-2720.2 9043.5,-2609.7 8956.6,-2281.1 8891.7,-2035.8 
					8801.8,-1695.9 8801.8,-1695.8 8707.6,-1339.8 8679,-1231.6 7721,-1231.6 7773.7,-1351.4 7815.5,-1446.5 7872.8,-1576.6 
					8021.9,-1915.7 8051.9,-1984 8159,-2227.4 8206.4,-2335.3 8286.2,-2516.6 8338.8,-2636.4 8389.9,-2752.6 8421.8,-2825 
					8505.8,-3015.9 8577.7,-3179.7 8650.9,-3346.3 8790.4,-3663.6 8816.2,-3722.2 8940.9,-4005.6 8955.3,-4038.4 9099.1,-4365.4 
									"/>
			</g>
		</g>
	</g>
</g>
<text transform="matrix(1 0 0 1 2642.459 -4222.5347)"><tspan x="0" y="0" style="font-family:'MyriadPro-Regular'; font-size:12px; letter-spacing:33;">	</tspan><tspan x="36" y="0" style="font-family:'MyriadPro-Regular'; font-size:12px;">@media (min-width: $breakpoint-medium) {</tspan><tspan x="0" y="14.4" style="font-family:'MyriadPro-Regular'; font-size:12px; letter-spacing:33;">		</tspan><tspan x="72" y="14.4" style="font-family:'MyriadPro-Regular'; font-size:12px;">#students{</tspan><tspan x="0" y="28.8" style="font-family:'MyriadPro-Regular'; font-size:12px; letter-spacing:33;">			</tspan><tspan x="108" y="28.8" style="font-family:'MyriadPro-Regular'; font-size:12px;">padding-bottom: 80vh;</tspan><tspan x="0" y="43.2" style="font-family:'MyriadPro-Regular'; font-size:12px; letter-spacing:33;">			</tspan><tspan x="108" y="43.2" style="font-family:'MyriadPro-Regular'; font-size:12px;">position: relative;</tspan></text>
</svg>
