<?xml version="1.0" encoding="utf-8"?>
<!-- Generator: Adobe Illustrator 24.0.3, SVG Export Plug-In . SVG Version: 6.00 Build 0)  -->
<svg version="1.1" id="Layer_1" xmlns="http://www.w3.org/2000/svg" xmlns:xlink="http://www.w3.org/1999/xlink" x="0px" y="0px"
	 viewBox="0 0 622.3 760.8" style="enable-background:new 0 0 622.3 760.8;" xml:space="preserve">
<style type="text/css">
	.st0{opacity:0.14;fill:url(#SVGID_1_);enable-background:new    ;}
	.st1{opacity:0.14;fill:url(#SVGID_2_);enable-background:new    ;}
	.st2{fill:#B1B1B1;}
	.st3{fill:#1E1E1E;}
	.st4{opacity:0.19;}
	.st5{fill:url(#SVGID_3_);}
	.st6{fill:url(#SVGID_4_);}
	.st7{fill:#213E48;}
	.st8{display:none;opacity:0.34;fill:url(#SVGID_5_);enable-background:new    ;}
	.st9{display:none;opacity:0.12;}
	.st10{display:inline;}
	.st11{fill:url(#SVGID_6_);}
	.st12{display:none;opacity:0.19;}
	.st13{fill:url(#SVGID_7_);}
	.st14{display:none;opacity:0.17;fill:url(#SVGID_8_);enable-background:new    ;}
	.st15{display:none;opacity:0.16;fill:url(#SVGID_9_);enable-background:new    ;}
	.st16{display:none;fill:#131517;}
	.st17{display:none;}
	.st18{opacity:0.14;fill:url(#SVGID_10_);enable-background:new    ;}
	.st19{fill:#131517;}
	.st20{opacity:0.4;fill:url(#SVGID_11_);enable-background:new    ;}
	.st21{opacity:0.12;}
	.st22{fill:url(#SVGID_12_);}
	.st23{fill:url(#SVGID_13_);}
	.st24{opacity:0.21;fill:url(#SVGID_14_);enable-background:new    ;}
	.st25{opacity:0.21;fill:url(#SVGID_15_);enable-background:new    ;}
	.st26{opacity:0.4;fill:url(#SVGID_16_);enable-background:new    ;}
	.st27{fill:url(#SVGID_17_);}
	.st28{fill:url(#SVGID_18_);}
	.st29{opacity:0.21;fill:url(#SVGID_19_);enable-background:new    ;}
	.st30{opacity:0.21;fill:url(#SVGID_20_);enable-background:new    ;}
	.st31{opacity:0.53;fill:url(#SVGID_21_);enable-background:new    ;}
	.st32{fill:url(#SVGID_22_);}
	.st33{opacity:0.15;fill:url(#SVGID_23_);enable-background:new    ;}
	.st34{opacity:0.1;fill:url(#SVGID_24_);enable-background:new    ;}
	.st35{fill:url(#SVGID_25_);}
</style>
<linearGradient id="SVGID_1_" gradientUnits="userSpaceOnUse" x1="306.8853" y1="-59.5603" x2="306.8853" y2="697.7325">
	<stop  offset="0" style="stop-color:#FFFFFF;stop-opacity:0"/>
	<stop  offset="0.325" style="stop-color:#D8EBEA;stop-opacity:0.325"/>
	<stop  offset="0.776" style="stop-color:#A6D2CE;stop-opacity:0.776"/>
	<stop  offset="1" style="stop-color:#93C8C4"/>
</linearGradient>
<path class="st0" d="M622.3,14v714.2l-625.6-7l-3.7,0C-7.2,708-6.9,672-6.6,636.2c0.2-19.6,0.3-39.1,0.4-54.8v-0.4
	c0.1-12.2,0.1-22,0.1-27.6l-0.2-32.9l-0.4-73.8l-1.1-231.6l-0.3-67.2L-8.5-38.7c43.9-22.9,96.6-21.5,139.6,5.5l8,5.2l31.8,19.9
	c9.2,5.9,19.2,10.5,29.3,14c43,14.7,90.6,7.8,128.6-19.9l18.8-13.7c19.4-14,41.2-22.7,63.6-26.1c32.2-4.6,65.7,2,94.7,20.4
	l40.9,25.6C570,6.8,596.2,14.1,622.3,14z"/>
<linearGradient id="SVGID_2_" gradientUnits="userSpaceOnUse" x1="306.9742" y1="43.366" x2="306.9742" y2="431.6889">
	<stop  offset="0" style="stop-color:#FFFFFF;stop-opacity:0"/>
	<stop  offset="0.325" style="stop-color:#D8EBEA;stop-opacity:0.325"/>
	<stop  offset="0.776" style="stop-color:#A6D2CE;stop-opacity:0.776"/>
	<stop  offset="0.9409" style="stop-color:#93C8C4"/>
</linearGradient>
<path class="st1" d="M622.3,173.8v550.4l-625.7-5.7l-2.4,0c-0.1-9.2-0.2-37.2-0.2-67.9c-0.1-24-0.1-49.6-0.2-69.2v-0.4
	c0-13.7-0.1-24.5-0.1-29.6l-0.2-31.5L-7,446.7l-1.3-231.9c0.2,0.1,0.3,0.3,0.5,0.4c47.2,37.4,107.1,37.3,154.2,0.3
	c2.7-2.1,5.3-4.3,7.8-6.6l0.5-0.4c0.4-0.4,0.9-0.7,1.1-0.9c46.9-41.6,108.9-44.6,158.3-7.5l34.6,25.9l5.5,4.1
	c49.2,36.9,111,34.1,157.9-7.1l18.8-16.5C558.1,182.6,590.4,171.6,622.3,173.8z"/>
<image style="overflow:visible;" width="3103" height="3103" xlink:href="nessy.png"  transform="matrix(6.317076e-02 -6.773206e-03 6.773206e-03 6.317076e-02 230.4612 296.6055)">
</image>
<g>
	<g id="Layer_2_1_" transform="translate(-65.911)">
		<path id="Path_1_1_" class="st2" d="M9237-2437.9c0.2,0,0.2,0,0.2-0.1C9237.1-2438,9237-2438,9237-2437.9z M9237-2437.9h-1.4
			C9236-2437.8,9236.5-2437.8,9237-2437.9z M8477.4-2453.2c0.5,0.1,0.9,0.2,1.4,0.1L8477.4-2453.2z"/>
		<path id="Path_2_1_" class="st2" d="M9237-2437.9c0.2,0,0.2,0,0.2-0.1C9237.1-2438,9237-2438,9237-2437.9z M9237-2437.9h-1.4
			C9236-2437.8,9236.5-2437.8,9237-2437.9z M8477.4-2453.2c0.5,0.1,0.9,0.2,1.4,0.1L8477.4-2453.2z"/>
		<path id="Path_3_1_" class="st3" d="M9283.8-3916.8c5.7,9.4,9.9,19.2,9.5,30.4c-0.4,6.6-0.4,13.3,0.1,19.9
			c1,11.1,2.8,22.1,3.9,33.2c0.6,7.1,1.4,14.2,1,21.3c-0.4,5.3-0.5,10.7-0.5,15.9c10.5-18.1,21.3-36.2,21.7-55.1
			C9320.1-3875,9302-3895.7,9283.8-3916.8L9283.8-3916.8z M9218-3600c-12,4.5-21.2,14.5-32,21.3c-18.7,11.8-41.6,13.8-63.5,15.5
			c-31.3,2.4-59.9,6.8-88.7,8.2c6.2,36.1,12,75,17.3,116.1c12.2,95,21.8,201.7,29.2,312.5l163.7-299.9c7,2.5,13.7,5.8,20.1,9.7
			c0.5-16.8,1-33.3,1.5-49.3c1.9-54.9,3.9-104.8,6.2-147.9c-7.6,4-16.6,7.1-27,8.9C9235.9-3603.5,9226.6-3603.3,9218-3600z
			 M9713.8-2652.8c-81.9-22.5-137.3-39.4-137.5-43.4c-3.3-61.6-9,1.1-14.5-414.4c-1.2-85.6-2.3-169.8-3.3-249.3
			c-3.4-251.5-6.6-454.4-8.8-494.6c-1-18.5-1.9-37.2,7.1-54.9c7.3-14.7,21.3-28.1,32.3-42.2c35.3-45,39.6-94.1,47.1-142.1
			c0.7-4.6,2.3-9.1,3.3-13.7c3.3-13.4,47.9-23.1,65-31.8c9-4.7,17.7-10,26-16v-439.5c-2-0.2-4-0.5-6-0.6
			c-16.6-1.5-33.1-3.4-49.6-5.2c-1.3-0.2-2.5-0.3-3.8-0.5c-0.6-0.1-1.3-0.1-1.9-0.1c-7.8,0.7-14.7-1.3-21.2-2.7
			c-8.2-1.8-16.6-2.8-25.1-2.8c-5.1,0-10.2,0.3-15.2-0.1c-2.9-0.4-5.8-0.2-8.6,0.4c-19.9,5-44.3,7.1-65.8,11.7
			c-6.2,1.3-12.4,1.7-18.6,1.3c-8.4-0.5-25.9,0.5-32.9-2c-8.7-3-5.4-9-14.4-12.6c-6.2-2.4-14-3.1-21.5-3.5c-37-2.4-75.9-2.5-112,3.1
			c-33,5.2-69.9,28.2-104.8,24.2c-6.3-0.7-13-0.5-19.5-1c-3.1-0.4-6.2-0.2-9.1,0.6c-2.2,0.5-4.4,0.8-6.7,0.7
			c-25-0.7-39.3,8-62.9,10.5c-0.9,0.2-1.8,0.5-2.6,0.9c-1.7,0.5-3.4,0.9-5.2,1.3c-3.5,0.7-7.2,1.3-10.8,2
			c-5.3,1.2-10.5,2.4-15.7,3.6c-47.6,10.7-93,21-129.4,41.7c-16.6,9.5-34.9,21.3-58.8,20c10.9-3.8,7.8-13.8-2.8-17.8
			c-10.5-4.1-24.6-3.9-37.4-3c-33.2,2.4-65.6,8.5-94.4,17.7c-7.8,2.5-15.7,5.3-24.7,5.6c-6,0.2-11.9-0.7-17.7-1.5
			c-60-8.1-126.8,0.8-173.2,23.1c-4.6,2.3-9.4,4.9-9.9,8.3c-0.4,2.4,1.7,4.8,2.8,7.2c6.2,13.8-19,25.1-41.1,32.7
			c-5.2,1.9-10.5,3.3-15.9,4.3c-3,0.4-6.1,0.5-9.1,0.6c-3.1,0.1-6.2,0.1-9.1,0.1c-47.8,0.1-99.3,13-127.9,34.3
			c-26.1,19.5,1.1,51.6-36.6,66c-15.9,6.1-35.9,9.9-46.9,18.6c-4.7,3.7-9.8,8.9-17.9,8.1c-4.1-0.4-7.2-2.2-11.3-2.7
			c-10.5-1.4-16.4,6-22,11c-13.7,12.1-44.6,15.1-61.2,26.1c-17.7,11.9-13.9,29-9.2,44.1c6.5,20.7,13.8,42.3,37.7,58.8
			c21.8,15,54.6,23.8,86.3,32c26.2,6.8,52.7,17.1,81.3,18.8c3.3,0.2,5.6,1.1,6.6,2.8c1.3,2.2,2.3,4.4,3.5,6.6
			c0.9,1.7,2.2,3.3,3.5,4.7c2.5,2.4,4.6,4.6,4.3,7.5c-0.1,0.9-0.1,1.8,0.2,2.7c23.4,91.7,23.2,187,95,273.1
			c12.5,14.9,26.9,29.5,37,45c2,3.1,6.1,74.7,10.9,188.1c0.4,8.5,0.7,17.3,1.1,26.2c3,73.5,6.3,161.9,9.5,259.3
			c4.7,141.9,9.3,302.8,12.9,463.3c3.1,136,7.2,106.3,5.6,191.1c-0.1,3.1-0.1,6.2-0.2,9.3c-2.5,116.6-8.1,194.7-17.8,209.1
			c-7.1,10.3-43.7,21.8-85.5,31.9c-6.5,1.5-13.8,3.5-21.6,5.8c-74.6,21.6-198.7,70.6-139.3,61.8c44.4-6.6,89.3-12.9,134.4-19
			c130.4-17.6,263.3-33,395.4-46.7c38.4-4,76.6-7.8,114.8-11.4c260.2-24.9,513.7-42.9,735-55.8c26.2-1.5,51.9-3,77.3-4.3v-187.4
			C9725-2649.7,9719.3-2651.2,9713.8-2652.8L9713.8-2652.8z M9583.2-4047.7c-11,33.6-31,63.1-61.2,84.2c-9.9,6.9-70.7,38.7-71.1,6.5
			c-0.5-34.1,0.3-68.3,0.9-102.4c0.3-16.8,0.6-33.7,0.8-50.5c0.2-17.5,1.4-35.6-2.2-52.7c14.1-3.3,29.8-0.9,43.3,3.7
			c10.9,3.7,21.4,9.8,33.2,9.8c7.1,0,64.8-16.6,65.9-2.2C9595.7-4116.8,9594-4080.7,9583.2-4047.7z M9166.2-4184.3
			c27-12.7,20.8,12.1,21.2,20.5c0.7,19.6-11.2,35.5-16.7,54.5c-1.5,5.2-3.2,10.2-4.8,15.3c-7.1,21.2-14.2,41.3-11.5,63.9
			c3.5,29.3,16.6,58.2,34.1,85.9c10.7,16.8,23,34.3,29,51.7c3.2,9.2,4.6,18.4,3.1,27.5c-0.8,5-2.5,9.9-5,14.3
			c-5.5,10.2-15.5,19.5-25.2,28.8c-9,8.5-18.2,17-30.1,24.3c-2,1.2-4.1,2.4-6.2,3.4c-5.7,2.8-12.2,5.1-19.7,5.8
			c-18.7,1.8-35.6-6.7-44.9-15.7c-18.8-18.6-18.8-41-26.6-61.9c-5.5-14.7-15.1-28.9-21.9-43.5c-12.8-27.4-15.9-56.2-9.1-84.3
			c5-20.6,17.1-40.7,18-61.6c0.9-21-7.1-42.8-11.3-63.7c-1.4-7.2-2.6-15.2,4.7-21.3c6.4-5.3,17.8-8,28.3-10.7
			c6.2-1.5,12.2-3.2,18.2-4.9C9117-4163.8,9142.8-4173.4,9166.2-4184.3L9166.2-4184.3z M8724.9-4076.2
			c10.4-10.7,31.2-14.5,18.5-29.4c-2.8-3.3-7.3-6.4-6.9-10c0.6-5,10.2-7.9,17.9-10.6c13.7-4.8,24.9-11.7,32-19.5
			c4.3-4.8,9.3-10.9,19.2-11.2c6.8-0.2,12.8,2.8,15.3,6.3c11.3,16.4,3.3,38.6,7.1,56c3.3,15.6,16.1,30,30.8,43.3
			c30,27.1,74,50.8,94.7,80.8c24.8,35.8,12.9,75.7,0.8,113.4c-1.2,4-5.1,6.6-9.2,6.2c-1.9-0.3-3.6-0.9-5.2-1.9
			c-42.7-24.3-61-54.5-78.6-85.9c-21.5-38.3-59.5-72.2-99.2-105.6c-3-2.5-6.2-4.9-9.5-7.2c-8-6-16.2-11.6-24.9-17.3
			c-1.6-1.1-3.4-2.3-3.9-3.7C8723.3-4073.9,8723.7-4075.1,8724.9-4076.2L8724.9-4076.2z M8900.2-4061.9
			c-12.3-9.3-17.6-20.8-22.5-31.9l-15.3-33.8c-1.8-3.5-12.6-9-10.2-13.1c1-1.6,2.5-2.9,4.3-3.6c8.1-3.3,22.8,1.4,31.5,2.2
			c10.3,0.8,25.1-1.9,34-4.6c15.5-4.7,30.8-12.5,42.9-19.5c25.3-14.8,43.2,49.6,41.4,58.8c-4.3,21.8-15,43.7-21.9,65.3
			c-0.5,1.7-1.2,3.5-3.4,4.8c-2.1,1.2-5.2,1.5-8.1,1.7C8945.2-4034.1,8915.1-4050.5,8900.2-4061.9z M8505.5-3869.1
			c-4.9-5.1-6.9-10.6-8-16.2c-0.2-0.9-0.5-1.8-1.1-2.7c-1.2-2.3-2.4-4.6-3.7-6.9c-2-3.4-4-7-6.2-10.4c-1.4-2.3-3.2-4.4-4.6-6.8
			c-0.4-0.8-0.6-1.7-0.6-2.7c-0.4-1.7,0.1-3.6-1.1-5.1c-4.9-6.2-5.6-12.9-8.9-19.3c-1.4-2.9-1.9-5.9-2.9-8.8c-0.2-0.7-0.5-1.4-0.8-2
			c-3.6-5.5-6.1-11.7-7.1-18.2c-1.2-7.8-3.5-15.6-5.2-23.2c-0.7-3.1-0.3-6.3-1.7-9.2c-3.2-6.5-3.5-13.3-6.2-19.9
			c-2.4-6-2.6-12.3-3.8-18.5c-0.9-4.6-1.9-9.1-2.7-13.8c-1-5.2-2.2-10.5-2.5-15.7c-0.4-6.5,0.3-13-0.5-19.5
			c-0.3-2.1-1.4-3.2-5.5-3.8c-4.5-0.7-9.1-1.6-11.9-4.2c-3.3-3.1-1.9-5.1,4.4-5.8c3.1-0.4,6.3-0.4,9.4-0.7c3.3-0.4,6.4-0.8,9.6-1.5
			c2.8-0.6,5.7-0.6,8.6,0c2.6,0.6,5.2,1,7.9,1.3c10.5,0.4,8.5,1.2,13-3.6c6.9-7.2,22-12.3,38.2-11.6c2.5,0.1,5.1,0.1,7.5-0.1
			c3.2-0.3,6.1-0.5,9.2,0.4c3,0.8,5.5-0.1,7.9-1.3c4.9-2.5,9.9-5,15.1-7.3c4.6-2,11.7-1.8,16.3,0.2c5.5,2.4,10.8,4.7,14.7,8
			c3.5,2.8,6.3,6.3,8.3,10.4c1.2,2.4,2.4,4.5,7,5.8c1.4,0.5,2.6,1.6,3.1,3.2c1.6,6.1,3.1,12,4.4,18.1c0.7,3.5,1.7,7,1.5,10.6
			c-0.2,2.9,1.7,6.1,2,9.1c0.5,6.2,1.4,12.4,2.3,18.6c0.3,2.1,1,4.1,1.4,6.2c1.1,4.9,3.3,9.9,3,14.7c-0.3,5.2,3.5,9.9,3.3,14.8
			c0,1.2,0.3,2.3,0.3,3.4c-0.2,5.2-0.5,10.3-0.7,15.5c0,0.4-0.2,0.7,0,1c3.6,5.6,1.5,11.4,0.9,17c-0.5,4.6-0.9,9.1,0.6,13.8
			c1.4,4.5,3.3,9,1.8,13.7c-0.5,1.6,0.8,3.3,1.1,5.1c0.9,6.1,1.8,12.1,2.4,18.3c-0.1,1.2-0.8,2.7-1.4,4.2
			c-3.1,7.1-6.2,14.1-9.4,21.2c-2.4,5.1-5.2,10.1-7.6,15.3c-1,2-1.7,4.2-2.2,6.4c-0.9,4.6-2.7,8.9-5.4,12.8
			c-1.1,1.5-1.1,3.3-1.9,5.1c-3,5.6-5.3,11.4-9.5,16.7c-2.6,3.3-7.2,6.6-12.4,9c-6.9,3.2-15,5.5-22.9,8c-10.5,3.3-21.9-0.5-21.8-8.4
			c-1-2.1-1.7-5.8-4.5-8.9c-4.8-5.3-8.1-10.8-9.2-16.6c-0.1-0.6-0.8-1.3-1.4-1.9c-2.1-2.5-4.3-5-6.2-7.5
			C8508-3865.5,8507.3-3867.4,8505.5-3869.1L8505.5-3869.1z M9087.3-2501.4l2.4,0.1C9089-2501.3,9088.1-2501.3,9087.3-2501.4z
			 M9059.6-2582.4c-44.7,28.8-197.6,68.6-213.8,22.3c-17.1-54.5-95.3-515.4-105.4-593.9c-5.2-40.8-10.4-81.1-15.3-120.6
			c-14.7-118.6-27.7-230.2-37.6-326c-10.7-101.5-18-185.2-20.8-240.4c-3.4-68.8-23.6-158.1,20.3-224c53.2,37.9,93.1,81.4,117,127.3
			c12.3,23.6,20.6,48.1,42.2,69.7c23.4,23.2,60.7,41.2,94.3,60.3c35.2,20.1,63.3,98.4,85.7,211.4c2.6,13.3,5.2,27,7.7,41.3
			c6.2,36.1,12,75,17.3,116.1c12.2,95,21.8,201.7,29.2,312.5c3.6,53.7,14.6,291.5,15.9,338
			C9104.7-2671.7,9075.5-2586.6,9059.6-2582.4z M9398.3-2687.5c-4.3,36.5-134.3,122.4-140.8,84c-4-23.8-6-198.9-5.6-428.3
			c0.1-74.6,0.5,352.7,1.1,270c0.5-57.4,1-115.8,1.7-174.3c2-169.1,5.1-338.2,9.3-480.5c0.5-16.8,1-33.3,1.5-49.3
			c1.9-54.9,3.9-104.8,6.2-147.9c4.9-92.5,10.7-154.1,17.5-167c12.8-24.6,32.7-48.5,29.2-78.1c-2.3-18.5-13.6-33.9-25.6-47.4
			c-23.1-26-41.3-54.8-62.7-82.1c-7.7-9.8-18.3-19-19.2-32.2c-1.9-27.6-0.9-56.7,1.8-84.8c2.1-21.9,4.9-46.8,23.7-61.2
			c11.7-8.9,17,1.5,26.7-0.3c11.5-2.2,17.6-5.2,27.4-11.6c13.3-8.7,37.5-2,47-10.5c4.3-3.8,5.9-8.5,12-11.4
			c10-4.9,27.1-1.8,34.7,4.3c7.6,6.1,8.4,13.8,8.8,21.2c0.2,3.2,0.4,6.2,0.5,9.4c3.6,80.6-2.2,161.4,10.1,241.7
			c8,52,23.3,103.9,18.5,156c0,0.5-0.1,5.6-0.1,14.8c-0.2,57.8-0.1,274.5,1.2,477.6c0.4,61.7,0.8,122.2,1.4,176.5
			C9425.4-3049.1,9400.6-2707,9398.3-2687.5z"/>
		<path id="Path_6_1_" class="st2" d="M8694.7-2587.5"/>
		<path id="Path_7_1_" class="st2" d="M8714-2595.2"/>
	</g>
	<g class="st4">
		
			<linearGradient id="SVGID_3_" gradientUnits="userSpaceOnUse" x1="10380.3906" y1="4135.23" x2="10380.3906" y2="1919.7323" gradientTransform="matrix(0.9047 0 0 -0.9047 -205.5312 337.3352)">
			<stop  offset="0" style="stop-color:#FFFFFF;stop-opacity:0"/>
			<stop  offset="0.325" style="stop-color:#D8EBEA;stop-opacity:0.325"/>
			<stop  offset="0.776" style="stop-color:#A6D2CE;stop-opacity:0.776"/>
			<stop  offset="1" style="stop-color:#93C8C4"/>
		</linearGradient>
		<path class="st5" d="M9663.9-3431.4v742l-16.4,47.8l-265.8,776l-2.2,7.8c-9.6,21.5-54.9,51.5-118.1,73.3
			c-84,29-199.6,383.7-305,345.8c-184.7-66.3-268-269.4-245.6-319.6l4.3-7l150.8-264.9l128.3-225.3l85.2-149.6l111.8-196.3
			l31.8-55.8l19.8-34.7l52.2-91.6l44.7-78.6l45.5-80l86.8-152.3l16-28.1l77.5-136.1l9-15.7L9663.9-3431.4L9663.9-3431.4z"/>
	</g>
	<g class="st4">
		
			<linearGradient id="SVGID_4_" gradientUnits="userSpaceOnUse" x1="9944.7207" y1="5454.2788" x2="9944.7207" y2="2218.0479" gradientTransform="matrix(0.9047 0 0 -0.9047 -205.5312 337.3352)">
			<stop  offset="0" style="stop-color:#FFFFFF;stop-opacity:0"/>
			<stop  offset="0.325" style="stop-color:#D8EBEA;stop-opacity:0.325"/>
			<stop  offset="0.776" style="stop-color:#A6D2CE;stop-opacity:0.776"/>
			<stop  offset="1" style="stop-color:#93C8C4"/>
		</linearGradient>
		<path class="st6" d="M9705.6-4637.6v338.7l-0.3,0.5l-164.1,280.6l-33.3,57.1l-153,261.5l-178.2,304.5l-24.6,42.1L8966-3034.3
			l-104.2,178l-59.9,102.5l-58.5,100.1l-81.4,139l-77.3,132.1l-235.2,402.1l-12,20.5l-24,41l-5.8,10.7
			c-12.6,20.2-39.4,47.9-73.9,75.9c-84.8,68.8-215.2,138.3-290.5,97.3c-105.9-57.5-62.9-311.7-19.4-381.6l7-9.9l130.3-188.3
			l281.9-407.4l119.4-172.5l116.9-168.8l147.7-213.6l146.7-212.1l30.5-44l145.3-210.2l72.5-104.3l43.8-63.3l3.1-4.5l153.5-221.8
			l319.7-462l25.4-36.8L9705.6-4637.6L9705.6-4637.6z"/>
	</g>
	<path d="M7902.2-3820c44.4,66.9-47-6.5-47.5,48.3c-1.1,138.3,36.2,312.8,36.9,400.7c1.6,206.4,22.5,505.2,24.2,711.5
		c1.4,180.7,2.9,361.5,4.4,542.3c1.1,131.7,2.2,263.4,3.2,395.2c0.5,59.3,1,118.4,1.4,177.7c0,1.2,0,2.4,0,3.5h1765.6
		c0.2-0.3-4.3-586.5-22.9-586.4c-311.1,1.2-199.8,161-328.7,165.6c-102.6,3.6-184.5,203-229.2,206.6c-12.2,1-75.1-2.1-144.2-8.1
		c-74.4-6.4-156-16.3-189.9-28.2c-45.1-15.7-137.9-64.7-190-78.5c-19-5.1-178.3-22.2-197.6-26.6c-18.5-4.3-60.8-12.8-98.9-24.2
		c-13.8-183.9-132.6-818.4-51.1-1086.6c45.4-145.9,334.9-111,355.9-175.6c35.5-34.4,163.6-256.9,208.5-285.7
		c21.4-26.3,49.6-45.8,74.6-68.4c5.7-5.2,11.2-10.5,16.5-16.1c36-38.2,57.8-87.8,79.1-136.2c21-1.6,42,1.4,63,4.6
		c28.4,4.3,25-8,52.7-14c14.8-3.3,12-34.5,14.1-35.4c11.1-34.4,49.5-27.5,51.5-77.8c-2-64.6-13.8-25.4-25.2-81.8
		c-1.7-8.4-45.4-69.7-90.6-74.5c-59.8-2.3-67.8,18.9-118.3,10.9c-26.6-9-176.5-72.7-225.2-24.2c-30.7,35.3-121.2-13.1-145.4,73.7
		c-26.5,81.8-47.5,42.4-68.7,91.9s19.4,121.2,31.4,132.2c9.7,8.8,22.4,13,34.7,17c2.3,0.7,4.5,1.6,6.6,2.5
		c49.6,21.9,50.6,93.1,92.5,54.4c16.5,28,21.5,60.5,19.6,93.5c-1.7,28-8.5,56.5-17.7,82.8c-7.5,21.5-130,96.7-152.3,112.1
		c-1.6,1.2-3.3,2.2-4.8,3.1c0.5,0.4,1.2,0.7,1.7,1.1c0,0-0.7,1-1.1,1.4c-0.7-0.5-1.4-1.1-2-1.6l-0.1-0.1
		c-29.5,16.5-253.1,69.9-332.3-27c-46.8-61.3-50.6-203.9,26.6-342.2c23.2-41.5,53.6-68.6,86.7-85.8c36.4-18.9,68.5,19.1,105.7,17.6
		c70.7-2.7,106.7,35.8,119.1,31.8c61-19.5,170.7-216.5,212.4-221.5c48.9-6,144.7-3.4,192.6,8.5c17,4.3,34.7-9.3,50.5-8.5
		c11.6,0.5,59.3,15.2,70.7,14.6c28.9-1.5,70.9,18.6,77.6-2.9c17.3-55.8-38.8-122.5-20.1-134.3c10.9-6.9-4.7-31.1,7.3-35.6
		c8.5-3.3,25.6-67.6-9.1-86.2c-36.1-19.4-74.5-40.2-94.6-77.7c-16-30-17.9-65.5-42-91.5c-18.5-20-42.2-47.9-64.9-59.8
		c-41.8-22.1-55.5-76-102.8-90c-43.1-12.8-89.7-14-133.6-24.9c-29.6-7.3-60-11.9-90.5-10c-28.8,1.7-54.9,14.7-83,17
		c-70.3,5.8-103.9-72.3-171.4-33.3c-22.2,12.8-60.6,11.9-97.3,8.5c-36.7-3.3-55,9.7-78.3,25.8c-35.4,24.5-38.4,59.3-83.4,61.2
		c-52.8,2.4-186.8,42.9-129.3,239.3 M8707.7-3610.3c-1.2-15.7,0.8-31.1,9.3-44.8c14.6-23.3,88.7-14.2,115.3-19.2
		c13.3-2.5,89.3-43.3,87.5-15.8c-1.7,26.5-13.8,56-29.2,77.4c-27,37.3-76.9,42.4-112.8,82.4c-1.6,0.3-55.9,57.4-56.9,53.9
		C8717.5-3488,8708.6-3598,8707.7-3610.3z"/>
	<path d="M8443.9-3653.9"/>
</g>
<g id="Layer_2_2_" transform="translate(-65.911)">
	<path class="st7" d="M5567.8-8673C5563.1-8669.3,5575.9-8672.2,5567.8-8673L5567.8-8673z M7015.9-6384v12.5
		C7024.5-6373.2,7025.9-6377.3,7015.9-6384z"/>
	<path class="st7" d="M6842.5-6437.6c-17.6-59.1-9-633-14.5-1048c-1.2-85.5-2.3-169.6-3.3-249c-3.4-251.2-6.6-453.9-8.8-493.9
		c-1-18.5-1.9-37.2,7.1-54.8c7.3-14.7,21.3-28.1,32.3-42.2c35.3-44.9,39.6-94,47.1-141.9c0.7-4.6,2.3-9.1,3.3-13.7
		c3.3-13.4,47.9-23.1,65-31.8c9-4.7,36.8-23.6,45.1-29.6v-439c-2-0.2-4-0.5-6-0.6c-16.6-1.5-52.2,10.1-68.7,8.3
		c-1.3-0.2-2.5-0.3-3.8-0.5c-0.6-0.1-1.3-0.1-1.9-0.1c-7.8,0.7-14.7-1.3-21.2-2.7c-8.2-1.8-16.6-2.8-25.1-2.8
		c-5.1,0-10.2,0.3-15.2-0.1c-2.9-0.4-5.8-0.2-8.6,0.4c-19.9,5-44.3,7.1-65.8,11.7c-6.2,1.3-12.4,1.7-18.6,1.3
		c-8.4-0.5-25.9,0.5-32.9-2c-8.7-3-5.4-9-14.4-12.6c-6.2-2.4-14-3.1-21.5-3.5c-37-2.4-75.9-2.5-112,3.1
		c-33,5.2-69.9,28.2-104.8,24.2c-6.3-0.7-13-0.5-19.5-1c-3.1-0.4-6.2-0.2-9.1,0.6c-2.2,0.5-4.4,0.8-6.7,0.7
		c-25-0.7-39.3,8-62.9,10.5c-0.9,0.2-1.8,0.5-2.6,0.9c-1.7,0.5-3.4,0.9-5.2,1.3c-3.5,0.7-7.2,1.3-10.8,2c-5.3,1.2-10.5,2.4-15.7,3.6
		c-47.6,10.7-93,21-129.4,41.6c-16.6,9.5-51,6.2-61.6,2.2c-10.5-4.1-24.6-3.9-37.4-3c-33.2,2.4-65.6,8.5-94.4,17.7
		c-7.8,2.5-15.7,5.3-24.7,5.6c-6,0.2-11.9-0.7-17.7-1.5c-60-8.1-126.8,0.8-173.2,23.1c-4.6,2.3-9.4,4.9-9.9,8.3
		c-0.4,2.4,1.7,4.8,2.8,7.2c6.2,13.8-19,25.1-41.1,32.7c-5.2,1.9-10.5,3.3-15.9,4.3c-3,0.4-6.1,0.5-9.1,0.6
		c-3.1,0.1-6.2,0.1-9.1,0.1c-47.8,0.1-99.3,13-127.9,34.3c-26.1,19.5,13.3,40-24.4,54.4c-15.9,6.1-11,29.5-22,38.2
		c8.1,0.8-4.7,3.7,0,0c-4.1-0.4-7.2-2.2-11.3-2.7c-10.5-1.4-16.4,6-22,11c-13.7,12.1-44.6,15.1-61.2,26.1c-17.7,11.9-13.9,29-9.2,44
		c6.5,20.7,13.8,42.2,37.7,58.7c1.8,1.2,3.7,2.4,5.6,3.6l-40.1,268.9c-0.9,6.1-0.7,12.3,0.7,18.4l92,405.3c0.9,3.9,1.3,7.9,1.2,11.8
		l-27.2,1650c-0.4,22.4-13.9,42.5-34.4,51.5c-40.1,17.4-65.7,31.3-62.8,37.8c1.3,0.1,4.6,0.5,9.9,0.9v968.2h1569.2v-1252
		C6984.4-6365.6,6856-6392.4,6842.5-6437.6z M5537.1-8431.7l8.1-47.6c3.1-18.5,21.4-30.3,39.5-25.6c1.1,0.3,2.3,0.6,3.4,0.9
		c4.7,1.2,10.4,2,16.7,2.4c12.6,0.8,17.8,16.5,8.3,24.8l-61.3,53.4C5545.5-8417.9,5535.7-8423.4,5537.1-8431.7z M5536.3-8247.6
		c-4.4-8.6-6.1-18.4-5.1-28l8-72.4c1.4-12.5,7.4-23.9,16.9-32.2l112.2-97.4c7.1-6.1,18.1-1.9,19.3,7.3l28.9,219.9
		c2.7,20.2-0.1,40.8-8,59.6l-23.2,55.2c-16.4,39.1-71.1,41-90.3,3.2L5536.3-8247.6z M5827.2-6213.2l1.4,0.1
		C5828.1-6213,5827.7-6213.1,5827.2-6213.2z M5888.1-6401c-0.1,3.1-0.1,6.2-0.2,9.3c-2.5,116.4-6.9,109.5-16.6,123.8
		c-1.6,2.3-24.7,11.2-59.6,24c-18.6,6.8-38.5-6.3-39.6-26.1l-89.8-1641.4c-0.1-6.1,5.4-37,7.6-42.8l76.4-208.7
		c6.8-18,11.1-36.8,12.9-55.8c0.9-9.4,12.9-12.7,18.4-5c4.2,5.8,8.7,11.6,13.5,17.4c12.5,14.9,26.9,29.5,37,44.9
		c2,3.1,6.1,74.6,10.9,187.8c0.4,8.5,0.7,17.3,1.1,26.2c3,73.4,6.3,161.8,9.5,258.9c4.7,141.8,9.3,936.5,12.9,1096.7
		C5885.6-6456,5889.7-6485.7,5888.1-6401z M5923.8-8219.6c-8.8,1.5-76.9,0-103.5-113.4c-6.3-27-12.8-54.3-23.1-79.6
		c-2.4-6-2.6-12.3-3.8-18.5c-0.9-4.6-1.9-9.1-2.7-13.8c-1-5.2-2.2-10.5-2.5-15.7c-0.4-6.5,0.3-13-0.5-19.5c-0.3-2.1,2.9-15.3,6.1-16
		c2.8-0.6,5.7-0.6,8.6,0c2.6,0.6,5.2,1,7.9,1.3c10.5,0.4,8.5,1.2,13-3.6c6.9-7.2,22-12.3,38.2-11.6c2.5,0.1,5.1,0.1,7.5-0.1
		c3.2-0.3,6.1-0.5,9.2,0.4c3,0.8,5.5-0.1,7.9-1.3c4.9-2.5,9.9-5,15.1-7.3c4.6-2,11.7-1.8,16.3,0.2c5.5,2.4,10.8,4.7,14.7,8
		c3.5,2.8,6.3,6.3,8.3,10.4c1.2,2.4,13.1,21,14.5,27c0.7,3.5,1.7,7,1.5,10.6c-0.2,2.9,2.2,6.1,2,9.1
		C5956-8411.5,5989.3-8232.2,5923.8-8219.6z M6118.3-8514.6c1-1.6,2.5-2.9,4.3-3.6c8.1-3.3,22.8,1.4,31.5,2.2
		c10.3,0.8,25.1-1.9,34-4.6c15.5-4.7,30.8-12.5,42.9-19.5c25.3-14.8,43.2,49.5,41.4,58.7c-4.3,21.8-15,43.6-21.9,65.2
		c-0.5,1.7-1.2,3.5-3.4,4.8c-2.1,1.2-5.2,1.5-8.1,1.7c-27.7,1.8-57.8-14.7-72.7-26c-12.3-9.3-17.6-20.8-22.5-31.9l-15.3-33.8
		C6126.7-8505,6116-8510.4,6118.3-8514.6z M6020.6-8500c13.7-4.8,24.9-11.7,32-19.5c4.3-4.8,9.3-10.9,19.2-11.2
		c6.8-0.2,12.8,2.8,15.3,6.3c11.3,16.4,3.3,38.5,7.1,55.9c3.3,15.6,16.1,30,30.8,43.2c30,27.1,74,50.7,94.7,80.7
		c16.4,23.7,22.8,36.3,21.7,53c-0.5,7.7-9.7,11.1-15.2,5.7c-17.4-17.5-57.8-14.5-71.1-38.3C6133.7-8362.4,6012.9-8497.3,6020.6-8500
		z M6353.5-6243.1l2.4,0.1C6355.1-6243,6354.3-6243,6353.5-6243.1z M6325.8-6324c-19.7,12.7-50.5,28.6-84,36.6
		c-62.8,15-124.8-27.9-133.4-91.9c-57.5-427.6-111.5-1824.1-91.9-1854c-2.8-55.7,18.3-76,7.5-122.2c-1.9-8.3,6.9-14.8,14.3-10.4
		c22.4,13.2,42.3,10.1,59.4,43c12.3,23.6,20.6,48,42.2,69.6c23.4,23.2,60.7,41.1,94.3,60.2c35.2,20.1,35.7,109.6,58.1,222.4
		c2.6,13.3,5.2,27,7.7,41.2v0.1c6.2,36.1,12,74.8,17.3,115.8c12.2,94.9,21.8,201.5,29.2,312.1v0.1c3.6,54.4,14.6,925.1,15.9,971.5
		C6370.9-6413.2,6341.7-6328.3,6325.8-6324z M6486.8-8239c-0.8,5-2.5,9.9-5,14.3c-5.5,10.2-15.5,19.5-25.2,28.8
		c-9,8.5-18.2,17-30.1,24.3c-2,1.2-4.1,2.4-6.2,3.4c-5.7,2.8-12.2,5.1-19.7,5.8c-18.7,1.8-35.6-6.7-44.9-15.7
		c-18.8-18.6-18.8-40.9-26.6-61.8c-5.5-14.7-15.1-28.9-21.9-43.4c-12.9-27.5-16-56.1-9.2-84.3c5-20.6,17.1-40.6,18-61.5
		c0.9-21-7.1-42.7-11.3-63.6c-1.4-7.2-2.6-15.2,4.7-21.3c6.4-5.3,17.8-8,28.3-10.7c6.2-1.5,12.2-3.2,18.2-4.9
		c27.3-8,53.1-17.6,76.5-28.5c27-12.7,20.8,12.1,21.2,20.5c0.7,19.6-11.2,35.5-16.7,54.4c-1.5,5.2-3.2,10.2-4.8,15.3
		c-7.1,21.2-14.2,41.2-11.5,63.8c3.5,29.3,16.6,58.1,34.1,85.9c10.7,16.8,23,34.3,29,51.7C6486.9-8257.3,6488.3-8248.1,6486.8-8239z
		 M6503.2-6179.7c-0.5,0.1-1,0.1-1.4,0H6503.2c0-0.1,0.1-0.1,0.2-0.1C6503.4-6179.7,6503.4-6179.7,6503.2-6179.7z M6664.4-6429
		c-4.3,36.4-134.3,122.2-140.8,83.9c-1.7-10.4-3.1-171.4-4.1-368.5c-0.2,107.7-0.4,192-0.5,210.4c-0.4,50.6-0.6-327.1-0.9-610.8
		c0.3,127.5,0.7,271.6,1.4,400.4c0.4-227,0.7-558.2,1.3-597.8c2-168.9,5.1-337.8,9.3-479.8c0.5-16.8,1-33.3,1.5-49.2
		c1.9-54.8,3.9-104.7,6.2-147.7c4.9-92.4,10.7-153.9,17.5-166.8c2.6-5.1,5.6-10.1,8.6-15.2c0.7-1.3,1.5-2.6,2.3-3.9
		c0.3-0.4,0.5-0.8,0.7-1.2c2.4-4.3,4.9-8.5,7.1-12.8c0.2-0.4,0.4-0.7,0.5-1.1c0.1-0.4,0.4-0.7,0.5-1.1c6.7-13.3,11.2-27.3,9.4-42.8
		c-0.7-6.2-2.5-11.9-5-17.5c-2.4-5.5-5.6-10.7-9.1-15.7s-7.5-9.7-11.5-14.2c-23.1-26-41.3-54.8-62.7-81.9
		c-7.7-9.8-18.3-18.9-19.2-32.2c-1.6-27.5-0.6-56.6,2.1-84.6c2.1-21.9,4.9-46.7,23.7-61.1c11.7-8.9,17,1.5,26.7-0.3
		c11.5-2.2,17.6-5.2,27.4-11.6c13.3-8.7,37.5-2,47-10.5c4.3-3.8,5.9-8.5,12-11.4c10-4.9,27.1-1.8,34.7,4.3
		c7.6,6.1,8.4,13.8,8.8,21.2c0.2,3.2,0.4,6.2,0.5,9.4c3.6,80.5-2.2,161.2,10.1,241.5c8,51.9,23.3,103.9,18.5,155.8
		c0,0.5-0.1,5.6-0.1,14.8c-0.2,57.7-0.1,274.1,1.2,476.9c0.4,61.6,0.8,122,1.4,176.3C6691.4-7424.2,6666.7-6448.4,6664.4-6429z
		 M6518.2-7406.9c0,22.4,0.1,142.3,0.2,288.1C6518.2-7239.4,6518.1-7344.6,6518.2-7406.9z M6788.1-8337.4
		c-9.9,6.9-70.7,38.6-71.1,6.5c-0.5-34.1,0.3-68.2,0.9-102.3c0.3-16.8,0.6-33.7,0.8-50.5c0.2-17.5,1.4-35.5-2.2-52.6
		c14.2-3.2,29.8-0.8,43.4,3.8c10.9,3.7,21.4,9.8,33.2,9.8c7.1,0,64.8-16.6,65.9-2.2c2.9,34.4,1.2,70.5-9.7,103.4
		C6838.3-8388,6818.3-8358.4,6788.1-8337.4z"/>
</g>
<linearGradient id="SVGID_5_" gradientUnits="userSpaceOnUse" x1="5746.9565" y1="-2990.4773" x2="5746.9565" y2="-1710.9226" gradientTransform="matrix(0.9047 0 0 -0.9047 -205.5312 -3769.7917)">
	<stop  offset="0" style="stop-color:#FFFFFF;stop-opacity:0"/>
	<stop  offset="0.325" style="stop-color:#D8EBEA;stop-opacity:0.325"/>
	<stop  offset="0.776" style="stop-color:#A6D2CE;stop-opacity:0.776"/>
	<stop  offset="1" style="stop-color:#93C8C4"/>
</linearGradient>
<path class="st8" d="M5867-2208v1145.1l-355-4.4l-844.9-10.5l-480.9-6l-60.2-0.7l-4.3-585.6l-0.8-275.4
	c-0.1-47.9-0.3-97.9-0.4-149.1c0-11.8-0.1-23.5-0.1-35.4l18.8,4l159.1,33.7c37.3,7.9,77.9,12,119.4,12.6c8.1,0.1,16.4,0.1,24.6-0.1
	c78.2-1.6,157.9-15.7,222.9-41l0.9-0.4c16.3-6.3,33.6-11.9,51.4-16.9c94.7-26.1,208.3-31.8,303.1-14.1l90.6,16.9
	c6.3,1.2,12.8,2.3,19.3,3.3c107.7,16.1,235.6,3.7,332.1-33l40.9-15.6c90.6-34.5,208.9-47.5,312.1-35.6c13.7,1.5,27,3.6,40.1,6.1
	L5867-2208z"/>
<g class="st9">
	<g class="st10">
		<g>
			
				<linearGradient id="SVGID_6_" gradientUnits="userSpaceOnUse" x1="6162.2876" y1="269.789" x2="6162.2876" y2="-3158.321" gradientTransform="matrix(0.9047 0 0 -0.9047 -205.5312 -3769.7917)">
				<stop  offset="0" style="stop-color:#FFFFFF;stop-opacity:0"/>
				<stop  offset="0.325" style="stop-color:#D8EBEA;stop-opacity:0.325"/>
				<stop  offset="0.776" style="stop-color:#A6D2CE;stop-opacity:0.776"/>
				<stop  offset="1" style="stop-color:#93C8C4"/>
			</linearGradient>
			<polygon class="st11" points="6032.4,-4057.1 6032.4,-2657.8 5929.3,-2316.1 5902.8,-2216.1 5824.2,-1918.8 5765.5,-1696.9 
				5684.2,-1389.4 5684.2,-1389.3 5599,-1067.3 5573.1,-969.4 4706.5,-969.4 4754.1,-1077.8 4792,-1163.8 4843.7,-1281.5 
				4978.6,-1588.3 5005.8,-1650.1 5102.6,-1870.2 5145.6,-1967.9 5217.7,-2131.9 5265.4,-2240.2 5311.6,-2345.4 5340.4,-2410.9 
				5416.4,-2583.6 5481.4,-2731.7 5547.6,-2882.5 5673.8,-3169.5 5697.2,-3222.5 5810,-3478.9 5823,-3508.6 5953.1,-3804.4 			"/>
		</g>
	</g>
</g>
<image style="display:none;overflow:visible;enable-background:new    ;" width="3103" height="3103" xlink:href="nessy.png"  transform="matrix(9.933096e-02 0 0 9.933096e-02 5362.7319 -2070.7473)">
</image>
<g class="st12">
	<g class="st10">
		<g>
			
				<linearGradient id="SVGID_7_" gradientUnits="userSpaceOnUse" x1="5865.6147" y1="1309.0311" x2="5865.6147" y2="-3177.8008" gradientTransform="matrix(0.9047 0 0 -0.9047 -205.5312 -3769.7917)">
				<stop  offset="0" style="stop-color:#FFFFFF;stop-opacity:0"/>
				<stop  offset="0.325" style="stop-color:#D8EBEA;stop-opacity:0.325"/>
				<stop  offset="0.776" style="stop-color:#A6D2CE;stop-opacity:0.776"/>
				<stop  offset="1" style="stop-color:#93C8C4"/>
			</linearGradient>
			<path class="st13" d="M5994.8-5010.6v511.4l-0.4,0.7l-213.5,423.7l-43.3,86.2l-199,394.9l-231.9,459.8l-32,63.5l-242.3,480.6
				l-135.6,268.9l-77.9,154.8l-14.2,28.2l-62,123l-68.1,135l-37.8,74.8l-61.6,122.1l-19.3,38.2l-19.7,39.1l-263.1,521.9l-43,85.2
				l-14.7,29h-1.6c-0.3-38.4-0.6-76.7-1-115.1c-0.1-14.7-0.3-29.6-0.4-44.3c-1-131.7-2.1-263.4-3.2-395.2
				c-0.3-28-0.5-79.1-0.7-146.1l-0.8-275.4c-0.1-47.9-0.3-97.9-0.4-149.1l14.3-23.9l4.4-7.4l150.9-253l128.8-215.9l23.2-39
				l192.2-322.5l191-320.2l39.6-66.4l189.1-317.4l94.3-157.5l57-95.6l4-6.9l199.7-334.9l416-697.6l33.1-55.5L5994.8-5010.6z"/>
		</g>
	</g>
</g>
<linearGradient id="SVGID_8_" gradientUnits="userSpaceOnUse" x1="5747.2329" y1="-3101.2571" x2="5747.2329" y2="-2031.9091" gradientTransform="matrix(0.9047 0 0 -0.9047 -205.5312 -3769.7917)">
	<stop  offset="0" style="stop-color:#FFFFFF;stop-opacity:0"/>
	<stop  offset="0.325" style="stop-color:#D8EBEA;stop-opacity:0.325"/>
	<stop  offset="0.776" style="stop-color:#A6D2CE;stop-opacity:0.776"/>
	<stop  offset="1" style="stop-color:#93C8C4"/>
</linearGradient>
<path class="st14" d="M5867-1959.4v990H4127c-0.3-38.4-0.6-76.7-1-115.1l-4.3-585.6l-0.8-275.4c98.1-33.9,215.9-31.7,311.9,8.1
	l18.1,7.5l71.1,29.4c20.9,8.7,42.9,15.6,65.5,20.6c95.7,21.7,202.3,11.7,287-29.3l41.9-20.3c43.2-20.8,91.9-33.7,142-38.4
	c71.9-6.8,146.6,3.1,211.4,30l91.1,37.9c108.3,45.1,244.6,42.6,349.3-6.3l26.9-12.6l14.5-6.8
	C5787.3-1942.3,5826.5-1953.5,5867-1959.4z"/>
<linearGradient id="SVGID_9_" gradientUnits="userSpaceOnUse" x1="5747.6753" y1="-3297.3625" x2="5747.6753" y2="-2694.1135" gradientTransform="matrix(0.9047 0 0 -0.9047 -205.5312 -3769.7917)">
	<stop  offset="0" style="stop-color:#FFFFFF;stop-opacity:0"/>
	<stop  offset="0.325" style="stop-color:#D8EBEA;stop-opacity:0.325"/>
	<stop  offset="0.776" style="stop-color:#A6D2CE;stop-opacity:0.776"/>
	<stop  offset="0.9409" style="stop-color:#93C8C4"/>
</linearGradient>
<path class="st15" d="M5867-1603v633.6H4127c-0.3-38.4-0.6-76.7-1-115.1l-4.3-585.6c105.7,67.1,240.2,67.1,345.7,1.3
	c6-3.7,11.8-7.6,17.5-11.8l0.9-0.6c0.8-0.5,1.6-1.2,2.4-1.7c104.8-73.8,243.4-79.2,353.4-13.2l77.1,46.1l12.1,7.2
	c109.7,65.7,247.8,60.7,352.5-12.6l41.9-29.3c104.9-73.5,243.4-78.3,353.1-12.2c0.1,0.1,0.2,0.1,0.3,0.2l91.1,54.8
	C5800.4-1623.5,5833.2-1610.5,5867-1603z"/>
<path class="st16" d="M5683.5-1539.2c-12,12-28.6,20.1-56,21c-102.6,3.6-184.5,203-229.2,206.6c-12.2,1-75.1-2.1-144.2-8.1
	c-74.4-6.4-156-16.3-189.9-28.2c-45.1-15.7-137.9-64.7-190-78.5c-4.3-1.2-15.7-2.9-31.1-5c-52.7-7.1-151.5-18.2-166.5-21.6
	c-18.5-4.3-60.8-12.8-98.9-24.2c-3.2-42.2-11.9-159-22.4-317.4c-0.5-8-1.1-15.9-1.6-24.1c-5.2-78.9-59.1-1192.3-26.5-1299.6
	c45.4-145.9,334.9-111,355.9-175.6c35.5-34.4,163.6-256.9,208.5-285.7c21.4-26.3,49.6-45.8,74.6-68.4c5.7-5.2,11.2-10.5,16.5-16.1
	c36-38.2,57.8-87.8,79.1-136.2c21-1.6,42,1.4,63,4.6c28.4,4.3,25-8,52.7-14c14.8-3.3,12-34.5,14.1-35.4
	c11.1-34.4,49.5-27.5,51.5-77.8c-2-64.6-13.8-25.4-25.2-81.8c-0.9-4.3-12.7-22.3-30-39.6c17.1-55.8-38.8-122.4-20.1-134.1
	c19.8-91.1,4.6-131.5-2.3-140.8c4-15.1-12.7-90.9-44.4-108c-36.1-19.4-44-26.1-54.6-86.8c-16-30-12.8-110-36.8-136
	c-18.5-20-84.9-99-107.6-110.9c-41.8-22.1-55.5-76-102.8-90c-43.1-12.8-89.7-14-133.6-24.9c-29.6-7.3-60-11.9-90.5-10
	c-28.8,1.7-103.7-16.9-131.8-14.6c-70.3,5.8-103.9-72.3-171.4-33.3c-22.2,12.8-60.6,11.9-97.3,8.5c-36.7-3.3-55,9.7-78.3,25.8
	c-35.4,24.5-38.4,59.3-83.4,61.2c-52.8,2.4-138.1,74.5-80.5,270.9l38.7,636.1c44.4,66.9-47-6.5-47.5,48.3
	c-1.1,138.3,36.2,312.8,36.9,400.7c1.6,206.4,22.5,298.4,24.2,504.8c0.8,103.9,1.6,527.2,2.5,902.7c0,11.9,0.1,23.6,0.1,35.4
	c0.1,51.1,0.3,101.1,0.4,149.1l0.2,70.3c0.3,67,0.5,118.1,0.7,146.1c1.1,131.7,2.2,263.4,3.2,395.2c0.1,14.8,0.3,29.6,0.4,44.3
	c0.4,38.4,0.6,76.7,1,115.1h1740v-564.5C5711.5-1682.1,5727.9-1583.5,5683.5-1539.2z M5006.2-3766.1c14.6-23.3,88.7-14.2,115.3-19.2
	c13.3-2.5,89.3-43.3,87.5-15.8c-1.7,26.5-13.8,56-29.2,77.4c-27,37.3-76.9,42.4-112.8,82.4c-1.6,0.3-55.9,57.4-56.9,53.9
	c-3.3-11.7-12.2-121.6-13.1-134C4995.7-3737,4997.7-3752.5,5006.2-3766.1z M4446-3455.6c-46.8-61.3-50.6-203.9,26.6-342.2
	c23.2-41.5,53.6-68.6,86.7-85.8c36.4-18.9,68.5,19.1,105.7,17.6c60.8-2.4,95.9,25.8,112.4,31.2c8.4,20.1,18.6,35.6,23.7,40.2
	c9.7,8.8,22.4,13,34.7,17c2.3,0.7,4.5,1.6,6.6,2.5c49.6,21.9,29.4,95.5,71.4,56.8c16.5,28,27.7,62.5,25.8,95.4
	c-1.7,28,6.6,52-2.6,78.3c-7.5,21.5-130,96.7-152.3,112.1c-1.6,1.2-3.3,2.2-4.8,3.1c0.5,0.4,1.2,0.7,1.7,1.1c0,0-0.7,1-1.1,1.4
	c-0.7-0.5-1.4-1.1-2-1.6l-0.1-0.1C4748.8-3412.1,4525.2-3358.7,4446-3455.6z"/>
<path class="st17" d="M4733.1-4026.9"/>
<image style="display:none;overflow:visible;enable-background:new    ;" width="1536" height="2048" xlink:href="fairy-sit.png"  transform="matrix(0.1495 0 0 0.1495 4503.4141 -3622.9182)">
</image>
<image style="display:none;overflow:visible;enable-background:new    ;" width="2339" height="2113" xlink:href="rock_monster.png"  transform="matrix(0.2175 1.599462e-02 -1.599462e-02 0.2175 4533.5479 -1808.2874)">
</image>
<image style="display:none;overflow:visible;enable-background:new    ;" width="3103" height="3103" xlink:href="mer-skull.png"  transform="matrix(0.1217 0 0 0.1217 5380.9268 -1691.7937)">
</image>
<g id="Layer_2_4_" transform="translate(-65.911)">
	<path id="Path_1_3_" class="st7" d="M3822.5-6049.9c0.2,0,0.2,0,0.2-0.1C3822.6-6050,3822.5-6050,3822.5-6049.9z M3822.4-6049.9
		h-1.4C3821.5-6049.8,3822-6049.8,3822.4-6049.9z M3062.9-6065.2c0.5,0.1,0.9,0.2,1.4,0.1L3062.9-6065.2z"/>
	<path id="Path_2_3_" class="st7" d="M3822.5-6049.9c0.2,0,0.2,0,0.2-0.1C3822.6-6050,3822.5-6050,3822.5-6049.9z M3822.4-6049.9
		h-1.4C3821.5-6049.8,3822-6049.8,3822.4-6049.9z M3062.9-6065.2c0.5,0.1,0.9,0.2,1.4,0.1L3062.9-6065.2z"/>
	<path id="Path_3_3_" class="st7" d="M3869.3-8161c5.7,9.4,9.9,19.2,9.5,30.4c-0.4,6.6-0.4,13.3,0.1,19.9c1,11.1,2.8,22.1,3.9,33.2
		c0.6,7.1,1.4,14.2,1,21.3c-0.4,5.3-0.5,10.7-0.5,15.9c10.5-18.1,21.3-36.1,21.7-55C3905.6-8119.3,3887.5-8139.9,3869.3-8161
		L3869.3-8161z M3849.6-7661.5c0.5-16.8,1-33.3,1.5-49.2c1.9-54.8,3.9-104.7,6.2-147.7c-7.6,4-16.6,7.1-27,8.9
		c-9,1.4-18.3,1.6-26.8,4.9c-12,4.5-21.2,14.5-32,21.3c-18.7,11.8-41.6,13.8-63.5,15.5c-31.3,2.4-59.9,6.8-88.7,8.2
		c6.2,36.1,12,74.9,17.3,115.9c12.2,94.9,21.8,201.5,29.2,312.1 M4168.6-8291.7c-11,33.5-31,63.1-61.2,84.1
		c-9.9,6.9-70.7,38.6-71.1,6.5c-0.5-34.1,0.3-68.2,0.9-102.3c0.3-16.8,0.6-33.7,0.8-50.5c0.2-17.5,1.4-35.5-2.2-52.6
		c14.1-3.3,29.8-0.9,43.3,3.7c10.9,3.7,21.4,9.8,33.2,9.8c7.1,0,64.8-16.6,65.9-2.2C4181.2-8360.8,4179.5-8324.7,4168.6-8291.7z
		 M3751.7-8428.3c27-12.7,20.8,12.1,21.2,20.5c0.7,19.6-11.2,35.5-16.7,54.4c-1.5,5.2-3.2,10.2-4.8,15.3
		c-7.1,21.2-14.2,41.2-11.5,63.8c3.5,29.3,16.6,58.1,34.1,85.9c10.7,16.8,23,34.3,29,51.7c3.2,9.2,4.6,18.4,3.1,27.5
		c-0.8,5-2.5,9.9-5,14.3c-5.5,10.2-15.5,19.5-25.2,28.8c-9,8.5-18.2,17-30.1,24.3c-2,1.2-4.1,2.4-6.2,3.4
		c-5.7,2.8-12.2,5.1-19.7,5.8c-18.7,1.8-35.6-6.7-44.9-15.7c-18.8-18.6-18.8-40.9-26.6-61.8c-5.5-14.7-15.1-28.9-21.9-43.4
		c-12.8-27.4-15.9-56.1-9.1-84.2c5-20.6,17.1-40.6,18-61.5c0.9-21-7.1-42.7-11.3-63.6c-1.4-7.2-2.6-15.2,4.7-21.3
		c6.4-5.3,17.8-8,28.3-10.7c6.2-1.5,12.2-3.2,18.2-4.9C3702.5-8407.7,3728.2-8417.3,3751.7-8428.3L3751.7-8428.3z M3310.4-8320.2
		c10.4-10.7,31.2-14.5,18.5-29.4c-2.8-3.3-7.3-6.4-6.9-10c0.6-5,10.2-7.9,17.9-10.6c13.7-4.8,24.9-11.7,32-19.5
		c4.3-4.8,9.3-10.9,19.2-11.2c6.8-0.2,12.8,2.8,15.3,6.3c11.3,16.4,3.3,38.5,7.1,55.9c3.3,15.6,16.1,30,30.8,43.2
		c30,27.1,74,50.7,94.7,80.7c24.8,35.8,12.9,75.6,0.8,113.3c-1.2,4-5.1,6.6-9.2,6.2c-1.9-0.3-3.6-0.9-5.2-1.9
		c-42.7-24.3-61-54.4-78.6-85.9c-21.5-38.2-59.5-72.1-99.2-105.5c-3-2.5-6.2-4.9-9.5-7.2c-8-6-16.2-11.6-24.9-17.3
		c-1.6-1.1-3.4-2.3-3.9-3.7C3308.8-8317.9,3309.2-8319.1,3310.4-8320.2L3310.4-8320.2z M3485.6-8305.9
		c-12.3-9.3-17.6-20.8-22.5-31.9l-15.3-33.8c-1.8-3.5-12.6-9-10.2-13.1c1-1.6,2.5-2.9,4.3-3.6c8.1-3.3,22.8,1.4,31.5,2.2
		c10.3,0.8,25.1-1.9,34-4.6c15.5-4.7,30.8-12.5,42.9-19.5c25.3-14.8,43.2,49.5,41.4,58.7c-4.3,21.8-15,43.6-21.9,65.2
		c-0.5,1.7-1.2,3.5-3.4,4.8c-2.1,1.2-5.2,1.5-8.1,1.7C3530.7-8278.2,3500.5-8294.6,3485.6-8305.9z M3091-8113.3
		c-4.9-5.1-6.9-10.6-8-16.2c-0.2-0.9-0.5-1.8-1.1-2.7c-1.2-2.3-2.4-4.6-3.7-6.9c-2-3.4-4-7-6.2-10.4c-1.4-2.3-3.2-4.4-4.6-6.8
		c-0.4-0.8-0.6-1.7-0.6-2.7c-0.4-1.7,0.1-3.6-1.1-5.1c-4.9-6.2-5.6-12.9-8.9-19.3c-1.4-2.9-1.9-5.9-2.9-8.8c-0.2-0.7-0.5-1.4-0.8-2
		c-3.6-5.5-6.1-11.7-7.1-18.2c-1.2-7.8-3.5-15.6-5.2-23.2c-0.7-3.1-0.3-6.3-1.7-9.2c-3.2-6.5-3.5-13.3-6.2-19.9
		c-2.4-6-2.6-12.3-3.8-18.5c-0.9-4.6-1.9-9.1-2.7-13.8c-1-5.2-2.2-10.5-2.5-15.7c-0.4-6.5,0.3-13-0.5-19.5c-0.3-2.1-1.4-3.2-5.5-3.8
		c-4.5-0.7-9.1-1.6-11.9-4.2c-3.3-3.1-1.9-5.1,4.4-5.8c3.1-0.4,6.3-0.4,9.4-0.7c3.3-0.4,6.4-0.8,9.6-1.5c2.8-0.6,5.7-0.6,8.6,0
		c2.6,0.6,5.2,1,7.9,1.3c10.5,0.4,8.5,1.2,13-3.6c6.9-7.2,22-12.3,38.2-11.6c2.5,0.1,5.1,0.1,7.5-0.1c3.2-0.3,6.1-0.5,9.2,0.4
		c3,0.8,5.5-0.1,7.9-1.3c4.9-2.5,9.9-5,15.1-7.3c4.6-2,11.7-1.8,16.3,0.2c5.5,2.4,10.8,4.7,14.7,8c3.5,2.8,6.3,6.3,8.3,10.4
		c1.2,2.4,2.4,4.5,7,5.8c1.4,0.5,2.6,1.6,3.1,3.2c1.6,6.1,3.1,12,4.4,18.1c0.7,3.5,1.7,7,1.5,10.6c-0.2,2.9,1.7,6.1,2,9.1
		c0.5,6.2,1.4,12.4,2.3,18.6c0.3,2.1,1,4.1,1.4,6.2c1.1,4.9,3.3,9.9,3,14.7c-0.3,5.2,3.5,9.9,3.3,14.8c0,1.2,0.3,2.3,0.3,3.4
		c-0.2,5.2-0.5,10.3-0.7,15.5c0,0.4-0.2,0.7,0,1c3.6,5.6,1.5,11.4,0.9,17c-0.5,4.6-0.9,9.1,0.6,13.8c1.4,4.5,3.3,9,1.8,13.7
		c-0.5,1.6,0.8,3.3,1.1,5.1c0.9,6.1,1.8,12.1,2.4,18.3c-0.1,1.2-0.8,2.7-1.4,4.2c-3.1,7.1-6.2,14.1-9.4,21.2
		c-2.4,5.1-5.2,10.1-7.6,15.3c-1,2-1.7,4.2-2.2,6.4c-0.9,4.6-2.7,8.9-5.4,12.8c-1.1,1.5-1.1,3.3-1.9,5.1c-3,5.6-5.3,11.4-9.5,16.7
		c-2.6,3.3-7.2,6.6-12.4,9c-6.9,3.2-15,5.5-22.9,8c-10.5,3.3-21.9-0.5-21.8-8.4c-1-2.1-1.7-5.8-4.5-8.9c-4.8-5.3-8.1-10.8-9.2-16.6
		c-0.1-0.6-0.8-1.3-1.4-1.9c-2.1-2.5-4.3-5-6.2-7.5C3093.5-8109.7,3092.7-8111.6,3091-8113.3L3091-8113.3z M3672.8-6113.3l2.4,0.1
		C3674.4-6113.2,3673.6-6113.2,3672.8-6113.3z M3645-6194.2c-44.7,28.8-197.6,68.5-213.8,22.3c-17.1-54.4-95.3-1148.8-105.4-1227.3
		c-5.2-40.7-10.4-81-15.3-120.4c-14.7-118.4-27.7-230-37.6-325.6c-10.7-101.4-18-184.9-20.8-240.1c-3.4-68.7-23.6-158,20.3-223.7
		c53.2,37.8,93.1,81.3,117,127.1c12.3,23.6,20.6,48,42.2,69.6c23.4,23.2,60.7,41.1,94.3,60.2c35.2,20.1,63.3,98.3,85.7,211.1
		c2.6,13.3,5.2,27,7.7,41.2c6.2,36.1,12,74.9,17.3,115.9c12.2,94.9,21.8,201.5,29.2,312.1c3.6,53.6,14.6,925.2,15.9,971.6
		C3690.2-6283.4,3660.9-6198.5,3645-6194.2z M3983.8-6299.2c-4.3,36.4-134.3,122.2-140.8,83.9c-4-23.8-6-832.7-5.6-1061.8
		c0.1-74.5,0.5,986.3,1.1,903.7c0.5-57.3,1-749.7,1.7-808.2c2-168.9,5.1-337.8,9.3-479.8c0.5-16.8,1-33.3,1.5-49.2
		c1.9-54.8,3.9-104.7,6.2-147.7c4.9-92.4,10.7-153.9,17.5-166.8c12.8-24.5,32.7-48.4,29.2-78c-2.3-18.4-13.6-33.9-25.6-47.4
		c-23.1-26-41.3-54.8-62.7-81.9c-7.7-9.8-18.3-18.9-19.2-32.2c-1.9-27.6-0.9-56.6,1.8-84.7c2.1-21.9,4.9-46.7,23.7-61.1
		c11.7-8.9,17,1.5,26.7-0.3c11.5-2.2,17.6-5.2,27.4-11.6c13.3-8.7,37.5-2,47-10.5c4.3-3.8,5.9-8.5,12-11.4c10-4.9,27.1-1.8,34.7,4.3
		c7.6,6.1,8.4,13.8,8.8,21.2c0.2,3.2,0.4,6.2,0.5,9.4c3.6,80.5-2.2,161.2,10.1,241.5c8,51.9,23.3,103.9,18.5,155.8
		c0,0.5-0.1,5.6-0.1,14.8c-0.2,57.7-0.1,274.1,1.2,476.9c0.4,61.6,0.8,122,1.4,176.3C4010.9-7294.5,3986.1-6318.6,3983.8-6299.2z
		 M4299.3-6264.5c-81.9-22.5-137.3-39.3-137.5-43.3c-3.3-61.5-9-633-14.5-1048c-1.2-85.5-2.3-169.6-3.3-249
		c-3.4-251.2-6.6-453.9-8.8-493.9c-1-18.5-1.9-37.2,7.1-54.8c7.3-14.7,21.3-28.1,32.3-42.2c35.3-44.9,39.6-94,47.1-141.9
		c0.7-4.6,2.3-9.1,3.3-13.7c3.3-13.4,47.9-23.1,65-31.8c9-4.7,17.7-10,26-16v-439c-2-0.2-4-0.5-6-0.6c-16.6-1.5-33.1-3.4-49.6-5.2
		c-1.3-0.2-2.5-0.3-3.8-0.5c-0.6-0.1-1.3-0.1-1.9-0.1c-7.8,0.7-14.7-1.3-21.2-2.7c-8.2-1.8-16.6-2.8-25.1-2.8
		c-5.1,0-10.2,0.3-15.2-0.1c-2.9-0.4-5.8-0.2-8.6,0.4c-19.9,5-44.3,7.1-65.8,11.7c-6.2,1.3-12.4,1.7-18.6,1.3
		c-8.4-0.5-25.9,0.5-32.9-2c-8.7-3-5.4-9-14.4-12.6c-6.2-2.4-14-3.1-21.5-3.5c-37-2.4-75.9-2.5-112,3.1
		c-33,5.2-69.9,28.2-104.8,24.2c-6.3-0.7-13-0.5-19.5-1c-3.1-0.4-6.2-0.2-9.1,0.6c-2.2,0.5-4.4,0.8-6.7,0.7
		c-25-0.7-39.3,8-62.9,10.5c-0.9,0.2-1.8,0.5-2.6,0.9c-1.7,0.5-3.4,0.9-5.2,1.3c-3.5,0.7-7.2,1.3-10.8,2c-5.3,1.2-10.5,2.4-15.7,3.6
		c-47.6,10.7-93,21-129.4,41.6c-16.6,9.5-51,6.2-61.6,2.2c-10.5-4.1-24.6-3.9-37.4-3c-33.2,2.4-65.6,8.5-94.4,17.7
		c-7.8,2.5-15.7,5.3-24.7,5.6c-6,0.2-11.9-0.7-17.7-1.5c-60-8.1-126.8,0.8-173.2,23.1c-4.6,2.3-9.4,4.9-9.9,8.3
		c-0.4,2.4,1.7,4.8,2.8,7.2c6.2,13.8-19,25.1-41.1,32.7c-5.2,1.9-10.5,3.3-15.9,4.3c-3,0.4-6.1,0.5-9.1,0.6
		c-3.1,0.1-6.2,0.1-9.1,0.1c-47.8,0.1-99.3,13-127.9,34.3c-26.1,19.4,1.1,51.5-36.6,65.9c-15.9,6.1-35.9,9.9-46.9,18.6
		c-4.7,3.7-9.8,8.9-17.9,8.1c-4.1-0.4-7.2-2.2-11.3-2.7c-10.5-1.4-16.4,6-22,11c-13.7,12.1-44.6,15.1-61.2,26.1
		c-17.7,11.9-13.9,29-9.2,44c6.5,20.7,13.8,42.2,37.7,58.7c21.8,15,54.6,23.8,86.3,31.9c26.2,6.8,52.7,17.1,81.3,18.8
		c3.3,0.2,5.6,1.1,6.6,2.8c1.3,2.2,2.3,4.4,3.5,6.6c0.9,1.7,2.2,3.3,3.5,4.7c2.5,2.4,4.6,4.6,4.3,7.5c-0.1,0.9-0.1,1.8,0.2,2.7
		c23.4,91.6,23.2,186.7,95,272.8c12.5,14.9,26.9,29.5,37,44.9c2,3.1,6.1,74.6,10.9,187.8c0.4,8.5,0.7,17.3,1.1,26.2
		c3,73.4,6.3,161.8,9.5,258.9c4.7,141.8,9.3,936.5,12.9,1096.7c3.1,135.8,7.2,106.1,5.6,190.8c-0.1,3.1-0.1,6.2-0.2,9.3
		c-2.5,116.4-6.9,109.5-16.6,123.8c-7.1,10.3-120.1,135.3-108.8,161c15.6,1.2,44.7-4.3,116.6-32.3l0.9-0.4
		c102.6-39.8,241.9-52,354.6-31l90.6,16.9c111.5,20.8,249.1,9.1,351.4-29.8l40.9-15.6c102.6-39,240.6-50.6,352.2-29.6l11,2.1v-181.4
		C4310.5-6261.4,4304.8-6263,4299.3-6264.5z"/>
	<path id="Path_6_3_" class="st7" d="M3280.2-6199.4"/>
	<path id="Path_7_3_" class="st7" d="M3299.4-6207.1"/>
</g>
<linearGradient id="SVGID_10_" gradientUnits="userSpaceOnUse" x1="291.3428" y1="318.6174" x2="291.3428" y2="570.5963">
	<stop  offset="0" style="stop-color:#FFFFFF;stop-opacity:0"/>
	<stop  offset="0.325" style="stop-color:#D8EBEA;stop-opacity:0.325"/>
	<stop  offset="0.776" style="stop-color:#A6D2CE;stop-opacity:0.776"/>
	<stop  offset="0.9409" style="stop-color:#93C8C4"/>
</linearGradient>
<path class="st18" d="M622.3,462.9v297.4L505,759.3l-507.3-3.8l-35.3-0.3c-0.2-15.1-0.2-73.9-0.4-89l-1.6-234.6
	c10.3,6.8,21.3,11.8,32.6,15.1c0.1,0,0.2,0.1,0.3,0.1c32.8,9.4,68.6,4.5,98.2-14.6c2.3-1.4,4.4-3,6.6-4.6l0.4-0.2
	c0.4-0.2,0.7-0.5,0.9-0.7c39.6-29,92.2-31.1,133.9-5.2l29.3,18.1l4.6,2.8c41.6,25.8,94,23.8,133.8-5l16-11.5
	c39.8-28.8,92.2-30.7,133.9-4.8c0,0,0,0,0.2,0l34.5,21.5C597,449.9,609.5,454.9,622.3,462.9z"/>
<path class="st19" d="M496.9,596.5c-5.9,5.9-14.4,9.9-27.9,10.5c-51.2,1.8-92,101.2-114.4,103c-6,0.5-37.5-0.9-71.9-4.1
	c-37.1-3.2-77.8-8.2-94.7-14.2c-20.4-7.1-163.6-95.7-194.3-171.1c-0.1-0.2-0.1-0.4-0.2-0.5c-3.1-7.7-5-15.2-5.5-22.5l5.4,138.7
	l0.6,14.4l2.6,67.9l0.1,2.7l1,26.9v16.2l624.5-4.1V525C521.2,530.8,517.8,575.6,496.9,596.5z"/>
<path d="M645.1-3878.5"/>
<linearGradient id="SVGID_11_" gradientUnits="userSpaceOnUse" x1="3320.8484" y1="-2914.0906" x2="3320.8484" y2="-1620.6085" gradientTransform="matrix(0.9047 0 0 -0.9047 -205.5312 -3769.7917)">
	<stop  offset="0" style="stop-color:#FFFFFF;stop-opacity:0"/>
	<stop  offset="0.325" style="stop-color:#D8EBEA;stop-opacity:0.325"/>
	<stop  offset="0.776" style="stop-color:#A6D2CE;stop-opacity:0.776"/>
	<stop  offset="1" style="stop-color:#93C8C4"/>
</linearGradient>
<path class="st20" d="M3454.4-2289.7v1157.8l-266.5-4.4l-634.3-10.5l-361-6l-45.2-0.7l-3.2-598.2l-0.6-275.4
	c-0.1-47.9-0.2-97.9-0.3-149.1c0-11.8-0.1-23.5-0.1-35.4l14.1,4l119.4,33.7c28,7.9,58.4,12,89.7,12.6c6.2,0.1,12.3,0.1,18.5-0.1
	c58.7-1.6,118.5-15.7,167.4-41l0.7-0.4c12.2-6.3,25.2-11.9,38.5-16.9c71.1-26.1,156.4-31.8,227.6-14.1l67.9,16.9
	c4.8,1.2,9.6,2.3,14.5,3.3c80.9,16.1,176.9,3.7,249.3-33l30.7-15.6c68-34.5,156.8-47.5,234.3-35.6c10.2,1.5,20.3,3.6,30.1,6.1
	L3454.4-2289.7z"/>
<g class="st21">
	<g>
		<g>
			
				<linearGradient id="SVGID_12_" gradientUnits="userSpaceOnUse" x1="3880.6475" y1="360.1611" x2="3880.6475" y2="-3067.949" gradientTransform="matrix(0.9047 0 0 -0.9047 -205.5312 -3769.7917)">
				<stop  offset="0" style="stop-color:#FFFFFF;stop-opacity:0"/>
				<stop  offset="0.325" style="stop-color:#D8EBEA;stop-opacity:0.325"/>
				<stop  offset="0.776" style="stop-color:#A6D2CE;stop-opacity:0.776"/>
				<stop  offset="1" style="stop-color:#93C8C4"/>
			</linearGradient>
			<polygon class="st22" points="3968.2,-4138.8 3968.2,-2739.6 3865.1,-2397.8 3838.6,-2297.9 3760,-2000.6 3701.2,-1778.7 
				3619.9,-1471.2 3619.9,-1471.1 3534.8,-1136.4 3508.8,-1051.2 2642.3,-1051.2 2689.8,-1146.9 2727.7,-1245.6 2779.5,-1363.3 
				2914.4,-1670 2941.5,-1731.8 3038.4,-1952 3081.4,-2049.6 3153.5,-2213.7 3201.2,-2322 3247.4,-2427.1 3276.1,-2492.6 
				3352.1,-2665.3 3417.2,-2813.5 3483.4,-2964.2 3609.6,-3251.3 3632.9,-3304.3 3745.8,-3560.7 3758.8,-3590.4 3888.9,-3886.2 			
				"/>
		</g>
	</g>
</g>
<image style="overflow:visible;enable-background:new    ;" width="3103" height="3103" xlink:href="nessy.png"  transform="matrix(7.108217e-02 0 0 7.108217e-02 3059.5273 -2128.092)">
</image>
<g class="st4">
	<g>
		<g>
			
				<linearGradient id="SVGID_13_" gradientUnits="userSpaceOnUse" x1="3583.9744" y1="1399.4032" x2="3583.9744" y2="-3087.4287" gradientTransform="matrix(0.9047 0 0 -0.9047 -205.5312 -3769.7917)">
				<stop  offset="0" style="stop-color:#FFFFFF;stop-opacity:0"/>
				<stop  offset="0.325" style="stop-color:#D8EBEA;stop-opacity:0.325"/>
				<stop  offset="0.776" style="stop-color:#A6D2CE;stop-opacity:0.776"/>
				<stop  offset="1" style="stop-color:#93C8C4"/>
			</linearGradient>
			<path class="st23" d="M3930.6-5092.3v511.4l-0.4,0.7l-213.5,423.7l-43.3,86.2l-199,394.9l-231.9,459.7l-32,63.5l-242.3,480.6
				l-135.6,268.9l-77.9,154.9l-14.2,28.2l-62,123l-68.1,135l-37.8,74.8l-61.6,122.1l-19.3,38.2l-19.7,39.1l-263.1,534.6l-43,85.2
				l-14.7,16.4h-1.6c-0.3-38.4-0.6-64-1-102.4c-0.1-14.7-0.3-29.6-0.4-44.3c-1-131.7-2.1-276.1-3.2-407.8
				c-0.3-28-0.5-79.1-0.7-146.1l-0.8-275.4c-0.1-47.9-0.3-97.9-0.4-149.1l14.3-23.9l4.4-7.4l150.9-253l129-216.1l23.2-39
				l192.2-322.5l191-320.2l39.6-66.4l189.1-317.4l94.3-157.5l57-95.6l4-6.9l199.7-334.9l416-697.6l33.1-55.5L3930.6-5092.3z"/>
		</g>
	</g>
</g>
<linearGradient id="SVGID_14_" gradientUnits="userSpaceOnUse" x1="3321.1248" y1="-3024.9622" x2="3321.1248" y2="-1942.077" gradientTransform="matrix(0.9047 0 0 -0.9047 -205.5312 -3769.7917)">
	<stop  offset="0" style="stop-color:#FFFFFF;stop-opacity:0"/>
	<stop  offset="0.325" style="stop-color:#D8EBEA;stop-opacity:0.325"/>
	<stop  offset="0.776" style="stop-color:#A6D2CE;stop-opacity:0.776"/>
	<stop  offset="1" style="stop-color:#93C8C4"/>
</linearGradient>
<path class="st24" d="M3454.4-2028.5v990l-1306.2-12.7c-0.2-38.4-0.5-64-0.7-102.4l-3.2-598.2l-0.6-275.4
	c73.6-33.9,162-31.7,234.1,8.1l13.6,7.5l53.4,29.4c15.7,8.7,32.2,15.6,49.1,20.6c71.8,21.7,151.9,11.7,215.5-29.3l31.5-20.3
	c32.4-20.8,69-33.7,106.7-38.4c54-6.8,110.1,3.1,158.7,30l68.4,37.9c81.3,45.1,183.6,42.6,262.2-6.3l20.2-12.6l10.9-6.8
	C3394.6-2024,3424-2035.3,3454.4-2028.5z"/>
<linearGradient id="SVGID_15_" gradientUnits="userSpaceOnUse" x1="3321.4563" y1="-3224.3" x2="3321.4563" y2="-2611.1775" gradientTransform="matrix(0.9047 0 0 -0.9047 -205.5312 -3769.7917)">
	<stop  offset="0" style="stop-color:#FFFFFF;stop-opacity:0"/>
	<stop  offset="0.325" style="stop-color:#D8EBEA;stop-opacity:0.325"/>
	<stop  offset="0.776" style="stop-color:#A6D2CE;stop-opacity:0.776"/>
	<stop  offset="0.9409" style="stop-color:#93C8C4"/>
</linearGradient>
<path class="st25" d="M3454.4-1672.1v633.6l-1306.2-12.7c-0.2-38.4-0.5-64-0.7-102.4l-3.2-598.2c79.3,67.1,180.3,67.1,259.5,1.3
	c4.5-3.7,8.9-7.6,13.1-11.8l0.7-0.6c0.6-0.5,1.3-1.2,1.8-1.7c78.6-73.8,182.6-79.2,265.3-13.2l57.9,46.1l9.1,7.2
	c82.4,65.7,186,60.7,264.6-12.6l31.5-29.3c78.8-73.5,182.6-78.3,265.1-12.2c0.1,0.1,0.2,0.1,0.2,0.2l68.4,54.8
	C3404.4-1705.2,3429-1692.3,3454.4-1672.1z"/>
<path class="st19" d="M3301.4-1621c-12,12-28.6,20.1-56,21c-102.6,3.6-184.5,203-229.2,206.6c-12.2,1-75.1-2.1-144.2-8.1
	c-74.4-6.4-156-16.3-189.9-28.2c-45.1-15.7-64-288.4-74.6-446.7c-0.5-8-1.1-15.9-1.6-24.1c-5.2-78.9-54.5-2077.6-21.9-2184.9
	c45.3-145.8,262.2-85.2,283.1-149.8c35.5-34.4,163.6-256.9,208.5-285.7c21.4-26.3,49.6-45.8,74.6-68.4c5.7-5.2,11.2-10.5,16.5-16.1
	c36-38.2,57.8-87.8,79.1-136.2c21-1.6,42,1.4,63,4.6c28.4,4.3,25-8,52.7-14c14.8-3.3,12-34.5,14.1-35.4
	c11.1-34.4,49.5-27.5,51.5-77.8c-2-64.6-13.8-25.4-25.2-81.8c-0.9-4.3-12.7-22.3-30-39.6c17.1-55.8-37.1-78.9-18.4-90.6
	c-28.9-85.9-71.7-57.8-88.2-89.1c-37.6-71.5-77.3-36-99.9-47.9c-41.8-22.1-51.2-58.5-98.4-72.6c-43.1-12.8-65.3,7.1-109.3-3.7
	c-29.6-7.3-85.8-43.7-116.2-41.9c-28.8,1.7-5.2-10.9-33.4-8.5c-70.3,5.8-103.9-72.3-171.4-33.3c-22.2,12.9-60.7,12-97.4,8.6
	c-36.7-3.3-55,9.7-78.3,25.8c-35.4,24.5-38.4,59.3-83.4,61.2c-52.8,2.3-174.3-27.2-116.8,169.2l-12.8,210.2
	c44.4,66.9-47-6.5-47.5,48.3c-1.1,138.3,36.2,312.8,36.9,400.7c1.6,206.4,17.9,1183.7,19.6,1390c0.8,103.9,1.6,527.2,2.5,902.7
	c0,11.9,0.1,23.6,0.1,35.4c0.1,51.1,0.3,101.1,0.4,149.1l0.2,70.3c0.3,67,0.5,118.1,0.7,146.1c1.1,131.7,2.2,263.4,3.2,395.2
	c0.1,14.8,0.3,29.6,0.4,44.3c0.4,38.4,0.6,89.4,1,127.7h1305.8v-577.2C3329.3-1763.9,3345.8-1665.2,3301.4-1621z M2990.3-4707.5
	c14.6-23.3,88.7-14.2,115.3-19.2c13.3-2.5,89.3-43.3,87.5-15.8c-1.7,26.5-13.8,56-29.2,77.4c-27,37.3-76.9,42.4-112.8,82.4
	c-1.6,0.3-55.9,57.4-56.9,53.9c-3.3-11.7-12.2-121.6-13.1-134C2979.8-4678.3,2981.8-4693.8,2990.3-4707.5z M2502.7-4422.7
	c-46.8-61.3-50.6-203.9,26.6-342.2c23.2-41.5,53.6-68.6,86.7-85.8c36.4-18.9,68.5,19.1,105.7,17.6c60.8-2.4,23.2,51.5,39.8,56.9
	c8.4,20.1,18.6,35.6,23.7,40.2c9.7,8.8,22.4,13,34.7,17c2.3,0.7,4.5,1.6,6.6,2.5c49.6,21.9,29.4,95.5,71.4,56.8
	c16.5,28,27.7,62.5,25.8,95.4c-1.7,28,6.6,52-2.6,78.3c-7.5,21.5-130,96.7-152.3,112.1c-1.6,1.2-3.3,2.2-4.8,3.1
	c0.5,0.4,1.2,0.7,1.7,1.1c0,0-0.7,1-1.1,1.4c-0.7-0.5-1.4-1.1-2-1.6l-0.1-0.1C2732.9-4353.5,2581.9-4325.7,2502.7-4422.7z"/>
<path d="M2673.5-4432.6"/>
<image style="overflow:visible;enable-background:new    ;" width="1536" height="2048" xlink:href="fairy-sit.png"  transform="matrix(0.1325 0 0 0.1325 2523.5352 -4551.9351)">
</image>
<image style="overflow:visible;enable-background:new    ;" width="2339" height="2113" xlink:href="rock_monster.png"  transform="matrix(0.1982 1.457969e-02 -1.457969e-02 0.1982 2495.3833 -1767.1624)">
</image>
<image style="overflow:visible;enable-background:new    ;" width="3103" height="3103" xlink:href="mer-skull.png"  transform="matrix(0.1033 0 0 0.1033 3014.554 -1752.3132)">
</image>
<linearGradient id="SVGID_16_" gradientUnits="userSpaceOnUse" x1="5945.6963" y1="-2994.4626" x2="5945.6963" y2="-1700.9806" gradientTransform="matrix(0.9047 0 0 -0.9047 -205.5312 -3769.7917)">
	<stop  offset="0" style="stop-color:#FFFFFF;stop-opacity:0"/>
	<stop  offset="0.325" style="stop-color:#D8EBEA;stop-opacity:0.325"/>
	<stop  offset="0.776" style="stop-color:#A6D2CE;stop-opacity:0.776"/>
	<stop  offset="1" style="stop-color:#93C8C4"/>
</linearGradient>
<path class="st26" d="M6046.8-2217v1157.8l-355-4.4l-844.9-10.5l-480.9-6l-60.2-0.7l-4.3-598.2l-0.8-275.4
	c-0.1-47.9-0.3-97.9-0.4-149.1c0-11.8-0.1-23.5-0.1-35.4l18.8,4l159.1,33.7c37.3,7.9,77.9,12,119.4,12.6c8.1,0.1,16.4,0.1,24.6-0.1
	c78.2-1.6,157.9-15.7,222.9-41l0.9-0.4c16.3-6.3,33.6-11.9,51.4-16.9c94.7-26.1,208.3-31.8,303.1-14.1l90.6,16.9
	c6.3,1.2,12.8,2.3,19.3,3.3c107.7,16.1,235.6,3.7,332.1-33l40.9-15.6c90.6-34.5,208.9-47.5,312.1-35.6c13.7,1.5,27,3.6,40.1,6.1
	L6046.8-2217z"/>
<g class="st21">
	<g>
		<g>
			
				<linearGradient id="SVGID_17_" gradientUnits="userSpaceOnUse" x1="6264.9185" y1="279.789" x2="6264.9185" y2="-3148.321" gradientTransform="matrix(0.9047 0 0 -0.9047 -205.5312 -3769.7917)">
				<stop  offset="0" style="stop-color:#FFFFFF;stop-opacity:0"/>
				<stop  offset="0.325" style="stop-color:#D8EBEA;stop-opacity:0.325"/>
				<stop  offset="0.776" style="stop-color:#A6D2CE;stop-opacity:0.776"/>
				<stop  offset="1" style="stop-color:#93C8C4"/>
			</linearGradient>
			<polygon class="st27" points="6125.3,-4066.1 6125.3,-2666.9 6022.1,-2325.1 5995.6,-2225.1 5917,-1927.9 5858.3,-1706 
				5777,-1398.5 5777,-1398.4 5691.8,-1063.7 5665.9,-978.4 4799.3,-978.4 4846.9,-1074.1 4884.8,-1172.8 4936.6,-1290.5 
				5071.4,-1597.3 5098.6,-1659.1 5195.5,-1879.3 5238.4,-1976.9 5310.5,-2140.9 5358.2,-2249.3 5404.4,-2354.4 5433.2,-2419.9 
				5509.2,-2592.6 5574.2,-2740.8 5640.5,-2891.5 5766.7,-3178.6 5790,-3231.6 5902.8,-3487.9 5915.8,-3517.6 6045.9,-3813.4 			"/>
		</g>
	</g>
</g>
<image style="overflow:visible;enable-background:new    ;" width="3103" height="3103" xlink:href="nessy.png"  transform="matrix(9.933096e-02 0 0 9.933096e-02 5455.5879 -2079.7937)">
</image>
<g class="st4">
	<g>
		<g>
			
				<linearGradient id="SVGID_18_" gradientUnits="userSpaceOnUse" x1="5968.2456" y1="1319.0311" x2="5968.2456" y2="-3167.8008" gradientTransform="matrix(0.9047 0 0 -0.9047 -205.5312 -3769.7917)">
				<stop  offset="0" style="stop-color:#FFFFFF;stop-opacity:0"/>
				<stop  offset="0.325" style="stop-color:#D8EBEA;stop-opacity:0.325"/>
				<stop  offset="0.776" style="stop-color:#A6D2CE;stop-opacity:0.776"/>
				<stop  offset="1" style="stop-color:#93C8C4"/>
			</linearGradient>
			<path class="st28" d="M6087.6-5019.6v511.4l-0.4,0.7l-213.5,423.7l-43.3,86.2l-199,394.9L5399.5-3143l-32,63.5l-242.3,480.6
				l-135.5,269l-77.9,154.8l-14.2,28.2l-62,123l-68.1,135l-37.8,74.8l-61.6,122.1l-19.3,38.2l-19.7,39.1L4366-1080.1l-43,85.2
				l-14.7,16.4h-1.6c-0.3-38.4-0.6-64-1-102.4c-0.1-14.7-0.3-29.6-0.4-44.3c-1-131.7-2.1-276.1-3.2-407.8
				c-0.3-28-0.5-79.1-0.7-146.1l-0.8-275.4c-0.1-47.9-0.3-97.9-0.4-149.1l14.3-23.9l4.4-7.4l150.9-253l128.8-215.9l23.2-39
				l192.2-322.5l191-320.2l39.6-66.4l189.1-317.4l94.3-157.5l57-95.6l4-6.9l199.7-334.9l416-697.6l33.1-55.5L6087.6-5019.6z"/>
		</g>
	</g>
</g>
<linearGradient id="SVGID_19_" gradientUnits="userSpaceOnUse" x1="5945.9727" y1="-3105.3342" x2="5945.9727" y2="-2022.4486" gradientTransform="matrix(0.9047 0 0 -0.9047 -205.5312 -3769.7917)">
	<stop  offset="0" style="stop-color:#FFFFFF;stop-opacity:0"/>
	<stop  offset="0.325" style="stop-color:#D8EBEA;stop-opacity:0.325"/>
	<stop  offset="0.776" style="stop-color:#A6D2CE;stop-opacity:0.776"/>
	<stop  offset="1" style="stop-color:#93C8C4"/>
</linearGradient>
<path class="st29" d="M6046.8-1955.7v990l-1740-12.7c-0.3-38.4-0.6-64-1-102.4l-4.3-598.2l-0.8-275.4
	c98.1-33.9,215.9-31.7,311.9,8.1l18.1,7.5l71.1,29.4c20.9,8.7,42.9,15.6,65.5,20.6c95.7,21.7,202.3,11.7,287-29.3l41.9-20.3
	c43.2-20.8,91.9-33.7,142-38.4c71.9-6.8,146.6,3.1,211.4,30l91.1,37.9c108.3,45.1,244.6,42.6,349.3-6.3l26.9-12.6l14.5-6.8
	C5967.1-1951.3,6006.4-1962.5,6046.8-1955.7z"/>
<linearGradient id="SVGID_20_" gradientUnits="userSpaceOnUse" x1="5946.415" y1="-3304.6721" x2="5946.415" y2="-2691.5496" gradientTransform="matrix(0.9047 0 0 -0.9047 -205.5312 -3769.7917)">
	<stop  offset="0" style="stop-color:#FFFFFF;stop-opacity:0"/>
	<stop  offset="0.325" style="stop-color:#D8EBEA;stop-opacity:0.325"/>
	<stop  offset="0.776" style="stop-color:#A6D2CE;stop-opacity:0.776"/>
	<stop  offset="0.9409" style="stop-color:#93C8C4"/>
</linearGradient>
<path class="st30" d="M6046.8-1599.4v633.6l-1740-12.7c-0.3-38.4-0.6-64-1-102.4l-4.3-598.2c105.7,67.1,240.2,67.1,345.7,1.3
	c6-3.7,11.8-7.6,17.5-11.8l0.9-0.6c0.8-0.5,1.6-1.2,2.4-1.7c104.8-73.8,243.4-79.2,353.4-13.2l77.1,46.1l12.1,7.2
	c109.7,65.7,247.8,60.7,352.5-12.6l41.9-29.3c104.9-73.5,243.4-78.3,353.1-12.2c0.1,0.1,0.2,0.1,0.3,0.2l91.1,54.8
	C5980.2-1632.5,6013.1-1619.6,6046.8-1599.4z"/>
<path class="st19" d="M5776.3-1548.3c-12,12-28.6,20.1-56,21c-102.6,3.6-184.5,203-229.2,206.6c-12.2,1-75.1-2.1-144.2-8.1
	c-74.4-6.4-156-16.3-189.9-28.2c-45.1-15.7-137.9-64.7-190-78.5c-4.3-1.2-15.7-2.9-31.1-5c-52.7-7.1-151.5-18.2-166.5-21.6
	c-18.5-4.3-60.8-12.8-98.9-24.2c-3.2-42.2-11.9-159-22.4-317.4c-0.5-8-1.1-15.9-1.6-24.1c-5.2-78.9-59.1-1753.7-26.5-1861
	c45.4-145.9,334.9-111,355.9-175.6c35.5-34.4,163.6-256.9,208.5-285.7c21.4-26.3,49.6-45.8,74.6-68.4c5.7-5.2,11.2-10.5,16.5-16.1
	c36-38.2,57.8-87.8,79.1-136.2c21-1.6,42,1.4,63,4.6c28.4,4.3,25-8,52.7-14c14.8-3.3,12-34.5,14.1-35.4
	c11.1-34.4,49.5-27.5,51.5-77.8c-2-64.6-13.8-25.4-25.2-81.8c-0.9-4.3-12.7-22.3-30-39.6c17.1-55.8-37.1-78.9-18.3-90.6
	c-28.9-85.9-71.7-57.8-88.2-89.1c-37.6-71.5-77.3-36-99.9-47.9c-41.8-22.1-51.2-58.5-98.4-72.6c-43.1-12.8-65.3,7.1-109.3-3.7
	c-29.6-7.3-85.8-43.7-116.2-41.9c-28.8,1.7-77.8,14.9-105.9,17.3c-70.3,5.8-103.9-72.3-171.4-33.3c-22.2,12.8-60.6,11.9-97.3,8.5
	c-36.7-3.3-55,9.7-78.3,25.8c-35.4,24.5-38.4,59.3-83.4,61.2c-52.8,2.4-174.3-27.1-116.8,169.3l-12.8,210.2
	c44.4,66.9-47-6.5-47.5,48.3c-1.1,138.3,36.2,312.8,36.9,400.7c1.6,206.4,22.5,859.8,24.2,1066.1c0.8,103.9,1.6,527.2,2.5,902.7
	c0,11.9,0.1,23.6,0.1,35.4c0.1,51.1,0.3,101.1,0.4,149.1l0.2,70.3c0.3,67,0.5,118.1,0.7,146.1c1.1,131.7,2.2,263.4,3.2,395.2
	c0.1,14.8,0.3,29.6,0.4,44.3c0.4,38.4,0.6,89.4,1,127.7h1740v-577.2C5804.3-1691.1,5820.8-1592.5,5776.3-1548.3z M5099-4336.5
	c14.6-23.3,88.7-14.2,115.3-19.2c13.3-2.5,89.3-43.3,87.5-15.8c-1.7,26.5-13.8,56-29.2,77.4c-27,37.3-76.9,42.4-112.8,82.4
	c-1.6,0.3-55.9,57.4-56.9,53.9c-3.3-11.7-12.2-121.6-13.1-134C5088.5-4307.4,5090.5-4322.9,5099-4336.5z M4538.9-4026
	c-46.8-61.3-50.6-203.9,26.6-342.2c23.2-41.5,53.6-68.6,86.7-85.8c36.4-18.9,68.5,19.1,105.7,17.6c60.8-2.4,95.9,25.8,112.4,31.2
	c8.4,20.1,18.6,35.6,23.7,40.2c9.7,8.8,22.4,13,34.7,17c2.3,0.7,4.5,1.6,6.6,2.5c49.6,21.9,29.4,95.5,71.4,56.8
	c16.5,28,27.7,62.5,25.8,95.4c-1.7,28,6.6,52-2.6,78.3c-7.5,21.5-130,96.7-152.3,112.1c-1.6,1.2-3.3,2.2-4.8,3.1
	c0.5,0.4,1.2,0.7,1.7,1.1c0,0-0.7,1-1.1,1.4c-0.7-0.5-1.4-1.1-2-1.6l-0.1-0.1C4841.7-3982.5,4618-3929.1,4538.9-4026z"/>
<path d="M4825.9-4036"/>
<image style="overflow:visible;enable-background:new    ;" width="1536" height="2048" xlink:href="fairy-sit.png"  transform="matrix(0.1495 0 0 0.1495 4608.0303 -4189.1895)">
</image>
<image style="overflow:visible;enable-background:new    ;" width="2339" height="2113" xlink:href="rock_monster.png"  transform="matrix(0.2175 1.599462e-02 -1.599462e-02 0.2175 4626.4033 -1817.3342)">
</image>
<image style="overflow:visible;enable-background:new    ;" width="3103" height="3103" xlink:href="mer-skull.png"  transform="matrix(0.1217 0 0 0.1217 5473.7822 -1700.8406)">
</image>
<g>
	<g id="Layer_2_3_" transform="translate(-65.911)">
		<path id="Path_1_2_" class="st7" d="M7566.7-2031.5c0.2,0,0.2,0,0.2-0.1C7566.8-2031.5,7566.7-2031.5,7566.7-2031.5z
			 M7566.6-2031.5h-1.4C7565.7-2031.4,7566.1-2031.4,7566.6-2031.5z M6807.1-2046.7c0.5,0.1,0.9,0.2,1.4,0.1L6807.1-2046.7z"/>
		<path id="Path_2_2_" class="st7" d="M7566.7-2031.5c0.2,0,0.2,0,0.2-0.1C7566.8-2031.5,7566.7-2031.5,7566.7-2031.5z
			 M7566.6-2031.5h-1.4C7565.7-2031.4,7566.1-2031.4,7566.6-2031.5z M6807.1-2046.7c0.5,0.1,0.9,0.2,1.4,0.1L6807.1-2046.7z"/>
		<path id="Path_3_2_" class="st7" d="M7613.5-4142.6c5.7,9.4,9.9,19.2,9.5,30.4c-0.4,6.6-0.4,13.3,0.1,19.9
			c1,11.1,2.8,22.1,3.9,33.2c0.6,7.1,1.4,14.2,1,21.3c-0.4,5.3-0.5,10.7-0.5,15.9c10.5-18.1,21.3-36.1,21.7-55
			C7649.7-4100.8,7631.6-4121.5,7613.5-4142.6L7613.5-4142.6z M7547.7-3826.2c-12,4.5-21.2,14.5-32,21.3
			c-18.7,11.8-41.6,13.8-63.5,15.5c-31.3,2.4-59.9,6.8-88.7,8.2c6.2,36.1,12,74.9,17.3,115.9c12.2,94.9,21.8,201.5,29.2,312.1
			l163.7-299.5c7,2.5,13.7,5.8,20.1,9.7c0.5-16.8,1-33.3,1.5-49.2c1.9-54.8,3.9-104.7,6.2-147.7c-7.6,4-16.6,7.1-27,8.9
			C7565.5-3829.6,7556.2-3829.5,7547.7-3826.2z M7912.8-4273.3c-11,33.5-31,63.1-61.2,84.1c-9.9,6.9-70.7,38.6-71.1,6.5
			c-0.5-34.1,0.3-68.2,0.9-102.3c0.3-16.8,0.6-33.7,0.8-50.5c0.2-17.5,1.4-35.5-2.2-52.6c14.1-3.3,29.8-0.9,43.3,3.7
			c10.9,3.7,21.4,9.8,33.2,9.8c7.1,0,64.8-16.6,65.9-2.2C7925.4-4342.3,7923.7-4306.2,7912.8-4273.3z M7495.9-4409.8
			c27-12.7,20.8,12.1,21.2,20.5c0.7,19.6-11.2,35.5-16.7,54.4c-1.5,5.2-3.2,10.2-4.8,15.3c-7.1,21.2-14.2,41.2-11.5,63.8
			c3.5,29.3,16.6,58.1,34.1,85.9c10.7,16.8,23,34.3,29,51.7c3.2,9.2,4.6,18.4,3.1,27.5c-0.8,5-2.5,9.9-5,14.3
			c-5.5,10.2-15.5,19.5-25.2,28.8c-9,8.5-18.2,17-30.1,24.3c-2,1.2-4.1,2.4-6.2,3.4c-5.7,2.8-12.2,5.1-19.7,5.8
			c-18.7,1.8-35.6-6.7-44.9-15.7c-18.8-18.6-18.8-40.9-26.6-61.8c-5.5-14.7-15.1-28.9-21.9-43.4c-12.8-27.4-15.9-56.1-9.1-84.2
			c5-20.6,17.1-40.6,18-61.5c0.9-21-7.1-42.7-11.3-63.6c-1.4-7.2-2.6-15.2,4.7-21.3c6.4-5.3,17.8-8,28.3-10.7
			c6.2-1.5,12.2-3.2,18.2-4.9C7446.6-4389.3,7472.4-4398.8,7495.9-4409.8L7495.9-4409.8z M7054.6-4301.8
			c10.4-10.7,31.2-14.5,18.5-29.4c-2.8-3.3-7.3-6.4-6.9-10c0.6-5,10.2-7.9,17.9-10.6c13.7-4.8,24.9-11.7,32-19.5
			c4.3-4.8,9.3-10.9,19.2-11.2c6.8-0.2,12.8,2.8,15.3,6.3c11.3,16.4,3.3,38.5,7.1,55.9c3.3,15.6,16.1,30,30.8,43.2
			c30,27.1,74,50.7,94.7,80.7c24.8,35.8,12.9,75.6,0.8,113.3c-1.2,4-5.1,6.6-9.2,6.2c-1.9-0.3-3.6-0.9-5.2-1.9
			c-42.7-24.3-61-54.4-78.6-85.9c-21.5-38.2-59.5-72.1-99.2-105.5c-3-2.5-6.2-4.9-9.5-7.2c-8-6-16.2-11.6-24.9-17.3
			c-1.6-1.1-3.4-2.3-3.9-3.7C7052.9-4299.4,7053.4-4300.6,7054.6-4301.8L7054.6-4301.8z M7229.8-4287.5
			c-12.3-9.3-17.6-20.8-22.5-31.9l-15.3-33.8c-1.8-3.5-12.6-9-10.2-13.1c1-1.6,2.5-2.9,4.3-3.6c8.1-3.3,22.8,1.4,31.5,2.2
			c10.3,0.8,25.1-1.9,34-4.6c15.5-4.7,30.8-12.5,42.9-19.5c25.3-14.8,43.2,49.5,41.4,58.7c-4.3,21.8-15,43.6-21.9,65.2
			c-0.5,1.7-1.2,3.5-3.4,4.8c-2.1,1.2-5.2,1.5-8.1,1.7C7274.9-4259.7,7244.7-4276.2,7229.8-4287.5z M6835.2-4094.9
			c-4.9-5.1-6.9-10.6-8-16.2c-0.2-0.9-0.5-1.8-1.1-2.7c-1.2-2.3-2.4-4.6-3.7-6.9c-2-3.4-4-7-6.2-10.4c-1.4-2.3-3.2-4.4-4.6-6.8
			c-0.4-0.8-0.6-1.7-0.6-2.7c-0.4-1.7,0.1-3.6-1.1-5.1c-4.9-6.2-5.6-12.9-8.9-19.3c-1.4-2.9-1.9-5.9-2.9-8.8c-0.2-0.7-0.5-1.4-0.8-2
			c-3.6-5.5-6.1-11.7-7.1-18.2c-1.2-7.8-3.5-15.6-5.2-23.2c-0.7-3.1-0.3-6.3-1.7-9.2c-3.2-6.5-3.5-13.3-6.2-19.9
			c-2.4-6-2.6-12.3-3.8-18.5c-0.9-4.6-1.9-9.1-2.7-13.8c-1-5.2-2.2-10.5-2.5-15.7c-0.4-6.5,0.3-13-0.5-19.5
			c-0.3-2.1-1.4-3.2-5.5-3.8c-4.5-0.7-9.1-1.6-11.9-4.2c-3.3-3.1-1.9-5.1,4.4-5.8c3.1-0.4,6.3-0.4,9.4-0.7c3.3-0.4,6.4-0.8,9.6-1.5
			c2.8-0.6,5.7-0.6,8.6,0c2.6,0.6,5.2,1,7.9,1.3c10.5,0.4,8.5,1.2,13-3.6c6.9-7.2,22-12.3,38.2-11.6c2.5,0.1,5.1,0.1,7.5-0.1
			c3.2-0.3,6.1-0.5,9.2,0.4c3,0.8,5.5-0.1,7.9-1.3c4.9-2.5,9.9-5,15.1-7.3c4.6-2,11.7-1.8,16.3,0.2c5.5,2.4,10.8,4.7,14.7,8
			c3.5,2.8,6.3,6.3,8.3,10.4c1.2,2.4,2.4,4.5,7,5.8c1.4,0.5,2.6,1.6,3.1,3.2c1.6,6.1,3.1,12,4.4,18.1c0.7,3.5,1.7,7,1.5,10.6
			c-0.2,2.9,1.7,6.1,2,9.1c0.5,6.2,1.4,12.4,2.3,18.6c0.3,2.1,1,4.1,1.4,6.2c1.1,4.9,3.3,9.9,3,14.7c-0.3,5.2,3.5,9.9,3.3,14.8
			c0,1.2,0.3,2.3,0.3,3.4c-0.2,5.2-0.5,10.3-0.7,15.5c0,0.4-0.2,0.7,0,1c3.6,5.6,1.5,11.4,0.9,17c-0.5,4.6-0.9,9.1,0.6,13.8
			c1.4,4.5,3.3,9,1.8,13.7c-0.5,1.6,0.8,3.3,1.1,5.1c0.9,6.1,1.8,12.1,2.4,18.3c-0.1,1.2-0.8,2.7-1.4,4.2
			c-3.1,7.1-6.2,14.1-9.4,21.2c-2.4,5.1-5.2,10.1-7.6,15.3c-1,2-1.7,4.2-2.2,6.4c-0.9,4.6-2.7,8.9-5.4,12.8
			c-1.1,1.5-1.1,3.3-1.9,5.1c-3,5.6-5.3,11.4-9.5,16.7c-2.6,3.3-7.2,6.6-12.4,9c-6.9,3.2-15,5.5-22.9,8c-10.5,3.3-21.9-0.5-21.8-8.4
			c-1-2.1-1.7-5.8-4.5-8.9c-4.8-5.3-8.1-10.8-9.2-16.6c-0.1-0.6-0.8-1.3-1.4-1.9c-2.1-2.5-4.3-5-6.2-7.5
			C6837.6-4091.3,6836.9-4093.2,6835.2-4094.9L6835.2-4094.9z M7417-2094.9l2.4,0.1C7418.6-2094.8,7417.8-2094.8,7417-2094.9z
			 M7389.2-2175.7c-44.7,28.8-197.6,68.5-213.8,22.3c-17.1-54.5-95.3-1148.8-105.4-1227.3c-5.2-40.7-10.4-81-15.3-120.4
			c-14.7-118.4-27.7-230-37.6-325.6c-10.7-101.4-18-184.9-20.8-240.1c-3.4-68.7-23.6-158,20.3-223.7c53.2,37.8,93.1,81.3,117,127.1
			c12.3,23.6,20.6,48,42.2,69.6c23.4,23.2,60.7,41.1,94.3,60.3c35.2,20.1,63.3,98.3,85.7,211.1c2.6,13.3,5.2,27,7.7,41.2
			c6.2,36.1,12,74.9,17.3,115.9c12.2,94.9,21.8,201.5,29.2,312.1c3.6,53.6,14.6,925.2,15.9,971.6
			C7434.3-2264.9,7405.1-2180,7389.2-2175.7z M7728-2280.8c-4.3,36.4-134.3,122.2-140.8,83.9c-4-23.8-6-832.7-5.6-1061.8
			c0.1-74.5,0.5,986.3,1.1,903.7c0.5-57.3,1-749.7,1.7-808.2c2-168.9,5.1-337.8,9.3-479.8c0.5-16.8,1-33.3,1.5-49.2
			c1.9-54.8,3.9-104.7,6.2-147.7c4.9-92.4,10.7-153.9,17.5-166.8c12.8-24.5,32.7-48.4,29.2-78c-2.3-18.4-13.6-33.9-25.6-47.4
			c-23.1-26-41.3-54.8-62.7-81.9c-7.7-9.8-18.3-18.9-19.2-32.2c-1.9-27.6-0.9-56.6,1.8-84.7c2.1-21.9,4.9-46.7,23.7-61.1
			c11.7-8.9,17,1.5,26.7-0.3c11.5-2.2,17.6-5.2,27.4-11.6c13.3-8.7,37.5-2,47-10.5c4.3-3.8,5.9-8.5,12-11.4
			c10-4.9,27.1-1.8,34.7,4.3c7.6,6.1,8.4,13.8,8.8,21.2c0.2,3.2,0.4,6.2,0.5,9.4c3.6,80.5-2.2,161.2,10.1,241.5
			c8,51.9,23.3,103.9,18.5,155.8c0,0.5-0.1,5.6-0.1,14.8c-0.2,57.7-0.1,274.1,1.2,476.9c0.4,61.6,0.8,122,1.4,176.3
			C7755-3276,7730.3-2300.1,7728-2280.8z M8043.4-2246c-81.9-22.5-137.3-39.4-137.5-43.3c-3.3-61.5-9-633-14.5-1048
			c-1.2-85.5-2.3-169.6-3.3-249c-3.4-251.2-6.6-453.9-8.8-493.9c-1-18.5-1.9-37.2,7.1-54.8c7.3-14.7,21.3-28.1,32.3-42.2
			c35.3-44.9,39.6-94,47.1-141.9c0.7-4.6,2.3-9.1,3.3-13.7c3.3-13.4,47.9-23.1,65-31.8c9-4.7,17.7-10,26-16v-439c-2-0.2-4-0.5-6-0.6
			c-16.6-1.5-33.1-3.4-49.6-5.2c-1.3-0.2-2.5-0.3-3.8-0.5c-0.6-0.1-1.3-0.1-1.9-0.1c-7.8,0.7-14.7-1.3-21.2-2.7
			c-8.2-1.8-16.6-2.8-25.1-2.8c-5.1,0-10.2,0.3-15.2-0.1c-2.9-0.4-5.8-0.2-8.6,0.4c-19.9,5-44.3,7.1-65.8,11.7
			c-6.2,1.3-12.4,1.7-18.6,1.3c-8.4-0.5-25.9,0.5-32.9-2c-8.7-3-5.4-9-14.4-12.6c-6.2-2.4-14-3.1-21.5-3.5c-37-2.4-75.9-2.5-112,3.1
			c-33,5.2-69.9,28.2-104.8,24.2c-6.3-0.7-13-0.5-19.5-1c-3.1-0.4-6.2-0.2-9.1,0.6c-2.2,0.5-4.4,0.8-6.7,0.7
			c-25-0.7-39.3,8-62.9,10.5c-0.9,0.2-1.8,0.5-2.6,0.9c-1.7,0.5-3.4,0.9-5.2,1.3c-3.5,0.7-7.2,1.3-10.8,2
			c-5.3,1.2-10.5,2.4-15.7,3.6c-47.6,10.7-93,21-129.4,41.6c-16.6,9.5-34.9,21.3-58.8,20c10.9-3.8,7.8-13.8-2.8-17.8
			c-10.5-4.1-24.6-3.9-37.4-3c-33.2,2.4-65.6,8.5-94.4,17.7c-7.8,2.5-15.7,5.3-24.7,5.6c-6,0.2-11.9-0.7-17.7-1.5
			c-60-8.1-126.8,0.8-173.2,23.1c-4.6,2.3-9.4,4.9-9.9,8.3c-0.4,2.4,1.7,4.8,2.8,7.2c6.2,13.8-19,25.1-41.1,32.7
			c-5.2,1.9-10.5,3.3-15.9,4.3c-3,0.4-6.1,0.5-9.1,0.6c-3.1,0.1-6.2,0.1-9.1,0.1c-47.8,0.1-99.3,13-127.9,34.3
			c-26.1,19.5,1.1,51.5-36.6,65.9c-15.9,6.1-35.9,9.9-46.9,18.6c-4.7,3.7-9.8,8.9-17.9,8.1c-4.1-0.4-7.2-2.2-11.3-2.7
			c-10.5-1.4-16.4,6-22,11c-13.7,12.1-44.6,15.1-61.2,26.1c-17.7,11.9-13.9,29-9.2,44c6.5,20.7,13.8,42.2,37.7,58.7
			c21.8,15,54.6,23.8,86.3,31.9c26.2,6.8,52.7,17.1,81.3,18.8c3.3,0.2,5.6,1.1,6.6,2.8c1.3,2.2,2.3,4.4,3.5,6.6
			c0.9,1.7,2.2,3.3,3.5,4.7c2.5,2.4,4.6,4.6,4.3,7.5c-0.1,0.9-0.1,1.8,0.2,2.7c23.4,91.6,23.2,186.7,95,272.8
			c12.5,14.9,26.9,29.5,37,44.9c2,3.1,6.1,74.6,10.9,187.8c0.4,8.5,0.7,17.3,1.1,26.2c3,73.4,6.3,161.8,9.5,258.9
			c4.7,141.8,9.3,936.5,12.9,1096.7c3.1,135.8,7.2,106.2,5.6,190.8c-0.1,3.1-0.1,6.2-0.2,9.3c-2.5,116.4-8.1,194.4-17.8,208.8
			c-7.1,10.3-43.7,21.8-85.5,31.9c-6.5,1.5-13.8,3.5-21.6,5.8c-42,12.1-99.7,32.9-131.4,47.2c85.9,1.1,175.6-13.2,247.5-41.2
			l0.9-0.4c102.6-39.9,241.9-52,354.6-31l90.6,16.9c111.5,20.8,249.1,9.1,351.4-29.8l40.9-15.6c102.6-39,240.6-50.6,352.2-29.6
			l11,2.1v-181.4C8054.7-2243,8049-2244.5,8043.4-2246z"/>
		<path id="Path_6_2_" class="st7" d="M7024.4-2180.9"/>
		<path id="Path_7_2_" class="st7" d="M7043.6-2188.6"/>
	</g>
	
		<linearGradient id="SVGID_21_" gradientUnits="userSpaceOnUse" x1="7133.2725" y1="-2515.9114" x2="9063.8574" y2="-2515.9114" gradientTransform="matrix(0.9047 0 0 -0.9047 -205.5312 -3769.7917)">
		<stop  offset="0" style="stop-color:#FFFFFF;stop-opacity:0"/>
		<stop  offset="0.325" style="stop-color:#D8EBEA;stop-opacity:0.325"/>
		<stop  offset="0.776" style="stop-color:#A6D2CE;stop-opacity:0.776"/>
		<stop  offset="1" style="stop-color:#93C8C4"/>
	</linearGradient>
	<path class="st31" d="M7994.5-2059.9v1145.1l-355-4.4l-844.9-10.5l-480.9-6l-60.2-0.7l-4.3-585.6l-0.8-275.4
		c-0.1-47.9-0.3-97.9-0.4-149.1c0-11.8-0.1-23.5-0.1-35.4l18.8,4l159.1,33.7c37.3,7.9,77.9,12,119.4,12.6c8.1,0.1,16.4,0.1,24.6-0.1
		c78.2-1.6,157.9-15.7,222.9-41l0.9-0.4c16.3-6.3,33.6-11.9,51.4-16.9c94.7-26.1,208.3-31.8,303.1-14.1l90.6,16.9
		c6.3,1.2,12.8,2.3,19.3,3.3c107.7,16.1,235.6,3.7,332.1-33l40.9-15.6c90.6-34.5,208.9-47.5,312.1-35.6c13.7,1.5,27,3.6,40.1,6.1
		L7994.5-2059.9z"/>
	<g class="st4">
		<g>
			<g>
				
					<linearGradient id="SVGID_22_" gradientUnits="userSpaceOnUse" x1="8121.1138" y1="1145.3348" x2="8121.1138" y2="-3341.4961" gradientTransform="matrix(0.9047 0 0 -0.9047 -205.5312 -3769.7917)">
					<stop  offset="0" style="stop-color:#FFFFFF;stop-opacity:0"/>
					<stop  offset="0.325" style="stop-color:#D8EBEA;stop-opacity:0.325"/>
					<stop  offset="0.776" style="stop-color:#A6D2CE;stop-opacity:0.776"/>
					<stop  offset="1" style="stop-color:#93C8C4"/>
				</linearGradient>
				<path class="st32" d="M8035.3-4862.5v511.4l-0.4,0.7l-213.5,423.7l-43.3,86.2l-199,394.9l-231.9,459.7l-32,63.5l-242.3,480.6
					l-135.6,268.9l-78,154.8l-14.2,28.2l-62,123l-68.1,135l-37.8,74.8l-61.6,122.1l-19.3,38.2l-19.7,39.1l-263,521.9l-43,85.3
					l-14.7,29h-1.6c-0.3-38.4-0.6-76.7-0.9-115.1c-0.1-14.7-0.3-29.6-0.4-44.3c-1-131.7-2.1-263.4-3.2-395.2
					c-0.3-28-0.5-79.1-0.7-146.1l-0.8-275.4c-0.1-47.9-0.3-97.9-0.4-149.1l14.3-23.9l4.4-7.4l150.9-253l128.8-215.9l23.2-39
					l192.2-322.5l190.9-320.2l39.6-66.4l189.1-317.4l94.3-157.5l57-95.6l4-6.9l199.7-334.9l416.1-697.6l33.1-55.5L8035.3-4862.5z"/>
			</g>
		</g>
	</g>
	
		<linearGradient id="SVGID_23_" gradientUnits="userSpaceOnUse" x1="8098.8413" y1="-2153.0652" x2="8098.8413" y2="-3259.0381" gradientTransform="matrix(0.9047 0 0 -0.9047 -205.5312 -3769.7917)">
		<stop  offset="0" style="stop-color:#FFFFFF;stop-opacity:0"/>
		<stop  offset="0.325" style="stop-color:#D8EBEA;stop-opacity:0.325"/>
		<stop  offset="0.776" style="stop-color:#A6D2CE;stop-opacity:0.776"/>
		<stop  offset="1" style="stop-color:#93C8C4"/>
	</linearGradient>
	<path class="st33" d="M7994.5-1811.3v990H6254.4c-0.3-38.4-0.6-76.7-0.9-115.1l-4.3-585.6l-0.8-275.4
		c98.1-33.9,215.8-31.7,311.9,8.1l18.1,7.5l71.1,29.4c20.9,8.7,42.9,15.6,65.5,20.6c95.7,21.7,202.3,11.7,287-29.3l41.9-20.3
		c43.2-20.8,91.9-33.7,142-38.4c71.9-6.8,146.6,3.1,211.4,30l91.1,37.9c108.3,45.1,244.6,42.6,349.3-6.3l26.9-12.6l14.5-6.8
		C7914.8-1794.2,7953.9-1805.4,7994.5-1811.3z"/>
	
		<linearGradient id="SVGID_24_" gradientUnits="userSpaceOnUse" x1="8099.2832" y1="-2403.5674" x2="8099.2832" y2="-3259.0381" gradientTransform="matrix(0.9047 0 0 -0.9047 -205.5312 -3769.7917)">
		<stop  offset="0" style="stop-color:#FFFFFF;stop-opacity:0"/>
		<stop  offset="0.325" style="stop-color:#D8EBEA;stop-opacity:0.325"/>
		<stop  offset="0.776" style="stop-color:#A6D2CE;stop-opacity:0.776"/>
		<stop  offset="1" style="stop-color:#93C8C4"/>
	</linearGradient>
	<path class="st34" d="M7994.5-1454.9v633.6H6254.4c-0.3-38.4-0.6-76.7-0.9-115.1l-4.3-585.6c105.7,67,240.2,67.1,345.7,1.3
		c5.9-3.7,11.8-7.6,17.5-11.8l0.9-0.6c0.8-0.5,1.6-1.2,2.4-1.7c104.8-73.8,243.4-79.2,353.4-13.2l77.1,46.1l12.1,7.2
		c109.7,65.7,247.8,60.7,352.5-12.6l41.9-29.3c104.9-73.5,243.4-78.3,353.1-12.2c0.1,0.1,0.2,0.1,0.3,0.2l91.1,54.8
		C7927.9-1475.4,7960.7-1462.4,7994.5-1454.9z"/>
	<path class="st19" d="M7161.9-3899.2c-26.6,5-100.7-4.2-115.3,19.2c-8.5,13.7-10.5,29.1-9.3,44.8c0.9,12.4,9.8,122.3,13.1,134
		c1,3.4,55.3-53.6,56.9-53.9c35.9-40,85.8-45.1,112.8-82.4c15.5-21.4,27.5-50.9,29.2-77.4
		C7251.2-3942.5,7175.2-3901.7,7161.9-3899.2z M7724.6-1241.3L7724.6-1241.3c-12,12-28.6,20.1-56,21
		c-102.6,3.6-184.5,203-229.2,206.6c-12.2,1-75.1-2.1-144.2-8.1c-74.4-6.4-156-16.3-189.9-28.2c-45.1-15.7-137.9-64.7-190-78.5
		c-4.3-1.2-15.7-2.9-31.1-5c-52.7-7.1-151.5-18.2-166.5-21.6c-18.5-4.3-60.8-12.8-98.9-24.2c-3.2-42.2-11.9-159-22.4-317.4
		c-0.5-8-1.1-15.9-1.6-24.1c-5.2-78.9-10.8-167.3-16.4-261.1c-2.9-48.6-5.8-98.7-8.6-149.7c-9.2-167.6-17.7-345.6-23.3-515.2
		c-11.9-357.7-11.4-678.1,21.2-785.4c45.4-145.9,334.9-111,355.9-175.6c35.5-34.4,163.6-256.9,208.5-285.7
		c21.4-26.3,49.6-45.8,74.6-68.4c5.7-5.2,11.2-10.5,16.5-16.1c36-38.2,57.8-87.8,79.1-136.2c21-1.6,42,1.4,63,4.6
		c28.4,4.3,25-8,52.7-14c14.8-3.3,12-34.5,14.1-35.4c11.1-34.4,49.5-27.5,51.5-77.8c-2-64.6-13.8-25.4-25.2-81.8
		c-0.9-4.3-12.7-22.3-30-39.6c17.1-55.8-38.8-122.4-20.1-134.1c10.9-6.9-4.7-31.1,7.3-35.6c8.5-3.3,25.6-67.6-9.1-86.2
		c-36.1-19.4-74.5-40.2-94.6-77.7c-16-30-17.9-65.5-42-91.5c-18.5-20-42.2-47.9-64.9-59.8c-41.8-22.1-55.5-76-102.8-90
		c-43.1-12.8-89.7-14-133.6-24.9c-29.6-7.3-60-11.9-90.5-10c-28.8,1.7-54.9,14.7-83,17c-70.3,5.8-103.9-72.3-171.4-33.3
		c-22.2,12.8-60.6,11.9-97.3,8.5c-36.7-3.3-55,9.7-78.3,25.8c-35.4,24.5-38.4,59.3-83.4,61.2c-52.8,2.4-186.8,42.9-129.3,239.3
		l-3.5,404.6c44.4,66.9-47-6.5-47.5,48.3c-1.1,138.3,36.2,312.8,36.9,400.7c1.6,206.4,22.5,505.2,24.2,711.5
		c0.8,103.9,1.6,527.2,2.5,902.7c0,11.9,0.1,23.6,0.1,35.4c0.1,51.1,0.3,101.1,0.4,149.1l0.8,275.4c0.3,67,0.5,118.1,0.7,146.1
		c1.1,131.7,2.2,263.4,3.2,395.2c0.1,14.7,0.3,29.6,0.4,44.3c0.4,38.4,0.6,76.7,1,115.1h1740v-564.5
		C7752.5-1384.2,7769-1285.6,7724.6-1241.3z M6486.5-3569.5c-46.8-61.3-50.6-203.9,26.6-342.2c23.2-41.5,53.6-68.6,86.7-85.8
		c36.4-18.9,68.5,19.1,105.7,17.6c60.8-2.4,95.9,25.8,112.4,31.2c8.4,20.1,18.6,35.6,23.7,40.2c9.7,8.8,22.4,13,34.7,17
		c2.3,0.7,4.5,1.6,6.6,2.5c49.6,21.9,50.6,93.1,92.5,54.4c16.5,28,21.5,60.5,19.6,93.5c-1.7,28-8.5,56.5-17.7,82.8
		c-7.5,21.5-130,96.7-152.3,112.1c-1.6,1.2-3.3,2.2-4.8,3.1c0.5,0.4,1.2,0.7,1.7,1.1c0,0-0.7,1-1.1,1.4c-0.7-0.5-1.4-1.1-2-1.6
		l-0.1-0.1C6789.3-3526,6565.7-3472.6,6486.5-3569.5z"/>
	<path d="M6773.5-3878.8"/>
	<g class="st21">
		<g>
			<g>
				
					<linearGradient id="SVGID_25_" gradientUnits="userSpaceOnUse" x1="8417.6768" y1="106.0927" x2="8417.6768" y2="-3322.0173" gradientTransform="matrix(0.9047 0 0 -0.9047 -205.5312 -3769.7917)">
					<stop  offset="0" style="stop-color:#FFFFFF;stop-opacity:0"/>
					<stop  offset="0.325" style="stop-color:#D8EBEA;stop-opacity:0.325"/>
					<stop  offset="0.776" style="stop-color:#A6D2CE;stop-opacity:0.776"/>
					<stop  offset="1" style="stop-color:#93C8C4"/>
				</linearGradient>
				<polygon class="st35" points="8072.9,-3909 8072.9,-2509.7 7969.7,-2168 7943.3,-2068 7864.6,-1770.7 7805.9,-1548.8 
					7724.6,-1241.3 7724.6,-1241.2 7639.4,-919.2 7613.5,-821.3 6746.9,-821.3 6794.5,-929.7 6832.3,-1015.7 6884.2,-1133.4 
					7019.1,-1440.2 7046.2,-1502 7143.1,-1722.2 7186,-1819.8 7258.2,-1983.8 7305.7,-2092.2 7352,-2197.3 7380.8,-2262.8 
					7456.8,-2435.5 7521.9,-2583.7 7588.1,-2734.4 7714.3,-3021.4 7737.6,-3074.4 7850.4,-3330.8 7863.5,-3360.5 7993.6,-3656.3 
									"/>
			</g>
		</g>
	</g>
</g>
<image style="overflow:visible;" width="3103" height="3103" xlink:href="mer-skull.png"  transform="matrix(7.343643e-02 0 0 7.343643e-02 340.5625 486.8599)">
</image>
<image style="overflow:visible;" width="2339" height="2113" xlink:href="rock_monster.png"  transform="matrix(0.1303 1.272774e-02 -1.272774e-02 0.1303 26.8937 443.7132)">
</image>
</svg>
