<?xml version="1.0" encoding="utf-8"?>
<!-- Generator: Adobe Illustrator 24.0.3, SVG Export Plug-In . SVG Version: 6.00 Build 0)  -->
<svg version="1.1" id="Layer_1" xmlns="http://www.w3.org/2000/svg" xmlns:xlink="http://www.w3.org/1999/xlink" x="0px" y="0px"
	 viewBox="0 0 1189.7 4223.9" style="enable-background:new 0 0 1189.7 4223.9;" xml:space="preserve">
<style type="text/css">
	.st0{fill:#B1B1B1;}
	.st1{fill:#1E1E1E;}
	.st2{opacity:0.19;}
	.st3{fill:url(#SVGID_1_);}
	.st4{fill:url(#SVGID_2_);}
	.st5{fill:#213E48;}
	.st6{opacity:0.14;fill:url(#SVGID_3_);enable-background:new    ;}
	.st7{opacity:0.14;fill:url(#SVGID_4_);enable-background:new    ;}
	.st8{display:none;opacity:0.34;fill:url(#SVGID_5_);enable-background:new    ;}
	.st9{display:none;opacity:0.12;}
	.st10{display:inline;}
	.st11{fill:url(#SVGID_6_);}
	.st12{display:none;opacity:0.19;}
	.st13{fill:url(#SVGID_7_);}
	.st14{display:none;opacity:0.17;fill:url(#SVGID_8_);enable-background:new    ;}
	.st15{display:none;opacity:0.16;fill:url(#SVGID_9_);enable-background:new    ;}
	.st16{display:none;fill:#131517;}
	.st17{display:none;}
	.st18{opacity:0.14;fill:url(#SVGID_10_);enable-background:new    ;}
	.st19{opacity:0.14;fill:url(#SVGID_11_);enable-background:new    ;}
	.st20{opacity:0.14;fill:url(#SVGID_12_);enable-background:new    ;}
	.st21{opacity:0.14;fill:url(#SVGID_13_);enable-background:new    ;}
	.st22{opacity:0.14;fill:url(#SVGID_14_);enable-background:new    ;}
	.st23{fill:#131517;}
	.st24{opacity:0.4;fill:url(#SVGID_15_);enable-background:new    ;}
	.st25{opacity:0.21;fill:url(#SVGID_16_);enable-background:new    ;}
	.st26{opacity:0.21;fill:url(#SVGID_17_);enable-background:new    ;}
	.st27{opacity:0.4;fill:url(#SVGID_18_);enable-background:new    ;}
	.st28{opacity:0.12;}
	.st29{fill:url(#SVGID_19_);}
	.st30{fill:url(#SVGID_20_);}
	.st31{opacity:0.21;fill:url(#SVGID_21_);enable-background:new    ;}
	.st32{opacity:0.21;fill:url(#SVGID_22_);enable-background:new    ;}
	.st33{opacity:0.4;fill:url(#SVGID_23_);enable-background:new    ;}
	.st34{fill:url(#SVGID_24_);}
	.st35{fill:url(#SVGID_25_);}
	.st36{opacity:0.21;fill:url(#SVGID_26_);enable-background:new    ;}
	.st37{opacity:0.21;fill:url(#SVGID_27_);enable-background:new    ;}
	.st38{opacity:0.53;fill:url(#SVGID_28_);enable-background:new    ;}
	.st39{fill:url(#SVGID_29_);}
	.st40{opacity:0.15;fill:url(#SVGID_30_);enable-background:new    ;}
	.st41{opacity:0.1;fill:url(#SVGID_31_);enable-background:new    ;}
	.st42{fill:url(#SVGID_32_);}
</style>
<g>
	<g id="Layer_2_1_" transform="translate(-65.911)">
		<path id="Path_1_1_" class="st0" d="M6972.3,2974.5c0.2,0,0.2,0,0.2-0.1C6972.4,2974.4,6972.3,2974.4,6972.3,2974.5z
			 M6972.3,2974.5h-1.4C6971.3,2974.6,6971.8,2974.6,6972.3,2974.5z M6212.7,2959.2c0.5,0.1,0.9,0.2,1.4,0.1L6212.7,2959.2z"/>
		<path id="Path_2_1_" class="st0" d="M6972.3,2974.5c0.2,0,0.2,0,0.2-0.1C6972.4,2974.4,6972.3,2974.4,6972.3,2974.5z
			 M6972.3,2974.5h-1.4C6971.3,2974.6,6971.8,2974.6,6972.3,2974.5z M6212.7,2959.2c0.5,0.1,0.9,0.2,1.4,0.1L6212.7,2959.2z"/>
		<path id="Path_3_1_" class="st1" d="M7019.1,1495.6c5.7,9.4,9.9,19.2,9.5,30.4c-0.4,6.6-0.4,13.3,0.1,19.9
			c1,11.1,2.8,22.1,3.9,33.2c0.6,7.1,1.4,14.2,1,21.3c-0.4,5.3-0.5,10.7-0.5,15.9c10.5-18.1,21.3-36.2,21.7-55.1
			C7055.4,1537.4,7037.3,1516.7,7019.1,1495.6L7019.1,1495.6z M6953.3,1812.4c-12,4.5-21.2,14.5-32,21.3
			c-18.7,11.8-41.6,13.8-63.5,15.5c-31.3,2.4-59.9,6.8-88.7,8.2c6.2,36.1,12,75,17.3,116.1c12.2,95,21.8,201.7,29.2,312.5
			l163.7-299.9c7,2.5,13.7,5.8,20.1,9.7c0.5-16.8,1-33.3,1.5-49.3c1.9-54.9,3.9-104.8,6.2-147.9c-7.6,4-16.6,7.1-27,8.9
			C6971.2,1808.9,6961.9,1809.1,6953.3,1812.4z M7449.1,2759.6c-81.9-22.5-137.3-39.4-137.5-43.4c-3.3-61.6-9,1.1-14.5-414.4
			c-1.2-85.6-2.3-169.8-3.3-249.3c-3.4-251.5-6.6-454.4-8.8-494.6c-1-18.5-1.9-37.2,7.1-54.9c7.3-14.7,21.3-28.1,32.3-42.2
			c35.3-45,39.6-94.1,47.1-142.1c0.7-4.6,2.3-9.1,3.3-13.7c3.3-13.4,47.9-23.1,65-31.8c9-4.7,17.7-10,26-16V817.7
			c-2-0.2-4-0.5-6-0.6c-16.6-1.5-33.1-3.4-49.6-5.2c-1.3-0.2-2.5-0.3-3.8-0.5c-0.6-0.1-1.3-0.1-1.9-0.1c-7.8,0.7-14.7-1.3-21.2-2.7
			c-8.2-1.8-16.6-2.8-25.1-2.8c-5.1,0-10.2,0.3-15.2-0.1c-2.9-0.4-5.8-0.2-8.6,0.4c-19.9,5-44.3,7.1-65.8,11.7
			c-6.2,1.3-12.4,1.7-18.6,1.3c-8.4-0.5-25.9,0.5-32.9-2c-8.7-3-5.4-9-14.4-12.6c-6.2-2.4-14-3.1-21.5-3.5c-37-2.4-75.9-2.5-112,3.1
			c-33,5.2-69.9,28.2-104.8,24.2c-6.3-0.7-13-0.5-19.5-1c-3.1-0.4-6.2-0.2-9.1,0.6c-2.2,0.5-4.4,0.8-6.7,0.7
			c-25-0.7-39.3,8-62.9,10.5c-0.9,0.2-1.8,0.5-2.6,0.9c-1.7,0.5-3.4,0.9-5.2,1.3c-3.5,0.7-7.2,1.3-10.8,2
			c-5.3,1.2-10.5,2.4-15.7,3.6c-47.6,10.7-93,21-129.4,41.7c-16.6,9.5-34.9,21.3-58.8,20c10.9-3.8,7.8-13.8-2.8-17.8
			c-10.5-4.1-24.6-3.9-37.4-3c-33.2,2.4-65.6,8.5-94.4,17.7c-7.8,2.5-15.7,5.3-24.7,5.6c-6,0.2-11.9-0.7-17.7-1.5
			c-60-8.1-126.8,0.8-173.2,23.1c-4.6,2.3-9.4,4.9-9.9,8.3c-0.4,2.4,1.7,4.8,2.8,7.2c6.2,13.8-19,25.1-41.1,32.7
			c-5.2,1.9-10.5,3.3-15.9,4.3c-3,0.4-6.1,0.5-9.1,0.6c-3.1,0.1-6.2,0.1-9.1,0.1c-47.8,0.1-99.3,13-127.9,34.3
			c-26.1,19.5,1.1,51.6-36.6,66c-15.9,6.1-35.9,9.9-46.9,18.6c-4.7,3.7-9.8,8.9-17.9,8.1c-4.1-0.4-7.2-2.2-11.3-2.7
			c-10.5-1.4-16.4,6-22,11c-13.7,12.1-44.6,15.1-61.2,26.1c-17.7,11.9-13.9,29-9.2,44.1c6.5,20.7,13.8,42.3,37.7,58.8
			c21.8,15,54.6,23.8,86.3,32c26.2,6.8,52.7,17.1,81.3,18.8c3.3,0.2,5.6,1.1,6.6,2.8c1.3,2.2,2.3,4.4,3.5,6.6
			c0.9,1.7,2.2,3.3,3.5,4.7c2.5,2.4,4.6,4.6,4.3,7.5c-0.1,0.9-0.1,1.8,0.2,2.7c23.4,91.7,23.2,187,95,273.1
			c12.5,14.9,26.9,29.5,37,45c2,3.1,6.1,74.7,10.9,188.1c0.4,8.5,0.7,17.3,1.1,26.2c3,73.5,6.3,161.9,9.5,259.3
			c4.7,141.9,9.3,302.8,12.9,463.3c3.1,136,7.2,106.3,5.6,191.1c-0.1,3.1-0.1,6.2-0.2,9.3c-2.5,116.6-8.1,194.7-17.8,209.1
			c-7.1,10.3-43.7,21.8-85.5,31.9c-6.5,1.5-13.8,3.5-21.6,5.8c-74.6,21.6-198.7,70.6-139.3,61.8c44.4-6.6,89.3-12.9,134.4-19
			c130.4-17.6,263.3-33,395.4-46.7c38.4-4,76.6-7.8,114.8-11.4c260.2-24.9,513.7-42.9,735-55.8c26.2-1.5,51.9-3,77.3-4.3v-187.4
			C7460.3,2762.7,7454.6,2761.2,7449.1,2759.6L7449.1,2759.6z M7318.5,1364.7c-11,33.6-31,63.1-61.2,84.2
			c-9.9,6.9-70.7,38.7-71.1,6.5c-0.5-34.1,0.3-68.3,0.9-102.4c0.3-16.8,0.6-33.7,0.8-50.5c0.2-17.5,1.4-35.6-2.2-52.7
			c14.1-3.3,29.8-0.9,43.3,3.7c10.9,3.7,21.4,9.8,33.2,9.8c7.1,0,64.8-16.6,65.9-2.2C7331,1295.6,7329.3,1331.7,7318.5,1364.7z
			 M6901.5,1228.1c27-12.7,20.8,12.1,21.2,20.5c0.7,19.6-11.2,35.5-16.7,54.5c-1.5,5.2-3.2,10.2-4.8,15.3
			c-7.1,21.2-14.2,41.3-11.5,63.9c3.5,29.3,16.6,58.2,34.1,85.9c10.7,16.8,23,34.3,29,51.7c3.2,9.2,4.6,18.4,3.1,27.5
			c-0.8,5-2.5,9.9-5,14.3c-5.5,10.2-15.5,19.5-25.2,28.8c-9,8.5-18.2,17-30.1,24.3c-2,1.2-4.1,2.4-6.2,3.4
			c-5.7,2.8-12.2,5.1-19.7,5.8c-18.7,1.8-35.6-6.7-44.9-15.7c-18.8-18.6-18.8-41-26.6-61.9c-5.5-14.7-15.1-28.9-21.9-43.5
			c-12.8-27.4-15.9-56.2-9.1-84.3c5-20.6,17.1-40.7,18-61.6c0.9-21-7.1-42.8-11.3-63.7c-1.4-7.2-2.6-15.2,4.7-21.3
			c6.4-5.3,17.8-8,28.3-10.7c6.2-1.5,12.2-3.2,18.2-4.9C6852.3,1248.6,6878.1,1239,6901.5,1228.1L6901.5,1228.1z M6460.2,1336.2
			c10.4-10.7,31.2-14.5,18.5-29.4c-2.8-3.3-7.3-6.4-6.9-10c0.6-5,10.2-7.9,17.9-10.6c13.7-4.8,24.9-11.7,32-19.5
			c4.3-4.8,9.3-10.9,19.2-11.2c6.8-0.2,12.8,2.8,15.3,6.3c11.3,16.4,3.3,38.6,7.1,56c3.3,15.6,16.1,30,30.8,43.3
			c30,27.1,74,50.8,94.7,80.8c24.8,35.8,12.9,75.7,0.8,113.4c-1.2,4-5.1,6.6-9.2,6.2c-1.9-0.3-3.6-0.9-5.2-1.9
			c-42.7-24.3-61-54.5-78.6-85.9c-21.5-38.3-59.5-72.2-99.2-105.6c-3-2.5-6.2-4.9-9.5-7.2c-8-6-16.2-11.6-24.9-17.3
			c-1.6-1.1-3.4-2.3-3.9-3.7C6458.6,1338.5,6459,1337.3,6460.2,1336.2L6460.2,1336.2z M6635.5,1350.5c-12.3-9.3-17.6-20.8-22.5-31.9
			l-15.3-33.8c-1.8-3.5-12.6-9-10.2-13.1c1-1.6,2.5-2.9,4.3-3.6c8.1-3.3,22.8,1.4,31.5,2.2c10.3,0.8,25.1-1.9,34-4.6
			c15.5-4.7,30.8-12.5,42.9-19.5c25.3-14.8,43.2,49.6,41.4,58.8c-4.3,21.8-15,43.7-21.9,65.3c-0.5,1.7-1.2,3.5-3.4,4.8
			c-2.1,1.2-5.2,1.5-8.1,1.7C6680.5,1378.3,6650.4,1361.9,6635.5,1350.5z M6240.8,1543.3c-4.9-5.1-6.9-10.6-8-16.2
			c-0.2-0.9-0.5-1.8-1.1-2.7c-1.2-2.3-2.4-4.6-3.7-6.9c-2-3.4-4-7-6.2-10.4c-1.4-2.3-3.2-4.4-4.6-6.8c-0.4-0.8-0.6-1.7-0.6-2.7
			c-0.4-1.7,0.1-3.6-1.1-5.1c-4.9-6.2-5.6-12.9-8.9-19.3c-1.4-2.9-1.9-5.9-2.9-8.8c-0.2-0.7-0.5-1.4-0.8-2
			c-3.6-5.5-6.1-11.7-7.1-18.2c-1.2-7.8-3.5-15.6-5.2-23.2c-0.7-3.1-0.3-6.3-1.7-9.2c-3.2-6.5-3.5-13.3-6.2-19.9
			c-2.4-6-2.6-12.3-3.8-18.5c-0.9-4.6-1.9-9.1-2.7-13.8c-1-5.2-2.2-10.5-2.5-15.7c-0.4-6.5,0.3-13-0.5-19.5
			c-0.3-2.1-1.4-3.2-5.5-3.8c-4.5-0.7-9.1-1.6-11.9-4.2c-3.3-3.1-1.9-5.1,4.4-5.8c3.1-0.4,6.3-0.4,9.4-0.7c3.3-0.4,6.4-0.8,9.6-1.5
			c2.8-0.6,5.7-0.6,8.6,0c2.6,0.6,5.2,1,7.9,1.3c10.5,0.4,8.5,1.2,13-3.6c6.9-7.2,22-12.3,38.2-11.6c2.5,0.1,5.1,0.1,7.5-0.1
			c3.2-0.3,6.1-0.5,9.2,0.4c3,0.8,5.5-0.1,7.9-1.3c4.9-2.5,9.9-5,15.1-7.3c4.6-2,11.7-1.8,16.3,0.2c5.5,2.4,10.8,4.7,14.7,8
			c3.5,2.8,6.3,6.3,8.3,10.4c1.2,2.4,2.4,4.5,7,5.8c1.4,0.5,2.6,1.6,3.1,3.2c1.6,6.1,3.1,12,4.4,18.1c0.7,3.5,1.7,7,1.5,10.6
			c-0.2,2.9,1.7,6.1,2,9.1c0.5,6.2,1.4,12.4,2.3,18.6c0.3,2.1,1,4.1,1.4,6.2c1.1,4.9,3.3,9.9,3,14.7c-0.3,5.2,3.5,9.9,3.3,14.8
			c0,1.2,0.3,2.3,0.3,3.4c-0.2,5.2-0.5,10.3-0.7,15.5c0,0.4-0.2,0.7,0,1c3.6,5.6,1.5,11.4,0.9,17c-0.5,4.6-0.9,9.1,0.6,13.8
			c1.4,4.5,3.3,9,1.8,13.7c-0.5,1.6,0.8,3.3,1.1,5.1c0.9,6.1,1.8,12.1,2.4,18.3c-0.1,1.2-0.8,2.7-1.4,4.2
			c-3.1,7.1-6.2,14.1-9.4,21.2c-2.4,5.1-5.2,10.1-7.6,15.3c-1,2-1.7,4.2-2.2,6.4c-0.9,4.6-2.7,8.9-5.4,12.8
			c-1.1,1.5-1.1,3.3-1.9,5.1c-3,5.6-5.3,11.4-9.5,16.7c-2.6,3.3-7.2,6.6-12.4,9c-6.9,3.2-15,5.5-22.9,8c-10.5,3.3-21.9-0.5-21.8-8.4
			c-1-2.1-1.7-5.8-4.5-8.9c-4.8-5.3-8.1-10.8-9.2-16.6c-0.1-0.6-0.8-1.3-1.4-1.9c-2.1-2.5-4.3-5-6.2-7.5
			C6243.3,1546.9,6242.6,1545,6240.8,1543.3L6240.8,1543.3z M6822.6,2911l2.4,0.1C6824.3,2911.1,6823.4,2911.1,6822.6,2911z
			 M6794.9,2830c-44.7,28.8-197.6,68.6-213.8,22.3c-17.1-54.5-95.3-515.4-105.4-593.9c-5.2-40.8-10.4-81.1-15.3-120.6
			c-14.7-118.6-27.7-230.2-37.6-326c-10.7-101.5-18-185.2-20.8-240.4c-3.4-68.8-23.6-158.1,20.3-224c53.2,37.9,93.1,81.4,117,127.3
			c12.3,23.6,20.6,48.1,42.2,69.7c23.4,23.2,60.7,41.2,94.3,60.3c35.2,20.1,63.3,98.4,85.7,211.4c2.6,13.3,5.2,27,7.7,41.3
			c6.2,36.1,12,75,17.3,116.1c12.2,95,21.8,201.7,29.2,312.5c3.6,53.7,14.6,291.5,15.9,338C6840,2740.7,6810.8,2825.8,6794.9,2830z
			 M7133.6,2724.9c-4.3,36.5-134.3,122.4-140.8,84c-4-23.8-6-198.9-5.6-428.3c0.1-74.6,0.5,352.7,1.1,270
			c0.5-57.4,1-115.8,1.7-174.3c2-169.1,5.1-338.2,9.3-480.5c0.5-16.8,1-33.3,1.5-49.3c1.9-54.9,3.9-104.8,6.2-147.9
			c4.9-92.5,10.7-154.1,17.5-167c12.8-24.6,32.7-48.5,29.2-78.1c-2.3-18.5-13.6-33.9-25.6-47.4c-23.1-26-41.3-54.8-62.7-82.1
			c-7.7-9.8-18.3-19-19.2-32.2c-1.9-27.6-0.9-56.7,1.8-84.8c2.1-21.9,4.9-46.8,23.7-61.2c11.7-8.9,17,1.5,26.7-0.3
			c11.5-2.2,17.6-5.2,27.4-11.6c13.3-8.7,37.5-2,47-10.5c4.3-3.8,5.9-8.5,12-11.4c10-4.9,27.1-1.8,34.7,4.3s8.4,13.8,8.8,21.2
			c0.2,3.2,0.4,6.2,0.5,9.4c3.6,80.6-2.2,161.4,10.1,241.7c8,52,23.3,103.9,18.5,156c0,0.5-0.1,5.6-0.1,14.8
			c-0.2,57.8-0.1,274.5,1.2,477.6c0.4,61.7,0.8,122.2,1.4,176.5C7160.7,2363.3,7135.9,2705.4,7133.6,2724.9z"/>
		<path id="Path_6_1_" class="st0" d="M6430,2824.9"/>
		<path id="Path_7_1_" class="st0" d="M6449.3,2817.2"/>
	</g>
	<g class="st2">
		
			<linearGradient id="SVGID_1_" gradientUnits="userSpaceOnUse" x1="8057.2925" y1="13597.1191" x2="8057.2925" y2="11381.6211" gradientTransform="matrix(0.9047 0 0 -0.9047 -368.5647 14309.9678)">
			<stop  offset="0" style="stop-color:#FFFFFF;stop-opacity:0"/>
			<stop  offset="0.325" style="stop-color:#D8EBEA;stop-opacity:0.325"/>
			<stop  offset="0.776" style="stop-color:#A6D2CE;stop-opacity:0.776"/>
			<stop  offset="1" style="stop-color:#93C8C4"/>
		</linearGradient>
		<path class="st3" d="M7399.2,1981v742l-16.4,47.8l-265.8,776l-2.2,7.8c-9.6,21.5-54.9,51.5-118.1,73.3
			c-84,29-199.6,383.7-305,345.8c-184.7-66.3-268-269.4-245.6-319.6l4.3-7l150.8-264.9l128.3-225.3l85.2-149.6l111.8-196.3
			l31.8-55.8l19.8-34.7l52.2-91.6l44.7-78.6l45.5-80l86.8-152.3l16-28.1l77.5-136.1l9-15.7L7399.2,1981L7399.2,1981z"/>
	</g>
	<g class="st2">
		
			<linearGradient id="SVGID_2_" gradientUnits="userSpaceOnUse" x1="7621.6226" y1="14916.168" x2="7621.6226" y2="11679.9365" gradientTransform="matrix(0.9047 0 0 -0.9047 -368.5647 14309.9678)">
			<stop  offset="0" style="stop-color:#FFFFFF;stop-opacity:0"/>
			<stop  offset="0.325" style="stop-color:#D8EBEA;stop-opacity:0.325"/>
			<stop  offset="0.776" style="stop-color:#A6D2CE;stop-opacity:0.776"/>
			<stop  offset="1" style="stop-color:#93C8C4"/>
		</linearGradient>
		<path class="st4" d="M7440.9,774.8v338.7l-0.3,0.5l-164.1,280.6l-33.3,57.1l-153,261.5L6912,2017.7l-24.6,42.1l-186.1,318.3
			l-104.2,178l-59.9,102.5l-58.5,100.1l-81.4,139l-77.3,132.1l-235.2,402.1l-12,20.5l-24,41l-5.8,10.7
			c-12.6,20.2-39.4,47.9-73.9,75.9c-84.8,68.8-215.2,138.3-290.5,97.3c-105.9-57.5-62.9-311.7-19.4-381.6l7-9.9l130.3-188.3
			l281.9-407.4l119.4-172.5l116.9-168.8l147.7-213.6l146.7-212.1l30.5-44l145.3-210.2l72.5-104.3l43.8-63.3l3.1-4.5l153.5-221.8
			l319.7-462l25.4-36.8L7440.9,774.8L7440.9,774.8z"/>
	</g>
	<path d="M5637.5,1592.4c44.4,66.9-47-6.5-47.5,48.3c-1.1,138.3,36.2,312.8,36.9,400.7c1.6,206.4,22.5,505.2,24.2,711.5
		c1.4,180.7,2.9,361.5,4.4,542.3c1.1,131.7,2.2,263.4,3.2,395.2c0.5,59.3,1,118.4,1.4,177.7c0,1.2,0,2.4,0,3.5h1765.6
		c0.2-0.3-4.3-586.5-22.9-586.4c-311.1,1.2-199.8,161-328.7,165.6c-102.6,3.6-184.5,203-229.2,206.6c-12.2,1-75.1-2.1-144.2-8.1
		c-74.4-6.4-156-16.3-189.9-28.2c-45.1-15.7-137.9-64.7-190-78.5c-19-5.1-178.3-22.2-197.6-26.6c-18.5-4.3-60.8-12.8-98.9-24.2
		c-13.8-183.9-132.6-818.4-51.1-1086.6c45.4-145.9,334.9-111,355.9-175.6c35.5-34.4,163.6-256.9,208.5-285.7
		c21.4-26.3,49.6-45.8,74.6-68.4c5.7-5.2,11.2-10.5,16.5-16.1c36-38.2,57.8-87.8,79.1-136.2c21-1.6,42,1.4,63,4.6
		c28.4,4.3,25-8,52.7-14c14.8-3.3,12-34.5,14.1-35.4c11.1-34.4,49.5-27.5,51.5-77.8c-2-64.6-13.8-25.4-25.2-81.8
		c-1.7-8.4-45.4-69.7-90.6-74.5c-59.8-2.3-67.8,18.9-118.3,10.9c-26.6-9-176.5-72.7-225.2-24.2c-30.7,35.3-121.2-13.1-145.4,73.7
		c-26.5,81.8-47.5,42.4-68.7,91.9s19.4,121.2,31.4,132.2c9.7,8.8,22.4,13,34.7,17c2.3,0.7,4.5,1.6,6.6,2.5
		c49.6,21.9,50.6,93.1,92.5,54.4c16.5,28,21.5,60.5,19.6,93.5c-1.7,28-8.5,56.5-17.7,82.8c-7.5,21.5-130,96.7-152.3,112.1
		c-1.6,1.2-3.3,2.2-4.8,3.1c0.5,0.4,1.2,0.7,1.7,1.1c0,0-0.7,1-1.1,1.4c-0.7-0.5-1.4-1.1-2-1.6l-0.1-0.1
		c-29.5,16.5-253.1,69.9-332.3-27c-46.8-61.3-50.6-203.9,26.6-342.2c23.2-41.5,53.6-68.6,86.7-85.8c36.4-18.9,68.5,19.1,105.7,17.6
		c70.7-2.7,106.7,35.8,119.1,31.8c61-19.5,170.7-216.5,212.4-221.5c48.9-6,144.7-3.4,192.6,8.5c17,4.3,34.7-9.3,50.5-8.5
		c11.6,0.5,59.3,15.2,70.7,14.6c28.9-1.5,70.9,18.6,77.6-2.9c17.3-55.8-38.8-122.5-20.1-134.3c10.9-6.9-4.7-31.1,7.3-35.6
		c8.5-3.3,25.6-67.6-9.1-86.2c-36.1-19.4-74.5-40.2-94.6-77.7c-16-30-17.9-65.5-42-91.5c-18.5-20-42.2-47.9-64.9-59.8
		c-41.8-22.1-55.5-76-102.8-90c-43.1-12.8-89.7-14-133.6-24.9c-29.6-7.3-60-11.9-90.5-10c-28.8,1.7-54.9,14.7-83,17
		c-70.3,5.8-103.9-72.3-171.4-33.3c-22.2,12.8-60.6,11.9-97.3,8.5c-36.7-3.3-55,9.7-78.3,25.8c-35.4,24.5-38.4,59.3-83.4,61.2
		c-52.8,2.4-186.8,42.9-129.3,239.3 M6443,1802.1c-1.2-15.7,0.8-31.1,9.3-44.8c14.6-23.3,88.7-14.2,115.3-19.2
		c13.3-2.5,89.3-43.3,87.5-15.8c-1.7,26.5-13.8,56-29.2,77.4c-27,37.3-76.9,42.4-112.8,82.4c-1.6,0.3-55.9,57.4-56.9,53.9
		C6452.8,1924.4,6443.9,1814.4,6443,1802.1z"/>
	<path d="M6179.2,1758.5"/>
</g>
<g id="Layer_2_2_" transform="translate(-65.911)">
	<path id="Path_1" class="st5" d="M9501.7,709.1c0.5,0.1,0.9,0.2,1.4,0.1L9501.7,709.1z M10259.9,724.3c0.5,0.1,0.9,0.1,1.4,0
		H10259.9z M10261.3,724.3c0.2,0,0.2,0,0.2-0.1C10261.4,724.3,10261.3,724.3,10261.3,724.3z"/>
	<path id="Path_2" class="st5" d="M9501.7,709.1c0.5,0.1,0.9,0.2,1.4,0.1L9501.7,709.1z M10259.9,724.3c0.5,0.1,0.9,0.1,1.4,0
		H10259.9z M10261.3,724.3c0.2,0,0.2,0,0.2-0.1C10261.4,724.3,10261.3,724.3,10261.3,724.3z"/>
	<path id="Path_3" class="st5" d="M10261.3,724.3c0.2,0,0.2,0,0.2-0.1C10261.4,724.3,10261.3,724.3,10261.3,724.3z M10259.9,724.3
		c0.5,0.1,0.9,0.1,1.4,0H10259.9z M9501.7,709.1c0.5,0.1,0.9,0.2,1.4,0.1L9501.7,709.1z"/>
	<path class="st5" d="M4896-1022.1c-17.6-59.1-9-633-14.5-1048c-1.2-85.5-2.3-169.6-3.3-249c-3.4-251.2-6.6-453.9-8.8-493.9
		c-1-18.5-1.9-37.2,7.1-54.8c7.3-14.7,21.3-28.1,32.3-42.2c35.3-44.9,39.6-94,47.1-141.9c0.7-4.6,2.3-9.1,3.3-13.7
		c3.3-13.4,47.9-23.1,65-31.8c9-4.7,36.8-23.6,45.1-29.6v-439c-2-0.2-4-0.5-6-0.6c-16.6-1.5-52.2,10.1-68.7,8.3
		c-1.3-0.2-2.5-0.3-3.8-0.5c-0.6-0.1-1.3-0.1-1.9-0.1c-7.8,0.7-14.7-1.3-21.2-2.7c-8.2-1.8-16.6-2.8-25.1-2.8
		c-5.1,0-10.2,0.3-15.2-0.1c-2.9-0.4-5.8-0.2-8.6,0.4c-19.9,5-44.3,7.1-65.8,11.7c-6.2,1.3-12.4,1.7-18.6,1.3
		c-8.4-0.5-25.9,0.5-32.9-2c-8.7-3-5.4-9-14.4-12.6c-6.2-2.4-14-3.1-21.5-3.5c-37-2.4-75.9-2.5-112,3.1
		c-33,5.2-69.9,28.2-104.8,24.2c-6.3-0.7-13-0.5-19.5-1c-3.1-0.4-6.2-0.2-9.1,0.6c-2.2,0.5-4.4,0.8-6.7,0.7
		c-25-0.7-39.3,8-62.9,10.5c-0.9,0.2-1.8,0.5-2.6,0.9c-1.7,0.5-3.4,0.9-5.2,1.3c-3.5,0.7-7.2,1.3-10.8,2c-5.3,1.2-10.5,2.4-15.7,3.6
		c-47.6,10.7-93,21-129.4,41.6c-16.6,9.5-51,6.2-61.6,2.2c-10.5-4.1-24.6-3.9-37.4-3c-33.2,2.4-65.6,8.5-94.4,17.7
		c-7.8,2.5-15.7,5.3-24.7,5.6c-6,0.2-11.9-0.7-17.7-1.5c-60-8.1-126.8,0.8-173.2,23.1c-4.6,2.3-9.4,4.9-9.9,8.3
		c-0.4,2.4,1.7,4.8,2.8,7.2c6.2,13.8-19,25.1-41.1,32.7c-5.2,1.9-10.5,3.3-15.9,4.3c-3,0.4-6.1,0.5-9.1,0.6
		c-3.1,0.1-6.2,0.1-9.1,0.1c-47.8,0.1-99.3,13-127.9,34.3c-26.1,19.5,1.1,51.5-36.6,65.9c-15.9,6.1-35.9,9.9-46.9,18.6
		c-4.7,3.7-9.8,8.9-17.9,8.1c-4.1-0.4-7.2-2.2-11.3-2.7c-10.5-1.4-16.4,6-22,11c-13.7,12.1-44.6,15.1-61.2,26.1
		c-17.7,11.9-13.9,29-9.2,44c6.5,20.7,13.8,42.2,37.7,58.7c21.8,15,54.6,23.8,86.3,31.9c26.2,6.8,52.7,17.1,81.3,18.8
		c3.3,0.2,5.6,1.1,6.6,2.8c1.3,2.2,2.3,4.4,3.5,6.6c0.9,1.7,2.2,3.3,3.5,4.7c2.5,2.4,4.6,4.6,4.3,7.5c-0.1,0.9-0.1,1.8,0.2,2.7
		c23.4,91.6,23.2,186.7,95,272.8c12.5,14.9,26.9,29.5,37,44.9c2,3.1,6.1,74.6,10.9,187.8c0.4,8.5,0.7,17.3,1.1,26.2
		c3,73.4,6.3,161.8,9.5,258.9c4.7,141.8,9.3,936.5,12.9,1096.7c3.1,135.8,7.2,106.1,5.6,190.8c-0.1,3.1-0.1,6.2-0.2,9.3
		c-2.5,116.4-6.9,109.5-16.6,123.8c-7.1,10.3-362.3,135.3-350.9,161.1c1.3,0.1,4.6,0.5,9.9,0.9V296h1569.2V-968.5
		C5116.1-936.8,4913.1-964.6,4896-1022.1z M4407-827.6l2.4,0.1C4408.6-827.5,4407.8-827.5,4407-827.6z M4555.3-764.2h1.4
		C4556.2-764.1,4555.7-764.1,4555.3-764.2z M4556.7-764.2c0-0.1,0.1-0.1,0.2-0.1C4556.9-764.2,4556.9-764.2,4556.7-764.2z
		 M4571.7-1991.4c0-28.7,0.1,110.5,0.2,288.1C4571.7-1823.9,4571.6-1929.1,4571.7-1991.4z M4813.4-3117c10.9,3.7,21.4,9.8,33.2,9.8
		c7.1,0,64.8-16.6,65.9-2.2c2.9,34.4,1.2,70.5-9.7,103.4c-11,33.5-31,63.1-61.2,84.1c-9.9,6.9-70.7,38.6-71.1,6.5
		c-0.5-34.1,0.3-68.2,0.9-102.3c0.3-16.8,0.6-33.7,0.8-50.5c0.2-17.5,1.4-35.5-2.2-52.6C4784.2-3124,4799.8-3121.6,4813.4-3117z
		 M4532.5-3063.6c2.1-21.9,4.9-46.7,23.7-61.1c11.7-8.9,17,1.5,26.7-0.3c11.5-2.2,17.6-5.2,27.4-11.6c13.3-8.7,37.5-2,47-10.5
		c4.3-3.8,5.9-8.5,12-11.4c10-4.9,27.1-1.8,34.7,4.3s8.4,13.8,8.8,21.2c0.2,3.2,0.4,6.2,0.5,9.4c3.6,80.5-2.2,161.2,10.1,241.5
		c8,51.9,23.3,103.9,18.5,155.8c0,0.5-0.1,5.6-0.1,14.8c-0.2,57.7-0.1,274.1,1.2,476.9c0.4,61.6,0.8,122,1.4,176.3
		c0.5,49.6-24.2,1025.4-26.5,1044.8c-4.3,36.4-134.3,122.2-140.8,83.9c-1.7-10.4-3.1-171.4-4.1-368.5c-0.2,107.7-0.4,192-0.5,210.4
		c-0.4,50.6-0.6-327.1-0.9-610.8c0.3,127.5,0.7,271.6,1.4,400.4c0.4-227,0.7-558.2,1.3-597.8c2-168.9,5.1-337.8,9.3-479.8
		c0.5-16.8,1-33.3,1.5-49.2c1.9-54.8,3.9-104.7,6.2-147.7c4.9-92.4,10.7-153.9,17.5-166.8c2.6-5.1,5.6-10.1,8.6-15.2
		c0.7-1.3,1.5-2.6,2.3-3.9c0.3-0.4,0.5-0.8,0.7-1.2c2.4-4.3,4.9-8.5,7.1-12.8c0.2-0.4,0.4-0.7,0.5-1.1s0.4-0.7,0.5-1.1
		c6.7-13.3,11.2-27.3,9.4-42.8c-0.7-6.2-2.5-11.9-5-17.5l0,0c-4.9-11-12.6-20.9-20.6-29.9c-23.1-26-41.3-54.8-62.7-81.9
		c-7.7-9.8-18.3-18.9-19.2-32.2C4528.8-3006.5,4529.8-3035.6,4532.5-3063.6z M4351.5-2952.1c5-20.6,17.1-40.6,18-61.5
		c0.9-21-7.1-42.7-11.3-63.6c-1.4-7.2-2.6-15.2,4.7-21.3c6.4-5.3,17.8-8,28.3-10.7c6.2-1.5,12.2-3.2,18.2-4.9
		c27.3-8,53.1-17.6,76.5-28.5c27-12.7,20.8,12.1,21.2,20.5c0.7,19.6-11.2,35.5-16.7,54.4c-1.5,5.2-3.2,10.2-4.8,15.3
		c-7.1,21.2-14.2,41.2-11.5,63.8c3.5,29.3,16.6,58.1,34.1,85.9c10.7,16.8,23,34.3,29,51.7c3.2,9.2,4.6,18.4,3.1,27.5
		c-0.8,5-2.5,9.9-5,14.3c-5.5,10.2-15.5,19.5-25.2,28.8c-9,8.5-18.2,17-30.1,24.3c-2,1.2-4.1,2.4-6.2,3.4
		c-5.7,2.8-12.2,5.1-19.7,5.8c-18.7,1.8-35.6-6.7-44.9-15.7c-18.8-18.6-18.8-40.9-26.6-61.8c-5.5-14.7-15.1-28.9-21.9-43.4
		C4347.8-2895.3,4344.7-2923.9,4351.5-2952.1z M4171.8-3099.1c1-1.6,2.5-2.9,4.3-3.6c8.1-3.3,22.8,1.4,31.5,2.2
		c10.3,0.8,25.1-1.9,34-4.6c15.5-4.7,30.8-12.5,42.9-19.5c25.3-14.8,43.2,49.5,41.4,58.7c-4.3,21.8-15,43.6-21.9,65.2
		c-0.5,1.7-1.2,3.5-3.4,4.8c-2.1,1.2-5.2,1.5-8.1,1.7c-27.7,1.8-57.8-14.7-72.7-26c-12.3-9.3-17.6-20.8-22.5-31.9l-15.3-33.8
		C4180.2-3089.5,4169.5-3094.9,4171.8-3099.1z M4044.6-3034.5c10.4-10.7,31.2-14.5,18.5-29.4c-2.8-3.3-7.3-6.4-6.9-10
		c0.6-5,10.2-7.9,17.9-10.6c13.7-4.8,24.9-11.7,32-19.5c4.3-4.8,9.3-10.9,19.2-11.2c6.8-0.2,12.8,2.8,15.3,6.3
		c11.3,16.4,3.3,38.5,7.1,55.9c3.3,15.6,16.1,30,30.8,43.2c30,27.1,74,50.7,94.7,80.7c24.8,35.8,12.9,75.6,0.8,113.3
		c-1.2,4-5.1,6.6-9.2,6.2c-1.9-0.3-3.6-0.9-5.2-1.9c-42.7-24.3-61-54.4-78.6-85.9c-21.5-38.2-59.5-72.1-99.2-105.5
		c-3-2.5-6.2-4.9-9.5-7.2c-8-6-16.2-11.6-24.9-17.3c-1.6-1.1-3.4-2.3-3.9-3.7C4043-3032.1,4043.4-3033.3,4044.6-3034.5z
		 M4006.6-3023.2c53.2,37.8,93.1,81.3,117,127.1c12.3,23.6,20.6,48,42.2,69.6c23.4,23.2,60.7,41.1,94.3,60.2
		c35.2,20.1,63.3,98.3,85.7,211.1c2.6,13.3,5.2,27,7.7,41.2v0.1c6.2,36.1,12,74.8,17.3,115.8c12.2,94.9,21.8,201.5,29.2,312.1v0.1
		c3.6,54.4,14.6,925.1,15.9,971.5c8.5,116.7-20.7,201.6-36.6,205.9c-44.7,28.8-197.6,68.5-213.8,22.3
		c-17.1-54.4-95.3-1148.8-105.4-1227.3c-5.2-40.7-10.4-81-15.3-120.4c-14.7-118.4-27.7-230-37.6-325.6
		c-10.7-101.4-18-184.9-20.8-240.1C3982.9-2868.1,3962.7-2957.4,4006.6-3023.2z M3790.2-2899.3c-6.3-27-12.8-54.3-23.1-79.6
		c-2.4-6-2.6-12.3-3.8-18.5c-0.9-4.6-1.9-9.1-2.7-13.8c-1-5.2-2.2-10.5-2.5-15.7c-0.4-6.5,0.3-13-0.5-19.5c-0.3-2.1,2.9-15.3,6.1-16
		c2.8-0.6,5.7-0.6,8.6,0c2.6,0.6,5.2,1,7.9,1.3c10.5,0.4,8.5,1.2,13-3.6c6.9-7.2,22-12.3,38.2-11.6c2.5,0.1,5.1,0.1,7.5-0.1
		c3.2-0.3,6.1-0.5,9.2,0.4c3,0.8,5.5-0.1,7.9-1.3c4.9-2.5,9.9-5,15.1-7.3c4.6-2,11.7-1.8,16.3,0.2c5.5,2.4,10.8,4.7,14.7,8
		c3.5,2.8,6.3,6.3,8.3,10.4c1.2,2.4,13.1,21,14.5,27c0.7,3.5,1.7,7,1.5,10.6c-0.2,2.9,2.2,6.1,2,9.1
		c-2.5,41.5,30.8,220.8-34.7,233.4C3884.9-2784.4,3816.8-2785.9,3790.2-2899.3z M3798.5-779.4c-0.5,0.1-0.9,0-1.4-0.1L3798.5-779.4z
		"/>
	<path id="Path_6" class="st5" d="M9719,574.9L9719,574.9z"/>
	<path id="Path_7" class="st5" d="M9738.2,567.2L9738.2,567.2z"/>
</g>
<linearGradient id="SVGID_3_" gradientUnits="userSpaceOnUse" x1="-3090.1953" y1="3998.2842" x2="-3090.1953" y2="4807.7617" gradientTransform="matrix(-0.9047 0 0 -0.9047 -5818.6499 10202.8408)">
	<stop  offset="0" style="stop-color:#FFFFFF;stop-opacity:0"/>
	<stop  offset="0.325" style="stop-color:#D8EBEA;stop-opacity:0.325"/>
	<stop  offset="0.776" style="stop-color:#A6D2CE;stop-opacity:0.776"/>
	<stop  offset="1" style="stop-color:#93C8C4"/>
</linearGradient>
<path class="st6" d="M-3207.7,5859c2.8-1.1,5.7-2.1,8.6-2.8c22-5.6,47.2,0.5,66.6,16.6l8.7,7.2c20.6,17.1,47.9,22.8,70.9,15.4
	c1.4-0.5,2.7-0.9,4.1-1.5l19.4-7.9c20.2-8.3,44.4-5.6,64.7,6.5c3.8,2.3,7.5,4.9,10.9,7.9l0.2,0.2c13.8,11.7,30.9,18.3,47.6,19.1
	c1.7,0.1,3.5,0.1,5.2,0.1c8.9-0.3,17.6-2.2,25.5-5.9l33.9-15.7l4-1.9c0,5.5,0,11,0,16.5c0,23.8-0.1,47-0.1,69.4l-0.2,128.1
	l2.1,468.2l-12.8,0.3l-102.7,2.8l-180.4,4.9l-75.8-3.5l-3-722.9L-3207.7,5859z"/>
<linearGradient id="SVGID_4_" gradientUnits="userSpaceOnUse" x1="-2977.4902" y1="3967.21" x2="-2977.4902" y2="4895.8384" gradientTransform="matrix(0.9047 0 0 -0.9047 -368.5647 10202.8408)">
	<stop  offset="0" style="stop-color:#FFFFFF;stop-opacity:0"/>
	<stop  offset="0.325" style="stop-color:#D8EBEA;stop-opacity:0.325"/>
	<stop  offset="0.776" style="stop-color:#A6D2CE;stop-opacity:0.776"/>
	<stop  offset="1" style="stop-color:#93C8C4"/>
</linearGradient>
<path class="st7" d="M-2848.7,5748.9l13,860l-438.6-4.9c-0.1-14.7-13.2-506.7-13.3-521.3l-1.1-228.3l-0.2-105.1
	c24.7-12.9,54.4-12.1,78.6,3.1l4.5,2.9l17.9,11.2c5.2,3.3,10.8,5.9,16.5,7.9c24.2,8.3,51,4.4,72.4-11.2l10.6-7.7
	c10.9-7.9,23.2-12.8,35.8-14.7c18.1-2.6,37,1.1,53.3,11.5l23,14.4c27.3,17.2,61.7,16.3,88-2.4l6.8-4.8l3.6-2.6
	C-2868.7,5750.7-2858.9,5746.3-2848.7,5748.9z"/>
<linearGradient id="SVGID_5_" gradientUnits="userSpaceOnUse" x1="3423.8584" y1="6471.4116" x2="3423.8584" y2="7750.9663" gradientTransform="matrix(0.9047 0 0 -0.9047 -368.5647 10202.8408)">
	<stop  offset="0" style="stop-color:#FFFFFF;stop-opacity:0"/>
	<stop  offset="0.325" style="stop-color:#D8EBEA;stop-opacity:0.325"/>
	<stop  offset="0.776" style="stop-color:#A6D2CE;stop-opacity:0.776"/>
	<stop  offset="1" style="stop-color:#93C8C4"/>
</linearGradient>
<path class="st8" d="M3602.3,3204.4v1145.1l-355-4.4l-844.9-10.5l-480.9-6l-60.2-0.7l-4.3-585.6l-0.8-275.4
	c-0.1-47.9-0.3-97.9-0.4-149.1c0-11.8-0.1-23.5-0.1-35.4l18.8,4l159.1,33.7c37.3,7.9,77.9,12,119.4,12.6c8.1,0.1,16.4,0.1,24.6-0.1
	c78.2-1.6,157.9-15.7,222.9-41l0.9-0.4c16.3-6.3,33.6-11.9,51.4-16.9c94.7-26.1,208.3-31.8,303.1-14.1l90.6,16.9
	c6.3,1.2,12.8,2.3,19.3,3.3c107.7,16.1,235.6,3.7,332.1-33l40.9-15.6c90.6-34.5,208.9-47.5,312.1-35.6c13.7,1.5,27,3.6,40.1,6.1
	L3602.3,3204.4z"/>
<g class="st9">
	<g class="st10">
		<g>
			
				<linearGradient id="SVGID_6_" gradientUnits="userSpaceOnUse" x1="3839.1895" y1="9731.6777" x2="3839.1895" y2="6303.5679" gradientTransform="matrix(0.9047 0 0 -0.9047 -368.5647 10202.8408)">
				<stop  offset="0" style="stop-color:#FFFFFF;stop-opacity:0"/>
				<stop  offset="0.325" style="stop-color:#D8EBEA;stop-opacity:0.325"/>
				<stop  offset="0.776" style="stop-color:#A6D2CE;stop-opacity:0.776"/>
				<stop  offset="1" style="stop-color:#93C8C4"/>
			</linearGradient>
			<polygon class="st11" points="3767.7,1355.3 3767.7,2754.6 3664.6,3096.3 3638.1,3196.3 3559.5,3493.6 3500.8,3715.5 
				3419.5,4023 3419.5,4023.1 3334.3,4345.1 3308.4,4443 2441.8,4443 2489.4,4334.6 2527.3,4248.6 2579,4130.9 2713.9,3824.1 
				2741.1,3762.3 2837.9,3542.2 2880.9,3444.5 2953,3280.5 3000.7,3172.2 3046.9,3067 3075.7,3001.5 3151.7,2828.8 3216.7,2680.7 
				3282.9,2529.9 3409.1,2242.9 3432.5,2189.9 3545.3,1933.5 3558.3,1903.8 3688.4,1608 			"/>
		</g>
	</g>
</g>
<image style="display:none;overflow:visible;enable-background:new    ;" width="3103" height="3103" xlink:href="nessy.png"  transform="matrix(9.933096e-02 0 0 9.933096e-02 3097.9939 3341.7144)">
</image>
<g class="st12">
	<g class="st10">
		<g>
			
				<linearGradient id="SVGID_7_" gradientUnits="userSpaceOnUse" x1="3542.5166" y1="10770.9199" x2="3542.5166" y2="6284.0879" gradientTransform="matrix(0.9047 0 0 -0.9047 -368.5647 10202.8408)">
				<stop  offset="0" style="stop-color:#FFFFFF;stop-opacity:0"/>
				<stop  offset="0.325" style="stop-color:#D8EBEA;stop-opacity:0.325"/>
				<stop  offset="0.776" style="stop-color:#A6D2CE;stop-opacity:0.776"/>
				<stop  offset="1" style="stop-color:#93C8C4"/>
			</linearGradient>
			<path class="st13" d="M3730.1,401.8v511.4l-0.4,0.7l-213.5,423.7l-43.3,86.2l-199,394.9L3042,2278.5l-32,63.5l-242.3,480.6
				l-135.6,268.9l-77.9,154.8l-14.2,28.2l-62,123l-68.1,135l-37.8,74.8l-61.6,122.1l-19.3,38.2l-19.7,39.1l-263.1,521.9l-43,85.2
				l-14.7,29h-1.6c-0.3-38.4-0.6-76.7-1-115.1c-0.1-14.7-0.3-29.6-0.4-44.3c-1-131.7-2.1-263.4-3.2-395.2
				c-0.3-28-0.5-79.1-0.7-146.1l-0.8-275.4c-0.1-47.9-0.3-97.9-0.4-149.1l14.3-23.9l4.4-7.4l150.9-253l128.8-215.9l23.2-39
				l192.2-322.5l191-320.2l39.6-66.4l189.1-317.4l94.3-157.5l57-95.6l4-6.9l199.7-334.9l416-697.6l33.1-55.5L3730.1,401.8z"/>
		</g>
	</g>
</g>
<linearGradient id="SVGID_8_" gradientUnits="userSpaceOnUse" x1="3424.1348" y1="6360.6318" x2="3424.1348" y2="7429.98" gradientTransform="matrix(0.9047 0 0 -0.9047 -368.5647 10202.8408)">
	<stop  offset="0" style="stop-color:#FFFFFF;stop-opacity:0"/>
	<stop  offset="0.325" style="stop-color:#D8EBEA;stop-opacity:0.325"/>
	<stop  offset="0.776" style="stop-color:#A6D2CE;stop-opacity:0.776"/>
	<stop  offset="1" style="stop-color:#93C8C4"/>
</linearGradient>
<path class="st14" d="M3602.3,3453v990h-1740c-0.3-38.4-0.6-76.7-1-115.1l-4.3-585.6l-0.8-275.4c98.1-33.9,215.9-31.7,311.9,8.1
	l18.1,7.5l71.1,29.4c20.9,8.7,42.9,15.6,65.5,20.6c95.7,21.7,202.3,11.7,287-29.3l41.9-20.3c43.2-20.8,91.9-33.7,142-38.4
	c71.9-6.8,146.6,3.1,211.4,30l91.1,37.9c108.3,45.1,244.6,42.6,349.3-6.3l26.9-12.6l14.5-6.8
	C3522.6,3470.1,3561.8,3458.9,3602.3,3453z"/>
<linearGradient id="SVGID_9_" gradientUnits="userSpaceOnUse" x1="3424.5769" y1="6164.5264" x2="3424.5769" y2="6767.7754" gradientTransform="matrix(0.9047 0 0 -0.9047 -368.5647 10202.8408)">
	<stop  offset="0" style="stop-color:#FFFFFF;stop-opacity:0"/>
	<stop  offset="0.325" style="stop-color:#D8EBEA;stop-opacity:0.325"/>
	<stop  offset="0.776" style="stop-color:#A6D2CE;stop-opacity:0.776"/>
	<stop  offset="0.9409" style="stop-color:#93C8C4"/>
</linearGradient>
<path class="st15" d="M3602.3,3809.4V4443h-1740c-0.3-38.4-0.6-76.7-1-115.1l-4.3-585.6c105.7,67.1,240.2,67.1,345.7,1.3
	c6-3.7,11.8-7.6,17.5-11.8l0.9-0.6c0.8-0.5,1.6-1.2,2.4-1.7c104.8-73.8,243.4-79.2,353.4-13.2l77.1,46.1l12.1,7.2
	c109.7,65.7,247.8,60.7,352.5-12.6l41.9-29.3c104.9-73.5,243.4-78.3,353.1-12.2c0.1,0.1,0.2,0.1,0.3,0.2l91.1,54.8
	C3535.7,3788.9,3568.5,3801.9,3602.3,3809.4z"/>
<path class="st16" d="M3418.8,3873.2c-12,12-28.6,20.1-56,21c-102.6,3.6-184.5,203-229.2,206.6c-12.2,1-75.1-2.1-144.2-8.1
	c-74.4-6.4-156-16.3-189.9-28.2c-45.1-15.7-137.9-64.7-190-78.5c-4.3-1.2-15.7-2.9-31.1-5c-52.7-7.1-151.5-18.2-166.5-21.6
	c-18.5-4.3-60.8-12.8-98.9-24.2c-3.2-42.2-11.9-159-22.4-317.4c-0.5-8-1.1-15.9-1.6-24.1c-5.2-78.9-59.1-1192.3-26.5-1299.6
	c45.4-145.9,334.9-111,355.9-175.6c35.5-34.4,163.6-256.9,208.5-285.7c21.4-26.3,49.6-45.8,74.6-68.4c5.7-5.2,11.2-10.5,16.5-16.1
	c36-38.2,57.8-87.8,79.1-136.2c21-1.6,42,1.4,63,4.6c28.4,4.3,25-8,52.7-14c14.8-3.3,12-34.5,14.1-35.4
	c11.1-34.4,49.5-27.5,51.5-77.8c-2-64.6-13.8-25.4-25.2-81.8c-0.9-4.3-12.7-22.3-30-39.6c17.1-55.8-38.8-122.4-20.1-134.1
	c19.8-91.1,4.6-131.5-2.3-140.8c4-15.1-12.7-90.9-44.4-108c-36.1-19.4-44-26.1-54.6-86.8c-16-30-12.8-110-36.8-136
	c-18.5-20-84.9-99-107.6-110.9c-41.8-22.1-55.5-76-102.8-90c-43.1-12.8-89.7-14-133.6-24.9c-29.6-7.3-60-11.9-90.5-10
	c-28.8,1.7-103.7-16.9-131.8-14.6c-70.3,5.8-103.9-72.3-171.4-33.3c-22.2,12.8-60.6,11.9-97.3,8.5c-36.7-3.3-55,9.7-78.3,25.8
	c-35.4,24.5-38.4,59.3-83.4,61.2c-52.8,2.4-138.1,74.5-80.5,270.9l38.7,636.1c44.4,66.9-47-6.5-47.5,48.3
	c-1.1,138.3,36.2,312.8,36.9,400.7c1.6,206.4,22.5,298.4,24.2,504.8c0.8,103.9,1.6,527.2,2.5,902.7c0,11.9,0.1,23.6,0.1,35.4
	c0.1,51.1,0.3,101.1,0.4,149.1l0.2,70.3c0.3,67,0.5,118.1,0.7,146.1c1.1,131.7,2.2,263.4,3.2,395.2c0.1,14.8,0.3,29.6,0.4,44.3
	c0.4,38.4,0.6,76.7,1,115.1h1740v-564.5C3446.8,3730.3,3463.2,3828.9,3418.8,3873.2z M2741.5,1646.3c14.6-23.3,88.7-14.2,115.3-19.2
	c13.3-2.5,89.3-43.3,87.5-15.8c-1.7,26.5-13.8,56-29.2,77.4c-27,37.3-76.9,42.4-112.8,82.4c-1.6,0.3-55.9,57.4-56.9,53.9
	c-3.3-11.7-12.2-121.6-13.1-134C2731,1675.4,2733,1659.9,2741.5,1646.3z M2181.3,1956.8c-46.8-61.3-50.6-203.9,26.6-342.2
	c23.2-41.5,53.6-68.6,86.7-85.8c36.4-18.9,68.5,19.1,105.7,17.6c60.8-2.4,95.9,25.8,112.4,31.2c8.4,20.1,18.6,35.6,23.7,40.2
	c9.7,8.8,22.4,13,34.7,17c2.3,0.7,4.5,1.6,6.6,2.5c49.6,21.9,29.4,95.5,71.4,56.8c16.5,28,27.7,62.5,25.8,95.4
	c-1.7,28,6.6,52-2.6,78.3c-7.5,21.5-130,96.7-152.3,112.1c-1.6,1.2-3.3,2.2-4.8,3.1c0.5,0.4,1.2,0.7,1.7,1.1c0,0-0.7,1-1.1,1.4
	c-0.7-0.5-1.4-1.1-2-1.6l-0.1-0.1C2484.1,2000.3,2260.5,2053.7,2181.3,1956.8z"/>
<path class="st17" d="M2468.4,1385.5"/>
<image style="display:none;overflow:visible;enable-background:new    ;" width="1536" height="2048" xlink:href="fairy-sit.png"  transform="matrix(0.1495 0 0 0.1495 2238.676 1789.5433)">
</image>
<image style="display:none;overflow:visible;enable-background:new    ;" width="2339" height="2113" xlink:href="rock_monster.png"  transform="matrix(0.2175 1.599462e-02 -1.599462e-02 0.2175 2268.8096 3604.1743)">
</image>
<image style="display:none;overflow:visible;enable-background:new    ;" width="3103" height="3103" xlink:href="mer-skull.png"  transform="matrix(0.1217 0 0 0.1217 3116.1887 3720.668)">
</image>
<g id="Layer_2_4_" transform="translate(-65.911)">
	<path id="Path_1_3_" class="st5" d="M1557.8-637.5c0.2,0,0.2,0,0.2-0.1C1557.9-637.6,1557.8-637.6,1557.8-637.5z M1557.7-637.5
		h-1.4C1556.8-637.4,1557.3-637.4,1557.7-637.5z M798.2-652.8c0.5,0.1,0.9,0.2,1.4,0.1L798.2-652.8z"/>
	<path id="Path_2_3_" class="st5" d="M1557.8-637.5c0.2,0,0.2,0,0.2-0.1C1557.9-637.6,1557.8-637.6,1557.8-637.5z M1557.7-637.5
		h-1.4C1556.8-637.4,1557.3-637.4,1557.7-637.5z M798.2-652.8c0.5,0.1,0.9,0.2,1.4,0.1L798.2-652.8z"/>
	<path id="Path_3_3_" class="st5" d="M1604.6-2748.6c5.7,9.4,9.9,19.2,9.5,30.4c-0.4,6.6-0.4,13.3,0.1,19.9
		c1,11.1,2.8,22.1,3.9,33.2c0.6,7.1,1.4,14.2,1,21.3c-0.4,5.3-0.5,10.7-0.5,15.9c10.5-18.1,21.3-36.1,21.7-55
		C1640.9-2706.9,1622.8-2727.5,1604.6-2748.6L1604.6-2748.6z M1584.9-2249.1c0.5-16.8,1-33.3,1.5-49.2c1.9-54.8,3.9-104.7,6.2-147.7
		c-7.6,4-16.6,7.1-27,8.9c-9,1.4-18.3,1.6-26.8,4.9c-12,4.5-21.2,14.5-32,21.3c-18.7,11.8-41.6,13.8-63.5,15.5
		c-31.3,2.4-59.9,6.8-88.7,8.2c6.2,36.1,12,74.9,17.3,115.9c12.2,94.9,21.8,201.5,29.2,312.1 M1903.9-2879.3
		c-11,33.5-31,63.1-61.2,84.1c-9.9,6.9-70.7,38.6-71.1,6.5c-0.5-34.1,0.3-68.2,0.9-102.3c0.3-16.8,0.6-33.7,0.8-50.5
		c0.2-17.5,1.4-35.5-2.2-52.6c14.1-3.3,29.8-0.9,43.3,3.7c10.9,3.7,21.4,9.8,33.2,9.8c7.1,0,64.8-16.6,65.9-2.2
		C1916.5-2948.4,1914.8-2912.3,1903.9-2879.3z M1487-3015.9c27-12.7,20.8,12.1,21.2,20.5c0.7,19.6-11.2,35.5-16.7,54.4
		c-1.5,5.2-3.2,10.2-4.8,15.3c-7.1,21.2-14.2,41.2-11.5,63.8c3.5,29.3,16.6,58.1,34.1,85.9c10.7,16.8,23,34.3,29,51.7
		c3.2,9.2,4.6,18.4,3.1,27.5c-0.8,5-2.5,9.9-5,14.3c-5.5,10.2-15.5,19.5-25.2,28.8c-9,8.5-18.2,17-30.1,24.3c-2,1.2-4.1,2.4-6.2,3.4
		c-5.7,2.8-12.2,5.1-19.7,5.8c-18.7,1.8-35.6-6.7-44.9-15.7c-18.8-18.6-18.8-40.9-26.6-61.8c-5.5-14.7-15.1-28.9-21.9-43.4
		c-12.8-27.4-15.9-56.1-9.1-84.2c5-20.6,17.1-40.6,18-61.5c0.9-21-7.1-42.7-11.3-63.6c-1.4-7.2-2.6-15.2,4.7-21.3
		c6.4-5.3,17.8-8,28.3-10.7c6.2-1.5,12.2-3.2,18.2-4.9C1437.8-2995.3,1463.5-3004.9,1487-3015.9L1487-3015.9z M1045.7-2907.8
		c10.4-10.7,31.2-14.5,18.5-29.4c-2.8-3.3-7.3-6.4-6.9-10c0.6-5,10.2-7.9,17.9-10.6c13.7-4.8,24.9-11.7,32-19.5
		c4.3-4.8,9.3-10.9,19.2-11.2c6.8-0.2,12.8,2.8,15.3,6.3c11.3,16.4,3.3,38.5,7.1,55.9c3.3,15.6,16.1,30,30.8,43.2
		c30,27.1,74,50.7,94.7,80.7c24.8,35.8,12.9,75.6,0.8,113.3c-1.2,4-5.1,6.6-9.2,6.2c-1.9-0.3-3.6-0.9-5.2-1.9
		c-42.7-24.3-61-54.4-78.6-85.9c-21.5-38.2-59.5-72.1-99.2-105.5c-3-2.5-6.2-4.9-9.5-7.2c-8-6-16.2-11.6-24.9-17.3
		c-1.6-1.1-3.4-2.3-3.9-3.7C1044.1-2905.5,1044.5-2906.7,1045.7-2907.8L1045.7-2907.8z M1220.9-2893.5
		c-12.3-9.3-17.6-20.8-22.5-31.9l-15.3-33.8c-1.8-3.5-12.6-9-10.2-13.1c1-1.6,2.5-2.9,4.3-3.6c8.1-3.3,22.8,1.4,31.5,2.2
		c10.3,0.8,25.1-1.9,34-4.6c15.5-4.7,30.8-12.5,42.9-19.5c25.3-14.8,43.2,49.5,41.4,58.7c-4.3,21.8-15,43.6-21.9,65.2
		c-0.5,1.7-1.2,3.5-3.4,4.8c-2.1,1.2-5.2,1.5-8.1,1.7C1266-2865.8,1235.8-2882.2,1220.9-2893.5z M826.3-2700.9
		c-4.9-5.1-6.9-10.6-8-16.2c-0.2-0.9-0.5-1.8-1.1-2.7c-1.2-2.3-2.4-4.6-3.7-6.9c-2-3.4-4-7-6.2-10.4c-1.4-2.3-3.2-4.4-4.6-6.8
		c-0.4-0.8-0.6-1.7-0.6-2.7c-0.4-1.7,0.1-3.6-1.1-5.1c-4.9-6.2-5.6-12.9-8.9-19.3c-1.4-2.9-1.9-5.9-2.9-8.8c-0.2-0.7-0.5-1.4-0.8-2
		c-3.6-5.5-6.1-11.7-7.1-18.2c-1.2-7.8-3.5-15.6-5.2-23.2c-0.7-3.1-0.3-6.3-1.7-9.2c-3.2-6.5-3.5-13.3-6.2-19.9
		c-2.4-6-2.6-12.3-3.8-18.5c-0.9-4.6-1.9-9.1-2.7-13.8c-1-5.2-2.2-10.5-2.5-15.7c-0.4-6.5,0.3-13-0.5-19.5c-0.3-2.1-1.4-3.2-5.5-3.8
		c-4.5-0.7-9.1-1.6-11.9-4.2c-3.3-3.1-1.9-5.1,4.4-5.8c3.1-0.4,6.3-0.4,9.4-0.7c3.3-0.4,6.4-0.8,9.6-1.5c2.8-0.6,5.7-0.6,8.6,0
		c2.6,0.6,5.2,1,7.9,1.3c10.5,0.4,8.5,1.2,13-3.6c6.9-7.2,22-12.3,38.2-11.6c2.5,0.1,5.1,0.1,7.5-0.1c3.2-0.3,6.1-0.5,9.2,0.4
		c3,0.8,5.5-0.1,7.9-1.3c4.9-2.5,9.9-5,15.1-7.3c4.6-2,11.7-1.8,16.3,0.2c5.5,2.4,10.8,4.7,14.7,8c3.5,2.8,6.3,6.3,8.3,10.4
		c1.2,2.4,2.4,4.5,7,5.8c1.4,0.5,2.6,1.6,3.1,3.2c1.6,6.1,3.1,12,4.4,18.1c0.7,3.5,1.7,7,1.5,10.6c-0.2,2.9,1.7,6.1,2,9.1
		c0.5,6.2,1.4,12.4,2.3,18.6c0.3,2.1,1,4.1,1.4,6.2c1.1,4.9,3.3,9.9,3,14.7c-0.3,5.2,3.5,9.9,3.3,14.8c0,1.2,0.3,2.3,0.3,3.4
		c-0.2,5.2-0.5,10.3-0.7,15.5c0,0.4-0.2,0.7,0,1c3.6,5.6,1.5,11.4,0.9,17c-0.5,4.6-0.9,9.1,0.6,13.8c1.4,4.5,3.3,9,1.8,13.7
		c-0.5,1.6,0.8,3.3,1.1,5.1c0.9,6.1,1.8,12.1,2.4,18.3c-0.1,1.2-0.8,2.7-1.4,4.2c-3.1,7.1-6.2,14.1-9.4,21.2
		c-2.4,5.1-5.2,10.1-7.6,15.3c-1,2-1.7,4.2-2.2,6.4c-0.9,4.6-2.7,8.9-5.4,12.8c-1.1,1.5-1.1,3.3-1.9,5.1c-3,5.6-5.3,11.4-9.5,16.7
		c-2.6,3.3-7.2,6.6-12.4,9c-6.9,3.2-15,5.5-22.9,8c-10.5,3.3-21.9-0.5-21.8-8.4c-1-2.1-1.7-5.8-4.5-8.9c-4.8-5.3-8.1-10.8-9.2-16.6
		c-0.1-0.6-0.8-1.3-1.4-1.9c-2.1-2.5-4.3-5-6.2-7.5C828.8-2697.3,828-2699.2,826.3-2700.9L826.3-2700.9z M1408.1-700.9l2.4,0.1
		C1409.7-700.8,1408.9-700.8,1408.1-700.9z M1380.3-781.8c-44.7,28.8-197.6,68.5-213.8,22.3c-17.1-54.4-95.3-1148.8-105.4-1227.3
		c-5.2-40.7-10.4-81-15.3-120.4c-14.7-118.4-27.7-230-37.6-325.6c-10.7-101.4-18-184.9-20.8-240.1c-3.4-68.7-23.6-158,20.3-223.7
		c53.2,37.8,93.1,81.3,117,127.1c12.3,23.6,20.6,48,42.2,69.6c23.4,23.2,60.7,41.1,94.3,60.2c35.2,20.1,63.3,98.3,85.7,211.1
		c2.6,13.3,5.2,27,7.7,41.2c6.2,36.1,12,74.9,17.3,115.9c12.2,94.9,21.8,201.5,29.2,312.1c3.6,53.6,14.6,925.2,15.9,971.6
		C1425.5-871,1396.2-786.1,1380.3-781.8z M1719.1-886.8c-4.3,36.4-134.3,122.2-140.8,83.9c-4-23.8-6-832.7-5.6-1061.8
		c0.1-74.5,0.5,986.3,1.1,903.7c0.5-57.3,1-749.7,1.7-808.2c2-168.9,5.1-337.8,9.3-479.8c0.5-16.8,1-33.3,1.5-49.2
		c1.9-54.8,3.9-104.7,6.2-147.7c4.9-92.4,10.7-153.9,17.5-166.8c12.8-24.5,32.7-48.4,29.2-78c-2.3-18.4-13.6-33.9-25.6-47.4
		c-23.1-26-41.3-54.8-62.7-81.9c-7.7-9.8-18.3-18.9-19.2-32.2c-1.9-27.6-0.9-56.6,1.8-84.7c2.1-21.9,4.9-46.7,23.7-61.1
		c11.7-8.9,17,1.5,26.7-0.3c11.5-2.2,17.6-5.2,27.4-11.6c13.3-8.7,37.5-2,47-10.5c4.3-3.8,5.9-8.5,12-11.4c10-4.9,27.1-1.8,34.7,4.3
		s8.4,13.8,8.8,21.2c0.2,3.2,0.4,6.2,0.5,9.4c3.6,80.5-2.2,161.2,10.1,241.5c8,51.9,23.3,103.9,18.5,155.8c0,0.5-0.1,5.6-0.1,14.8
		c-0.2,57.7-0.1,274.1,1.2,476.9c0.4,61.6,0.8,122,1.4,176.3C1746.2-1882.1,1721.4-906.2,1719.1-886.8z M2034.6-852.1
		c-81.9-22.5-137.3-39.3-137.5-43.3c-3.3-61.5-9-633-14.5-1048c-1.2-85.5-2.3-169.6-3.3-249c-3.4-251.2-6.6-453.9-8.8-493.9
		c-1-18.5-1.9-37.2,7.1-54.8c7.3-14.7,21.3-28.1,32.3-42.2c35.3-44.9,39.6-94,47.1-141.9c0.7-4.6,2.3-9.1,3.3-13.7
		c3.3-13.4,47.9-23.1,65-31.8c9-4.7,17.7-10,26-16v-439c-2-0.2-4-0.5-6-0.6c-16.6-1.5-33.1-3.4-49.6-5.2c-1.3-0.2-2.5-0.3-3.8-0.5
		c-0.6-0.1-1.3-0.1-1.9-0.1c-7.8,0.7-14.7-1.3-21.2-2.7c-8.2-1.8-16.6-2.8-25.1-2.8c-5.1,0-10.2,0.3-15.2-0.1
		c-2.9-0.4-5.8-0.2-8.6,0.4c-19.9,5-44.3,7.1-65.8,11.7c-6.2,1.3-12.4,1.7-18.6,1.3c-8.4-0.5-25.9,0.5-32.9-2
		c-8.7-3-5.4-9-14.4-12.6c-6.2-2.4-14-3.1-21.5-3.5c-37-2.4-75.9-2.5-112,3.1c-33,5.2-69.9,28.2-104.8,24.2c-6.3-0.7-13-0.5-19.5-1
		c-3.1-0.4-6.2-0.2-9.1,0.6c-2.2,0.5-4.4,0.8-6.7,0.7c-25-0.7-39.3,8-62.9,10.5c-0.9,0.2-1.8,0.5-2.6,0.9c-1.7,0.5-3.4,0.9-5.2,1.3
		c-3.5,0.7-7.2,1.3-10.8,2c-5.3,1.2-10.5,2.4-15.7,3.6c-47.6,10.7-93,21-129.4,41.6c-16.6,9.5-51,6.2-61.6,2.2
		c-10.5-4.1-24.6-3.9-37.4-3c-33.2,2.4-65.6,8.5-94.4,17.7c-7.8,2.5-15.7,5.3-24.7,5.6c-6,0.2-11.9-0.7-17.7-1.5
		c-60-8.1-126.8,0.8-173.2,23.1c-4.6,2.3-9.4,4.9-9.9,8.3c-0.4,2.4,1.7,4.8,2.8,7.2c6.2,13.8-19,25.1-41.1,32.7
		c-5.2,1.9-10.5,3.3-15.9,4.3c-3,0.4-6.1,0.5-9.1,0.6c-3.1,0.1-6.2,0.1-9.1,0.1c-47.8,0.1-99.3,13-127.9,34.3
		c-26.1,19.4,1.1,51.5-36.6,65.9c-15.9,6.1-35.9,9.9-46.9,18.6c-4.7,3.7-9.8,8.9-17.9,8.1c-4.1-0.4-7.2-2.2-11.3-2.7
		c-10.5-1.4-16.4,6-22,11c-13.7,12.1-44.6,15.1-61.2,26.1c-17.7,11.9-13.9,29-9.2,44c6.5,20.7,13.8,42.2,37.7,58.7
		c21.8,15,54.6,23.8,86.3,31.9c26.2,6.8,52.7,17.1,81.3,18.8c3.3,0.2,5.6,1.1,6.6,2.8c1.3,2.2,2.3,4.4,3.5,6.6
		c0.9,1.7,2.2,3.3,3.5,4.7c2.5,2.4,4.6,4.6,4.3,7.5c-0.1,0.9-0.1,1.8,0.2,2.7c23.4,91.6,23.2,186.7,95,272.8
		c12.5,14.9,26.9,29.5,37,44.9c2,3.1,6.1,74.6,10.9,187.8c0.4,8.5,0.7,17.3,1.1,26.2c3,73.4,6.3,161.8,9.5,258.9
		c4.7,141.8,9.3,936.5,12.9,1096.7c3.1,135.8,7.2,106.1,5.6,190.8c-0.1,3.1-0.1,6.2-0.2,9.3c-2.5,116.4-6.9,109.5-16.6,123.8
		c-7.1,10.3-120.1,135.3-108.8,161c15.6,1.2,44.7-4.3,116.6-32.3l0.9-0.4c102.6-39.8,241.9-52,354.6-31l90.6,16.9
		c111.5,20.8,249.1,9.1,351.4-29.8l40.9-15.6c102.6-39,240.6-50.6,352.2-29.6l11,2.1v-181.4C2045.8-849,2040.1-850.6,2034.6-852.1z"
		/>
	<path id="Path_6_3_" class="st5" d="M1015.5-787"/>
	<path id="Path_7_3_" class="st5" d="M1034.7-794.7"/>
</g>
<linearGradient id="SVGID_10_" gradientUnits="userSpaceOnUse" x1="-2148.4861" y1="3992.0359" x2="-2148.4861" y2="4464.2847" gradientTransform="matrix(0.9047 0 0 -0.9047 -368.5647 10202.8408)">
	<stop  offset="0" style="stop-color:#FFFFFF;stop-opacity:0"/>
	<stop  offset="0.325" style="stop-color:#D8EBEA;stop-opacity:0.325"/>
	<stop  offset="0.776" style="stop-color:#A6D2CE;stop-opacity:0.776"/>
	<stop  offset="1" style="stop-color:#93C8C4"/>
</linearGradient>
<path class="st18" d="M-2092.2,6155.8l-0.8,433l-438.6-4.9c-0.1-14.7,0.6-79.7,0.5-94.4l-1.1-228.3l-0.2-105.1
	c24.7-12.9,54.4-12.1,78.6,3.1l4.5,2.9l17.9,11.2c5.2,3.3,10.8,5.9,16.5,7.9c24.2,8.3,51,4.4,72.4-11.2l10.6-7.7
	c10.9-7.9,23.2-12.8,35.8-14.7c18.1-2.6,37,1.1,53.3,11.5l23,14.4c27.3,17.2,61.7,16.3,88-2.4l6.8-4.8l3.6-2.6
	C-2112.3,6157.6-2102.4,6153.2-2092.2,6155.8z"/>
<linearGradient id="SVGID_11_" gradientUnits="userSpaceOnUse" x1="-2945.2695" y1="3992.6838" x2="-2945.2695" y2="4648.9609" gradientTransform="matrix(0.9047 0 0 -0.9047 -368.5647 10202.8408)">
	<stop  offset="0" style="stop-color:#FFFFFF;stop-opacity:0"/>
	<stop  offset="0.325" style="stop-color:#D8EBEA;stop-opacity:0.325"/>
	<stop  offset="0.776" style="stop-color:#A6D2CE;stop-opacity:0.776"/>
	<stop  offset="1" style="stop-color:#93C8C4"/>
</linearGradient>
<path class="st19" d="M-2846.7,6003.5v587.8l-75.8-2.1l-179.1-10.5l-104,2.7l-12.8-45.1l-0.9-280.6l-0.2-129.1
	c0-22.5-0.1-45.9-0.1-69.9c0-5.5,0-11,0-16.6l4,1.9l33.9,15.8c8,3.7,16.6,5.7,25.5,5.9c1.7,0.1,3.5,0.1,5.2-0.1
	c16.6-0.8,33.7-7.4,47.6-19.2l0.2-0.2c3.4-3,7.1-5.6,10.9-8c20.3-12.2,44.5-14.9,64.7-6.6l19.4,8c1.4,0.6,2.7,1,4.1,1.5
	c23,7.5,50.3,1.7,70.9-15.5l8.7-7.3c19.4-16.2,44.6-22.3,66.6-16.7c2.9,0.7,5.8,1.7,8.6,2.8L-2846.7,6003.5z"/>
<linearGradient id="SVGID_12_" gradientUnits="userSpaceOnUse" x1="-2148.4309" y1="3913.9465" x2="-2148.4309" y2="4156.1973" gradientTransform="matrix(0.9047 0 0 -0.9047 -368.5647 10202.8408)">
	<stop  offset="0" style="stop-color:#FFFFFF;stop-opacity:0"/>
	<stop  offset="0.325" style="stop-color:#D8EBEA;stop-opacity:0.325"/>
	<stop  offset="0.776" style="stop-color:#A6D2CE;stop-opacity:0.776"/>
	<stop  offset="0.9409" style="stop-color:#93C8C4"/>
</linearGradient>
<path class="st20" d="M-2092.2,6326.1v262.3l-438.7-4c-0.1-12.1-0.2-81.9-0.3-94l-1.1-189.6c26.6,21.3,60.5,21.3,87.1,0.4
	c1.5-1.2,3-2.4,4.4-3.7l0.3-0.2c0.2-0.2,0.5-0.4,0.6-0.5c26.4-23.4,61.3-25.1,89.1-4.2l19.5,14.6l3.1,2.3
	c27.7,20.8,62.5,19.2,88.9-4l10.6-9.3c26.4-23.3,61.3-24.8,89-3.9h0.1l23,17.3C-2109.1,6315.6-2100.7,6319.7-2092.2,6326.1z"/>
<linearGradient id="SVGID_13_" gradientUnits="userSpaceOnUse" x1="-2936.9797" y1="3591.1162" x2="-2936.9797" y2="4447.0254" gradientTransform="matrix(0.9047 0 0 -0.9047 -368.5647 10202.8408)">
	<stop  offset="0" style="stop-color:#FFFFFF;stop-opacity:0"/>
	<stop  offset="0.325" style="stop-color:#D8EBEA;stop-opacity:0.325"/>
	<stop  offset="0.776" style="stop-color:#A6D2CE;stop-opacity:0.776"/>
	<stop  offset="0.9409" style="stop-color:#93C8C4"/>
</linearGradient>
<path class="st21" d="M-2798.6,5644.6l-15.4,1049.7l-438.7-4c-0.1-12.1,15.2-869.2,15.1-881.4l-1.1-189.6
	c26.6,21.3,60.5,21.3,87.1,0.4c1.5-1.2,3-2.4,4.4-3.7l0.3-0.2c0.2-0.2,0.5-0.4,0.6-0.5c26.4-23.4,61.3-25.1,89.1-4.2l19.4,14.6
	l3.1,2.3c27.7,20.8,62.5,19.2,88.9-4l10.6-9.3c26.4-23.3,61.3-24.8,89-3.9h0.1l23,17.3C-2815.5,5634.1-2807.1,5638.2-2798.6,5644.6z
	"/>
<linearGradient id="SVGID_14_" gradientUnits="userSpaceOnUse" x1="-2205.1899" y1="3921.1294" x2="-2205.1899" y2="4077.929" gradientTransform="matrix(0.9047 0 0 -0.9047 -368.5647 10202.8408)">
	<stop  offset="0" style="stop-color:#FFFFFF;stop-opacity:0"/>
	<stop  offset="0.325" style="stop-color:#D8EBEA;stop-opacity:0.325"/>
	<stop  offset="0.776" style="stop-color:#A6D2CE;stop-opacity:0.776"/>
	<stop  offset="0.9409" style="stop-color:#93C8C4"/>
</linearGradient>
<path class="st22" d="M-2177.3,6440.5v167.4l-371.5-2.8c-0.1-8.5-0.1-41.6-0.2-50.1l-0.9-132.1c22.5,14.8,51.3,14.8,73.8,0.3
	c1.3-0.8,2.5-1.7,3.7-2.6l0.2-0.1c0.2-0.1,0.4-0.3,0.5-0.4c22.3-16.3,51.9-17.5,75.4-2.9l16.5,10.2l2.6,1.6
	c23.4,14.5,52.9,13.4,75.3-2.8l9-6.5c22.4-16.2,51.9-17.3,75.4-2.7c0,0,0,0,0.1,0l19.4,12.1
	C-2191.5,6433.2-2184.5,6436-2177.3,6440.5z"/>
<path class="st23" d="M-2247.9,6515.7c-3.3,3.3-8.1,5.6-15.7,5.9c-28.8,1-51.8,57-64.4,58c-3.4,0.3-21.1-0.5-40.5-2.3
	c-20.9-1.8-43.8-4.6-53.3-8c-12.7-4.4-104.2-64.8-107.1-109.3c-0.2-2.3,21.2-7594.2,30.3-7624.3c12.8-41,153-67,158.9-85.1
	c10-9.7,46-72.2,58.5-80.2c6.1-7.4,13.9-12.8,21-19.2c1.6-1.4,3.2-3,4.6-4.5c10.1-10.8,16.2-24.6,22.2-38.3
	c5.9-0.5,11.8,0.4,17.6,1.3c8,1.2,7.1-2.3,14.8-4c4.2-0.9,3.3-9.7,4-10c3.2-9.7,13.9-7.7,14.5-21.9c-0.5-18.2-3.9-7.1-7.1-23
	c-0.3-1.2-3.5-6.2-8.4-11.1c4.8-15.7-10.4-22.2-5.2-25.4c-8.1-24.2-20.2-16.2-24.8-25.1c-10.6-20.1-21.7-10.1-28-13.5
	c-11.8-6.2-14.4-16.5-27.7-20.4c-12.1-3.6-18.4,2-30.7-1.1c-8.3-2.1-24.1-12.3-32.7-11.8c-8.1,0.5-1.4-3.1-9.3-2.4
	c-19.7,1.9-29.1-20.1-48.1-9c-6.2,3.6-17,3.3-27.3,2.4s-15.5,2.7-22,7.2c-10,6.9-10.8,16.6-23.4,17.2c-14.8,0.6-48.9-7.6-32.8,47.5
	l-3.6,59c12.5,18.8-13.2-1.8-13.3,13.6c-0.3,38.8,10.1,87.8,10.4,112.5c0.4,58-25.1,7363.2-24.6,7421.2
	c0.3,29.2,0.5,148.1,0.7,253.5c0,3.3,0,6.6,0,10c0,14.4,0.1,28.4,0.1,41.9l0.1,19.7c0.1,18.8,0.1,33.2,0.2,41.1
	c0.3,37,0.6,74,0.9,111c0,4.2,0.1,8.3,0.1,12.5c0.1,10.8,0.9-5.3,1,5.4h366.7l-0.7-131.6C-2240,6475.5-2235.4,6503.2-2247.9,6515.7z
	 M-2305.2-1382c4.1-6.5,24.9-4,32.4-5.4c3.7-0.7,25.1-12.2,24.6-4.4c-0.5,7.4-3.9,15.7-8.2,21.7c-7.6,10.5-21.6,11.9-31.7,23.2
	c-0.5,0.1-15.7,16.1-16,15.1c-0.9-3.3-3.4-34.1-3.7-37.6C-2308.2-1373.8-2307.6-1378.2-2305.2-1382z M-2442.1-1302
	c-13.1-17.2-14.2-57.3,7.5-96.1c6.5-11.7,15-19.3,24.3-24.1c10.2-5.3,19.3,5.3,29.7,5c17.1-0.6,6.5,14.5,11.2,16
	c2.4,5.6,5.2,10,6.7,11.3c2.7,2.4,6.3,3.6,9.8,4.8c0.6,0.2,1.3,0.5,1.9,0.7c13.9,6.2,8.2,26.9,20.1,15.9c4.6,7.9,7.8,17.6,7.2,26.8
	c-0.5,7.9,1.8,14.6-0.7,22c-2.1,6.1-36.5,27.1-42.8,31.5c-0.5,0.4-0.9,0.6-1.4,0.9c0.2,0.1,0.4,0.2,0.5,0.3c0,0-0.2,0.3-0.3,0.4
	c-0.2-0.2-0.4-0.3-0.5-0.5l0,0C-2377.5-1282.5-2419.9-1274.8-2442.1-1302z"/>
<linearGradient id="SVGID_15_" gradientUnits="userSpaceOnUse" x1="-1121.1289" y1="3923.4121" x2="-1121.1289" y2="4582.2656" gradientTransform="matrix(0.9047 0 0 -0.9047 -368.5647 10202.8408)">
	<stop  offset="0" style="stop-color:#FFFFFF;stop-opacity:0"/>
	<stop  offset="0.325" style="stop-color:#D8EBEA;stop-opacity:0.325"/>
	<stop  offset="0.776" style="stop-color:#A6D2CE;stop-opacity:0.776"/>
	<stop  offset="1" style="stop-color:#93C8C4"/>
</linearGradient>
<path class="st24" d="M-1196.4,6064.5V6654l-75.8-2.3l-180.4-5.3l-102.7-3.1l-12.8-0.4l-0.9-304.6l-0.2-140.2
	c0-24.4-0.1-49.8-0.1-75.9c0-6,0-11.9,0-18l4,2l34,17.2c8,4,16.6,6.2,25.5,6.4c1.7,0.1,3.5,0.1,5.2-0.1c16.7-0.8,33.7-8.1,47.6-20.9
	l0.2-0.2c3.4-3.3,7.1-6.1,10.9-8.6c20.3-13.3,44.5-16.2,64.8-7.1l19.4,8.6c1.4,0.6,2.7,1.2,4.1,1.6c23,8.2,50.3,1.9,70.9-16.8l8.8-8
	c19.4-17.6,44.6-24.2,66.7-18.2c2.9,0.8,5.8,1.8,8.6,3.1L-1196.4,6064.5z"/>
<linearGradient id="SVGID_16_" gradientUnits="userSpaceOnUse" x1="-1121.1841" y1="3889.1108" x2="-1121.1841" y2="4366.1318" gradientTransform="matrix(0.9047 0 0 -0.9047 -368.5647 10202.8408)">
	<stop  offset="0" style="stop-color:#FFFFFF;stop-opacity:0"/>
	<stop  offset="0.325" style="stop-color:#D8EBEA;stop-opacity:0.325"/>
	<stop  offset="0.776" style="stop-color:#A6D2CE;stop-opacity:0.776"/>
	<stop  offset="1" style="stop-color:#93C8C4"/>
</linearGradient>
<path class="st25" d="M-1196.5,6245.8v436l-371.5-5.6c-0.1-16.9-0.1-28.2-0.2-45.1l-0.9-263.5l-0.2-121.3
	c20.9-14.9,46.1-13.9,66.6,3.5l3.9,3.3l15.2,12.9c4.4,3.8,9.1,6.9,14,9c20.4,9.6,43.2,5.2,61.3-12.9l9-9
	c9.2-9.1,19.6-14.8,30.3-16.9c15.4-3,31.3,1.4,45.1,13.2l19.5,16.7c23.2,19.8,52.2,18.7,74.6-2.8l5.7-5.5l3.1-3
	C-1213.5,6247.8-1205.2,6242.8-1196.5,6245.8z"/>
<linearGradient id="SVGID_17_" gradientUnits="userSpaceOnUse" x1="-1121.1289" y1="3760.7305" x2="-1121.1289" y2="4030.8164" gradientTransform="matrix(0.9047 0 0 -0.9047 -368.5647 10202.8408)">
	<stop  offset="0" style="stop-color:#FFFFFF;stop-opacity:0"/>
	<stop  offset="0.325" style="stop-color:#D8EBEA;stop-opacity:0.325"/>
	<stop  offset="0.776" style="stop-color:#A6D2CE;stop-opacity:0.776"/>
	<stop  offset="0.9409" style="stop-color:#93C8C4"/>
</linearGradient>
<path class="st26" d="M-1196.5,6439.5v279.1l-371.6-5.5c-0.1-16.9-0.1-28.2-0.2-45.1l-0.9-263.5c22.5,29.6,51.3,29.6,73.8,0.5
	c1.3-1.6,2.5-3.3,3.7-5.2l0.2-0.3c0.2-0.3,0.4-0.5,0.5-0.7c22.3-32.5,51.9-34.8,75.4-5.8l16.5,20.4l2.6,3.2
	c23.4,28.9,52.9,26.8,75.3-5.5l9-12.9c22.4-32.4,51.9-34.5,75.4-5.3c0,0,0,0,0.1,0.1l19.5,24.2
	C-1210.7,6424.9-1203.8,6430.6-1196.5,6439.5z"/>
<path class="st23" d="M-1288.5,6515.7c-3.3,3.3-8.1,5.6-15.7,5.9c-28.8,1-51.8,57-64.4,58c-3.4,0.3-21.1-0.5-40.5-2.3
	c-20.9-1.8-43.8-4.6-53.3-8c-12.7-4.4-104.2-64.8-107.1-109.3c-0.2-2.3,21.2-7594.2,30.3-7624.3c12.8-41,153-67,158.9-85.1
	c10-9.7,46-72.2,58.5-80.2c6.1-7.4,13.9-12.8,21-19.2c1.6-1.4,3.2-3,4.6-4.5c10.1-10.8,16.2-24.6,22.2-38.3
	c5.9-0.5,11.8,0.4,17.6,1.3c8,1.2,7.1-2.3,14.8-4c4.2-0.9,3.3-9.7,4-10c3.2-9.7,13.9-7.7,14.5-21.9c-0.5-18.2-3.9-7.1-7.1-23
	c-0.3-1.2-3.5-6.2-8.4-11.1c4.8-15.7-10.4-22.2-5.2-25.4c-8.1-24.2-20.2-16.2-24.8-25.1c-10.6-20.1-21.7-10.1-28-13.5
	c-11.8-6.2-14.4-16.5-27.7-20.4c-12.1-3.6-18.4,2-30.7-1.1c-8.3-2.1-24.1-12.3-32.7-11.8c-8.1,0.5-1.4-3.1-9.3-2.4
	c-19.7,1.6-29.1-20.3-48.1-9.3c-6.2,3.6-17,3.3-27.3,2.4s-15.5,2.7-22,7.2c-10,6.9-10.8,16.6-23.4,17.2
	c-14.8,0.6-48.9-7.6-32.8,47.5l-3.6,59c12.5,18.8-13.2-1.8-13.3,13.6c-0.3,38.8,10.1,87.8,10.4,112.5
	c0.5,58-25.1,7363.2-24.5,7421.2c0.3,29.2,0.5,148.1,0.7,253.5c0,3.3,0,6.6,0,10c0,14.4,0.1,28.4,0.1,41.9l0.1,19.7
	c0.1,18.8,0.1,33.2,0.2,41.1c0.3,37,0.6,74,0.9,111c0,4.2,0.1,8.3,0.1,12.5c0.1,10.8,0.9-5.3,1,5.4h366.7l-0.7-131.6
	C-1280.6,6475.5-1276,6503.2-1288.5,6515.7z M-1345.8-1382c4.1-6.5,24.9-4,32.4-5.4c3.7-0.7,25.1-12.2,24.6-4.4
	c-0.5,7.4-3.9,15.7-8.2,21.7c-7.6,10.5-21.6,11.9-31.7,23.2c-0.5,0.1-15.7,16.1-16,15.1c-0.9-3.3-3.4-34.1-3.7-37.6
	C-1348.7-1373.8-1348.2-1378.2-1345.8-1382z M-1482.7-1302c-13.1-17.2-14.2-57.3,7.5-96.1c6.5-11.7,15-19.3,24.3-24.1
	c10.2-5.3,19.3,5.3,29.7,5c17.1-0.6,6.5,14.5,11.2,16c2.4,5.6,5.2,10,6.7,11.3c2.7,2.4,6.3,3.6,9.8,4.8c0.6,0.2,1.3,0.5,1.9,0.7
	c13.9,6.2,8.2,26.9,20.1,15.9c4.6,7.9,7.8,17.6,7.2,26.8c-0.5,7.9,1.8,14.6-0.7,22c-2.1,6.1-36.5,27.1-42.8,31.5
	c-0.5,0.4-0.9,0.6-1.4,0.9c0.2,0.1,0.4,0.2,0.5,0.3c0,0-0.2,0.3-0.3,0.4c-0.2-0.2-0.4-0.3-0.5-0.5l0,0
	C-1418.1-1282.5-1460.4-1274.8-1482.7-1302z"/>
<path d="M-1619.6,1533.9"/>
<linearGradient id="SVGID_18_" gradientUnits="userSpaceOnUse" x1="997.7503" y1="6547.7983" x2="997.7503" y2="7841.2803" gradientTransform="matrix(0.9047 0 0 -0.9047 -368.5647 10202.8408)">
	<stop  offset="0" style="stop-color:#FFFFFF;stop-opacity:0"/>
	<stop  offset="0.325" style="stop-color:#D8EBEA;stop-opacity:0.325"/>
	<stop  offset="0.776" style="stop-color:#A6D2CE;stop-opacity:0.776"/>
	<stop  offset="1" style="stop-color:#93C8C4"/>
</linearGradient>
<path class="st27" d="M1189.7,3122.7v1157.8l-266.5-4.4l-634.3-10.5l-361-6l-45.2-0.7l-3.2-598.2l-0.6-275.4
	c-0.1-47.9-0.2-97.9-0.3-149.1c0-11.8-0.1-23.5-0.1-35.4l14.1,4L12,3238.5c28,7.9,58.4,12,89.7,12.6c6.2,0.1,12.3,0.1,18.5-0.1
	c58.7-1.6,118.5-15.7,167.4-41l0.7-0.4c12.2-6.3,25.2-11.9,38.5-16.9c71.1-26.1,156.4-31.8,227.6-14.1l67.9,16.9
	c4.8,1.2,9.6,2.3,14.5,3.3c80.9,16.1,176.9,3.7,249.3-33l30.7-15.6c68-34.5,156.8-47.5,234.3-35.6c10.2,1.5,20.3,3.6,30.1,6.1
	L1189.7,3122.7z"/>
<g class="st28">
	<g>
		<g>
			
				<linearGradient id="SVGID_19_" gradientUnits="userSpaceOnUse" x1="1557.5492" y1="9822.0498" x2="1557.5492" y2="6393.9399" gradientTransform="matrix(0.9047 0 0 -0.9047 -368.5647 10202.8408)">
				<stop  offset="0" style="stop-color:#FFFFFF;stop-opacity:0"/>
				<stop  offset="0.325" style="stop-color:#D8EBEA;stop-opacity:0.325"/>
				<stop  offset="0.776" style="stop-color:#A6D2CE;stop-opacity:0.776"/>
				<stop  offset="1" style="stop-color:#93C8C4"/>
			</linearGradient>
			<polygon class="st29" points="1703.5,1273.6 1703.5,2672.8 1600.4,3014.6 1573.9,3114.5 1495.3,3411.8 1436.5,3633.7 
				1355.2,3941.2 1355.2,3941.3 1270.1,4276 1244.1,4361.2 377.6,4361.2 425.1,4265.5 463,4166.8 514.8,4049.1 649.7,3742.4 
				676.8,3680.6 773.7,3460.4 816.7,3362.8 888.8,3198.7 936.5,3090.4 982.7,2985.3 1011.4,2919.8 1087.4,2747.1 1152.5,2598.9 
				1218.7,2448.2 1344.9,2161.1 1368.2,2108.1 1481.1,1851.7 1494.1,1822 1624.2,1526.2 			"/>
		</g>
	</g>
</g>
<image style="overflow:visible;enable-background:new    ;" width="3103" height="3103" xlink:href="nessy.png"  transform="matrix(7.108217e-02 0 0 7.108217e-02 794.7891 3284.3694)">
</image>
<g class="st2">
	<g>
		<g>
			
				<linearGradient id="SVGID_20_" gradientUnits="userSpaceOnUse" x1="1260.8762" y1="10861.292" x2="1260.8762" y2="6374.46" gradientTransform="matrix(0.9047 0 0 -0.9047 -368.5647 10202.8408)">
				<stop  offset="0" style="stop-color:#FFFFFF;stop-opacity:0"/>
				<stop  offset="0.325" style="stop-color:#D8EBEA;stop-opacity:0.325"/>
				<stop  offset="0.776" style="stop-color:#A6D2CE;stop-opacity:0.776"/>
				<stop  offset="1" style="stop-color:#93C8C4"/>
			</linearGradient>
			<path class="st30" d="M1665.9,320.1v511.4l-0.4,0.7L1452,1255.9l-43.3,86.2l-199,394.9l-231.9,459.7l-32,63.5l-242.3,480.6
				l-135.6,268.9L490,3164.6l-14.2,28.2l-62,123l-68.1,135l-37.8,74.8l-61.6,122.1l-19.3,38.2l-19.7,39.1l-263.1,534.6l-43,85.2
				l-14.7,16.4h-1.6c-0.3-38.4-0.6-64-1-102.4c-0.1-14.7-0.3-29.6-0.4-44.3c-1-131.7-2.1-276.1-3.2-407.8
				c-0.3-28-0.5-79.1-0.7-146.1l-0.8-275.4c-0.1-47.9-0.3-97.9-0.4-149.1l14.3-23.9l4.4-7.4l150.9-253l129-216.1l23.2-39
				l192.2-322.5l191-320.2l39.6-66.4l189.1-317.4l94.3-157.5l57-95.6l4-6.9l199.7-334.9l416-697.6l33.1-55.5L1665.9,320.1z"/>
		</g>
	</g>
</g>
<linearGradient id="SVGID_21_" gradientUnits="userSpaceOnUse" x1="998.0266" y1="6436.9268" x2="998.0266" y2="7519.812" gradientTransform="matrix(0.9047 0 0 -0.9047 -368.5647 10202.8408)">
	<stop  offset="0" style="stop-color:#FFFFFF;stop-opacity:0"/>
	<stop  offset="0.325" style="stop-color:#D8EBEA;stop-opacity:0.325"/>
	<stop  offset="0.776" style="stop-color:#A6D2CE;stop-opacity:0.776"/>
	<stop  offset="1" style="stop-color:#93C8C4"/>
</linearGradient>
<path class="st31" d="M1189.7,3383.9v990l-1306.2-12.7c-0.2-38.4-0.5-64-0.7-102.4l-3.2-598.2l-0.6-275.4
	c73.6-33.9,162-31.7,234.1,8.1l13.6,7.5l53.4,29.4c15.7,8.7,32.2,15.6,49.1,20.6c71.8,21.7,151.9,11.7,215.5-29.3l31.5-20.3
	c32.4-20.8,69-33.7,106.7-38.4c54-6.8,110.1,3.1,158.7,30l68.4,37.9c81.3,45.1,183.6,42.6,262.2-6.3l20.2-12.6l10.9-6.8
	C1129.9,3388.4,1159.3,3377.1,1189.7,3383.9z"/>
<linearGradient id="SVGID_22_" gradientUnits="userSpaceOnUse" x1="998.3582" y1="6237.5889" x2="998.3582" y2="6850.7114" gradientTransform="matrix(0.9047 0 0 -0.9047 -368.5647 10202.8408)">
	<stop  offset="0" style="stop-color:#FFFFFF;stop-opacity:0"/>
	<stop  offset="0.325" style="stop-color:#D8EBEA;stop-opacity:0.325"/>
	<stop  offset="0.776" style="stop-color:#A6D2CE;stop-opacity:0.776"/>
	<stop  offset="0.9409" style="stop-color:#93C8C4"/>
</linearGradient>
<path class="st32" d="M1189.7,3740.3v633.6l-1306.2-12.7c-0.2-38.4-0.5-64-0.7-102.4l-3.2-598.2c79.3,67.1,180.3,67.1,259.5,1.3
	c4.5-3.7,8.9-7.6,13.1-11.8l0.7-0.6c0.6-0.5,1.3-1.2,1.8-1.7c78.6-73.8,182.6-79.2,265.3-13.2l57.9,46.1l9.1,7.2
	c82.4,65.7,186,60.7,264.6-12.6l31.5-29.3c78.8-73.5,182.6-78.3,265.1-12.2c0.1,0.1,0.2,0.1,0.2,0.2l68.4,54.8
	C1139.7,3707.2,1164.3,3720.1,1189.7,3740.3z"/>
<path class="st23" d="M1036.7,3791.4c-12,12-28.6,20.1-56,21c-102.6,3.6-184.5,203-229.2,206.6c-12.2,1-75.1-2.1-144.2-8.1
	c-74.4-6.4-156-16.3-189.9-28.2c-45.1-15.7-64-288.4-74.6-446.7c-0.5-8-1.1-15.9-1.6-24.1C336,3433,286.7,1434.3,319.3,1327
	c45.3-145.8,262.2-85.2,283.1-149.8c35.5-34.4,163.6-256.9,208.5-285.7c21.4-26.3,49.6-45.8,74.6-68.4c5.7-5.2,11.2-10.5,16.5-16.1
	c36-38.2,57.8-87.8,79.1-136.2c21-1.6,42,1.4,63,4.6c28.4,4.3,25-8,52.7-14c14.8-3.3,12-34.5,14.1-35.4
	c11.1-34.4,49.5-27.5,51.5-77.8c-2-64.6-13.8-25.4-25.2-81.8c-0.9-4.3-12.7-22.3-30-39.6c17.1-55.8-37.1-78.9-18.4-90.6
	c-28.9-85.9-71.7-57.8-88.2-89.1c-37.6-71.5-77.3-36-99.9-47.9c-41.8-22.1-51.2-58.5-98.4-72.6c-43.1-12.8-65.3,7.1-109.3-3.7
	c-29.6-7.3-85.8-43.7-116.2-41.9c-28.8,1.7-5.2-10.9-33.4-8.5C473.1,78.3,439.5,0.2,372,39.2c-22.2,12.9-60.7,12-97.4,8.6
	c-36.7-3.3-55,9.7-78.3,25.8c-35.4,24.5-38.4,59.3-83.4,61.2C60.1,137.1-61.4,107.6-3.9,304l-12.8,210.2c44.4,66.9-47-6.5-47.5,48.3
	C-65.3,700.8-28,875.3-27.3,963.2c1.6,206.4,17.9,1183.7,19.6,1390c0.8,103.9,1.6,527.2,2.5,902.7c0,11.9,0.1,23.6,0.1,35.4
	c0.1,51.1,0.3,101.1,0.4,149.1l0.2,70.3c0.3,67,0.5,118.1,0.7,146.1c1.1,131.7,2.2,263.4,3.2,395.2c0.1,14.8,0.3,29.6,0.4,44.3
	c0.4,38.4,0.6,89.4,1,127.7h1305.8v-577.2C1064.6,3648.5,1081.1,3747.2,1036.7,3791.4z M725.6,704.9c14.6-23.3,88.7-14.2,115.3-19.2
	c13.3-2.5,89.3-43.3,87.5-15.8c-1.7,26.5-13.8,56-29.2,77.4c-27,37.3-76.9,42.4-112.8,82.4c-1.6,0.3-55.9,57.4-56.9,53.9
	c-3.3-11.7-12.2-121.6-13.1-134C715.1,734.1,717.1,718.6,725.6,704.9z M238,989.7c-46.8-61.3-50.6-203.9,26.6-342.2
	c23.2-41.5,53.6-68.6,86.7-85.8c36.4-18.9,68.5,19.1,105.7,17.6c60.8-2.4,23.2,51.5,39.8,56.9c8.4,20.1,18.6,35.6,23.7,40.2
	c9.7,8.8,22.4,13,34.7,17c2.3,0.7,4.5,1.6,6.6,2.5c49.6,21.9,29.4,95.5,71.4,56.8c16.5,28,27.7,62.5,25.8,95.4
	c-1.7,28,6.6,52-2.6,78.3c-7.5,21.5-130,96.7-152.3,112.1c-1.6,1.2-3.3,2.2-4.8,3.1c0.5,0.4,1.2,0.7,1.7,1.1c0,0-0.7,1-1.1,1.4
	c-0.7-0.5-1.4-1.1-2-1.6l-0.1-0.1C468.2,1058.9,317.2,1086.7,238,989.7z"/>
<path d="M408.8,979.8"/>
<image style="overflow:visible;enable-background:new    ;" width="1536" height="2048" xlink:href="fairy-sit.png"  transform="matrix(0.1325 0 0 0.1325 258.7968 860.5262)">
</image>
<image style="overflow:visible;enable-background:new    ;" width="2339" height="2113" xlink:href="rock_monster.png"  transform="matrix(0.1982 1.457969e-02 -1.457969e-02 0.1982 230.645 3645.2991)">
</image>
<image style="overflow:visible;enable-background:new    ;" width="3103" height="3103" xlink:href="mer-skull.png"  transform="matrix(0.1033 0 0 0.1033 749.8156 3660.1482)">
</image>
<linearGradient id="SVGID_23_" gradientUnits="userSpaceOnUse" x1="3622.5984" y1="6467.4263" x2="3622.5984" y2="7760.9087" gradientTransform="matrix(0.9047 0 0 -0.9047 -368.5647 10202.8408)">
	<stop  offset="0" style="stop-color:#FFFFFF;stop-opacity:0"/>
	<stop  offset="0.325" style="stop-color:#D8EBEA;stop-opacity:0.325"/>
	<stop  offset="0.776" style="stop-color:#A6D2CE;stop-opacity:0.776"/>
	<stop  offset="1" style="stop-color:#93C8C4"/>
</linearGradient>
<path class="st33" d="M3782.1,3195.4v1157.8l-355-4.4l-844.9-10.5l-480.9-6l-60.2-0.7l-4.3-598.2L2036,3458
	c-0.1-47.9-0.3-97.9-0.4-149.1c0-11.8-0.1-23.5-0.1-35.4l18.8,4l159.1,33.7c37.3,7.9,77.9,12,119.4,12.6c8.1,0.1,16.4,0.1,24.6-0.1
	c78.2-1.6,157.9-15.7,222.9-41l0.9-0.4c16.3-6.3,33.6-11.9,51.4-16.9c94.7-26.1,208.3-31.8,303.1-14.1l90.6,16.9
	c6.3,1.2,12.8,2.3,19.3,3.3c107.7,16.1,235.6,3.7,332.1-33l40.9-15.6c90.6-34.5,208.9-47.5,312.1-35.6c13.7,1.5,27,3.6,40.1,6.1
	L3782.1,3195.4z"/>
<g class="st28">
	<g>
		<g>
			
				<linearGradient id="SVGID_24_" gradientUnits="userSpaceOnUse" x1="3941.8203" y1="9741.6777" x2="3941.8203" y2="6313.5679" gradientTransform="matrix(0.9047 0 0 -0.9047 -368.5647 10202.8408)">
				<stop  offset="0" style="stop-color:#FFFFFF;stop-opacity:0"/>
				<stop  offset="0.325" style="stop-color:#D8EBEA;stop-opacity:0.325"/>
				<stop  offset="0.776" style="stop-color:#A6D2CE;stop-opacity:0.776"/>
				<stop  offset="1" style="stop-color:#93C8C4"/>
			</linearGradient>
			<polygon class="st34" points="3860.6,1346.3 3860.6,2745.5 3757.4,3087.3 3730.9,3187.3 3652.3,3484.5 3593.6,3706.4 
				3512.3,4013.9 3512.3,4014 3427.1,4348.7 3401.2,4434 2534.6,4434 2582.2,4338.3 2620.1,4239.6 2671.9,4121.9 2806.7,3815.1 
				2833.9,3753.3 2930.8,3533.1 2973.7,3435.5 3045.8,3271.5 3093.5,3163.1 3139.7,3058 3168.5,2992.5 3244.5,2819.8 3309.5,2671.6 
				3375.8,2520.9 3502,2233.8 3525.3,2180.8 3638.1,1924.5 3651.1,1894.8 3781.2,1599 			"/>
		</g>
	</g>
</g>
<image style="overflow:visible;enable-background:new    ;" width="3103" height="3103" xlink:href="nessy.png"  transform="matrix(9.933096e-02 0 0 9.933096e-02 3190.8496 3332.668)">
</image>
<g class="st2">
	<g>
		<g>
			
				<linearGradient id="SVGID_25_" gradientUnits="userSpaceOnUse" x1="3645.1472" y1="10780.9199" x2="3645.1472" y2="6294.0884" gradientTransform="matrix(0.9047 0 0 -0.9047 -368.5647 10202.8408)">
				<stop  offset="0" style="stop-color:#FFFFFF;stop-opacity:0"/>
				<stop  offset="0.325" style="stop-color:#D8EBEA;stop-opacity:0.325"/>
				<stop  offset="0.776" style="stop-color:#A6D2CE;stop-opacity:0.776"/>
				<stop  offset="1" style="stop-color:#93C8C4"/>
			</linearGradient>
			<path class="st35" d="M3822.9,392.8v511.4l-0.4,0.7L3609,1328.6l-43.3,86.2l-199,394.9l-231.9,459.7l-32,63.5l-242.3,480.6
				l-135.5,269l-77.9,154.8l-14.2,28.2l-62,123l-68.1,135l-37.8,74.8l-61.6,122.1l-19.3,38.2l-19.7,39.1l-263.1,534.6l-43,85.2
				l-14.7,16.4h-1.6c-0.3-38.4-0.6-64-1-102.4c-0.1-14.7-0.3-29.6-0.4-44.3c-1-131.7-2.1-276.1-3.2-407.8
				c-0.3-28-0.5-79.1-0.7-146.1l-0.8-275.4c-0.1-47.9-0.3-97.9-0.4-149.1l14.3-23.9l4.4-7.4l150.9-253l128.8-215.9l23.2-39
				l192.2-322.5l191-320.2l39.6-66.4l189.1-317.4l94.3-157.5l57-95.6l4-6.9l199.7-334.9l416-697.6l33.1-55.5L3822.9,392.8z"/>
		</g>
	</g>
</g>
<linearGradient id="SVGID_26_" gradientUnits="userSpaceOnUse" x1="3622.8748" y1="6356.5547" x2="3622.8748" y2="7439.4404" gradientTransform="matrix(0.9047 0 0 -0.9047 -368.5647 10202.8408)">
	<stop  offset="0" style="stop-color:#FFFFFF;stop-opacity:0"/>
	<stop  offset="0.325" style="stop-color:#D8EBEA;stop-opacity:0.325"/>
	<stop  offset="0.776" style="stop-color:#A6D2CE;stop-opacity:0.776"/>
	<stop  offset="1" style="stop-color:#93C8C4"/>
</linearGradient>
<path class="st36" d="M3782.1,3456.7v990l-1740-12.7c-0.3-38.4-0.6-64-1-102.4l-4.3-598.2L2036,3458c98.1-33.9,215.9-31.7,311.9,8.1
	l18.1,7.5l71.1,29.4c20.9,8.7,42.9,15.6,65.5,20.6c95.7,21.7,202.3,11.7,287-29.3l41.9-20.3c43.2-20.8,91.9-33.7,142-38.4
	c71.9-6.8,146.6,3.1,211.4,30l91.1,37.9c108.3,45.1,244.6,42.6,349.3-6.3l26.9-12.6l14.5-6.8
	C3702.4,3461.1,3741.7,3449.9,3782.1,3456.7z"/>
<linearGradient id="SVGID_27_" gradientUnits="userSpaceOnUse" x1="3623.3169" y1="6157.2168" x2="3623.3169" y2="6770.3394" gradientTransform="matrix(0.9047 0 0 -0.9047 -368.5647 10202.8408)">
	<stop  offset="0" style="stop-color:#FFFFFF;stop-opacity:0"/>
	<stop  offset="0.325" style="stop-color:#D8EBEA;stop-opacity:0.325"/>
	<stop  offset="0.776" style="stop-color:#A6D2CE;stop-opacity:0.776"/>
	<stop  offset="0.9409" style="stop-color:#93C8C4"/>
</linearGradient>
<path class="st37" d="M3782.1,3813v633.6l-1740-12.7c-0.3-38.4-0.6-64-1-102.4l-4.3-598.2c105.7,67.1,240.2,67.1,345.7,1.3
	c6-3.7,11.8-7.6,17.5-11.8l0.9-0.6c0.8-0.5,1.6-1.2,2.4-1.7c104.8-73.8,243.4-79.2,353.4-13.2l77.1,46.1l12.1,7.2
	c109.7,65.7,247.8,60.7,352.5-12.6l41.9-29.3c104.9-73.5,243.4-78.3,353.1-12.2c0.1,0.1,0.2,0.1,0.3,0.2l91.1,54.8
	C3715.5,3779.9,3748.4,3792.8,3782.1,3813z"/>
<path class="st23" d="M3511.6,3864.1c-12,12-28.6,20.1-56,21c-102.6,3.6-184.5,203-229.2,206.6c-12.2,1-75.1-2.1-144.2-8.1
	c-74.4-6.4-156-16.3-189.9-28.2c-45.1-15.7-137.9-64.7-190-78.5c-4.3-1.2-15.7-2.9-31.1-5c-52.7-7.1-151.5-18.2-166.5-21.6
	c-18.5-4.3-60.8-12.8-98.9-24.2c-3.2-42.2-11.9-159-22.4-317.4c-0.5-8-1.1-15.9-1.6-24.1c-5.2-78.9-59.1-1753.7-26.5-1861
	c45.4-145.9,334.9-111,355.9-175.6c35.5-34.4,163.6-256.9,208.5-285.7c21.4-26.3,49.6-45.8,74.6-68.4c5.7-5.2,11.2-10.5,16.5-16.1
	c36-38.2,57.8-87.8,79.1-136.2c21-1.6,42,1.4,63,4.6c28.4,4.3,25-8,52.7-14c14.8-3.3,12-34.5,14.1-35.4
	c11.1-34.4,49.5-27.5,51.5-77.8c-2-64.6-13.8-25.4-25.2-81.8c-0.9-4.3-12.7-22.3-30-39.6c17.1-55.8-37.1-78.9-18.3-90.6
	c-28.9-85.9-71.7-57.8-88.2-89.1c-37.6-71.5-77.3-36-99.9-47.9c-41.8-22.1-51.2-58.5-98.4-72.6c-43.1-12.8-65.3,7.1-109.3-3.7
	c-29.6-7.3-85.8-43.7-116.2-41.9c-28.8,1.7-77.8,14.9-105.9,17.3c-70.3,5.8-103.9-72.3-171.4-33.3c-22.2,12.8-60.6,11.9-97.3,8.5
	c-36.7-3.3-55,9.7-78.3,25.8c-35.4,24.5-38.4,59.3-83.4,61.2c-52.8,2.4-174.3-27.1-116.8,169.3l-12.8,210.2
	c44.4,66.9-47-6.5-47.5,48.3c-1.1,138.3,36.2,312.8,36.9,400.7c1.6,206.4,22.5,859.8,24.2,1066.1c0.8,103.9,1.6,527.2,2.5,902.7
	c0,11.9,0.1,23.6,0.1,35.4c0.1,51.1,0.3,101.1,0.4,149.1l0.2,70.3c0.3,67,0.5,118.1,0.7,146.1c1.1,131.7,2.2,263.4,3.2,395.2
	c0.1,14.8,0.3,29.6,0.4,44.3c0.4,38.4,0.6,89.4,1,127.7h1740v-577.2C3539.6,3721.3,3556.1,3819.9,3511.6,3864.1z M2834.3,1075.9
	c14.6-23.3,88.7-14.2,115.3-19.2c13.3-2.5,89.3-43.3,87.5-15.8c-1.7,26.5-13.8,56-29.2,77.4c-27,37.3-76.9,42.4-112.8,82.4
	c-1.6,0.3-55.9,57.4-56.9,53.9c-3.3-11.7-12.2-121.6-13.1-134C2823.8,1105,2825.8,1089.5,2834.3,1075.9z M2274.2,1386.4
	c-46.8-61.3-50.6-203.9,26.6-342.2c23.2-41.5,53.6-68.6,86.7-85.8c36.4-18.9,68.5,19.1,105.7,17.6c60.8-2.4,95.9,25.8,112.4,31.2
	c8.4,20.1,18.6,35.6,23.7,40.2c9.7,8.8,22.4,13,34.7,17c2.3,0.7,4.5,1.6,6.6,2.5c49.6,21.9,29.4,95.5,71.4,56.8
	c16.5,28,27.7,62.5,25.8,95.4c-1.7,28,6.6,52-2.6,78.3c-7.5,21.5-130,96.7-152.3,112.1c-1.6,1.2-3.3,2.2-4.8,3.1
	c0.5,0.4,1.2,0.7,1.7,1.1c0,0-0.7,1-1.1,1.4c-0.7-0.5-1.4-1.1-2-1.6l-0.1-0.1C2577,1429.9,2353.3,1483.3,2274.2,1386.4z"/>
<path d="M2561.2,1376.4"/>
<image style="overflow:visible;enable-background:new    ;" width="1536" height="2048" xlink:href="fairy-sit.png"  transform="matrix(0.1495 0 0 0.1495 2343.292 1223.2721)">
</image>
<image style="overflow:visible;enable-background:new    ;" width="2339" height="2113" xlink:href="rock_monster.png"  transform="matrix(0.2175 1.599462e-02 -1.599462e-02 0.2175 2361.6653 3595.1274)">
</image>
<image style="overflow:visible;enable-background:new    ;" width="3103" height="3103" xlink:href="mer-skull.png"  transform="matrix(0.1217 0 0 0.1217 3209.0442 3711.6211)">
</image>
<g>
	<g id="Layer_2_3_" transform="translate(-65.911)">
		<path id="Path_1_2_" class="st5" d="M5302,3380.9c0.2,0,0.2,0,0.2-0.1C5302.1,3380.9,5302,3380.9,5302,3380.9z M5301.9,3380.9
			h-1.4C5301,3381,5301.4,3381,5301.9,3380.9z M4542.4,3365.7c0.5,0.1,0.9,0.2,1.4,0.1L4542.4,3365.7z"/>
		<path id="Path_2_2_" class="st5" d="M5302,3380.9c0.2,0,0.2,0,0.2-0.1C5302.1,3380.9,5302,3380.9,5302,3380.9z M5301.9,3380.9
			h-1.4C5301,3381,5301.4,3381,5301.9,3380.9z M4542.4,3365.7c0.5,0.1,0.9,0.2,1.4,0.1L4542.4,3365.7z"/>
		<path id="Path_3_2_" class="st5" d="M5348.8,1269.8c5.7,9.4,9.9,19.2,9.5,30.4c-0.4,6.6-0.4,13.3,0.1,19.9
			c1,11.1,2.8,22.1,3.9,33.2c0.6,7.1,1.4,14.2,1,21.3c-0.4,5.3-0.5,10.7-0.5,15.9c10.5-18.1,21.3-36.1,21.7-55
			C5385,1311.6,5366.9,1290.9,5348.8,1269.8L5348.8,1269.8z M5283,1586.2c-12,4.5-21.2,14.5-32,21.3c-18.7,11.8-41.6,13.8-63.5,15.5
			c-31.3,2.4-59.9,6.8-88.7,8.2c6.2,36.1,12,74.9,17.3,115.9c12.2,94.9,21.8,201.5,29.2,312.1l163.7-299.5c7,2.5,13.7,5.8,20.1,9.7
			c0.5-16.8,1-33.3,1.5-49.2c1.9-54.8,3.9-104.7,6.2-147.7c-7.6,4-16.6,7.1-27,8.9C5300.8,1582.8,5291.5,1582.9,5283,1586.2z
			 M5648.1,1139.1c-11,33.5-31,63.1-61.2,84.1c-9.9,6.9-70.7,38.6-71.1,6.5c-0.5-34.1,0.3-68.2,0.9-102.3
			c0.3-16.8,0.6-33.7,0.8-50.5c0.2-17.5,1.4-35.5-2.2-52.6c14.1-3.3,29.8-0.9,43.3,3.7c10.9,3.7,21.4,9.8,33.2,9.8
			c7.1,0,64.8-16.6,65.9-2.2C5660.7,1070.1,5659,1106.2,5648.1,1139.1z M5231.2,1002.6c27-12.7,20.8,12.1,21.2,20.5
			c0.7,19.6-11.2,35.5-16.7,54.4c-1.5,5.2-3.2,10.2-4.8,15.3c-7.1,21.2-14.2,41.2-11.5,63.8c3.5,29.3,16.6,58.1,34.1,85.9
			c10.7,16.8,23,34.3,29,51.7c3.2,9.2,4.6,18.4,3.1,27.5c-0.8,5-2.5,9.9-5,14.3c-5.5,10.2-15.5,19.5-25.2,28.8
			c-9,8.5-18.2,17-30.1,24.3c-2,1.2-4.1,2.4-6.2,3.4c-5.7,2.8-12.2,5.1-19.7,5.8c-18.7,1.8-35.6-6.7-44.9-15.7
			c-18.8-18.6-18.8-40.9-26.6-61.8c-5.5-14.7-15.1-28.9-21.9-43.4c-12.8-27.4-15.9-56.1-9.1-84.2c5-20.6,17.1-40.6,18-61.5
			c0.9-21-7.1-42.7-11.3-63.6c-1.4-7.2-2.6-15.2,4.7-21.3c6.4-5.3,17.8-8,28.3-10.7c6.2-1.5,12.2-3.2,18.2-4.9
			C5181.9,1023.1,5207.7,1013.6,5231.2,1002.6L5231.2,1002.6z M4789.9,1110.6c10.4-10.7,31.2-14.5,18.5-29.4
			c-2.8-3.3-7.3-6.4-6.9-10c0.6-5,10.2-7.9,17.9-10.6c13.7-4.8,24.9-11.7,32-19.5c4.3-4.8,9.3-10.9,19.2-11.2
			c6.8-0.2,12.8,2.8,15.3,6.3c11.3,16.4,3.3,38.5,7.1,55.9c3.3,15.6,16.1,30,30.8,43.2c30,27.1,74,50.7,94.7,80.7
			c24.8,35.8,12.9,75.6,0.8,113.3c-1.2,4-5.1,6.6-9.2,6.2c-1.9-0.3-3.6-0.9-5.2-1.9c-42.7-24.3-61-54.4-78.6-85.9
			c-21.5-38.2-59.5-72.1-99.2-105.5c-3-2.5-6.2-4.9-9.5-7.2c-8-6-16.2-11.6-24.9-17.3c-1.6-1.1-3.4-2.3-3.9-3.7
			C4788.2,1113,4788.7,1111.8,4789.9,1110.6L4789.9,1110.6z M4965.1,1124.9c-12.3-9.3-17.6-20.8-22.5-31.9l-15.3-33.8
			c-1.8-3.5-12.6-9-10.2-13.1c1-1.6,2.5-2.9,4.3-3.6c8.1-3.3,22.8,1.4,31.5,2.2c10.3,0.8,25.1-1.9,34-4.6
			c15.5-4.7,30.8-12.5,42.9-19.5c25.3-14.8,43.2,49.5,41.4,58.7c-4.3,21.8-15,43.6-21.9,65.2c-0.5,1.7-1.2,3.5-3.4,4.8
			c-2.1,1.2-5.2,1.5-8.1,1.7C5010.2,1152.7,4980,1136.2,4965.1,1124.9z M4570.5,1317.5c-4.9-5.1-6.9-10.6-8-16.2
			c-0.2-0.9-0.5-1.8-1.1-2.7c-1.2-2.3-2.4-4.6-3.7-6.9c-2-3.4-4-7-6.2-10.4c-1.4-2.3-3.2-4.4-4.6-6.8c-0.4-0.8-0.6-1.7-0.6-2.7
			c-0.4-1.7,0.1-3.6-1.1-5.1c-4.9-6.2-5.6-12.9-8.9-19.3c-1.4-2.9-1.9-5.9-2.9-8.8c-0.2-0.7-0.5-1.4-0.8-2
			c-3.6-5.5-6.1-11.7-7.1-18.2c-1.2-7.8-3.5-15.6-5.2-23.2c-0.7-3.1-0.3-6.3-1.7-9.2c-3.2-6.5-3.5-13.3-6.2-19.9
			c-2.4-6-2.6-12.3-3.8-18.5c-0.9-4.6-1.9-9.1-2.7-13.8c-1-5.2-2.2-10.5-2.5-15.7c-0.4-6.5,0.3-13-0.5-19.5
			c-0.3-2.1-1.4-3.2-5.5-3.8c-4.5-0.7-9.1-1.6-11.9-4.2c-3.3-3.1-1.9-5.1,4.4-5.8c3.1-0.4,6.3-0.4,9.4-0.7c3.3-0.4,6.4-0.8,9.6-1.5
			c2.8-0.6,5.7-0.6,8.6,0c2.6,0.6,5.2,1,7.9,1.3c10.5,0.4,8.5,1.2,13-3.6c6.9-7.2,22-12.3,38.2-11.6c2.5,0.1,5.1,0.1,7.5-0.1
			c3.2-0.3,6.1-0.5,9.2,0.4c3,0.8,5.5-0.1,7.9-1.3c4.9-2.5,9.9-5,15.1-7.3c4.6-2,11.7-1.8,16.3,0.2c5.5,2.4,10.8,4.7,14.7,8
			c3.5,2.8,6.3,6.3,8.3,10.4c1.2,2.4,2.4,4.5,7,5.8c1.4,0.5,2.6,1.6,3.1,3.2c1.6,6.1,3.1,12,4.4,18.1c0.7,3.5,1.7,7,1.5,10.6
			c-0.2,2.9,1.7,6.1,2,9.1c0.5,6.2,1.4,12.4,2.3,18.6c0.3,2.1,1,4.1,1.4,6.2c1.1,4.9,3.3,9.9,3,14.7c-0.3,5.2,3.5,9.9,3.3,14.8
			c0,1.2,0.3,2.3,0.3,3.4c-0.2,5.2-0.5,10.3-0.7,15.5c0,0.4-0.2,0.7,0,1c3.6,5.6,1.5,11.4,0.9,17c-0.5,4.6-0.9,9.1,0.6,13.8
			c1.4,4.5,3.3,9,1.8,13.7c-0.5,1.6,0.8,3.3,1.1,5.1c0.9,6.1,1.8,12.1,2.4,18.3c-0.1,1.2-0.8,2.7-1.4,4.2
			c-3.1,7.1-6.2,14.1-9.4,21.2c-2.4,5.1-5.2,10.1-7.6,15.3c-1,2-1.7,4.2-2.2,6.4c-0.9,4.6-2.7,8.9-5.4,12.8
			c-1.1,1.5-1.1,3.3-1.9,5.1c-3,5.6-5.3,11.4-9.5,16.7c-2.6,3.3-7.2,6.6-12.4,9c-6.9,3.2-15,5.5-22.9,8c-10.5,3.3-21.9-0.5-21.8-8.4
			c-1-2.1-1.7-5.8-4.5-8.9c-4.8-5.3-8.1-10.8-9.2-16.6c-0.1-0.6-0.8-1.3-1.4-1.9c-2.1-2.5-4.3-5-6.2-7.5
			C4572.9,1321.1,4572.2,1319.2,4570.5,1317.5L4570.5,1317.5z M5152.3,3317.5l2.4,0.1C5153.9,3317.6,5153.1,3317.6,5152.3,3317.5z
			 M5124.5,3236.7c-44.7,28.8-197.6,68.5-213.8,22.3c-17.1-54.5-95.3-1148.8-105.4-1227.3c-5.2-40.7-10.4-81-15.3-120.4
			c-14.7-118.4-27.7-230-37.6-325.6c-10.7-101.4-18-184.9-20.8-240.1c-3.4-68.7-23.6-158,20.3-223.7c53.2,37.8,93.1,81.3,117,127.1
			c12.3,23.6,20.6,48,42.2,69.6c23.4,23.2,60.7,41.1,94.3,60.3c35.2,20.1,63.3,98.3,85.7,211.1c2.6,13.3,5.2,27,7.7,41.2
			c6.2,36.1,12,74.9,17.3,115.9c12.2,94.9,21.8,201.5,29.2,312.1c3.6,53.6,14.6,925.2,15.9,971.6
			C5169.6,3147.5,5140.4,3232.4,5124.5,3236.7z M5463.3,3131.6c-4.3,36.4-134.3,122.2-140.8,83.9c-4-23.8-6-832.7-5.6-1061.8
			c0.1-74.5,0.5,986.3,1.1,903.7c0.5-57.3,1-749.7,1.7-808.2c2-168.9,5.1-337.8,9.3-479.8c0.5-16.8,1-33.3,1.5-49.2
			c1.9-54.8,3.9-104.7,6.2-147.7c4.9-92.4,10.7-153.9,17.5-166.8c12.8-24.5,32.7-48.4,29.2-78c-2.3-18.4-13.6-33.9-25.6-47.4
			c-23.1-26-41.3-54.8-62.7-81.9c-7.7-9.8-18.3-18.9-19.2-32.2c-1.9-27.6-0.9-56.6,1.8-84.7c2.1-21.9,4.9-46.7,23.7-61.1
			c11.7-8.9,17,1.5,26.7-0.3c11.5-2.2,17.6-5.2,27.4-11.6c13.3-8.7,37.5-2,47-10.5c4.3-3.8,5.9-8.5,12-11.4
			c10-4.9,27.1-1.8,34.7,4.3s8.4,13.8,8.8,21.2c0.2,3.2,0.4,6.2,0.5,9.4c3.6,80.5-2.2,161.2,10.1,241.5
			c8,51.9,23.3,103.9,18.5,155.8c0,0.5-0.1,5.6-0.1,14.8c-0.2,57.7-0.1,274.1,1.2,476.9c0.4,61.6,0.8,122,1.4,176.3
			C5490.3,2136.4,5465.6,3112.3,5463.3,3131.6z M5778.7,3166.4c-81.9-22.5-137.3-39.4-137.5-43.3c-3.3-61.5-9-633-14.5-1048
			c-1.2-85.5-2.3-169.6-3.3-249c-3.4-251.2-6.6-453.9-8.8-493.9c-1-18.5-1.9-37.2,7.1-54.8c7.3-14.7,21.3-28.1,32.3-42.2
			c35.3-44.9,39.6-94,47.1-141.9c0.7-4.6,2.3-9.1,3.3-13.7c3.3-13.4,47.9-23.1,65-31.8c9-4.7,17.7-10,26-16v-439c-2-0.2-4-0.5-6-0.6
			c-16.6-1.5-33.1-3.4-49.6-5.2c-1.3-0.2-2.5-0.3-3.8-0.5c-0.6-0.1-1.3-0.1-1.9-0.1c-7.8,0.7-14.7-1.3-21.2-2.7
			c-8.2-1.8-16.6-2.8-25.1-2.8c-5.1,0-10.2,0.3-15.2-0.1c-2.9-0.4-5.8-0.2-8.6,0.4c-19.9,5-44.3,7.1-65.8,11.7
			c-6.2,1.3-12.4,1.7-18.6,1.3c-8.4-0.5-25.9,0.5-32.9-2c-8.7-3-5.4-9-14.4-12.6c-6.2-2.4-14-3.1-21.5-3.5c-37-2.4-75.9-2.5-112,3.1
			c-33,5.2-69.9,28.2-104.8,24.2c-6.3-0.7-13-0.5-19.5-1c-3.1-0.4-6.2-0.2-9.1,0.6c-2.2,0.5-4.4,0.8-6.7,0.7
			c-25-0.7-39.3,8-62.9,10.5c-0.9,0.2-1.8,0.5-2.6,0.9c-1.7,0.5-3.4,0.9-5.2,1.3c-3.5,0.7-7.2,1.3-10.8,2
			c-5.3,1.2-10.5,2.4-15.7,3.6c-47.6,10.7-93,21-129.4,41.6c-16.6,9.5-34.9,21.3-58.8,20c10.9-3.8,7.8-13.8-2.8-17.8
			c-10.5-4.1-24.6-3.9-37.4-3c-33.2,2.4-65.6,8.5-94.4,17.7c-7.8,2.5-15.7,5.3-24.7,5.6c-6,0.2-11.9-0.7-17.7-1.5
			c-60-8.1-126.8,0.8-173.2,23.1c-4.6,2.3-9.4,4.9-9.9,8.3c-0.4,2.4,1.7,4.8,2.8,7.2c6.2,13.8-19,25.1-41.1,32.7
			c-5.2,1.9-10.5,3.3-15.9,4.3c-3,0.4-6.1,0.5-9.1,0.6c-3.1,0.1-6.2,0.1-9.1,0.1c-47.8,0.1-99.3,13-127.9,34.3
			c-26.1,19.5,1.1,51.5-36.6,65.9c-15.9,6.1-35.9,9.9-46.9,18.6c-4.7,3.7-9.8,8.9-17.9,8.1c-4.1-0.4-7.2-2.2-11.3-2.7
			c-10.5-1.4-16.4,6-22,11c-13.7,12.1-44.6,15.1-61.2,26.1c-17.7,11.9-13.9,29-9.2,44c6.5,20.7,13.8,42.2,37.7,58.7
			c21.8,15,54.6,23.8,86.3,31.9c26.2,6.8,52.7,17.1,81.3,18.8c3.3,0.2,5.6,1.1,6.6,2.8c1.3,2.2,2.3,4.4,3.5,6.6
			c0.9,1.7,2.2,3.3,3.5,4.7c2.5,2.4,4.6,4.6,4.3,7.5c-0.1,0.9-0.1,1.8,0.2,2.7c23.4,91.6,23.2,186.7,95,272.8
			c12.5,14.9,26.9,29.5,37,44.9c2,3.1,6.1,74.6,10.9,187.8c0.4,8.5,0.7,17.3,1.1,26.2c3,73.4,6.3,161.8,9.5,258.9
			c4.7,141.8,9.3,936.5,12.9,1096.7c3.1,135.8,7.2,106.2,5.6,190.8c-0.1,3.1-0.1,6.2-0.2,9.3c-2.5,116.4-8.1,194.4-17.8,208.8
			c-7.1,10.3-43.7,21.8-85.5,31.9c-6.5,1.5-13.8,3.5-21.6,5.8c-42,12.1-99.7,32.9-131.4,47.2c85.9,1.1,175.6-13.2,247.5-41.2
			l0.9-0.4c102.6-39.9,241.9-52,354.6-31l90.6,16.9c111.5,20.8,249.1,9.1,351.4-29.8l40.9-15.6c102.6-39,240.6-50.6,352.2-29.6
			l11,2.1V3171C5790,3169.4,5784.3,3167.9,5778.7,3166.4z"/>
		<path id="Path_6_2_" class="st5" d="M4759.7,3231.5"/>
		<path id="Path_7_2_" class="st5" d="M4778.9,3223.8"/>
	</g>
	
		<linearGradient id="SVGID_28_" gradientUnits="userSpaceOnUse" x1="4810.1743" y1="6946.001" x2="6740.7588" y2="6946.001" gradientTransform="matrix(0.9047 0 0 -0.9047 -368.5647 10202.8408)">
		<stop  offset="0" style="stop-color:#FFFFFF;stop-opacity:0"/>
		<stop  offset="0.325" style="stop-color:#D8EBEA;stop-opacity:0.325"/>
		<stop  offset="0.776" style="stop-color:#A6D2CE;stop-opacity:0.776"/>
		<stop  offset="1" style="stop-color:#93C8C4"/>
	</linearGradient>
	<path class="st38" d="M5729.8,3352.5v1145.1l-355-4.4l-844.9-10.5l-480.9-6l-60.2-0.7l-4.3-585.6l-0.8-275.4
		c-0.1-47.9-0.3-97.9-0.4-149.1c0-11.8-0.1-23.5-0.1-35.4l18.8,4l159.1,33.7c37.3,7.9,77.9,12,119.4,12.6c8.1,0.1,16.4,0.1,24.6-0.1
		c78.2-1.6,157.9-15.7,222.9-41l0.9-0.4c16.3-6.3,33.6-11.9,51.4-16.9c94.7-26.1,208.3-31.8,303.1-14.1l90.6,16.9
		c6.3,1.2,12.8,2.3,19.3,3.3c107.7,16.1,235.6,3.7,332.1-33l40.9-15.6c90.6-34.5,208.9-47.5,312.1-35.6c13.7,1.5,27,3.6,40.1,6.1
		L5729.8,3352.5z"/>
	<g class="st2">
		<g>
			<g>
				
					<linearGradient id="SVGID_29_" gradientUnits="userSpaceOnUse" x1="5798.0161" y1="10607.2236" x2="5798.0161" y2="6120.3931" gradientTransform="matrix(0.9047 0 0 -0.9047 -368.5647 10202.8408)">
					<stop  offset="0" style="stop-color:#FFFFFF;stop-opacity:0"/>
					<stop  offset="0.325" style="stop-color:#D8EBEA;stop-opacity:0.325"/>
					<stop  offset="0.776" style="stop-color:#A6D2CE;stop-opacity:0.776"/>
					<stop  offset="1" style="stop-color:#93C8C4"/>
				</linearGradient>
				<path class="st39" d="M5770.6,549.9v511.4l-0.4,0.7l-213.5,423.7l-43.3,86.2l-199,394.9l-231.9,459.7l-32,63.5l-242.3,480.6
					l-135.6,268.9l-78,154.8l-14.2,28.2l-62,123l-68.1,135l-37.8,74.8l-61.6,122.1l-19.3,38.2l-19.7,39.1l-263,521.9l-43,85.3
					l-14.7,29h-1.6c-0.3-38.4-0.6-76.7-0.9-115.1c-0.1-14.7-0.3-29.6-0.4-44.3c-1-131.7-2.1-263.4-3.2-395.2
					c-0.3-28-0.5-79.1-0.7-146.1l-0.8-275.4c-0.1-47.9-0.3-97.9-0.4-149.1l14.3-23.9l4.4-7.4l150.9-253l128.8-215.9l23.2-39
					L4497,2604l190.9-320.2l39.6-66.4l189.1-317.4l94.3-157.5l57-95.6l4-6.9l199.7-334.9l416.1-697.6l33.1-55.5L5770.6,549.9z"/>
			</g>
		</g>
	</g>
	
		<linearGradient id="SVGID_30_" gradientUnits="userSpaceOnUse" x1="5775.7432" y1="7308.8477" x2="5775.7432" y2="6202.8745" gradientTransform="matrix(0.9047 0 0 -0.9047 -368.5647 10202.8408)">
		<stop  offset="0" style="stop-color:#FFFFFF;stop-opacity:0"/>
		<stop  offset="0.325" style="stop-color:#D8EBEA;stop-opacity:0.325"/>
		<stop  offset="0.776" style="stop-color:#A6D2CE;stop-opacity:0.776"/>
		<stop  offset="1" style="stop-color:#93C8C4"/>
	</linearGradient>
	<path class="st40" d="M5729.8,3601.1v990H3989.7c-0.3-38.4-0.6-76.7-0.9-115.1l-4.3-585.6l-0.8-275.4
		c98.1-33.9,215.8-31.7,311.9,8.1l18.1,7.5l71.1,29.4c20.9,8.7,42.9,15.6,65.5,20.6c95.7,21.7,202.3,11.7,287-29.3l41.9-20.3
		c43.2-20.8,91.9-33.7,142-38.4c71.9-6.8,146.6,3.1,211.4,30l91.1,37.9c108.3,45.1,244.6,42.6,349.3-6.3l26.9-12.6l14.5-6.8
		C5650.1,3618.2,5689.2,3607,5729.8,3601.1z"/>
	
		<linearGradient id="SVGID_31_" gradientUnits="userSpaceOnUse" x1="5776.1851" y1="7058.3452" x2="5776.1851" y2="6202.8745" gradientTransform="matrix(0.9047 0 0 -0.9047 -368.5647 10202.8408)">
		<stop  offset="0" style="stop-color:#FFFFFF;stop-opacity:0"/>
		<stop  offset="0.325" style="stop-color:#D8EBEA;stop-opacity:0.325"/>
		<stop  offset="0.776" style="stop-color:#A6D2CE;stop-opacity:0.776"/>
		<stop  offset="1" style="stop-color:#93C8C4"/>
	</linearGradient>
	<path class="st41" d="M5729.8,3957.5v633.6H3989.7c-0.3-38.4-0.6-76.7-0.9-115.1l-4.3-585.6c105.7,67,240.2,67.1,345.7,1.3
		c5.9-3.7,11.8-7.6,17.5-11.8l0.9-0.6c0.8-0.5,1.6-1.2,2.4-1.7c104.8-73.8,243.4-79.2,353.4-13.2l77.1,46.1l12.1,7.2
		c109.7,65.7,247.8,60.7,352.5-12.6l41.9-29.3c104.9-73.5,243.4-78.3,353.1-12.2c0.1,0.1,0.2,0.1,0.3,0.2l91.1,54.8
		C5663.2,3937,5696,3950,5729.8,3957.5z"/>
	<path class="st23" d="M4897.2,1513.2c-26.6,5-100.7-4.2-115.3,19.2c-8.5,13.7-10.5,29.1-9.3,44.8c0.9,12.4,9.8,122.3,13.1,134
		c1,3.4,55.3-53.6,56.9-53.9c35.9-40,85.8-45.1,112.8-82.4c15.5-21.4,27.5-50.9,29.2-77.4
		C4986.5,1469.9,4910.5,1510.7,4897.2,1513.2z M5459.9,4171.1L5459.9,4171.1c-12,12-28.6,20.1-56,21
		c-102.6,3.6-184.5,203-229.2,206.6c-12.2,1-75.1-2.1-144.2-8.1c-74.4-6.4-156-16.3-189.9-28.2c-45.1-15.7-137.9-64.7-190-78.5
		c-4.3-1.2-15.7-2.9-31.1-5c-52.7-7.1-151.5-18.2-166.5-21.6c-18.5-4.3-60.8-12.8-98.9-24.2c-3.2-42.2-11.9-159-22.4-317.4
		c-0.5-8-1.1-15.9-1.6-24.1c-5.2-78.9-10.8-167.3-16.4-261.1c-2.9-48.6-5.8-98.7-8.6-149.7c-9.2-167.6-17.7-345.6-23.3-515.2
		c-11.9-357.7-11.4-678.1,21.2-785.4c45.4-145.9,334.9-111,355.9-175.6c35.5-34.4,163.6-256.9,208.5-285.7
		c21.4-26.3,49.6-45.8,74.6-68.4c5.7-5.2,11.2-10.5,16.5-16.1c36-38.2,57.8-87.8,79.1-136.2c21-1.6,42,1.4,63,4.6
		c28.4,4.3,25-8,52.7-14c14.8-3.3,12-34.5,14.1-35.4c11.1-34.4,49.5-27.5,51.5-77.8c-2-64.6-13.8-25.4-25.2-81.8
		c-0.9-4.3-12.7-22.3-30-39.6c17.1-55.8-38.8-122.4-20.1-134.1c10.9-6.9-4.7-31.1,7.3-35.6c8.5-3.3,25.6-67.6-9.1-86.2
		c-36.1-19.4-74.5-40.2-94.6-77.7c-16-30-17.9-65.5-42-91.5c-18.5-20-42.2-47.9-64.9-59.8c-41.8-22.1-55.5-76-102.8-90
		c-43.1-12.8-89.7-14-133.6-24.9c-29.6-7.3-60-11.9-90.5-10c-28.8,1.7-54.9,14.7-83,17c-70.3,5.8-103.9-72.3-171.4-33.3
		c-22.2,12.8-60.6,11.9-97.3,8.5c-36.7-3.3-55,9.7-78.3,25.8c-35.4,24.5-38.4,59.3-83.4,61.2c-52.8,2.4-186.8,42.9-129.3,239.3
		l-3.5,404.6c44.4,66.9-47-6.5-47.5,48.3c-1.1,138.3,36.2,312.8,36.9,400.7c1.6,206.4,22.5,505.2,24.2,711.5
		c0.8,103.9,1.6,527.2,2.5,902.7c0,11.9,0.1,23.6,0.1,35.4c0.1,51.1,0.3,101.1,0.4,149.1l0.8,275.4c0.3,67,0.5,118.1,0.7,146.1
		c1.1,131.7,2.2,263.4,3.2,395.2c0.1,14.7,0.3,29.6,0.4,44.3c0.4,38.4,0.6,76.7,1,115.1h1740v-564.5
		C5487.8,4028.2,5504.3,4126.8,5459.9,4171.1z M4221.8,1842.9c-46.8-61.3-50.6-203.9,26.6-342.2c23.2-41.5,53.6-68.6,86.7-85.8
		c36.4-18.9,68.5,19.1,105.7,17.6c60.8-2.4,95.9,25.8,112.4,31.2c8.4,20.1,18.6,35.6,23.7,40.2c9.7,8.8,22.4,13,34.7,17
		c2.3,0.7,4.5,1.6,6.6,2.5c49.6,21.9,50.6,93.1,92.5,54.4c16.5,28,21.5,60.5,19.6,93.5c-1.7,28-8.5,56.5-17.7,82.8
		c-7.5,21.5-130,96.7-152.3,112.1c-1.6,1.2-3.3,2.2-4.8,3.1c0.5,0.4,1.2,0.7,1.7,1.1c0,0-0.7,1-1.1,1.4c-0.7-0.5-1.4-1.1-2-1.6
		l-0.1-0.1C4524.6,1886.4,4301,1939.8,4221.8,1842.9z"/>
	<path d="M4508.8,1533.6"/>
	<g class="st28">
		<g>
			<g>
				
					<linearGradient id="SVGID_32_" gradientUnits="userSpaceOnUse" x1="6094.5781" y1="9567.9814" x2="6094.5781" y2="6139.8716" gradientTransform="matrix(0.9047 0 0 -0.9047 -368.5647 10202.8408)">
					<stop  offset="0" style="stop-color:#FFFFFF;stop-opacity:0"/>
					<stop  offset="0.325" style="stop-color:#D8EBEA;stop-opacity:0.325"/>
					<stop  offset="0.776" style="stop-color:#A6D2CE;stop-opacity:0.776"/>
					<stop  offset="1" style="stop-color:#93C8C4"/>
				</linearGradient>
				<polygon class="st42" points="5808.2,1503.4 5808.2,2902.7 5705,3244.4 5678.6,3344.4 5599.9,3641.7 5541.2,3863.6 
					5459.9,4171.1 5459.9,4171.2 5374.7,4493.2 5348.8,4591.1 4482.2,4591.1 4529.8,4482.7 4567.6,4396.7 4619.5,4279 
					4754.4,3972.2 4781.5,3910.4 4878.4,3690.2 4921.3,3592.6 4993.5,3428.6 5041,3320.2 5087.3,3215.1 5116.1,3149.6 
					5192.1,2976.9 5257.2,2828.7 5323.4,2678 5449.6,2391 5472.9,2338 5585.7,2081.6 5598.8,2051.9 5728.9,1756.1 				"/>
			</g>
		</g>
	</g>
</g>
</svg>
