<?xml version="1.0" encoding="utf-8"?>
<!-- Generator: Adobe Illustrator 24.0.3, SVG Export Plug-In . SVG Version: 6.00 Build 0)  -->
<svg version="1.1" id="Layer_1" xmlns="http://www.w3.org/2000/svg" xmlns:xlink="http://www.w3.org/1999/xlink" x="0px" y="0px"
	 viewBox="0 0 1745.1 4210.5" style="enable-background:new 0 0 1745.1 4210.5;" xml:space="preserve">
<style type="text/css">
	.st0{opacity:0.14;fill:url(#SVGID_1_);enable-background:new    ;}
	.st1{opacity:0.14;fill:url(#SVGID_2_);enable-background:new    ;}
	.st2{fill:#B1B1B1;}
	.st3{fill:#1E1E1E;}
	.st4{opacity:0.19;}
	.st5{fill:url(#SVGID_3_);}
	.st6{fill:url(#SVGID_4_);}
	.st7{fill:#213E48;}
	.st8{display:none;opacity:0.34;fill:url(#SVGID_5_);enable-background:new    ;}
	.st9{display:none;opacity:0.12;}
	.st10{display:inline;}
	.st11{fill:url(#SVGID_6_);}
	.st12{display:none;opacity:0.19;}
	.st13{fill:url(#SVGID_7_);}
	.st14{display:none;opacity:0.17;fill:url(#SVGID_8_);enable-background:new    ;}
	.st15{display:none;opacity:0.16;fill:url(#SVGID_9_);enable-background:new    ;}
	.st16{display:none;fill:#131517;}
	.st17{display:none;}
	.st18{opacity:0.14;fill:url(#SVGID_10_);enable-background:new    ;}
	.st19{fill:#131517;}
	.st20{opacity:0.4;fill:url(#SVGID_11_);enable-background:new    ;}
	.st21{opacity:0.12;}
	.st22{fill:url(#SVGID_12_);}
	.st23{fill:url(#SVGID_13_);}
	.st24{opacity:0.21;fill:url(#SVGID_14_);enable-background:new    ;}
	.st25{opacity:0.21;fill:url(#SVGID_15_);enable-background:new    ;}
	.st26{opacity:0.4;fill:url(#SVGID_16_);enable-background:new    ;}
	.st27{fill:url(#SVGID_17_);}
	.st28{fill:url(#SVGID_18_);}
	.st29{opacity:0.21;fill:url(#SVGID_19_);enable-background:new    ;}
	.st30{opacity:0.21;fill:url(#SVGID_20_);enable-background:new    ;}
	.st31{opacity:0.53;fill:url(#SVGID_21_);enable-background:new    ;}
	.st32{fill:url(#SVGID_22_);}
	.st33{opacity:0.15;fill:url(#SVGID_23_);enable-background:new    ;}
	.st34{opacity:0.1;fill:url(#SVGID_24_);enable-background:new    ;}
	.st35{fill:url(#SVGID_25_);}
</style>
<linearGradient id="SVGID_1_" gradientUnits="userSpaceOnUse" x1="-3994.6001" y1="6147.728" x2="-3994.6001" y2="5390.4355" gradientTransform="matrix(1 0 0 -1 0 11414.3359)">
	<stop  offset="0" style="stop-color:#FFFFFF;stop-opacity:0"/>
	<stop  offset="0.325" style="stop-color:#D8EBEA;stop-opacity:0.325"/>
	<stop  offset="0.776" style="stop-color:#A6D2CE;stop-opacity:0.776"/>
	<stop  offset="1" style="stop-color:#93C8C4"/>
</linearGradient>
<path class="st0" d="M-3679.2,5340.2v714.2l-625.6-7h-3.7c-0.2-13.2,0.1-49.2,0.4-85c0.2-19.6,0.3-39.1,0.4-54.8v-0.4
	c0.1-12.2,0.1-22,0.1-27.6l-0.2-32.9l-0.4-73.8l-1.1-231.6l-0.3-67.2l-0.4-186.6c43.9-22.9,96.6-21.5,139.6,5.5l8,5.2l31.8,19.9
	c9.2,5.9,19.2,10.5,29.3,14c43,14.7,90.6,7.8,128.6-19.9l18.8-13.7c19.4-14,41.2-22.7,63.6-26.1c32.2-4.6,65.7,2,94.7,20.4
	l40.9,25.6C-3731.5,5333-3705.3,5340.3-3679.2,5340.2z"/>
<linearGradient id="SVGID_2_" gradientUnits="userSpaceOnUse" x1="-3994.5" y1="6044.8018" x2="-3994.5" y2="5656.479" gradientTransform="matrix(1 0 0 -1 0 11414.3359)">
	<stop  offset="0" style="stop-color:#FFFFFF;stop-opacity:0"/>
	<stop  offset="0.325" style="stop-color:#D8EBEA;stop-opacity:0.325"/>
	<stop  offset="0.776" style="stop-color:#A6D2CE;stop-opacity:0.776"/>
	<stop  offset="0.9409" style="stop-color:#93C8C4"/>
</linearGradient>
<path class="st1" d="M-3679.2,5500v550.4l-625.7-5.7h-2.4c-0.1-9.2-0.2-37.2-0.2-67.9c-0.1-24-0.1-49.6-0.2-69.2v-0.4
	c0-13.7-0.1-24.5-0.1-29.6l-0.2-31.5l-0.5-73.2l-1.3-231.9c0.2,0.1,0.3,0.3,0.5,0.4c47.2,37.4,107.1,37.3,154.2,0.3
	c2.7-2.1,5.3-4.3,7.8-6.6l0.5-0.4c0.4-0.4,0.9-0.7,1.1-0.9c46.9-41.6,108.9-44.6,158.3-7.5l34.6,25.9l5.5,4.1
	c49.2,36.9,111,34.1,157.9-7.1l18.8-16.5C-3743.4,5508.8-3711.1,5497.8-3679.2,5500z"/>
<image style="overflow:visible;enable-background:new    ;" width="3103" height="3103" xlink:href="nessy.png"  transform="matrix(6.317076e-02 -6.773206e-03 6.773206e-03 6.317076e-02 -4071.0388 5622.7734)">
</image>
<g>
	<g id="Layer_2_1_" transform="translate(-65.911)">
		<path id="Path_1_1_" class="st2" d="M4935.5,2888.3c0.2,0,0.2,0,0.2-0.1C4935.6,2888.2,4935.5,2888.2,4935.5,2888.3z
			 M4935.5,2888.3h-1.4C4934.5,2888.4,4935,2888.4,4935.5,2888.3z M4175.9,2873c0.5,0.1,0.9,0.2,1.4,0.1L4175.9,2873z"/>
		<path id="Path_2_1_" class="st2" d="M4935.5,2888.3c0.2,0,0.2,0,0.2-0.1C4935.6,2888.2,4935.5,2888.2,4935.5,2888.3z
			 M4935.5,2888.3h-1.4C4934.5,2888.4,4935,2888.4,4935.5,2888.3z M4175.9,2873c0.5,0.1,0.9,0.2,1.4,0.1L4175.9,2873z"/>
		<path id="Path_3_1_" class="st3" d="M4982.3,1409.4c5.7,9.4,9.9,19.2,9.5,30.4c-0.4,6.6-0.4,13.3,0.1,19.9
			c1,11.1,2.8,22.1,3.9,33.2c0.6,7.1,1.4,14.2,1,21.3c-0.4,5.3-0.5,10.7-0.5,15.9c10.5-18.1,21.3-36.2,21.7-55.1
			C5018.6,1451.2,5000.5,1430.5,4982.3,1409.4L4982.3,1409.4z M4916.5,1726.2c-12,4.5-21.2,14.5-32,21.3
			c-18.7,11.8-41.6,13.8-63.5,15.5c-31.3,2.4-59.9,6.8-88.7,8.2c6.2,36.1,12,75,17.3,116.1c12.2,95,21.8,201.7,29.2,312.5
			l163.7-299.9c7,2.5,13.7,5.8,20.1,9.7c0.5-16.8,1-33.3,1.5-49.3c1.9-54.9,3.9-104.8,6.2-147.9c-7.6,4-16.6,7.1-27,8.9
			C4934.4,1722.7,4925.1,1722.9,4916.5,1726.2z M5412.3,2673.4c-81.9-22.5-137.3-39.4-137.5-43.4c-3.3-61.6-9,1.1-14.5-414.4
			c-1.2-85.6-2.3-169.8-3.3-249.3c-3.4-251.5-6.6-454.4-8.8-494.6c-1-18.5-1.9-37.2,7.1-54.9c7.3-14.7,21.3-28.1,32.3-42.2
			c35.3-45,39.6-94.1,47.1-142.1c0.7-4.6,2.3-9.1,3.3-13.7c3.3-13.4,47.9-23.1,65-31.8c9-4.7,17.7-10,26-16V731.5
			c-2-0.2-4-0.5-6-0.6c-16.6-1.5-33.1-3.4-49.6-5.2c-1.3-0.2-2.5-0.3-3.8-0.5c-0.6-0.1-1.3-0.1-1.9-0.1c-7.8,0.7-14.7-1.3-21.2-2.7
			c-8.2-1.8-16.6-2.8-25.1-2.8c-5.1,0-10.2,0.3-15.2-0.1c-2.9-0.4-5.8-0.2-8.6,0.4c-19.9,5-44.3,7.1-65.8,11.7
			c-6.2,1.3-12.4,1.7-18.6,1.3c-8.4-0.5-25.9,0.5-32.9-2c-8.7-3-5.4-9-14.4-12.6c-6.2-2.4-14-3.1-21.5-3.5c-37-2.4-75.9-2.5-112,3.1
			c-33,5.2-69.9,28.2-104.8,24.2c-6.3-0.7-13-0.5-19.5-1c-3.1-0.4-6.2-0.2-9.1,0.6c-2.2,0.5-4.4,0.8-6.7,0.7
			c-25-0.7-39.3,8-62.9,10.5c-0.9,0.2-1.8,0.5-2.6,0.9c-1.7,0.5-3.4,0.9-5.2,1.3c-3.5,0.7-7.2,1.3-10.8,2
			c-5.3,1.2-10.5,2.4-15.7,3.6c-47.6,10.7-93,21-129.4,41.7c-16.6,9.5-34.9,21.3-58.8,20c10.9-3.8,7.8-13.8-2.8-17.8
			c-10.5-4.1-24.6-3.9-37.4-3c-33.2,2.4-65.6,8.5-94.4,17.7c-7.8,2.5-15.7,5.3-24.7,5.6c-6,0.2-11.9-0.7-17.7-1.5
			c-60-8.1-126.8,0.8-173.2,23.1c-4.6,2.3-9.4,4.9-9.9,8.3c-0.4,2.4,1.7,4.8,2.8,7.2c6.2,13.8-19,25.1-41.1,32.7
			c-5.2,1.9-10.5,3.3-15.9,4.3c-3,0.4-6.1,0.5-9.1,0.6c-3.1,0.1-6.2,0.1-9.1,0.1c-47.8,0.1-99.3,13-127.9,34.3
			c-26.1,19.5,1.1,51.6-36.6,66c-15.9,6.1-35.9,9.9-46.9,18.6c-4.7,3.7-9.8,8.9-17.9,8.1c-4.1-0.4-7.2-2.2-11.3-2.7
			c-10.5-1.4-16.4,6-22,11c-13.7,12.1-44.6,15.1-61.2,26.1c-17.7,11.9-13.9,29-9.2,44.1c6.5,20.7,13.8,42.3,37.7,58.8
			c21.8,15,54.6,23.8,86.3,32c26.2,6.8,52.7,17.1,81.3,18.8c3.3,0.2,5.6,1.1,6.6,2.8c1.3,2.2,2.3,4.4,3.5,6.6
			c0.9,1.7,2.2,3.3,3.5,4.7c2.5,2.4,4.6,4.6,4.3,7.5c-0.1,0.9-0.1,1.8,0.2,2.7c23.4,91.7,23.2,187,95,273.1
			c12.5,14.9,26.9,29.5,37,45c2,3.1,6.1,74.7,10.9,188.1c0.4,8.5,0.7,17.3,1.1,26.2c3,73.5,6.3,161.9,9.5,259.3
			c4.7,141.9,9.3,302.8,12.9,463.3c3.1,136,7.2,106.3,5.6,191.1c-0.1,3.1-0.1,6.2-0.2,9.3c-2.5,116.6-8.1,194.7-17.8,209.1
			c-7.1,10.3-43.7,21.8-85.5,31.9c-6.5,1.5-13.8,3.5-21.6,5.8c-74.6,21.6-198.7,70.6-139.3,61.8c44.4-6.6,89.3-12.9,134.4-19
			c130.4-17.6,263.3-33,395.4-46.7c38.4-4,76.6-7.8,114.8-11.4c260.2-24.9,513.7-42.9,735-55.8c26.2-1.5,51.9-3,77.3-4.3v-187.4
			C5423.5,2676.5,5417.8,2675,5412.3,2673.4L5412.3,2673.4z M5281.7,1278.5c-11,33.6-31,63.1-61.2,84.2c-9.9,6.9-70.7,38.7-71.1,6.5
			c-0.5-34.1,0.3-68.3,0.9-102.4c0.3-16.8,0.6-33.7,0.8-50.5c0.2-17.5,1.4-35.6-2.2-52.7c14.1-3.3,29.8-0.9,43.3,3.7
			c10.9,3.7,21.4,9.8,33.2,9.8c7.1,0,64.8-16.6,65.9-2.2C5294.2,1209.4,5292.5,1245.5,5281.7,1278.5z M4864.7,1141.9
			c27-12.7,20.8,12.1,21.2,20.5c0.7,19.6-11.2,35.5-16.7,54.5c-1.5,5.2-3.2,10.2-4.8,15.3c-7.1,21.2-14.2,41.3-11.5,63.9
			c3.5,29.3,16.6,58.2,34.1,85.9c10.7,16.8,23,34.3,29,51.7c3.2,9.2,4.6,18.4,3.1,27.5c-0.8,5-2.5,9.9-5,14.3
			c-5.5,10.2-15.5,19.5-25.2,28.8c-9,8.5-18.2,17-30.1,24.3c-2,1.2-4.1,2.4-6.2,3.4c-5.7,2.8-12.2,5.1-19.7,5.8
			c-18.7,1.8-35.6-6.7-44.9-15.7c-18.8-18.6-18.8-41-26.6-61.9c-5.5-14.7-15.1-28.9-21.9-43.5c-12.8-27.4-15.9-56.2-9.1-84.3
			c5-20.6,17.1-40.7,18-61.6c0.9-21-7.1-42.8-11.3-63.7c-1.4-7.2-2.6-15.2,4.7-21.3c6.4-5.3,17.8-8,28.3-10.7
			c6.2-1.5,12.2-3.2,18.2-4.9C4815.5,1162.4,4841.3,1152.8,4864.7,1141.9L4864.7,1141.9z M4423.4,1250
			c10.4-10.7,31.2-14.5,18.5-29.4c-2.8-3.3-7.3-6.4-6.9-10c0.6-5,10.2-7.9,17.9-10.6c13.7-4.8,24.9-11.7,32-19.5
			c4.3-4.8,9.3-10.9,19.2-11.2c6.8-0.2,12.8,2.8,15.3,6.3c11.3,16.4,3.3,38.6,7.1,56c3.3,15.6,16.1,30,30.8,43.3
			c30,27.1,74,50.8,94.7,80.8c24.8,35.8,12.9,75.7,0.8,113.4c-1.2,4-5.1,6.6-9.2,6.2c-1.9-0.3-3.6-0.9-5.2-1.9
			c-42.7-24.3-61-54.5-78.6-85.9c-21.5-38.3-59.5-72.2-99.2-105.6c-3-2.5-6.2-4.9-9.5-7.2c-8-6-16.2-11.6-24.9-17.3
			c-1.6-1.1-3.4-2.3-3.9-3.7C4421.8,1252.3,4422.2,1251.1,4423.4,1250L4423.4,1250z M4598.7,1264.3c-12.3-9.3-17.6-20.8-22.5-31.9
			l-15.3-33.8c-1.8-3.5-12.6-9-10.2-13.1c1-1.6,2.5-2.9,4.3-3.6c8.1-3.3,22.8,1.4,31.5,2.2c10.3,0.8,25.1-1.9,34-4.6
			c15.5-4.7,30.8-12.5,42.9-19.5c25.3-14.8,43.2,49.6,41.4,58.8c-4.3,21.8-15,43.7-21.9,65.3c-0.5,1.7-1.2,3.5-3.4,4.8
			c-2.1,1.2-5.2,1.5-8.1,1.7C4643.7,1292.1,4613.6,1275.7,4598.7,1264.3z M4204,1457.1c-4.9-5.1-6.9-10.6-8-16.2
			c-0.2-0.9-0.5-1.8-1.1-2.7c-1.2-2.3-2.4-4.6-3.7-6.9c-2-3.4-4-7-6.2-10.4c-1.4-2.3-3.2-4.4-4.6-6.8c-0.4-0.8-0.6-1.7-0.6-2.7
			c-0.4-1.7,0.1-3.6-1.1-5.1c-4.9-6.2-5.6-12.9-8.9-19.3c-1.4-2.9-1.9-5.9-2.9-8.8c-0.2-0.7-0.5-1.4-0.8-2
			c-3.6-5.5-6.1-11.7-7.1-18.2c-1.2-7.8-3.5-15.6-5.2-23.2c-0.7-3.1-0.3-6.3-1.7-9.2c-3.2-6.5-3.5-13.3-6.2-19.9
			c-2.4-6-2.6-12.3-3.8-18.5c-0.9-4.6-1.9-9.1-2.7-13.8c-1-5.2-2.2-10.5-2.5-15.7c-0.4-6.5,0.3-13-0.5-19.5
			c-0.3-2.1-1.4-3.2-5.5-3.8c-4.5-0.7-9.1-1.6-11.9-4.2c-3.3-3.1-1.9-5.1,4.4-5.8c3.1-0.4,6.3-0.4,9.4-0.7c3.3-0.4,6.4-0.8,9.6-1.5
			c2.8-0.6,5.7-0.6,8.6,0c2.6,0.6,5.2,1,7.9,1.3c10.5,0.4,8.5,1.2,13-3.6c6.9-7.2,22-12.3,38.2-11.6c2.5,0.1,5.1,0.1,7.5-0.1
			c3.2-0.3,6.1-0.5,9.2,0.4c3,0.8,5.5-0.1,7.9-1.3c4.9-2.5,9.9-5,15.1-7.3c4.6-2,11.7-1.8,16.3,0.2c5.5,2.4,10.8,4.7,14.7,8
			c3.5,2.8,6.3,6.3,8.3,10.4c1.2,2.4,2.4,4.5,7,5.8c1.4,0.5,2.6,1.6,3.1,3.2c1.6,6.1,3.1,12,4.4,18.1c0.7,3.5,1.7,7,1.5,10.6
			c-0.2,2.9,1.7,6.1,2,9.1c0.5,6.2,1.4,12.4,2.3,18.6c0.3,2.1,1,4.1,1.4,6.2c1.1,4.9,3.3,9.9,3,14.7c-0.3,5.2,3.5,9.9,3.3,14.8
			c0,1.2,0.3,2.3,0.3,3.4c-0.2,5.2-0.5,10.3-0.7,15.5c0,0.4-0.2,0.7,0,1c3.6,5.6,1.5,11.4,0.9,17c-0.5,4.6-0.9,9.1,0.6,13.8
			c1.4,4.5,3.3,9,1.8,13.7c-0.5,1.6,0.8,3.3,1.1,5.1c0.9,6.1,1.8,12.1,2.4,18.3c-0.1,1.2-0.8,2.7-1.4,4.2
			c-3.1,7.1-6.2,14.1-9.4,21.2c-2.4,5.1-5.2,10.1-7.6,15.3c-1,2-1.7,4.2-2.2,6.4c-0.9,4.6-2.7,8.9-5.4,12.8
			c-1.1,1.5-1.1,3.3-1.9,5.1c-3,5.6-5.3,11.4-9.5,16.7c-2.6,3.3-7.2,6.6-12.4,9c-6.9,3.2-15,5.5-22.9,8c-10.5,3.3-21.9-0.5-21.8-8.4
			c-1-2.1-1.7-5.8-4.5-8.9c-4.8-5.3-8.1-10.8-9.2-16.6c-0.1-0.6-0.8-1.3-1.4-1.9c-2.1-2.5-4.3-5-6.2-7.5
			C4206.5,1460.7,4205.8,1458.8,4204,1457.1L4204,1457.1z M4785.8,2824.8l2.4,0.1C4787.5,2824.9,4786.6,2824.9,4785.8,2824.8z
			 M4758.1,2743.8c-44.7,28.8-197.6,68.6-213.8,22.3c-17.1-54.5-95.3-515.4-105.4-593.9c-5.2-40.8-10.4-81.1-15.3-120.6
			c-14.7-118.6-27.7-230.2-37.6-326c-10.7-101.5-18-185.2-20.8-240.4c-3.4-68.8-23.6-158.1,20.3-224c53.2,37.9,93.1,81.4,117,127.3
			c12.3,23.6,20.6,48.1,42.2,69.7c23.4,23.2,60.7,41.2,94.3,60.3c35.2,20.1,63.3,98.4,85.7,211.4c2.6,13.3,5.2,27,7.7,41.3
			c6.2,36.1,12,75,17.3,116.1c12.2,95,21.8,201.7,29.2,312.5c3.6,53.7,14.6,291.5,15.9,338C4803.2,2654.5,4774,2739.6,4758.1,2743.8
			z M5096.8,2638.7c-4.3,36.5-134.3,122.4-140.8,84c-4-23.8-6-198.9-5.6-428.3c0.1-74.6,0.5,352.7,1.1,270
			c0.5-57.4,1-115.8,1.7-174.3c2-169.1,5.1-338.2,9.3-480.5c0.5-16.8,1-33.3,1.5-49.3c1.9-54.9,3.9-104.8,6.2-147.9
			c4.9-92.5,10.7-154.1,17.5-167c12.8-24.6,32.7-48.5,29.2-78.1c-2.3-18.5-13.6-33.9-25.6-47.4c-23.1-26-41.3-54.8-62.7-82.1
			c-7.7-9.8-18.3-19-19.2-32.2c-1.9-27.6-0.9-56.7,1.8-84.8c2.1-21.9,4.9-46.8,23.7-61.2c11.7-8.9,17,1.5,26.7-0.3
			c11.5-2.2,17.6-5.2,27.4-11.6c13.3-8.7,37.5-2,47-10.5c4.3-3.8,5.9-8.5,12-11.4c10-4.9,27.1-1.8,34.7,4.3
			c7.6,6.1,8.4,13.8,8.8,21.2c0.2,3.2,0.4,6.2,0.5,9.4c3.6,80.6-2.2,161.4,10.1,241.7c8,52,23.3,103.9,18.5,156
			c0,0.5-0.1,5.6-0.1,14.8c-0.2,57.8-0.1,274.5,1.2,477.6c0.4,61.7,0.8,122.2,1.4,176.5C5123.9,2277.1,5099.1,2619.2,5096.8,2638.7z
			"/>
		<path id="Path_6_1_" class="st2" d="M4393.2,2738.7"/>
		<path id="Path_7_1_" class="st2" d="M4412.5,2731"/>
	</g>
	<g class="st4">
		
			<linearGradient id="SVGID_3_" gradientUnits="userSpaceOnUse" x1="6147.106" y1="2287.6868" x2="6147.106" y2="4503.1841" gradientTransform="matrix(0.9047 0 0 0.9047 -677.2186 -147.3096)">
			<stop  offset="0" style="stop-color:#FFFFFF;stop-opacity:0"/>
			<stop  offset="0.325" style="stop-color:#D8EBEA;stop-opacity:0.325"/>
			<stop  offset="0.776" style="stop-color:#A6D2CE;stop-opacity:0.776"/>
			<stop  offset="1" style="stop-color:#93C8C4"/>
		</linearGradient>
		<path class="st5" d="M5362.4,1894.8v742l-16.4,47.8l-265.8,776l-2.2,7.8c-9.6,21.5-54.9,51.5-118.1,73.3
			c-84,29-199.6,383.7-305,345.8c-184.7-66.3-268-269.4-245.6-319.6l4.3-7l150.8-264.9l128.3-225.3l85.2-149.6l111.8-196.3
			l31.8-55.8l19.8-34.7l52.2-91.6l44.7-78.6l45.5-80l86.8-152.3l16-28.1l77.5-136.1l9-15.7L5362.4,1894.8L5362.4,1894.8z"/>
	</g>
	<g class="st4">
		
			<linearGradient id="SVGID_4_" gradientUnits="userSpaceOnUse" x1="5711.4351" y1="968.6379" x2="5711.4351" y2="4204.8687" gradientTransform="matrix(0.9047 0 0 0.9047 -677.2186 -147.3096)">
			<stop  offset="0" style="stop-color:#FFFFFF;stop-opacity:0"/>
			<stop  offset="0.325" style="stop-color:#D8EBEA;stop-opacity:0.325"/>
			<stop  offset="0.776" style="stop-color:#A6D2CE;stop-opacity:0.776"/>
			<stop  offset="1" style="stop-color:#93C8C4"/>
		</linearGradient>
		<path class="st6" d="M5404.1,688.6v338.7l-0.3,0.5l-164.1,280.6l-33.3,57.1l-153,261.5l-178.2,304.5l-24.6,42.1l-186.1,318.3
			l-104.2,178l-59.9,102.5l-58.5,100.1l-81.4,139l-77.3,132.1L4048,3345.7l-12,20.5l-24,41l-5.8,10.7
			c-12.6,20.2-39.4,47.9-73.9,75.9c-84.8,68.8-215.2,138.3-290.5,97.3c-105.9-57.5-62.9-311.7-19.4-381.6l7-9.9l130.3-188.3
			l281.9-407.4l119.4-172.5l116.9-168.8l147.7-213.6l146.7-212.1l30.5-44l145.3-210.2l72.5-104.3l43.8-63.3l3.1-4.5l153.5-221.8
			l319.7-462l25.4-36.8L5404.1,688.6L5404.1,688.6z"/>
	</g>
	<path d="M3600.7,1506.2c44.4,66.9-47-6.5-47.5,48.3c-1.1,138.3,36.2,312.8,36.9,400.7c1.6,206.4,22.5,505.2,24.2,711.5
		c1.4,180.7,2.9,361.5,4.4,542.3c1.1,131.7,2.2,263.4,3.2,395.2c0.5,59.3,1,118.4,1.4,177.7c0,1.2,0,2.4,0,3.5h1765.6
		c0.2-0.3-4.3-586.5-22.9-586.4c-311.1,1.2-199.8,161-328.7,165.6c-102.6,3.6-184.5,203-229.2,206.6c-12.2,1-75.1-2.1-144.2-8.1
		c-74.4-6.4-156-16.3-189.9-28.2c-45.1-15.7-137.9-64.7-190-78.5c-19-5.1-178.3-22.2-197.6-26.6c-18.5-4.3-60.8-12.8-98.9-24.2
		c-13.8-183.9-132.6-818.4-51.1-1086.6c45.4-145.9,334.9-111,355.9-175.6c35.5-34.4,163.6-256.9,208.5-285.7
		c21.4-26.3,49.6-45.8,74.6-68.4c5.7-5.2,11.2-10.5,16.5-16.1c36-38.2,57.8-87.8,79.1-136.2c21-1.6,42,1.4,63,4.6
		c28.4,4.3,25-8,52.7-14c14.8-3.3,12-34.5,14.1-35.4c11.1-34.4,49.5-27.5,51.5-77.8c-2-64.6-13.8-25.4-25.2-81.8
		c-1.7-8.4-45.4-69.7-90.6-74.5c-59.8-2.3-67.8,18.9-118.3,10.9c-26.6-9-176.5-72.7-225.2-24.2c-30.7,35.3-121.2-13.1-145.4,73.7
		c-26.5,81.8-47.5,42.4-68.7,91.9s19.4,121.2,31.4,132.2c9.7,8.8,22.4,13,34.7,17c2.3,0.7,4.5,1.6,6.6,2.5
		c49.6,21.9,50.6,93.1,92.5,54.4c16.5,28,21.5,60.5,19.6,93.5c-1.7,28-8.5,56.5-17.7,82.8c-7.5,21.5-130,96.7-152.3,112.1
		c-1.6,1.2-3.3,2.2-4.8,3.1c0.5,0.4,1.2,0.7,1.7,1.1c0,0-0.7,1-1.1,1.4c-0.7-0.5-1.4-1.1-2-1.6l-0.1-0.1
		c-29.5,16.5-253.1,69.9-332.3-27c-46.8-61.3-50.6-203.9,26.6-342.2c23.2-41.5,53.6-68.6,86.7-85.8c36.4-18.9,68.5,19.1,105.7,17.6
		c70.7-2.7,106.7,35.8,119.1,31.8c61-19.5,170.7-216.5,212.4-221.5c48.9-6,144.7-3.4,192.6,8.5c17,4.3,34.7-9.3,50.5-8.5
		c11.6,0.5,59.3,15.2,70.7,14.6c28.9-1.5,70.9,18.6,77.6-2.9c17.3-55.8-38.8-122.5-20.1-134.3c10.9-6.9-4.7-31.1,7.3-35.6
		c8.5-3.3,25.6-67.6-9.1-86.2c-36.1-19.4-74.5-40.2-94.6-77.7c-16-30-17.9-65.5-42-91.5c-18.5-20-42.2-47.9-64.9-59.8
		c-41.8-22.1-55.5-76-102.8-90c-43.1-12.8-89.7-14-133.6-24.9c-29.6-7.3-60-11.9-90.5-10c-28.8,1.7-54.9,14.7-83,17
		c-70.3,5.8-103.9-72.3-171.4-33.3c-22.2,12.8-60.6,11.9-97.3,8.5c-36.7-3.3-55,9.7-78.3,25.8c-35.4,24.5-38.4,59.3-83.4,61.2
		c-52.8,2.4-186.8,42.9-129.3,239.3 M4406.2,1715.9c-1.2-15.7,0.8-31.1,9.3-44.8c14.6-23.3,88.7-14.2,115.3-19.2
		c13.3-2.5,89.3-43.3,87.5-15.8c-1.7,26.5-13.8,56-29.2,77.4c-27,37.3-76.9,42.4-112.8,82.4c-1.6,0.3-55.9,57.4-56.9,53.9
		C4416,1838.2,4407.1,1728.2,4406.2,1715.9z"/>
	<path d="M4142.4,1672.3"/>
</g>
<g id="Layer_2_2_" transform="translate(-65.911)">
	<path class="st7" d="M-6087.7,2110.8C-6092.4,2114.5-6079.6,2111.6-6087.7,2110.8L-6087.7,2110.8z M-4639.6,4399.8v12.5
		C-4631,4410.6-4629.6,4406.5-4639.6,4399.8z"/>
	<path class="st7" d="M-4813,4346.2c-17.6-59.1-9-633-14.5-1048c-1.2-85.5-2.3-169.6-3.3-249c-3.4-251.2-6.6-453.9-8.8-493.9
		c-1-18.5-1.9-37.2,7.1-54.8c7.3-14.7,21.3-28.1,32.3-42.2c35.3-44.9,39.6-94,47.1-141.9c0.7-4.6,2.3-9.1,3.3-13.7
		c3.3-13.4,47.9-23.1,65-31.8c9-4.7,36.8-23.6,45.1-29.6v-439c-2-0.2-4-0.5-6-0.6c-16.6-1.5-52.2,10.1-68.7,8.3
		c-1.3-0.2-2.5-0.3-3.8-0.5c-0.6-0.1-1.3-0.1-1.9-0.1c-7.8,0.7-14.7-1.3-21.2-2.7c-8.2-1.8-16.6-2.8-25.1-2.8
		c-5.1,0-10.2,0.3-15.2-0.1c-2.9-0.4-5.8-0.2-8.6,0.4c-19.9,5-44.3,7.1-65.8,11.7c-6.2,1.3-12.4,1.7-18.6,1.3
		c-8.4-0.5-25.9,0.5-32.9-2c-8.7-3-5.4-9-14.4-12.6c-6.2-2.4-14-3.1-21.5-3.5c-37-2.4-75.9-2.5-112,3.1
		c-33,5.2-69.9,28.2-104.8,24.2c-6.3-0.7-13-0.5-19.5-1c-3.1-0.4-6.2-0.2-9.1,0.6c-2.2,0.5-4.4,0.8-6.7,0.7
		c-25-0.7-39.3,8-62.9,10.5c-0.9,0.2-1.8,0.5-2.6,0.9c-1.7,0.5-3.4,0.9-5.2,1.3c-3.5,0.7-7.2,1.3-10.8,2c-5.3,1.2-10.5,2.4-15.7,3.6
		c-47.6,10.7-93,21-129.4,41.6c-16.6,9.5-51,6.2-61.6,2.2c-10.5-4.1-24.6-3.9-37.4-3c-33.2,2.4-65.6,8.5-94.4,17.7
		c-7.8,2.5-15.7,5.3-24.7,5.6c-6,0.2-11.9-0.7-17.7-1.5c-60-8.1-126.8,0.8-173.2,23.1c-4.6,2.3-9.4,4.9-9.9,8.3
		c-0.4,2.4,1.7,4.8,2.8,7.2c6.2,13.8-19,25.1-41.1,32.7c-5.2,1.9-10.5,3.3-15.9,4.3c-3,0.4-6.1,0.5-9.1,0.6
		c-3.1,0.1-6.2,0.1-9.1,0.1c-47.8,0.1-99.3,13-127.9,34.3c-26.1,19.5,13.3,40-24.4,54.4c-15.9,6.1-11,29.5-22,38.2
		c8.1,0.8-4.7,3.7,0,0c-4.1-0.4-7.2-2.2-11.3-2.7c-10.5-1.4-16.4,6-22,11c-13.7,12.1-44.6,15.1-61.2,26.1c-17.7,11.9-13.9,29-9.2,44
		c6.5,20.7,13.8,42.2,37.7,58.7c1.8,1.2,3.7,2.4,5.6,3.6l-40.1,268.9c-0.9,6.1-0.7,12.3,0.7,18.4l92,405.3c0.9,3.9,1.3,7.9,1.2,11.8
		l-27.2,1650c-0.4,22.4-13.9,42.5-34.4,51.5c-40.1,17.4-65.7,31.3-62.8,37.8c1.3,0.1,4.6,0.5,9.9,0.9v968.2h1569.2v-1252
		C-4671.1,4418.2-4799.5,4391.4-4813,4346.2z M-6118.4,2352.1l8.1-47.6c3.1-18.5,21.4-30.3,39.5-25.6c1.1,0.3,2.3,0.6,3.4,0.9
		c4.7,1.2,10.4,2,16.7,2.4c12.6,0.8,17.8,16.5,8.3,24.8l-61.3,53.4C-6110,2365.9-6119.8,2360.4-6118.4,2352.1z M-6119.2,2536.2
		c-4.4-8.6-6.1-18.4-5.1-28l8-72.4c1.4-12.5,7.4-23.9,16.9-32.2l112.2-97.4c7.1-6.1,18.1-1.9,19.3,7.3l28.9,219.9
		c2.7,20.2-0.1,40.8-8,59.6l-23.2,55.2c-16.4,39.1-71.1,41-90.3,3.2L-6119.2,2536.2z M-5828.3,4570.6l1.4,0.1
		C-5827.4,4570.8-5827.8,4570.7-5828.3,4570.6z M-5767.4,4382.8c-0.1,3.1-0.1,6.2-0.2,9.3c-2.5,116.4-6.9,109.5-16.6,123.8
		c-1.6,2.3-24.7,11.2-59.6,24c-18.6,6.8-38.5-6.3-39.6-26.1l-89.8-1641.4c-0.1-6.1,5.4-37,7.6-42.8l76.4-208.7
		c6.8-18,11.1-36.8,12.9-55.8c0.9-9.4,12.9-12.7,18.4-5c4.2,5.8,8.7,11.6,13.5,17.4c12.5,14.9,26.9,29.5,37,44.9
		c2,3.1,6.1,74.6,10.9,187.8c0.4,8.5,0.7,17.3,1.1,26.2c3,73.4,6.3,161.8,9.5,258.9c4.7,141.8,9.3,936.5,12.9,1096.7
		C-5769.9,4327.8-5765.8,4298.1-5767.4,4382.8z M-5731.7,2564.2c-8.8,1.5-76.9,0-103.5-113.4c-6.3-27-12.8-54.3-23.1-79.6
		c-2.4-6-2.6-12.3-3.8-18.5c-0.9-4.6-1.9-9.1-2.7-13.8c-1-5.2-2.2-10.5-2.5-15.7c-0.4-6.5,0.3-13-0.5-19.5c-0.3-2.1,2.9-15.3,6.1-16
		c2.8-0.6,5.7-0.6,8.6,0c2.6,0.6,5.2,1,7.9,1.3c10.5,0.4,8.5,1.2,13-3.6c6.9-7.2,22-12.3,38.2-11.6c2.5,0.1,5.1,0.1,7.5-0.1
		c3.2-0.3,6.1-0.5,9.2,0.4c3,0.8,5.5-0.1,7.9-1.3c4.9-2.5,9.9-5,15.1-7.3c4.6-2,11.7-1.8,16.3,0.2c5.5,2.4,10.8,4.7,14.7,8
		c3.5,2.8,6.3,6.3,8.3,10.4c1.2,2.4,13.1,21,14.5,27c0.7,3.5,1.7,7,1.5,10.6c-0.2,2.9,2.2,6.1,2,9.1
		C-5699.5,2372.3-5666.2,2551.6-5731.7,2564.2z M-5537.2,2269.2c1-1.6,2.5-2.9,4.3-3.6c8.1-3.3,22.8,1.4,31.5,2.2
		c10.3,0.8,25.1-1.9,34-4.6c15.5-4.7,30.8-12.5,42.9-19.5c25.3-14.8,43.2,49.5,41.4,58.7c-4.3,21.8-15,43.6-21.9,65.2
		c-0.5,1.7-1.2,3.5-3.4,4.8c-2.1,1.2-5.2,1.5-8.1,1.7c-27.7,1.8-57.8-14.7-72.7-26c-12.3-9.3-17.6-20.8-22.5-31.9l-15.3-33.8
		C-5528.8,2278.8-5539.5,2273.4-5537.2,2269.2z M-5634.9,2283.8c13.7-4.8,24.9-11.7,32-19.5c4.3-4.8,9.3-10.9,19.2-11.2
		c6.8-0.2,12.8,2.8,15.3,6.3c11.3,16.4,3.3,38.5,7.1,55.9c3.3,15.6,16.1,30,30.8,43.2c30,27.1,74,50.7,94.7,80.7
		c16.4,23.7,22.8,36.3,21.7,53c-0.5,7.7-9.7,11.1-15.2,5.7c-17.4-17.5-57.8-14.5-71.1-38.3
		C-5521.8,2421.4-5642.6,2286.5-5634.9,2283.8z M-5302,4540.7l2.4,0.1C-5300.4,4540.8-5301.2,4540.8-5302,4540.7z M-5329.7,4459.8
		c-19.7,12.7-50.5,28.6-84,36.6c-62.8,15-124.8-27.9-133.4-91.9c-57.5-427.6-111.5-1824.1-91.9-1854c-2.8-55.7,18.3-76,7.5-122.2
		c-1.9-8.3,6.9-14.8,14.3-10.4c22.4,13.2,42.3,10.1,59.4,43c12.3,23.6,20.6,48,42.2,69.6c23.4,23.2,60.7,41.1,94.3,60.2
		c35.2,20.1,35.7,109.6,58.1,222.4c2.6,13.3,5.2,27,7.7,41.2v0.1c6.2,36.1,12,74.8,17.3,115.8c12.2,94.9,21.8,201.5,29.2,312.1v0.1
		c3.6,54.4,14.6,925.1,15.9,971.5C-5284.6,4370.6-5313.8,4455.5-5329.7,4459.8z M-5168.7,2544.8c-0.8,5-2.5,9.9-5,14.3
		c-5.5,10.2-15.5,19.5-25.2,28.8c-9,8.5-18.2,17-30.1,24.3c-2,1.2-4.1,2.4-6.2,3.4c-5.7,2.8-12.2,5.1-19.7,5.8
		c-18.7,1.8-35.6-6.7-44.9-15.7c-18.8-18.6-18.8-40.9-26.6-61.8c-5.5-14.7-15.1-28.9-21.9-43.4c-12.9-27.5-16-56.1-9.2-84.3
		c5-20.6,17.1-40.6,18-61.5c0.9-21-7.1-42.7-11.3-63.6c-1.4-7.2-2.6-15.2,4.7-21.3c6.4-5.3,17.8-8,28.3-10.7
		c6.2-1.5,12.2-3.2,18.2-4.9c27.3-8,53.1-17.6,76.5-28.5c27-12.7,20.8,12.1,21.2,20.5c0.7,19.6-11.2,35.5-16.7,54.4
		c-1.5,5.2-3.2,10.2-4.8,15.3c-7.1,21.2-14.2,41.2-11.5,63.8c3.5,29.3,16.6,58.1,34.1,85.9c10.7,16.8,23,34.3,29,51.7
		C-5168.6,2526.5-5167.2,2535.7-5168.7,2544.8z M-5152.3,4604.1c-0.5,0.1-1,0.1-1.4,0H-5152.3c0-0.1,0.1-0.1,0.2-0.1
		C-5152.1,4604.1-5152.1,4604.1-5152.3,4604.1z M-4991.1,4354.8c-4.3,36.4-134.3,122.2-140.8,83.9c-1.7-10.4-3.1-171.4-4.1-368.5
		c-0.2,107.7-0.4,192-0.5,210.4c-0.4,50.6-0.6-327.1-0.9-610.8c0.3,127.5,0.7,271.6,1.4,400.4c0.4-227,0.7-558.2,1.3-597.8
		c2-168.9,5.1-337.8,9.3-479.8c0.5-16.8,1-33.3,1.5-49.2c1.9-54.8,3.9-104.7,6.2-147.7c4.9-92.4,10.7-153.9,17.5-166.8
		c2.6-5.1,5.6-10.1,8.6-15.2c0.7-1.3,1.5-2.6,2.3-3.9c0.3-0.4,0.5-0.8,0.7-1.2c2.4-4.3,4.9-8.5,7.1-12.8c0.2-0.4,0.4-0.7,0.5-1.1
		s0.4-0.7,0.5-1.1c6.7-13.3,11.2-27.3,9.4-42.8c-0.7-6.2-2.5-11.9-5-17.5c-2.4-5.5-5.6-10.7-9.1-15.7s-7.5-9.7-11.5-14.2
		c-23.1-26-41.3-54.8-62.7-81.9c-7.7-9.8-18.3-18.9-19.2-32.2c-1.6-27.5-0.6-56.6,2.1-84.6c2.1-21.9,4.9-46.7,23.7-61.1
		c11.7-8.9,17,1.5,26.7-0.3c11.5-2.2,17.6-5.2,27.4-11.6c13.3-8.7,37.5-2,47-10.5c4.3-3.8,5.9-8.5,12-11.4c10-4.9,27.1-1.8,34.7,4.3
		s8.4,13.8,8.8,21.2c0.2,3.2,0.4,6.2,0.5,9.4c3.6,80.5-2.2,161.2,10.1,241.5c8,51.9,23.3,103.9,18.5,155.8c0,0.5-0.1,5.6-0.1,14.8
		c-0.2,57.7-0.1,274.1,1.2,476.9c0.4,61.6,0.8,122,1.4,176.3C-4964.1,3359.6-4988.8,4335.4-4991.1,4354.8z M-5137.3,3376.9
		c0,22.4,0.1,142.3,0.2,288.1C-5137.3,3544.4-5137.4,3439.2-5137.3,3376.9z M-4867.4,2446.4c-9.9,6.9-70.7,38.6-71.1,6.5
		c-0.5-34.1,0.3-68.2,0.9-102.3c0.3-16.8,0.6-33.7,0.8-50.5c0.2-17.5,1.4-35.5-2.2-52.6c14.2-3.2,29.8-0.8,43.4,3.8
		c10.9,3.7,21.4,9.8,33.2,9.8c7.1,0,64.8-16.6,65.9-2.2c2.9,34.4,1.2,70.5-9.7,103.4C-4817.2,2395.8-4837.2,2425.4-4867.4,2446.4z"
		/>
</g>
<linearGradient id="SVGID_5_" gradientUnits="userSpaceOnUse" x1="1513.6718" y1="9413.3936" x2="1513.6718" y2="8133.8394" gradientTransform="matrix(0.9047 0 0 0.9047 -677.2186 -4254.4365)">
	<stop  offset="0" style="stop-color:#FFFFFF;stop-opacity:0"/>
	<stop  offset="0.325" style="stop-color:#D8EBEA;stop-opacity:0.325"/>
	<stop  offset="0.776" style="stop-color:#A6D2CE;stop-opacity:0.776"/>
	<stop  offset="1" style="stop-color:#93C8C4"/>
</linearGradient>
<path class="st8" d="M1565.5,3118.2v1145.1l-355-4.4l-844.9-10.5l-480.9-6l-60.2-0.7l-4.3-585.6l-0.8-275.4
	c-0.1-47.9-0.3-97.9-0.4-149.1c0-11.8-0.1-23.5-0.1-35.4l18.8,4l159.1,33.7c37.3,7.9,77.9,12,119.4,12.6c8.1,0.1,16.4,0.1,24.6-0.1
	c78.2-1.6,157.9-15.7,222.9-41l0.9-0.4c16.3-6.3,33.6-11.9,51.4-16.9c94.7-26.1,208.3-31.8,303.1-14.1l90.6,16.9
	c6.3,1.2,12.8,2.3,19.3,3.3c107.7,16.1,235.6,3.7,332.1-33l40.9-15.6c90.6-34.5,208.9-47.5,312.1-35.6c13.7,1.5,27,3.6,40.1,6.1
	L1565.5,3118.2z"/>
<g class="st9">
	<g class="st10">
		<g>
			
				<linearGradient id="SVGID_6_" gradientUnits="userSpaceOnUse" x1="1929.0026" y1="6153.1274" x2="1929.0026" y2="9581.2373" gradientTransform="matrix(0.9047 0 0 0.9047 -677.2186 -4254.4365)">
				<stop  offset="0" style="stop-color:#FFFFFF;stop-opacity:0"/>
				<stop  offset="0.325" style="stop-color:#D8EBEA;stop-opacity:0.325"/>
				<stop  offset="0.776" style="stop-color:#A6D2CE;stop-opacity:0.776"/>
				<stop  offset="1" style="stop-color:#93C8C4"/>
			</linearGradient>
			<polygon class="st11" points="1730.9,1269.1 1730.9,2668.4 1627.8,3010.1 1601.3,3110.1 1522.7,3407.4 1464,3629.3 
				1382.7,3936.8 1382.7,3936.9 1297.5,4258.9 1271.6,4356.8 405,4356.8 452.6,4248.4 490.5,4162.4 542.2,4044.7 677.1,3737.9 
				704.3,3676.1 801.1,3456 844.1,3358.3 916.2,3194.3 963.9,3086 1010.1,2980.8 1038.9,2915.3 1114.9,2742.6 1179.9,2594.5 
				1246.1,2443.7 1372.3,2156.7 1395.7,2103.7 1508.5,1847.3 1521.5,1817.6 1651.6,1521.8 			"/>
		</g>
	</g>
</g>
<image style="display:none;overflow:visible;enable-background:new    ;" width="3103" height="3103" xlink:href="nessy.png"  transform="matrix(9.933096e-02 0 0 9.933096e-02 1061.2319 3255.4204)">
</image>
<g class="st12">
	<g class="st10">
		<g>
			
				<linearGradient id="SVGID_7_" gradientUnits="userSpaceOnUse" x1="1632.3295" y1="5113.8857" x2="1632.3295" y2="9600.7178" gradientTransform="matrix(0.9047 0 0 0.9047 -677.2186 -4254.4365)">
				<stop  offset="0" style="stop-color:#FFFFFF;stop-opacity:0"/>
				<stop  offset="0.325" style="stop-color:#D8EBEA;stop-opacity:0.325"/>
				<stop  offset="0.776" style="stop-color:#A6D2CE;stop-opacity:0.776"/>
				<stop  offset="1" style="stop-color:#93C8C4"/>
			</linearGradient>
			<path class="st13" d="M1693.3,315.6V827l-0.4,0.7l-213.5,423.7l-43.3,86.2l-199,394.9l-231.9,459.8l-32,63.5l-242.3,480.6
				l-135.6,268.9l-77.9,154.8l-14.2,28.2l-62,123l-68.1,135l-37.8,74.8l-61.6,122.1l-19.3,38.2l-19.7,39.1l-263.1,521.9l-43,85.2
				l-14.7,29h-1.6c-0.3-38.4-0.6-76.7-1-115.1c-0.1-14.7-0.3-29.6-0.4-44.3c-1-131.7-2.1-263.4-3.2-395.2
				c-0.3-28-0.5-79.1-0.7-146.1l-0.8-275.4c-0.1-47.9-0.3-97.9-0.4-149.1l14.3-23.9l4.4-7.4l150.9-253l128.8-215.9l23.2-39
				l192.2-322.5l191-320.2l39.6-66.4l189.1-317.4l94.3-157.5l57-95.6l4-6.9l199.7-334.9l416-697.6l33.1-55.5L1693.3,315.6z"/>
		</g>
	</g>
</g>
<linearGradient id="SVGID_8_" gradientUnits="userSpaceOnUse" x1="1513.9481" y1="9524.1738" x2="1513.9481" y2="8454.8262" gradientTransform="matrix(0.9047 0 0 0.9047 -677.2186 -4254.4365)">
	<stop  offset="0" style="stop-color:#FFFFFF;stop-opacity:0"/>
	<stop  offset="0.325" style="stop-color:#D8EBEA;stop-opacity:0.325"/>
	<stop  offset="0.776" style="stop-color:#A6D2CE;stop-opacity:0.776"/>
	<stop  offset="1" style="stop-color:#93C8C4"/>
</linearGradient>
<path class="st14" d="M1565.5,3366.8v990h-1740c-0.3-38.4-0.6-76.7-1-115.1l-4.3-585.6l-0.8-275.4c98.1-33.9,215.9-31.7,311.9,8.1
	l18.1,7.5l71.1,29.4c20.9,8.7,42.9,15.6,65.5,20.6c95.7,21.7,202.3,11.7,287-29.3l41.9-20.3c43.2-20.8,91.9-33.7,142-38.4
	c71.9-6.8,146.6,3.1,211.4,30l91.1,37.9c108.3,45.1,244.6,42.6,349.3-6.3l26.9-12.6l14.5-6.8
	C1485.8,3383.9,1525,3372.7,1565.5,3366.8z"/>
<linearGradient id="SVGID_9_" gradientUnits="userSpaceOnUse" x1="1514.3901" y1="9720.2793" x2="1514.3901" y2="9117.0303" gradientTransform="matrix(0.9047 0 0 0.9047 -677.2186 -4254.4365)">
	<stop  offset="0" style="stop-color:#FFFFFF;stop-opacity:0"/>
	<stop  offset="0.325" style="stop-color:#D8EBEA;stop-opacity:0.325"/>
	<stop  offset="0.776" style="stop-color:#A6D2CE;stop-opacity:0.776"/>
	<stop  offset="0.9409" style="stop-color:#93C8C4"/>
</linearGradient>
<path class="st15" d="M1565.5,3723.2v633.6h-1740c-0.3-38.4-0.6-76.7-1-115.1l-4.3-585.6c105.7,67.1,240.2,67.1,345.7,1.3
	c6-3.7,11.8-7.6,17.5-11.8l0.9-0.6c0.8-0.5,1.6-1.2,2.4-1.7c104.8-73.8,243.4-79.2,353.4-13.2l77.1,46.1l12.1,7.2
	c109.7,65.7,247.8,60.7,352.5-12.6l41.9-29.3c104.9-73.5,243.4-78.3,353.1-12.2c0.1,0.1,0.2,0.1,0.3,0.2l91.1,54.8
	C1498.9,3702.7,1531.7,3715.7,1565.5,3723.2z"/>
<path class="st16" d="M1382,3787c-12,12-28.6,20.1-56,21c-102.6,3.6-184.5,203-229.2,206.6c-12.2,1-75.1-2.1-144.2-8.1
	c-74.4-6.4-156-16.3-189.9-28.2c-45.1-15.7-137.9-64.7-190-78.5c-4.3-1.2-15.7-2.9-31.1-5c-52.7-7.1-151.5-18.2-166.5-21.6
	c-18.5-4.3-60.8-12.8-98.9-24.2c-3.2-42.2-11.9-159-22.4-317.4c-0.5-8-1.1-15.9-1.6-24.1c-5.2-78.9-59.1-1192.3-26.5-1299.6
	c45.4-145.9,334.9-111,355.9-175.6c35.5-34.4,163.6-256.9,208.5-285.7c21.4-26.3,49.6-45.8,74.6-68.4c5.7-5.2,11.2-10.5,16.5-16.1
	c36-38.2,57.8-87.8,79.1-136.2c21-1.6,42,1.4,63,4.6c28.4,4.3,25-8,52.7-14c14.8-3.3,12-34.5,14.1-35.4
	c11.1-34.4,49.5-27.5,51.5-77.8c-2-64.6-13.8-25.4-25.2-81.8c-0.9-4.3-12.7-22.3-30-39.6c17.1-55.8-38.8-122.4-20.1-134.1
	c19.8-91.1,4.6-131.5-2.3-140.8c4-15.1-12.7-90.9-44.4-108c-36.1-19.4-44-26.1-54.6-86.8c-16-30-12.8-110-36.8-136
	c-18.5-20-84.9-99-107.6-110.9c-41.8-22.1-55.5-76-102.8-90c-43.1-12.8-89.7-14-133.6-24.9c-29.6-7.3-60-11.9-90.5-10
	c-28.8,1.7-103.7-16.9-131.8-14.6c-70.3,5.8-103.9-72.3-171.4-33.3c-22.2,12.8-60.6,11.9-97.3,8.5c-36.7-3.3-55,9.7-78.3,25.8
	c-35.4,24.5-38.4,59.3-83.4,61.2c-52.8,2.4-138.1,74.5-80.5,270.9l38.7,636.1c44.4,66.9-47-6.5-47.5,48.3
	c-1.1,138.3,36.2,312.8,36.9,400.7c1.6,206.4,22.5,298.4,24.2,504.8c0.8,103.9,1.6,527.2,2.5,902.7c0,11.9,0.1,23.6,0.1,35.4
	c0.1,51.1,0.3,101.1,0.4,149.1l0.2,70.3c0.3,67,0.5,118.1,0.7,146.1c1.1,131.7,2.2,263.4,3.2,395.2c0.1,14.8,0.3,29.6,0.4,44.3
	c0.4,38.4,0.6,76.7,1,115.1h1740v-564.5C1410,3644.1,1426.4,3742.7,1382,3787z M704.7,1560.1c14.6-23.3,88.7-14.2,115.3-19.2
	c13.3-2.5,89.3-43.3,87.5-15.8c-1.7,26.5-13.8,56-29.2,77.4c-27,37.3-76.9,42.4-112.8,82.4c-1.6,0.3-55.9,57.4-56.9,53.9
	c-3.3-11.7-12.2-121.6-13.1-134C694.2,1589.2,696.2,1573.7,704.7,1560.1z M144.5,1870.6c-46.8-61.3-50.6-203.9,26.6-342.2
	c23.2-41.5,53.6-68.6,86.7-85.8c36.4-18.9,68.5,19.1,105.7,17.6c60.8-2.4,95.9,25.8,112.4,31.2c8.4,20.1,18.6,35.6,23.7,40.2
	c9.7,8.8,22.4,13,34.7,17c2.3,0.7,4.5,1.6,6.6,2.5c49.6,21.9,29.4,95.5,71.4,56.8c16.5,28,27.7,62.5,25.8,95.4
	c-1.7,28,6.6,52-2.6,78.3c-7.5,21.5-130,96.7-152.3,112.1c-1.6,1.2-3.3,2.2-4.8,3.1c0.5,0.4,1.2,0.7,1.7,1.1c0,0-0.7,1-1.1,1.4
	c-0.7-0.5-1.4-1.1-2-1.6l-0.1-0.1C447.3,1914.1,223.7,1967.5,144.5,1870.6z"/>
<path class="st17" d="M431.6,1299.3"/>
<image style="display:none;overflow:visible;enable-background:new    ;" width="1536" height="2048" xlink:href="fairy-sit.png"  transform="matrix(0.1495 0 0 0.1495 201.9141 1703.2496)">
</image>
<image style="display:none;overflow:visible;enable-background:new    ;" width="2339" height="2113" xlink:href="rock_monster.png"  transform="matrix(0.2175 1.599462e-02 -1.599462e-02 0.2175 232.0479 3517.8804)">
</image>
<image style="display:none;overflow:visible;enable-background:new    ;" width="3103" height="3103" xlink:href="mer-skull.png"  transform="matrix(0.1217 0 0 0.1217 1079.4268 3634.374)">
</image>
<g id="Layer_2_4_" transform="translate(-65.911)">
	<path id="Path_1_3_" class="st7" d="M-7308.2,4036.3c0.2,0,0.2,0,0.2-0.1C-7308.1,4036.2-7308.2,4036.2-7308.2,4036.3z
		 M-7308.3,4036.3h-1.4C-7309.2,4036.4-7308.7,4036.4-7308.3,4036.3z M-8067.8,4021c0.5,0.1,0.9,0.2,1.4,0.1L-8067.8,4021z"/>
	<path id="Path_2_3_" class="st7" d="M-7308.2,4036.3c0.2,0,0.2,0,0.2-0.1C-7308.1,4036.2-7308.2,4036.2-7308.2,4036.3z
		 M-7308.3,4036.3h-1.4C-7309.2,4036.4-7308.7,4036.4-7308.3,4036.3z M-8067.8,4021c0.5,0.1,0.9,0.2,1.4,0.1L-8067.8,4021z"/>
	<path id="Path_3_3_" class="st7" d="M-7261.4,1925.2c5.7,9.4,9.9,19.2,9.5,30.4c-0.4,6.6-0.4,13.3,0.1,19.9
		c1,11.1,2.8,22.1,3.9,33.2c0.6,7.1,1.4,14.2,1,21.3c-0.4,5.3-0.5,10.7-0.5,15.9c10.5-18.1,21.3-36.1,21.7-55
		C-7225.1,1966.9-7243.2,1946.3-7261.4,1925.2L-7261.4,1925.2z M-7281.1,2424.7c0.5-16.8,1-33.3,1.5-49.2
		c1.9-54.8,3.9-104.7,6.2-147.7c-7.6,4-16.6,7.1-27,8.9c-9,1.4-18.3,1.6-26.8,4.9c-12,4.5-21.2,14.5-32,21.3
		c-18.7,11.8-41.6,13.8-63.5,15.5c-31.3,2.4-59.9,6.8-88.7,8.2c6.2,36.1,12,74.9,17.3,115.9c12.2,94.9,21.8,201.5,29.2,312.1
		 M-6962.1,1794.5c-11,33.5-31,63.1-61.2,84.1c-9.9,6.9-70.7,38.6-71.1,6.5c-0.5-34.1,0.3-68.2,0.9-102.3
		c0.3-16.8,0.6-33.7,0.8-50.5c0.2-17.5,1.4-35.5-2.2-52.6c14.1-3.3,29.8-0.9,43.3,3.7c10.9,3.7,21.4,9.8,33.2,9.8
		c7.1,0,64.8-16.6,65.9-2.2C-6949.5,1725.4-6951.2,1761.5-6962.1,1794.5z M-7379,1657.9c27-12.7,20.8,12.1,21.2,20.5
		c0.7,19.6-11.2,35.5-16.7,54.4c-1.5,5.2-3.2,10.2-4.8,15.3c-7.1,21.2-14.2,41.2-11.5,63.8c3.5,29.3,16.6,58.1,34.1,85.9
		c10.7,16.8,23,34.3,29,51.7c3.2,9.2,4.6,18.4,3.1,27.5c-0.8,5-2.5,9.9-5,14.3c-5.5,10.2-15.5,19.5-25.2,28.8
		c-9,8.5-18.2,17-30.1,24.3c-2,1.2-4.1,2.4-6.2,3.4c-5.7,2.8-12.2,5.1-19.7,5.8c-18.7,1.8-35.6-6.7-44.9-15.7
		c-18.8-18.6-18.8-40.9-26.6-61.8c-5.5-14.7-15.1-28.9-21.9-43.4c-12.8-27.4-15.9-56.1-9.1-84.2c5-20.6,17.1-40.6,18-61.5
		c0.9-21-7.1-42.7-11.3-63.6c-1.4-7.2-2.6-15.2,4.7-21.3c6.4-5.3,17.8-8,28.3-10.7c6.2-1.5,12.2-3.2,18.2-4.9
		C-7428.2,1678.5-7402.5,1668.9-7379,1657.9L-7379,1657.9z M-7820.3,1766c10.4-10.7,31.2-14.5,18.5-29.4c-2.8-3.3-7.3-6.4-6.9-10
		c0.6-5,10.2-7.9,17.9-10.6c13.7-4.8,24.9-11.7,32-19.5c4.3-4.8,9.3-10.9,19.2-11.2c6.8-0.2,12.8,2.8,15.3,6.3
		c11.3,16.4,3.3,38.5,7.1,55.9c3.3,15.6,16.1,30,30.8,43.2c30,27.1,74,50.7,94.7,80.7c24.8,35.8,12.9,75.6,0.8,113.3
		c-1.2,4-5.1,6.6-9.2,6.2c-1.9-0.3-3.6-0.9-5.2-1.9c-42.7-24.3-61-54.4-78.6-85.9c-21.5-38.2-59.5-72.1-99.2-105.5
		c-3-2.5-6.2-4.9-9.5-7.2c-8-6-16.2-11.6-24.9-17.3c-1.6-1.1-3.4-2.3-3.9-3.7C-7821.9,1768.3-7821.5,1767.1-7820.3,1766
		L-7820.3,1766z M-7645.1,1780.3c-12.3-9.3-17.6-20.8-22.5-31.9l-15.3-33.8c-1.8-3.5-12.6-9-10.2-13.1c1-1.6,2.5-2.9,4.3-3.6
		c8.1-3.3,22.8,1.4,31.5,2.2c10.3,0.8,25.1-1.9,34-4.6c15.5-4.7,30.8-12.5,42.9-19.5c25.3-14.8,43.2,49.5,41.4,58.7
		c-4.3,21.8-15,43.6-21.9,65.2c-0.5,1.7-1.2,3.5-3.4,4.8c-2.1,1.2-5.2,1.5-8.1,1.7C-7600,1808-7630.2,1791.6-7645.1,1780.3z
		 M-8039.7,1972.9c-4.9-5.1-6.9-10.6-8-16.2c-0.2-0.9-0.5-1.8-1.1-2.7c-1.2-2.3-2.4-4.6-3.7-6.9c-2-3.4-4-7-6.2-10.4
		c-1.4-2.3-3.2-4.4-4.6-6.8c-0.4-0.8-0.6-1.7-0.6-2.7c-0.4-1.7,0.1-3.6-1.1-5.1c-4.9-6.2-5.6-12.9-8.9-19.3
		c-1.4-2.9-1.9-5.9-2.9-8.8c-0.2-0.7-0.5-1.4-0.8-2c-3.6-5.5-6.1-11.7-7.1-18.2c-1.2-7.8-3.5-15.6-5.2-23.2
		c-0.7-3.1-0.3-6.3-1.7-9.2c-3.2-6.5-3.5-13.3-6.2-19.9c-2.4-6-2.6-12.3-3.8-18.5c-0.9-4.6-1.9-9.1-2.7-13.8
		c-1-5.2-2.2-10.5-2.5-15.7c-0.4-6.5,0.3-13-0.5-19.5c-0.3-2.1-1.4-3.2-5.5-3.8c-4.5-0.7-9.1-1.6-11.9-4.2c-3.3-3.1-1.9-5.1,4.4-5.8
		c3.1-0.4,6.3-0.4,9.4-0.7c3.3-0.4,6.4-0.8,9.6-1.5c2.8-0.6,5.7-0.6,8.6,0c2.6,0.6,5.2,1,7.9,1.3c10.5,0.4,8.5,1.2,13-3.6
		c6.9-7.2,22-12.3,38.2-11.6c2.5,0.1,5.1,0.1,7.5-0.1c3.2-0.3,6.1-0.5,9.2,0.4c3,0.8,5.5-0.1,7.9-1.3c4.9-2.5,9.9-5,15.1-7.3
		c4.6-2,11.7-1.8,16.3,0.2c5.5,2.4,10.8,4.7,14.7,8c3.5,2.8,6.3,6.3,8.3,10.4c1.2,2.4,2.4,4.5,7,5.8c1.4,0.5,2.6,1.6,3.1,3.2
		c1.6,6.1,3.1,12,4.4,18.1c0.7,3.5,1.7,7,1.5,10.6c-0.2,2.9,1.7,6.1,2,9.1c0.5,6.2,1.4,12.4,2.3,18.6c0.3,2.1,1,4.1,1.4,6.2
		c1.1,4.9,3.3,9.9,3,14.7c-0.3,5.2,3.5,9.9,3.3,14.8c0,1.2,0.3,2.3,0.3,3.4c-0.2,5.2-0.5,10.3-0.7,15.5c0,0.4-0.2,0.7,0,1
		c3.6,5.6,1.5,11.4,0.9,17c-0.5,4.6-0.9,9.1,0.6,13.8c1.4,4.5,3.3,9,1.8,13.7c-0.5,1.6,0.8,3.3,1.1,5.1c0.9,6.1,1.8,12.1,2.4,18.3
		c-0.1,1.2-0.8,2.7-1.4,4.2c-3.1,7.1-6.2,14.1-9.4,21.2c-2.4,5.1-5.2,10.1-7.6,15.3c-1,2-1.7,4.2-2.2,6.4c-0.9,4.6-2.7,8.9-5.4,12.8
		c-1.1,1.5-1.1,3.3-1.9,5.1c-3,5.6-5.3,11.4-9.5,16.7c-2.6,3.3-7.2,6.6-12.4,9c-6.9,3.2-15,5.5-22.9,8c-10.5,3.3-21.9-0.5-21.8-8.4
		c-1-2.1-1.7-5.8-4.5-8.9c-4.8-5.3-8.1-10.8-9.2-16.6c-0.1-0.6-0.8-1.3-1.4-1.9c-2.1-2.5-4.3-5-6.2-7.5
		C-8037.2,1976.5-8038,1974.6-8039.7,1972.9L-8039.7,1972.9z M-7457.9,3972.9l2.4,0.1C-7456.3,3973-7457.1,3973-7457.9,3972.9z
		 M-7485.7,3892c-44.7,28.8-197.6,68.5-213.8,22.3c-17.1-54.4-95.3-1148.8-105.4-1227.3c-5.2-40.7-10.4-81-15.3-120.4
		c-14.7-118.4-27.7-230-37.6-325.6c-10.7-101.4-18-184.9-20.8-240.1c-3.4-68.7-23.6-158,20.3-223.7c53.2,37.8,93.1,81.3,117,127.1
		c12.3,23.6,20.6,48,42.2,69.6c23.4,23.2,60.7,41.1,94.3,60.2c35.2,20.1,63.3,98.3,85.7,211.1c2.6,13.3,5.2,27,7.7,41.2
		c6.2,36.1,12,74.9,17.3,115.9c12.2,94.9,21.8,201.5,29.2,312.1c3.6,53.6,14.6,925.2,15.9,971.6
		C-7440.5,3802.8-7469.8,3887.7-7485.7,3892z M-7146.9,3787c-4.3,36.4-134.3,122.2-140.8,83.9c-4-23.8-6-832.7-5.6-1061.8
		c0.1-74.5,0.5,986.3,1.1,903.7c0.5-57.3,1-749.7,1.7-808.2c2-168.9,5.1-337.8,9.3-479.8c0.5-16.8,1-33.3,1.5-49.2
		c1.9-54.8,3.9-104.7,6.2-147.7c4.9-92.4,10.7-153.9,17.5-166.8c12.8-24.5,32.7-48.4,29.2-78c-2.3-18.4-13.6-33.9-25.6-47.4
		c-23.1-26-41.3-54.8-62.7-81.9c-7.7-9.8-18.3-18.9-19.2-32.2c-1.9-27.6-0.9-56.6,1.8-84.7c2.1-21.9,4.9-46.7,23.7-61.1
		c11.7-8.9,17,1.5,26.7-0.3c11.5-2.2,17.6-5.2,27.4-11.6c13.3-8.7,37.5-2,47-10.5c4.3-3.8,5.9-8.5,12-11.4c10-4.9,27.1-1.8,34.7,4.3
		c7.6,6.1,8.4,13.8,8.8,21.2c0.2,3.2,0.4,6.2,0.5,9.4c3.6,80.5-2.2,161.2,10.1,241.5c8,51.9,23.3,103.9,18.5,155.8
		c0,0.5-0.1,5.6-0.1,14.8c-0.2,57.7-0.1,274.1,1.2,476.9c0.4,61.6,0.8,122,1.4,176.3C-7119.8,2791.7-7144.6,3767.6-7146.9,3787z
		 M-6831.4,3821.7c-81.9-22.5-137.3-39.3-137.5-43.3c-3.3-61.5-9-633-14.5-1048c-1.2-85.5-2.3-169.6-3.3-249
		c-3.4-251.2-6.6-453.9-8.8-493.9c-1-18.5-1.9-37.2,7.1-54.8c7.3-14.7,21.3-28.1,32.3-42.2c35.3-44.9,39.6-94,47.1-141.9
		c0.7-4.6,2.3-9.1,3.3-13.7c3.3-13.4,47.9-23.1,65-31.8c9-4.7,17.7-10,26-16v-439c-2-0.2-4-0.5-6-0.6c-16.6-1.5-33.1-3.4-49.6-5.2
		c-1.3-0.2-2.5-0.3-3.8-0.5c-0.6-0.1-1.3-0.1-1.9-0.1c-7.8,0.7-14.7-1.3-21.2-2.7c-8.2-1.8-16.6-2.8-25.1-2.8
		c-5.1,0-10.2,0.3-15.2-0.1c-2.9-0.4-5.8-0.2-8.6,0.4c-19.9,5-44.3,7.1-65.8,11.7c-6.2,1.3-12.4,1.7-18.6,1.3
		c-8.4-0.5-25.9,0.5-32.9-2c-8.7-3-5.4-9-14.4-12.6c-6.2-2.4-14-3.1-21.5-3.5c-37-2.4-75.9-2.5-112,3.1
		c-33,5.2-69.9,28.2-104.8,24.2c-6.3-0.7-13-0.5-19.5-1c-3.1-0.4-6.2-0.2-9.1,0.6c-2.2,0.5-4.4,0.8-6.7,0.7
		c-25-0.7-39.3,8-62.9,10.5c-0.9,0.2-1.8,0.5-2.6,0.9c-1.7,0.5-3.4,0.9-5.2,1.3c-3.5,0.7-7.2,1.3-10.8,2c-5.3,1.2-10.5,2.4-15.7,3.6
		c-47.6,10.7-93,21-129.4,41.6c-16.6,9.5-51,6.2-61.6,2.2c-10.5-4.1-24.6-3.9-37.4-3c-33.2,2.4-65.6,8.5-94.4,17.7
		c-7.8,2.5-15.7,5.3-24.7,5.6c-6,0.2-11.9-0.7-17.7-1.5c-60-8.1-126.8,0.8-173.2,23.1c-4.6,2.3-9.4,4.9-9.9,8.3
		c-0.4,2.4,1.7,4.8,2.8,7.2c6.2,13.8-19,25.1-41.1,32.7c-5.2,1.9-10.5,3.3-15.9,4.3c-3,0.4-6.1,0.5-9.1,0.6
		c-3.1,0.1-6.2,0.1-9.1,0.1c-47.8,0.1-99.3,13-127.9,34.3c-26.1,19.4,1.1,51.5-36.6,65.9c-15.9,6.1-35.9,9.9-46.9,18.6
		c-4.7,3.7-9.8,8.9-17.9,8.1c-4.1-0.4-7.2-2.2-11.3-2.7c-10.5-1.4-16.4,6-22,11c-13.7,12.1-44.6,15.1-61.2,26.1
		c-17.7,11.9-13.9,29-9.2,44c6.5,20.7,13.8,42.2,37.7,58.7c21.8,15,54.6,23.8,86.3,31.9c26.2,6.8,52.7,17.1,81.3,18.8
		c3.3,0.2,5.6,1.1,6.6,2.8c1.3,2.2,2.3,4.4,3.5,6.6c0.9,1.7,2.2,3.3,3.5,4.7c2.5,2.4,4.6,4.6,4.3,7.5c-0.1,0.9-0.1,1.8,0.2,2.7
		c23.4,91.6,23.2,186.7,95,272.8c12.5,14.9,26.9,29.5,37,44.9c2,3.1,6.1,74.6,10.9,187.8c0.4,8.5,0.7,17.3,1.1,26.2
		c3,73.4,6.3,161.8,9.5,258.9c4.7,141.8,9.3,936.5,12.9,1096.7c3.1,135.8,7.2,106.1,5.6,190.8c-0.1,3.1-0.1,6.2-0.2,9.3
		c-2.5,116.4-6.9,109.5-16.6,123.8c-7.1,10.3-120.1,135.3-108.8,161c15.6,1.2,44.7-4.3,116.6-32.3l0.9-0.4
		c102.6-39.8,241.9-52,354.6-31l90.6,16.9c111.5,20.8,249.1,9.1,351.4-29.8l40.9-15.6c102.6-39,240.6-50.6,352.2-29.6l11,2.1v-181.4
		C-6820.2,3824.8-6825.9,3823.2-6831.4,3821.7z"/>
	<path id="Path_6_3_" class="st7" d="M-7850.5,3886.8"/>
	<path id="Path_7_3_" class="st7" d="M-7831.3,3879.1"/>
</g>
<linearGradient id="SVGID_10_" gradientUnits="userSpaceOnUse" x1="-4010.1499" y1="5769.5503" x2="-4010.1499" y2="5517.5713" gradientTransform="matrix(1 0 0 -1 0 11414.3359)">
	<stop  offset="0" style="stop-color:#FFFFFF;stop-opacity:0"/>
	<stop  offset="0.325" style="stop-color:#D8EBEA;stop-opacity:0.325"/>
	<stop  offset="0.776" style="stop-color:#A6D2CE;stop-opacity:0.776"/>
	<stop  offset="0.9409" style="stop-color:#93C8C4"/>
</linearGradient>
<path class="st18" d="M-3679.2,5789.1v297.4l-117.3-1l-507.3-3.8l-35.3-0.3c-0.2-15.1-0.2-73.9-0.4-89l-1.6-234.6
	c10.3,6.8,21.3,11.8,32.6,15.1c0.1,0,0.2,0.1,0.3,0.1c32.8,9.4,68.6,4.5,98.2-14.6c2.3-1.4,4.4-3,6.6-4.6l0.4-0.2
	c0.4-0.2,0.7-0.5,0.9-0.7c39.6-29,92.2-31.1,133.9-5.2l29.3,18.1l4.6,2.8c41.6,25.8,94,23.8,133.8-5l16-11.5
	c39.8-28.8,92.2-30.7,133.9-4.8c0,0,0,0,0.2,0l34.5,21.5C-3704.5,5776.1-3692,5781.1-3679.2,5789.1z"/>
<path class="st19" d="M-3804.6,5922.7c-5.9,5.9-14.4,9.9-27.9,10.5c-51.2,1.8-92,101.2-114.4,103c-6,0.5-37.5-0.9-71.9-4.1
	c-37.1-3.2-77.8-8.2-94.7-14.2c-20.4-7.1-163.6-95.7-194.3-171.1c-0.1-0.2-0.1-0.4-0.2-0.5c-3.1-7.7-5-15.2-5.5-22.5l5.4,138.7
	l0.6,14.4l2.6,67.9l0.1,2.7l1,26.9v16.2l624.5-4.1v-235.3C-3780.3,5857-3783.7,5901.8-3804.6,5922.7z"/>
<path d="M-3656.4,1447.7"/>
<linearGradient id="SVGID_11_" gradientUnits="userSpaceOnUse" x1="-912.4368" y1="9337.0068" x2="-912.4368" y2="8043.5254" gradientTransform="matrix(0.9047 0 0 0.9047 -677.2186 -4254.4365)">
	<stop  offset="0" style="stop-color:#FFFFFF;stop-opacity:0"/>
	<stop  offset="0.325" style="stop-color:#D8EBEA;stop-opacity:0.325"/>
	<stop  offset="0.776" style="stop-color:#A6D2CE;stop-opacity:0.776"/>
	<stop  offset="1" style="stop-color:#93C8C4"/>
</linearGradient>
<path class="st20" d="M-847.1,3036.5v1157.8l-266.5-4.4l-634.3-10.5l-361-6l-45.2-0.7l-3.2-598.2l-0.6-275.4
	c-0.1-47.9-0.2-97.9-0.3-149.1c0-11.8-0.1-23.5-0.1-35.4l14.1,4l119.4,33.7c28,7.9,58.4,12,89.7,12.6c6.2,0.1,12.3,0.1,18.5-0.1
	c58.7-1.6,118.5-15.7,167.4-41l0.7-0.4c12.2-6.3,25.2-11.9,38.5-16.9c71.1-26.1,156.4-31.8,227.6-14.1l67.9,16.9
	c4.8,1.2,9.6,2.3,14.5,3.3c80.9,16.1,176.9,3.7,249.3-33l30.7-15.6c68-34.5,156.8-47.5,234.3-35.6c10.2,1.5,20.3,3.6,30.1,6.1
	L-847.1,3036.5z"/>
<g class="st21">
	<g>
		<g>
			
				<linearGradient id="SVGID_12_" gradientUnits="userSpaceOnUse" x1="-352.6377" y1="6062.7554" x2="-352.6377" y2="9490.8652" gradientTransform="matrix(0.9047 0 0 0.9047 -677.2186 -4254.4365)">
				<stop  offset="0" style="stop-color:#FFFFFF;stop-opacity:0"/>
				<stop  offset="0.325" style="stop-color:#D8EBEA;stop-opacity:0.325"/>
				<stop  offset="0.776" style="stop-color:#A6D2CE;stop-opacity:0.776"/>
				<stop  offset="1" style="stop-color:#93C8C4"/>
			</linearGradient>
			<polygon class="st22" points="-333.3,1187.4 -333.3,2586.6 -436.4,2928.4 -462.9,3028.3 -541.5,3325.6 -600.3,3547.5 
				-681.6,3855 -681.6,3855.1 -766.7,4189.8 -792.7,4275 -1659.2,4275 -1611.7,4179.3 -1573.8,4080.6 -1522,3962.9 -1387.1,3656.2 
				-1360,3594.4 -1263.1,3374.2 -1220.1,3276.6 -1148,3112.5 -1100.3,3004.2 -1054.1,2899.1 -1025.4,2833.6 -949.4,2660.9 
				-884.3,2512.7 -818.1,2362 -691.9,2074.9 -668.6,2021.9 -555.7,1765.5 -542.7,1735.8 -412.6,1440 			"/>
		</g>
	</g>
</g>
<image style="overflow:visible;enable-background:new    ;" width="3103" height="3103" xlink:href="nessy.png"  transform="matrix(7.108217e-02 0 0 7.108217e-02 -1241.9727 3198.0757)">
</image>
<g class="st4">
	<g>
		<g>
			
				<linearGradient id="SVGID_13_" gradientUnits="userSpaceOnUse" x1="-649.3105" y1="5023.5137" x2="-649.3105" y2="9510.3457" gradientTransform="matrix(0.9047 0 0 0.9047 -677.2186 -4254.4365)">
				<stop  offset="0" style="stop-color:#FFFFFF;stop-opacity:0"/>
				<stop  offset="0.325" style="stop-color:#D8EBEA;stop-opacity:0.325"/>
				<stop  offset="0.776" style="stop-color:#A6D2CE;stop-opacity:0.776"/>
				<stop  offset="1" style="stop-color:#93C8C4"/>
			</linearGradient>
			<path class="st23" d="M-370.9,233.9v511.4l-0.4,0.7l-213.5,423.7l-43.3,86.2l-199,394.9l-231.9,459.7l-32,63.5l-242.3,480.6
				l-135.6,268.9l-77.9,154.9l-14.2,28.2l-62,123l-68.1,135l-37.8,74.8l-61.6,122.1l-19.3,38.2l-19.7,39.1l-263.1,534.6l-43,85.2
				l-14.7,16.4h-1.6c-0.3-38.4-0.6-64-1-102.4c-0.1-14.7-0.3-29.6-0.4-44.3c-1-131.7-2.1-276.1-3.2-407.8
				c-0.3-28-0.5-79.1-0.7-146.1l-0.8-275.4c-0.1-47.9-0.3-97.9-0.4-149.1l14.3-23.9l4.4-7.4l150.9-253l129-216.1l23.2-39
				l192.2-322.5l191-320.2l39.6-66.4l189.1-317.4l94.3-157.5l57-95.6l4-6.9l199.7-334.9l416-697.6l33.1-55.5L-370.9,233.9z"/>
		</g>
	</g>
</g>
<linearGradient id="SVGID_14_" gradientUnits="userSpaceOnUse" x1="-912.1603" y1="9447.8789" x2="-912.1603" y2="8364.9941" gradientTransform="matrix(0.9047 0 0 0.9047 -677.2186 -4254.4365)">
	<stop  offset="0" style="stop-color:#FFFFFF;stop-opacity:0"/>
	<stop  offset="0.325" style="stop-color:#D8EBEA;stop-opacity:0.325"/>
	<stop  offset="0.776" style="stop-color:#A6D2CE;stop-opacity:0.776"/>
	<stop  offset="1" style="stop-color:#93C8C4"/>
</linearGradient>
<path class="st24" d="M-847.1,3297.7v990l-1306.2-12.7c-0.2-38.4-0.5-64-0.7-102.4l-3.2-598.2l-0.6-275.4
	c73.6-33.9,162-31.7,234.1,8.1l13.6,7.5l53.4,29.4c15.7,8.7,32.2,15.6,49.1,20.6c71.8,21.7,151.9,11.7,215.5-29.3l31.5-20.3
	c32.4-20.8,69-33.7,106.7-38.4c54-6.8,110.1,3.1,158.7,30l68.4,37.9c81.3,45.1,183.6,42.6,262.2-6.3l20.2-12.6l10.9-6.8
	C-906.9,3302.2-877.5,3290.9-847.1,3297.7z"/>
<linearGradient id="SVGID_15_" gradientUnits="userSpaceOnUse" x1="-911.8287" y1="9647.2168" x2="-911.8287" y2="9034.0938" gradientTransform="matrix(0.9047 0 0 0.9047 -677.2186 -4254.4365)">
	<stop  offset="0" style="stop-color:#FFFFFF;stop-opacity:0"/>
	<stop  offset="0.325" style="stop-color:#D8EBEA;stop-opacity:0.325"/>
	<stop  offset="0.776" style="stop-color:#A6D2CE;stop-opacity:0.776"/>
	<stop  offset="0.9409" style="stop-color:#93C8C4"/>
</linearGradient>
<path class="st25" d="M-847.1,3654.1v633.6l-1306.2-12.7c-0.2-38.4-0.5-64-0.7-102.4l-3.2-598.2c79.3,67.1,180.3,67.1,259.5,1.3
	c4.5-3.7,8.9-7.6,13.1-11.8l0.7-0.6c0.6-0.5,1.3-1.2,1.8-1.7c78.6-73.8,182.6-79.2,265.3-13.2l57.9,46.1l9.1,7.2
	c82.4,65.7,186,60.7,264.6-12.6l31.5-29.3c78.8-73.5,182.6-78.3,265.1-12.2c0.1,0.1,0.2,0.1,0.2,0.2l68.4,54.8
	C-897.1,3621-872.5,3633.9-847.1,3654.1z"/>
<path class="st19" d="M-1000.1,3705.2c-12,12-28.6,20.1-56,21c-102.6,3.6-184.5,203-229.2,206.6c-12.2,1-75.1-2.1-144.2-8.1
	c-74.4-6.4-156-16.3-189.9-28.2c-45.1-15.7-64-288.4-74.6-446.7c-0.5-8-1.1-15.9-1.6-24.1c-5.2-78.9-54.5-2077.6-21.9-2184.9
	c45.3-145.8,262.2-85.2,283.1-149.8c35.5-34.4,163.6-256.9,208.5-285.7c21.4-26.3,49.6-45.8,74.6-68.4c5.7-5.2,11.2-10.5,16.5-16.1
	c36-38.2,57.8-87.8,79.1-136.2c21-1.6,42,1.4,63,4.6c28.4,4.3,25-8,52.7-14c14.8-3.3,12-34.5,14.1-35.4
	c11.1-34.4,49.5-27.5,51.5-77.8c-2-64.6-13.8-25.4-25.2-81.8c-0.9-4.3-12.7-22.3-30-39.6c17.1-55.8-37.1-78.9-18.4-90.6
	c-28.9-85.9-71.7-57.8-88.2-89.1c-37.6-71.5-77.3-36-99.9-47.9c-41.8-22.1-51.2-58.5-98.4-72.6c-43.1-12.8-65.3,7.1-109.3-3.7
	c-29.6-7.3-85.8-43.7-116.2-41.9c-28.8,1.7-5.2-10.9-33.4-8.5c-70.3,5.8-103.9-72.3-171.4-33.3c-22.2,12.9-60.7,12-97.4,8.6
	c-36.7-3.3-55,9.7-78.3,25.8c-35.4,24.5-38.4,59.3-83.4,61.2c-52.8,2.3-174.3-27.2-116.8,169.2l-12.8,210.2
	c44.4,66.9-47-6.5-47.5,48.3c-1.1,138.3,36.2,312.8,36.9,400.7c1.6,206.4,17.9,1183.7,19.6,1390c0.8,103.9,1.6,527.2,2.5,902.7
	c0,11.9,0.1,23.6,0.1,35.4c0.1,51.1,0.3,101.1,0.4,149.1l0.2,70.3c0.3,67,0.5,118.1,0.7,146.1c1.1,131.7,2.2,263.4,3.2,395.2
	c0.1,14.8,0.3,29.6,0.4,44.3c0.4,38.4,0.6,89.4,1,127.7h1305.8v-577.2C-972.2,3562.3-955.7,3661-1000.1,3705.2z M-1311.2,618.7
	c14.6-23.3,88.7-14.2,115.3-19.2c13.3-2.5,89.3-43.3,87.5-15.8c-1.7,26.5-13.8,56-29.2,77.4c-27,37.3-76.9,42.4-112.8,82.4
	c-1.6,0.3-55.9,57.4-56.9,53.9c-3.3-11.7-12.2-121.6-13.1-134C-1321.7,647.9-1319.7,632.4-1311.2,618.7z M-1798.8,903.5
	c-46.8-61.3-50.6-203.9,26.6-342.2c23.2-41.5,53.6-68.6,86.7-85.8c36.4-18.9,68.5,19.1,105.7,17.6c60.8-2.4,23.2,51.5,39.8,56.9
	c8.4,20.1,18.6,35.6,23.7,40.2c9.7,8.8,22.4,13,34.7,17c2.3,0.7,4.5,1.6,6.6,2.5c49.6,21.9,29.4,95.5,71.4,56.8
	c16.5,28,27.7,62.5,25.8,95.4c-1.7,28,6.6,52-2.6,78.3c-7.5,21.5-130,96.7-152.3,112.1c-1.6,1.2-3.3,2.2-4.8,3.1
	c0.5,0.4,1.2,0.7,1.7,1.1c0,0-0.7,1-1.1,1.4c-0.7-0.5-1.4-1.1-2-1.6l-0.1-0.1C-1568.6,972.7-1719.6,1000.5-1798.8,903.5z"/>
<path d="M-1628,893.6"/>
<image style="overflow:visible;enable-background:new    ;" width="1536" height="2048" xlink:href="fairy-sit.png"  transform="matrix(0.1325 0 0 0.1325 -1777.9648 774.2327)">
</image>
<image style="overflow:visible;enable-background:new    ;" width="2339" height="2113" xlink:href="rock_monster.png"  transform="matrix(0.1982 1.457969e-02 -1.457969e-02 0.1982 -1806.1167 3559.0054)">
</image>
<image style="overflow:visible;enable-background:new    ;" width="3103" height="3103" xlink:href="mer-skull.png"  transform="matrix(0.1033 0 0 0.1033 -1286.946 3573.8545)">
</image>
<linearGradient id="SVGID_16_" gradientUnits="userSpaceOnUse" x1="1712.4115" y1="9417.3789" x2="1712.4115" y2="8123.8975" gradientTransform="matrix(0.9047 0 0 0.9047 -677.2186 -4254.4365)">
	<stop  offset="0" style="stop-color:#FFFFFF;stop-opacity:0"/>
	<stop  offset="0.325" style="stop-color:#D8EBEA;stop-opacity:0.325"/>
	<stop  offset="0.776" style="stop-color:#A6D2CE;stop-opacity:0.776"/>
	<stop  offset="1" style="stop-color:#93C8C4"/>
</linearGradient>
<path class="st26" d="M1745.3,3109.2V4267l-355-4.4l-844.9-10.5l-480.9-6l-60.2-0.7L0,3647.2l-0.8-275.4
	c-0.1-47.9-0.3-97.9-0.4-149.1c0-11.8-0.1-23.5-0.1-35.4l18.8,4l159.1,33.7c37.3,7.9,77.9,12,119.4,12.6c8.1,0.1,16.4,0.1,24.6-0.1
	c78.2-1.6,157.9-15.7,222.9-41l0.9-0.4c16.3-6.3,33.6-11.9,51.4-16.9c94.7-26.1,208.3-31.8,303.1-14.1l90.6,16.9
	c6.3,1.2,12.8,2.3,19.3,3.3c107.7,16.1,235.6,3.7,332.1-33l40.9-15.6c90.6-34.5,208.9-47.5,312.1-35.6c13.7,1.5,27,3.6,40.1,6.1
	L1745.3,3109.2z"/>
<g class="st21">
	<g>
		<g>
			
				<linearGradient id="SVGID_17_" gradientUnits="userSpaceOnUse" x1="2031.6332" y1="6143.1274" x2="2031.6332" y2="9571.2373" gradientTransform="matrix(0.9047 0 0 0.9047 -677.2186 -4254.4365)">
				<stop  offset="0" style="stop-color:#FFFFFF;stop-opacity:0"/>
				<stop  offset="0.325" style="stop-color:#D8EBEA;stop-opacity:0.325"/>
				<stop  offset="0.776" style="stop-color:#A6D2CE;stop-opacity:0.776"/>
				<stop  offset="1" style="stop-color:#93C8C4"/>
			</linearGradient>
			<polygon class="st27" points="1823.8,1260.1 1823.8,2659.3 1720.6,3001.1 1694.1,3101.1 1615.5,3398.3 1556.8,3620.2 
				1475.5,3927.7 1475.5,3927.8 1390.3,4262.5 1364.4,4347.8 497.8,4347.8 545.4,4252.1 583.3,4153.4 635.1,4035.7 769.9,3728.9 
				797.1,3667.1 894,3446.9 936.9,3349.3 1009,3185.3 1056.7,3076.9 1102.9,2971.8 1131.7,2906.3 1207.7,2733.6 1272.7,2585.4 
				1339,2434.7 1465.2,2147.6 1488.5,2094.6 1601.3,1838.3 1614.3,1808.6 1744.4,1512.8 			"/>
		</g>
	</g>
</g>
<image style="overflow:visible;enable-background:new    ;" width="3103" height="3103" xlink:href="nessy.png"  transform="matrix(9.933096e-02 0 0 9.933096e-02 1154.0879 3246.374)">
</image>
<g class="st4">
	<g>
		<g>
			
				<linearGradient id="SVGID_18_" gradientUnits="userSpaceOnUse" x1="1734.9603" y1="5103.8857" x2="1734.9603" y2="9590.7178" gradientTransform="matrix(0.9047 0 0 0.9047 -677.2186 -4254.4365)">
				<stop  offset="0" style="stop-color:#FFFFFF;stop-opacity:0"/>
				<stop  offset="0.325" style="stop-color:#D8EBEA;stop-opacity:0.325"/>
				<stop  offset="0.776" style="stop-color:#A6D2CE;stop-opacity:0.776"/>
				<stop  offset="1" style="stop-color:#93C8C4"/>
			</linearGradient>
			<path class="st28" d="M1786.1,306.6V818l-0.4,0.7l-213.5,423.7l-43.3,86.2l-199,394.9L1098,2183.2l-32,63.5l-242.3,480.6
				l-135.5,269l-77.9,154.8l-14.2,28.2l-62,123l-68.1,135l-37.8,74.8l-61.6,122.1l-19.3,38.2l-19.7,39.1L64.5,4246.1l-43,85.2
				l-14.7,16.4H5.2c-0.3-38.4-0.6-64-1-102.4c-0.1-14.7-0.3-29.6-0.4-44.3c-1-131.7-2.1-276.1-3.2-407.8c-0.3-28-0.5-79.1-0.7-146.1
				l-0.8-275.4c-0.1-47.9-0.3-97.9-0.4-149.1l14.3-23.9l4.4-7.4l150.9-253l128.8-215.9l23.2-39l192.2-322.5l191-320.2l39.6-66.4
				l189.1-317.4l94.3-157.5l57-95.6l4-6.9l199.7-334.9l416-697.6l33.1-55.5L1786.1,306.6z"/>
		</g>
	</g>
</g>
<linearGradient id="SVGID_19_" gradientUnits="userSpaceOnUse" x1="1712.6879" y1="9528.251" x2="1712.6879" y2="8445.3652" gradientTransform="matrix(0.9047 0 0 0.9047 -677.2186 -4254.4365)">
	<stop  offset="0" style="stop-color:#FFFFFF;stop-opacity:0"/>
	<stop  offset="0.325" style="stop-color:#D8EBEA;stop-opacity:0.325"/>
	<stop  offset="0.776" style="stop-color:#A6D2CE;stop-opacity:0.776"/>
	<stop  offset="1" style="stop-color:#93C8C4"/>
</linearGradient>
<path class="st29" d="M1745.3,3370.5v990l-1740-12.7c-0.3-38.4-0.6-64-1-102.4L0,3647.2l-0.8-275.4c98.1-33.9,215.9-31.7,311.9,8.1
	l18.1,7.5l71.1,29.4c20.9,8.7,42.9,15.6,65.5,20.6c95.7,21.7,202.3,11.7,287-29.3l41.9-20.3c43.2-20.8,91.9-33.7,142-38.4
	c71.9-6.8,146.6,3.1,211.4,30l91.1,37.9c108.3,45.1,244.6,42.6,349.3-6.3l26.9-12.6l14.5-6.8
	C1665.6,3374.9,1704.9,3363.7,1745.3,3370.5z"/>
<linearGradient id="SVGID_20_" gradientUnits="userSpaceOnUse" x1="1713.1299" y1="9727.5889" x2="1713.1299" y2="9114.4658" gradientTransform="matrix(0.9047 0 0 0.9047 -677.2186 -4254.4365)">
	<stop  offset="0" style="stop-color:#FFFFFF;stop-opacity:0"/>
	<stop  offset="0.325" style="stop-color:#D8EBEA;stop-opacity:0.325"/>
	<stop  offset="0.776" style="stop-color:#A6D2CE;stop-opacity:0.776"/>
	<stop  offset="0.9409" style="stop-color:#93C8C4"/>
</linearGradient>
<path class="st30" d="M1745.3,3726.8v633.6l-1740-12.7c-0.3-38.4-0.6-64-1-102.4L0,3647.1c105.7,67.1,240.2,67.1,345.7,1.3
	c6-3.7,11.8-7.6,17.5-11.8l0.9-0.6c0.8-0.5,1.6-1.2,2.4-1.7c104.8-73.8,243.4-79.2,353.4-13.2l77.1,46.1l12.1,7.2
	c109.7,65.7,247.8,60.7,352.5-12.6l41.9-29.3c104.9-73.5,243.4-78.3,353.1-12.2c0.1,0.1,0.2,0.1,0.3,0.2l91.1,54.8
	C1678.7,3693.7,1711.6,3706.6,1745.3,3726.8z"/>
<path class="st19" d="M1474.8,3777.9c-12,12-28.6,20.1-56,21c-102.6,3.6-184.5,203-229.2,206.6c-12.2,1-75.1-2.1-144.2-8.1
	c-74.4-6.4-156-16.3-189.9-28.2c-45.1-15.7-137.9-64.7-190-78.5c-4.3-1.2-15.7-2.9-31.1-5c-52.7-7.1-151.5-18.2-166.5-21.6
	c-18.5-4.3-60.8-12.8-98.9-24.2c-3.2-42.2-11.9-159-22.4-317.4c-0.5-8-1.1-15.9-1.6-24.1c-5.2-78.9-59.1-2081.6-26.5-2188.9
	c45.4-145.9,334.9-111,355.9-175.6c35.5-34.4,163.6-256.9,208.5-285.7c21.4-26.3,49.6-45.8,74.6-68.4c5.7-5.2,11.2-10.5,16.5-16.1
	c36-38.2,57.8-87.8,79.1-136.2c21-1.6,42,1.4,63,4.6c28.4,4.3,25-8,52.7-14c14.8-3.3,12-34.5,14.1-35.4
	c11.1-34.4,49.5-27.5,51.5-77.8c-2-64.6-13.8-25.4-25.2-81.8c-0.9-4.3-12.7-22.3-30-39.6c17.1-55.8-37.1-78.9-18.3-90.6
	c-28.9-85.9-71.7-57.8-88.2-89.1c-37.6-71.5-77.3-36-99.9-47.9c-41.8-22.1-51.2-58.5-98.4-72.6c-43.1-12.8-65.3,7.1-109.3-3.7
	c-29.6-7.3-85.8-43.7-116.2-41.9c-28.8,1.7-77.8,14.9-105.9,17.3c-70.3,5.8-103.9-72.3-171.4-33.3c-22.2,12.8-60.6,11.9-97.3,8.5
	c-36.7-3.3-55,9.7-78.3,25.8c-35.4,24.5-38.4,59.3-83.4,61.2c-52.8,2.4-219.9-23.1-162.4,173.3c0,0-0.4,3885,0,3920h1794.9v-577.2
	C1502.8,3635.1,1519.3,3733.7,1474.8,3777.9z M797.5,661.7c14.6-23.3,88.7-14.2,115.3-19.2c13.3-2.5,89.3-43.3,87.5-15.8
	c-1.7,26.5-13.8,56-29.2,77.4c-27,37.3-76.9,42.4-112.8,82.4c-1.6,0.3-55.9,57.4-56.9,53.9c-3.3-11.7-12.2-121.6-13.1-134
	C787,690.8,789,675.3,797.5,661.7z M237.4,972.2C190.6,910.9,186.8,768.3,264,630c23.2-41.5,53.6-68.6,86.7-85.8
	c36.4-18.9,68.5,19.1,105.7,17.6c60.8-2.4,95.9,25.8,112.4,31.2c8.4,20.1,18.6,35.6,23.7,40.2c9.7,8.8,22.4,13,34.7,17
	c2.3,0.7,4.5,1.6,6.6,2.5c49.6,21.9,29.4,95.5,71.4,56.8c16.5,28,27.7,62.5,25.8,95.4c-1.7,28,6.6,52-2.6,78.3
	c-7.5,21.5-130,96.7-152.3,112.1c-1.6,1.2-3.3,2.2-4.8,3.1c0.5,0.4,1.2,0.7,1.7,1.1c0,0-0.7,1-1.1,1.4c-0.7-0.5-1.4-1.1-2-1.6
	l-0.1-0.1C540.2,1015.7,316.5,1069.1,237.4,972.2z"/>
<path d="M524.4,962.2"/>
<image style="overflow:visible;enable-background:new    ;" width="1536" height="2048" xlink:href="fairy-sit.png"  transform="matrix(0.1495 0 0 0.1495 306.5303 809.0532)">
</image>
<image style="overflow:visible;enable-background:new    ;" width="2339" height="2113" xlink:href="rock_monster.png"  transform="matrix(0.2175 1.599462e-02 -1.599462e-02 0.2175 324.9033 3508.8335)">
</image>
<image style="overflow:visible;enable-background:new    ;" width="3103" height="3103" xlink:href="mer-skull.png"  transform="matrix(0.1217 0 0 0.1217 1172.2822 3625.3271)">
</image>
<g>
	<g id="Layer_2_3_" transform="translate(-65.911)">
		<path id="Path_1_2_" class="st7" d="M3265.2,3294.7c0.2,0,0.2,0,0.2-0.1C3265.3,3294.7,3265.2,3294.7,3265.2,3294.7z
			 M3265.1,3294.7h-1.4C3264.2,3294.8,3264.6,3294.8,3265.1,3294.7z M2505.6,3279.5c0.5,0.1,0.9,0.2,1.4,0.1L2505.6,3279.5z"/>
		<path id="Path_2_2_" class="st7" d="M3265.2,3294.7c0.2,0,0.2,0,0.2-0.1C3265.3,3294.7,3265.2,3294.7,3265.2,3294.7z
			 M3265.1,3294.7h-1.4C3264.2,3294.8,3264.6,3294.8,3265.1,3294.7z M2505.6,3279.5c0.5,0.1,0.9,0.2,1.4,0.1L2505.6,3279.5z"/>
		<path id="Path_3_2_" class="st7" d="M3312,1183.6c5.7,9.4,9.9,19.2,9.5,30.4c-0.4,6.6-0.4,13.3,0.1,19.9c1,11.1,2.8,22.1,3.9,33.2
			c0.6,7.1,1.4,14.2,1,21.3c-0.4,5.3-0.5,10.7-0.5,15.9c10.5-18.1,21.3-36.1,21.7-55C3348.2,1225.4,3330.1,1204.7,3312,1183.6
			L3312,1183.6z M3246.2,1500c-12,4.5-21.2,14.5-32,21.3c-18.7,11.8-41.6,13.8-63.5,15.5c-31.3,2.4-59.9,6.8-88.7,8.2
			c6.2,36.1,12,74.9,17.3,115.9c12.2,94.9,21.8,201.5,29.2,312.1l163.7-299.5c7,2.5,13.7,5.8,20.1,9.7c0.5-16.8,1-33.3,1.5-49.2
			c1.9-54.8,3.9-104.7,6.2-147.7c-7.6,4-16.6,7.1-27,8.9C3264,1496.6,3254.7,1496.7,3246.2,1500z M3611.3,1052.9
			c-11,33.5-31,63.1-61.2,84.1c-9.9,6.9-70.7,38.6-71.1,6.5c-0.5-34.1,0.3-68.2,0.9-102.3c0.3-16.8,0.6-33.7,0.8-50.5
			c0.2-17.5,1.4-35.5-2.2-52.6c14.1-3.3,29.8-0.9,43.3,3.7c10.9,3.7,21.4,9.8,33.2,9.8c7.1,0,64.8-16.6,65.9-2.2
			C3623.9,983.9,3622.2,1020,3611.3,1052.9z M3194.4,916.4c27-12.7,20.8,12.1,21.2,20.5c0.7,19.6-11.2,35.5-16.7,54.4
			c-1.5,5.2-3.2,10.2-4.8,15.3c-7.1,21.2-14.2,41.2-11.5,63.8c3.5,29.3,16.6,58.1,34.1,85.9c10.7,16.8,23,34.3,29,51.7
			c3.2,9.2,4.6,18.4,3.1,27.5c-0.8,5-2.5,9.9-5,14.3c-5.5,10.2-15.5,19.5-25.2,28.8c-9,8.5-18.2,17-30.1,24.3
			c-2,1.2-4.1,2.4-6.2,3.4c-5.7,2.8-12.2,5.1-19.7,5.8c-18.7,1.8-35.6-6.7-44.9-15.7c-18.8-18.6-18.8-40.9-26.6-61.8
			c-5.5-14.7-15.1-28.9-21.9-43.4c-12.8-27.4-15.9-56.1-9.1-84.2c5-20.6,17.1-40.6,18-61.5c0.9-21-7.1-42.7-11.3-63.6
			c-1.4-7.2-2.6-15.2,4.7-21.3c6.4-5.3,17.8-8,28.3-10.7c6.2-1.5,12.2-3.2,18.2-4.9C3145.1,936.9,3170.9,927.4,3194.4,916.4
			L3194.4,916.4z M2753.1,1024.4c10.4-10.7,31.2-14.5,18.5-29.4c-2.8-3.3-7.3-6.4-6.9-10c0.6-5,10.2-7.9,17.9-10.6
			c13.7-4.8,24.9-11.7,32-19.5c4.3-4.8,9.3-10.9,19.2-11.2c6.8-0.2,12.8,2.8,15.3,6.3c11.3,16.4,3.3,38.5,7.1,55.9
			c3.3,15.6,16.1,30,30.8,43.2c30,27.1,74,50.7,94.7,80.7c24.8,35.8,12.9,75.6,0.8,113.3c-1.2,4-5.1,6.6-9.2,6.2
			c-1.9-0.3-3.6-0.9-5.2-1.9c-42.7-24.3-61-54.4-78.6-85.9c-21.5-38.2-59.5-72.1-99.2-105.5c-3-2.5-6.2-4.9-9.5-7.2
			c-8-6-16.2-11.6-24.9-17.3c-1.6-1.1-3.4-2.3-3.9-3.7C2751.4,1026.8,2751.9,1025.6,2753.1,1024.4L2753.1,1024.4z M2928.3,1038.7
			c-12.3-9.3-17.6-20.8-22.5-31.9l-15.3-33.8c-1.8-3.5-12.6-9-10.2-13.1c1-1.6,2.5-2.9,4.3-3.6c8.1-3.3,22.8,1.4,31.5,2.2
			c10.3,0.8,25.1-1.9,34-4.6c15.5-4.7,30.8-12.5,42.9-19.5c25.3-14.8,43.2,49.5,41.4,58.7c-4.3,21.8-15,43.6-21.9,65.2
			c-0.5,1.7-1.2,3.5-3.4,4.8c-2.1,1.2-5.2,1.5-8.1,1.7C2973.4,1066.5,2943.2,1050,2928.3,1038.7z M2533.7,1231.3
			c-4.9-5.1-6.9-10.6-8-16.2c-0.2-0.9-0.5-1.8-1.1-2.7c-1.2-2.3-2.4-4.6-3.7-6.9c-2-3.4-4-7-6.2-10.4c-1.4-2.3-3.2-4.4-4.6-6.8
			c-0.4-0.8-0.6-1.7-0.6-2.7c-0.4-1.7,0.1-3.6-1.1-5.1c-4.9-6.2-5.6-12.9-8.9-19.3c-1.4-2.9-1.9-5.9-2.9-8.8c-0.2-0.7-0.5-1.4-0.8-2
			c-3.6-5.5-6.1-11.7-7.1-18.2c-1.2-7.8-3.5-15.6-5.2-23.2c-0.7-3.1-0.3-6.3-1.7-9.2c-3.2-6.5-3.5-13.3-6.2-19.9
			c-2.4-6-2.6-12.3-3.8-18.5c-0.9-4.6-1.9-9.1-2.7-13.8c-1-5.2-2.2-10.5-2.5-15.7c-0.4-6.5,0.3-13-0.5-19.5
			c-0.3-2.1-1.4-3.2-5.5-3.8c-4.5-0.7-9.1-1.6-11.9-4.2c-3.3-3.1-1.9-5.1,4.4-5.8c3.1-0.4,6.3-0.4,9.4-0.7c3.3-0.4,6.4-0.8,9.6-1.5
			c2.8-0.6,5.7-0.6,8.6,0c2.6,0.6,5.2,1,7.9,1.3c10.5,0.4,8.5,1.2,13-3.6c6.9-7.2,22-12.3,38.2-11.6c2.5,0.1,5.1,0.1,7.5-0.1
			c3.2-0.3,6.1-0.5,9.2,0.4c3,0.8,5.5-0.1,7.9-1.3c4.9-2.5,9.9-5,15.1-7.3c4.6-2,11.7-1.8,16.3,0.2c5.5,2.4,10.8,4.7,14.7,8
			c3.5,2.8,6.3,6.3,8.3,10.4c1.2,2.4,2.4,4.5,7,5.8c1.4,0.5,2.6,1.6,3.1,3.2c1.6,6.1,3.1,12,4.4,18.1c0.7,3.5,1.7,7,1.5,10.6
			c-0.2,2.9,1.7,6.1,2,9.1c0.5,6.2,1.4,12.4,2.3,18.6c0.3,2.1,1,4.1,1.4,6.2c1.1,4.9,3.3,9.9,3,14.7c-0.3,5.2,3.5,9.9,3.3,14.8
			c0,1.2,0.3,2.3,0.3,3.4c-0.2,5.2-0.5,10.3-0.7,15.5c0,0.4-0.2,0.7,0,1c3.6,5.6,1.5,11.4,0.9,17c-0.5,4.6-0.9,9.1,0.6,13.8
			c1.4,4.5,3.3,9,1.8,13.7c-0.5,1.6,0.8,3.3,1.1,5.1c0.9,6.1,1.8,12.1,2.4,18.3c-0.1,1.2-0.8,2.7-1.4,4.2
			c-3.1,7.1-6.2,14.1-9.4,21.2c-2.4,5.1-5.2,10.1-7.6,15.3c-1,2-1.7,4.2-2.2,6.4c-0.9,4.6-2.7,8.9-5.4,12.8
			c-1.1,1.5-1.1,3.3-1.9,5.1c-3,5.6-5.3,11.4-9.5,16.7c-2.6,3.3-7.2,6.6-12.4,9c-6.9,3.2-15,5.5-22.9,8c-10.5,3.3-21.9-0.5-21.8-8.4
			c-1-2.1-1.7-5.8-4.5-8.9c-4.8-5.3-8.1-10.8-9.2-16.6c-0.1-0.6-0.8-1.3-1.4-1.9c-2.1-2.5-4.3-5-6.2-7.5
			C2536.1,1234.9,2535.4,1233,2533.7,1231.3L2533.7,1231.3z M3115.5,3231.3l2.4,0.1C3117.1,3231.4,3116.3,3231.4,3115.5,3231.3z
			 M3087.7,3150.5c-44.7,28.8-197.6,68.5-213.8,22.3c-17.1-54.5-95.3-1148.8-105.4-1227.3c-5.2-40.7-10.4-81-15.3-120.4
			c-14.7-118.4-27.7-230-37.6-325.6c-10.7-101.4-18-184.9-20.8-240.1c-3.4-68.7-23.6-158,20.3-223.7c53.2,37.8,93.1,81.3,117,127.1
			c12.3,23.6,20.6,48,42.2,69.6c23.4,23.2,60.7,41.1,94.3,60.3c35.2,20.1,63.3,98.3,85.7,211.1c2.6,13.3,5.2,27,7.7,41.2
			c6.2,36.1,12,74.9,17.3,115.9c12.2,94.9,21.8,201.5,29.2,312.1c3.6,53.6,14.6,925.2,15.9,971.6
			C3132.8,3061.3,3103.6,3146.2,3087.7,3150.5z M3426.5,3045.4c-4.3,36.4-134.3,122.2-140.8,83.9c-4-23.8-6-832.7-5.6-1061.8
			c0.1-74.5,0.5,986.3,1.1,903.7c0.5-57.3,1-749.7,1.7-808.2c2-168.9,5.1-337.8,9.3-479.8c0.5-16.8,1-33.3,1.5-49.2
			c1.9-54.8,3.9-104.7,6.2-147.7c4.9-92.4,10.7-153.9,17.5-166.8c12.8-24.5,32.7-48.4,29.2-78c-2.3-18.4-13.6-33.9-25.6-47.4
			c-23.1-26-41.3-54.8-62.7-81.9c-7.7-9.8-18.3-18.9-19.2-32.2c-1.9-27.6-0.9-56.6,1.8-84.7c2.1-21.9,4.9-46.7,23.7-61.1
			c11.7-8.9,17,1.5,26.7-0.3c11.5-2.2,17.6-5.2,27.4-11.6c13.3-8.7,37.5-2,47-10.5c4.3-3.8,5.9-8.5,12-11.4
			c10-4.9,27.1-1.8,34.7,4.3c7.6,6.1,8.4,13.8,8.8,21.2c0.2,3.2,0.4,6.2,0.5,9.4c3.6,80.5-2.2,161.2,10.1,241.5
			c8,51.9,23.3,103.9,18.5,155.8c0,0.5-0.1,5.6-0.1,14.8c-0.2,57.7-0.1,274.1,1.2,476.9c0.4,61.6,0.8,122,1.4,176.3
			C3453.5,2050.2,3428.8,3026.1,3426.5,3045.4z M3741.9,3080.2c-81.9-22.5-137.3-39.4-137.5-43.3c-3.3-61.5-9-633-14.5-1048
			c-1.2-85.5-2.3-169.6-3.3-249c-3.4-251.2-6.6-453.9-8.8-493.9c-1-18.5-1.9-37.2,7.1-54.8c7.3-14.7,21.3-28.1,32.3-42.2
			c35.3-44.9,39.6-94,47.1-141.9c0.7-4.6,2.3-9.1,3.3-13.7c3.3-13.4,47.9-23.1,65-31.8c9-4.7,17.7-10,26-16v-439c-2-0.2-4-0.5-6-0.6
			c-16.6-1.5-33.1-3.4-49.6-5.2c-1.3-0.2-2.5-0.3-3.8-0.5c-0.6-0.1-1.3-0.1-1.9-0.1c-7.8,0.7-14.7-1.3-21.2-2.7
			c-8.2-1.8-16.6-2.8-25.1-2.8c-5.1,0-10.2,0.3-15.2-0.1c-2.9-0.4-5.8-0.2-8.6,0.4c-19.9,5-44.3,7.1-65.8,11.7
			c-6.2,1.3-12.4,1.7-18.6,1.3c-8.4-0.5-25.9,0.5-32.9-2c-8.7-3-5.4-9-14.4-12.6c-6.2-2.4-14-3.1-21.5-3.5c-37-2.4-75.9-2.5-112,3.1
			c-33,5.2-69.9,28.2-104.8,24.2c-6.3-0.7-13-0.5-19.5-1c-3.1-0.4-6.2-0.2-9.1,0.6c-2.2,0.5-4.4,0.8-6.7,0.7
			c-25-0.7-39.3,8-62.9,10.5c-0.9,0.2-1.8,0.5-2.6,0.9c-1.7,0.5-3.4,0.9-5.2,1.3c-3.5,0.7-7.2,1.3-10.8,2
			c-5.3,1.2-10.5,2.4-15.7,3.6c-47.6,10.7-93,21-129.4,41.6c-16.6,9.5-34.9,21.3-58.8,20c10.9-3.8,7.8-13.8-2.8-17.8
			c-10.5-4.1-24.6-3.9-37.4-3c-33.2,2.4-65.6,8.5-94.4,17.7c-7.8,2.5-15.7,5.3-24.7,5.6c-6,0.2-11.9-0.7-17.7-1.5
			c-60-8.1-126.8,0.8-173.2,23.1c-4.6,2.3-9.4,4.9-9.9,8.3c-0.4,2.4,1.7,4.8,2.8,7.2c6.2,13.8-19,25.1-41.1,32.7
			c-5.2,1.9-10.5,3.3-15.9,4.3c-3,0.4-6.1,0.5-9.1,0.6c-3.1,0.1-6.2,0.1-9.1,0.1c-47.8,0.1-99.3,13-127.9,34.3
			c-26.1,19.5,1.1,51.5-36.6,65.9c-15.9,6.1-35.9,9.9-46.9,18.6c-4.7,3.7-9.8,8.9-17.9,8.1c-4.1-0.4-7.2-2.2-11.3-2.7
			c-10.5-1.4-16.4,6-22,11c-13.7,12.1-44.6,15.1-61.2,26.1c-17.7,11.9-13.9,29-9.2,44c6.5,20.7,13.8,42.2,37.7,58.7
			c21.8,15,54.6,23.8,86.3,31.9c26.2,6.8,52.7,17.1,81.3,18.8c3.3,0.2,5.6,1.1,6.6,2.8c1.3,2.2,2.3,4.4,3.5,6.6
			c0.9,1.7,2.2,3.3,3.5,4.7c2.5,2.4,4.6,4.6,4.3,7.5c-0.1,0.9-0.1,1.8,0.2,2.7c23.4,91.6,23.2,186.7,95,272.8
			c12.5,14.9,26.9,29.5,37,44.9c2,3.1,6.1,74.6,10.9,187.8c0.4,8.5,0.7,17.3,1.1,26.2c3,73.4,6.3,161.8,9.5,258.9
			c4.7,141.8,9.3,936.5,12.9,1096.7c3.1,135.8,7.2,106.2,5.6,190.8c-0.1,3.1-0.1,6.2-0.2,9.3c-2.5,116.4-8.1,194.4-17.8,208.8
			c-7.1,10.3-43.7,21.8-85.5,31.9c-6.5,1.5-13.8,3.5-21.6,5.8c-42,12.1-99.7,32.9-131.4,47.2c85.9,1.1,175.6-13.2,247.5-41.2
			l0.9-0.4c102.6-39.9,241.9-52,354.6-31l90.6,16.9c111.5,20.8,249.1,9.1,351.4-29.8l40.9-15.6c102.6-39,240.6-50.6,352.2-29.6
			l11,2.1v-181.4C3753.2,3083.2,3747.5,3081.7,3741.9,3080.2z"/>
		<path id="Path_6_2_" class="st7" d="M2722.9,3145.3"/>
		<path id="Path_7_2_" class="st7" d="M2742.1,3137.6"/>
	</g>
	
		<linearGradient id="SVGID_21_" gradientUnits="userSpaceOnUse" x1="2899.988" y1="8938.873" x2="4830.5723" y2="8938.873" gradientTransform="matrix(0.9047 0 0 0.9047 -677.2186 -4254.4365)">
		<stop  offset="0" style="stop-color:#FFFFFF;stop-opacity:0"/>
		<stop  offset="0.325" style="stop-color:#D8EBEA;stop-opacity:0.325"/>
		<stop  offset="0.776" style="stop-color:#A6D2CE;stop-opacity:0.776"/>
		<stop  offset="1" style="stop-color:#93C8C4"/>
	</linearGradient>
	<path class="st31" d="M3693,3266.3v1145.1l-355-4.4l-844.9-10.5l-480.9-6l-60.2-0.7l-4.3-585.6l-0.8-275.4
		c-0.1-47.9-0.3-97.9-0.4-149.1c0-11.8-0.1-23.5-0.1-35.4l18.8,4l159.1,33.7c37.3,7.9,77.9,12,119.4,12.6c8.1,0.1,16.4,0.1,24.6-0.1
		c78.2-1.6,157.9-15.7,222.9-41l0.9-0.4c16.3-6.3,33.6-11.9,51.4-16.9c94.7-26.1,208.3-31.8,303.1-14.1l90.6,16.9
		c6.3,1.2,12.8,2.3,19.3,3.3c107.7,16.1,235.6,3.7,332.1-33l40.9-15.6c90.6-34.5,208.9-47.5,312.1-35.6c13.7,1.5,27,3.6,40.1,6.1
		L3693,3266.3z"/>
	<g class="st4">
		<g>
			<g>
				
					<linearGradient id="SVGID_22_" gradientUnits="userSpaceOnUse" x1="3887.8286" y1="5277.582" x2="3887.8286" y2="9764.4131" gradientTransform="matrix(0.9047 0 0 0.9047 -677.2186 -4254.4365)">
					<stop  offset="0" style="stop-color:#FFFFFF;stop-opacity:0"/>
					<stop  offset="0.325" style="stop-color:#D8EBEA;stop-opacity:0.325"/>
					<stop  offset="0.776" style="stop-color:#A6D2CE;stop-opacity:0.776"/>
					<stop  offset="1" style="stop-color:#93C8C4"/>
				</linearGradient>
				<path class="st32" d="M3733.8,463.7v511.4l-0.4,0.7l-213.5,423.7l-43.3,86.2l-199,394.9l-231.9,459.7l-32,63.5l-242.3,480.6
					l-135.6,268.9l-78,154.8l-14.2,28.2l-62,123l-68.1,135l-37.8,74.8l-61.6,122.1l-19.3,38.2l-19.7,39.1l-263,521.9l-43,85.3
					l-14.7,29h-1.6c-0.3-38.4-0.6-76.7-0.9-115.1c-0.1-14.7-0.3-29.6-0.4-44.3c-1-131.7-2.1-263.4-3.2-395.2
					c-0.3-28-0.5-79.1-0.7-146.1l-0.8-275.4c-0.1-47.9-0.3-97.9-0.4-149.1l14.3-23.9l4.4-7.4l150.9-253l128.8-215.9l23.2-39
					l192.2-322.5l190.9-320.2l39.6-66.4l189.1-317.4l94.3-157.5l57-95.6l4-6.9l199.7-334.9l416.1-697.6l33.1-55.5L3733.8,463.7z"/>
			</g>
		</g>
	</g>
	
		<linearGradient id="SVGID_23_" gradientUnits="userSpaceOnUse" x1="3865.5564" y1="8576.0254" x2="3865.5564" y2="9681.999" gradientTransform="matrix(0.9047 0 0 0.9047 -677.2186 -4254.4365)">
		<stop  offset="0" style="stop-color:#FFFFFF;stop-opacity:0"/>
		<stop  offset="0.325" style="stop-color:#D8EBEA;stop-opacity:0.325"/>
		<stop  offset="0.776" style="stop-color:#A6D2CE;stop-opacity:0.776"/>
		<stop  offset="1" style="stop-color:#93C8C4"/>
	</linearGradient>
	<path class="st33" d="M3693,3514.9v990H1952.9c-0.3-38.4-0.6-76.7-0.9-115.1l-4.3-585.6l-0.8-275.4c98.1-33.9,215.8-31.7,311.9,8.1
		l18.1,7.5l71.1,29.4c20.9,8.7,42.9,15.6,65.5,20.6c95.7,21.7,202.3,11.7,287-29.3l41.9-20.3c43.2-20.8,91.9-33.7,142-38.4
		c71.9-6.8,146.6,3.1,211.4,30l91.1,37.9c108.3,45.1,244.6,42.6,349.3-6.3l26.9-12.6l14.5-6.8
		C3613.3,3532,3652.4,3520.8,3693,3514.9z"/>
	
		<linearGradient id="SVGID_24_" gradientUnits="userSpaceOnUse" x1="3865.9985" y1="8826.5283" x2="3865.9985" y2="9681.999" gradientTransform="matrix(0.9047 0 0 0.9047 -677.2186 -4254.4365)">
		<stop  offset="0" style="stop-color:#FFFFFF;stop-opacity:0"/>
		<stop  offset="0.325" style="stop-color:#D8EBEA;stop-opacity:0.325"/>
		<stop  offset="0.776" style="stop-color:#A6D2CE;stop-opacity:0.776"/>
		<stop  offset="1" style="stop-color:#93C8C4"/>
	</linearGradient>
	<path class="st34" d="M3693,3871.3v633.6H1952.9c-0.3-38.4-0.6-76.7-0.9-115.1l-4.3-585.6c105.7,67,240.2,67.1,345.7,1.3
		c5.9-3.7,11.8-7.6,17.5-11.8l0.9-0.6c0.8-0.5,1.6-1.2,2.4-1.7c104.8-73.8,243.4-79.2,353.4-13.2l77.1,46.1l12.1,7.2
		c109.7,65.7,247.8,60.7,352.5-12.6l41.9-29.3c104.9-73.5,243.4-78.3,353.1-12.2c0.1,0.1,0.2,0.1,0.3,0.2l91.1,54.8
		C3626.4,3850.8,3659.2,3863.8,3693,3871.3z"/>
	<path class="st19" d="M2860.4,1427c-26.6,5-100.7-4.2-115.3,19.2c-8.5,13.7-10.5,29.1-9.3,44.8c0.9,12.4,9.8,122.3,13.1,134
		c1,3.4,55.3-53.6,56.9-53.9c35.9-40,85.8-45.1,112.8-82.4c15.5-21.4,27.5-50.9,29.2-77.4C2949.7,1383.7,2873.7,1424.5,2860.4,1427z
		 M3423.1,4084.9L3423.1,4084.9c-12,12-28.6,20.1-56,21c-102.6,3.6-184.5,203-229.2,206.6c-12.2,1-75.1-2.1-144.2-8.1
		c-74.4-6.4-156-16.3-189.9-28.2c-45.1-15.7-137.9-64.7-190-78.5c-4.3-1.2-15.7-2.9-31.1-5c-52.7-7.1-151.5-18.2-166.5-21.6
		c-18.5-4.3-60.8-12.8-98.9-24.2c-3.2-42.2-11.9-159-22.4-317.4c-0.5-8-1.1-15.9-1.6-24.1c-5.2-78.9-10.8-167.3-16.4-261.1
		c-2.9-48.6-5.8-98.7-8.6-149.7c-9.2-167.6-17.7-345.6-23.3-515.2c-11.9-357.7-11.4-678.1,21.2-785.4
		c45.4-145.9,334.9-111,355.9-175.6c35.5-34.4,163.6-256.9,208.5-285.7c21.4-26.3,49.6-45.8,74.6-68.4c5.7-5.2,11.2-10.5,16.5-16.1
		c36-38.2,57.8-87.8,79.1-136.2c21-1.6,42,1.4,63,4.6c28.4,4.3,25-8,52.7-14c14.8-3.3,12-34.5,14.1-35.4
		c11.1-34.4,49.5-27.5,51.5-77.8c-2-64.6-13.8-25.4-25.2-81.8c-0.9-4.3-12.7-22.3-30-39.6c17.1-55.8-38.8-122.4-20.1-134.1
		c10.9-6.9-4.7-31.1,7.3-35.6c8.5-3.3,25.6-67.6-9.1-86.2c-36.1-19.4-74.5-40.2-94.6-77.7c-16-30-17.9-65.5-42-91.5
		c-18.5-20-42.2-47.9-64.9-59.8c-41.8-22.1-55.5-76-102.8-90c-43.1-12.8-89.7-14-133.6-24.9c-29.6-7.3-60-11.9-90.5-10
		c-28.8,1.7-54.9,14.7-83,17c-70.3,5.8-103.9-72.3-171.4-33.3c-22.2,12.8-60.6,11.9-97.3,8.5c-36.7-3.3-55,9.7-78.3,25.8
		c-35.4,24.5-38.4,59.3-83.4,61.2c-52.8,2.4-186.8,42.9-129.3,239.3l-3.5,404.6c44.4,66.9-47-6.5-47.5,48.3
		c-1.1,138.3,36.2,312.8,36.9,400.7c1.6,206.4,22.5,505.2,24.2,711.5c0.8,103.9,1.6,527.2,2.5,902.7c0,11.9,0.1,23.6,0.1,35.4
		c0.1,51.1,0.3,101.1,0.4,149.1l0.8,275.4c0.3,67,0.5,118.1,0.7,146.1c1.1,131.7,2.2,263.4,3.2,395.2c0.1,14.7,0.3,29.6,0.4,44.3
		c0.4,38.4,0.6,76.7,1,115.1h1740v-564.5C3451,3942,3467.5,4040.6,3423.1,4084.9z M2185,1756.7c-46.8-61.3-50.6-203.9,26.6-342.2
		c23.2-41.5,53.6-68.6,86.7-85.8c36.4-18.9,68.5,19.1,105.7,17.6c60.8-2.4,95.9,25.8,112.4,31.2c8.4,20.1,18.6,35.6,23.7,40.2
		c9.7,8.8,22.4,13,34.7,17c2.3,0.7,4.5,1.6,6.6,2.5c49.6,21.9,50.6,93.1,92.5,54.4c16.5,28,21.5,60.5,19.6,93.5
		c-1.7,28-8.5,56.5-17.7,82.8c-7.5,21.5-130,96.7-152.3,112.1c-1.6,1.2-3.3,2.2-4.8,3.1c0.5,0.4,1.2,0.7,1.7,1.1c0,0-0.7,1-1.1,1.4
		c-0.7-0.5-1.4-1.1-2-1.6l-0.1-0.1C2487.8,1800.2,2264.2,1853.6,2185,1756.7z"/>
	<path d="M2472,1447.4"/>
	<g class="st21">
		<g>
			<g>
				
					<linearGradient id="SVGID_25_" gradientUnits="userSpaceOnUse" x1="4184.3911" y1="6316.8237" x2="4184.3911" y2="9744.9336" gradientTransform="matrix(0.9047 0 0 0.9047 -677.2186 -4254.4365)">
					<stop  offset="0" style="stop-color:#FFFFFF;stop-opacity:0"/>
					<stop  offset="0.325" style="stop-color:#D8EBEA;stop-opacity:0.325"/>
					<stop  offset="0.776" style="stop-color:#A6D2CE;stop-opacity:0.776"/>
					<stop  offset="1" style="stop-color:#93C8C4"/>
				</linearGradient>
				<polygon class="st35" points="3771.4,1417.2 3771.4,2816.5 3668.2,3158.2 3641.8,3258.2 3563.1,3555.5 3504.4,3777.4 
					3423.1,4084.9 3423.1,4085 3337.9,4407 3312,4504.9 2445.4,4504.9 2493,4396.5 2530.8,4310.5 2582.7,4192.8 2717.6,3886 
					2744.7,3824.2 2841.6,3604 2884.5,3506.4 2956.7,3342.4 3004.2,3234 3050.5,3128.9 3079.3,3063.4 3155.3,2890.7 3220.4,2742.5 
					3286.6,2591.8 3412.8,2304.8 3436.1,2251.8 3548.9,1995.4 3562,1965.7 3692.1,1669.9 				"/>
			</g>
		</g>
	</g>
</g>
<image style="overflow:visible;enable-background:new    ;" width="3103" height="3103" xlink:href="mer-skull.png"  transform="matrix(7.343643e-02 0 0 7.343643e-02 -3960.9375 5813.0278)">
</image>
<image style="overflow:visible;enable-background:new    ;" width="2339" height="2113" xlink:href="rock_monster.png"  transform="matrix(0.1303 1.272774e-02 -1.272774e-02 0.1303 -4274.6064 5769.8809)">
</image>
</svg>
